<?xml version="1.0" standalone="no"?>
<!DOCTYPE svg PUBLIC "-//W3C//DTD SVG 1.1//EN" "http://www.w3.org/Graphics/SVG/1.1/DTD/svg11.dtd" >
<svg xmlns="http://www.w3.org/2000/svg" xmlns:xlink="http://www.w3.org/1999/xlink" version="1.1">
<metadata>
Created by FontForge 20170910 at Sun Dec 18 08:53:55 2011
 By Jimmy Wärting
Copyright (c) 2011 by Ana Sanfelippo (anasanfe@gmail.com). Reserved Font Names "Almendra" "Almendra SC"
</metadata>
<defs>
<font id="AlmendraSC-Regular" horiz-adv-x="526" >
  <font-face 
    font-family="Almendra SC"
    font-weight="400"
    font-stretch="normal"
    units-per-em="1000"
    panose-1="2 0 0 0 0 0 0 0 0 0"
    ascent="800"
    descent="-200"
    x-height="529"
    cap-height="659"
    bbox="-166 -219 940 885"
    underline-thickness="50"
    underline-position="-100"
    unicode-range="U+0020-20AC"
  />
<missing-glyph horiz-adv-x="180" 
 />
    <glyph glyph-name=".notdef" horiz-adv-x="180" 
 />
    <glyph glyph-name=".null" horiz-adv-x="0" 
 />
    <glyph glyph-name="nonmarkingreturn" horiz-adv-x="333" 
 />
    <glyph glyph-name="space" unicode=" " horiz-adv-x="180" 
 />
    <glyph glyph-name="exclam" unicode="!" horiz-adv-x="226" 
d="M160 46q-7 -13 -24.5 -33t-29.5 -28q-12 8 -29.5 28t-24.5 33q6 12 23 27.5t31 22.5q13 -8 30 -23.5t24 -26.5zM72 679q12 6 36 11.5t31.5 5.5h9.5q11 -10 32 -40q-47 -167 -62 -474l-26 -2z" />
    <glyph glyph-name="quotedbl" unicode="&#x22;" horiz-adv-x="315" 
d="M63 649q12 6 36 11.5t31.5 5.5h9.5l12 -13q-31 -80 -46 -219l-30 -2zM198 649q12 6 36 11.5t31.5 5.5h9.5l12 -13q-31 -80 -46 -219l-30 -2z" />
    <glyph glyph-name="numbersign" unicode="#" horiz-adv-x="550" 
d="M380 371q67 -1 91 -1h32l7 -6l-10 -48l-127 3l-15 -131q64 -1 87.5 -1h30.5l7 -5l-10 -49l-121 3l-27 -228h-5q-24 5 -41 21q18 99 31 208l-108 3l-27 -232h-5q-24 5 -41 21q18 99 31 208v4l-112 3l-8 7l10 52q73 -6 117 -8l16 129l-108 3l-8 6l10 53q73 -6 112 -8
l26 209q19 0 44 5l4 -3q-21 -112 -33 -213q33 -2 109 -4l26 215q19 0 44 5l4 -3q-21 -113 -33 -217v-1zM208 193q32 -2 108 -4l16 131l-108 3z" />
    <glyph glyph-name="dollar" unicode="$" horiz-adv-x="450" 
d="M93 342q0 43 41.5 91t101.5 78l3 77q16 2 27 6l4 -3q-6 -35 -7 -68q76 0 139 -16v-14q-37 -46 -43 -113h-22q0 40 -3 63q-38 14 -74 15l-6 -147q102 -59 124 -91q10 -15 10 -31q0 -52 -43.5 -105t-110.5 -86l-1 -90h-5q-17 5 -27 15l5 62q-79 0 -151 26v13q37 46 43 112
h22q0 -39 2 -61q41 -22 87 -25l9 174q-39 23 -61.5 38t-43 37.5t-20.5 42.5zM328 132q0 27 -85 77l-7 -159q39 4 65.5 23.5t26.5 58.5zM153 399q0 -26 76 -73l5 131q-81 -9 -81 -58z" />
    <glyph glyph-name="percent" unicode="%" horiz-adv-x="744" 
d="M178 570q22 0 114 -15t158 -15t89 38l6 10q38 2 65 10l3 -3q-68 -97 -145 -217l-305 -478h-5q-26 12 -39 32q101 137 122 170l175 274q48 72 94 151l-4 1q-24 -25 -76 -25t-170 36l-3 -3q47 -44 62 -128q-14 -88 -57 -134.5t-87.5 -46.5t-85.5 42.5t-55 119.5
q14 88 58 134.5t86 46.5zM483 281.5q44 46.5 88.5 46.5t84.5 -42.5t54 -119.5q-14 -88 -57 -134.5t-87.5 -46.5t-85.5 42.5t-55 119.5q14 88 58 134.5zM249 399q0 46 -19 87.5t-52 53.5q-32 -12 -52 -54t-20 -87t20 -87t52 -54q33 12 52 53.5t19 87.5zM640 157
q0 46 -19 87.5t-52 53.5q-32 -12 -52 -54t-20 -87t20 -87t52 -54q33 12 52 53.5t19 87.5z" />
    <glyph glyph-name="ampersand" unicode="&#x26;" horiz-adv-x="602" 
d="M394 566q-48 28 -114 28t-107 -34q-1 -14 -1 -26q0 -74 38.5 -116t132.5 -42q140 0 253 32l5 -5q-10 -32 -13 -74l-3 -4q-46 6 -103 8v-150q0 -61 -57.5 -118.5t-125.5 -79.5q-107 0 -178 52t-71 148q0 69 58 115t132 46v4q-68 4 -113.5 38t-45.5 94q36 64 95.5 115
t127.5 69q71 0 140 -19q16 8 41 31l21 -14q-66 -80 -81 -191h-26q0 55 -5 93zM414 126q0 107 -14 207h-74q-79 0 -130.5 -30.5t-51.5 -100t48 -108t113 -38.5t102 24q7 14 7 46z" />
    <glyph glyph-name="quotesingle" unicode="'" horiz-adv-x="180" 
d="M63 649q12 6 36 11.5t31.5 5.5h9.5l12 -13q-31 -80 -46 -219l-30 -2z" />
    <glyph glyph-name="parenleft" unicode="(" horiz-adv-x="297" 
d="M102 -6.5q-54 128.5 -54 266t53 254t149 197.5l10 -10q-140 -191 -140 -439q0 -127 36 -250.5t104 -216.5l-10 -10q-94 80 -148 208.5z" />
    <glyph glyph-name="parenright" unicode=")" horiz-adv-x="297" 
d="M196 513.5q53 -116.5 53 -254t-54 -266t-148 -208.5l-10 10q68 93 104 216.5t36 250.5q0 248 -140 439l10 10q96 -81 149 -197.5z" />
    <glyph glyph-name="asterisk" unicode="*" horiz-adv-x="371" 
d="M203 672l26 6l2 -2q-29 -47 -36 -112q52 39 78 87h3q2 -4 5 -14.5t3 -11.5q27 5 34.5 5t8.5 -1q0 -3 -25 -35q16 -16 18 -20l-1 -2h-7q-49 0 -109 -25q56 -25 108 -25h8l1 -2q-2 -4 -18 -20q1 -2 8 -10q17 -19 17 -25q-1 -1 -8.5 -1t-34.5 5q0 -1 -3 -11.5t-5 -14.5h-3
q-27 49 -78 87q7 -65 36 -112l-2 -2l-26 6q-13 -36 -18 -39q-5 2 -18 39l-26 -6l-2 2q28 47 36 112q-51 -38 -78 -87h-3q-2 4 -5 14.5t-3 11.5q-27 -5 -34.5 -5t-8.5 1q0 3 25 35q-16 16 -18 20l1 2h8q51 0 107 25q-60 25 -108 25h-7l-1 2q2 4 18 20q-1 2 -8 10
q-17 19 -17 25q1 1 8.5 1t34.5 -5q0 1 3 11.5t5 14.5h3q26 -48 78 -87q-9 65 -36 112l2 2l26 -6q13 36 18 39q5 -2 18 -39z" />
    <glyph glyph-name="plus" unicode="+" horiz-adv-x="550" 
d="M299 222q0 -127 9 -222l-46 -9l-10 7v224h-186l-8 7l9 51q122 -6 185 -7v203l47 9l5 -6q-5 -132 -5 -206v-1q37 -1 97 -1t99 3l6 -6l-9 -46h-193z" />
    <glyph glyph-name="comma" unicode="," horiz-adv-x="213" 
d="M160 46q0 -50 -34 -102t-80 -83l-10 10q21 25 38 61.5t18 63.5q-26 24 -40 50q6 12 23 27.5t31 22.5q13 -8 30 -23.5t24 -26.5z" />
    <glyph glyph-name="hyphen" unicode="-" horiz-adv-x="286" 
d="M80 288q88 0 172 10l8 -5l-6 -42l-217 -15l-9 6l6 46h46z" />
    <glyph glyph-name="period" unicode="." horiz-adv-x="212" 
d="M160 46q-7 -13 -24.5 -33t-29.5 -28q-12 8 -29.5 28t-24.5 33q6 12 23 27.5t31 22.5q13 -8 30 -23.5t24 -26.5z" />
    <glyph glyph-name="slash" unicode="/" horiz-adv-x="354" 
d="M61 -41h-5q-23 10 -40 30q45 100 79 189l114 299q40 104 78 221q28 2 55 8l4 -3q-26 -59 -83 -212z" />
    <glyph glyph-name="zero" unicode="0" horiz-adv-x="475" 
d="M111.5 459q65.5 77 131 77t125.5 -70.5t88 -190.5q-26 -138 -91.5 -214t-131 -76t-125.5 69.5t-88 189.5q26 138 91.5 215zM116 260q0 -80 32.5 -150t89.5 -91q57 21 89.5 91t32.5 150t-32.5 150t-89.5 91q-57 -21 -89.5 -91t-32.5 -150z" />
    <glyph glyph-name="one" unicode="1" horiz-adv-x="475" 
d="M213 220v55q0 103 -3 163h-76l-2 2q0 13 3 19q78 18 134 74q12 3 28 3l4 -2q-14 -82 -14 -259v-55q0 -134 7 -187q29 -7 59 -20l-3 -19q-51 6 -101 6t-106 -8l-2 19q35 13 63 19q9 74 9 190z" />
    <glyph glyph-name="two" unicode="2" horiz-adv-x="475" 
d="M160 87h63t148 -13q10 22 23 58l21 -7q-11 -39 -11 -71t7 -61l-12 -8q-172 33 -309 33h-8q-16 -19 -26 -34l-20 9q19 47 64.5 103.5t87 98.5t74.5 95.5t33 99.5q0 84 -94 84q-35 0 -66 -14q-7 -12 -7 -32t10 -29l-1 -7q-26 -16 -48 -40q-12 1 -19 9.5t-7 19.5
q0 46 55.5 92.5t111.5 62.5q90 0 127 -42t37 -137q-81 -126 -262 -274l2 -7q15 8 26 11z" />
    <glyph glyph-name="three" unicode="3" horiz-adv-x="475" 
d="M104 149q0 -39 2 -61q24 -17 63.5 -29t75.5 -12t56 24q13 30 13 75q0 66 -37.5 101.5t-104.5 35.5l-4 6l135 159l-2 4q-15 -7 -27 -10q-58 0 -147 7q-9 -22 -20 -61l-21 7q7 40 7 69.5t-10 62.5l11 9q120 -27 280 -27q25 16 36 27l17 -15q-39 -36 -177 -179
q152 -25 152 -186q-21 -52 -74.5 -102t-107.5 -69q-41 0 -93 11t-88 28v13q38 43 43 112h22z" />
    <glyph glyph-name="four" unicode="4" horiz-adv-x="475" 
d="M343 532q-13 -77 -13 -192.5t1 -150.5q38 0 53.5 7.5t27.5 36.5l16 -3q-9 -45 -9 -92l-4 -2q-35 3 -83 3q0 -47 8 -106q21 -11 51 -18l-4 -20q-57 5 -103.5 5t-108.5 -12l-3 20q34 15 79 26q7 57 7 105h-241l-4 14q86 98 142 177t107 181q42 10 73 25zM254 430
q-51 -112 -136 -230q64 -7 140 -8l3 238h-7z" />
    <glyph glyph-name="five" unicode="5" horiz-adv-x="475" 
d="M115 149q0 -39 2 -61q24 -17 63.5 -29t75.5 -12t56 24q13 31 13 75q0 66 -37.5 101.5t-103.5 35.5q-39 0 -70 -17l-12 9q12 175 12 204.5t-4 53.5l21 4q5 -18 9 -27q128 4 229 26l11 -9q-12 -35 -12 -69t5 -64l-22 -5q-9 37 -18 60q-70 -7 -153 -7l-23 10l-4 -5l-11 -131
q39 22 73 30q95 -2 146.5 -50t51.5 -140q-21 -52 -74.5 -102t-107.5 -69q-41 0 -93 11t-88 28v13q38 43 43 112h22z" />
    <glyph glyph-name="six" unicode="6" horiz-adv-x="475" 
d="M165 196q0 -66 25.5 -107.5t77.5 -41.5t72 24q15 38 15 75q0 61 -34.5 92t-96.5 31q-15 0 -30 -3v7q32 23 57 51q90 0 141 -42t51 -126q-22 -51 -81 -103.5t-112 -67.5q-84 0 -129 47t-45 131q0 117 79.5 219t193.5 154l13 -18q-88 -63 -142.5 -146t-54.5 -176z" />
    <glyph glyph-name="seven" unicode="7" horiz-adv-x="475" 
d="M314 -6q-58 6 -108.5 6t-103.5 -11l-5 20q32 10 50 21q7 74 38.5 144.5t98.5 176.5l64 100l-3 4q-14 -6 -27 -10q-125 0 -177 5q-9 -23 -18 -60l-22 5q5 30 5 63.5t-12 68.5l11 9q102 -21 289 -27q9 11 18 23l19 -11q-68 -101 -112 -193q-82 -171 -83 -292q48 -9 80 -22z
" />
    <glyph glyph-name="eight" unicode="8" horiz-adv-x="475" 
d="M401 436q0 -61 -109 -138q99 -51 120 -97q10 -22 10 -49q-21 -55 -75 -101t-114 -66q-69 0 -120 35.5t-51 99t117 143.5q-95 59 -95 142q23 37 79.5 78.5t98.5 52.5q58 0 98.5 -25.5t40.5 -74.5zM322 71q12 24 12 46.5t-6.5 37t-23 28t-29 21.5t-39.5 23t-38 22
q-33 -25 -47.5 -48.5t-14.5 -63t35 -65t82 -25.5t69 24zM171 422q0 -61 100 -111q29 26 42.5 47.5t13.5 51.5q0 64 -86 64q-44 0 -65 -23q-5 -15 -5 -29z" />
    <glyph glyph-name="nine" unicode="9" horiz-adv-x="475" 
d="M310 325q0 66 -25.5 107.5t-77.5 41.5t-72 -24q-15 -38 -15 -75q0 -61 34 -92t97 -31q15 0 30 3v-7q-32 -23 -57 -51q-90 0 -141 42t-51 126q22 51 81 103.5t112 67.5q84 0 129 -47t45 -131q0 -117 -79.5 -219t-193.5 -154l-13 18q88 63 142.5 146t54.5 176z" />
    <glyph glyph-name="colon" unicode=":" horiz-adv-x="212" 
d="M160 46q-7 -13 -24.5 -33t-29.5 -28q-12 8 -29.5 28t-24.5 33q6 12 23 27.5t31 22.5q13 -8 30 -23.5t24 -26.5zM160 435q-7 -13 -24.5 -33t-29.5 -28q-12 8 -29.5 28t-24.5 33q6 12 23 27.5t31 22.5q13 -8 30 -23.5t24 -26.5z" />
    <glyph glyph-name="semicolon" unicode=";" horiz-adv-x="212" 
d="M160 46q0 -50 -34 -102t-80 -83l-10 10q21 25 38 61.5t18 63.5q-26 24 -40 50q6 12 23 27.5t31 22.5q13 -8 30 -23.5t24 -26.5zM160 435q-7 -13 -24.5 -33t-29.5 -28q-12 8 -29.5 28t-24.5 33q6 12 23 27.5t31 22.5q13 -8 30 -23.5t24 -26.5z" />
    <glyph glyph-name="less" unicode="&#x3c;" horiz-adv-x="550" 
d="M472 55q-212 105 -420 167l14 64q56 17 183 65t225 98l24 -46l-5 -10l-359 -139v-4l359 -138l5 -10z" />
    <glyph glyph-name="equal" unicode="=" horiz-adv-x="550" 
d="M62 203q170 -9 279.5 -9t148.5 3l6 -6l-9 -46h-426l-8 7zM62 357q170 -9 279.5 -9t148.5 3l6 -6l-9 -46h-426l-8 7z" />
    <glyph glyph-name="greater" unicode="&#x3e;" horiz-adv-x="550" 
d="M498 222q-208 -62 -420 -167l-26 47l5 10l359 138v4l-359 139l-5 10l24 46q98 -50 225 -98t183 -65z" />
    <glyph glyph-name="question" unicode="?" horiz-adv-x="335" 
d="M239 560q0 37 -24 55.5t-61 18.5t-65 -14q-7 -12 -7 -32t10 -29l-1 -7q-26 -16 -48 -40q-12 1 -19 9.5t-7 19.5q0 46 53.5 92.5t108.5 62.5q81 0 118.5 -39t37.5 -120q-63 -90 -158 -185q-7 -89 -11 -170l-26 -2l-21 139v19q120 120 120 222zM205 49q-7 -13 -24.5 -33
t-29.5 -28q-12 8 -29.5 28t-24.5 33q6 12 23 27.5t31 22.5q13 -8 30 -23.5t24 -26.5z" />
    <glyph glyph-name="at" unicode="@" horiz-adv-x="860" 
d="M300 499q88 -11 183.5 -11t183.5 11l4 -26q-25 -11 -62 -18q-11 -103 -11 -192q0 -169 22 -227l6 -3q66 36 99.5 119t33.5 177q0 287 -301 287q-102 0 -177 -46q-73 -70 -116.5 -181t-43.5 -217q0 -150 72 -231t216 -81q62 0 119 22l7 -13q-60 -42 -134 -59
q-176 0 -261 84.5t-85 260.5q0 201 113 342.5t306 168.5q349 0 349 -303q0 -149 -72.5 -255t-189.5 -123l-7 3q-31 62 -31 169v25q-37 5 -84 5t-74 -5q-17 -70 -17 -110t35 -60l-4 -17q-23 5 -88.5 5t-99.5 -8l-4 26q30 10 66 16l121 423q-53 9 -77 16zM374 229
q30 -6 76.5 -6t72.5 6q0 168 -8 218q-19 3 -41 3t-48 -2z" />
    <glyph glyph-name="A" unicode="A" horiz-adv-x="599" 
d="M474 533q-5 -74 -5 -238t13 -260q53 -5 110 -19l-3 -24q-74 8 -160.5 8t-139.5 -8l-4 25q45 14 96 21q8 66 11 213q-52 6 -114.5 6t-105.5 -6q-24 -98 -24 -157t43 -84l-4 -14q-31 4 -104.5 4t-132.5 -8l-4 25q45 14 96 21l158 560q-118 0 -151 -32q-7 -14 -7 -44t10 -41
l-1 -7q-25 -15 -50 -42q-12 1 -19.5 10t-7.5 21q0 49 59 117t110 86q151 -17 306 -29q14 18 23 46l21 -6q-14 -70 -19 -144zM183 301q45 -7 106.5 -7t102.5 7q0 177 -5 289l-3 3q-52 5 -129 5z" />
    <glyph glyph-name="B" unicode="B" horiz-adv-x="576" 
d="M53 659q85 -8 184.5 -8t124 -1.5t53.5 -7.5t45 -18q40 -27 40 -82.5t-39 -101t-95 -68.5v-4q72 0 117 -33.5t45 -98.5q0 -80 -75 -154t-162 -97q-62 0 -146 38q-17 -26 -23 -45l-21 5q24 109 24 342q0 89 -8 273q-111 -2 -142 -32q-7 -14 -7 -44t10 -41l-1 -7
q-25 -15 -50 -42q-12 1 -19.5 10t-7.5 21q0 46 52.5 109t100.5 87zM263 382q74 0 107 21q36 40 36 101.5t-33.5 79t-87 17.5t-75.5 -3q-8 -101 -8 -263t5 -250q52 -28 111.5 -28t94.5 24q23 49 23 110q0 154 -190 154l5 37h12z" />
    <glyph glyph-name="C" unicode="C" horiz-adv-x="498" 
d="M228.5 -14.5q32.5 -19.5 76 -19.5t88 25.5t74.5 63.5l14 -14q-73 -114 -198 -156q-86 0 -141 44t-77.5 113t-22.5 170t25.5 191.5t88.5 163t157 99.5q101 0 206 -19l-1 -22q-26 0 -48 -9q-25 -59 -33 -141h-25q-9 47 -9 90q-53 29 -116.5 29t-104.5 -38
q-51 -103 -51 -265q0 -181 47 -256q18 -30 50.5 -49.5z" />
    <glyph glyph-name="D" unicode="D" horiz-adv-x="620" 
d="M102 -17q24 109 24 313.5t-9 301.5q-111 -2 -142 -32q-7 -14 -7 -44t10 -41l-1 -7q-25 -15 -50 -42q-12 1 -19.5 10t-7.5 21q0 46 52.5 109t100.5 87q85 -8 252 -8q273 0 273 -265q0 -139 -73 -252t-198 -149q-72 0 -161 38q-17 -26 -23 -45zM289 604q-46 0 -77 -5
q-9 -94 -9 -260t5 -254q54 -28 123 -28t107 34q51 93 51 230t-42.5 210t-157.5 73z" />
    <glyph glyph-name="E" unicode="E" horiz-adv-x="513" 
d="M394 566q-48 28 -114 28t-107 -34q-1 -14 -1 -27q0 -160 171 -160l-5 -37h-12q-79 0 -130.5 -31.5t-51.5 -101.5t48 -108.5t113 -38.5t102 24q7 14 7 44t-10 41l1 7q25 15 50 42q12 -1 19.5 -10t7.5 -21q0 -61 -57.5 -118.5t-125.5 -79.5q-107 0 -178 52t-71 148
q0 69 58 115t132 46v4q-68 4 -113.5 38t-45.5 94q36 64 95.5 115t127.5 69q71 0 140 -19q16 8 41 31l21 -14q-66 -80 -81 -191h-26q0 55 -5 93z" />
    <glyph glyph-name="F" unicode="F" horiz-adv-x="488" 
d="M365 645q79 0 109 31l19 -10q-43 -78 -50 -182h-25q-9 43 -9 109q-26 -8 -65 -8t-129 8q-8 -74 -8 -227q43 -8 84 -8q78 0 99 43l20 -4q-9 -32 -9 -76.5t6 -87.5l-23 -4q-15 38 -20 89q-37 3 -77 3t-80 -5q1 -204 13 -281q50 -5 110 -19l-3 -24q-74 8 -160.5 8t-139.5 -8
l-4 25q45 14 96 21q11 82 11 258v59q0 99 -12 243h-2q-118 0 -151 -32q-7 -14 -7 -44t10 -41l-1 -7q-25 -15 -50 -42q-12 1 -19.5 10t-7.5 21q0 49 59 117t110 86q70 -3 163.5 -12t142.5 -9z" />
    <glyph glyph-name="G" unicode="G" horiz-adv-x="557" 
d="M305 66q47 0 98 28v82q0 23 -4 67q-35 10 -91 20l3 21q23 -3 44 -3q88 0 161 49l9 -18q-23 -18 -36 -36q-19 -174 -20 -325q-29 -53 -95.5 -102t-121.5 -49q-15 0 -25 8t-10 22q29 22 49 51l7 1q22 -17 51 -17t40 6q41 55 41 180q-55 -43 -122 -66q-120 0 -180.5 75.5
t-60.5 209t73.5 248t197.5 148.5q104 0 209 -19l-1 -22q-25 0 -48 -9q-27 -63 -33 -141h-25q-9 41 -9 93q-47 26 -115 26t-109 -34q-51 -87 -51 -221q0 -273 174 -273z" />
    <glyph glyph-name="H" unicode="H" horiz-adv-x="708" 
d="M578 652v-356q0 -187 13 -261q53 -5 110 -19l-3 -24q-64 8 -151.5 8t-148.5 -8l-4 25q45 14 96 21q10 101 11 290q-74 7 -147 7t-147 -7q1 -214 13 -293q53 -5 110 -19l-3 -24q-74 8 -160.5 8t-139.5 -8l-4 25q45 14 96 21q11 82 11 258v59q0 131 -11 241h-1
q-118 0 -151 -32q-7 -14 -7 -44t10 -41l-1 -7q-25 -15 -50 -42q-12 1 -19.5 10t-7.5 21q0 49 59 117t110 86q8 0 72 -6.5t100.5 -6.5t67.5 6l4 -25q-39 -15 -89 -27q-7 -75 -9 -223q76 -10 151 -10t143 9q-1 179 -9 272q19 61 92.5 133t128.5 72q12 0 21.5 -7.5t9.5 -19.5
q-27 -25 -42 -50l-7 -1q-11 10 -41 10t-44 -7q-32 -37 -32 -131z" />
    <glyph glyph-name="I" unicode="I" horiz-adv-x="337" 
d="M218 616q-11 -75 -11 -280t13 -301q53 -5 110 -19l-3 -24q-74 8 -160.5 8t-139.5 -8l-4 25q45 14 96 21q11 82 11 258v59q0 162 -13 258q-51 7 -96 21l4 25q53 -8 139.5 -8t160.5 8l3 -24q-57 -14 -110 -19z" />
    <glyph glyph-name="J" unicode="J" horiz-adv-x="337" 
d="M207 355v-59q0 -185 8 -263q-67 -135 -247 -214l-12 21q95 65 134.5 134.5t39.5 179.5v201q0 151 -9 241q-118 0 -151 -32q-7 -14 -7 -44t10 -41l-1 -7q-25 -15 -50 -42q-12 1 -19.5 10t-7.5 21q0 49 59 117t110 86q8 0 72 -6.5t100 -6.5t68 6l4 -25q-39 -15 -89 -27
q-12 -108 -12 -250z" />
    <glyph glyph-name="K" unicode="K" horiz-adv-x="606" 
d="M207 350v-55q87 92 134.5 156t58 91t10.5 54.5t-17 44.5l4 14q31 -4 88.5 -4t116.5 8l4 -25q-45 -14 -96 -21q-9 -85 -146 -216l174 -374q39 -84 85 -105q18 0 44 13t32 26l6 2q27 -18 60 -28q3 -6 3 -16.5t-16.5 -20t-46.5 -9.5q-63 0 -148.5 35t-118.5 72
q-22 97 -49 169t-82 183q-56 -51 -100 -87q3 -152 13 -222q53 -5 110 -19l-3 -24q-74 8 -160.5 8t-139.5 -8l-4 25q45 14 96 21q11 82 11 258v59q0 131 -11 241h-1q-118 0 -151 -32q-7 -14 -7 -44t10 -41l-1 -7q-25 -15 -50 -42q-12 1 -19.5 10t-7.5 21q0 49 59 117t110 86
q8 0 72 -6.5t100.5 -6.5t67.5 6l4 -25q-39 -15 -89 -27q-9 -92 -9 -255z" />
    <glyph glyph-name="L" unicode="L" horiz-adv-x="456" 
d="M218 616q-13 -88 -13 -279.5t8 -281.5q34 -2 64 -2q118 0 151 32q7 14 7 44t-10 41l1 7q25 15 50 42q12 -1 19.5 -10t7.5 -21q0 -49 -59 -117t-110 -86q-86 3 -186 29q-14 -18 -23 -46l-21 6q21 101 24 331v50q0 175 -11 258q-51 7 -96 21l4 25q53 -8 139.5 -8t160.5 8
l3 -24q-60 -14 -110 -19z" />
    <glyph glyph-name="M" unicode="M" horiz-adv-x="864" 
d="M325 601q0 -63 78 -306l32 -100l7 2q1 21 124 412q0 10 -11 19.5t-23 12.5l3 14q50 -4 137 -4t139 8l5 -25q-48 -15 -97 -21q-5 -24 -5 -85.5t16.5 -246.5t30.5 -246q53 -5 110 -19l-3 -24q-74 8 -160 8t-139 -8l-4 25q45 14 96 21q0 95 -11 262t-28 286l-3 1
q-143 -396 -150 -482q-65 -39 -97 -76l-12 8q2 22 2 33q0 117 -131 517l-4 -1l-31 -219q-20 -143 -20 -258q0 -37 8.5 -61t34.5 -38l-4 -14q-31 4 -105.5 4t-133.5 -8l-4 25q45 14 96 21l112 558q-118 0 -151 -32q-7 -14 -7 -44t10 -41l-1 -7q-25 -15 -50 -42
q-12 1 -19.5 10t-7.5 21q0 49 59 117t110 86q8 0 72 -6.5t99.5 -6.5t67.5 6l4 -25q-41 -16 -41 -31z" />
    <glyph glyph-name="N" unicode="N" horiz-adv-x="706" 
d="M523 296q0 171 -15 250.5t-57 94.5l4 14q31 -4 101 -4t129 8l3 -23q-71 -17 -99 -20q-13 -98 -13 -261v-59q0 -187 13 -261q51 -6 96 -18l-4 -25q-53 8 -106.5 8t-86.5 -3q0 33 -65 147t-236 381l-4 -2v-168q0 -245 37 -320q55 -5 109 -19l-2 -24q-74 8 -160.5 8
t-139.5 -8l-4 25q45 14 96 21q11 82 11 258v59q0 141 -12 241q-118 0 -151 -32q-7 -14 -7 -44t10 -41l-1 -7q-25 -15 -50 -42q-12 1 -19.5 10t-7.5 21q0 49 59 117t110 86q12 -1 67.5 -7t91.5 -6t67 6l4 -25q-41 -17 -41 -33q5 -27 57 -113.5t212 -335.5l4 2v144z" />
    <glyph glyph-name="O" unicode="O" horiz-adv-x="602" 
d="M497.5 593q62.5 -73 62.5 -208.5t-68.5 -244t-190.5 -155.5q-117 0 -188 77.5t-71 202.5q0 204 148 338l12 -8q-71 -103 -71 -256q0 -109 50.5 -195.5t140.5 -86.5q59 0 99 35q50 92 50 218q0 165 -63 242q-34 42 -85 42q-26 0 -48 -15t-31 -39q0 -20 9 -46.5t23 -33.5
l2 -7q-22 -27 -33 -57q-2 -1 -8 -1q-36 0 -36 64q0 108 112 207q122 0 184.5 -73z" />
    <glyph glyph-name="P" unicode="P" horiz-adv-x="512" 
d="M118 38q12 82 12 267t-10 293q-109 -2 -140 -32q-7 -14 -7 -44t10 -41l-1 -7q-25 -15 -50 -42q-12 1 -19.5 10t-7.5 21q0 46 52.5 109t100.5 87q85 -8 266 -8q96 0 144.5 -35t48.5 -123t-73 -143t-170 -55q-15 0 -22 1l4 32h12q75 0 115 38t40 109.5t-33.5 98.5
t-106.5 27q-38 0 -68 -3q-8 -89 -8 -281.5t12 -281.5q53 -5 110 -19l-3 -24q-74 8 -160.5 8t-139.5 -8l-4 25q45 14 96 21z" />
    <glyph glyph-name="Q" unicode="Q" horiz-adv-x="602" 
d="M777 -78q0 -31 -52 -61t-112 -45.5t-97 -15.5q-205 144 -305 144q-63 0 -107 -34l-17 16q28 25 74.5 51.5t83.5 38.5q7 0 34 -5q192 101 192 299q0 117 -41 197q-21 41 -59.5 64t-94.5 23t-94 -34q-43 -74 -43 -185q0 -234 119 -234q26 0 48 15t31 39q0 20 -9 46.5
t-23 33.5l-2 7q22 27 33 57q2 1 8 1q36 0 36 -64q0 -108 -112 -207q-104 0 -159.5 61t-55.5 178t71.5 221t188.5 137q122 0 184.5 -73t62.5 -205t-61.5 -234t-178.5 -154q57 -19 173.5 -83.5t152.5 -64.5q21 0 35.5 25t14.5 50l4 7q33 0 65 10q12 -9 12 -22z" />
    <glyph glyph-name="R" unicode="R" horiz-adv-x="619" 
d="M131 35q13 96 13 275.5t-10 287.5q-109 -2 -140 -32q-7 -14 -7 -44t10 -41l-1 -7q-25 -15 -50 -42q-12 1 -19.5 10t-7.5 21q0 46 52.5 109t100.5 87q85 -8 246 -8q102 0 155 -30.5t53 -116.5q0 -122 -125 -170l140 -296q51 -7 96 -21l-4 -25q-59 8 -127.5 8t-99.5 -4
l-4 14q17 17 17 57q0 80 -94 255q-25 5 -58 5l3 22h12q72 0 111 35.5t39 103t-35 90.5t-110 23q-35 0 -58 -3q-8 -89 -8 -287t11 -273q51 -7 96 -21l-4 -25q-53 8 -139.5 8t-160.5 -8l-3 24q57 14 110 19z" />
    <glyph glyph-name="S" unicode="S" horiz-adv-x="465" 
d="M11 12q0 88 38.5 152t80.5 64q11 0 22 -7l3 -7q-13 -25 -16 -63l-6 -4q-4 2 -15 2t-32.5 -12t-33.5 -24q-7 -14 -7 -32q0 -47 63.5 -80.5t122.5 -33.5q123 0 123 140q0 53 -101 133l-84 68q-101 80 -101 139q0 70 63 130.5t143 88.5q86 0 163 -17v-20q-52 -48 -58 -148
h-25q0 53 -5 93q-43 20 -93.5 20t-85.5 -21.5t-35 -54.5t29.5 -66.5t71.5 -65t83.5 -64t71 -70t29.5 -72.5q0 -100 -55 -178t-150 -117q-125 13 -200 70q-4 28 -4 57z" />
    <glyph glyph-name="T" unicode="T" horiz-adv-x="519" 
d="M284.5 654q89.5 -9 127.5 -9t57 6q46 44 65 67l16 -12q-53 -69 -64 -144q-99 27 -181 33q-7 -109 -7 -286.5t13 -273.5q50 -5 110 -19l-3 -24q-74 8 -160.5 8t-139.5 -8l-4 25q45 14 96 21q11 82 11 258v59q0 99 -12 243h-26q-118 0 -151 -32q-7 -14 -7 -44t10 -41l-1 -7
q-25 -15 -50 -42q-12 1 -19.5 10t-7.5 21q0 49 59 117t110 86q69 -3 158.5 -12z" />
    <glyph glyph-name="U" unicode="U" horiz-adv-x="665" 
d="M197 549q-14 -126 -14 -224t5 -132.5t20 -64.5q29 -62 112 -62t133 46q5 130 5 260t-11 244q-51 7 -96 21l4 22q61 -8 148.5 -8t151.5 8l3 -21q-57 -14 -110 -19q-13 -74 -13 -264v-59q0 -187 13 -261q53 -5 110 -19l-3 -24q-64 8 -130 8t-84 -1l-3 14q9 11 13 71
q-58 -65 -146 -99q-113 0 -157.5 65.5t-44.5 190.5q0 57 7 181t7 139t-3 35q-118 0 -151 -32q-7 -14 -7 -44t10 -41l-1 -7q-25 -15 -50 -42q-12 1 -19.5 10t-7.5 21q0 49 59 117t110 86q23 -1 60.5 -7t68.5 -6t59 4l4 -14q-45 -25 -52 -92z" />
    <glyph glyph-name="V" unicode="V" horiz-adv-x="599" 
d="M423 -8q-59 8 -131.5 8t-103.5 -4l-4 14q12 4 23 12.5t11 18.5q0 73 -133 488q-12 38 -24 67q-117 0 -150 -32q-7 -14 -7 -44t10 -41l-1 -7q-25 -15 -50 -42q-12 1 -19.5 10t-7.5 21q0 49 59 117t110 86q8 0 72 -6.5t100.5 -6.5t67.5 6l4 -25q-32 -12 -85 -26
q10 -85 52.5 -243.5t90.5 -293.5q84 186 112.5 282.5t28.5 166.5q0 94 -50 123l4 14q31 -4 99.5 -4t127.5 8l4 -25q-45 -14 -96 -21q5 -35 5 -58q0 -88 -43.5 -189t-167.5 -331q51 -7 96 -21z" />
    <glyph glyph-name="W" unicode="W" horiz-adv-x="906" 
d="M373 -4q-48 4 -101 4t-84 -4l-4 14q12 4 23 12.5t11 18.5q0 73 -133 488q-12 38 -24 67q-117 0 -150 -32q-7 -14 -7 -44t10 -41l-1 -7q-25 -15 -50 -42q-12 1 -19.5 10t-7.5 21q0 49 59 117t110 86q8 0 72 -6.5t102 -6.5h117q216 0 313 10l4 -25q-44 -14 -96 -23
q5 -35 5 -63.5t-8 -71.5q38 -170 120 -409q74 187 97.5 283.5t23.5 165.5q0 94 -50 123l4 14q31 -4 99.5 -4t127.5 8l4 -25q-45 -14 -96 -21q5 -35 5 -58q0 -84 -41.5 -193t-150.5 -328q17 -9 46 -17l-3 -21q-48 4 -101 4t-84 -4l-4 14q12 4 23 12.5t11 18.5q0 59 -71 299
h-4q-47 -121 -140 -306q17 -9 46 -17zM404.5 352.5q23.5 96.5 23.5 165t-25 89t-102.5 20.5t-136.5 -18q9 -82 51.5 -243t91.5 -297q74 187 97.5 283.5z" />
    <glyph glyph-name="X" unicode="X" horiz-adv-x="645" 
d="M452 609q0 22 -20 32l4 14q50 -4 105.5 -4t107.5 8l5 -25q-48 -15 -97 -21q-53 -84 -190 -265l196 -310q51 -7 96 -21l-4 -25q-59 8 -127.5 8t-99.5 -4l-4 14q4 8 4 22q0 65 -115 254q-129 -215 -129 -251q53 -5 110 -19l-3 -24q-80 8 -161.5 8t-138.5 -8l-5 25
q48 15 97 21q60 95 204 289l-161 269q-100 0 -133 -32q-7 -14 -7 -44t10 -41l-1 -7q-25 -15 -50 -42q-12 1 -19.5 10t-7.5 21q0 49 59 117t110 86q8 0 72 -6.5t100.5 -6.5t67.5 6l4 -25q-39 -15 -89 -27q8 -65 100 -218q110 180 110 222z" />
    <glyph glyph-name="Y" unicode="Y" horiz-adv-x="545" 
d="M234 245v26l-170 364q-39 84 -85 105q-18 0 -44 -13t-32 -26l-6 -2q-27 18 -60 28q-3 6 -3 16.5t16.5 20t46.5 9.5q63 0 148.5 -35t118.5 -72q21 -90 46.5 -154.5t80.5 -174.5q111 217 111 272q0 22 -20 32l4 14q50 -4 105.5 -4t107.5 8l5 -25q-48 -15 -97 -21l-196 -315
q0 -167 13 -263q53 -5 110 -19l-3 -24q-74 8 -160.5 8t-139.5 -8l-4 25q45 14 96 21q11 82 11 207z" />
    <glyph glyph-name="Z" unicode="Z" horiz-adv-x="459" 
d="M123 611q-64 0 -64 -66q0 -13 3 -23l-2 -8q-33 -9 -60 -27q-18 7 -18 28q0 50 75.5 100t145.5 69q97 -36 129.5 -39.5t50.5 -3.5q74 0 106 38l22 -18q-50 -46 -91 -118l-266 -459q51 -23 105.5 -64t90.5 -75q91 -86 135 -86q21 0 35.5 25t14.5 50l4 7q33 0 65 10
q12 -9 12 -22q0 -31 -52 -61t-112 -45.5t-97 -15.5q-93 104 -153.5 151.5t-117 47.5t-99.5 -41l-22 18q58 54 123 160l273 450q-16 -8 -34 -13q-143 31 -202 31z" />
    <glyph glyph-name="bracketleft" unicode="[" horiz-adv-x="326" 
d="M270 -193q-108 0 -169 -15l-7 5q10 69 10 451t-10 451l7 5q61 -15 169 -15h26v-21q-78 -2 -132 -17v-806q54 -15 132 -17v-21h-26z" />
    <glyph glyph-name="backslash" unicode="\" horiz-adv-x="351" 
d="M282 -45h-5l-178 523q-46 137 -78 218q32 11 48 21h4q26 -95 69 -224l109 -318q32 -93 72 -192q-14 -16 -41 -28z" />
    <glyph glyph-name="bracketright" unicode="]" horiz-adv-x="326" 
d="M56 689q108 0 169 15l7 -5q-10 -69 -10 -451t10 -451l-7 -5q-61 15 -169 15h-26v21q78 2 132 17v806q-54 15 -132 17v21h26z" />
    <glyph glyph-name="asciicircum" unicode="^" horiz-adv-x="518" 
d="M259 580l-180 -289l-29 15q92 158 181 380l53 10q95 -238 184 -390l-29 -15z" />
    <glyph glyph-name="underscore" unicode="_" horiz-adv-x="615" 
d="M5 -134q170 -9 369.5 -9t238.5 3l6 -6l-8 -39h-606l-8 7z" />
    <glyph glyph-name="grave" unicode="`" horiz-adv-x="200" 
d="M25 726q10 2 21.5 2t21.5 -1q24 -42 59.5 -84t72.5 -67l-11 -18l-189 109q1 10 9.5 30.5t15.5 28.5z" />
    <glyph glyph-name="a" unicode="a" horiz-adv-x="535" 
d="M108 532q94 -11 190 -11t189 11l4 -26q-30 -12 -62 -18q-11 -82 -11 -228t11 -228q20 -3 74 -15l-4 -25q-48 8 -123 8t-115 -8l-4 26q34 11 77 16q6 58 9 161q-47 5 -94 5t-82 -5q-20 -82 -20 -114q0 -49 35 -69l-4 -17q-23 5 -87 5t-101 -8l-4 26q24 9 66 16l130 456
q-44 7 -77 16zM175 242q39 -6 86.5 -6t81.5 6q0 185 -8 239q-34 2 -50.5 2t-50.5 -2z" />
    <glyph glyph-name="b" unicode="b" horiz-adv-x="524" 
d="M38 519l239 7q98 0 131 -24q32 -22 32 -67.5t-32.5 -82t-79.5 -54.5v-4q60 0 97 -25.5t37 -83t-64 -118t-131 -79.5q-24 0 -65.5 10t-67.5 20q-11 -13 -20 -37l-21 5q19 89 19 251.5t-9 243.5q-34 13 -65 13v25zM235 308q62 0 90 17q25 31 25 79q0 87 -95 87
q-33 0 -61 -11q-7 -68 -7 -209t4 -197q41 -22 90.5 -22t75.5 19q17 34 17 82q0 66 -39 93t-113 27l4 35h9z" />
    <glyph glyph-name="c" unicode="c" horiz-adv-x="434" 
d="M269 58q69 0 130 61l14 -14q-67 -85 -161 -117q-97 0 -152 61.5t-55 166t65 196.5t166 121q73 0 165 -15l-1 -22q-19 0 -36 -7q-19 -45 -25 -107h-25q-8 34 -8 70q-38 19 -90 19t-86 -28q-39 -71 -39 -172q0 -157 67 -197q29 -16 71 -16z" />
    <glyph glyph-name="d" unicode="d" horiz-adv-x="539" 
d="M36 519l230 7q114 0 175.5 -54t61.5 -161.5t-67.5 -200.5t-167.5 -122q-26 0 -67.5 9.5t-68.5 20.5q-11 -13 -20 -37l-21 5q19 89 19 251.5t-9 243.5q-34 13 -65 13v25zM329.5 472q-32.5 19 -71 19t-66.5 -11q-7 -65 -7 -207.5t4 -197.5q50 -23 102.5 -23t83.5 27
q38 72 38 177q0 98 -33 163q-18 34 -50.5 53z" />
    <glyph glyph-name="e" unicode="e" horiz-adv-x="448" 
d="M164 108q30 -50 102 -50t133 61l14 -14q-67 -85 -161 -117q-97 0 -152 61.5t-55 166t65 196.5t166 121q73 0 165 -15l-1 -22q-19 0 -36 -7q-19 -45 -25 -107h-25q-8 34 -8 70q-38 19 -90 19t-86 -28q-34 -62 -39 -148q42 -7 90 -7q83 0 100 35l21 -3q-9 -30 -9 -59t7 -71
l-24 -4q-11 30 -16 62q-40 4 -79.5 4t-89.5 -5q3 -89 33 -139z" />
    <glyph glyph-name="f" unicode="f" horiz-adv-x="440" 
d="M351 467q-35 17 -81 17t-70 -4q-8 -54 -8 -185q35 -7 67 -7q59 0 76 35l21 -3q-9 -30 -9 -59t7 -71l-24 -4q-11 30 -16 62q-40 4 -60 4t-62 -5q0 -136 9 -214q44 -5 89 -16l-3 -25q-49 8 -118 8t-120 -8l-4 26q30 10 63 15q9 72 9 204v47q0 92 -10 204q-36 7 -64 18l3 25
q75 -10 193.5 -10t183.5 11l5 -20q-40 -42 -45 -125h-25q-7 33 -7 80z" />
    <glyph glyph-name="g" unicode="g" horiz-adv-x="492" 
d="M269 58q43 0 85 25l-5 107q-28 9 -68 16l3 21q24 -2 35 -2q69 0 125 37l10 -18q-12 -11 -22 -23q-14 -136 -18 -224h-21q-8 37 -24 61q-58 -51 -117 -70q-97 0 -152 61.5t-55 166t65 196.5t166 121q73 0 165 -15l-1 -22q-19 0 -36 -7q-19 -45 -25 -107h-25q-8 34 -8 70
q-38 19 -90 19t-86 -28q-40 -73 -40 -172.5t29.5 -156t109.5 -56.5z" />
    <glyph glyph-name="h" unicode="h" horiz-adv-x="618" 
d="M359 529q51 -8 115.5 -8t116.5 7l3 -25q-38 -10 -83 -15q-10 -62 -10 -204v-47q0 -144 10 -204q45 -5 83 -15l-3 -25q-52 7 -116.5 7t-115.5 -8l-4 26q28 9 63 15q8 113 9 226q-64 6 -118 6t-117 -6q0 -165 9 -226q45 -5 83 -15l-3 -25q-52 7 -116.5 7t-115.5 -8l-4 26
q28 9 63 15q9 72 9 204v47q0 132 -10 204q-35 6 -63 15l4 26q51 -8 115.5 -8t116.5 7l3 -25q-38 -10 -83 -15q-8 -58 -8 -179q56 -8 120.5 -8t114.5 7q-1 85 -9 180q-35 6 -63 15z" />
    <glyph glyph-name="i" unicode="i" horiz-adv-x="309" 
d="M200 488q-8 -54 -8 -221t9 -234q45 -5 83 -15l-3 -25q-52 7 -116.5 7t-115.5 -8l-4 26q28 9 63 15q9 72 9 204v47q0 132 -10 204q-35 6 -63 15l4 26q51 -8 115.5 -8t116.5 7l3 -25q-38 -10 -83 -15z" />
    <glyph glyph-name="j" unicode="j" horiz-adv-x="296" 
d="M117 123v160q0 151 -8 205q-45 5 -83 15l3 25q52 -7 116.5 -7t115.5 8l4 -26q-28 -9 -63 -15q-10 -72 -10 -204v-47q0 -132 9 -204q-24 -53 -70 -100t-102 -79l-17 19q59 45 82 104.5t23 145.5z" />
    <glyph glyph-name="k" unicode="k" horiz-adv-x="525" 
d="M192 283v-41q102 108 132.5 155.5t30.5 74t-15 37.5l5 17q22 -5 63.5 -5t101.5 8l4 -26q-23 -8 -67 -16q-9 -68 -116 -169l132 -284q42 -7 66 -16l-4 -26q-37 8 -96.5 8t-83.5 -5l-5 17q14 14 14 42q0 67 -79 218q-20 -17 -83 -69q3 -122 9 -170q45 -5 83 -15l-3 -25
q-52 7 -116.5 7t-115.5 -8l-4 26q28 9 63 15q9 72 9 204v47q0 132 -10 204q-35 6 -63 15l4 26q51 -8 115.5 -8t116.5 7l3 -25q-38 -10 -83 -15q-8 -54 -8 -205z" />
    <glyph glyph-name="l" unicode="l" horiz-adv-x="407" 
d="M409 -11q-65 11 -176.5 11t-186.5 -10l-3 25q28 11 64 18q10 60 10 204v47q0 124 -10 204q-33 5 -63 15l4 26q51 -8 120 -8t118 8l3 -25q-45 -11 -89 -16q-8 -54 -8 -222.5t8 -224.5q24 -4 68 -4t79 17q14 34 14 80h25q4 -77 28 -125z" />
    <glyph glyph-name="m" unicode="m" horiz-adv-x="724" 
d="M302 56q0 62 -31 185.5t-69 239.5l-4 -1l-25 -186q-16 -115 -16 -207q0 -56 35 -75l-4 -17q-30 5 -78.5 5t-106.5 -8l-4 26q34 11 64 16l93 456q-52 9 -77 16l3 26q72 -11 133.5 -11t95.5 7l2 -17q-27 -7 -27 -23q0 -22 62 -254l22 -75l7 2q0 26 91 326q0 17 -27 24l2 17
q34 -7 96.5 -7t133.5 11l3 -26q-27 -7 -69 -15q-3 -24 -3 -70.5t13 -190.5t24 -198q37 -5 76 -14l-3 -25q-52 7 -115.5 7t-114.5 -8l-4 26q33 10 71 15q-3 236 -32 445h-3q-103 -304 -110 -394q-21 -7 -49 -25.5t-43 -36.5l-12 8v26z" />
    <glyph glyph-name="n" unicode="n" horiz-adv-x="623" 
d="M284 -7q-52 7 -116.5 7t-115.5 -8l-4 26q32 10 60 15q9 78 9 204v47q0 134 -10 206q-27 3 -65 16l3 26q57 -11 119.5 -11t89.5 7l2 -17q-27 -7 -27 -23q0 -12 23.5 -50.5t45.5 -74.5q66 -105 156 -258l3 2v122q0 134 -14 201.5t-48 78.5l2 17q26 -5 78 -5t107 11l3 -26
q-41 -13 -69 -16q-10 -80 -10 -206v-47q0 -152 10 -206q42 -7 67 -16l-3 -26q-50 11 -94 11t-68 -4q0 22 -30.5 74t-55.5 92q-81 131 -159 266l-4 -2v-134q0 -199 30 -259q45 -5 88 -15z" />
    <glyph glyph-name="o" unicode="o" 
d="M103 50.5q-61 62.5 -61 167.5t64 197t167 118q103 0 157 -58.5t54 -166.5t-58.5 -195t-162.5 -125q-99 0 -160 62.5zM246 472q-45 0 -78 -25q-41 -70 -41 -176q0 -122 68 -187q36 -35 85 -35t79 26q40 70 40 171t-36 163.5t-117 62.5z" />
    <glyph glyph-name="p" unicode="p" horiz-adv-x="460" 
d="M43 519l232 7q181 0 181 -131q0 -73 -64.5 -118t-146.5 -45q-12 0 -17 1l4 33h9q62 0 92.5 27t30.5 85t-24.5 85.5t-78.5 27.5q-33 0 -62 -11q-7 -66 -7 -224t9 -223q42 -5 88 -16l-3 -25q-49 8 -118 8t-120 -8l-4 26q30 10 63 15q10 70 10 218.5t-9 229.5q-35 13 -65 13
v25z" />
    <glyph glyph-name="q" unicode="q" 
d="M98 56q-56 61 -56 164t64 195t167 118q103 0 157 -58.5t54 -163t-52.5 -189t-146.5 -125.5q38 -1 120 -37t104 -42q32 12 59 28l12 -18q-47 -34 -85 -105q-151 110 -250 110q-48 0 -86 -29l-17 16q42 44 103 69q-91 6 -147 67zM246 472q-45 0 -78 -25q-41 -70 -41 -176
q0 -122 68 -187q36 -35 85 -35t79 26q40 70 40 171t-36 163.5t-117 62.5z" />
    <glyph glyph-name="r" unicode="r" 
d="M43 519l230 7q90 0 135 -26.5t45 -96.5q0 -48 -29.5 -85t-77.5 -55l112 -229q34 -6 64 -14l-4 -27q-42 7 -94.5 7t-82.5 -5l-4 16q13 13 13 43q0 61 -70 196q-21 4 -49 4l2 29h10q118 0 118 108q0 100 -101 100q-34 0 -61 -11q-7 -66 -7 -226t9 -221q44 -5 82 -15l-3 -25
q-52 7 -116.5 7t-115.5 -8l-4 26q28 9 63 15q10 75 10 233.5t-9 219.5q-39 13 -65 13v20z" />
    <glyph glyph-name="s" unicode="s" horiz-adv-x="421" 
d="M202 57q45 0 72 21t27 60q0 40 -113 99q-43 22 -78.5 53.5t-35.5 62.5q0 53 56 107t115 73q74 0 134 -15v-18q-42 -42 -47 -115h-25q0 28 -5 70q-35 16 -75 16t-66.5 -17.5t-26.5 -50.5q0 -23 35.5 -50t77.5 -48t77.5 -52t35.5 -62q0 -60 -53 -119.5t-117 -83.5
q-63 0 -118 15q-16 -7 -33 -23l-18 13q56 61 62 151h25q0 -35 3 -68q46 -19 91 -19z" />
    <glyph glyph-name="t" unicode="t" horiz-adv-x="431" 
d="M370 467q-35 17 -67 17t-43 -4q-8 -54 -8 -209t11 -238q45 -5 83 -15l-3 -25q-52 7 -119.5 7t-118.5 -8l-4 26q20 6 69 15q9 72 9 204v47q0 70 -11 196q-11 4 -41 4t-64 -14q-10 -31 -14 -83h-26q0 82 -27 127l5 17q77 -10 216 -10t224 11l6 -19q-25 -28 -34 -54.5
t-11 -71.5h-25q-7 33 -7 80z" />
    <glyph glyph-name="u" unicode="u" horiz-adv-x="578" 
d="M461 284v-47q0 -137 10 -205q46 -6 76 -14l-3 -25q-49 7 -100.5 7t-70.5 -3l-4 13q9 10 12 57q-52 -54 -120 -79q-172 0 -172 205q0 45 7 144t7 116t-6 33v1q-42 7 -67 15l4 27q58 -8 105 -8t77 5l4 -17q-36 -19 -42 -69q-12 -96 -12 -197t23.5 -143.5t88 -42.5t104.5 37
q4 80 4 189t-8 205q-45 5 -83 15l3 25q52 -7 116.5 -7t115.5 8l4 -26q-28 -9 -63 -15q-10 -67 -10 -204z" />
    <glyph glyph-name="v" unicode="v" horiz-adv-x="509" 
d="M353 -6q-43 6 -107.5 6t-93.5 -4l-3 16q9 2 17.5 10.5t8.5 15.5q0 57 -105 385q-14 44 -24 64q-33 4 -72 16l4 26q40 -8 115 -8t123 8l4 -25q-54 -12 -74 -15q7 -66 41.5 -195t74.5 -239q67 149 89.5 226t22.5 141t-41 86l4 17q30 -5 76.5 -5t104.5 8l4 -26
q-34 -11 -64 -16q4 -30 4 -54.5t-7.5 -59t-34.5 -94.5q-35 -74 -126 -245q20 -2 64 -17z" />
    <glyph glyph-name="w" unicode="w" horiz-adv-x="743" 
d="M327 -6q-36 6 -94.5 6t-87.5 -4l-3 16q9 2 17.5 10.5t8.5 15.5q0 57 -105 385q-14 44 -24 64q-21 3 -65 17l4 26q88 -9 261.5 -9t251.5 8l4 -26q-44 -15 -59 -17q2 -15 2 -54.5t-13 -94.5q34 -133 88 -282q60 149 80 226t20 141t-41 86l4 17q30 -5 73 -5t101 8l4 -26
q-40 -13 -57 -16q4 -30 4 -42q0 -73 -33 -156t-125 -255q19 -9 46 -17l-5 -22q-36 6 -92.5 6t-85.5 -4l-3 16q9 2 17.5 10.5t8.5 15.5q0 37 -49 202q-62 -143 -94 -207q19 -9 46 -17zM333.5 279q19.5 77 19.5 131t-20 71t-78.5 17t-115.5 -11q7 -66 41.5 -194t74.5 -238
q59 147 78.5 224z" />
    <glyph glyph-name="x" unicode="x" horiz-adv-x="527" 
d="M236 -8q-48 8 -123.5 8t-115.5 -8l-4 26q42 13 66 16q19 29 82.5 113t86.5 115l-150 225q-29 3 -67 16l4 26q40 -8 123 -8t131 8l4 -25q-52 -12 -75 -15q2 -40 83 -173q84 139 84 168q0 18 -27 25l4 17q30 -5 78.5 -5t106.5 8l4 -26q-28 -9 -70 -16q-14 -22 -73.5 -99.5
t-83.5 -109.5l160 -244q42 -7 70 -16l-4 -26q-58 8 -108 8t-80 -5l-4 17q8 5 8 18q0 47 -92 199q-96 -160 -103 -197h2q53 -7 87 -15z" />
    <glyph glyph-name="y" unicode="y" horiz-adv-x="465" 
d="M336 487q0 16 -27 22l4 17q30 -5 78.5 -5t106.5 8l4 -26q-26 -9 -66 -15l-166 -250q0 -130 10 -205q44 -5 82 -15l-3 -25q-52 7 -119.5 7t-118.5 -8l-4 26q19 6 68 15q9 54 9 163v21q-116 234 -147 272q-28 3 -62 14l4 26q40 -8 115 -8t123 8l4 -25q-47 -11 -79 -15
q34 -104 95 -219q89 173 89 217z" />
    <glyph glyph-name="z" unicode="z" horiz-adv-x="440" 
d="M334 512q44 0 77 30l21 -16q-28 -25 -64 -87l-217 -375l3 -2h120q45 0 65 15q5 33 5 69h26q6 -91 62 -148l-20 -14q-4 6 -16 14q-114 19 -276 19q-67 0 -95 -33l-21 17q45 45 74 93l227 370l-2 2h-108q-49 0 -84 -15q-6 -35 -20 -67l-24 3q2 30 2 55t-8 56q-16 9 -34 13
l2 22q17 0 127.5 -10.5t177.5 -10.5z" />
    <glyph glyph-name="braceleft" unicode="{" horiz-adv-x="300" 
d="M132.5 -159q-43.5 42 -43.5 88t13.5 128.5t13.5 129.5q0 36 -68 49l-4 19q72 16 72 54q0 47 -13.5 130t-13.5 128.5t43.5 87.5t91.5 56l4 -14q-27 -14 -51 -40t-33 -53q0 -47 22.5 -141t22.5 -134q-14 -34 -91 -79v-4q77 -45 91 -79q0 -40 -22.5 -134t-22.5 -141
q9 -27 33 -53t51 -40l-4 -14q-48 14 -91.5 56z" />
    <glyph glyph-name="bar" unicode="|" horiz-adv-x="238" 
d="M144 -199q-18 -10 -41 -17l-7 3q0 689 -7 936q34 14 52 27l5 -1q-2 -142 -2 -948z" />
    <glyph glyph-name="braceright" unicode="}" horiz-adv-x="288" 
d="M167.5 655q43.5 -42 43.5 -87.5t-13.5 -128.5t-13.5 -130q0 -38 72 -54l-4 -19q-68 -13 -68 -49q0 -47 13.5 -129.5t13.5 -128.5t-43.5 -88t-91.5 -56l-4 14q27 14 51 40t33 53q0 47 -22.5 141t-22.5 134q14 34 91 79v4q-77 45 -91 79q0 40 22.5 134t22.5 141
q-9 27 -33 53t-51 40l4 14q48 -14 91.5 -56z" />
    <glyph glyph-name="asciitilde" unicode="~" horiz-adv-x="590" 
d="M404 258q69 0 118 58l18 -11q-20 -38 -64 -71.5t-87 -45.5q-33 0 -110 33t-110 33q-66 0 -101 -54l-18 11q22 41 69.5 76.5t91.5 40.5q43 -29 96 -49.5t97 -20.5z" />
    <glyph glyph-name="exclamdown" unicode="&#xa1;" horiz-adv-x="226" 
d="M66 436q7 11 24 26.5t30 23.5q14 -7 31 -22.5t23 -27.5q-7 -13 -24.5 -33t-29.5 -28q-12 8 -29.5 28t-24.5 33zM154 -183q-12 -6 -36 -11.5t-31.5 -5.5h-9.5q-11 10 -32 40q47 157 62 459l26 2z" />
    <glyph glyph-name="cent" unicode="&#xa2;" horiz-adv-x="450" 
d="M264 72q55 0 114 53l10 -10q-52 -74 -127 -109l-1 -98h-5q-16 5 -27 15l6 77q-81 4 -119.5 58.5t-38.5 147.5t47.5 172.5t126.5 111.5l4 98q15 2 28 6l4 -3q-5 -34 -8 -91q61 0 121 -16v-14q-39 -48 -43 -105h-22q0 39 -2 61q-38 10 -56 11l-13 -365h1zM194 98
q17 -17 42 -23l12 363q-38 -2 -63 -24q-29 -61 -29 -169.5t38 -146.5z" />
    <glyph glyph-name="sterling" unicode="&#xa3;" horiz-adv-x="450" 
d="M104 136l-5 105v1l-39 -3l-9 6l6 46h46q14 86 70 155.5t139 91.5q69 0 128 -16v-14q-37 -46 -43 -113h-22q0 41 -3 64q-42 14 -86 14t-74 -26q-31 -65 -31 -154q57 2 144 12l8 -5l-6 -42l-148 -11q-7 -97 -49 -159l3 -3q15 7 27 10h16q93 0 188 -21q10 22 23 58l21 -7
q-11 -39 -11 -71.5t7 -61.5l-12 -8q-154 46 -289 46q-31 -17 -60 -46l-17 15q37 37 72 89q6 21 6 48z" />
    <glyph glyph-name="currency" unicode="&#xa4;" horiz-adv-x="567" 
d="M430 487l77 81q42 -14 53 -16l2 -4l-99 -93q33 -42 33 -105q0 -89 -57 -152q85 -81 123 -115l-2 -4q-11 -2 -53 -16l-101 105q-51 -39 -117 -52q-82 0 -137 36l-91 -89h-5q-19 21 -24 47q25 21 83 75q-34 42 -34 101q0 84 52 145q-55 50 -101 90q5 26 24 47h5l105 -104
q56 45 135 59q76 0 129 -36zM385 426.5q-38 42.5 -104 42.5t-95 -26q-32 -45 -32 -116t38 -114t104 -43t95 26q32 45 32 116.5t-38 114z" />
    <glyph glyph-name="yen" unicode="&#xa5;" horiz-adv-x="450" 
d="M-19 529q60 -6 110 -6t110 11l5 -20q-32 -10 -50 -21q13 -59 93 -222q86 168 86 220q0 19 -13 32l3 7q29 -7 70.5 -7t69.5 4l2 -22q-35 -4 -54 -13l-144 -246v-1q104 5 128 7q4 -20 9 -31v-5l-137 -2q0 -34 1 -49q105 5 127 7q4 -20 9 -31v-5l-135 -2q1 -49 9 -104
q28 -6 63 -19l-2 -19q-56 8 -106 8t-101 -6l-3 19q30 13 59 20q4 34 7 99h-11q-72 -2 -118 -9l-3 4q6 20 7 32l126 4l1 49h-13q-72 -2 -118 -9l-3 4q6 20 7 32l118 4q-86 178 -131 244q-48 9 -80 22z" />
    <glyph glyph-name="brokenbar" unicode="&#xa6;" horiz-adv-x="245" 
d="M149 340q-18 -10 -41 -17l-7 3q-1 182 -7 399q34 14 52 27l5 -1q-2 -142 -2 -411zM149 -198q-18 -10 -41 -17l-7 3q-1 182 -7 399q34 14 52 27l5 -1q-2 -142 -2 -411z" />
    <glyph glyph-name="section" unicode="&#xa7;" horiz-adv-x="467" 
d="M347 144q18 24 18 57.5t-29 66t-70 63t-82 62.5q-99 77 -99 142q23 37 79.5 78.5t98.5 52.5q64 0 124 -16v-14q-39 -48 -43 -105h-22q0 39 -2 61q-39 12 -78.5 12t-62.5 -23q-7 -12 -7 -34q0 -35 39.5 -75t88 -70.5t92.5 -71t51 -74.5q-8 -25 -34.5 -64t-47.5 -61z
M125 10l2 -42v-4q46 -17 89 -17t66 23q7 12 7 34q0 35 -39.5 75t-88 70.5t-92.5 71t-51 74.5q8 25 34.5 64t47.5 61l14 -13q-18 -24 -18 -57.5t29 -66t70 -63t82 -62.5q99 -77 99 -142q-23 -37 -79.5 -78.5t-98.5 -52.5q-72 0 -138 21v14q39 48 43 105h22v-15z" />
    <glyph glyph-name="dieresis" unicode="&#xa8;" horiz-adv-x="293" 
d="M108 661q-7 -13 -24.5 -33t-29.5 -28q-12 8 -29.5 28t-24.5 33q6 12 23 27.5t31 22.5q13 -8 30 -23.5t24 -26.5zM293 661q-7 -13 -24.5 -33t-29.5 -28q-12 8 -29.5 28t-24.5 33q6 12 23 27.5t31 22.5q13 -8 30 -23.5t24 -26.5z" />
    <glyph glyph-name="copyright" unicode="&#xa9;" horiz-adv-x="765" 
d="M313.5 219q19.5 -42 71 -42t99.5 44l12 -13q-44 -55 -122 -89q-75 0 -113 45t-38 123.5t48.5 148.5t120.5 95q63 0 120 -13l-1 -17q-17 -2 -24 -7q-16 -35 -21 -83h-18q-7 30 -7 53q-28 15 -62 15t-57 -16q-28 -54 -28 -128t19.5 -116zM42 325q0 141 99.5 241t240.5 100
t241 -100t100 -241t-100 -240.5t-241 -99.5t-240.5 99.5t-99.5 240.5zM86 325q0 -123 86.5 -210.5t209.5 -87.5t210 87.5t87 210.5t-87 211t-210 88t-209.5 -88t-86.5 -211z" />
    <glyph glyph-name="ordfeminine" unicode="&#xaa;" horiz-adv-x="410" 
d="M38 414q0 84 47 154.5t125 97.5q56 0 117 -17q13 20 20 43l17 -5q-18 -86 -18 -212.5t6 -174.5q15 -7 40 -7v-18q-47 -2 -112 -16l-6 3q9 53 9 127h-3q-29 -40 -67.5 -78t-72.5 -52q-47 0 -74.5 49t-27.5 106zM109 451q0 -39 13.5 -81t39.5 -42q28 0 68 39.5t53 71.5
q0 119 -6 155q-37 20 -79 20t-63 -20q-26 -61 -26 -143z" />
    <glyph glyph-name="guillemotleft" unicode="&#xab;" horiz-adv-x="413" 
d="M111 283l108 -158l-20 -14q-93 107 -178 158v20q95 52 178 150l19 -13zM287 285l98 -143l-20 -14q-91 96 -168 143v20q100 55 168 135l19 -13z" />
    <glyph glyph-name="logicalnot" unicode="&#xac;" horiz-adv-x="550" 
d="M447 238h-388l-8 7l9 51q169 -9 279 -9t149 3l6 -6q0 -64 5 -196l-5 -6l-47 9v147z" />
    <glyph glyph-name="registered" unicode="&#xae;" horiz-adv-x="434" 
d="M21 500q0 82 57 139t139 57t139 -57t57 -139t-57 -139t-139 -57t-139 57t-57 139zM57 500q0 -68 46.5 -115t113.5 -47t112.5 47t45.5 115t-45.5 114t-112.5 46t-113.5 -46t-46.5 -114zM129 605l90 3q36 0 55 -9.5t19 -42.5t-37 -48l43 -88l20 -5v-11q-21 3 -42 3t-37 -2
l-2 7q6 5 6 22t-26 69q-8 3 -15 3l1 11h4q39 0 39 39q0 34 -33 34q-9 0 -17 -3q-1 -19 -1 -86t3 -81l22 -5l-1 -11q-23 3 -47 3t-48 -3v11q12 3 25 5q4 40 4 94t-3 75q-12 4 -22 4v12z" />
    <glyph glyph-name="macron" unicode="&#xaf;" horiz-adv-x="274" 
d="M9 674q90 -6 151 -6t106 4l8 -5l-9 -46l-256 -3l-9 6z" />
    <glyph glyph-name="degree" unicode="&#xb0;" horiz-adv-x="367" 
d="M85 425.5q-40 29.5 -40 87t41.5 100.5t105.5 54q58 0 94 -30t36 -87.5t-38 -99t-100 -54.5q-59 0 -99 29.5zM242 600.5q-23 27.5 -63 27.5t-58 -17q-19 -29 -19 -74.5t23.5 -73.5t63 -28t57.5 17q19 29 19 75t-23 73.5z" />
    <glyph glyph-name="plusminus" unicode="&#xb1;" horiz-adv-x="550" 
d="M299 267q0 -82 9 -177l-46 -9l-10 7v179h-186l-8 7l9 51q122 -6 185 -7v158l47 9l5 -6q-5 -88 -5 -161v-1q37 -1 97 -1t99 3l6 -6l-9 -46h-193zM59 58q170 -9 279.5 -9t148.5 3l6 -6l-9 -46h-426l-8 7z" />
    <glyph glyph-name="twosuperior" unicode="&#xb2;" horiz-adv-x="372" 
d="M143 422q14 1 49.5 1t100.5 -9q10 19 20 47l17 -6q-9 -30 -9 -56t6 -53l-10 -7q-144 30 -242 30q-14 -14 -26 -30l-17 8q18 37 70 91.5t90.5 104.5t38.5 85q0 66 -70 66q-28 0 -51 -11q-5 -12 -5 -27.5t8 -20.5v-6q-12 -7 -40 -33q-23 2 -23 24q0 37 44.5 74.5t89.5 51.5
q66 0 97 -32t31 -98q-76 -99 -190 -198l2 -3q11 5 19 7z" />
    <glyph glyph-name="threesuperior" unicode="&#xb3;" horiz-adv-x="334" 
d="M78 460q0 -27 1 -42q48 -27 84 -27t46 12q9 23 9 61t-23.5 64.5t-69.5 26.5l-3 4l85 119l-2 3q-11 -5 -19 -7q-45 0 -95 5q-10 -18 -16 -42l-17 6q5 28 5 51t-7 45l9 6q86 -18 203 -18q14 8 23 18l13 -11q-21 -19 -119 -134q104 -19 104 -138q-13 -37 -51 -73t-78 -50
q-71 0 -130 26v12q23 32 30 83h18z" />
    <glyph glyph-name="acute" unicode="&#xb4;" horiz-adv-x="200" 
d="M132 727q10 1 21.5 1t21.5 -2q7 -8 15.5 -28.5t9.5 -30.5l-189 -109l-11 18q37 25 72.5 67t59.5 84z" />
    <glyph glyph-name="mu" unicode="&#xb5;" horiz-adv-x="529" 
d="M451 480q-20 -69 -20 -222.5t7 -224.5q24 -8 54 -8v-21q-64 -3 -135 -19l-7 2q11 69 11 158l-4 1q-34 -48 -87 -97.5t-97 -63.5q-25 0 -37 14q0 -105 21 -195l-3 -3q-44 -8 -76 -20l-9 7q13 94 23 543v52.5t-6 83.5l4 3q57 6 92 15l6 -5q-35 -143 -35 -308q0 -80 21 -96
q10 -9 27 -9q38 0 90 48.5t70 91.5q0 189 -14 263q60 6 98 15z" />
    <glyph glyph-name="mu" unicode="&#x3bc;" horiz-adv-x="529" 
d="M451 480q-20 -69 -20 -222.5t7 -224.5q24 -8 54 -8v-21q-64 -3 -135 -19l-7 2q11 69 11 158l-4 1q-34 -48 -87 -97.5t-97 -63.5q-25 0 -37 14q0 -105 21 -195l-3 -3q-44 -8 -76 -20l-9 7q13 94 23 543v52.5t-6 83.5l4 3q57 6 92 15l6 -5q-35 -143 -35 -308q0 -80 21 -96
q10 -9 27 -9q38 0 90 48.5t70 91.5q0 189 -14 263q60 6 98 15z" />
    <glyph glyph-name="paragraph" unicode="&#xb6;" horiz-adv-x="512" 
d="M201 658l290 -9v-25q-50 0 -98 -16q-11 -94 -11 -283v-199q-11 -87 -71.5 -164t-136.5 -77q-12 0 -21 7.5t-10 19.5q27 25 42 50l7 1q11 -10 41 -10t44 7q28 69 28 154v11v200q0 198 -9 292q-11 3 -24.5 3t-23.5 -3q-8 -57 -8 -162.5t22 -144.5l-2 -14q-7 -1 -22 -1
q-97 0 -170 55t-73 144q0 164 206 164z" />
    <glyph glyph-name="periodcentered" unicode="&#xb7;" horiz-adv-x="212" 
d="M160 284q-7 -13 -24.5 -33t-29.5 -28q-12 8 -29.5 28t-24.5 33q6 12 23 27.5t31 22.5q13 -8 30 -23.5t24 -26.5z" />
    <glyph glyph-name="cedilla" unicode="&#xb8;" horiz-adv-x="184" 
d="M88 -178q18 0 26 5q9 13 9 31q0 45 -83 45l-6 4l38 107l29 2l-24 -62l4 -3q46 0 74.5 -21t28.5 -63q-14 -27 -40.5 -49.5t-55.5 -32.5q-44 0 -88 21q10 19 16 39l4 2q32 -25 68 -25z" />
    <glyph glyph-name="onesuperior" unicode="&#xb9;" horiz-adv-x="303" 
d="M133 507v67q0 44 -3 91h-60l-2 2q0 11 2 17q72 20 110 60q12 2 26 2l3 -2q-11 -81 -11 -170v-67q0 -81 6 -127q25 -8 45 -17l-3 -17q-40 6 -85 6t-84 -7l-2 17q25 11 50 16q8 69 8 129z" />
    <glyph glyph-name="ordmasculine" unicode="&#xba;" horiz-adv-x="395" 
d="M79 307q-47 48 -47 125t48 145.5t126 88.5q77 0 117 -44t40 -121t-46.5 -145t-118.5 -97q-72 0 -119 48zM184 613q-34 0 -54 -19q-27 -53 -27 -118t29.5 -114t79.5 -49q32 0 54 20q26 47 26 117.5t-27 116.5t-81 46z" />
    <glyph glyph-name="guillemotright" unicode="&#xbb;" horiz-adv-x="413" 
d="M194 125l108 158l-105 143l17 13q83 -98 178 -150v-20q-85 -51 -178 -158zM28 142l98 143l-95 128l17 13q68 -80 168 -135v-20q-77 -47 -168 -143z" />
    <glyph glyph-name="onequarter" unicode="&#xbc;" horiz-adv-x="830" 
d="M729 263v-107q55 0 66 32l14 -4q-5 -25 -5 -44.5v-28.5l-4 -2q-24 2 -70 2q0 -45 5 -70q13 -7 45 -16l-3 -18q-40 6 -89 6t-82 -8l-2 17q27 12 54 17q5 29 5 72h-189l-4 12q137 160 191 266q36 4 71 17l6 -2q-9 -48 -9 -141zM151 -42l-5 1q-17 14 -29 40q93 118 125 161
l254 351q59 82 132 193q22 -5 53 -7l4 -3q-32 -40 -136 -184zM133 427v67q0 44 -3 91h-60l-2 2q0 11 2 17q72 20 110 60q12 2 26 2l3 -2q-11 -81 -11 -170v-67q0 -81 6 -127q25 -8 45 -17l-3 -17q-40 6 -85 6t-84 -7l-2 17q25 11 50 16q8 69 8 129zM660 331
q-33 -70 -105 -168q44 -6 108 -6l2 174h-5z" />
    <glyph glyph-name="onehalf" unicode="&#xbd;" horiz-adv-x="830" 
d="M151 -42l-5 1q-17 14 -29 40q93 118 125 161l254 351q59 82 132 193q22 -5 53 -7l4 -3q-32 -40 -136 -184zM133 427v67q0 44 -3 91h-60l-2 2q0 11 2 17q72 20 110 60q12 2 26 2l3 -2q-11 -81 -11 -170v-67q0 -81 6 -127q25 -8 45 -17l-3 -17q-40 6 -85 6t-84 -7l-2 17
q25 11 50 16q8 69 8 129zM600 83q15 1 50.5 1t99.5 -9q10 19 20 47l17 -6q-9 -30 -9 -56t6 -53l-10 -7q-144 30 -242 30q-14 -14 -26 -30l-17 8q18 37 70 91.5t90.5 104.5t38.5 86q0 65 -70 65q-28 0 -51 -11q-5 -12 -5 -27.5t8 -20.5v-6q-12 -7 -40 -33q-23 2 -23 24
q0 37 44.5 74.5t89.5 51.5q66 0 97 -32t31 -98q-76 -99 -190 -198l2 -3q11 5 19 7z" />
    <glyph glyph-name="threequarters" unicode="&#xbe;" horiz-adv-x="830" 
d="M729 263v-107q55 0 66 32l14 -4q-5 -25 -5 -44.5v-28.5l-4 -2q-24 2 -70 2q0 -45 5 -70q13 -7 45 -16l-3 -18q-40 6 -89 6t-82 -8l-2 17q27 12 54 17q5 29 5 72h-189l-4 12q137 160 191 266q36 4 71 17l6 -2q-9 -48 -9 -141zM78 380q0 -27 1 -42q48 -27 84 -27t46 12
q9 23 9 61t-23.5 64.5t-69.5 26.5l-3 4l85 119l-2 3q-11 -5 -19 -7q-45 0 -95 5q-10 -18 -16 -42l-17 6q5 28 5 51t-7 45l9 6q86 -18 203 -18q14 8 23 18l13 -11q-21 -19 -119 -134q104 -19 104 -138q-13 -37 -51 -73t-78 -50q-71 0 -130 26v12q23 32 30 83h18zM151 -42
l-5 1q-17 14 -29 40q93 118 125 161l254 351q59 82 132 193q22 -5 53 -7l4 -3q-32 -40 -136 -184zM660 331q-33 -70 -105 -168q44 -6 108 -6l2 174h-5z" />
    <glyph glyph-name="questiondown" unicode="&#xbf;" horiz-adv-x="335" 
d="M128 436q7 11 24 26.5t30 23.5q14 -7 31 -22.5t23 -27.5q-7 -13 -24.5 -33t-29.5 -28q-12 8 -29.5 28t-24.5 33zM96 -79q0 -37 24 -55.5t61 -18.5t65 14q7 12 7 32t-10 29l1 7q26 16 48 40q12 -1 19 -9.5t7 -19.5q0 -46 -53.5 -92.5t-108.5 -62.5q-81 0 -118.5 39
t-37.5 120q63 90 158 185q7 89 11 170l26 2l21 -139v-19q-120 -120 -120 -222z" />
    <glyph glyph-name="Agrave" unicode="&#xc0;" horiz-adv-x="599" 
d="M370 731l-206 75q-1 10 4.5 31.5t10.5 30.5q20 7 42 9q75 -90 157 -126zM474 533q-5 -74 -5 -238t13 -260q53 -5 110 -19l-3 -24q-74 8 -160.5 8t-139.5 -8l-4 25q45 14 96 21q8 66 11 213q-52 6 -114.5 6t-105.5 -6q-24 -98 -24 -157t43 -84l-4 -14q-31 4 -104.5 4
t-132.5 -8l-4 25q45 14 96 21l158 560q-118 0 -151 -32q-7 -14 -7 -44t10 -41l-1 -7q-25 -15 -50 -42q-12 1 -19.5 10t-7.5 21q0 49 59 117t110 86q151 -17 306 -29q14 18 23 46l21 -6q-14 -70 -19 -144zM183 301q45 -7 106.5 -7t102.5 7q0 177 -5 289l-3 3q-52 5 -129 5z
" />
    <glyph glyph-name="Aacute" unicode="&#xc1;" horiz-adv-x="599" 
d="M529 797l-206 -75l-8 20q82 36 157 126q22 -2 42 -9q5 -9 10.5 -30.5t4.5 -31.5zM474 533q-5 -74 -5 -238t13 -260q53 -5 110 -19l-3 -24q-74 8 -160.5 8t-139.5 -8l-4 25q45 14 96 21q8 66 11 213q-52 6 -114.5 6t-105.5 -6q-24 -98 -24 -157t43 -84l-4 -14
q-31 4 -104.5 4t-132.5 -8l-4 25q45 14 96 21l158 560q-118 0 -151 -32q-7 -14 -7 -44t10 -41l-1 -7q-25 -15 -50 -42q-12 1 -19.5 10t-7.5 21q0 49 59 117t110 86q151 -17 306 -29q14 18 23 46l21 -6q-14 -70 -19 -144zM183 301q45 -7 106.5 -7t102.5 7q0 177 -5 289l-3 3
q-52 5 -129 5z" />
    <glyph glyph-name="Acircumflex" unicode="&#xc2;" horiz-adv-x="599" 
d="M509 715l-161 75l-161 -75l-10 19q92 58 161 151h20q69 -93 161 -151zM474 533q-5 -74 -5 -238t13 -260q53 -5 110 -19l-3 -24q-74 8 -160.5 8t-139.5 -8l-4 25q45 14 96 21q8 66 11 213q-52 6 -114.5 6t-105.5 -6q-24 -98 -24 -157t43 -84l-4 -14q-31 4 -104.5 4
t-132.5 -8l-4 25q45 14 96 21l158 560q-118 0 -151 -32q-7 -14 -7 -44t10 -41l-1 -7q-25 -15 -50 -42q-12 1 -19.5 10t-7.5 21q0 49 59 117t110 86q151 -17 306 -29q14 18 23 46l21 -6q-14 -70 -19 -144zM183 301q45 -7 106.5 -7t102.5 7q0 177 -5 289l-3 3q-52 5 -129 5z
" />
    <glyph glyph-name="Atilde" unicode="&#xc3;" horiz-adv-x="599" 
d="M311 837q59 -31 111.5 -31t72.5 24l18 -11q-56 -61 -104 -82q-21 0 -72.5 15.5t-72.5 15.5q-43 0 -63 -24l-18 11q56 61 128 82zM474 533q-5 -74 -5 -238t13 -260q53 -5 110 -19l-3 -24q-74 8 -160.5 8t-139.5 -8l-4 25q45 14 96 21q8 66 11 213q-52 6 -114.5 6
t-105.5 -6q-24 -98 -24 -157t43 -84l-4 -14q-31 4 -104.5 4t-132.5 -8l-4 25q45 14 96 21l158 560q-118 0 -151 -32q-7 -14 -7 -44t10 -41l-1 -7q-25 -15 -50 -42q-12 1 -19.5 10t-7.5 21q0 49 59 117t110 86q151 -17 306 -29q14 18 23 46l21 -6q-14 -70 -19 -144zM183 301
q45 -7 106.5 -7t102.5 7q0 177 -5 289l-3 3q-52 5 -129 5z" />
    <glyph glyph-name="Adieresis" unicode="&#xc4;" horiz-adv-x="599" 
d="M310 803q-7 -13 -24.5 -33t-29.5 -28q-12 8 -29.5 28t-24.5 33q6 12 23 27.5t31 22.5q13 -8 30 -23.5t24 -26.5zM495 803q-7 -13 -24.5 -33t-29.5 -28q-12 8 -29.5 28t-24.5 33q6 12 23 27.5t31 22.5q13 -8 30 -23.5t24 -26.5zM474 533q-5 -74 -5 -238t13 -260
q53 -5 110 -19l-3 -24q-74 8 -160.5 8t-139.5 -8l-4 25q45 14 96 21q8 66 11 213q-52 6 -114.5 6t-105.5 -6q-24 -98 -24 -157t43 -84l-4 -14q-31 4 -104.5 4t-132.5 -8l-4 25q45 14 96 21l158 560q-118 0 -151 -32q-7 -14 -7 -44t10 -41l-1 -7q-25 -15 -50 -42
q-12 1 -19.5 10t-7.5 21q0 49 59 117t110 86q151 -17 306 -29q14 18 23 46l21 -6q-14 -70 -19 -144zM183 301q45 -7 106.5 -7t102.5 7q0 177 -5 289l-3 3q-52 5 -129 5z" />
    <glyph glyph-name="Aring" unicode="&#xc5;" horiz-adv-x="599" 
d="M474 533q-5 -74 -5 -238t13 -260q53 -5 110 -19l-3 -24q-74 8 -160.5 8t-139.5 -8l-4 25q45 14 96 21q8 66 11 213q-52 6 -114.5 6t-105.5 -6q-24 -98 -24 -157t43 -84l-4 -14q-31 4 -104.5 4t-132.5 -8l-4 25q45 14 96 21l158 560q-118 0 -151 -32q-7 -14 -7 -44t10 -41
l-1 -7q-25 -15 -50 -42q-12 1 -19.5 10t-7.5 21q0 49 59 117t110 86q151 -17 306 -29q14 18 23 46l21 -6q-14 -70 -19 -144zM183 301q45 -7 106.5 -7t102.5 7q0 177 -5 289l-3 3q-52 5 -129 5zM271 723q-28 19 -28 56.5t29.5 67t72.5 38.5q91 0 91 -74q0 -39 -26.5 -66.5
t-69.5 -40.5q-41 0 -69 19zM373.5 834q-15.5 16 -39 16t-33.5 -9q-11 -17 -11 -43t16 -42.5t38.5 -16.5t33.5 9q11 16 11 43t-15.5 43z" />
    <glyph glyph-name="AE" unicode="&#xc6;" horiz-adv-x="744" 
d="M193 682q138 -31 274 -31t266 11l4 -20q-52 -53 -59 -158h-25q-9 43 -9 109q-43 21 -99.5 21t-84.5 -5q-17 -52 -25 -244q31 -7 77 -7q89 0 109 43l20 -4q-9 -32 -9 -76.5t6 -87.5l-23 -4q-15 38 -20 89q-37 3 -82 3t-79 -5v-43q0 -95 24 -149q26 -60 112 -60
q72 0 148 78l14 -13q-83 -110 -183 -144q-111 0 -154 68t-43 188q0 6 1 74q-31 6 -77 6t-71 -6q-52 -171 -52 -227t38 -78l-4 -14q-31 4 -104.5 4t-132.5 -8l-4 25q45 14 96 21l208 576q-118 0 -151 -32q-7 -14 -7 -44t10 -41l-1 -7q-25 -15 -50 -42q-12 1 -19.5 10t-7.5 21
q0 49 59 117t110 86zM223 364q23 -6 65 -6t67 7q6 110 8.5 146t2.5 60t-3 40q-14 3 -32.5 3t-35.5 -3z" />
    <glyph glyph-name="Ccedilla" unicode="&#xc7;" horiz-adv-x="498" 
d="M238 -11q-196 28 -196 287q0 127 73.5 241.5t197.5 148.5q101 0 206 -19l-1 -22q-26 0 -48 -9q-25 -59 -33 -138h-25q-9 40 -9 93q-47 25 -112.5 25t-108.5 -36q-51 -87 -51 -221q0 -200 86 -253q36 -22 87 -22q81 0 163 78l14 -13q-83 -106 -198 -144q-13 0 -19 1
l-12 -32l4 -3q46 0 74.5 -21t28.5 -63q-14 -27 -40.5 -49.5t-55.5 -32.5q-44 0 -88 21q10 19 16 39l4 2q32 -25 68 -25q18 0 26 5q9 13 9 31q0 45 -83 45l-6 4z" />
    <glyph glyph-name="Egrave" unicode="&#xc8;" horiz-adv-x="513" 
d="M335 731l-206 75q-1 10 4.5 31.5t10.5 30.5q20 7 42 9q75 -90 157 -126zM395 566q-48 28 -114 28t-107 -34q-1 -14 -1 -27q0 -160 171 -160l-5 -37h-12q-79 0 -130.5 -31.5t-51.5 -101.5t48 -108.5t113 -38.5t102 24q7 14 7 44t-10 41l1 7q25 15 50 42q12 -1 19.5 -10
t7.5 -21q0 -61 -57.5 -118.5t-125.5 -79.5q-107 0 -178 52t-71 148q0 69 58 115t132 46v4q-68 4 -113.5 38t-45.5 94q36 64 95.5 115t127.5 69q71 0 140 -19q16 8 41 31l21 -14q-66 -80 -81 -191h-26q0 55 -5 93z" />
    <glyph glyph-name="Eacute" unicode="&#xc9;" horiz-adv-x="513" 
d="M477 797l-206 -75l-8 20q82 36 157 126q22 -2 42 -9q5 -9 10.5 -30.5t4.5 -31.5zM394 566q-48 28 -114 28t-107 -34q-1 -14 -1 -27q0 -160 171 -160l-5 -37h-12q-79 0 -130.5 -31.5t-51.5 -101.5t48 -108.5t113 -38.5t102 24q7 14 7 44t-10 41l1 7q25 15 50 42
q12 -1 19.5 -10t7.5 -21q0 -61 -57.5 -118.5t-125.5 -79.5q-107 0 -178 52t-71 148q0 69 58 115t132 46v4q-68 4 -113.5 38t-45.5 94q36 64 95.5 115t127.5 69q71 0 140 -19q16 8 41 31l21 -14q-66 -80 -81 -191h-26q0 55 -5 93z" />
    <glyph glyph-name="Ecircumflex" unicode="&#xca;" horiz-adv-x="513" 
d="M464 715l-161 75l-161 -75l-10 19q92 58 161 151h20q69 -93 161 -151zM394 566q-48 28 -114 28t-107 -34q-1 -14 -1 -27q0 -160 171 -160l-5 -37h-12q-79 0 -130.5 -31.5t-51.5 -101.5t48 -108.5t113 -38.5t102 24q7 14 7 44t-10 41l1 7q25 15 50 42q12 -1 19.5 -10
t7.5 -21q0 -61 -57.5 -118.5t-125.5 -79.5q-107 0 -178 52t-71 148q0 69 58 115t132 46v4q-68 4 -113.5 38t-45.5 94q36 64 95.5 115t127.5 69q71 0 140 -19q16 8 41 31l21 -14q-66 -80 -81 -191h-26q0 55 -5 93z" />
    <glyph glyph-name="Edieresis" unicode="&#xcb;" horiz-adv-x="513" 
d="M266 803q-7 -13 -24.5 -33t-29.5 -28q-12 8 -29.5 28t-24.5 33q6 12 23 27.5t31 22.5q13 -8 30 -23.5t24 -26.5zM451 803q-7 -13 -24.5 -33t-29.5 -28q-12 8 -29.5 28t-24.5 33q6 12 23 27.5t31 22.5q13 -8 30 -23.5t24 -26.5zM394 566q-48 28 -114 28t-107 -34
q-1 -14 -1 -27q0 -160 171 -160l-5 -37h-12q-79 0 -130.5 -31.5t-51.5 -101.5t48 -108.5t113 -38.5t102 24q7 14 7 44t-10 41l1 7q25 15 50 42q12 -1 19.5 -10t7.5 -21q0 -61 -57.5 -118.5t-125.5 -79.5q-107 0 -178 52t-71 148q0 69 58 115t132 46v4q-68 4 -113.5 38
t-45.5 94q36 64 95.5 115t127.5 69q71 0 140 -19q16 8 41 31l21 -14q-66 -80 -81 -191h-26q0 55 -5 93z" />
    <glyph glyph-name="Igrave" unicode="&#xcc;" horiz-adv-x="337" 
d="M229 731l-206 75q-1 10 4.5 31.5t10.5 30.5q20 7 42 9q75 -90 157 -126zM218 616q-11 -75 -11 -280t13 -301q53 -5 110 -19l-3 -24q-74 8 -160.5 8t-139.5 -8l-4 25q45 14 96 21q11 82 11 258v59q0 162 -13 258q-51 7 -96 21l4 25q53 -8 139.5 -8t160.5 8l3 -24
q-57 -14 -110 -19z" />
    <glyph glyph-name="Iacute" unicode="&#xcd;" horiz-adv-x="337" 
d="M315 797l-206 -75l-8 20q82 36 157 126q22 -2 42 -9q5 -9 10.5 -30.5t4.5 -31.5zM218 616q-11 -75 -11 -280t13 -301q53 -5 110 -19l-3 -24q-74 8 -160.5 8t-139.5 -8l-4 25q45 14 96 21q11 82 11 258v59q0 162 -13 258q-51 7 -96 21l4 25q53 -8 139.5 -8t160.5 8l3 -24
q-57 -14 -110 -19z" />
    <glyph glyph-name="Icircumflex" unicode="&#xce;" horiz-adv-x="337" 
d="M335 715l-161 75l-161 -75l-10 19q92 58 161 151h20q69 -93 161 -151z" />
    <glyph glyph-name="Idieresis" unicode="&#xcf;" horiz-adv-x="337" 
d="M135 803q-7 -13 -24.5 -33t-29.5 -28q-12 8 -29.5 28t-24.5 33q6 12 23 27.5t31 22.5q13 -8 30 -23.5t24 -26.5zM320 803q-7 -13 -24.5 -33t-29.5 -28q-12 8 -29.5 28t-24.5 33q6 12 23 27.5t31 22.5q13 -8 30 -23.5t24 -26.5zM218 616q-11 -75 -11 -280t13 -301
q53 -5 110 -19l-3 -24q-74 8 -160.5 8t-139.5 -8l-4 25q45 14 96 21q11 82 11 258v59q0 162 -13 258q-51 7 -96 21l4 25q53 -8 139.5 -8t160.5 8l3 -24q-57 -14 -110 -19z" />
    <glyph glyph-name="Eth" unicode="&#xd0;" horiz-adv-x="620" 
d="M-25 566q-7 -14 -7 -44t10 -41l-1 -7q-25 -15 -50 -42q-12 1 -19.5 10t-7.5 21q0 46 52.5 109t100.5 87q85 -8 252 -8q273 0 273 -265q0 -139 -73 -252t-198 -149q-72 0 -161 38q-17 -26 -23 -45l-21 5q24 108 24 341q-61 -3 -107 -9l-3 4q6 20 7 32l103 3q-1 141 -9 244
q-111 -2 -142 -32zM208 85q54 -28 123 -28t107 34q51 93 51 230t-42.5 210t-157.5 73q-46 0 -77 -5q-9 -87 -9 -242q112 4 145 7q4 -20 9 -31v-5l-154 -3q0 -152 5 -240z" />
    <glyph glyph-name="Ntilde" unicode="&#xd1;" horiz-adv-x="706" 
d="M329 837q59 -31 111.5 -31t72.5 24l18 -11q-56 -61 -104 -82q-21 0 -72.5 15.5t-72.5 15.5q-43 0 -63 -24l-18 11q56 61 128 82zM523 296q0 171 -15 250.5t-57 94.5l4 14q31 -4 101 -4t129 8l3 -23q-71 -17 -99 -20q-13 -98 -13 -261v-59q0 -187 13 -261q51 -6 96 -18
l-4 -25q-53 8 -106.5 8t-86.5 -3q0 33 -65 147t-236 381l-4 -2v-168q0 -245 37 -320q55 -5 109 -19l-2 -24q-74 8 -160.5 8t-139.5 -8l-4 25q45 14 96 21q11 82 11 258v59q0 141 -12 241q-118 0 -151 -32q-7 -14 -7 -44t10 -41l-1 -7q-25 -15 -50 -42q-12 1 -19.5 10
t-7.5 21q0 49 59 117t110 86q12 -1 67.5 -7t91.5 -6t67 6l4 -25q-41 -17 -41 -33q5 -27 57 -113.5t212 -335.5l4 2v144z" />
    <glyph glyph-name="Ograve" unicode="&#xd2;" horiz-adv-x="602" 
d="M375 731l-206 75q-1 10 4.5 31.5t10.5 30.5q20 7 42 9q75 -90 157 -126zM497.5 593q62.5 -73 62.5 -208.5t-68.5 -244t-190.5 -155.5q-117 0 -188 77.5t-71 202.5q0 204 148 338l12 -8q-71 -103 -71 -256q0 -109 50.5 -195.5t140.5 -86.5q59 0 99 35q50 92 50 218
q0 165 -63 242q-34 42 -85 42q-26 0 -48 -15t-31 -39q0 -20 9 -46.5t23 -33.5l2 -7q-22 -27 -33 -57q-2 -1 -8 -1q-36 0 -36 64q0 108 112 207q122 0 184.5 -73z" />
    <glyph glyph-name="Oacute" unicode="&#xd3;" horiz-adv-x="602" 
d="M485 797l-206 -75l-8 20q82 36 157 126q22 -2 42 -9q5 -9 10.5 -30.5t4.5 -31.5zM497.5 593q62.5 -73 62.5 -208.5t-68.5 -244t-190.5 -155.5q-117 0 -188 77.5t-71 202.5q0 204 148 338l12 -8q-71 -103 -71 -256q0 -109 50.5 -195.5t140.5 -86.5q59 0 99 35
q50 92 50 218q0 165 -63 242q-34 42 -85 42q-26 0 -48 -15t-31 -39q0 -20 9 -46.5t23 -33.5l2 -7q-22 -27 -33 -57q-2 -1 -8 -1q-36 0 -36 64q0 108 112 207q122 0 184.5 -73z" />
    <glyph glyph-name="Ocircumflex" unicode="&#xd4;" horiz-adv-x="602" 
d="M482 715l-161 75l-161 -75l-10 19q92 58 161 151h20q69 -93 161 -151zM497.5 593q62.5 -73 62.5 -208.5t-68.5 -244t-190.5 -155.5q-117 0 -188 77.5t-71 202.5q0 204 148 338l12 -8q-71 -103 -71 -256q0 -109 50.5 -195.5t140.5 -86.5q59 0 99 35q50 92 50 218
q0 165 -63 242q-34 42 -85 42q-26 0 -48 -15t-31 -39q0 -20 9 -46.5t23 -33.5l2 -7q-22 -27 -33 -57q-2 -1 -8 -1q-36 0 -36 64q0 108 112 207q122 0 184.5 -73z" />
    <glyph glyph-name="Otilde" unicode="&#xd5;" horiz-adv-x="602" 
d="M285 837q59 -31 111.5 -31t72.5 24l18 -11q-56 -61 -104 -82q-21 0 -72.5 15.5t-72.5 15.5q-43 0 -63 -24l-18 11q56 61 128 82zM497.5 593q62.5 -73 62.5 -208.5t-68.5 -244t-190.5 -155.5q-117 0 -188 77.5t-71 202.5q0 204 148 338l12 -8q-71 -103 -71 -256
q0 -109 50.5 -195.5t140.5 -86.5q59 0 99 35q50 92 50 218q0 165 -63 242q-34 42 -85 42q-26 0 -48 -15t-31 -39q0 -20 9 -46.5t23 -33.5l2 -7q-22 -27 -33 -57q-2 -1 -8 -1q-36 0 -36 64q0 108 112 207q122 0 184.5 -73z" />
    <glyph glyph-name="Odieresis" unicode="&#xd6;" horiz-adv-x="602" 
d="M283 803q-7 -13 -24.5 -33t-29.5 -28q-12 8 -29.5 28t-24.5 33q6 12 23 27.5t31 22.5q13 -8 30 -23.5t24 -26.5zM468 803q-7 -13 -24.5 -33t-29.5 -28q-12 8 -29.5 28t-24.5 33q6 12 23 27.5t31 22.5q13 -8 30 -23.5t24 -26.5zM497.5 593q62.5 -73 62.5 -208.5
t-68.5 -244t-190.5 -155.5q-117 0 -188 77.5t-71 202.5q0 204 148 338l12 -8q-71 -103 -71 -256q0 -109 50.5 -195.5t140.5 -86.5q59 0 99 35q50 92 50 218q0 165 -63 242q-34 42 -85 42q-26 0 -48 -15t-31 -39q0 -20 9 -46.5t23 -33.5l2 -7q-22 -27 -33 -57q-2 -1 -8 -1
q-36 0 -36 64q0 108 112 207q122 0 184.5 -73z" />
    <glyph glyph-name="multiply" unicode="&#xd7;" horiz-adv-x="550" 
d="M427 425l38 -35l-154 -151q37 -38 94.5 -89t69.5 -61l-28 -39h-11l-158 155l-158 -155h-11l-28 39q130 116 163 150l-153 151l38 35l8 -1q43 -48 141 -151l141 151z" />
    <glyph glyph-name="Oslash" unicode="&#xd8;" horiz-adv-x="602" 
d="M158 -87h-5q-16 9 -26 24q48 107 86 206l140 368q40 104 78 221q23 2 38 7l4 -3q-20 -47 -315 -823zM497.5 593q62.5 -73 62.5 -208.5t-68.5 -244t-190.5 -155.5q-117 0 -188 77.5t-71 202.5q0 204 148 338l12 -8q-71 -103 -71 -256q0 -109 50.5 -195.5t140.5 -86.5
q59 0 99 35q50 92 50 218q0 165 -63 242q-34 42 -85 42q-26 0 -48 -15t-31 -39q0 -20 9 -46.5t23 -33.5l2 -7q-22 -27 -33 -57q-2 -1 -8 -1q-36 0 -36 64q0 108 112 207q122 0 184.5 -73z" />
    <glyph glyph-name="Ugrave" unicode="&#xd9;" horiz-adv-x="665" 
d="M392 731l-206 75q-1 10 4.5 31.5t10.5 30.5q20 7 42 9q75 -90 157 -126zM197 549q-14 -126 -14 -224t5 -132.5t20 -64.5q29 -62 112 -62t133 46q5 130 5 260t-11 244q-51 7 -96 21l4 22q61 -8 148.5 -8t151.5 8l3 -21q-57 -14 -110 -19q-13 -74 -13 -264v-59
q0 -187 13 -261q53 -5 110 -19l-3 -24q-64 8 -130 8t-84 -1l-3 14q9 11 13 71q-58 -65 -146 -99q-113 0 -157.5 65.5t-44.5 190.5q0 57 7 181t7 139t-3 35q-118 0 -151 -32q-7 -14 -7 -44t10 -41l-1 -7q-25 -15 -50 -42q-12 1 -19.5 10t-7.5 21q0 49 59 117t110 86
q23 -1 60.5 -7t68.5 -6t59 4l4 -14q-45 -25 -52 -92z" />
    <glyph glyph-name="Uacute" unicode="&#xda;" horiz-adv-x="665" 
d="M538 797l-206 -75l-8 20q82 36 157 126q22 -2 42 -9q5 -9 10.5 -30.5t4.5 -31.5zM197 549q-14 -126 -14 -224t5 -132.5t20 -64.5q29 -62 112 -62t133 46q5 130 5 260t-11 244q-51 7 -96 21l4 22q61 -8 148.5 -8t151.5 8l3 -21q-57 -14 -110 -19q-13 -74 -13 -264v-59
q0 -187 13 -261q53 -5 110 -19l-3 -24q-64 8 -130 8t-84 -1l-3 14q9 11 13 71q-58 -65 -146 -99q-113 0 -157.5 65.5t-44.5 190.5q0 57 7 181t7 139t-3 35q-118 0 -151 -32q-7 -14 -7 -44t10 -41l-1 -7q-25 -15 -50 -42q-12 1 -19.5 10t-7.5 21q0 49 59 117t110 86
q23 -1 60.5 -7t68.5 -6t59 4l4 -14q-45 -25 -52 -92z" />
    <glyph glyph-name="Ucircumflex" unicode="&#xdb;" horiz-adv-x="665" 
d="M516 715l-161 75l-161 -75l-10 19q92 58 161 151h20q69 -93 161 -151zM197 549q-14 -126 -14 -224t5 -132.5t20 -64.5q29 -62 112 -62t133 46q5 130 5 260t-11 244q-51 7 -96 21l4 22q61 -8 148.5 -8t151.5 8l3 -21q-57 -14 -110 -19q-13 -74 -13 -264v-59
q0 -187 13 -261q53 -5 110 -19l-3 -24q-64 8 -130 8t-84 -1l-3 14q9 11 13 71q-58 -65 -146 -99q-113 0 -157.5 65.5t-44.5 190.5q0 57 7 181t7 139t-3 35q-118 0 -151 -32q-7 -14 -7 -44t10 -41l-1 -7q-25 -15 -50 -42q-12 1 -19.5 10t-7.5 21q0 49 59 117t110 86
q23 -1 60.5 -7t68.5 -6t59 4l4 -14q-45 -25 -52 -92z" />
    <glyph glyph-name="Udieresis" unicode="&#xdc;" horiz-adv-x="665" 
d="M317 803q-7 -13 -24.5 -33t-29.5 -28q-12 8 -29.5 28t-24.5 33q6 12 23 27.5t31 22.5q13 -8 30 -23.5t24 -26.5zM502 803q-7 -13 -24.5 -33t-29.5 -28q-12 8 -29.5 28t-24.5 33q6 12 23 27.5t31 22.5q13 -8 30 -23.5t24 -26.5zM197 549q-14 -126 -14 -224t5 -132.5
t20 -64.5q29 -62 112 -62t133 46q5 130 5 260t-11 244q-51 7 -96 21l4 22q61 -8 148.5 -8t151.5 8l3 -21q-57 -14 -110 -19q-13 -74 -13 -264v-59q0 -187 13 -261q53 -5 110 -19l-3 -24q-64 8 -130 8t-84 -1l-3 14q9 11 13 71q-58 -65 -146 -99q-113 0 -157.5 65.5
t-44.5 190.5q0 57 7 181t7 139t-3 35q-118 0 -151 -32q-7 -14 -7 -44t10 -41l-1 -7q-25 -15 -50 -42q-12 1 -19.5 10t-7.5 21q0 49 59 117t110 86q23 -1 60.5 -7t68.5 -6t59 4l4 -14q-45 -25 -52 -92z" />
    <glyph glyph-name="Yacute" unicode="&#xdd;" horiz-adv-x="545" 
d="M493 797l-206 -75l-8 20q82 36 157 126q22 -2 42 -9q5 -9 10.5 -30.5t4.5 -31.5zM234 245v26l-170 364q-39 84 -85 105q-18 0 -44 -13t-32 -26l-6 -2q-27 18 -60 28q-3 6 -3 16.5t16.5 20t46.5 9.5q63 0 148.5 -35t118.5 -72q21 -90 46.5 -154.5t80.5 -174.5
q111 217 111 272q0 22 -20 32l4 14q50 -4 105.5 -4t107.5 8l5 -25q-48 -15 -97 -21l-196 -315q0 -167 13 -263q53 -5 110 -19l-3 -24q-74 8 -160.5 8t-139.5 -8l-4 25q45 14 96 21q11 82 11 207z" />
    <glyph glyph-name="Thorn" unicode="&#xde;" horiz-adv-x="517" 
d="M211 525l94 3q206 0 206 -164q0 -89 -73 -144t-170 -55q-15 0 -22 1l4 32h12q75 0 115 38t40 111t-31 108.5t-98 35.5q-40 0 -78 -13h-1q-2 -40 -2 -193.5t13 -249.5q53 -5 110 -19l-3 -24q-74 8 -160.5 8t-139.5 -8l-4 25q45 14 96 21q11 82 11 258v59q0 162 -13 258
q-51 7 -96 21l4 25q53 -8 139.5 -8t160.5 8l3 -24q-57 -14 -110 -19q-4 -19 -7 -91z" />
    <glyph glyph-name="germandbls" unicode="&#xdf;" horiz-adv-x="833" 
d="M202 57q45 0 72 21t27 60q0 40 -113 99q-43 22 -78.5 53.5t-35.5 62.5q0 53 56 107t115 73q74 0 134 -15v-18q-42 -42 -47 -115h-25q0 28 -5 70q-35 16 -75 16t-66.5 -17.5t-26.5 -50.5q0 -23 35.5 -50t77.5 -48t77.5 -52t35.5 -62q0 -60 -53 -119.5t-117 -83.5
q-63 0 -118 15q-16 -7 -33 -23l-18 13q56 61 62 151h25q0 -35 3 -68q46 -19 91 -19zM623 57q45 0 72 21t27 60q0 40 -114 99q-42 22 -77.5 53.5t-35.5 62.5q0 53 56 107t115 73q74 0 134 -15v-18q-42 -42 -47 -115h-25q0 28 -5 70q-35 16 -75 16t-66.5 -17.5t-26.5 -50.5
q0 -23 35.5 -50t77.5 -48t77.5 -52t35.5 -62q0 -60 -53 -119.5t-117 -83.5q-63 0 -118 15q-16 -7 -33 -23l-18 13q56 61 62 151h25q0 -35 3 -68q46 -19 91 -19z" />
    <glyph glyph-name="agrave" unicode="&#xe0;" horiz-adv-x="535" 
d="M108 532q94 -11 190 -11t189 11l4 -26q-30 -12 -62 -18q-11 -82 -11 -228t11 -228q20 -3 74 -15l-4 -25q-48 8 -123 8t-115 -8l-4 26q34 11 77 16q6 58 9 161q-47 5 -94 5t-82 -5q-20 -82 -20 -114q0 -49 35 -69l-4 -17q-23 5 -87 5t-101 -8l-4 26q24 9 66 16l130 456
q-44 7 -77 16zM175 242q39 -6 86.5 -6t81.5 6q0 185 -8 239q-34 2 -50.5 2t-50.5 -2zM158 726q10 2 21.5 2t21.5 -1q24 -42 59.5 -84t72.5 -67l-11 -18l-189 109q1 10 9.5 30.5t15.5 28.5z" />
    <glyph glyph-name="aacute" unicode="&#xe1;" horiz-adv-x="535" 
d="M108 532q94 -11 190 -11t189 11l4 -26q-30 -12 -62 -18q-11 -82 -11 -228t11 -228q20 -3 74 -15l-4 -25q-48 8 -123 8t-115 -8l-4 26q34 11 77 16q6 58 9 161q-47 5 -94 5t-82 -5q-20 -82 -20 -114q0 -49 35 -69l-4 -17q-23 5 -87 5t-101 -8l-4 26q24 9 66 16l130 456
q-44 7 -77 16zM175 242q39 -6 86.5 -6t81.5 6q0 185 -8 239q-34 2 -50.5 2t-50.5 -2zM403 727q10 1 21.5 1t21.5 -2q7 -8 15.5 -28.5t9.5 -30.5l-189 -109l-11 18q37 25 72.5 67t59.5 84z" />
    <glyph glyph-name="acircumflex" unicode="&#xe2;" horiz-adv-x="535" 
d="M108 532q94 -11 190 -11t189 11l4 -26q-30 -12 -62 -18q-11 -82 -11 -228t11 -228q20 -3 74 -15l-4 -25q-48 8 -123 8t-115 -8l-4 26q34 11 77 16q6 58 9 161q-47 5 -94 5t-82 -5q-20 -82 -20 -114q0 -49 35 -69l-4 -17q-23 5 -87 5t-101 -8l-4 26q24 9 66 16l130 456
q-44 7 -77 16zM175 242q39 -6 86.5 -6t81.5 6q0 185 -8 239q-34 2 -50.5 2t-50.5 -2zM304 644l-134 -90l-13 17q84 71 137 168h20q53 -97 137 -168l-13 -17z" />
    <glyph glyph-name="atilde" unicode="&#xe3;" horiz-adv-x="535" 
d="M108 532q94 -11 190 -11t189 11l4 -26q-30 -12 -62 -18q-11 -82 -11 -228t11 -228q20 -3 74 -15l-4 -25q-48 8 -123 8t-115 -8l-4 26q34 11 77 16q6 58 9 161q-47 5 -94 5t-82 -5q-20 -82 -20 -114q0 -49 35 -69l-4 -17q-23 5 -87 5t-101 -8l-4 26q24 9 66 16l130 456
q-44 7 -77 16zM175 242q39 -6 86.5 -6t81.5 6q0 185 -8 239q-34 2 -50.5 2t-50.5 -2zM276 696q59 -31 111.5 -31t72.5 24l18 -11q-56 -61 -104 -82q-21 0 -72.5 15.5t-72.5 15.5q-43 0 -63 -24l-18 11q56 61 128 82z" />
    <glyph glyph-name="adieresis" unicode="&#xe4;" horiz-adv-x="535" 
d="M108 532q94 -11 190 -11t189 11l4 -26q-30 -12 -62 -18q-11 -82 -11 -228t11 -228q20 -3 74 -15l-4 -25q-48 8 -123 8t-115 -8l-4 26q34 11 77 16q6 58 9 161q-47 5 -94 5t-82 -5q-20 -82 -20 -114q0 -49 35 -69l-4 -17q-23 5 -87 5t-101 -8l-4 26q24 9 66 16l130 456
q-44 7 -77 16zM175 242q39 -6 86.5 -6t81.5 6q0 185 -8 239q-34 2 -50.5 2t-50.5 -2zM259 661q-7 -13 -24.5 -33t-29.5 -28q-12 8 -29.5 28t-24.5 33q6 12 23 27.5t31 22.5q13 -8 30 -23.5t24 -26.5zM444 661q-7 -13 -24.5 -33t-29.5 -28q-12 8 -29.5 28t-24.5 33
q6 12 23 27.5t31 22.5q13 -8 30 -23.5t24 -26.5z" />
    <glyph glyph-name="aring" unicode="&#xe5;" horiz-adv-x="514" 
d="M108 532q94 -11 190 -11t189 11l4 -26q-30 -12 -62 -18q-11 -82 -11 -228t11 -228q20 -3 74 -15l-4 -25q-48 8 -123 8t-115 -8l-4 26q34 11 77 16q6 58 9 161q-47 5 -94 5t-82 -5q-20 -82 -20 -114q0 -49 35 -69l-4 -17q-23 5 -87 5t-101 -8l-4 26q24 9 66 16l130 456
q-44 7 -77 16zM175 242q39 -6 86.5 -6t81.5 6q0 185 -8 239q-34 2 -50.5 2t-50.5 -2zM242 577q-28 19 -28 56.5t29.5 67t72.5 38.5q91 0 91 -74q0 -39 -26.5 -66.5t-69.5 -40.5q-41 0 -69 19zM344.5 688q-15.5 16 -39 16t-33.5 -9q-11 -17 -11 -43t16 -42.5t38.5 -16.5
t33.5 9q11 16 11 43t-15.5 43z" />
    <glyph glyph-name="ae" unicode="&#xe6;" horiz-adv-x="633" 
d="M137 532q94 -11 228 -11t256 12l5 -20q-40 -42 -45 -122h-25q-7 33 -7 80q-35 17 -82.5 17t-65.5 -4q-13 -34 -21 -186q35 -7 69 -7q61 0 78 35l21 -3q-9 -30 -9 -59t7 -71l-24 -4q-11 30 -16 62q-40 4 -62 4t-64 -5v-30q0 -79 22.5 -120.5t86.5 -41.5t120 56l11 -10
q-68 -88 -148 -116q-169 0 -169 200q0 5 1 62q-28 5 -62 5t-55 -5q-39 -139 -39 -180t30 -58l-4 -17q-23 5 -86 5t-100 -8l-4 26q24 9 66 16l158 456q-47 8 -74 16zM202 296q19 -5 51 -5t52 6q2 40 5.5 87t3.5 66t-2 32q-12 3 -26 3t-27 -3z" />
    <glyph glyph-name="ccedilla" unicode="&#xe7;" horiz-adv-x="387" 
d="M269 58q-42 0 -71 16q-67 40 -67 197q0 101 39 172q34 28 86 28t90 -19q0 -36 8 -70h25q6 62 25 107q17 7 36 7l1 22q-92 15 -165 15q-101 -29 -166 -121t-65 -196.5t55 -166t152 -61.5q94 32 161 117l-14 14q-61 -61 -130 -61zM234 -178q18 0 26 5q9 13 9 31
q0 45 -83 45l-6 4l38 107l29 2l-24 -62l4 -3q46 0 74.5 -21t28.5 -63q-14 -27 -40.5 -49.5t-55.5 -32.5q-44 0 -88 21q10 19 16 39l4 2q32 -25 68 -25z" />
    <glyph glyph-name="egrave" unicode="&#xe8;" horiz-adv-x="448" 
d="M164 108q30 -50 102 -50t133 61l14 -14q-67 -85 -161 -117q-97 0 -152 61.5t-55 166t65 196.5t166 121q73 0 165 -15l-1 -22q-19 0 -36 -7q-19 -45 -25 -107h-25q-8 34 -8 70q-38 19 -90 19t-86 -28q-34 -62 -39 -148q42 -7 90 -7q83 0 100 35l21 -3q-9 -30 -9 -59t7 -71
l-24 -4q-11 30 -16 62q-40 4 -79.5 4t-89.5 -5q3 -89 33 -139zM144 726q10 2 21.5 2t21.5 -1q24 -42 59.5 -84t72.5 -67l-11 -18l-189 109q1 10 9.5 30.5t15.5 28.5z" />
    <glyph glyph-name="eacute" unicode="&#xe9;" horiz-adv-x="448" 
d="M347 727q10 1 21.5 1t21.5 -2q7 -8 15.5 -28.5t9.5 -30.5l-189 -109l-11 18q37 25 72.5 67t59.5 84zM164 108q30 -50 102 -50t133 61l14 -14q-67 -85 -161 -117q-97 0 -152 61.5t-55 166t65 196.5t166 121q73 0 165 -15l-1 -22q-19 0 -36 -7q-19 -45 -25 -107h-25
q-8 34 -8 70q-38 19 -90 19t-86 -28q-34 -62 -39 -148q42 -7 90 -7q83 0 100 35l21 -3q-9 -30 -9 -59t7 -71l-24 -4q-11 30 -16 62q-40 4 -79.5 4t-89.5 -5q3 -89 33 -139z" />
    <glyph glyph-name="ecircumflex" unicode="&#xea;" horiz-adv-x="448" 
d="M164 108q30 -50 102 -50t133 61l14 -14q-67 -85 -161 -117q-97 0 -152 61.5t-55 166t65 196.5t166 121q73 0 165 -15l-1 -22q-19 0 -36 -7q-19 -45 -25 -107h-25q-8 34 -8 70q-38 19 -90 19t-86 -28q-34 -62 -39 -148q42 -7 90 -7q83 0 100 35l21 -3q-9 -30 -9 -59t7 -71
l-24 -4q-11 30 -16 62q-40 4 -79.5 4t-89.5 -5q3 -89 33 -139zM268 644l-134 -90l-13 17q84 71 137 168h20q53 -97 137 -168l-13 -17z" />
    <glyph glyph-name="edieresis" unicode="&#xeb;" horiz-adv-x="448" 
d="M164 108q30 -50 102 -50t133 61l14 -14q-67 -85 -161 -117q-97 0 -152 61.5t-55 166t65 196.5t166 121q73 0 165 -15l-1 -22q-19 0 -36 -7q-19 -45 -25 -107h-25q-8 34 -8 70q-38 19 -90 19t-86 -28q-34 -62 -39 -148q42 -7 90 -7q83 0 100 35l21 -3q-9 -30 -9 -59t7 -71
l-24 -4q-11 30 -16 62q-40 4 -79.5 4t-89.5 -5q3 -89 33 -139zM230 661q-7 -13 -24.5 -33t-29.5 -28q-12 8 -29.5 28t-24.5 33q6 12 23 27.5t31 22.5q13 -8 30 -23.5t24 -26.5zM415 661q-7 -13 -24.5 -33t-29.5 -28q-12 8 -29.5 28t-24.5 33q6 12 23 27.5t31 22.5
q13 -8 30 -23.5t24 -26.5z" />
    <glyph glyph-name="igrave" unicode="&#xec;" horiz-adv-x="309" 
d="M200 488q-8 -54 -8 -221t9 -234q45 -5 83 -15l-3 -25q-52 7 -116.5 7t-115.5 -8l-4 26q28 9 63 15q9 72 9 204v47q0 132 -10 204q-35 6 -63 15l4 26q51 -8 115.5 -8t116.5 7l3 -25q-38 -10 -83 -15zM55 726q10 2 21.5 2t21.5 -1q24 -42 59.5 -84t72.5 -67l-11 -18
l-189 109q1 10 9.5 30.5t15.5 28.5z" />
    <glyph glyph-name="iacute" unicode="&#xed;" horiz-adv-x="309" 
d="M222 727q10 1 21.5 1t21.5 -2q7 -8 15.5 -28.5t9.5 -30.5l-189 -109l-11 18q37 25 72.5 67t59.5 84zM200 488q-8 -54 -8 -221t9 -234q45 -5 83 -15l-3 -25q-52 7 -116.5 7t-115.5 -8l-4 26q28 9 63 15q9 72 9 204v47q0 132 -10 204q-35 6 -63 15l4 26q51 -8 115.5 -8
t116.5 7l3 -25q-38 -10 -83 -15z" />
    <glyph glyph-name="icircumflex" unicode="&#xee;" horiz-adv-x="309" 
d="M200 488q-8 -54 -8 -221t9 -234q45 -5 83 -15l-3 -25q-52 7 -116.5 7t-115.5 -8l-4 26q28 9 63 15q9 72 9 204v47q0 132 -10 204q-35 6 -63 15l4 26q51 -8 115.5 -8t116.5 7l3 -25q-38 -10 -83 -15zM161 644l-134 -90l-13 17q84 71 137 168h20q53 -97 137 -168l-13 -17z
" />
    <glyph glyph-name="idieresis" unicode="&#xef;" horiz-adv-x="309" 
d="M130 661q-7 -13 -24.5 -33t-29.5 -28q-12 8 -29.5 28t-24.5 33q6 12 23 27.5t31 22.5q13 -8 30 -23.5t24 -26.5zM301 661q-7 -13 -24.5 -33t-29.5 -28q-12 8 -29.5 28t-24.5 33q6 12 23 27.5t31 22.5q13 -8 30 -23.5t24 -26.5zM200 488q-8 -54 -8 -221t9 -234
q45 -5 83 -15l-3 -25q-52 7 -116.5 7t-115.5 -8l-4 26q28 9 63 15q9 72 9 204v47q0 132 -10 204q-35 6 -63 15l4 26q51 -8 115.5 -8t116.5 7l3 -25q-38 -10 -83 -15z" />
    <glyph glyph-name="eth" unicode="&#xf0;" horiz-adv-x="539" 
d="M36 519l230 7q114 0 175.5 -54t61.5 -161.5t-67.5 -200.5t-167.5 -122q-26 0 -67.5 9.5t-68.5 20.5q-11 -13 -20 -37l-21 5q19 93 19 268q-31 -1 -78 -8l-3 4q6 20 7 32l74 3q-1 133 -9 196q-34 13 -65 13v25zM329.5 472q-32.5 19 -71 19t-66.5 -11q-7 -61 -7 -191
q84 4 106 6q4 -20 9 -31v-5l-115 -1q0 -129 4 -183q50 -23 102.5 -23t83.5 27q38 72 38 177q0 98 -33 163q-18 34 -50.5 53z" />
    <glyph glyph-name="ntilde" unicode="&#xf1;" horiz-adv-x="623" 
d="M276 696q59 -31 111.5 -31t72.5 24l18 -11q-56 -61 -104 -82q-21 0 -72.5 15.5t-72.5 15.5q-43 0 -63 -24l-18 11q56 61 128 82zM284 -7q-52 7 -116.5 7t-115.5 -8l-4 26q32 10 60 15q9 78 9 204v47q0 134 -10 206q-27 3 -65 16l3 26q57 -11 119.5 -11t89.5 7l2 -17
q-27 -7 -27 -23q0 -12 23.5 -50.5t45.5 -74.5q66 -105 156 -258l3 2v122q0 134 -14 201.5t-48 78.5l2 17q26 -5 78 -5t107 11l3 -26q-41 -13 -69 -16q-10 -80 -10 -206v-47q0 -152 10 -206q42 -7 67 -16l-3 -26q-50 11 -94 11t-68 -4q0 22 -30.5 74t-55.5 92
q-81 131 -159 266l-4 -2v-134q0 -199 30 -259q45 -5 88 -15z" />
    <glyph glyph-name="ograve" unicode="&#xf2;" 
d="M103 50.5q-61 62.5 -61 167.5t64 197t167 118q103 0 157 -58.5t54 -166.5t-58.5 -195t-162.5 -125q-99 0 -160 62.5zM246 472q-45 0 -78 -25q-41 -70 -41 -176q0 -122 68 -187q36 -35 85 -35t79 26q40 70 40 171t-36 163.5t-117 62.5zM138 726q10 2 21.5 2t21.5 -1
q24 -42 59.5 -84t72.5 -67l-11 -18l-189 109q1 10 9.5 30.5t15.5 28.5z" />
    <glyph glyph-name="oacute" unicode="&#xf3;" 
d="M103 50.5q-61 62.5 -61 167.5t64 197t167 118q103 0 157 -58.5t54 -166.5t-58.5 -195t-162.5 -125q-99 0 -160 62.5zM246 472q-45 0 -78 -25q-41 -70 -41 -176q0 -122 68 -187q36 -35 85 -35t79 26q40 70 40 171t-36 163.5t-117 62.5zM351 727q10 1 21.5 1t21.5 -2
q7 -8 15.5 -28.5t9.5 -30.5l-189 -109l-11 18q37 25 72.5 67t59.5 84z" />
    <glyph glyph-name="ocircumflex" unicode="&#xf4;" 
d="M103 50.5q-61 62.5 -61 167.5t64 197t167 118q103 0 157 -58.5t54 -166.5t-58.5 -195t-162.5 -125q-99 0 -160 62.5zM246 472q-45 0 -78 -25q-41 -70 -41 -176q0 -122 68 -187q36 -35 85 -35t79 26q40 70 40 171t-36 163.5t-117 62.5zM266 644l-134 -90l-13 17
q84 71 137 168h20q53 -97 137 -168l-13 -17z" />
    <glyph glyph-name="otilde" unicode="&#xf5;" 
d="M103 50.5q-61 62.5 -61 167.5t64 197t167 118q103 0 157 -58.5t54 -166.5t-58.5 -195t-162.5 -125q-99 0 -160 62.5zM246 472q-45 0 -78 -25q-41 -70 -41 -176q0 -122 68 -187q36 -35 85 -35t79 26q40 70 40 171t-36 163.5t-117 62.5zM236 696q59 -31 111.5 -31t72.5 24
l18 -11q-56 -61 -104 -82q-21 0 -72.5 15.5t-72.5 15.5q-43 0 -63 -24l-18 11q56 61 128 82z" />
    <glyph glyph-name="odieresis" unicode="&#xf6;" 
d="M103 50.5q-61 62.5 -61 167.5t64 197t167 118q103 0 157 -58.5t54 -166.5t-58.5 -195t-162.5 -125q-99 0 -160 62.5zM246 472q-45 0 -78 -25q-41 -70 -41 -176q0 -122 68 -187q36 -35 85 -35t79 26q40 70 40 171t-36 163.5t-117 62.5zM228 661q-7 -13 -24.5 -33
t-29.5 -28q-12 8 -29.5 28t-24.5 33q6 12 23 27.5t31 22.5q13 -8 30 -23.5t24 -26.5zM413 661q-7 -13 -24.5 -33t-29.5 -28q-12 8 -29.5 28t-24.5 33q6 12 23 27.5t31 22.5q13 -8 30 -23.5t24 -26.5z" />
    <glyph glyph-name="divide" unicode="&#xf7;" horiz-adv-x="550" 
d="M318 385q0 -17 -14 -31.5t-30 -14.5t-30.5 14.5t-14.5 31.5t14.5 31t30.5 14t30 -14t14 -31zM318 112q0 -17 -14 -31.5t-30 -14.5t-30.5 14.5t-14.5 31t14.5 31t30.5 14.5t30 -14t14 -31zM62 280q170 -9 279.5 -9t148.5 3l6 -6l-9 -46h-426l-8 7z" />
    <glyph glyph-name="oslash" unicode="&#xf8;" 
d="M134 -87h-5q-16 9 -26 24q48 107 86 206l95 250q40 104 78 221q23 2 38 7l4 -3q-21 -48 -270 -705zM103 50.5q-61 62.5 -61 167.5t64 197t167 118q103 0 157 -58.5t54 -166.5t-58.5 -195t-162.5 -125q-99 0 -160 62.5zM246 472q-45 0 -78 -25q-41 -70 -41 -176
q0 -122 68 -187q36 -35 85 -35t79 26q40 70 40 171t-36 163.5t-117 62.5z" />
    <glyph glyph-name="ugrave" unicode="&#xf9;" horiz-adv-x="578" 
d="M461 284v-47q0 -137 10 -205q46 -6 76 -14l-3 -25q-49 7 -100.5 7t-70.5 -3l-4 13q9 10 12 57q-52 -54 -120 -79q-172 0 -172 205q0 45 7 144t7 116t-6 33v1q-42 7 -67 15l4 27q58 -8 105 -8t77 5l4 -17q-36 -19 -42 -69q-12 -96 -12 -197t23.5 -143.5t88 -42.5t104.5 37
q4 80 4 189t-8 205q-45 5 -83 15l3 25q52 -7 116.5 -7t115.5 8l4 -26q-28 -9 -63 -15q-10 -67 -10 -204zM157 726q10 2 21.5 2t21.5 -1q24 -42 59.5 -84t72.5 -67l-11 -18l-189 109q1 10 9.5 30.5t15.5 28.5z" />
    <glyph glyph-name="uacute" unicode="&#xfa;" horiz-adv-x="582" 
d="M395 727q10 1 21.5 1t21.5 -2q7 -8 15.5 -28.5t9.5 -30.5l-189 -109l-11 18q37 25 72.5 67t59.5 84zM465 284v-47q0 -137 10 -205q46 -6 76 -14l-3 -25q-49 7 -100.5 7t-70.5 -3l-4 13q9 10 12 57q-52 -54 -120 -79q-172 0 -172 205q0 45 7 144t7 116t-6 33v1
q-42 7 -67 15l4 27q58 -8 105 -8t77 5l4 -17q-36 -19 -42 -69q-12 -96 -12 -197t23.5 -143.5t88 -42.5t104.5 37q4 80 4 189t-8 205q-45 5 -83 15l3 25q52 -7 116.5 -7t115.5 8l4 -26q-28 -9 -63 -15q-10 -67 -10 -204z" />
    <glyph glyph-name="ucircumflex" unicode="&#xfb;" horiz-adv-x="578" 
d="M461 284v-47q0 -137 10 -205q46 -6 76 -14l-3 -25q-49 7 -100.5 7t-70.5 -3l-4 13q9 10 12 57q-52 -54 -120 -79q-172 0 -172 205q0 45 7 144t7 116t-6 33v1q-42 7 -67 15l4 27q58 -8 105 -8t77 5l4 -17q-36 -19 -42 -69q-12 -96 -12 -197t23.5 -143.5t88 -42.5t104.5 37
q4 80 4 189t-8 205q-45 5 -83 15l3 25q52 -7 116.5 -7t115.5 8l4 -26q-28 -9 -63 -15q-10 -67 -10 -204zM284 644l-134 -90l-13 17q84 71 137 168h20q53 -97 137 -168l-13 -17z" />
    <glyph glyph-name="udieresis" unicode="&#xfc;" horiz-adv-x="578" 
d="M461 284v-47q0 -137 10 -205q46 -6 76 -14l-3 -25q-49 7 -100.5 7t-70.5 -3l-4 13q9 10 12 57q-52 -54 -120 -79q-172 0 -172 205q0 45 7 144t7 116t-6 33v1q-42 7 -67 15l4 27q58 -8 105 -8t77 5l4 -17q-36 -19 -42 -69q-12 -96 -12 -197t23.5 -143.5t88 -42.5t104.5 37
q4 80 4 189t-8 205q-45 5 -83 15l3 25q52 -7 116.5 -7t115.5 8l4 -26q-28 -9 -63 -15q-10 -67 -10 -204zM246 661q-7 -13 -24.5 -33t-29.5 -28q-12 8 -29.5 28t-24.5 33q6 12 23 27.5t31 22.5q13 -8 30 -23.5t24 -26.5zM431 661q-7 -13 -24.5 -33t-29.5 -28q-12 8 -29.5 28
t-24.5 33q6 12 23 27.5t31 22.5q13 -8 30 -23.5t24 -26.5z" />
    <glyph glyph-name="yacute" unicode="&#xfd;" horiz-adv-x="542" 
d="M348 487q0 16 -27 22l4 17q30 -5 78.5 -5t106.5 8l4 -26q-26 -9 -66 -15l-166 -250q0 -130 10 -205q44 -5 82 -15l-3 -25q-52 7 -119.5 7t-118.5 -8l-4 26q19 6 68 15q9 54 9 163v21q-116 234 -147 272q-28 3 -62 14l4 26q40 -8 115 -8t123 8l4 -25q-46 -11 -79 -15
q34 -104 95 -219q89 173 89 217zM389 727q10 1 21.5 1t21.5 -2q7 -8 15.5 -28.5t9.5 -30.5l-189 -109l-11 18q37 25 72.5 67t59.5 84z" />
    <glyph glyph-name="thorn" unicode="&#xfe;" horiz-adv-x="455" 
d="M193 380q-1 -32 -1 -156t9 -191q45 -5 83 -15l-3 -25q-52 7 -116.5 7t-115.5 -8l-4 26q28 9 63 15q9 72 9 204v47q0 132 -10 204q-35 6 -63 15l4 26q51 -8 115.5 -8t116.5 7l3 -25q-38 -10 -83 -15q-3 -19 -5 -64q58 2 75 2q181 0 181 -131q0 -73 -64.5 -118t-146.5 -45
q-12 0 -17 1l4 33h9q62 0 92.5 27t30.5 85t-24.5 85.5t-78.5 27.5q-34 0 -63 -11z" />
    <glyph glyph-name="ydieresis" unicode="&#xff;" horiz-adv-x="542" 
d="M348 487q0 16 -27 22l4 17q30 -5 78.5 -5t106.5 8l4 -26q-26 -9 -66 -15l-166 -250q0 -130 10 -205q44 -5 82 -15l-3 -25q-52 7 -119.5 7t-118.5 -8l-4 26q19 6 68 15q9 54 9 163v21q-116 234 -147 272q-28 3 -62 14l4 26q40 -8 115 -8t123 8l4 -25q-46 -11 -79 -15
q34 -104 95 -219q89 173 89 217zM221 661q-7 -13 -24.5 -33t-29.5 -28q-12 8 -29.5 28t-24.5 33q6 12 23 27.5t31 22.5q13 -8 30 -23.5t24 -26.5zM406 661q-7 -13 -24.5 -33t-29.5 -28q-12 8 -29.5 28t-24.5 33q6 12 23 27.5t31 22.5q13 -8 30 -23.5t24 -26.5z" />
    <glyph glyph-name="hbar" unicode="&#x127;" horiz-adv-x="618" 
d="M481 390l-341 -11q-72 -2 -118 -9l-3 4q6 20 7 32q543 19 568 22q4 -20 9 -31v-5zM359 529q51 -8 115.5 -8t116.5 7l3 -25q-38 -10 -83 -15q-10 -62 -10 -204v-47q0 -144 10 -204q45 -5 83 -15l-3 -25q-52 7 -116.5 7t-115.5 -8l-4 26q28 9 63 15q8 113 9 226
q-64 6 -118 6t-117 -6q0 -165 9 -226q45 -5 83 -15l-3 -25q-52 7 -116.5 7t-115.5 -8l-4 26q28 9 63 15q9 72 9 204v47q0 132 -10 204q-35 6 -63 15l4 26q51 -8 115.5 -8t116.5 7l3 -25q-38 -10 -83 -15q-8 -58 -8 -179q56 -8 120.5 -8t114.5 7q-1 85 -9 180q-35 6 -63 15z
" />
    <glyph glyph-name="Itilde" unicode="&#x128;" horiz-adv-x="337" 
d="M218 616q-11 -75 -11 -280t13 -301q53 -5 110 -19l-3 -24q-74 8 -160.5 8t-139.5 -8l-4 25q45 14 96 21q11 82 11 258v59q0 162 -13 258q-51 7 -96 21l4 25q53 -8 139.5 -8t160.5 8l3 -24q-57 -14 -110 -19zM132 844q59 -31 111.5 -31t72.5 24l18 -11q-56 -61 -104 -82
q-21 0 -72.5 15.5t-72.5 15.5q-43 0 -63 -24l-18 11q56 61 128 82z" />
    <glyph glyph-name="itilde" unicode="&#x129;" horiz-adv-x="309" 
d="M240 665q35 0 55 24l17 -11q-38 -56 -91 -82q-16 0 -63 15.5t-63 15.5q-35 0 -53 -24l-18 11q46 59 112 82q48 -31 104 -31zM200 488q-8 -54 -8 -221t9 -234q45 -5 83 -15l-3 -25q-52 7 -116.5 7t-115.5 -8l-4 26q28 9 63 15q9 72 9 204v47q0 132 -10 204q-35 6 -63 15
l4 26q51 -8 115.5 -8t116.5 7l3 -25q-38 -10 -83 -15z" />
    <glyph glyph-name="dotlessi" unicode="&#x131;" horiz-adv-x="309" 
d="M200 488q-8 -54 -8 -221t9 -234q45 -5 83 -15l-3 -25q-52 7 -116.5 7t-115.5 -8l-4 26q28 9 63 15q9 72 9 204v47q0 132 -10 204q-35 6 -63 15l4 26q51 -8 115.5 -8t116.5 7l3 -25q-38 -10 -83 -15z" />
    <glyph glyph-name="IJ" unicode="&#x132;" horiz-adv-x="692" 
d="M349 659q74 -8 160.5 -8t139.5 8l4 -25q-45 -14 -96 -21q-13 -96 -13 -258v-59q0 -185 8 -263q-56 -126 -206 -213l-17 19q76 64 107 137.5t31 177.5v201q0 186 -11 261q-53 5 -110 19zM218 616q-11 -75 -11 -280t13 -301q53 -5 110 -19l-3 -24q-74 8 -160.5 8t-139.5 -8
l-4 25q45 14 96 21q11 82 11 258v59q0 162 -13 258q-51 7 -96 21l4 25q53 -8 139.5 -8t160.5 8l3 -24q-57 -14 -110 -19z" />
    <glyph glyph-name="ij" unicode="&#x133;" horiz-adv-x="605" 
d="M200 488q-8 -54 -8 -221t9 -234q45 -5 83 -15l-3 -25q-52 7 -116.5 7t-115.5 -8l-4 26q28 9 63 15q9 72 9 204v47q0 132 -10 204q-35 6 -63 15l4 26q51 -8 115.5 -8t116.5 7l3 -25q-38 -10 -83 -15zM426 123v160q0 151 -8 205q-45 5 -83 15l3 25q52 -7 116.5 -7t115.5 8
l4 -26q-28 -9 -63 -15q-10 -72 -10 -204v-47q0 -132 9 -204q-24 -53 -70 -100t-102 -79l-17 19q59 45 82 104.5t23 145.5z" />
    <glyph glyph-name="Jcircumflex" unicode="&#x134;" horiz-adv-x="337" 
d="M325 715l-161 75l-161 -75l-10 19q92 58 161 151h20q69 -93 161 -151zM207 355v-59q0 -185 8 -263q-67 -135 -247 -214l-12 21q95 65 134.5 134.5t39.5 179.5v201q0 151 -9 241q-118 0 -151 -32q-7 -14 -7 -44t10 -41l-1 -7q-25 -15 -50 -42q-12 1 -19.5 10t-7.5 21
q0 49 59 117t110 86q8 0 72 -6.5t100 -6.5t68 6l4 -25q-39 -15 -89 -27q-12 -108 -12 -250z" />
    <glyph glyph-name="jcircumflex" unicode="&#x135;" horiz-adv-x="296" 
d="M117 123v160q0 151 -8 205q-45 5 -83 15l3 25q52 -7 116.5 -7t115.5 8l4 -26q-28 -9 -63 -15q-10 -72 -10 -204v-47q0 -132 9 -204q-24 -53 -70 -100t-102 -79l-17 19q59 45 82 104.5t23 145.5zM148 644l-134 -90l-13 17q84 71 137 168h20q53 -97 137 -168l-13 -17z" />
    <glyph glyph-name="kcommaaccent" unicode="&#x137;" horiz-adv-x="525" 
d="M192 283v-41q102 108 132.5 155.5t30.5 74t-15 37.5l5 17q22 -5 63.5 -5t101.5 8l4 -26q-23 -8 -67 -16q-9 -68 -116 -169l132 -284q42 -7 66 -16l-4 -26q-37 8 -96.5 8t-83.5 -5l-5 17q14 14 14 42q0 67 -79 218q-20 -17 -83 -69q3 -122 9 -170q45 -5 83 -15l-3 -25
q-52 7 -116.5 7t-115.5 -8l-4 26q28 9 63 15q9 72 9 204v47q0 132 -10 204q-35 6 -63 15l4 26q51 -8 115.5 -8t116.5 7l3 -25q-38 -10 -83 -15q-8 -54 -8 -205zM339 -84q-5 -79 -106 -131l-10 13q42 31 48 68q-26 24 -40 50q6 12 23 27.5t31 22.5q13 -8 30 -23.5t24 -26.5z
" />
    <glyph glyph-name="kgreenlandic" unicode="&#x138;" horiz-adv-x="530" 
d="M281 -7q-56 7 -114.5 7t-117.5 -8l-4 26q16 5 62 15q10 68 10 178v92q0 92 -9 179q-27 9 -59 9v23q73 4 150 22l7 -5q-14 -90 -14 -228v-30l5 -1q31 63 99.5 144.5t124.5 119.5q44 0 93 -18v-15q-43 -56 -47 -131h-24q0 36 -2 60q-17 11 -38 11q-39 0 -122 -102l196 -301
q26 -8 60 -8v-26q-59 -2 -139 -21l-9 4q0 30 -68 141l-89 144q-12 -17 -40 -68q0 -106 8 -172q49 -5 84 -16z" />
    <glyph glyph-name="Ldotaccent" unicode="&#x13f;" horiz-adv-x="456" 
d="M218 616q-13 -88 -13 -279.5t8 -281.5q34 -2 64 -2q118 0 151 32q7 14 7 44t-10 41l1 7q25 15 50 42q12 -1 19.5 -10t7.5 -21q0 -49 -59 -117t-110 -86q-86 3 -186 29q-14 -18 -23 -46l-21 6q21 101 24 331v50q0 175 -11 258q-51 7 -96 21l4 25q53 -8 139.5 -8t160.5 8
l3 -24q-60 -14 -110 -19zM424 354q-7 -13 -24.5 -33t-29.5 -28q-12 8 -29.5 28t-24.5 33q6 12 23 27.5t31 22.5q13 -8 30 -23.5t24 -26.5z" />
    <glyph glyph-name="ldot" unicode="&#x140;" horiz-adv-x="407" 
d="M409 -11q-65 11 -176.5 11t-186.5 -10l-3 25q28 11 64 18q10 60 10 204v47q0 124 -10 204q-33 5 -63 15l4 26q51 -8 120 -8t118 8l3 -25q-45 -11 -89 -16q-8 -54 -8 -222.5t8 -224.5q24 -4 68 -4t79 17q14 34 14 80h25q4 -77 28 -125zM376 298q-7 -13 -24.5 -33
t-29.5 -28q-12 8 -29.5 28t-24.5 33q6 12 23 27.5t31 22.5q13 -8 30 -23.5t24 -26.5z" />
    <glyph glyph-name="Lslash" unicode="&#x141;" horiz-adv-x="456" 
d="M366 426l-230 -114q-64 -31 -103 -59l-4 3q-5 27 -7 32q292 149 321 166q8 -12 21 -24zM218 616q-13 -88 -13 -279.5t8 -281.5q34 -2 64 -2q118 0 151 32q7 14 7 44t-10 41l1 7q25 15 50 42q12 -1 19.5 -10t7.5 -21q0 -49 -59 -117t-110 -86q-86 3 -186 29
q-14 -18 -23 -46l-21 6q21 101 24 331v50q0 175 -11 258q-51 7 -96 21l4 25q53 -8 139.5 -8t160.5 8l3 -24q-60 -14 -110 -19z" />
    <glyph glyph-name="lslash" unicode="&#x142;" horiz-adv-x="407" 
d="M409 -11q-65 11 -176.5 11t-186.5 -10l-3 25q28 11 64 18q10 60 10 204v1q-50 -25 -84 -49l-4 3q-5 27 -7 32l95 48v12q0 124 -10 204q-33 5 -63 15l4 26q51 -8 120 -8t118 8l3 -25q-45 -11 -89 -16q-6 -37 -8 -178q94 50 108 58q8 -12 21 -24l2 -4l-131 -65
q0 -180 8 -234q24 -4 68 -4t79 17q14 34 14 80h25q4 -77 28 -125z" />
    <glyph glyph-name="Nacute" unicode="&#x143;" horiz-adv-x="706" 
d="M554 797l-206 -75l-8 20q82 36 157 126q22 -2 42 -9q5 -9 10.5 -30.5t4.5 -31.5zM523 296q0 171 -15 250.5t-57 94.5l4 14q31 -4 101 -4t129 8l3 -23q-71 -17 -99 -20q-13 -98 -13 -261v-59q0 -187 13 -261q51 -6 96 -18l-4 -25q-53 8 -106.5 8t-86.5 -3q0 33 -65 147
t-236 381l-4 -2v-168q0 -245 37 -320q55 -5 109 -19l-2 -24q-74 8 -160.5 8t-139.5 -8l-4 25q45 14 96 21q11 82 11 258v59q0 141 -12 241q-118 0 -151 -32q-7 -14 -7 -44t10 -41l-1 -7q-25 -15 -50 -42q-12 1 -19.5 10t-7.5 21q0 49 59 117t110 86q12 -1 67.5 -7t91.5 -6
t67 6l4 -25q-41 -17 -41 -33q5 -27 57 -113.5t212 -335.5l4 2v144z" />
    <glyph glyph-name="nacute" unicode="&#x144;" horiz-adv-x="623" 
d="M284 -7q-52 7 -116.5 7t-115.5 -8l-4 26q32 10 60 15q9 78 9 204v47q0 134 -10 206q-27 3 -65 16l3 26q57 -11 119.5 -11t89.5 7l2 -17q-27 -7 -27 -23q0 -12 23.5 -50.5t45.5 -74.5q66 -105 156 -258l3 2v122q0 134 -14 201.5t-48 78.5l2 17q26 -5 78 -5t107 11l3 -26
q-41 -13 -69 -16q-10 -80 -10 -206v-47q0 -152 10 -206q42 -7 67 -16l-3 -26q-50 11 -94 11t-68 -4q0 22 -30.5 74t-55.5 92q-81 131 -159 266l-4 -2v-134q0 -199 30 -259q45 -5 88 -15zM443 727q10 1 21.5 1t21.5 -2q7 -8 15.5 -28.5t9.5 -30.5l-189 -109l-11 18
q37 25 72.5 67t59.5 84z" />
    <glyph glyph-name="OE" unicode="&#x152;" horiz-adv-x="811" 
d="M463 656.5q45 -5.5 133 -5.5t204 11l4 -20q-52 -53 -59 -158h-25q-9 43 -9 109q-43 21 -100 21t-84 -5q-17 -52 -25 -244q32 -7 77 -7q89 0 109 43l20 -4q-9 -32 -9 -76.5t6 -87.5l-23 -4q-15 38 -20 89q-38 3 -82.5 3t-78.5 -5v-43q0 -125 37 -171q32 -38 100.5 -38
t146.5 78l14 -13q-83 -110 -183 -144q-124 0 -170 96h-4q-73 -74 -188 -96q-99 17 -155.5 88.5t-56.5 173t45 192.5t126.5 151.5t180.5 71.5q24 0 69 -5.5zM431 577q-53 23 -106.5 23t-83.5 -22q-100 -99 -100 -297q0 -94 45.5 -162.5t126.5 -68.5q48 0 77 21
q18 24 23.5 59.5t5.5 121t6 196t6 129.5z" />
    <glyph glyph-name="oe" unicode="&#x153;" horiz-adv-x="684" 
d="M431 220q0 -79 22.5 -120.5t86.5 -41.5t120 56l11 -10q-68 -88 -148 -116q-105 0 -142 78h-3q-58 -59 -153 -78q-81 14 -132 72t-51 139q0 123 86.5 222t208.5 112q19 0 56 -4.5t112 -4.5t167 9l5 -20q-40 -42 -45 -122h-25q-7 33 -7 80q-35 17 -82.5 17t-65.5 -4
q-13 -34 -21 -186q35 -7 69 -7q60 0 78 35l21 -3q-9 -30 -9 -59t7 -71l-24 -4q-11 30 -16 62q-40 4 -62 4t-64 -5v-30zM366 461q-40 16 -83 16t-68 -15q-80 -77 -80 -235q0 -75 35.5 -127.5t101.5 -52.5q41 0 61 14q14 19 18.5 47.5t4.5 96t5 154.5t5 102z" />
    <glyph glyph-name="Racute" unicode="&#x154;" horiz-adv-x="619" 
d="M487 797l-206 -75l-8 20q82 36 157 126q22 -2 42 -9q5 -9 10.5 -30.5t4.5 -31.5zM131 35q13 96 13 275.5t-10 287.5q-109 -2 -140 -32q-7 -14 -7 -44t10 -41l-1 -7q-25 -15 -50 -42q-12 1 -19.5 10t-7.5 21q0 46 52.5 109t100.5 87q85 -8 246 -8q102 0 155 -30.5
t53 -116.5q0 -122 -125 -170l140 -296q51 -7 96 -21l-4 -25q-59 8 -127.5 8t-99.5 -4l-4 14q17 17 17 57q0 80 -94 255q-25 5 -58 5l3 22h12q72 0 111 35.5t39 103t-35 90.5t-110 23q-35 0 -58 -3q-8 -89 -8 -287t11 -273q51 -7 96 -21l-4 -25q-53 8 -139.5 8t-160.5 -8
l-3 24q57 14 110 19z" />
    <glyph glyph-name="Rcommaaccent" unicode="&#x156;" horiz-adv-x="619" 
d="M131 35q13 96 13 275.5t-10 287.5q-109 -2 -140 -32q-7 -14 -7 -44t10 -41l-1 -7q-25 -15 -50 -42q-12 1 -19.5 10t-7.5 21q0 46 52.5 109t100.5 87q85 -8 246 -8q102 0 155 -30.5t53 -116.5q0 -122 -125 -170l140 -296q51 -7 96 -21l-4 -25q-59 8 -127.5 8t-99.5 -4
l-4 14q17 17 17 57q0 80 -94 255q-25 5 -58 5l3 22h12q72 0 111 35.5t39 103t-35 90.5t-110 23q-35 0 -58 -3q-8 -89 -8 -287t11 -273q51 -7 96 -21l-4 -25q-53 8 -139.5 8t-160.5 -8l-3 24q57 14 110 19zM382 -84q-5 -79 -106 -131l-10 13q42 31 48 68q-26 24 -40 50
q6 12 23 27.5t31 22.5q13 -8 30 -23.5t24 -26.5z" />
    <glyph glyph-name="rcommaaccent" unicode="&#x157;" 
d="M43 519l230 7q90 0 135 -26.5t45 -96.5q0 -48 -29.5 -85t-77.5 -55l112 -229q34 -6 64 -14l-4 -27q-42 7 -94.5 7t-82.5 -5l-4 16q13 13 13 43q0 61 -70 196q-21 4 -49 4l2 29h10q118 0 118 108q0 100 -101 100q-34 0 -61 -11q-7 -66 -7 -226t9 -221q44 -5 82 -15l-3 -25
q-52 7 -116.5 7t-115.5 -8l-4 26q28 9 63 15q10 75 10 233.5t-9 219.5q-39 13 -65 13v20zM338 -84q-5 -79 -106 -131l-10 13q42 31 48 68q-26 24 -40 50q6 12 23 27.5t31 22.5q13 -8 30 -23.5t24 -26.5z" />
    <glyph glyph-name="Rcaron" unicode="&#x158;" horiz-adv-x="619" 
d="M131 35q13 96 13 275.5t-10 287.5q-109 -2 -140 -32q-7 -14 -7 -44t10 -41l-1 -7q-25 -15 -50 -42q-12 1 -19.5 10t-7.5 21q0 46 52.5 109t100.5 87q85 -8 246 -8q102 0 155 -30.5t53 -116.5q0 -122 -125 -170l140 -296q51 -7 96 -21l-4 -25q-59 8 -127.5 8t-99.5 -4
l-4 14q17 17 17 57q0 80 -94 255q-25 5 -58 5l3 22h12q72 0 111 35.5t39 103t-35 90.5t-110 23q-35 0 -58 -3q-8 -89 -8 -287t11 -273q51 -7 96 -21l-4 -25q-53 8 -139.5 8t-160.5 -8l-3 24q57 14 110 19zM218 810l161 75l10 -19q-92 -58 -161 -151h-20q-69 93 -161 151
l10 19z" />
    <glyph glyph-name="rcaron" unicode="&#x159;" 
d="M43 519l230 7q90 0 135 -26.5t45 -96.5q0 -48 -29.5 -85t-77.5 -55l112 -229q34 -6 64 -14l-4 -27q-42 7 -94.5 7t-82.5 -5l-4 16q13 13 13 43q0 61 -70 196q-21 4 -49 4l2 29h10q118 0 118 108q0 100 -101 100q-34 0 -61 -11q-7 -66 -7 -226t9 -221q44 -5 82 -15l-3 -25
q-52 7 -116.5 7t-115.5 -8l-4 26q28 9 63 15q10 75 10 233.5t-9 219.5q-39 13 -65 13v20zM129 739l134 -90l134 90l13 -17q-84 -71 -137 -168h-20q-53 97 -137 168z" />
    <glyph glyph-name="Scaron" unicode="&#x160;" horiz-adv-x="465" 
d="M11 12q0 88 38.5 152t80.5 64q11 0 22 -7l3 -7q-13 -25 -16 -63l-6 -4q-4 2 -15 2t-32.5 -12t-33.5 -24q-7 -14 -7 -32q0 -47 63.5 -80.5t122.5 -33.5q123 0 123 140q0 53 -101 133l-84 68q-101 80 -101 139q0 70 63 130.5t143 88.5q86 0 163 -17v-20q-52 -48 -58 -148
h-25q0 53 -5 93q-43 20 -93.5 20t-85.5 -21.5t-35 -54.5t29.5 -66.5t71.5 -65t83.5 -64t71 -70t29.5 -72.5q0 -100 -55 -178t-150 -117q-125 13 -200 70q-4 28 -4 57zM273 810l161 75l10 -19q-92 -58 -161 -151h-20q-69 93 -161 151l10 19z" />
    <glyph glyph-name="Ydieresis" unicode="&#x178;" horiz-adv-x="545" 
d="M234 245v26l-170 364q-39 84 -85 105q-18 0 -44 -13t-32 -26l-6 -2q-27 18 -60 28q-3 6 -3 16.5t16.5 20t46.5 9.5q63 0 148.5 -35t118.5 -72q21 -90 46.5 -154.5t80.5 -174.5q111 217 111 272q0 22 -20 32l4 14q50 -4 105.5 -4t107.5 8l5 -25q-48 -15 -97 -21l-196 -315
q0 -167 13 -263q53 -5 110 -19l-3 -24q-74 8 -160.5 8t-139.5 -8l-4 25q45 14 96 21q11 82 11 207zM264 803q-7 -13 -24.5 -33t-29.5 -28q-12 8 -29.5 28t-24.5 33q6 12 23 27.5t31 22.5q13 -8 30 -23.5t24 -26.5zM449 803q-7 -13 -24.5 -33t-29.5 -28q-12 8 -29.5 28
t-24.5 33q6 12 23 27.5t31 22.5q13 -8 30 -23.5t24 -26.5z" />
    <glyph glyph-name="Zcaron" unicode="&#x17d;" horiz-adv-x="459" 
d="M123 611q-64 0 -64 -66q0 -13 3 -23l-2 -8q-33 -9 -60 -27q-18 7 -18 28q0 50 75.5 100t145.5 69q97 -36 129.5 -39.5t50.5 -3.5q74 0 106 38l22 -18q-50 -46 -91 -118l-266 -459q51 -23 105.5 -64t90.5 -75q91 -86 135 -86q21 0 35.5 25t14.5 50l4 7q33 0 65 10
q12 -9 12 -22q0 -31 -52 -61t-112 -45.5t-97 -15.5q-93 104 -153.5 151.5t-117 47.5t-99.5 -41l-22 18q58 54 123 160l273 450q-16 -8 -34 -13q-143 31 -202 31zM282 810l161 75l10 -19q-92 -58 -161 -151h-20q-69 93 -161 151l10 19z" />
    <glyph glyph-name="dotlessj" unicode="&#x237;" horiz-adv-x="296" 
d="M117 123v160q0 151 -8 205q-45 5 -83 15l3 25q52 -7 116.5 -7t115.5 8l4 -26q-28 -9 -63 -15q-10 -72 -10 -204v-47q0 -132 9 -204q-24 -53 -70 -100t-102 -79l-17 19q59 45 82 104.5t23 145.5z" />
    <glyph glyph-name="circumflex" unicode="&#x2c6;" horiz-adv-x="294" 
d="M147 644l-134 -90l-13 17q84 71 137 168h20q53 -97 137 -168l-13 -17z" />
    <glyph glyph-name="caron" unicode="&#x2c7;" horiz-adv-x="294" 
d="M13 739l134 -90l134 90l13 -17q-84 -71 -137 -168h-20q-53 97 -137 168z" />
    <glyph glyph-name="ring" unicode="&#x2da;" horiz-adv-x="193" 
d="M28 577q-28 19 -28 56.5t29.5 67t72.5 38.5q91 0 91 -74q0 -39 -26.5 -66.5t-69.5 -40.5q-41 0 -69 19zM130.5 688q-15.5 16 -39 16t-33.5 -9q-11 -17 -11 -43t16 -42.5t38.5 -16.5t33.5 9q11 16 11 43t-15.5 43z" />
    <glyph glyph-name="tilde" unicode="&#x2dc;" horiz-adv-x="330" 
d="M128 696q59 -31 111.5 -31t72.5 24l18 -11q-56 -61 -104 -82q-21 0 -72.5 15.5t-72.5 15.5q-43 0 -63 -24l-18 11q56 61 128 82z" />
    <glyph glyph-name="dotaccentcmb" unicode="&#x307;" horiz-adv-x="108" 
d="M108 653q-7 -13 -24.5 -33t-29.5 -28q-12 8 -29.5 28t-24.5 33q6 12 23 27.5t31 22.5q13 -8 30 -23.5t24 -26.5z" />
    <glyph glyph-name="endash" unicode="&#x2013;" horiz-adv-x="410" 
d="M3 296q124 -9 246.5 -9t161.5 3l6 -6l-8 -39h-406l-8 7z" />
    <glyph glyph-name="emdash" unicode="&#x2014;" horiz-adv-x="615" 
d="M5 296q170 -9 369.5 -9t238.5 3l6 -6l-8 -39h-606l-8 7z" />
    <glyph glyph-name="quoteleft" unicode="&#x2018;" horiz-adv-x="213" 
d="M53 481q0 50 34 102t80 83l10 -10q-21 -25 -38 -61.5t-18 -63.5q26 -24 40 -50q-6 -12 -23 -27.5t-31 -22.5q-13 8 -30 23.5t-24 26.5z" />
    <glyph glyph-name="quoteright" unicode="&#x2019;" horiz-adv-x="213" 
d="M160 616q0 -50 -34 -102t-80 -83l-10 10q21 25 38 61.5t18 63.5q-26 24 -40 50q6 12 23 27.5t31 22.5q13 -8 30 -23.5t24 -26.5z" />
    <glyph glyph-name="quotesinglbase" unicode="&#x201a;" horiz-adv-x="208" 
d="M160 46q0 -50 -32.5 -97t-81.5 -75l-10 11q51 49 56 111q-26 24 -40 50q6 12 23 27.5t31 22.5q13 -8 30 -23.5t24 -26.5z" />
    <glyph glyph-name="quotedblleft" unicode="&#x201c;" horiz-adv-x="366" 
d="M53 481q0 50 34 102t80 83l10 -10q-21 -25 -38 -61.5t-18 -63.5q26 -24 40 -50q-6 -12 -23 -27.5t-31 -22.5q-13 8 -30 23.5t-24 26.5zM206 481q0 50 34 102t80 83l10 -10q-21 -25 -38 -61.5t-18 -63.5q26 -24 40 -50q-6 -12 -23 -27.5t-31 -22.5q-13 8 -30 23.5
t-24 26.5z" />
    <glyph glyph-name="quotedblright" unicode="&#x201d;" horiz-adv-x="366" 
d="M313 616q0 -50 -34 -102t-80 -83l-10 10q21 25 38 61.5t18 63.5q-26 24 -40 50q6 12 23 27.5t31 22.5q13 -8 30 -23.5t24 -26.5zM160 616q0 -50 -34 -102t-80 -83l-10 10q21 25 38 61.5t18 63.5q-26 24 -40 50q6 12 23 27.5t31 22.5q13 -8 30 -23.5t24 -26.5z" />
    <glyph glyph-name="quotedblbase" unicode="&#x201e;" horiz-adv-x="361" 
d="M160 46q0 -50 -32.5 -97t-81.5 -75l-10 11q51 49 56 111q-26 24 -40 50q6 12 23 27.5t31 22.5q13 -8 30 -23.5t24 -26.5zM313 46q0 -50 -32.5 -97t-81.5 -75l-10 11q51 49 56 111q-26 24 -40 50q6 12 23 27.5t31 22.5q13 -8 30 -23.5t24 -26.5z" />
    <glyph glyph-name="bullet" unicode="&#x2022;" horiz-adv-x="349" 
d="M297 288v-14q-77 -64 -112 -133h-20q-36 71 -113 132v14q16 12 38 31t26 23.5t12.5 13.5t13.5 16q9 12 23 36h20q22 -37 33.5 -49t15.5 -16.5t15 -14t14 -12t17 -13.5t17 -14z" />
    <glyph glyph-name="guilsinglleft" unicode="&#x2039;" horiz-adv-x="247" 
d="M111 283l108 -158l-20 -14q-93 107 -178 158v20q95 52 178 150l19 -13z" />
    <glyph glyph-name="guilsinglright" unicode="&#x203a;" horiz-adv-x="247" 
d="M28 125l108 158l-105 143l17 13q83 -98 178 -150v-20q-85 -51 -178 -158z" />
    <glyph glyph-name="Euro" unicode="&#x20ac;" horiz-adv-x="456" 
d="M187 96.5q26 -39.5 86.5 -39.5t129.5 63l10 -10q-60 -87 -156 -126q-91 0 -135.5 60t-46.5 160l-43 -5l-3 4q6 20 7 32l39 1q1 16 7 48q-29 -1 -50 -5l-3 4q6 20 7 32l53 2q23 80 75.5 139.5t126.5 81.5q71 0 131 -16v-14q-37 -48 -43 -113h-22q0 40 -3 64q-42 14 -86 14
t-75 -27q-26 -56 -36 -127q184 7 212 10q4 -20 9 -31v-5l-224 -5v-17q-1 -32 0 -32q184 7 215 10q4 -20 9 -31v-5l-222 -5q5 -72 31 -111.5z" />
    <glyph glyph-name="CR" horiz-adv-x="180" 
 />
    <glyph glyph-name="grave.cap" horiz-adv-x="215" 
d="M207 731l-206 75q-1 10 4.5 31.5t10.5 30.5q20 7 42 9q75 -90 157 -126z" />
    <glyph glyph-name="acute.cap" horiz-adv-x="215" 
d="M214 797l-206 -75l-8 20q82 36 157 126q22 -2 42 -9q5 -9 10.5 -30.5t4.5 -31.5z" />
    <glyph glyph-name="circumflex.cap" horiz-adv-x="342" 
d="M332 715l-161 75l-161 -75l-10 19q92 58 161 151h20q69 -93 161 -151z" />
    <glyph glyph-name="dieresis.cap" horiz-adv-x="293" 
d="M108 803q-7 -13 -24.5 -33t-29.5 -28q-12 8 -29.5 28t-24.5 33q6 12 23 27.5t31 22.5q13 -8 30 -23.5t24 -26.5zM293 803q-7 -13 -24.5 -33t-29.5 -28q-12 8 -29.5 28t-24.5 33q6 12 23 27.5t31 22.5q13 -8 30 -23.5t24 -26.5z" />
    <glyph glyph-name="caron.cap" horiz-adv-x="342" 
d="M171 810l161 75l10 -19q-92 -58 -161 -151h-20q-69 93 -161 151l10 19z" />
    <glyph glyph-name="tilde.cap" horiz-adv-x="330" 
d="M128 837q59 -31 111.5 -31t72.5 24l18 -11q-56 -61 -104 -82q-21 0 -72.5 15.5t-72.5 15.5q-43 0 -63 -24l-18 11q56 61 128 82z" />
    <glyph glyph-name="dotaccentcmb.cap" horiz-adv-x="108" 
d="M108 803q-7 -13 -24.5 -33t-29.5 -28q-12 8 -29.5 28t-24.5 33q6 12 23 27.5t31 22.5q13 -8 30 -23.5t24 -26.5z" />
    <glyph glyph-name="ring.cap" horiz-adv-x="193" 
d="M28 723q-28 19 -28 56.5t29.5 67t72.5 38.5q91 0 91 -74q0 -39 -26.5 -66.5t-69.5 -40.5q-41 0 -69 19zM130.5 834q-15.5 16 -39 16t-33.5 -9q-11 -17 -11 -43t16 -42.5t38.5 -16.5t33.5 9q11 16 11 43t-15.5 43z" />
    <glyph glyph-name="commaaccent" horiz-adv-x="116" 
d="M116 -84q-5 -79 -106 -131l-10 13q42 31 48 68q-26 24 -40 50q6 12 23 27.5t31 22.5q13 -8 30 -23.5t24 -26.5z" />
  </font>
</defs>
</svg>
