<?xml version="1.0" standalone="no"?>
<!DOCTYPE svg PUBLIC "-//W3C//DTD SVG 1.1//EN" "http://www.w3.org/Graphics/SVG/1.1/DTD/svg11.dtd" >
<svg xmlns="http://www.w3.org/2000/svg" xmlns:xlink="http://www.w3.org/1999/xlink" version="1.1">
<metadata>
Created by FontForge 20170910 at Tue May  6 04:41:19 2014
 By Jimmy Wärting
(c) 2014 Typodermic Fonts Inc. See attached license agreement. If agreement is missing visit typodermicfonts.com for more info.
</metadata>
<defs>
<font id="RechargeRg-Bold" horiz-adv-x="650" >
  <font-face 
    font-family="Recharge Rg"
    font-weight="700"
    font-stretch="normal"
    units-per-em="1000"
    panose-1="2 11 8 5 2 2 2 2 2 4"
    ascent="767"
    descent="-233"
    x-height="549"
    cap-height="728"
    bbox="-246 -225 1627 959"
    underline-thickness="20"
    underline-position="-143"
    unicode-range="U+0017-25CA"
  />
<missing-glyph horiz-adv-x="993" 
d="M37 638q0 44 10.5 79.5t34.5 61t62 39t93 13.5h524q54 0 91.5 -13.5t61.5 -39t34.5 -61t10.5 -79.5v-647q0 -44 -10.5 -80t-34.5 -61.5t-61.5 -39.5t-91.5 -14h-524q-55 0 -93 14t-62 39.5t-34.5 61.5t-10.5 80v647zM388 308q-25 -14 -33 -28t-8 -39v-67h214l2 35
q1 8 4.5 14t12.5 10l159 75q28 13 46.5 27t29.5 30.5t15.5 37t4.5 46.5v75q0 34 -8.5 63t-28.5 49t-52 31.5t-80 11.5h-488v-8l73 -191h322q18 0 23.5 -5.5t5.5 -20.5v-11q0 -11 -3.5 -15.5t-17.5 -12.5zM558 -49v183h-211v-183h211z" />
    <glyph glyph-name="copyright" unicode="&#x28;C&#x29;" horiz-adv-x="873" 
d="M36 439q0 66 16 119.5t51.5 91t92 58t138.5 20.5h203q81 0 138 -20.5t92.5 -58t51.5 -91t16 -119.5v-150q0 -66 -16 -119.5t-51.5 -91t-92.5 -58t-138 -20.5h-203q-82 0 -138.5 20.5t-92 58t-51.5 91t-16 119.5v150zM130 289q0 -47 11 -83t35 -61t63 -38t95 -13h203
q56 0 95 13t63 38t35 61t11 83v150q0 47 -11 83.5t-35 61t-63 37t-95 12.5h-203q-56 0 -95 -12.5t-63 -37t-35 -61t-11 -83.5v-150zM521 393h-8v36q0 4 -5 4h-133q-23 0 -33 -9.5t-10 -32.5v-50q0 -16 5 -24.5t15 -12.5t24.5 -4.5t33.5 -0.5h185v-83h-231q-67 0 -95 32.5
t-28 86.5v60q0 54 28 86.5t95 32.5h222q13 0 13 -16v-75z" />
    <glyph glyph-name="registered" unicode="&#x28;R&#x29;" horiz-adv-x="873" 
d="M36 439q0 66 16 119.5t51.5 91t92.5 58t139 20.5h203q81 0 138 -20.5t92 -58t51 -91t16 -119.5v-150q0 -66 -16 -119.5t-51 -91t-92 -58t-138 -20.5h-203q-82 0 -139 20.5t-92.5 58t-51.5 91t-16 119.5v150zM131 289q0 -47 11 -83t35 -61t63 -38t95 -13h203q111 0 157 51
t46 144v150q0 95 -46 145t-157 50h-203q-56 0 -95 -12.5t-63 -37.5t-35 -61t-11 -84v-150zM522 514q56 0 79 -26.5t23 -70.5v-17q0 -45 -22.5 -69t-73.5 -24h-18v-8l59 -74v-9h-97l-96 137h-8v-137h-90v283q0 15 14 15h230zM375 434q-7 0 -7 -8v-54h136q17 0 23 6.5t6 20.5
v9q0 14 -6 20t-23 6h-129z" />
    <glyph glyph-name="uni2117" unicode="&#x28;P&#x29;" horiz-adv-x="873" 
d="M359 334v-118h-91v283q0 15 15 15h227q62 0 87.5 -29.5t25.5 -78.5v-23q0 -50 -25.5 -77t-83.5 -27h-124l-23 55h-8zM365 433q-6 0 -6 -6v-69h141q18 0 25 6.5t7 26.5v11q0 17 -7 24t-25 7h-135zM36 439q0 66 16 119.5t51.5 91t92 58t138.5 20.5h203q81 0 138 -20.5
t92.5 -58t51.5 -91t16 -119.5v-150q0 -66 -16 -119.5t-51.5 -91t-92.5 -58t-138 -20.5h-203q-82 0 -138.5 20.5t-92 58t-51.5 91t-16 119.5v150zM130 289q0 -47 11 -83t35 -61t63 -38t95 -13h203q56 0 95 13t63 38t35 61t11 83v150q0 47 -11 83.5t-35 61t-63 37t-95 12.5
h-203q-56 0 -95 -12.5t-63 -37t-35 -61t-11 -83.5v-150z" />
    <glyph glyph-name=".notdef" horiz-adv-x="993" 
d="M37 638q0 44 10.5 79.5t34.5 61t62 39t93 13.5h524q54 0 91.5 -13.5t61.5 -39t34.5 -61t10.5 -79.5v-647q0 -44 -10.5 -80t-34.5 -61.5t-61.5 -39.5t-91.5 -14h-524q-55 0 -93 14t-62 39.5t-34.5 61.5t-10.5 80v647zM388 308q-25 -14 -33 -28t-8 -39v-67h214l2 35
q1 8 4.5 14t12.5 10l159 75q28 13 46.5 27t29.5 30.5t15.5 37t4.5 46.5v75q0 34 -8.5 63t-28.5 49t-52 31.5t-80 11.5h-488v-8l73 -191h322q18 0 23.5 -5.5t5.5 -20.5v-11q0 -11 -3.5 -15.5t-17.5 -12.5zM558 -49v183h-211v-183h211z" />
    <glyph glyph-name="uni0017" horiz-adv-x="417" 
 />
    <glyph glyph-name="space" unicode=" " horiz-adv-x="417" 
 />
    <glyph glyph-name="exclam" unicode="!" horiz-adv-x="293" 
d="M57 264l-15 456v8h209v-8l-17 -456h-177zM55 0v166h181v-166h-181z" />
    <glyph glyph-name="quotedbl" unicode="&#x22;" horiz-adv-x="431" 
d="M28 486zM63 486l-35 286v8h173v-8l-36 -286h-102zM263 486l-35 286v8h173v-8l-36 -286h-102z" />
    <glyph glyph-name="numbersign" unicode="#" horiz-adv-x="615" 
d="M497 452l-29 -175h93v-80h-106l-33 -197h-100l34 197h-139l-31 -197h-100l33 197h-93v80h105l29 175h-110v81h122l35 195h99l-34 -195h138l31 195h100l-32 -195h78v-81h-90zM231 277h137l29 175h-137z" />
    <glyph glyph-name="dollar" unicode="$" horiz-adv-x="694" 
d="M412 759v-104h213q21 0 21 -27v-140l-135 -47h-7v62q0 8 -7 8h-272q-25 0 -25 -28v-15q0 -14 4.5 -19t15.5 -7l322 -35q65 -8 89 -43t24 -102v-43q0 -77 -36.5 -112.5t-123.5 -35.5h-83v-102h-114v102h-255v164h414q26 0 26 30v13q0 12 -3.5 17.5t-15.5 7.5l-314 30
q-59 5 -87 41.5t-28 95.5v48q0 63 30.5 100t100.5 37h132v104h114z" />
    <glyph glyph-name="percent" unicode="%" horiz-adv-x="1226" 
d="M35 0zM35 601q0 61 29.5 94t96.5 33h233q68 0 97 -33t29 -94v-158q0 -57 -29 -86t-97 -29h-233q-67 0 -96.5 29t-29.5 86v158zM200 613q-18 0 -27 -9t-9 -30v-87q0 -21 9 -30t27 -9h155q18 0 27 9t9 30v87q0 21 -9 30t-27 9h-155zM998 728l-641 -728h-128l641 728h128z
M705 273q0 61 29.5 94t96.5 33h233q68 0 97 -33t29 -94v-158q0 -57 -29 -86t-97 -29h-233q-67 0 -96.5 29t-29.5 86v158zM870 285q-18 0 -27 -9t-9 -30v-87q0 -21 9 -30t27 -9h155q18 0 27 9t9 30v87q0 21 -9 30t-27 9h-155z" />
    <glyph glyph-name="ampersand" unicode="&#x26;" horiz-adv-x="916" 
d="M319 564q-31 0 -44 -13.5t-13 -41.5v-29q0 -28 14 -40t44 -12h550v-428h-656q-92 0 -135 46t-43 123v70q0 60 20.5 89.5t52.5 47.5q-15 10 -26 21.5t-18 28t-10.5 38.5t-3.5 54v21q0 91 42.5 140t147.5 49h600q29 0 29 -30v-166l-192 -73h-8v95q0 10 -10 10h-341z
M313 308q-31 0 -46 -12t-15 -40v-34q0 -28 12.5 -41t45.5 -13h360v84l184 48v8h-541z" />
    <glyph glyph-name="quotesingle" unicode="'" horiz-adv-x="231" 
d="M63 486l-35 286v8h173v-8l-36 -286h-102z" />
    <glyph glyph-name="parenleft" unicode="(" horiz-adv-x="388" 
d="M98 492q0 89 16 154t45 111t69 76t89 48l46 -80q-82 -34 -121 -108t-39 -188v-286q0 -112 38 -186t122 -109l-46 -80q-49 19 -89 49t-69 76t-45 111.5t-16 154.5v257v0z" />
    <glyph glyph-name="parenright" unicode=")" horiz-adv-x="389" 
d="M289 235q0 -89 -16 -154.5t-45 -111.5t-69 -76t-89 -49l-46 80q84 35 122 109t38 186v286q0 114 -39 188t-121 108l46 80q49 -18 89 -48t69 -76t45 -111t16 -154v-257z" />
    <glyph glyph-name="asterisk" unicode="*" horiz-adv-x="518" 
d="M108 676l100 -70l-11 122h123l-11 -122l101 71l61 -107l-110 -52l111 -51l-62 -107l-100 69l11 -121h-123l10 121l-100 -70l-61 107l110 52l-111 51z" />
    <glyph glyph-name="plus" unicode="+" 
d="M272 323h-227v103h227v228h104v-228h227v-103h-227v-228h-104v228z" />
    <glyph glyph-name="comma" unicode="," horiz-adv-x="264" 
d="M46 -128v294h181v-8l-105 -286h-76z" />
    <glyph glyph-name="hyphen" unicode="-" horiz-adv-x="331" 
d="M304 363v-140h-277v140h277z" />
    <glyph glyph-name="period" unicode="." horiz-adv-x="274" 
d="M46 0v166h181v-166h-181z" />
    <glyph glyph-name="slash" unicode="/" horiz-adv-x="479" 
d="M2 -29v8l370 778h105v-8l-370 -778h-105z" />
    <glyph glyph-name="zero" unicode="0" horiz-adv-x="942" 
d="M37 497q0 55 12.5 98t40 72.5t70 45t102.5 15.5h416q60 0 103 -15.5t70 -45t39.5 -72.5t12.5 -98v-288q0 -103 -52 -156t-173 -53h-416q-120 0 -172.5 53.5t-52.5 155.5v288zM235 285q0 -51 15 -76.5t59 -25.5h311q44 0 64.5 21t20.5 69v185q0 49 -20.5 71.5t-64.5 22.5
h-311q-35 0 -54.5 -20.5t-19.5 -65.5v-181z" />
    <glyph glyph-name="one" unicode="1" horiz-adv-x="446" 
d="M68 552l-65 168v8h220q52 0 86 -10t53.5 -31.5t27.5 -56.5t8 -84v-546h-198v501q0 29 -10 40t-36 11h-86z" />
    <glyph glyph-name="two" unicode="2" horiz-adv-x="923" 
d="M874 0h-797q-12 0 -20 8t-8 28v151q0 34 10 49t38 25l539 184q22 8 30.5 18.5t8.5 30.5v27q0 18 -8 27.5t-33 9.5h-539l-62 162v8h676q48 0 81 -12t53.5 -33.5t29.5 -52t9 -67.5v-73q0 -38 -5 -64t-18 -44.5t-35.5 -31.5t-57.5 -24l-282 -91q-37 -12 -63.5 -20.5
t-46.5 -14.5t-36.5 -10.5t-33.5 -8.5v-7q31 2 57 3t48.5 2t43.5 1h43h378v-180z" />
    <glyph glyph-name="three" unicode="3" horiz-adv-x="901" 
d="M89 562l-64 158v8h638q51 0 86 -12t56.5 -34.5t31.5 -54t10 -69.5v-61q0 -48 -17.5 -76t-40.5 -45q31 -15 52.5 -48t21.5 -81v-55q0 -91 -44 -141.5t-150 -50.5h-616v181h555q31 0 43 12t12 38v36q0 45 -49 45h-428l-47 128v8h478q23 0 33 11.5t10 31.5v35q0 36 -42 36
h-529z" />
    <glyph glyph-name="four" unicode="4" horiz-adv-x="906" 
d="M543 697q15 10 27 16t23.5 9.5t24 4.5t30.5 1h172q20 0 29.5 -10t9.5 -35v-683h-197v145h-584q-25 0 -37.5 10t-12.5 36v141q0 20 5 32t22 23zM655 166h7v399h-14l-310 -190q-29 -17 -51.5 -29.5t-45.5 -24.5v-7l30 2t33.5 1.5t41 0.5h52.5h178z" />
    <glyph glyph-name="five" unicode="5" horiz-adv-x="953" 
d="M711 476h-8v85q0 10 -10 10h-449q-12 0 -12 -10v-77q0 -21 19 -22l504 -35q48 -3 79 -14.5t49 -32t24.5 -52t6.5 -74.5v-68q0 -49 -10.5 -84t-35.5 -57.5t-66 -33.5t-102 -11h-648v180h607q24 0 34 10t10 32v43q0 18 -7 26t-28 10l-569 39q-30 2 -43 17t-13 45v293
q0 14 9 23.5t32 9.5h789q29 0 29 -30v-152z" />
    <glyph glyph-name="six" unicode="6" horiz-adv-x="942" 
d="M235 454h493q97 0 136 -42t39 -127v-76q0 -52 -8.5 -91t-30.5 -65.5t-61 -39.5t-100 -13h-447q-54 0 -95 11t-68.5 37.5t-41.5 69t-14 105.5v286q0 111 56.5 165t162.5 54h607q28 0 28 -30v-145l-179 -57h-8v61q0 11 -9 11h-383q-40 0 -58.5 -19.5t-18.5 -62.5v-32z
M242 434h-7v-174q0 -25 1.5 -42.5t7.5 -29t17 -16.5t30 -5h369q24 0 34.5 13t10.5 42v41q0 25 -9.5 34.5t-34.5 9.5h-370z" />
    <glyph glyph-name="seven" unicode="7" horiz-adv-x="931" 
d="M912 639q0 -15 -1 -25t-4 -18.5t-8 -17.5t-12 -21l-362 -557h-232v8l280 414q33 50 55 80t42 54v9q-30 -3 -72.5 -4.5t-101.5 -1.5h-431l-62 161v8h878q15 0 23 -6t8 -23v-60z" />
    <glyph glyph-name="eight" unicode="8" horiz-adv-x="941" 
d="M232 0q-53 0 -90.5 13t-60.5 37.5t-33.5 60.5t-10.5 81v55q0 48 22 81t53 48q-23 17 -40.5 45t-17.5 76v53q0 82 43 130t141 48h464q49 0 83.5 -12.5t57 -35.5t33 -56t10.5 -74v-53q0 -48 -17.5 -76t-40.5 -45q31 -15 52.5 -48t21.5 -81v-55q0 -91 -44 -141.5t-150 -50.5
h-476zM293 305q-29 0 -42 -11.5t-13 -40.5v-29q0 -29 12 -42t43 -13h354q31 0 43 13t12 42v29q0 29 -13 40.5t-42 11.5h-354zM293 565q-27 0 -40 -11.5t-13 -37.5v-26q0 -28 12.5 -40t40.5 -12h353q29 0 41 12t12 40v26q0 26 -12.5 37.5t-39.5 11.5h-354z" />
    <glyph glyph-name="nine" unicode="9" horiz-adv-x="940" 
d="M704 293h-509q-85 0 -122 42.5t-37 131.5v50q0 51 8 90.5t29 66.5t56 40.5t89 13.5h460q61 0 104 -12t69.5 -38.5t38.5 -67.5t12 -98v-297q0 -109 -52.5 -162t-164.5 -53h-637v180h595q61 0 61 65v48zM697 313h7v159q0 55 -11 76t-44 21h-367q-26 0 -37.5 -12.5
t-11.5 -44.5v-31q0 -27 11 -37t38 -10h366z" />
    <glyph glyph-name="colon" unicode=":" horiz-adv-x="327" 
d="M73 428v167h181v-167h-181zM73 62v166h181v-166h-181z" />
    <glyph glyph-name="semicolon" unicode=";" horiz-adv-x="327" 
d="M73 -66v294h181v-8l-106 -286h-75zM73 428v167h181v-167h-181z" />
    <glyph glyph-name="less" unicode="&#x3c;" 
d="M603 85l-558 231v78l558 232v-111l-385 -159l385 -161v-110z" />
    <glyph glyph-name="equal" unicode="=" 
d="M46 199v104h558v-104h-558zM46 446v104h558v-104h-558z" />
    <glyph glyph-name="greater" unicode="&#x3e;" 
d="M45 195l384 161l-384 159v111l558 -232v-78l-558 -231v110z" />
    <glyph glyph-name="question" unicode="?" horiz-adv-x="688" 
d="M65 558q-16 41 -31.5 81t-30.5 81v8h490q51 0 83 -12t51 -34t26 -51.5t7 -64.5v-62q0 -27 -4.5 -48t-16 -37.5t-30 -29.5t-45.5 -25l-175 -78q-11 -5 -14 -11t-4 -17l-2 -43h-183v72q0 26 7.5 42.5t33.5 29.5l208 102q16 8 20.5 14.5t4.5 20.5v28q0 19 -8.5 26.5
t-30.5 7.5h-356zM186 0v166h181v-166h-181z" />
    <glyph glyph-name="at" unicode="@" horiz-adv-x="833" 
d="M787 -21v-146h-604q-75 0 -106.5 40.5t-31.5 114.5v538q0 69 26.5 99.5t83.5 30.5h519q62 0 87.5 -28.5t25.5 -102.5v-337q0 -43 -22.5 -67t-70.5 -24h-366q-23 0 -37 5.5t-21.5 15t-10 23.5t-2.5 31v195q0 31 17.5 50t61.5 19h315l26 -76h6v144q0 32 -32 32h-445
q-19 0 -27 -8t-8 -30v-454q0 -31 13.5 -48t43.5 -17h559zM667 202q16 0 16 19v127h-292q-17 0 -24.5 -7.5t-7.5 -26.5v-82q0 -15 5.5 -22.5t23.5 -7.5h279z" />
    <glyph glyph-name="A" unicode="A" horiz-adv-x="1082" 
d="M251 0h-238v8l365 696q7 14 14 19t24 5h251q17 0 24.5 -5t15.5 -19l362 -696v-8h-623l-60 158v20h204h55.5t41.5 -0.5t32 -1.5t27 -2l3 7q-6 11 -12.5 21.5t-14.5 25.5t-19 36t-27 53l-115 230q-4 7 -14 7h-12q-9 0 -13 -7z" />
    <glyph glyph-name="B" unicode="B" horiz-adv-x="907" 
d="M252 149v-149h-206v698q0 30 29 30h598q102 0 147 -45.5t45 -128.5v-64q0 -44 -18 -71t-41 -43q32 -16 53 -47t21 -77v-64q0 -92 -43.5 -140t-149.5 -48h-371l-57 149h-7zM252 308v-137h358q27 0 39.5 13t12.5 45v21q0 32 -11.5 45t-40.5 13h-358zM269 566q-17 0 -17 -17
v-123h346q34 0 48 13t14 45v22q0 33 -14 46.5t-48 13.5h-329z" />
    <glyph glyph-name="C" unicode="C" horiz-adv-x="943" 
d="M717 438h-8v98q0 10 -9 10h-348q-60 0 -84.5 -25t-24.5 -92v-122q0 -65 24 -91.5t85 -26.5h545v-189h-563q-81 0 -138 20.5t-92 58t-51 91t-16 119.5v150q0 66 16 119.5t51 91t92 58t138 20.5h545q29 0 29 -30v-189z" />
    <glyph glyph-name="D" unicode="D" horiz-adv-x="954" 
d="M46 698q0 30 28 30h546q81 0 138 -20.5t92 -58t51 -91t16 -119.5v-150q0 -66 -16 -119.5t-51 -91t-92 -58t-138 -20.5h-294l-66 170h-8v-170h-206v698zM252 189h349q59 0 84 26t25 92v122q0 68 -25 92.5t-84 24.5h-334q-7 0 -11 -4.5t-4 -10.5v-342z" />
    <glyph glyph-name="E" unicode="E" horiz-adv-x="923" 
d="M259 421h-7v-218q0 -14 14 -14h614v-189h-805q-29 0 -29 30v668q0 30 29 30h782q30 0 30 -30v-189l-191 -71h-8v97q0 11 -10 11h-413q-8 0 -10.5 -4.5t-2.5 -9.5v-91h340v-148h-285z" />
    <glyph glyph-name="F" unicode="F" horiz-adv-x="900" 
d="M259 365h-7v-365h-206v698q0 30 29 30h776q29 0 29 -30v-196l-190 -64h-9v97q0 11 -9 11h-401q-19 0 -19 -18v-144h334v-163h-273z" />
    <glyph glyph-name="G" unicode="G" horiz-adv-x="952" 
d="M708 312q0 16 -1.5 33.5t-3.5 30.5v9h204v-357q0 -28 -25 -28h-548q-81 0 -138 20.5t-92 58t-51 91t-16 119.5v150q0 66 16 119.5t51 91t92 58t138 20.5h545q29 0 29 -30v-157l-191 -70h-8v70q0 10 -9 10h-348q-30 0 -50.5 -5.5t-33.5 -19t-19 -36t-6 -55.5v-128
q0 -66 25 -92t84 -26h345q11 0 11 12v111z" />
    <glyph glyph-name="H" unicode="H" horiz-adv-x="992" 
d="M259 438h-7v-438h-206v728h206v-270h486v270h207v-728h-207v280h-418z" />
    <glyph glyph-name="I" unicode="I" horiz-adv-x="299" 
d="M46 0v728h206v-728h-206z" />
    <glyph glyph-name="J" unicode="J" horiz-adv-x="757" 
d="M15 190h385q58 0 83.5 25.5t25.5 88.5v424h206v-439q0 -66 -15.5 -119.5t-51 -91t-92 -58t-137.5 -20.5h-404v190z" />
    <glyph glyph-name="K" unicode="K" horiz-adv-x="952" 
d="M252 728v-295h7l381 295h280v-8l-429 -322l453 -390v-8h-283l-402 350h-7v-350h-206v728h206z" />
    <glyph glyph-name="L" unicode="L" horiz-adv-x="861" 
d="M252 728v-514q0 -12 5 -18t19 -6h570v-190h-747q-29 0 -41 14.5t-12 41.5v672h206z" />
    <glyph glyph-name="M" unicode="M" horiz-adv-x="1281" 
d="M1040 0v547q0 16 -15 16h-11q-13 0 -18 -13l-199 -527q-5 -14 -14 -18.5t-25 -4.5h-237q-17 0 -25.5 4.5t-13.5 18.5l-198 527q-5 13 -19 13h-10q-16 0 -16 -16v-547h-193v698q0 30 28 30h329q32 0 42 -27l179 -520q1 -6 10 -6h18q6 0 8 6l180 520q5 13 14.5 20t26.5 7
h325q28 0 28 -30v-698h-194z" />
    <glyph glyph-name="N" unicode="N" horiz-adv-x="985" 
d="M380 728q23 0 32.5 -7t17.5 -22l276 -523q7 -12 19 -12h11q16 0 16 16v548h187v-699q0 -29 -28 -29h-296q-21 0 -31.5 6t-19.5 23l-286 522q-6 12 -19 12h-10q-16 0 -16 -16v-547h-187v698q0 30 28 30h306z" />
    <glyph glyph-name="O" unicode="O" horiz-adv-x="993" 
d="M954 289q0 -66 -16 -119.5t-51 -91t-91.5 -58t-137.5 -20.5h-324q-81 0 -138 20.5t-92 58t-51 91t-16 119.5v150q0 66 16 119.5t51 91t92 58t138 20.5h324q81 0 137.5 -20.5t91.5 -58t51 -91t16 -119.5v-150zM243 307q0 -38 7.5 -61t24 -35.5t43 -17t65.5 -4.5h256
q33 0 54.5 7t33.5 23.5t16.5 44.5t4.5 69v96q0 67 -25 92t-84 25h-287q-33 0 -54.5 -7t-33.5 -23.5t-16.5 -44t-4.5 -68.5v-96z" />
    <glyph glyph-name="P" unicode="P" horiz-adv-x="934" 
d="M259 319h-7v-319h-206v698q0 30 29 30h564q74 0 125.5 -18t83.5 -51.5t46.5 -81.5t14.5 -108v-59q0 -125 -60.5 -187.5t-199.5 -62.5h-329zM265 546q-13 0 -13 -14v-194h361q50 0 70 20t20 65v36q0 51 -20 69t-70 18h-348z" />
    <glyph glyph-name="Q" unicode="Q" horiz-adv-x="993" 
d="M584 -165l-217 338h-8v-173h-25q-81 0 -138 20.5t-92 58t-51 91t-16 119.5v150q0 66 16 119.5t51 91t92 58t138 20.5h324q81 0 137.5 -20.5t91.5 -58t51 -91t16 -119.5v-150q0 -67 -16.5 -114.5t-50 -78t-84.5 -46.5t-120 -19v-8l127 -180v-8h-226zM243 307
q0 -38 7.5 -61t24 -35.5t43 -17t65.5 -4.5h256q33 0 54.5 7t33.5 23.5t16.5 44.5t4.5 69v96q0 67 -25 92t-84 25h-287q-33 0 -54.5 -7t-33.5 -23.5t-16.5 -44t-4.5 -68.5v-96z" />
    <glyph glyph-name="R" unicode="R" horiz-adv-x="911" 
d="M252 351v-351h-206v698q0 30 28 30h569q68 0 115 -16t76 -46.5t42 -73.5t13 -97v-52q0 -53 -13 -95t-41.5 -71.5t-73.5 -45.5t-110 -16h-21h-26.5t-22.5 1v-7q13 -12 26 -26.5t25 -29.5l116 -145v-8h-232l-257 351h-7zM266 546q-14 0 -14 -17v-159h354q41 0 58.5 16
t17.5 61v25q0 42 -17.5 58t-58.5 16h-340z" />
    <glyph glyph-name="S" unicode="S" horiz-adv-x="941" 
d="M699 476h-8v80q0 12 -12 12h-384q-21 0 -29 -9t-8 -26v-18q0 -21 7 -27t27 -9l452 -63q43 -6 73 -18.5t49 -33t27 -50.5t8 -71v-58q0 -45 -11 -79.5t-36 -58t-66 -35.5t-101 -12h-648v189h581q26 0 34.5 9.5t8.5 33.5v20q0 19 -6.5 26.5t-25.5 9.5l-436 55
q-44 6 -75.5 18t-51.5 32t-29 49t-9 69v51q0 79 42 122.5t140 43.5h647q31 0 31 -32v-150z" />
    <glyph glyph-name="T" unicode="T" horiz-adv-x="1017" 
d="M578 546v-546h-206v546h-302l-67 174v8h965q29 0 29 -30v-189l-191 -71h-8v97q0 11 -11 11h-209z" />
    <glyph glyph-name="U" unicode="U" horiz-adv-x="988" 
d="M42 728h206v-427q0 -62 25.5 -87t82.5 -25h275q58 0 83.5 25.5t25.5 88.5v425h206v-439q0 -68 -16 -121.5t-51 -91t-91.5 -57t-138.5 -19.5h-311q-81 0 -137.5 19.5t-91.5 57t-51 91t-16 121.5v439z" />
    <glyph glyph-name="V" unicode="V" horiz-adv-x="1084" 
d="M832 728h239v-8l-365 -697q-7 -14 -15 -18.5t-24 -4.5h-253q-17 0 -25 5t-15 18l-362 697v8h243l268 -547q4 -8 14 -8h11q10 0 14 8z" />
    <glyph glyph-name="W" unicode="W" horiz-adv-x="1234" 
d="M1218 728v-8l-105 -692q-2 -15 -8.5 -21.5t-23.5 -6.5h-299q-38 0 -44 30l-112 513q-2 9 -11 9h-9q-11 0 -13 -9l-98 -513q-6 -30 -44 -30h-290q-16 0 -23 7t-9 21l-115 692v8h206l86 -551q2 -13 15 -13h10q12 0 15 13l104 525q2 14 10.5 20t27.5 6h252q32 0 38 -26
l116 -525q3 -13 14 -13h11q16 0 17 13l71 551h211z" />
    <glyph glyph-name="X" unicode="X" horiz-adv-x="1014" 
d="M990 728v-8l-340 -334l355 -378v-8h-262l-237 254l-245 -254h-250v8l364 377l-330 335v8h256l212 -225l228 225h249z" />
    <glyph glyph-name="Y" unicode="Y" horiz-adv-x="932" 
d="M925 728v-8l-357 -438v-282h-206v286l-355 434v8h235l213 -266l3.5 -3.5t6.5 -1.5h7q6 0 10 5l209 266h234z" />
    <glyph glyph-name="Z" unicode="Z" horiz-adv-x="955" 
d="M914 0h-840q-16 0 -24 6t-8 24v147q0 19 7 31t24 23l391 243q38 23 72.5 42.5t64.5 36.5v8q-17 -2 -34.5 -2.5t-37 -1.5t-42.5 -1h-51h-394v172h838q16 0 24.5 -6.5t8.5 -23.5v-113q0 -18 -6.5 -27.5t-22.5 -19.5l-394 -243q-56 -35 -98 -59t-86 -46v-12q38 3 76 4.5
t86 1.5h446v-184z" />
    <glyph glyph-name="bracketleft" unicode="[" horiz-adv-x="355" 
d="M115 -156v1037h225v-87h-120v-862h120v-88h-225z" />
    <glyph glyph-name="backslash" unicode="\" horiz-adv-x="479" 
d="M372 -29l-370 778v8h105l370 -778v-8h-105z" />
    <glyph glyph-name="bracketright" unicode="]" horiz-adv-x="354" 
d="M14 -156v88h121v862h-121v87h225v-1037h-225z" />
    <glyph glyph-name="asciicircum" unicode="^" horiz-adv-x="599" 
d="M45 267l201 461h101l206 -461h-128l-127 297l-131 -297h-122z" />
    <glyph glyph-name="underscore" unicode="_" horiz-adv-x="702" 
d="M0 -149v99h704v-99h-704z" />
    <glyph glyph-name="grave" unicode="`" horiz-adv-x="305" 
d="M46 597v183h93l120 -175v-8h-213z" />
    <glyph glyph-name="a" unicode="a" horiz-adv-x="701" 
d="M44 413v136h510q54 0 79.5 -30t25.5 -87v-408q0 -24 -23 -24h-479q-30 0 -53.5 7.5t-40 25.5t-25 47.5t-8.5 73.5v41q0 78 33.5 111.5t93.5 33.5h279l34 -81h7v111q0 23 -9.5 33t-28.5 10h-395zM466 136q11 0 11 12v84h-238q-18 0 -25.5 -9t-7.5 -27v-24q0 -17 7.5 -26.5
t25.5 -9.5h227z" />
    <glyph glyph-name="b" unicode="b" horiz-adv-x="756" 
d="M46 780h181v-231h267q61 0 104 -15.5t69.5 -44t38.5 -69t12 -89.5v-113q0 -50 -12 -90t-38.5 -68.5t-69.5 -44t-104 -15.5h-204l-55 140h-7v-140h-182v780zM227 405v-244h233q43 0 60 17t17 64v77q0 49 -17 67.5t-60 18.5h-233z" />
    <glyph glyph-name="c" unicode="c" horiz-adv-x="729" 
d="M535 319h-9v75q0 11 -9 11h-222q-43 0 -59.5 -18.5t-16.5 -67.5v-77q0 -47 16.5 -64t59.5 -17h391v-161h-425q-61 0 -103.5 15.5t-69.5 44t-39 68.5t-12 90v113q0 49 12 89.5t39 69t69.5 44t103.5 15.5h407q27 0 27 -27v-142z" />
    <glyph glyph-name="d" unicode="d" horiz-adv-x="756" 
d="M260 0q-61 0 -103.5 15.5t-69 44t-38.5 68.5t-12 90v113q0 49 12 89.5t38.5 69t69 44t103.5 15.5h268v231h181v-780h-449zM466 161l54 -141h8v385h-234q-23 0 -37.5 -5t-23 -17.5t-12 -32.5t-3.5 -50v-58q0 -47 17 -64t59 -17h172z" />
    <glyph glyph-name="e" unicode="e" horiz-adv-x="726" 
d="M226 313h-7v-85q0 -47 16 -64.5t60 -17.5h391v-146h-425q-61 0 -103.5 15.5t-69.5 44t-39 68.5t-12 90v113q0 50 12 90t39 68.5t69.5 44t103.5 15.5h317q63 0 90 -32.5t27 -101.5v-53q0 -61 -27 -97t-90 -36h-321zM219 340h276q31 0 31 32v20q0 17 -7.5 24t-23.5 7h-200
q-42 0 -59 -17.5t-17 -62.5v-3z" />
    <glyph glyph-name="f" unicode="f" horiz-adv-x="487" 
d="M466 411h-160v-411h-181v411h-74l-48 130v8h122v66q0 49 10 80.5t33.5 50.5t62 26.5t95.5 7.5h81l49 -123v-9h-106q-26 0 -35 -11.5t-9 -38.5v-49h160v-138z" />
    <glyph glyph-name="g" unicode="g" horiz-adv-x="755" 
d="M59 -72h397q39 0 54.5 17.5t15.5 55.5v44h-267q-123 0 -174 49.5t-51 150.5v86q0 50 12 90t39 68.5t69.5 44t104.5 15.5h399q50 0 50 -50v-510q0 -48 -11.5 -87.5t-37.5 -67.5t-69 -43.5t-106 -15.5h-425v153zM519 65h7v323q0 17 -17 17h-216q-42 0 -60 -18.5t-18 -66.5
v-51q0 -45 17.5 -61.5t60.5 -16.5h177z" />
    <glyph glyph-name="h" unicode="h" horiz-adv-x="761" 
d="M46 780h181v-231h267q61 0 104 -15.5t69.5 -44t38.5 -68.5t12 -90v-331h-181v319q0 48 -19.5 67t-57.5 19h-196l-30 80h-7v-485h-181v780z" />
    <glyph glyph-name="i" unicode="i" horiz-adv-x="274" 
d="M46 0v549h181v-549h-181zM46 635v145h181v-145h-181z" />
    <glyph glyph-name="j" unicode="j" horiz-adv-x="343" 
d="M-64 -225v153h113q29 0 42 14.5t13 47.5v559h181v-570q0 -46 -11 -83.5t-36 -64.5t-66 -41.5t-101 -14.5h-135zM104 635v145h181v-145h-181z" />
    <glyph glyph-name="k" unicode="k" horiz-adv-x="730" 
d="M227 780v-450h7l246 219h225v-8l-278 -235l295 -298v-8h-228l-260 267h-7v-267h-181v780h181z" />
    <glyph glyph-name="l" unicode="l" horiz-adv-x="274" 
d="M46 0v780h181v-780h-181z" />
    <glyph glyph-name="m" unicode="m" horiz-adv-x="1154" 
d="M605 549h283q61 0 104 -15.5t69.5 -44t38.5 -68.5t12 -90v-331h-181v320q0 48 -18 66.5t-58 18.5h-170q10 -31 10 -74v-331h-181v320q0 48 -18 66.5t-58 18.5h-174l-30 80h-7v-485h-181v549h425q59 0 98 -15.5t67 -42.5l4 3q-9 11 -18 22.5t-17 24.5v8z" />
    <glyph glyph-name="n" unicode="n" horiz-adv-x="761" 
d="M46 549h448q61 0 104 -15.5t69.5 -44t38.5 -68.5t12 -90v-331h-181v319q0 48 -18 67t-59 19h-196l-30 80h-7v-485h-181v549z" />
    <glyph glyph-name="o" unicode="o" horiz-adv-x="788" 
d="M750 218q0 -50 -12 -90t-39 -68.5t-70 -44t-104 -15.5h-264q-61 0 -103.5 15.5t-69.5 44t-39 68.5t-12 90v113q0 49 12 89.5t39 69t69.5 44t103.5 15.5h264q61 0 104 -15.5t70 -44t39 -69t12 -89.5v-113zM492 161q43 0 60 17t17 64v77q0 50 -17.5 68t-59.5 18h-197
q-43 0 -59.5 -18.5t-16.5 -67.5v-77q0 -47 16.5 -64t59.5 -17h197z" />
    <glyph glyph-name="p" unicode="p" horiz-adv-x="756" 
d="M235 140h-7v-365h-182v716q0 58 53 58h395q61 0 104 -15.5t69.5 -44t38.5 -69t12 -89.5v-113q0 -50 -12 -90t-38.5 -68.5t-69.5 -44t-104 -15.5h-204zM243 405q-16 0 -16 -20v-224h233q43 0 60 17t17 64v77q0 49 -17 67.5t-60 18.5h-217z" />
    <glyph glyph-name="q" unicode="q" horiz-adv-x="756" 
d="M661 549q49 0 49 -50v-724h-182v225h-267q-61 0 -103.5 15.5t-69.5 44t-39 68.5t-12 90v113q0 49 12 89.5t39 69t69.5 44t103.5 15.5h400zM521 20h7v368q0 17 -16 17h-217q-25 0 -40 -5.5t-23 -17.5t-10.5 -32t-2.5 -50v-58q0 -47 16.5 -64t59.5 -17h172z" />
    <glyph glyph-name="r" unicode="r" horiz-adv-x="689" 
d="M507 319h-8v75q0 11 -10 11h-221q-24 0 -34 -11t-10 -38v-356h-181v395q0 70 36.5 112t116.5 42h445q26 0 26 -27v-142z" />
    <glyph glyph-name="s" unicode="s" horiz-adv-x="740" 
d="M37 154h449q16 0 22 6.5t6 21.5v12q0 11 -4 16.5t-16 6.5l-341 29q-63 5 -93 39t-30 91v44q0 60 33 94.5t108 34.5h495q25 0 25 -25v-123l-156 -58h-7v63q0 8 -7 8h-286q-15 0 -21 -6t-6 -20v-15q0 -14 4.5 -18t16.5 -6l349 -34q35 -3 58 -13t37 -26.5t19.5 -40.5
t5.5 -56v-41q0 -66 -34.5 -102t-122.5 -36h-504v154z" />
    <glyph glyph-name="t" unicode="t" horiz-adv-x="487" 
d="M466 411h-160v-411h-181v411h-72l-50 130v8h122v179h181v-179h160v-138z" />
    <glyph glyph-name="u" unicode="u" horiz-adv-x="790" 
d="M46 549h181v-307q0 -46 19 -63.5t65 -17.5h165q48 0 67 18.5t19 62.5v307h181v-331q0 -50 -12 -90t-38.5 -68.5t-69.5 -44t-105 -15.5h-249q-61 0 -103.5 15.5t-69 44t-38.5 68.5t-12 90v331z" />
    <glyph glyph-name="v" unicode="v" horiz-adv-x="765" 
d="M370 146q3 -6 10 -6h8q6 0 9 6l165 403h189v-8l-236 -522q-5 -11 -11 -15t-18 -4h-208q-13 0 -19 4t-11 15l-236 522v8h193z" />
    <glyph glyph-name="w" unicode="w" horiz-adv-x="1043" 
d="M384 522q6 27 34 27h206q30 0 37 -27l93 -388q1 -9 12 -9h9q11 0 13 9l67 415h172v-8l-98 -519q-4 -22 -32 -22h-242q-15 0 -22.5 6t-10.5 20l-92 383q-2 7 -9 7h-8q-7 0 -9 -7l-84 -383q-3 -14 -13.5 -20t-24.5 -6h-231q-16 0 -21 5.5t-7 16.5l-109 519v8h171l75 -415
q1 -9 12 -9h9q13 0 14 10l89 387v0z" />
    <glyph glyph-name="x" unicode="x" horiz-adv-x="827" 
d="M254 549l163 -165l176 165h208v-8l-272 -252l285 -281v-8h-218l-185 188l-188 -188h-212v8l292 280l-266 253v8h217z" />
    <glyph glyph-name="y" unicode="y" horiz-adv-x="753" 
d="M516 65h7v484h182v-560q0 -48 -11.5 -87.5t-37.5 -67.5t-69 -43.5t-106 -15.5h-417v153h389q39 0 54.5 17.5t15.5 55.5v44h-259q-123 0 -174 49.5t-51 150.5v304h182v-280q0 -45 17 -61.5t60 -16.5h169z" />
    <glyph glyph-name="z" unicode="z" horiz-adv-x="714" 
d="M671 0h-605q-24 0 -24 23v110q0 30 26 47l221 145q31 20 52 34t35.5 23.5t24.5 15t19 10.5v8q-24 -2 -63 -3.5t-96 -1.5h-219v138h605q24 0 24 -24v-81q0 -14 -5 -21.5t-16 -15.5l-261 -176q-26 -18 -44.5 -30.5t-33 -21.5t-26.5 -16t-24 -13v-9q35 2 73 3t83 1h254v-145
z" />
    <glyph glyph-name="braceleft" unicode="{" horiz-adv-x="406" 
d="M115 415q17 0 23.5 6.5t6.5 24.5v294q0 72 38.5 106.5t104.5 34.5h92v-93h-90q-40 0 -40 -45v-298q0 -32 -9.5 -50.5t-28.5 -32.5q19 -14 28.5 -32.5t9.5 -49.5v-298q0 -24 9.5 -34.5t30.5 -10.5h90v-93h-92q-66 0 -104.5 34t-38.5 106v295q0 17 -6.5 24t-23.5 7h-52v105
h52z" />
    <glyph glyph-name="bar" unicode="|" horiz-adv-x="311" 
d="M97 -132v1014h118v-1014h-118z" />
    <glyph glyph-name="braceright" unicode="}" horiz-adv-x="406" 
d="M342 415v-105h-52q-17 0 -23.5 -7t-6.5 -24v-295q0 -72 -38 -106t-105 -34h-91v93h89q21 0 31 10.5t10 34.5v298q0 31 9.5 49.5t27.5 32.5q-18 14 -27.5 32.5t-9.5 50.5v298q0 45 -41 45h-89v93h91q67 0 105 -34.5t38 -106.5v-294q0 -18 6.5 -24.5t23.5 -6.5h52z" />
    <glyph glyph-name="asciitilde" unicode="~" 
d="M443 286q-33 0 -64.5 12t-62 27t-62 27t-65.5 12q-42 0 -72.5 -15.5t-61.5 -59.5h-10v114q22 29 55 45t87 16q39 0 73 -12.5t65 -28t60.5 -28t58.5 -12.5q48 0 83.5 18t66.5 61h9v-115q-56 -61 -160 -61z" />
    <glyph glyph-name="nonbreakingspace" unicode="&#xa0;" horiz-adv-x="417" 
 />
    <glyph glyph-name="exclamdown" unicode="&#xa1;" horiz-adv-x="293" 
d="M236 285l15 -456v-8h-209v8l17 456h177zM238 549v-166h-181v166h181z" />
    <glyph glyph-name="cent" unicode="&#xa2;" horiz-adv-x="700" 
d="M435 759v-123h205q24 0 24 -27v-141l-152 -60h-8v71q0 11 -10 11h-211q-40 0 -56.5 -19.5t-16.5 -62.5v-77q0 -44 17.5 -60.5t55.5 -16.5h373v-164h-221v-121h-113v121h-71q-58 0 -99 15.5t-66.5 44t-37 68.5t-11.5 89v111q0 49 11.5 89.5t37 69t66.5 44t99 15.5h71v123
h113z" />
    <glyph glyph-name="sterling" unicode="&#xa3;" horiz-adv-x="770" 
d="M30 408v7h90v81q0 117 53 174.5t166 57.5h372q28 0 28 -30v-168l-191 -70h-8v93q0 11 -9 11h-163q-35 0 -53.5 -19.5t-18.5 -64.5v-65h411l34 -107v-7h-445v-120h445v-181h-704v181h83v120h-56z" />
    <glyph glyph-name="currency" unicode="&#xa4;" horiz-adv-x="648" 
d="M138 250q-33 52 -33 119t33 121l-71 69l66 69l69 -74q26 17 56.5 28.5t65.5 11.5q33 0 63.5 -11.5t56.5 -28.5l70 74l68 -69l-74 -69q17 -27 26 -57.5t9 -63.5t-9 -64t-26 -56l75 -71l-69 -68l-71 75q-26 -17 -56 -27t-63 -10q-34 0 -64 10t-56 27l-71 -75l-68 68z
M201 369q0 -26 9 -48.5t25.5 -39.5t39 -26.5t49.5 -9.5q26 0 48 9.5t38 26.5t25 39.5t9 48.5t-9 49t-25 40t-38 27t-48 10q-27 0 -49.5 -10t-39 -27t-25.5 -40t-9 -49z" />
    <glyph glyph-name="yen" unicode="&#xa5;" horiz-adv-x="845" 
d="M40 386v7h256l-276 327v8h244l146 -179q5 -5 10 -5h8q6 0 11 5l143 179h241v-8l-276 -327h224l32 -105v-7h-279v-59h247l32 -104v-8h-279v-110h-206v110h-246l-32 104v8h278v59h-246z" />
    <glyph glyph-name="brokenbar" unicode="&#xa6;" horiz-adv-x="311" 
d="M97 -132v454h118v-454h-118zM215 456h-118v426h118v-426z" />
    <glyph glyph-name="section" unicode="&#xa7;" horiz-adv-x="775" 
d="M571 79h-356q-91 0 -130 42t-39 123v320q0 80 38.5 122t130.5 42h301v-132h-266q-46 0 -46 -51v-84h356q90 0 129 -42t39 -123v-319q0 -80 -38 -122t-130 -42h-301v133h265q47 0 47 50v83zM204 244q0 -52 46 -52h321v103q0 53 -47 53h-320v-104z" />
    <glyph glyph-name="dieresis" unicode="&#xa8;" horiz-adv-x="536" 
d="M326 599v148h164v-148h-164zM46 599v148h164v-148h-164z" />
    <glyph glyph-name="ordfeminine" unicode="&#xaa;" horiz-adv-x="604" 
d="M53 624v104h432q38 0 56 -21t18 -59v-295q0 -19 -18 -19h-409q-39 0 -63 24.5t-24 86.5v25q0 57 24 82.5t64 25.5h256l26 -59h5v73q0 32 -29 32h-338zM411 434q9 0 9 9v54h-219q-22 0 -22 -24v-17q0 -22 22 -22h210z" />
    <glyph glyph-name="guillemotleft" unicode="&#xab;" horiz-adv-x="468" 
d="M27 118zM207 118h-8l-172 128v93l172 127h8v-348zM441 118h-8l-172 128v93l172 127h8v-348z" />
    <glyph glyph-name="logicalnot" unicode="&#xac;" 
d="M501 0v329h-455v103h558v-432h-103z" />
    <glyph glyph-name="softhyphen" unicode="&#xad;" horiz-adv-x="331" 
d="M27 223zM304 363v-140h-277v140h277z" />
    <glyph glyph-name="macron" unicode="&#xaf;" horiz-adv-x="497" 
d="M46 623v100h407v-100h-407z" />
    <glyph glyph-name="degree" unicode="&#xb0;" horiz-adv-x="487" 
d="M355 618q0 44 -26.5 74.5t-87.5 30.5q-60 0 -86 -30t-26 -75q0 -22 6 -42t19.5 -35t35 -23.5t51.5 -8.5t52 8.5t35.5 23.5t20 35t6.5 42zM441 616q0 -38 -11 -71t-35 -57.5t-62 -39t-92 -14.5q-53 0 -90 14.5t-60.5 39t-34 57.5t-10.5 71t10.5 71t34 57.5t60.5 38.5
t90 14q54 0 92 -14t62 -38.5t35 -57.5t11 -71z" />
    <glyph glyph-name="plusminus" unicode="&#xb1;" 
d="M45 0zM272 423h-227v103h227v228h104v-228h227v-103h-227v-228h-104v228zM46 0v103h558v-103h-558z" />
    <glyph glyph-name="twosuperior" unicode="&#xb2;" horiz-adv-x="543" 
d="M32 328zM358 584q14 5 14 15v7q0 13 -16 13h-286l-38 101v8h378q97 0 97 -91v-38q0 -21 -3 -36t-10 -25t-19.5 -16.5t-31.5 -11.5l-110 -31q-23 -7 -54.5 -14.5t-71.5 -17.5v-7q76 6 135 6h161v-118h-444q-18 0 -18 23v109q0 26 23 34z" />
    <glyph glyph-name="threesuperior" unicode="&#xb3;" horiz-adv-x="529" 
d="M27 328zM66 622l-39 98v8h355q103 0 103 -94v-34q0 -38 -27 -65q37 -24 37 -68v-33q0 -106 -109 -106h-343v118h297q24 0 24 21v11q0 18 -22 18h-225l-28 75v8h257q18 0 18 16v13q0 14 -17 14h-281z" />
    <glyph glyph-name="acute" unicode="&#xb4;" horiz-adv-x="305" 
d="M46 597v8l119 175h94v-183h-213z" />
    <glyph glyph-name="paragraph" unicode="&#xb6;" horiz-adv-x="687" 
d="M526 -225v845h-191v-845h-112v577q-49 1 -84.5 9t-58.5 25.5t-34 47t-11 73.5v66q0 78 44.5 116.5t138.5 38.5h419v-953h-111z" />
    <glyph glyph-name="periodcentered" unicode="&#xb7;" horiz-adv-x="274" 
d="M46 272zM46 272v166h181v-166h-181z" />
    <glyph glyph-name="cedilla" unicode="&#xb8;" horiz-adv-x="302" 
d="M45 -225v9l118 174h93v-183h-211z" />
    <glyph glyph-name="onesuperior" unicode="&#xb9;" horiz-adv-x="290" 
d="M15 328zM56 613l-41 107v8h137q30 0 48.5 -5.5t29.5 -18t15 -32.5t4 -48v-296h-128v259q0 14 -4.5 20t-20.5 6h-40z" />
    <glyph glyph-name="ordmasculine" unicode="&#xba;" horiz-adv-x="600" 
d="M207 334q-44 0 -75 11t-50.5 31.5t-28 49.5t-8.5 65v80q0 36 8.5 65t28 49.5t50.5 31.5t75 11h186q88 0 125 -42.5t37 -114.5v-80q0 -72 -37 -114.5t-125 -42.5h-186zM361 456q31 0 43 13t12 45v47q0 31 -12.5 43.5t-42.5 12.5h-122q-32 0 -43.5 -13t-11.5 -43v-47
q0 -33 12 -45.5t43 -12.5h122z" />
    <glyph glyph-name="guillemotright" unicode="&#xbb;" horiz-adv-x="468" 
d="M27 118zM27 466h8l172 -127v-93l-172 -128h-8v348zM261 466h8l172 -127v-93l-172 -128h-8v348z" />
    <glyph glyph-name="onequarter" unicode="&#xbc;" horiz-adv-x="917" 
d="M35 0zM97 613l-41 107v8h137q30 0 48.5 -5.5t29.5 -18t15 -32.5t4 -48v-296h-128v259q0 14 -4.5 20t-20.5 6h-40zM804 728l-641 -728h-128l641 728h128zM752 0v74h-304q-32 0 -32 29v92q0 23 21 37l253 159q9 5 15.5 7t17.5 2h132q26 0 26 -28v-372h-129zM672 253
q-23 -13 -51.5 -29t-63.5 -35v-5q17 1 38.5 1.5t46.5 0.5h50l55 -99h5v208h-8z" />
    <glyph glyph-name="onehalf" unicode="&#xbd;" horiz-adv-x="1070" 
d="M35 0zM97 613l-41 107v8h137q30 0 48.5 -5.5t29.5 -18t15 -32.5t4 -48v-296h-128v259q0 14 -4.5 20t-20.5 6h-40zM804 728l-641 -728h-128l641 728h128zM885 256q14 5 14 15v7q0 13 -16 13h-286l-38 101v8h378q97 0 97 -91v-38q0 -21 -3 -36t-10 -25t-19.5 -16.5
t-31.5 -11.5l-110 -31q-23 -7 -54.5 -14.5t-71.5 -17.5v-7q76 6 135 6h161v-118h-444q-18 0 -18 23v109q0 26 23 34z" />
    <glyph glyph-name="threequarters" unicode="&#xbe;" horiz-adv-x="1113" 
d="M35 0zM74 622l-39 98v8h355q103 0 103 -94v-34q0 -38 -27 -65q37 -24 37 -68v-33q0 -106 -109 -106h-343v118h297q24 0 24 21v11q0 18 -22 18h-225l-28 75v8h257q18 0 18 16v13q0 14 -17 14h-281zM980 728l-641 -728h-128l641 728h128zM948 0v74h-304q-32 0 -32 29v92
q0 23 21 37l253 159q9 5 15.5 7t17.5 2h132q26 0 26 -28v-372h-129zM868 253q-23 -13 -51.5 -29t-63.5 -35v-5q17 1 38.5 1.5t46.5 0.5h50l55 -99h5v208h-8z" />
    <glyph glyph-name="questiondown" unicode="&#xbf;" horiz-adv-x="688" 
d="M623 -9q16 -41 31.5 -81t30.5 -81v-8h-490q-51 0 -83 12t-51 34t-26 51.5t-7 64.5v62q0 27 4.5 47.5t16 37t30 30t45.5 25.5l175 78q11 5 14 11t4 17l2 43h183v-72q0 -26 -7.5 -42.5t-33.5 -29.5l-208 -102q-16 -8 -20.5 -14.5t-4.5 -20.5v-28q0 -19 8.5 -26.5t30.5 -7.5
h356zM502 549v-166h-181v166h181z" />
    <glyph glyph-name="Agrave" unicode="&#xc0;" horiz-adv-x="1082" 
d="M13 0zM251 0h-238v8l365 696q7 14 14 19t24 5h251q17 0 24.5 -5t15.5 -19l362 -696v-8h-623l-60 158v20h204h55.5t41.5 -0.5t32 -1.5t27 -2l3 7q-6 11 -12.5 21.5t-14.5 25.5t-19 36t-27 53l-115 230q-4 7 -14 7h-12q-9 0 -13 -7zM414 776v183h93l120 -175v-8h-213z" />
    <glyph glyph-name="Aacute" unicode="&#xc1;" horiz-adv-x="1082" 
d="M13 0zM251 0h-238v8l365 696q7 14 14 19t24 5h251q17 0 24.5 -5t15.5 -19l362 -696v-8h-623l-60 158v20h204h55.5t41.5 -0.5t32 -1.5t27 -2l3 7q-6 11 -12.5 21.5t-14.5 25.5t-19 36t-27 53l-115 230q-4 7 -14 7h-12q-9 0 -13 -7zM454 776v8l119 175h94v-183h-213z" />
    <glyph glyph-name="Acircumflex" unicode="&#xc2;" horiz-adv-x="1082" 
d="M13 0zM251 0h-238v8l365 696q7 14 14 19t24 5h251q17 0 24.5 -5t15.5 -19l362 -696v-8h-623l-60 158v20h204h55.5t41.5 -0.5t32 -1.5t27 -2l3 7q-6 11 -12.5 21.5t-14.5 25.5t-19 36t-27 53l-115 230q-4 7 -14 7h-12q-9 0 -13 -7zM367 776v8l119 175h108l121 -175v-8
h-348z" />
    <glyph glyph-name="Atilde" unicode="&#xc3;" horiz-adv-x="1082" 
d="M13 0zM251 0h-238v8l365 696q7 14 14 19t24 5h251q17 0 24.5 -5t15.5 -19l362 -696v-8h-623l-60 158v20h204h55.5t41.5 -0.5t32 -1.5t27 -2l3 7q-6 11 -12.5 21.5t-14.5 25.5t-19 36t-27 53l-115 230q-4 7 -14 7h-12q-9 0 -13 -7zM337 802v100h407v-100h-407z" />
    <glyph glyph-name="Adieresis" unicode="&#xc4;" horiz-adv-x="1082" 
d="M13 0zM251 0h-238v8l365 696q7 14 14 19t24 5h251q17 0 24.5 -5t15.5 -19l362 -696v-8h-623l-60 158v20h204h55.5t41.5 -0.5t32 -1.5t27 -2l3 7q-6 11 -12.5 21.5t-14.5 25.5t-19 36t-27 53l-115 230q-4 7 -14 7h-12q-9 0 -13 -7zM599 778v148h164v-148h-164zM319 778
v148h164v-148h-164z" />
    <glyph glyph-name="Aring" unicode="&#xc5;" horiz-adv-x="1082" 
d="M13 0zM251 0h-238v8l365 696q7 14 14 19t24 5h251q17 0 24.5 -5t15.5 -19l362 -696v-8h-623l-60 158v20h204h55.5t41.5 -0.5t32 -1.5t27 -2l3 7q-6 11 -12.5 21.5t-14.5 25.5t-19 36t-27 53l-115 230q-4 7 -14 7h-12q-9 0 -13 -7zM495 744q-42 0 -67 23t-25 74v22
q0 51 25 73.5t67 22.5h91q42 0 67 -22.5t25 -73.5v-22q0 -51 -25 -74t-67 -23h-91v0z" />
    <glyph glyph-name="AE" unicode="&#xc6;" horiz-adv-x="1436" 
d="M829 421h-7v-232h571v-189h-953l-54 157v21h229v376h-81q-9 0 -13 -8l-270 -546h-239v8l366 696q7 12 13.5 18t24.5 6h955q29 0 29 -30v-186l-191 -74h-8v97q0 11 -10 11h-369v-105h284v-148h-228z" />
    <glyph glyph-name="Ccedilla" unicode="&#xc7;" horiz-adv-x="943" 
d="M37 0zM717 438h-8v98q0 10 -9 10h-348q-60 0 -84.5 -25t-24.5 -92v-122q0 -65 24 -91.5t85 -26.5h545v-189h-563q-81 0 -138 20.5t-92 58t-51 91t-16 119.5v150q0 66 16 119.5t51 91t92 58t138 20.5h545q29 0 29 -30v-189zM339 -225v9l118 174h93v-183h-211z" />
    <glyph glyph-name="Egrave" unicode="&#xc8;" horiz-adv-x="923" 
d="M46 0zM259 421h-7v-218q0 -14 14 -14h614v-189h-805q-29 0 -29 30v668q0 30 29 30h782q30 0 30 -30v-189l-191 -71h-8v97q0 11 -10 11h-413q-8 0 -10.5 -4.5t-2.5 -9.5v-91h340v-148h-285zM343 776v183h93l120 -175v-8h-213z" />
    <glyph glyph-name="Eacute" unicode="&#xc9;" horiz-adv-x="923" 
d="M46 0zM259 421h-7v-218q0 -14 14 -14h614v-189h-805q-29 0 -29 30v668q0 30 29 30h782q30 0 30 -30v-189l-191 -71h-8v97q0 11 -10 11h-413q-8 0 -10.5 -4.5t-2.5 -9.5v-91h340v-148h-285zM389 776v8l119 175h94v-183h-213z" />
    <glyph glyph-name="Ecircumflex" unicode="&#xca;" horiz-adv-x="923" 
d="M46 0zM259 421h-7v-218q0 -14 14 -14h614v-189h-805q-29 0 -29 30v668q0 30 29 30h782q30 0 30 -30v-189l-191 -71h-8v97q0 11 -10 11h-413q-8 0 -10.5 -4.5t-2.5 -9.5v-91h340v-148h-285zM295 776v8l119 175h108l121 -175v-8h-348z" />
    <glyph glyph-name="Edieresis" unicode="&#xcb;" horiz-adv-x="923" 
d="M46 0zM259 421h-7v-218q0 -14 14 -14h614v-189h-805q-29 0 -29 30v668q0 30 29 30h782q30 0 30 -30v-189l-191 -71h-8v97q0 11 -10 11h-413q-8 0 -10.5 -4.5t-2.5 -9.5v-91h340v-148h-285zM527 778v148h164v-148h-164zM247 778v148h164v-148h-164z" />
    <glyph glyph-name="Igrave" unicode="&#xcc;" horiz-adv-x="299" 
d="M39 0zM46 0v728h206v-728h-206zM39 776v183h93l120 -175v-8h-213z" />
    <glyph glyph-name="Iacute" unicode="&#xcd;" horiz-adv-x="299" 
d="M46 0zM46 0v728h206v-728h-206zM46 776v8l119 175h94v-183h-213z" />
    <glyph glyph-name="Icircumflex" unicode="&#xce;" horiz-adv-x="348" 
d="M0 0zM70 0v728h206v-728h-206zM0 776v8l119 175h108l121 -175v-8h-348z" />
    <glyph glyph-name="Idieresis" unicode="&#xcf;" horiz-adv-x="444" 
d="M0 0zM118 0v728h206v-728h-206zM280 778v148h164v-148h-164zM0 778v148h164v-148h-164z" />
    <glyph glyph-name="Eth" unicode="&#xd0;" horiz-adv-x="972" 
d="M89 293h-29l-57 140v8h86v257q0 30 28 30h520q81 0 138 -20.5t92 -58t51 -91t16 -119.5v-150q0 -66 -16 -119.5t-51 -91t-92 -58t-138 -20.5h-269l-65 170h-8v-170h-206v293zM302 421h-7v-232h324q32 0 53 7.5t33.5 24t17.5 44t5 68.5v96q0 38 -7 61t-22 35.5t-37.5 16.5
t-52.5 4h-299q-7 0 -11 -4.5t-4 -10.5v-90h320v-148h-263z" />
    <glyph glyph-name="Ntilde" unicode="&#xd1;" horiz-adv-x="985" 
d="M46 0zM380 728q23 0 32.5 -7t17.5 -22l276 -523q7 -12 19 -12h11q16 0 16 16v548h187v-699q0 -29 -28 -29h-296q-21 0 -31.5 6t-19.5 23l-286 522q-6 12 -19 12h-10q-16 0 -16 -16v-547h-187v698q0 30 28 30h306zM289 802v100h407v-100h-407z" />
    <glyph glyph-name="Ograve" unicode="&#xd2;" horiz-adv-x="993" 
d="M37 0zM954 289q0 -66 -16 -119.5t-51 -91t-91.5 -58t-137.5 -20.5h-324q-81 0 -138 20.5t-92 58t-51 91t-16 119.5v150q0 66 16 119.5t51 91t92 58t138 20.5h324q81 0 137.5 -20.5t91.5 -58t51 -91t16 -119.5v-150zM243 307q0 -38 7.5 -61t24 -35.5t43 -17t65.5 -4.5h256
q33 0 54.5 7t33.5 23.5t16.5 44.5t4.5 69v96q0 67 -25 92t-84 25h-287q-33 0 -54.5 -7t-33.5 -23.5t-16.5 -44t-4.5 -68.5v-96zM370 776v183h93l120 -175v-8h-213z" />
    <glyph glyph-name="Oacute" unicode="&#xd3;" horiz-adv-x="993" 
d="M37 0zM954 289q0 -66 -16 -119.5t-51 -91t-91.5 -58t-137.5 -20.5h-324q-81 0 -138 20.5t-92 58t-51 91t-16 119.5v150q0 66 16 119.5t51 91t92 58t138 20.5h324q81 0 137.5 -20.5t91.5 -58t51 -91t16 -119.5v-150zM243 307q0 -38 7.5 -61t24 -35.5t43 -17t65.5 -4.5h256
q33 0 54.5 7t33.5 23.5t16.5 44.5t4.5 69v96q0 67 -25 92t-84 25h-287q-33 0 -54.5 -7t-33.5 -23.5t-16.5 -44t-4.5 -68.5v-96zM410 776v8l119 175h94v-183h-213z" />
    <glyph glyph-name="Ocircumflex" unicode="&#xd4;" horiz-adv-x="993" 
d="M37 0zM954 289q0 -66 -16 -119.5t-51 -91t-91.5 -58t-137.5 -20.5h-324q-81 0 -138 20.5t-92 58t-51 91t-16 119.5v150q0 66 16 119.5t51 91t92 58t138 20.5h324q81 0 137.5 -20.5t91.5 -58t51 -91t16 -119.5v-150zM243 307q0 -38 7.5 -61t24 -35.5t43 -17t65.5 -4.5h256
q33 0 54.5 7t33.5 23.5t16.5 44.5t4.5 69v96q0 67 -25 92t-84 25h-287q-33 0 -54.5 -7t-33.5 -23.5t-16.5 -44t-4.5 -68.5v-96zM322 776v8l119 175h108l121 -175v-8h-348z" />
    <glyph glyph-name="Otilde" unicode="&#xd5;" horiz-adv-x="993" 
d="M37 0zM954 289q0 -66 -16 -119.5t-51 -91t-91.5 -58t-137.5 -20.5h-324q-81 0 -138 20.5t-92 58t-51 91t-16 119.5v150q0 66 16 119.5t51 91t92 58t138 20.5h324q81 0 137.5 -20.5t91.5 -58t51 -91t16 -119.5v-150zM243 307q0 -38 7.5 -61t24 -35.5t43 -17t65.5 -4.5h256
q33 0 54.5 7t33.5 23.5t16.5 44.5t4.5 69v96q0 67 -25 92t-84 25h-287q-33 0 -54.5 -7t-33.5 -23.5t-16.5 -44t-4.5 -68.5v-96zM293 802v100h407v-100h-407z" />
    <glyph glyph-name="Odieresis" unicode="&#xd6;" horiz-adv-x="993" 
d="M37 0zM954 289q0 -66 -16 -119.5t-51 -91t-91.5 -58t-137.5 -20.5h-324q-81 0 -138 20.5t-92 58t-51 91t-16 119.5v150q0 66 16 119.5t51 91t92 58t138 20.5h324q81 0 137.5 -20.5t91.5 -58t51 -91t16 -119.5v-150zM243 307q0 -38 7.5 -61t24 -35.5t43 -17t65.5 -4.5h256
q33 0 54.5 7t33.5 23.5t16.5 44.5t4.5 69v96q0 67 -25 92t-84 25h-287q-33 0 -54.5 -7t-33.5 -23.5t-16.5 -44t-4.5 -68.5v-96zM554 778v148h164v-148h-164zM274 778v148h164v-148h-164z" />
    <glyph glyph-name="multiply" unicode="&#xd7;" 
d="M251 374l-162 162l74 73l163 -161l160 160l72 -72l-161 -161l162 -162l-73 -73l-162 161l-162 -161l-72 73z" />
    <glyph glyph-name="Oslash" unicode="&#xd8;" horiz-adv-x="993" 
d="M954 289q0 -66 -16 -119.5t-51 -91t-91.5 -58t-137.5 -20.5h-324q-64 0 -112 12l-70 -74h-115l103 110q-55 37 -79 98.5t-24 142.5v150q0 66 16 119.5t51 91t92 58t138 20.5h324q32 0 59.5 -3.5t51.5 -9.5l70 75h114l-103 -110q55 -37 79.5 -98.5t24.5 -142.5v-150z
M243 307q0 -45 10 -69t33 -35l323 343h-257q-33 0 -54.5 -7t-33.5 -23.5t-16.5 -44t-4.5 -68.5v-96zM748 429q0 79 -38 102l-322 -342h251q33 0 54.5 7t33.5 23.5t16.5 44.5t4.5 69v96z" />
    <glyph glyph-name="Ugrave" unicode="&#xd9;" horiz-adv-x="988" 
d="M42 0zM42 728h206v-427q0 -62 25.5 -87t82.5 -25h275q58 0 83.5 25.5t25.5 88.5v425h206v-439q0 -68 -16 -121.5t-51 -91t-91.5 -57t-138.5 -19.5h-311q-81 0 -137.5 19.5t-91.5 57t-51 91t-16 121.5v439zM367 776v183h93l120 -175v-8h-213z" />
    <glyph glyph-name="Uacute" unicode="&#xda;" horiz-adv-x="988" 
d="M42 0zM42 728h206v-427q0 -62 25.5 -87t82.5 -25h275q58 0 83.5 25.5t25.5 88.5v425h206v-439q0 -68 -16 -121.5t-51 -91t-91.5 -57t-138.5 -19.5h-311q-81 0 -137.5 19.5t-91.5 57t-51 91t-16 121.5v439zM407 776v8l119 175h94v-183h-213z" />
    <glyph glyph-name="Ucircumflex" unicode="&#xdb;" horiz-adv-x="988" 
d="M42 0zM42 728h206v-427q0 -62 25.5 -87t82.5 -25h275q58 0 83.5 25.5t25.5 88.5v425h206v-439q0 -68 -16 -121.5t-51 -91t-91.5 -57t-138.5 -19.5h-311q-81 0 -137.5 19.5t-91.5 57t-51 91t-16 121.5v439zM320 776v8l119 175h108l121 -175v-8h-348z" />
    <glyph glyph-name="Udieresis" unicode="&#xdc;" horiz-adv-x="988" 
d="M42 0zM42 728h206v-427q0 -62 25.5 -87t82.5 -25h275q58 0 83.5 25.5t25.5 88.5v425h206v-439q0 -68 -16 -121.5t-51 -91t-91.5 -57t-138.5 -19.5h-311q-81 0 -137.5 19.5t-91.5 57t-51 91t-16 121.5v439zM552 778v148h164v-148h-164zM272 778v148h164v-148h-164z" />
    <glyph glyph-name="Yacute" unicode="&#xdd;" horiz-adv-x="932" 
d="M7 0zM925 728v-8l-357 -438v-282h-206v286l-355 434v8h235l213 -266l3.5 -3.5t6.5 -1.5h7q6 0 10 5l209 266h234zM382 776v8l119 175h94v-183h-213z" />
    <glyph glyph-name="Thorn" unicode="&#xde;" horiz-adv-x="934" 
d="M46 728h206v-110h385q75 0 127 -18t84 -51t46.5 -79.5t14.5 -104.5v-53q0 -119 -60.5 -179.5t-197.5 -60.5h-330l-62 153h-7v-225h-206v728zM259 599h-7v-354h363q48 0 68 19t20 61v37q0 46 -20.5 65t-71.5 19h-284z" />
    <glyph glyph-name="germandbls" unicode="&#xdf;" horiz-adv-x="1050" 
d="M540 337q-61 5 -89.5 38.5t-28.5 95.5v134q0 25 -8.5 34t-31.5 9h-120q-22 0 -30.5 -9t-8.5 -34v-605h-181v621q0 42 8.5 72.5t28 49.5t51.5 28t79 9h224q47 0 79 -9t51.5 -28t28 -49.5t8.5 -73.5v-125q0 -23 20 -24l266 -25q37 -3 61 -12.5t38.5 -27t20 -43t5.5 -61.5
v-160q0 -35 -8 -61.5t-27 -44.5t-51 -27t-79 -9h-456v154h408q15 0 21 6t6 18v114q0 13 -5.5 19.5t-22.5 8.5z" />
    <glyph glyph-name="agrave" unicode="&#xe0;" horiz-adv-x="701" 
d="M30 0zM44 413v136h510q54 0 79.5 -30t25.5 -87v-408q0 -24 -23 -24h-479q-30 0 -53.5 7.5t-40 25.5t-25 47.5t-8.5 73.5v41q0 78 33.5 111.5t93.5 33.5h279l34 -81h7v111q0 23 -9.5 33t-28.5 10h-395zM466 136q11 0 11 12v84h-238q-18 0 -25.5 -9t-7.5 -27v-24
q0 -17 7.5 -26.5t25.5 -9.5h227zM231 597v183h93l120 -175v-8h-213z" />
    <glyph glyph-name="aacute" unicode="&#xe1;" horiz-adv-x="701" 
d="M30 0zM44 413v136h510q54 0 79.5 -30t25.5 -87v-408q0 -24 -23 -24h-479q-30 0 -53.5 7.5t-40 25.5t-25 47.5t-8.5 73.5v41q0 78 33.5 111.5t93.5 33.5h279l34 -81h7v111q0 23 -9.5 33t-28.5 10h-395zM466 136q11 0 11 12v84h-238q-18 0 -25.5 -9t-7.5 -27v-24
q0 -17 7.5 -26.5t25.5 -9.5h227zM270 597v8l119 175h94v-183h-213z" />
    <glyph glyph-name="acircumflex" unicode="&#xe2;" horiz-adv-x="701" 
d="M30 0zM44 413v136h510q54 0 79.5 -30t25.5 -87v-408q0 -24 -23 -24h-479q-30 0 -53.5 7.5t-40 25.5t-25 47.5t-8.5 73.5v41q0 78 33.5 111.5t93.5 33.5h279l34 -81h7v111q0 23 -9.5 33t-28.5 10h-395zM466 136q11 0 11 12v84h-238q-18 0 -25.5 -9t-7.5 -27v-24
q0 -17 7.5 -26.5t25.5 -9.5h227zM183 597v8l119 175h108l121 -175v-8h-348z" />
    <glyph glyph-name="atilde" unicode="&#xe3;" horiz-adv-x="701" 
d="M30 0zM44 413v136h510q54 0 79.5 -30t25.5 -87v-408q0 -24 -23 -24h-479q-30 0 -53.5 7.5t-40 25.5t-25 47.5t-8.5 73.5v41q0 78 33.5 111.5t93.5 33.5h279l34 -81h7v111q0 23 -9.5 33t-28.5 10h-395zM466 136q11 0 11 12v84h-238q-18 0 -25.5 -9t-7.5 -27v-24
q0 -17 7.5 -26.5t25.5 -9.5h227zM154 623v100h407v-100h-407z" />
    <glyph glyph-name="adieresis" unicode="&#xe4;" horiz-adv-x="701" 
d="M30 0zM44 413v136h510q54 0 79.5 -30t25.5 -87v-408q0 -24 -23 -24h-479q-30 0 -53.5 7.5t-40 25.5t-25 47.5t-8.5 73.5v41q0 78 33.5 111.5t93.5 33.5h279l34 -81h7v111q0 23 -9.5 33t-28.5 10h-395zM466 136q11 0 11 12v84h-238q-18 0 -25.5 -9t-7.5 -27v-24
q0 -17 7.5 -26.5t25.5 -9.5h227zM415 599v148h164v-148h-164zM135 599v148h164v-148h-164z" />
    <glyph glyph-name="aring" unicode="&#xe5;" horiz-adv-x="701" 
d="M30 0zM44 413v136h510q54 0 79.5 -30t25.5 -87v-408q0 -24 -23 -24h-479q-30 0 -53.5 7.5t-40 25.5t-25 47.5t-8.5 73.5v41q0 78 33.5 111.5t93.5 33.5h279l34 -81h7v111q0 23 -9.5 33t-28.5 10h-395zM466 136q11 0 11 12v84h-238q-18 0 -25.5 -9t-7.5 -27v-24
q0 -17 7.5 -26.5t25.5 -9.5h227zM312 565q-42 0 -67 23t-25 74v22q0 51 25 73.5t67 22.5h91q42 0 67 -22.5t25 -73.5v-22q0 -51 -25 -74t-67 -23h-91v0z" />
    <glyph glyph-name="ae" unicode="&#xe6;" horiz-adv-x="1166" 
d="M667 313h-7v-85q0 -47 16 -64.5t60 -17.5h391v-146h-970q-30 0 -53.5 7.5t-40 25.5t-25 47.5t-8.5 73.5v41q0 78 33.5 111.5t93.5 33.5h279l34 -81h7v111q0 23 -9.5 33t-28.5 10h-395v136h975q63 0 90 -32.5t27 -101.5v-53q0 -61 -27 -97t-90 -36h-321zM466 136
q11 0 11 12v84h-238q-18 0 -25.5 -9t-7.5 -27v-24q0 -17 7.5 -26.5t25.5 -9.5h227zM660 340h276q31 0 31 32v20q0 17 -7.5 24t-23.5 7h-200q-42 0 -59 -17.5t-17 -62.5v-3z" />
    <glyph glyph-name="ccedilla" unicode="&#xe7;" horiz-adv-x="729" 
d="M37 0zM535 319h-9v75q0 11 -9 11h-222q-43 0 -59.5 -18.5t-16.5 -67.5v-77q0 -47 16.5 -64t59.5 -17h391v-161h-425q-61 0 -103.5 15.5t-69.5 44t-39 68.5t-12 90v113q0 49 12 89.5t39 69t69.5 44t103.5 15.5h407q27 0 27 -27v-142zM235 -225v9l118 174h93v-183h-211z
" />
    <glyph glyph-name="egrave" unicode="&#xe8;" horiz-adv-x="726" 
d="M37 0zM226 313h-7v-85q0 -47 16 -64.5t60 -17.5h391v-146h-425q-61 0 -103.5 15.5t-69.5 44t-39 68.5t-12 90v113q0 50 12 90t39 68.5t69.5 44t103.5 15.5h317q63 0 90 -32.5t27 -101.5v-53q0 -61 -27 -97t-90 -36h-321zM219 340h276q31 0 31 32v20q0 17 -7.5 24t-23.5 7
h-200q-42 0 -59 -17.5t-17 -62.5v-3zM266 597v183h93l120 -175v-8h-213z" />
    <glyph glyph-name="eacute" unicode="&#xe9;" horiz-adv-x="726" 
d="M37 0zM226 313h-7v-85q0 -47 16 -64.5t60 -17.5h391v-146h-425q-61 0 -103.5 15.5t-69.5 44t-39 68.5t-12 90v113q0 50 12 90t39 68.5t69.5 44t103.5 15.5h317q63 0 90 -32.5t27 -101.5v-53q0 -61 -27 -97t-90 -36h-321zM219 340h276q31 0 31 32v20q0 17 -7.5 24t-23.5 7
h-200q-42 0 -59 -17.5t-17 -62.5v-3zM295 597v8l119 175h94v-183h-213z" />
    <glyph glyph-name="ecircumflex" unicode="&#xea;" horiz-adv-x="726" 
d="M37 0zM226 313h-7v-85q0 -47 16 -64.5t60 -17.5h391v-146h-425q-61 0 -103.5 15.5t-69.5 44t-39 68.5t-12 90v113q0 50 12 90t39 68.5t69.5 44t103.5 15.5h317q63 0 90 -32.5t27 -101.5v-53q0 -61 -27 -97t-90 -36h-321zM219 340h276q31 0 31 32v20q0 17 -7.5 24t-23.5 7
h-200q-42 0 -59 -17.5t-17 -62.5v-3zM217 597v8l119 175h108l121 -175v-8h-348z" />
    <glyph glyph-name="edieresis" unicode="&#xeb;" horiz-adv-x="726" 
d="M37 0zM226 313h-7v-85q0 -47 16 -64.5t60 -17.5h391v-146h-425q-61 0 -103.5 15.5t-69.5 44t-39 68.5t-12 90v113q0 50 12 90t39 68.5t69.5 44t103.5 15.5h317q63 0 90 -32.5t27 -101.5v-53q0 -61 -27 -97t-90 -36h-321zM219 340h276q31 0 31 32v20q0 17 -7.5 24t-23.5 7
h-200q-42 0 -59 -17.5t-17 -62.5v-3zM451 599v148h164v-148h-164zM171 599v148h164v-148h-164z" />
    <glyph glyph-name="igrave" unicode="&#xec;" horiz-adv-x="280" 
d="M20 0zM52 0v549h181v-549h-181zM20 597v183h93l120 -175v-8h-213z" />
    <glyph glyph-name="iacute" unicode="&#xed;" horiz-adv-x="278" 
d="M46 0zM46 0v549h181v-549h-181zM46 597v8l119 175h94v-183h-213z" />
    <glyph glyph-name="icircumflex" unicode="&#xee;" horiz-adv-x="348" 
d="M0 0zM83 0v549h181v-549h-181zM0 597v8l119 175h108l121 -175v-8h-348z" />
    <glyph glyph-name="idieresis" unicode="&#xef;" horiz-adv-x="444" 
d="M0 0zM131 0v549h181v-549h-181zM280 599v148h164v-148h-164zM0 599v148h164v-148h-164z" />
    <glyph glyph-name="eth" unicode="&#xf0;" horiz-adv-x="749" 
d="M482 520l40 -113h7v191q0 26 -8 38t-37 12h-177l-55 124v8h284q51 0 84.5 -9t53.5 -28.5t28.5 -51t8.5 -76.5v-397q0 -50 -12 -90t-39 -68.5t-69.5 -44t-103.5 -15.5h-226q-61 0 -103.5 15.5t-69.5 44t-39 68.5t-12 90v82q0 50 12 90.5t39 69.5t69.5 44.5t103.5 15.5h221
zM445 161q48 0 66 18.5t18 62.5v142h-226q-48 0 -66 -21t-18 -68v-53q0 -42 18 -61.5t66 -19.5h142z" />
    <glyph glyph-name="ntilde" unicode="&#xf1;" horiz-adv-x="761" 
d="M46 0zM46 549h448q61 0 104 -15.5t69.5 -44t38.5 -68.5t12 -90v-331h-181v319q0 48 -18 67t-59 19h-196l-30 80h-7v-485h-181v549zM173 623v100h407v-100h-407z" />
    <glyph glyph-name="ograve" unicode="&#xf2;" horiz-adv-x="788" 
d="M37 0zM750 218q0 -50 -12 -90t-39 -68.5t-70 -44t-104 -15.5h-264q-61 0 -103.5 15.5t-69.5 44t-39 68.5t-12 90v113q0 49 12 89.5t39 69t69.5 44t103.5 15.5h264q61 0 104 -15.5t70 -44t39 -69t12 -89.5v-113zM492 161q43 0 60 17t17 64v77q0 50 -17.5 68t-59.5 18h-197
q-43 0 -59.5 -18.5t-16.5 -67.5v-77q0 -47 16.5 -64t59.5 -17h197zM267 597v183h93l120 -175v-8h-213z" />
    <glyph glyph-name="oacute" unicode="&#xf3;" horiz-adv-x="788" 
d="M37 0zM750 218q0 -50 -12 -90t-39 -68.5t-70 -44t-104 -15.5h-264q-61 0 -103.5 15.5t-69.5 44t-39 68.5t-12 90v113q0 49 12 89.5t39 69t69.5 44t103.5 15.5h264q61 0 104 -15.5t70 -44t39 -69t12 -89.5v-113zM492 161q43 0 60 17t17 64v77q0 50 -17.5 68t-59.5 18h-197
q-43 0 -59.5 -18.5t-16.5 -67.5v-77q0 -47 16.5 -64t59.5 -17h197zM307 597v8l119 175h94v-183h-213z" />
    <glyph glyph-name="ocircumflex" unicode="&#xf4;" horiz-adv-x="788" 
d="M37 0zM750 218q0 -50 -12 -90t-39 -68.5t-70 -44t-104 -15.5h-264q-61 0 -103.5 15.5t-69.5 44t-39 68.5t-12 90v113q0 49 12 89.5t39 69t69.5 44t103.5 15.5h264q61 0 104 -15.5t70 -44t39 -69t12 -89.5v-113zM492 161q43 0 60 17t17 64v77q0 50 -17.5 68t-59.5 18h-197
q-43 0 -59.5 -18.5t-16.5 -67.5v-77q0 -47 16.5 -64t59.5 -17h197zM220 597v8l119 175h108l121 -175v-8h-348z" />
    <glyph glyph-name="otilde" unicode="&#xf5;" horiz-adv-x="788" 
d="M37 0zM750 218q0 -50 -12 -90t-39 -68.5t-70 -44t-104 -15.5h-264q-61 0 -103.5 15.5t-69.5 44t-39 68.5t-12 90v113q0 49 12 89.5t39 69t69.5 44t103.5 15.5h264q61 0 104 -15.5t70 -44t39 -69t12 -89.5v-113zM492 161q43 0 60 17t17 64v77q0 50 -17.5 68t-59.5 18h-197
q-43 0 -59.5 -18.5t-16.5 -67.5v-77q0 -47 16.5 -64t59.5 -17h197zM190 623v100h407v-100h-407z" />
    <glyph glyph-name="odieresis" unicode="&#xf6;" horiz-adv-x="788" 
d="M37 0zM750 218q0 -50 -12 -90t-39 -68.5t-70 -44t-104 -15.5h-264q-61 0 -103.5 15.5t-69.5 44t-39 68.5t-12 90v113q0 49 12 89.5t39 69t69.5 44t103.5 15.5h264q61 0 104 -15.5t70 -44t39 -69t12 -89.5v-113zM492 161q43 0 60 17t17 64v77q0 50 -17.5 68t-59.5 18h-197
q-43 0 -59.5 -18.5t-16.5 -67.5v-77q0 -47 16.5 -64t59.5 -17h197zM452 599v148h164v-148h-164zM172 599v148h164v-148h-164z" />
    <glyph glyph-name="divide" unicode="&#xf7;" 
d="M46 324v103h558v-103h-558zM234 517v166h181v-166h-181zM234 68v166h181v-166h-181z" />
    <glyph glyph-name="oslash" unicode="&#xf8;" horiz-adv-x="789" 
d="M750 218q0 -50 -12 -90t-39 -68.5t-70 -44t-104 -15.5h-264q-29 0 -51 3l-58 -65h-115l84 94q-45 28 -64.5 75t-19.5 111v113q0 49 12 89.5t39 69t69.5 44t103.5 15.5h264q14 0 27 -1t25 -3l59 67h114l-85 -96q45 -27 65 -74.5t20 -110.5v-113zM219 242q0 -56 25 -71
l208 234h-157q-43 0 -59.5 -18.5t-16.5 -67.5v-77zM569 319q0 49 -19 68l-200 -226h142q43 0 60 17t17 64v77z" />
    <glyph glyph-name="ugrave" unicode="&#xf9;" horiz-adv-x="790" 
d="M46 0zM46 549h181v-307q0 -46 19 -63.5t65 -17.5h165q48 0 67 18.5t19 62.5v307h181v-331q0 -50 -12 -90t-38.5 -68.5t-69.5 -44t-105 -15.5h-249q-61 0 -103.5 15.5t-69 44t-38.5 68.5t-12 90v331zM268 597v183h93l120 -175v-8h-213z" />
    <glyph glyph-name="uacute" unicode="&#xfa;" horiz-adv-x="790" 
d="M46 0zM46 549h181v-307q0 -46 19 -63.5t65 -17.5h165q48 0 67 18.5t19 62.5v307h181v-331q0 -50 -12 -90t-38.5 -68.5t-69.5 -44t-105 -15.5h-249q-61 0 -103.5 15.5t-69 44t-38.5 68.5t-12 90v331zM308 597v8l119 175h94v-183h-213z" />
    <glyph glyph-name="ucircumflex" unicode="&#xfb;" horiz-adv-x="790" 
d="M46 0zM46 549h181v-307q0 -46 19 -63.5t65 -17.5h165q48 0 67 18.5t19 62.5v307h181v-331q0 -50 -12 -90t-38.5 -68.5t-69.5 -44t-105 -15.5h-249q-61 0 -103.5 15.5t-69 44t-38.5 68.5t-12 90v331zM221 597v8l119 175h108l121 -175v-8h-348z" />
    <glyph glyph-name="udieresis" unicode="&#xfc;" horiz-adv-x="790" 
d="M46 0zM46 549h181v-307q0 -46 19 -63.5t65 -17.5h165q48 0 67 18.5t19 62.5v307h181v-331q0 -50 -12 -90t-38.5 -68.5t-69.5 -44t-105 -15.5h-249q-61 0 -103.5 15.5t-69 44t-38.5 68.5t-12 90v331zM453 599v148h164v-148h-164zM173 599v148h164v-148h-164z" />
    <glyph glyph-name="yacute" unicode="&#xfd;" horiz-adv-x="753" 
d="M39 0zM516 65h7v484h182v-560q0 -48 -11.5 -87.5t-37.5 -67.5t-69 -43.5t-106 -15.5h-417v153h389q39 0 54.5 17.5t15.5 55.5v44h-259q-123 0 -174 49.5t-51 150.5v304h182v-280q0 -45 17 -61.5t60 -16.5h169zM291 597v8l119 175h94v-183h-213z" />
    <glyph glyph-name="thorn" unicode="&#xfe;" horiz-adv-x="756" 
d="M46 780h181v-231h267q61 0 104 -15.5t69.5 -44t38.5 -69t12 -89.5v-113q0 -50 -12 -90t-38.5 -68.5t-69.5 -44t-104 -15.5h-204l-55 140h-7v-365h-182v1005zM227 405v-244h233q43 0 60 17t17 64v77q0 49 -17 67.5t-60 18.5h-233z" />
    <glyph glyph-name="ydieresis" unicode="&#xff;" horiz-adv-x="753" 
d="M39 0zM516 65h7v484h182v-560q0 -48 -11.5 -87.5t-37.5 -67.5t-69 -43.5t-106 -15.5h-417v153h389q39 0 54.5 17.5t15.5 55.5v44h-259q-123 0 -174 49.5t-51 150.5v304h182v-280q0 -45 17 -61.5t60 -16.5h169zM434 599v148h164v-148h-164zM154 599v148h164v-148h-164z
" />
    <glyph glyph-name="Amacron" unicode="&#x100;" horiz-adv-x="1082" 
d="M13 0zM251 0h-238v8l365 696q7 14 14 19t24 5h251q17 0 24.5 -5t15.5 -19l362 -696v-8h-623l-60 158v20h204h55.5t41.5 -0.5t32 -1.5t27 -2l3 7q-6 11 -12.5 21.5t-14.5 25.5t-19 36t-27 53l-115 230q-4 7 -14 7h-12q-9 0 -13 -7zM337 802v100h407v-100h-407z" />
    <glyph glyph-name="amacron" unicode="&#x101;" horiz-adv-x="701" 
d="M30 0zM44 413v136h510q54 0 79.5 -30t25.5 -87v-408q0 -24 -23 -24h-479q-30 0 -53.5 7.5t-40 25.5t-25 47.5t-8.5 73.5v41q0 78 33.5 111.5t93.5 33.5h279l34 -81h7v111q0 23 -9.5 33t-28.5 10h-395zM466 136q11 0 11 12v84h-238q-18 0 -25.5 -9t-7.5 -27v-24
q0 -17 7.5 -26.5t25.5 -9.5h227zM154 623v100h407v-100h-407z" />
    <glyph glyph-name="Abreve" unicode="&#x102;" horiz-adv-x="1082" 
d="M13 0zM251 0h-238v8l365 696q7 14 14 19t24 5h251q17 0 24.5 -5t15.5 -19l362 -696v-8h-623l-60 158v20h204h55.5t41.5 -0.5t32 -1.5t27 -2l3 7q-6 11 -12.5 21.5t-14.5 25.5t-19 36t-27 53l-115 230q-4 7 -14 7h-12q-9 0 -13 -7zM711 959v-64q0 -64 -33.5 -94t-86.5 -30
h-103q-52 0 -85 30t-33 94v64h341z" />
    <glyph glyph-name="abreve" unicode="&#x103;" horiz-adv-x="701" 
d="M30 0zM44 413v136h510q54 0 79.5 -30t25.5 -87v-408q0 -24 -23 -24h-479q-30 0 -53.5 7.5t-40 25.5t-25 47.5t-8.5 73.5v41q0 78 33.5 111.5t93.5 33.5h279l34 -81h7v111q0 23 -9.5 33t-28.5 10h-395zM466 136q11 0 11 12v84h-238q-18 0 -25.5 -9t-7.5 -27v-24
q0 -17 7.5 -26.5t25.5 -9.5h227zM528 780v-64q0 -64 -33.5 -94t-86.5 -30h-103q-52 0 -85 30t-33 94v64h341z" />
    <glyph glyph-name="Aogonek" unicode="&#x104;" horiz-adv-x="1082" 
d="M13 0zM251 0h-238v8l365 696q7 14 14 19t24 5h251q17 0 24.5 -5t15.5 -19l362 -696v-8h-623l-60 158v20h204h55.5t41.5 -0.5t32 -1.5t27 -2l3 7q-6 11 -12.5 21.5t-14.5 25.5t-19 36t-27 53l-115 230q-4 7 -14 7h-12q-9 0 -13 -7zM904 -225q-51 0 -78 29t-27 86v70h164
v-25q0 -7 7 -7h99v-153h-165z" />
    <glyph glyph-name="aogonek" unicode="&#x105;" horiz-adv-x="701" 
d="M30 0zM44 413v136h510q54 0 79.5 -30t25.5 -87v-408q0 -24 -23 -24h-479q-30 0 -53.5 7.5t-40 25.5t-25 47.5t-8.5 73.5v41q0 78 33.5 111.5t93.5 33.5h279l34 -81h7v111q0 23 -9.5 33t-28.5 10h-395zM466 136q11 0 11 12v84h-238q-18 0 -25.5 -9t-7.5 -27v-24
q0 -17 7.5 -26.5t25.5 -9.5h227zM494 -225q-51 0 -78 29t-27 86v70h164v-25q0 -7 7 -7h99v-153h-165z" />
    <glyph glyph-name="Cacute" unicode="&#x106;" horiz-adv-x="943" 
d="M37 0zM717 438h-8v98q0 10 -9 10h-348q-60 0 -84.5 -25t-24.5 -92v-122q0 -65 24 -91.5t85 -26.5h545v-189h-563q-81 0 -138 20.5t-92 58t-51 91t-16 119.5v150q0 66 16 119.5t51 91t92 58t138 20.5h545q29 0 29 -30v-189zM415 776v8l119 175h94v-183h-213z" />
    <glyph glyph-name="cacute" unicode="&#x107;" horiz-adv-x="729" 
d="M37 0zM535 319h-9v75q0 11 -9 11h-222q-43 0 -59.5 -18.5t-16.5 -67.5v-77q0 -47 16.5 -64t59.5 -17h391v-161h-425q-61 0 -103.5 15.5t-69.5 44t-39 68.5t-12 90v113q0 49 12 89.5t39 69t69.5 44t103.5 15.5h407q27 0 27 -27v-142zM297 597v8l119 175h94v-183h-213z" />
    <glyph glyph-name="Cdotaccent" unicode="&#x10a;" horiz-adv-x="943" 
d="M37 0zM717 438h-8v98q0 10 -9 10h-348q-60 0 -84.5 -25t-24.5 -92v-122q0 -65 24 -91.5t85 -26.5h545v-189h-563q-81 0 -138 20.5t-92 58t-51 91t-16 119.5v150q0 66 16 119.5t51 91t92 58t138 20.5h545q29 0 29 -30v-189zM432 778v148h164v-148h-164z" />
    <glyph glyph-name="cdotaccent" unicode="&#x10b;" horiz-adv-x="729" 
d="M37 0zM535 319h-9v75q0 11 -9 11h-222q-43 0 -59.5 -18.5t-16.5 -67.5v-77q0 -47 16.5 -64t59.5 -17h391v-161h-425q-61 0 -103.5 15.5t-69.5 44t-39 68.5t-12 90v113q0 49 12 89.5t39 69t69.5 44t103.5 15.5h407q27 0 27 -27v-142zM312 599v148h164v-148h-164z" />
    <glyph glyph-name="Ccaron" unicode="&#x10c;" horiz-adv-x="943" 
d="M37 0zM717 438h-8v98q0 10 -9 10h-348q-60 0 -84.5 -25t-24.5 -92v-122q0 -65 24 -91.5t85 -26.5h545v-189h-563q-81 0 -138 20.5t-92 58t-51 91t-16 119.5v150q0 66 16 119.5t51 91t92 58t138 20.5h545q29 0 29 -30v-189zM677 959v-8l-121 -175h-108l-119 175v8h348z
" />
    <glyph glyph-name="ccaron" unicode="&#x10d;" horiz-adv-x="729" 
d="M37 0zM535 319h-9v75q0 11 -9 11h-222q-43 0 -59.5 -18.5t-16.5 -67.5v-77q0 -47 16.5 -64t59.5 -17h391v-161h-425q-61 0 -103.5 15.5t-69.5 44t-39 68.5t-12 90v113q0 49 12 89.5t39 69t69.5 44t103.5 15.5h407q27 0 27 -27v-142zM566 780v-8l-121 -175h-108l-119 175
v8h348z" />
    <glyph glyph-name="Dcaron" unicode="&#x10e;" horiz-adv-x="954" 
d="M46 0zM46 698q0 30 28 30h546q81 0 138 -20.5t92 -58t51 -91t16 -119.5v-150q0 -66 -16 -119.5t-51 -91t-92 -58t-138 -20.5h-294l-66 170h-8v-170h-206v698zM252 189h349q59 0 84 26t25 92v122q0 68 -25 92.5t-84 24.5h-334q-7 0 -11 -4.5t-4 -10.5v-342zM629 959v-8
l-121 -175h-108l-119 175v8h348z" />
    <glyph glyph-name="dcaron" unicode="&#x10f;" horiz-adv-x="940" 
d="M37 0zM260 0q-61 0 -103.5 15.5t-69 44t-38.5 68.5t-12 90v113q0 49 12 89.5t38.5 69t69 44t103.5 15.5h268v231h181v-780h-449zM466 161l54 -141h8v385h-234q-23 0 -37.5 -5t-23 -17.5t-12 -32.5t-3.5 -50v-58q0 -47 17 -64t59 -17h172zM729 597v9l118 174h93v-183h-211
z" />
    <glyph glyph-name="Dcroat" unicode="&#x110;" horiz-adv-x="972" 
d="M3 0zM89 293h-29l-57 140v8h86v257q0 30 28 30h520q81 0 138 -20.5t92 -58t51 -91t16 -119.5v-150q0 -66 -16 -119.5t-51 -91t-92 -58t-138 -20.5h-269l-65 170h-8v-170h-206v293zM302 421h-7v-232h324q32 0 53 7.5t33.5 24t17.5 44t5 68.5v96q0 38 -7 61t-22 35.5
t-37.5 16.5t-52.5 4h-299q-7 0 -11 -4.5t-4 -10.5v-90h320v-148h-263z" />
    <glyph glyph-name="dmacron" unicode="&#x111;" horiz-adv-x="756" 
d="M260 0q-61 0 -103.5 15.5t-69 44t-38.5 68.5t-12 90v113q0 49 12 89.5t38.5 69t69 44t103.5 15.5h268v74h-226v100h226v57h181v-780h-449zM466 161l54 -141h8v385h-234q-23 0 -37.5 -5t-23 -17.5t-12 -32.5t-3.5 -50v-58q0 -47 17 -64t59 -17h172z" />
    <glyph glyph-name="Emacron" unicode="&#x112;" horiz-adv-x="923" 
d="M46 0zM259 421h-7v-218q0 -14 14 -14h614v-189h-805q-29 0 -29 30v668q0 30 29 30h782q30 0 30 -30v-189l-191 -71h-8v97q0 11 -10 11h-413q-8 0 -10.5 -4.5t-2.5 -9.5v-91h340v-148h-285zM267 802v100h407v-100h-407z" />
    <glyph glyph-name="emacron" unicode="&#x113;" horiz-adv-x="726" 
d="M37 0zM226 313h-7v-85q0 -47 16 -64.5t60 -17.5h391v-146h-425q-61 0 -103.5 15.5t-69.5 44t-39 68.5t-12 90v113q0 50 12 90t39 68.5t69.5 44t103.5 15.5h317q63 0 90 -32.5t27 -101.5v-53q0 -61 -27 -97t-90 -36h-321zM219 340h276q31 0 31 32v20q0 17 -7.5 24t-23.5 7
h-200q-42 0 -59 -17.5t-17 -62.5v-3zM166 623v100h407v-100h-407z" />
    <glyph glyph-name="Ebreve" unicode="&#x114;" horiz-adv-x="923" 
d="M46 0zM259 421h-7v-218q0 -14 14 -14h614v-189h-805q-29 0 -29 30v668q0 30 29 30h782q30 0 30 -30v-189l-191 -71h-8v97q0 11 -10 11h-413q-8 0 -10.5 -4.5t-2.5 -9.5v-91h340v-148h-285zM646 959v-64q0 -64 -33.5 -94t-86.5 -30h-103q-52 0 -85 30t-33 94v64h341z" />
    <glyph glyph-name="ebreve" unicode="&#x115;" horiz-adv-x="726" 
d="M37 0zM226 313h-7v-85q0 -47 16 -64.5t60 -17.5h391v-146h-425q-61 0 -103.5 15.5t-69.5 44t-39 68.5t-12 90v113q0 50 12 90t39 68.5t69.5 44t103.5 15.5h317q63 0 90 -32.5t27 -101.5v-53q0 -61 -27 -97t-90 -36h-321zM219 340h276q31 0 31 32v20q0 17 -7.5 24t-23.5 7
h-200q-42 0 -59 -17.5t-17 -62.5v-3zM549 780v-64q0 -64 -33.5 -94t-86.5 -30h-103q-52 0 -85 30t-33 94v64h341z" />
    <glyph glyph-name="Edotaccent" unicode="&#x116;" horiz-adv-x="923" 
d="M46 0zM259 421h-7v-218q0 -14 14 -14h614v-189h-805q-29 0 -29 30v668q0 30 29 30h782q30 0 30 -30v-189l-191 -71h-8v97q0 11 -10 11h-413q-8 0 -10.5 -4.5t-2.5 -9.5v-91h340v-148h-285zM386 778v148h164v-148h-164z" />
    <glyph glyph-name="edotaccent" unicode="&#x117;" horiz-adv-x="726" 
d="M37 0zM226 313h-7v-85q0 -47 16 -64.5t60 -17.5h391v-146h-425q-61 0 -103.5 15.5t-69.5 44t-39 68.5t-12 90v113q0 50 12 90t39 68.5t69.5 44t103.5 15.5h317q63 0 90 -32.5t27 -101.5v-53q0 -61 -27 -97t-90 -36h-321zM219 340h276q31 0 31 32v20q0 17 -7.5 24t-23.5 7
h-200q-42 0 -59 -17.5t-17 -62.5v-3zM294 599v148h164v-148h-164z" />
    <glyph glyph-name="Eogonek" unicode="&#x118;" horiz-adv-x="923" 
d="M46 0zM259 421h-7v-218q0 -14 14 -14h614v-189h-805q-29 0 -29 30v668q0 30 29 30h782q30 0 30 -30v-189l-191 -71h-8v97q0 11 -10 11h-413q-8 0 -10.5 -4.5t-2.5 -9.5v-91h340v-148h-285zM715 -225q-51 0 -78 29t-27 86v70h164v-25q0 -7 7 -7h99v-153h-165z" />
    <glyph glyph-name="eogonek" unicode="&#x119;" horiz-adv-x="726" 
d="M37 0zM226 313h-7v-85q0 -47 16 -64.5t60 -17.5h391v-146h-425q-61 0 -103.5 15.5t-69.5 44t-39 68.5t-12 90v113q0 50 12 90t39 68.5t69.5 44t103.5 15.5h317q63 0 90 -32.5t27 -101.5v-53q0 -61 -27 -97t-90 -36h-321zM219 340h276q31 0 31 32v20q0 17 -7.5 24t-23.5 7
h-200q-42 0 -59 -17.5t-17 -62.5v-3zM521 -225q-51 0 -78 29t-27 86v70h164v-25q0 -7 7 -7h99v-153h-165z" />
    <glyph glyph-name="Ecaron" unicode="&#x11a;" horiz-adv-x="923" 
d="M46 0zM259 421h-7v-218q0 -14 14 -14h614v-189h-805q-29 0 -29 30v668q0 30 29 30h782q30 0 30 -30v-189l-191 -71h-8v97q0 11 -10 11h-413q-8 0 -10.5 -4.5t-2.5 -9.5v-91h340v-148h-285zM651 959v-8l-121 -175h-108l-119 175v8h348z" />
    <glyph glyph-name="ecaron" unicode="&#x11b;" horiz-adv-x="726" 
d="M37 0zM226 313h-7v-85q0 -47 16 -64.5t60 -17.5h391v-146h-425q-61 0 -103.5 15.5t-69.5 44t-39 68.5t-12 90v113q0 50 12 90t39 68.5t69.5 44t103.5 15.5h317q63 0 90 -32.5t27 -101.5v-53q0 -61 -27 -97t-90 -36h-321zM219 340h276q31 0 31 32v20q0 17 -7.5 24t-23.5 7
h-200q-42 0 -59 -17.5t-17 -62.5v-3zM554 780v-8l-121 -175h-108l-119 175v8h348z" />
    <glyph glyph-name="Gbreve" unicode="&#x11e;" horiz-adv-x="952" 
d="M37 0zM708 312q0 16 -1.5 33.5t-3.5 30.5v9h204v-357q0 -28 -25 -28h-548q-81 0 -138 20.5t-92 58t-51 91t-16 119.5v150q0 66 16 119.5t51 91t92 58t138 20.5h545q29 0 29 -30v-157l-191 -70h-8v70q0 10 -9 10h-348q-30 0 -50.5 -5.5t-33.5 -19t-19 -36t-6 -55.5v-128
q0 -66 25 -92t84 -26h345q11 0 11 12v111zM654 959v-64q0 -64 -33.5 -94t-86.5 -30h-103q-52 0 -85 30t-33 94v64h341z" />
    <glyph glyph-name="gbreve" unicode="&#x11f;" horiz-adv-x="755" 
d="M34 0zM59 -72h397q39 0 54.5 17.5t15.5 55.5v44h-267q-123 0 -174 49.5t-51 150.5v86q0 50 12 90t39 68.5t69.5 44t104.5 15.5h399q50 0 50 -50v-510q0 -48 -11.5 -87.5t-37.5 -67.5t-69 -43.5t-106 -15.5h-425v153zM519 65h7v323q0 17 -17 17h-216q-42 0 -60 -18.5
t-18 -66.5v-51q0 -45 17.5 -61.5t60.5 -16.5h177zM552 780v-64q0 -64 -33.5 -94t-86.5 -30h-103q-52 0 -85 30t-33 94v64h341z" />
    <glyph glyph-name="Gdotaccent" unicode="&#x120;" horiz-adv-x="952" 
d="M37 0zM708 312q0 16 -1.5 33.5t-3.5 30.5v9h204v-357q0 -28 -25 -28h-548q-81 0 -138 20.5t-92 58t-51 91t-16 119.5v150q0 66 16 119.5t51 91t92 58t138 20.5h545q29 0 29 -30v-157l-191 -70h-8v70q0 10 -9 10h-348q-30 0 -50.5 -5.5t-33.5 -19t-19 -36t-6 -55.5v-128
q0 -66 25 -92t84 -26h345q11 0 11 12v111zM399 778v148h164v-148h-164z" />
    <glyph glyph-name="gdotaccent" unicode="&#x121;" horiz-adv-x="755" 
d="M34 0zM59 -72h397q39 0 54.5 17.5t15.5 55.5v44h-267q-123 0 -174 49.5t-51 150.5v86q0 50 12 90t39 68.5t69.5 44t104.5 15.5h399q50 0 50 -50v-510q0 -48 -11.5 -87.5t-37.5 -67.5t-69 -43.5t-106 -15.5h-425v153zM519 65h7v323q0 17 -17 17h-216q-42 0 -60 -18.5
t-18 -66.5v-51q0 -45 17.5 -61.5t60.5 -16.5h177zM298 599v148h164v-148h-164z" />
    <glyph glyph-name="Gcommaaccent" unicode="&#x122;" horiz-adv-x="952" 
d="M37 0zM708 312q0 16 -1.5 33.5t-3.5 30.5v9h204v-357q0 -28 -25 -28h-548q-81 0 -138 20.5t-92 58t-51 91t-16 119.5v150q0 66 16 119.5t51 91t92 58t138 20.5h545q29 0 29 -30v-157l-191 -70h-8v70q0 10 -9 10h-348q-30 0 -50.5 -5.5t-33.5 -19t-19 -36t-6 -55.5v-128
q0 -66 25 -92t84 -26h345q11 0 11 12v111zM346 -225v9l118 174h93v-183h-211z" />
    <glyph glyph-name="gcommaaccent" unicode="&#x123;" horiz-adv-x="755" 
d="M34 0zM59 -72h397q39 0 54.5 17.5t15.5 55.5v44h-267q-123 0 -174 49.5t-51 150.5v86q0 50 12 90t39 68.5t69.5 44t104.5 15.5h399q50 0 50 -50v-510q0 -48 -11.5 -87.5t-37.5 -67.5t-69 -43.5t-106 -15.5h-425v153zM519 65h7v323q0 17 -17 17h-216q-42 0 -60 -18.5
t-18 -66.5v-51q0 -45 17.5 -61.5t60.5 -16.5h177zM292 597v9l118 174h93v-183h-211z" />
    <glyph glyph-name="Hbar" unicode="&#x126;" horiz-adv-x="992" 
d="M259 390h-7v-390h-206v728h206v-104h486v104h207v-728h-207v232h-418zM738 410v114h-486v-114h486z" />
    <glyph glyph-name="hbar" unicode="&#x127;" horiz-adv-x="761" 
d="M227 623v-74h267q61 0 104 -15.5t69.5 -44t38.5 -68.5t12 -90v-331h-181v319q0 48 -19.5 67t-57.5 19h-196l-30 80h-7v-485h-181v780h181v-57h226v-100h-226z" />
    <glyph glyph-name="Imacron" unicode="&#x12a;" horiz-adv-x="407" 
d="M0 0zM100 0v728h206v-728h-206zM0 802v100h407v-100h-407z" />
    <glyph glyph-name="imacron" unicode="&#x12b;" horiz-adv-x="407" 
d="M0 0zM112 0v549h181v-549h-181zM0 623v100h407v-100h-407z" />
    <glyph glyph-name="Ibreve" unicode="&#x12c;" horiz-adv-x="341" 
d="M0 0zM67 0v728h206v-728h-206zM341 959v-64q0 -64 -33.5 -94t-86.5 -30h-103q-52 0 -85 30t-33 94v64h341z" />
    <glyph glyph-name="ibreve" unicode="&#x12d;" horiz-adv-x="341" 
d="M0 0zM79 0v549h181v-549h-181zM341 780v-64q0 -64 -33.5 -94t-86.5 -30h-103q-52 0 -85 30t-33 94v64h341z" />
    <glyph glyph-name="Iogonek" unicode="&#x12e;" horiz-adv-x="316" 
d="M46 0zM46 0v728h206v-728h-206zM151 -225q-51 0 -78 29t-27 86v70h164v-25q0 -7 7 -7h99v-153h-165z" />
    <glyph glyph-name="iogonek" unicode="&#x12f;" horiz-adv-x="317" 
d="M46 0zM46 0v549h181v-549h-181zM46 635v145h181v-145h-181zM151 -225q-51 0 -78 29t-27 86v70h164v-25q0 -7 7 -7h99v-153h-165z" />
    <glyph glyph-name="Idotaccent" unicode="&#x130;" horiz-adv-x="299" 
d="M46 0zM46 0v728h206v-728h-206zM67 778v148h164v-148h-164z" />
    <glyph glyph-name="dotlessi" unicode="&#x131;" horiz-adv-x="274" 
d="M46 0v549h181v-549h-181z" />
    <glyph glyph-name="IJ" unicode="&#x132;" horiz-adv-x="1056" 
d="M46 0zM46 0v728h206v-728h-206zM314 190h385q58 0 83.5 25.5t25.5 88.5v424h206v-439q0 -66 -15.5 -119.5t-51 -91t-92 -58t-137.5 -20.5h-404v190z" />
    <glyph glyph-name="ij" unicode="&#x133;" horiz-adv-x="540" 
d="M46 -225v153h208q29 0 42 14.5t13 47.5v559h181v-570q0 -46 -11 -83.5t-36 -64.5t-66 -41.5t-101 -14.5h-230zM46 0v549h181v-549h-181zM46 634v146h444v-146h-444z" />
    <glyph glyph-name="Kcommaaccent" unicode="&#x136;" horiz-adv-x="952" 
d="M46 0zM252 728v-295h7l381 295h280v-8l-429 -322l453 -390v-8h-283l-402 350h-7v-350h-206v728h206zM297 -225v9l118 174h93v-183h-211z" />
    <glyph glyph-name="kcommaaccent" unicode="&#x137;" horiz-adv-x="730" 
d="M46 0zM227 780v-450h7l246 219h225v-8l-278 -235l295 -298v-8h-228l-260 267h-7v-267h-181v780h181zM197 -225v9l118 174h93v-183h-211z" />
    <glyph glyph-name="Lacute" unicode="&#x139;" horiz-adv-x="861" 
d="M46 0zM252 728v-514q0 -12 5 -18t19 -6h570v-190h-747q-29 0 -41 14.5t-12 41.5v672h206zM70 776v8l119 175h94v-183h-213z" />
    <glyph glyph-name="lacute" unicode="&#x13a;" horiz-adv-x="274" 
d="M46 0v784l119 175h94v-183h-32v-776h-181z" />
    <glyph glyph-name="Lcommaaccent" unicode="&#x13b;" horiz-adv-x="861" 
d="M46 0zM252 728v-514q0 -12 5 -18t19 -6h570v-190h-747q-29 0 -41 14.5t-12 41.5v672h206zM305 -225v9l118 174h93v-183h-211z" />
    <glyph glyph-name="lcommaaccent" unicode="&#x13c;" horiz-adv-x="274" 
d="M16 0zM46 0v780h181v-780h-181zM16 -225v9l118 174h93v-183h-211z" />
    <glyph glyph-name="Lcaron" unicode="&#x13d;" horiz-adv-x="861" 
d="M46 0zM252 728v-514q0 -12 5 -18t19 -6h570v-190h-747q-29 0 -41 14.5t-12 41.5v672h206zM429 597v9l118 174h93v-183h-211z" />
    <glyph glyph-name="lcaron" unicode="&#x13e;" horiz-adv-x="458" 
d="M46 0zM46 0v780h181v-780h-181zM247 597v9l118 174h93v-183h-211z" />
    <glyph glyph-name="Ldot" unicode="&#x13f;" horiz-adv-x="861" 
d="M46 0zM252 728v-514q0 -12 5 -18t19 -6h570v-190h-747q-29 0 -41 14.5t-12 41.5v672h206zM366 306v148h164v-148h-164z" />
    <glyph glyph-name="ldot" unicode="&#x140;" horiz-adv-x="438" 
d="M46 0zM46 0v780h181v-780h-181zM274 309v148h164v-148h-164z" />
    <glyph glyph-name="Lslash" unicode="&#x141;" horiz-adv-x="887" 
d="M72 508v220h206v-150l170 59l33 -98v-7l-203 -70v-248q0 -24 23 -24h571v-190h-747q-30 0 -41.5 14.5t-11.5 41.5v336l-37 -13l-32 98v8z" />
    <glyph glyph-name="lslash" unicode="&#x142;" horiz-adv-x="484" 
d="M155 0v465l-121 -40l-31 97v8l152 52v198h181v-137l112 39l32 -98v-7l-144 -50v-527h-181z" />
    <glyph glyph-name="Nacute" unicode="&#x143;" horiz-adv-x="985" 
d="M46 0zM380 728q23 0 32.5 -7t17.5 -22l276 -523q7 -12 19 -12h11q16 0 16 16v548h187v-699q0 -29 -28 -29h-296q-21 0 -31.5 6t-19.5 23l-286 522q-6 12 -19 12h-10q-16 0 -16 -16v-547h-187v698q0 30 28 30h306zM406 776v8l119 175h94v-183h-213z" />
    <glyph glyph-name="nacute" unicode="&#x144;" horiz-adv-x="761" 
d="M46 0zM46 549h448q61 0 104 -15.5t69.5 -44t38.5 -68.5t12 -90v-331h-181v319q0 48 -18 67t-59 19h-196l-30 80h-7v-485h-181v549zM293 597v8l119 175h94v-183h-213z" />
    <glyph glyph-name="Ncommaaccent" unicode="&#x145;" horiz-adv-x="985" 
d="M46 0zM380 728q23 0 32.5 -7t17.5 -22l276 -523q7 -12 19 -12h11q16 0 16 16v548h187v-699q0 -29 -28 -29h-296q-21 0 -31.5 6t-19.5 23l-286 522q-6 12 -19 12h-10q-16 0 -16 -16v-547h-187v698q0 30 28 30h306zM375 -225v9l118 174h93v-183h-211z" />
    <glyph glyph-name="ncommaaccent" unicode="&#x146;" horiz-adv-x="761" 
d="M46 0zM46 549h448q61 0 104 -15.5t69.5 -44t38.5 -68.5t12 -90v-331h-181v319q0 48 -18 67t-59 19h-196l-30 80h-7v-485h-181v549zM250 -225v9l118 174h93v-183h-211z" />
    <glyph glyph-name="Ncaron" unicode="&#x147;" horiz-adv-x="985" 
d="M46 0zM380 728q23 0 32.5 -7t17.5 -22l276 -523q7 -12 19 -12h11q16 0 16 16v548h187v-699q0 -29 -28 -29h-296q-21 0 -31.5 6t-19.5 23l-286 522q-6 12 -19 12h-10q-16 0 -16 -16v-547h-187v698q0 30 28 30h306zM666 959v-8l-121 -175h-108l-119 175v8h348z" />
    <glyph glyph-name="ncaron" unicode="&#x148;" horiz-adv-x="761" 
d="M46 0zM46 549h448q61 0 104 -15.5t69.5 -44t38.5 -68.5t12 -90v-331h-181v319q0 48 -18 67t-59 19h-196l-30 80h-7v-485h-181v549zM554 780v-8l-121 -175h-108l-119 175v8h348z" />
    <glyph glyph-name="Eng" unicode="&#x14a;" horiz-adv-x="985" 
d="M412 -225v153h285q29 0 42 14.5t13 47.5v10h-137q-21 0 -31.5 6t-19.5 23l-286 522q-6 12 -19 12h-10q-16 0 -16 -16v-547h-187v698q0 30 28 30h306q23 0 32.5 -7t17.5 -22l276 -523q7 -12 19 -12h11q16 0 16 16v548h187v-749q0 -46 -11 -83.5t-36 -64.5t-66 -41.5
t-101 -14.5h-313z" />
    <glyph glyph-name="eng" unicode="&#x14b;" horiz-adv-x="761" 
d="M329 -225v153h153q29 0 42 14.5t13 47.5v329q0 48 -18 67t-59 19h-196l-30 80h-7v-485h-181v549h448q61 0 104 -15.5t69.5 -44t38.5 -68.5t12 -90v-352q0 -46 -11 -83.5t-36 -64.5t-66 -41.5t-101 -14.5h-175z" />
    <glyph glyph-name="Omacron" unicode="&#x14c;" horiz-adv-x="993" 
d="M37 0zM954 289q0 -66 -16 -119.5t-51 -91t-91.5 -58t-137.5 -20.5h-324q-81 0 -138 20.5t-92 58t-51 91t-16 119.5v150q0 66 16 119.5t51 91t92 58t138 20.5h324q81 0 137.5 -20.5t91.5 -58t51 -91t16 -119.5v-150zM243 307q0 -38 7.5 -61t24 -35.5t43 -17t65.5 -4.5h256
q33 0 54.5 7t33.5 23.5t16.5 44.5t4.5 69v96q0 67 -25 92t-84 25h-287q-33 0 -54.5 -7t-33.5 -23.5t-16.5 -44t-4.5 -68.5v-96zM293 802v100h407v-100h-407z" />
    <glyph glyph-name="omacron" unicode="&#x14d;" horiz-adv-x="788" 
d="M37 0zM750 218q0 -50 -12 -90t-39 -68.5t-70 -44t-104 -15.5h-264q-61 0 -103.5 15.5t-69.5 44t-39 68.5t-12 90v113q0 49 12 89.5t39 69t69.5 44t103.5 15.5h264q61 0 104 -15.5t70 -44t39 -69t12 -89.5v-113zM492 161q43 0 60 17t17 64v77q0 50 -17.5 68t-59.5 18h-197
q-43 0 -59.5 -18.5t-16.5 -67.5v-77q0 -47 16.5 -64t59.5 -17h197zM190 623v100h407v-100h-407z" />
    <glyph glyph-name="Obreve" unicode="&#x14e;" horiz-adv-x="993" 
d="M37 0zM954 289q0 -66 -16 -119.5t-51 -91t-91.5 -58t-137.5 -20.5h-324q-81 0 -138 20.5t-92 58t-51 91t-16 119.5v150q0 66 16 119.5t51 91t92 58t138 20.5h324q81 0 137.5 -20.5t91.5 -58t51 -91t16 -119.5v-150zM243 307q0 -38 7.5 -61t24 -35.5t43 -17t65.5 -4.5h256
q33 0 54.5 7t33.5 23.5t16.5 44.5t4.5 69v96q0 67 -25 92t-84 25h-287q-33 0 -54.5 -7t-33.5 -23.5t-16.5 -44t-4.5 -68.5v-96zM667 959v-64q0 -64 -33.5 -94t-86.5 -30h-103q-52 0 -85 30t-33 94v64h341z" />
    <glyph glyph-name="obreve" unicode="&#x14f;" horiz-adv-x="788" 
d="M37 0zM750 218q0 -50 -12 -90t-39 -68.5t-70 -44t-104 -15.5h-264q-61 0 -103.5 15.5t-69.5 44t-39 68.5t-12 90v113q0 49 12 89.5t39 69t69.5 44t103.5 15.5h264q61 0 104 -15.5t70 -44t39 -69t12 -89.5v-113zM492 161q43 0 60 17t17 64v77q0 50 -17.5 68t-59.5 18h-197
q-43 0 -59.5 -18.5t-16.5 -67.5v-77q0 -47 16.5 -64t59.5 -17h197zM564 780v-64q0 -64 -33.5 -94t-86.5 -30h-103q-52 0 -85 30t-33 94v64h341z" />
    <glyph glyph-name="Ohungarumlaut" unicode="&#x150;" horiz-adv-x="993" 
d="M37 0zM954 289q0 -66 -16 -119.5t-51 -91t-91.5 -58t-137.5 -20.5h-324q-81 0 -138 20.5t-92 58t-51 91t-16 119.5v150q0 66 16 119.5t51 91t92 58t138 20.5h324q81 0 137.5 -20.5t91.5 -58t51 -91t16 -119.5v-150zM243 307q0 -38 7.5 -61t24 -35.5t43 -17t65.5 -4.5h256
q33 0 54.5 7t33.5 23.5t16.5 44.5t4.5 69v96q0 67 -25 92t-84 25h-287q-33 0 -54.5 -7t-33.5 -23.5t-16.5 -44t-4.5 -68.5v-96zM303 776v8l119 175h94v-156h9l111 156h94v-183h-427z" />
    <glyph glyph-name="ohungarumlaut" unicode="&#x151;" horiz-adv-x="788" 
d="M37 0zM750 218q0 -50 -12 -90t-39 -68.5t-70 -44t-104 -15.5h-264q-61 0 -103.5 15.5t-69.5 44t-39 68.5t-12 90v113q0 49 12 89.5t39 69t69.5 44t103.5 15.5h264q61 0 104 -15.5t70 -44t39 -69t12 -89.5v-113zM492 161q43 0 60 17t17 64v77q0 50 -17.5 68t-59.5 18h-197
q-43 0 -59.5 -18.5t-16.5 -67.5v-77q0 -47 16.5 -64t59.5 -17h197zM200 597v8l119 175h94v-156h9l111 156h94v-183h-427z" />
    <glyph glyph-name="OE" unicode="&#x152;" horiz-adv-x="1541" 
d="M891 421h-7v-232h614v-189h-1164q-81 0 -138 20.5t-92 58t-51 91t-16 119.5v150q0 66 16 119.5t51 91t92 58t138 20.5h1141q29 0 29 -30v-186l-191 -74h-8v97q0 11 -10 11h-411v-105h325v-148h-270zM243 307q0 -34 6 -56.5t18.5 -36t33.5 -19.5t51 -6h326v357h-326
q-60 0 -84.5 -25t-24.5 -92v-122z" />
    <glyph glyph-name="oe" unicode="&#x153;" horiz-adv-x="1260" 
d="M760 313h-7v-85q0 -47 16 -64.5t60 -17.5h391v-146h-959q-61 0 -103.5 15.5t-69.5 44t-39 68.5t-12 90v113q0 49 12 89.5t39 69t69.5 44t103.5 15.5h851q63 0 90 -32.5t27 -101.5v-53q0 -61 -27 -97t-90 -36h-321zM492 161q43 0 60 17t17 64v77q0 50 -17.5 68t-59.5 18
h-197q-43 0 -59.5 -18.5t-16.5 -67.5v-77q0 -47 16.5 -64t59.5 -17h197zM753 340h276q31 0 31 32v20q0 17 -7.5 24t-23.5 7h-200q-42 0 -59 -17.5t-17 -62.5v-3z" />
    <glyph glyph-name="Racute" unicode="&#x154;" horiz-adv-x="911" 
d="M46 0zM252 351v-351h-206v698q0 30 28 30h569q68 0 115 -16t76 -46.5t42 -73.5t13 -97v-52q0 -53 -13 -95t-41.5 -71.5t-73.5 -45.5t-110 -16h-21h-26.5t-22.5 1v-7q13 -12 26 -26.5t25 -29.5l116 -145v-8h-232l-257 351h-7zM266 546q-14 0 -14 -17v-159h354
q41 0 58.5 16t17.5 61v25q0 42 -17.5 58t-58.5 16h-340zM347 776v8l119 175h94v-183h-213z" />
    <glyph glyph-name="racute" unicode="&#x155;" horiz-adv-x="689" 
d="M43 0zM507 319h-8v75q0 11 -10 11h-221q-24 0 -34 -11t-10 -38v-356h-181v395q0 70 36.5 112t116.5 42h445q26 0 26 -27v-142zM256 597v8l119 175h94v-183h-213z" />
    <glyph glyph-name="Rcommaaccent" unicode="&#x156;" horiz-adv-x="911" 
d="M46 0zM252 351v-351h-206v698q0 30 28 30h569q68 0 115 -16t76 -46.5t42 -73.5t13 -97v-52q0 -53 -13 -95t-41.5 -71.5t-73.5 -45.5t-110 -16h-21h-26.5t-22.5 1v-7q13 -12 26 -26.5t25 -29.5l116 -145v-8h-232l-257 351h-7zM266 546q-14 0 -14 -17v-159h354
q41 0 58.5 16t17.5 61v25q0 42 -17.5 58t-58.5 16h-340zM269 -225v9l118 174h93v-183h-211z" />
    <glyph glyph-name="rcommaaccent" unicode="&#x157;" horiz-adv-x="689" 
d="M13 0zM507 319h-8v75q0 11 -10 11h-221q-24 0 -34 -11t-10 -38v-356h-181v395q0 70 36.5 112t116.5 42h445q26 0 26 -27v-142zM13 -225v9l118 174h93v-183h-211z" />
    <glyph glyph-name="Rcaron" unicode="&#x158;" horiz-adv-x="911" 
d="M46 0zM252 351v-351h-206v698q0 30 28 30h569q68 0 115 -16t76 -46.5t42 -73.5t13 -97v-52q0 -53 -13 -95t-41.5 -71.5t-73.5 -45.5t-110 -16h-21h-26.5t-22.5 1v-7q13 -12 26 -26.5t25 -29.5l116 -145v-8h-232l-257 351h-7zM266 546q-14 0 -14 -17v-159h354
q41 0 58.5 16t17.5 61v25q0 42 -17.5 58t-58.5 16h-340zM626 959v-8l-121 -175h-108l-119 175v8h348z" />
    <glyph glyph-name="rcaron" unicode="&#x159;" horiz-adv-x="689" 
d="M43 0zM507 319h-8v75q0 11 -10 11h-221q-24 0 -34 -11t-10 -38v-356h-181v395q0 70 36.5 112t116.5 42h445q26 0 26 -27v-142zM538 780v-8l-121 -175h-108l-119 175v8h348z" />
    <glyph glyph-name="Sacute" unicode="&#x15a;" horiz-adv-x="941" 
d="M30 0zM699 476h-8v80q0 12 -12 12h-384q-21 0 -29 -9t-8 -26v-18q0 -21 7 -27t27 -9l452 -63q43 -6 73 -18.5t49 -33t27 -50.5t8 -71v-58q0 -45 -11 -79.5t-36 -58t-66 -35.5t-101 -12h-648v189h581q26 0 34.5 9.5t8.5 33.5v20q0 19 -6.5 26.5t-25.5 9.5l-436 55
q-44 6 -75.5 18t-51.5 32t-29 49t-9 69v51q0 79 42 122.5t140 43.5h647q31 0 31 -32v-150zM384 776v8l119 175h94v-183h-213z" />
    <glyph glyph-name="sacute" unicode="&#x15b;" horiz-adv-x="740" 
d="M30 0zM37 154h449q16 0 22 6.5t6 21.5v12q0 11 -4 16.5t-16 6.5l-341 29q-63 5 -93 39t-30 91v44q0 60 33 94.5t108 34.5h495q25 0 25 -25v-123l-156 -58h-7v63q0 8 -7 8h-286q-15 0 -21 -6t-6 -20v-15q0 -14 4.5 -18t16.5 -6l349 -34q35 -3 58 -13t37 -26.5t19.5 -40.5
t5.5 -56v-41q0 -66 -34.5 -102t-122.5 -36h-504v154zM278 597v8l119 175h94v-183h-213z" />
    <glyph glyph-name="Scedilla" unicode="&#x15e;" horiz-adv-x="941" 
d="M30 0zM699 476h-8v80q0 12 -12 12h-384q-21 0 -29 -9t-8 -26v-18q0 -21 7 -27t27 -9l452 -63q43 -6 73 -18.5t49 -33t27 -50.5t8 -71v-58q0 -45 -11 -79.5t-36 -58t-66 -35.5t-101 -12h-648v189h581q26 0 34.5 9.5t8.5 33.5v20q0 19 -6.5 26.5t-25.5 9.5l-436 55
q-44 6 -75.5 18t-51.5 32t-29 49t-9 69v51q0 79 42 122.5t140 43.5h647q31 0 31 -32v-150zM315 -225v9l118 174h93v-183h-211z" />
    <glyph glyph-name="scedilla" unicode="&#x15f;" horiz-adv-x="740" 
d="M30 0zM37 154h449q16 0 22 6.5t6 21.5v12q0 11 -4 16.5t-16 6.5l-341 29q-63 5 -93 39t-30 91v44q0 60 33 94.5t108 34.5h495q25 0 25 -25v-123l-156 -58h-7v63q0 8 -7 8h-286q-15 0 -21 -6t-6 -20v-15q0 -14 4.5 -18t16.5 -6l349 -34q35 -3 58 -13t37 -26.5t19.5 -40.5
t5.5 -56v-41q0 -66 -34.5 -102t-122.5 -36h-504v154zM220 -225v9l118 174h93v-183h-211z" />
    <glyph glyph-name="Scaron" unicode="&#x160;" horiz-adv-x="941" 
d="M30 0zM699 476h-8v80q0 12 -12 12h-384q-21 0 -29 -9t-8 -26v-18q0 -21 7 -27t27 -9l452 -63q43 -6 73 -18.5t49 -33t27 -50.5t8 -71v-58q0 -45 -11 -79.5t-36 -58t-66 -35.5t-101 -12h-648v189h581q26 0 34.5 9.5t8.5 33.5v20q0 19 -6.5 26.5t-25.5 9.5l-436 55
q-44 6 -75.5 18t-51.5 32t-29 49t-9 69v51q0 79 42 122.5t140 43.5h647q31 0 31 -32v-150zM650 959v-8l-121 -175h-108l-119 175v8h348z" />
    <glyph glyph-name="scaron" unicode="&#x161;" horiz-adv-x="740" 
d="M30 0zM37 154h449q16 0 22 6.5t6 21.5v12q0 11 -4 16.5t-16 6.5l-341 29q-63 5 -93 39t-30 91v44q0 60 33 94.5t108 34.5h495q25 0 25 -25v-123l-156 -58h-7v63q0 8 -7 8h-286q-15 0 -21 -6t-6 -20v-15q0 -14 4.5 -18t16.5 -6l349 -34q35 -3 58 -13t37 -26.5t19.5 -40.5
t5.5 -56v-41q0 -66 -34.5 -102t-122.5 -36h-504v154zM547 780v-8l-121 -175h-108l-119 175v8h348z" />
    <glyph glyph-name="Tcedilla" unicode="&#x162;" horiz-adv-x="1017" 
d="M0 0zM568 546v-546h-206v546h-302l-67 174v8h965q29 0 29 -30v-189l-191 -71h-8v97q0 11 -11 11h-209zM357 -225v9l118 174h93v-183h-211z" />
    <glyph glyph-name="tcedilla" unicode="&#x163;" horiz-adv-x="487" 
d="M3 0zM466 411h-160v-411h-181v411h-72l-50 130v8h122v179h181v-179h160v-138zM95 -225v9l118 174h93v-183h-211z" />
    <glyph glyph-name="Tcaron" unicode="&#x164;" horiz-adv-x="1017" 
d="M3 0zM578 546v-546h-206v546h-302l-67 174v8h965q29 0 29 -30v-189l-191 -71h-8v97q0 11 -11 11h-209zM653 959v-8l-121 -175h-108l-119 175v8h348z" />
    <glyph glyph-name="tcaron" unicode="&#x165;" horiz-adv-x="535" 
d="M3 0zM466 411h-160v-411h-181v411h-72l-50 130v8h122v179h181v-179h160v-138zM324 597v9l118 174h93v-183h-211z" />
    <glyph glyph-name="Tbar" unicode="&#x166;" horiz-adv-x="1017" 
d="M578 280v-280h-206v280h-126v100h126v166h-302l-67 174v8h965q29 0 29 -30v-189l-191 -71h-8v97q0 11 -11 11h-209v-166h118v-100h-118z" />
    <glyph glyph-name="tbar" unicode="&#x167;" horiz-adv-x="487" 
d="M306 197v-197h-181v197h-104v100h104v114h-72l-50 130v8h122v179h181v-179h160v-138h-160v-114h122v-100h-122z" />
    <glyph glyph-name="Utilde" unicode="&#x168;" horiz-adv-x="988" 
d="M42 0zM42 728h206v-427q0 -62 25.5 -87t82.5 -25h275q58 0 83.5 25.5t25.5 88.5v425h206v-439q0 -68 -16 -121.5t-51 -91t-91.5 -57t-138.5 -19.5h-311q-81 0 -137.5 19.5t-91.5 57t-51 91t-16 121.5v439zM290 802v100h407v-100h-407z" />
    <glyph glyph-name="utilde" unicode="&#x169;" horiz-adv-x="790" 
d="M46 0zM46 549h181v-307q0 -46 19 -63.5t65 -17.5h165q48 0 67 18.5t19 62.5v307h181v-331q0 -50 -12 -90t-38.5 -68.5t-69.5 -44t-105 -15.5h-249q-61 0 -103.5 15.5t-69 44t-38.5 68.5t-12 90v331zM191 623v100h407v-100h-407z" />
    <glyph glyph-name="Umacron" unicode="&#x16a;" horiz-adv-x="988" 
d="M42 0zM42 728h206v-427q0 -62 25.5 -87t82.5 -25h275q58 0 83.5 25.5t25.5 88.5v425h206v-439q0 -68 -16 -121.5t-51 -91t-91.5 -57t-138.5 -19.5h-311q-81 0 -137.5 19.5t-91.5 57t-51 91t-16 121.5v439zM290 802v100h407v-100h-407z" />
    <glyph glyph-name="umacron" unicode="&#x16b;" horiz-adv-x="790" 
d="M46 0zM46 549h181v-307q0 -46 19 -63.5t65 -17.5h165q48 0 67 18.5t19 62.5v307h181v-331q0 -50 -12 -90t-38.5 -68.5t-69.5 -44t-105 -15.5h-249q-61 0 -103.5 15.5t-69 44t-38.5 68.5t-12 90v331zM191 623v100h407v-100h-407z" />
    <glyph glyph-name="Ubreve" unicode="&#x16c;" horiz-adv-x="988" 
d="M42 0zM42 728h206v-427q0 -62 25.5 -87t82.5 -25h275q58 0 83.5 25.5t25.5 88.5v425h206v-439q0 -68 -16 -121.5t-51 -91t-91.5 -57t-138.5 -19.5h-311q-81 0 -137.5 19.5t-91.5 57t-51 91t-16 121.5v439zM664 959v-64q0 -64 -33.5 -94t-86.5 -30h-103q-52 0 -85 30
t-33 94v64h341z" />
    <glyph glyph-name="ubreve" unicode="&#x16d;" horiz-adv-x="790" 
d="M46 0zM46 549h181v-307q0 -46 19 -63.5t65 -17.5h165q48 0 67 18.5t19 62.5v307h181v-331q0 -50 -12 -90t-38.5 -68.5t-69.5 -44t-105 -15.5h-249q-61 0 -103.5 15.5t-69 44t-38.5 68.5t-12 90v331zM565 780v-64q0 -64 -33.5 -94t-86.5 -30h-103q-52 0 -85 30t-33 94v64
h341z" />
    <glyph glyph-name="Uring" unicode="&#x16e;" horiz-adv-x="988" 
d="M42 0zM42 728h206v-427q0 -62 25.5 -87t82.5 -25h275q58 0 83.5 25.5t25.5 88.5v425h206v-439q0 -68 -16 -121.5t-51 -91t-91.5 -57t-138.5 -19.5h-311q-81 0 -137.5 19.5t-91.5 57t-51 91t-16 121.5v439zM448 744q-42 0 -67 23t-25 74v22q0 51 25 73.5t67 22.5h91
q42 0 67 -22.5t25 -73.5v-22q0 -51 -25 -74t-67 -23h-91v0z" />
    <glyph glyph-name="uring" unicode="&#x16f;" horiz-adv-x="790" 
d="M46 0zM46 549h181v-307q0 -46 19 -63.5t65 -17.5h165q48 0 67 18.5t19 62.5v307h181v-331q0 -50 -12 -90t-38.5 -68.5t-69.5 -44t-105 -15.5h-249q-61 0 -103.5 15.5t-69 44t-38.5 68.5t-12 90v331zM349 565q-42 0 -67 23t-25 74v22q0 51 25 73.5t67 22.5h91
q42 0 67 -22.5t25 -73.5v-22q0 -51 -25 -74t-67 -23h-91v0z" />
    <glyph glyph-name="Uhungarumlaut" unicode="&#x170;" horiz-adv-x="988" 
d="M42 0zM42 728h206v-427q0 -62 25.5 -87t82.5 -25h275q58 0 83.5 25.5t25.5 88.5v425h206v-439q0 -68 -16 -121.5t-51 -91t-91.5 -57t-138.5 -19.5h-311q-81 0 -137.5 19.5t-91.5 57t-51 91t-16 121.5v439zM300 776v8l119 175h94v-156h9l111 156h94v-183h-427z" />
    <glyph glyph-name="uhungarumlaut" unicode="&#x171;" horiz-adv-x="790" 
d="M46 0zM46 549h181v-307q0 -46 19 -63.5t65 -17.5h165q48 0 67 18.5t19 62.5v307h181v-331q0 -50 -12 -90t-38.5 -68.5t-69.5 -44t-105 -15.5h-249q-61 0 -103.5 15.5t-69 44t-38.5 68.5t-12 90v331zM201 597v8l119 175h94v-156h9l111 156h94v-183h-427z" />
    <glyph glyph-name="Uogonek" unicode="&#x172;" horiz-adv-x="988" 
d="M42 0zM42 728h206v-427q0 -62 25.5 -87t82.5 -25h275q58 0 83.5 25.5t25.5 88.5v425h206v-439q0 -68 -16 -121.5t-51 -91t-91.5 -57t-138.5 -19.5h-311q-81 0 -137.5 19.5t-91.5 57t-51 91t-16 121.5v439zM751 -225q-51 0 -78 29t-27 86v70h164v-25q0 -7 7 -7h99v-153
h-165z" />
    <glyph glyph-name="uogonek" unicode="&#x173;" horiz-adv-x="790" 
d="M46 0zM46 549h181v-307q0 -46 19 -63.5t65 -17.5h165q48 0 67 18.5t19 62.5v307h181v-331q0 -50 -12 -90t-38.5 -68.5t-69.5 -44t-105 -15.5h-249q-61 0 -103.5 15.5t-69 44t-38.5 68.5t-12 90v331zM578 -225q-51 0 -78 29t-27 86v70h164v-25q0 -7 7 -7h99v-153h-165z
" />
    <glyph glyph-name="Wcircumflex" unicode="&#x174;" horiz-adv-x="1234" 
d="M14 0zM1218 728v-8l-105 -692q-2 -15 -8.5 -21.5t-23.5 -6.5h-299q-38 0 -44 30l-112 513q-2 9 -11 9h-9q-11 0 -13 -9l-98 -513q-6 -30 -44 -30h-290q-16 0 -23 7t-9 21l-115 692v8h206l86 -551q2 -13 15 -13h10q12 0 15 13l104 525q2 14 10.5 20t27.5 6h252
q32 0 38 -26l116 -525q3 -13 14 -13h11q16 0 17 13l71 551h211zM443 776v8l119 175h108l121 -175v-8h-348z" />
    <glyph glyph-name="wcircumflex" unicode="&#x175;" horiz-adv-x="1043" 
d="M14 0zM384 522q6 27 34 27h206q30 0 37 -27l93 -388q1 -9 12 -9h9q11 0 13 9l67 415h172v-8l-98 -519q-4 -22 -32 -22h-242q-15 0 -22.5 6t-10.5 20l-92 383q-2 7 -9 7h-8q-7 0 -9 -7l-84 -383q-3 -14 -13.5 -20t-24.5 -6h-231q-16 0 -21 5.5t-7 16.5l-109 519v8h171
l75 -415q1 -9 12 -9h9q13 0 14 10l89 387v0zM347 597v8l119 175h108l121 -175v-8h-348z" />
    <glyph glyph-name="Ycircumflex" unicode="&#x176;" horiz-adv-x="932" 
d="M7 0zM925 728v-8l-357 -438v-282h-206v286l-355 434v8h235l213 -266l3.5 -3.5t6.5 -1.5h7q6 0 10 5l209 266h234zM292 776v8l119 175h108l121 -175v-8h-348z" />
    <glyph glyph-name="ycircumflex" unicode="&#x177;" horiz-adv-x="753" 
d="M39 0zM516 65h7v484h182v-560q0 -48 -11.5 -87.5t-37.5 -67.5t-69 -43.5t-106 -15.5h-417v153h389q39 0 54.5 17.5t15.5 55.5v44h-259q-123 0 -174 49.5t-51 150.5v304h182v-280q0 -45 17 -61.5t60 -16.5h169zM202 597v8l119 175h108l121 -175v-8h-348z" />
    <glyph glyph-name="Ydieresis" unicode="&#x178;" horiz-adv-x="932" 
d="M7 0zM925 728v-8l-357 -438v-282h-206v286l-355 434v8h235l213 -266l3.5 -3.5t6.5 -1.5h7q6 0 10 5l209 266h234zM524 778v148h164v-148h-164zM244 778v148h164v-148h-164z" />
    <glyph glyph-name="Zacute" unicode="&#x179;" horiz-adv-x="955" 
d="M42 0zM914 0h-840q-16 0 -24 6t-8 24v147q0 19 7 31t24 23l391 243q38 23 72.5 42.5t64.5 36.5v8q-17 -2 -34.5 -2.5t-37 -1.5t-42.5 -1h-51h-394v172h838q16 0 24.5 -6.5t8.5 -23.5v-113q0 -18 -6.5 -27.5t-22.5 -19.5l-394 -243q-56 -35 -98 -59t-86 -46v-12
q38 3 76 4.5t86 1.5h446v-184zM391 776v8l119 175h94v-183h-213z" />
    <glyph glyph-name="zacute" unicode="&#x17a;" horiz-adv-x="714" 
d="M42 0zM671 0h-605q-24 0 -24 23v110q0 30 26 47l221 145q31 20 52 34t35.5 23.5t24.5 15t19 10.5v8q-24 -2 -63 -3.5t-96 -1.5h-219v138h605q24 0 24 -24v-81q0 -14 -5 -21.5t-16 -15.5l-261 -176q-26 -18 -44.5 -30.5t-33 -21.5t-26.5 -16t-24 -13v-9q35 2 73 3t83 1
h254v-145zM270 597v8l119 175h94v-183h-213z" />
    <glyph glyph-name="Zdotaccent" unicode="&#x17b;" horiz-adv-x="955" 
d="M42 0zM914 0h-840q-16 0 -24 6t-8 24v147q0 19 7 31t24 23l391 243q38 23 72.5 42.5t64.5 36.5v8q-17 -2 -34.5 -2.5t-37 -1.5t-42.5 -1h-51h-394v172h838q16 0 24.5 -6.5t8.5 -23.5v-113q0 -18 -6.5 -27.5t-22.5 -19.5l-394 -243q-56 -35 -98 -59t-86 -46v-12
q38 3 76 4.5t86 1.5h446v-184zM400 778v148h164v-148h-164z" />
    <glyph glyph-name="zdotaccent" unicode="&#x17c;" horiz-adv-x="714" 
d="M42 0zM671 0h-605q-24 0 -24 23v110q0 30 26 47l221 145q31 20 52 34t35.5 23.5t24.5 15t19 10.5v8q-24 -2 -63 -3.5t-96 -1.5h-219v138h605q24 0 24 -24v-81q0 -14 -5 -21.5t-16 -15.5l-261 -176q-26 -18 -44.5 -30.5t-33 -21.5t-26.5 -16t-24 -13v-9q35 2 73 3t83 1
h254v-145zM281 599v148h164v-148h-164z" />
    <glyph glyph-name="Zcaron" unicode="&#x17d;" horiz-adv-x="955" 
d="M42 0zM914 0h-840q-16 0 -24 6t-8 24v147q0 19 7 31t24 23l391 243q38 23 72.5 42.5t64.5 36.5v8q-17 -2 -34.5 -2.5t-37 -1.5t-42.5 -1h-51h-394v172h838q16 0 24.5 -6.5t8.5 -23.5v-113q0 -18 -6.5 -27.5t-22.5 -19.5l-394 -243q-56 -35 -98 -59t-86 -46v-12
q38 3 76 4.5t86 1.5h446v-184zM658 959v-8l-121 -175h-108l-119 175v8h348z" />
    <glyph glyph-name="zcaron" unicode="&#x17e;" horiz-adv-x="714" 
d="M42 0zM671 0h-605q-24 0 -24 23v110q0 30 26 47l221 145q31 20 52 34t35.5 23.5t24.5 15t19 10.5v8q-24 -2 -63 -3.5t-96 -1.5h-219v138h605q24 0 24 -24v-81q0 -14 -5 -21.5t-16 -15.5l-261 -176q-26 -18 -44.5 -30.5t-33 -21.5t-26.5 -16t-24 -13v-9q35 2 73 3t83 1
h254v-145zM536 780v-8l-121 -175h-108l-119 175v8h348z" />
    <glyph glyph-name="florin" unicode="&#x192;" horiz-adv-x="635" 
d="M59 541v8h176l7 37q8 42 21.5 77.5t37 61.5t59.5 40.5t90 14.5h76l59 -119v-12h-77q-25 0 -40 -5t-24 -17t-14 -31t-8 -47h173v-136h-192l-60 -422q-8 -53 -22.5 -93.5t-43 -67.5t-75 -41t-118.5 -14h-81v154h52q24 0 40.5 4t27.5 13.5t17 25.5t10 40l64 401h-107z" />
    <glyph glyph-name="Scommaaccent" unicode="&#x218;" horiz-adv-x="941" 
d="M30 0zM699 476h-8v80q0 12 -12 12h-384q-21 0 -29 -9t-8 -26v-18q0 -21 7 -27t27 -9l452 -63q43 -6 73 -18.5t49 -33t27 -50.5t8 -71v-58q0 -45 -11 -79.5t-36 -58t-66 -35.5t-101 -12h-648v189h581q26 0 34.5 9.5t8.5 33.5v20q0 19 -6.5 26.5t-25.5 9.5l-436 55
q-44 6 -75.5 18t-51.5 32t-29 49t-9 69v51q0 79 42 122.5t140 43.5h647q31 0 31 -32v-150zM315 -225v9l118 174h93v-183h-211z" />
    <glyph glyph-name="scommaaccent" unicode="&#x219;" horiz-adv-x="740" 
d="M30 0zM37 154h449q16 0 22 6.5t6 21.5v12q0 11 -4 16.5t-16 6.5l-341 29q-63 5 -93 39t-30 91v44q0 60 33 94.5t108 34.5h495q25 0 25 -25v-123l-156 -58h-7v63q0 8 -7 8h-286q-15 0 -21 -6t-6 -20v-15q0 -14 4.5 -18t16.5 -6l349 -34q35 -3 58 -13t37 -26.5t19.5 -40.5
t5.5 -56v-41q0 -66 -34.5 -102t-122.5 -36h-504v154zM220 -225v9l118 174h93v-183h-211z" />
    <glyph glyph-name="uni021A" unicode="&#x21a;" horiz-adv-x="1017" 
d="M0 0zM568 546v-546h-206v546h-302l-67 174v8h965q29 0 29 -30v-189l-191 -71h-8v97q0 11 -11 11h-209zM357 -225v9l118 174h93v-183h-211z" />
    <glyph glyph-name="uni021B" unicode="&#x21b;" horiz-adv-x="487" 
d="M3 0zM466 411h-160v-411h-181v411h-72l-50 130v8h122v179h181v-179h160v-138zM95 -225v9l118 174h93v-183h-211z" />
    <glyph glyph-name="circumflex" unicode="&#x2c6;" horiz-adv-x="438" 
d="M46 597v8l119 175h108l121 -175v-8h-348z" />
    <glyph glyph-name="caron" unicode="&#x2c7;" horiz-adv-x="438" 
d="M394 780v-8l-121 -175h-108l-119 175v8h348z" />
    <glyph glyph-name="breve" unicode="&#x2d8;" horiz-adv-x="432" 
d="M387 780v-64q0 -64 -33.5 -94t-86.5 -30h-103q-52 0 -85 30t-33 94v64h341z" />
    <glyph glyph-name="dotaccent" unicode="&#x2d9;" horiz-adv-x="254" 
d="M46 599v148h164v-148h-164z" />
    <glyph glyph-name="ring" unicode="&#x2da;" horiz-adv-x="367" 
d="M138 565q-42 0 -67 23t-25 74v22q0 51 25 73.5t67 22.5h91q42 0 67 -22.5t25 -73.5v-22q0 -51 -25 -74t-67 -23h-91v0z" />
    <glyph glyph-name="ogonek" unicode="&#x2db;" horiz-adv-x="362" 
d="M151 -225q-51 0 -78 29t-27 86v70h164v-25q0 -7 7 -7h99v-153h-165z" />
    <glyph glyph-name="tilde" unicode="&#x2dc;" horiz-adv-x="497" 
d="M46 623v100h407v-100h-407z" />
    <glyph glyph-name="hungarumlaut" unicode="&#x2dd;" horiz-adv-x="526" 
d="M46 597v8l119 175h94v-156h9l111 156h94v-183h-427z" />
    <glyph glyph-name="Delta" unicode="&#x394;" horiz-adv-x="1082" 
d="M12 0v8l366 696q6 12 13 18t25 6h250q17 0 25 -5.5t15 -18.5l363 -696v-8h-1057zM534 554q-10 0 -14 -8l-130 -261q-11 -23 -19.5 -39t-15.5 -28t-12.5 -20.5t-11.5 -16.5l3 -7q22 2 49 3t72 1h169q46 0 73 -1t49 -3l3 7q-11 16 -24 37t-35 67l-130 261q-4 8 -14 8h-12z
" />
    <glyph glyph-name="Omega" unicode="&#x3a9;" horiz-adv-x="954" 
d="M908 399q0 -83 -51.5 -129.5t-136.5 -67.5v-21h181v-181h-375v219q43 7 72.5 17.5t47.5 26.5t26 38.5t8 54.5v69q0 30 -5.5 52.5t-19 37.5t-37 23t-59.5 8h-164q-36 0 -59.5 -8t-37.5 -23t-19.5 -37.5t-5.5 -52.5v-69q0 -62 36 -93t119 -44v-219h-375v181h181v21
q-86 21 -137 67.5t-51 129.5v80q0 67 16 114.5t49.5 77.5t84.5 43.5t121 13.5h321q69 0 120 -13.5t84.5 -43.5t49.5 -77.5t16 -114.5v-80z" />
    <glyph glyph-name="mu" unicode="&#x3bc;" horiz-adv-x="757" 
d="M46 549h181v-402h226q45 0 60.5 16.5t15.5 58.5v327h182v-351q0 -50 -12 -87.5t-39 -62t-69.5 -36.5t-103.5 -12h-204l-49 126h-7v-351h-181v774z" />
    <glyph glyph-name="pi" unicode="&#x3c0;" horiz-adv-x="801" 
d="M46 0v549h735v-137h-107v-412h-181v412h-227l-32 73h-7v-485h-181z" />
    <glyph glyph-name="Wgrave" unicode="&#x1e80;" horiz-adv-x="1234" 
d="M14 0zM1218 728v-8l-105 -692q-2 -15 -8.5 -21.5t-23.5 -6.5h-299q-38 0 -44 30l-112 513q-2 9 -11 9h-9q-11 0 -13 -9l-98 -513q-6 -30 -44 -30h-290q-16 0 -23 7t-9 21l-115 692v8h206l86 -551q2 -13 15 -13h10q12 0 15 13l104 525q2 14 10.5 20t27.5 6h252
q32 0 38 -26l116 -525q3 -13 14 -13h11q16 0 17 13l71 551h211zM490 776v183h93l120 -175v-8h-213z" />
    <glyph glyph-name="wgrave" unicode="&#x1e81;" horiz-adv-x="1043" 
d="M14 0zM384 522q6 27 34 27h206q30 0 37 -27l93 -388q1 -9 12 -9h9q11 0 13 9l67 415h172v-8l-98 -519q-4 -22 -32 -22h-242q-15 0 -22.5 6t-10.5 20l-92 383q-2 7 -9 7h-8q-7 0 -9 -7l-84 -383q-3 -14 -13.5 -20t-24.5 -6h-231q-16 0 -21 5.5t-7 16.5l-109 519v8h171
l75 -415q1 -9 12 -9h9q13 0 14 10l89 387v0zM395 597v183h93l120 -175v-8h-213z" />
    <glyph glyph-name="Wacute" unicode="&#x1e82;" horiz-adv-x="1234" 
d="M14 0zM1218 728v-8l-105 -692q-2 -15 -8.5 -21.5t-23.5 -6.5h-299q-38 0 -44 30l-112 513q-2 9 -11 9h-9q-11 0 -13 -9l-98 -513q-6 -30 -44 -30h-290q-16 0 -23 7t-9 21l-115 692v8h206l86 -551q2 -13 15 -13h10q12 0 15 13l104 525q2 14 10.5 20t27.5 6h252
q32 0 38 -26l116 -525q3 -13 14 -13h11q16 0 17 13l71 551h211zM530 776v8l119 175h94v-183h-213z" />
    <glyph glyph-name="wacute" unicode="&#x1e83;" horiz-adv-x="1043" 
d="M14 0zM384 522q6 27 34 27h206q30 0 37 -27l93 -388q1 -9 12 -9h9q11 0 13 9l67 415h172v-8l-98 -519q-4 -22 -32 -22h-242q-15 0 -22.5 6t-10.5 20l-92 383q-2 7 -9 7h-8q-7 0 -9 -7l-84 -383q-3 -14 -13.5 -20t-24.5 -6h-231q-16 0 -21 5.5t-7 16.5l-109 519v8h171
l75 -415q1 -9 12 -9h9q13 0 14 10l89 387v0zM435 597v8l119 175h94v-183h-213z" />
    <glyph glyph-name="Wdieresis" unicode="&#x1e84;" horiz-adv-x="1234" 
d="M14 0zM1218 728v-8l-105 -692q-2 -15 -8.5 -21.5t-23.5 -6.5h-299q-38 0 -44 30l-112 513q-2 9 -11 9h-9q-11 0 -13 -9l-98 -513q-6 -30 -44 -30h-290q-16 0 -23 7t-9 21l-115 692v8h206l86 -551q2 -13 15 -13h10q12 0 15 13l104 525q2 14 10.5 20t27.5 6h252
q32 0 38 -26l116 -525q3 -13 14 -13h11q16 0 17 13l71 551h211zM675 778v148h164v-148h-164zM395 778v148h164v-148h-164z" />
    <glyph glyph-name="wdieresis" unicode="&#x1e85;" horiz-adv-x="1043" 
d="M14 0zM384 522q6 27 34 27h206q30 0 37 -27l93 -388q1 -9 12 -9h9q11 0 13 9l67 415h172v-8l-98 -519q-4 -22 -32 -22h-242q-15 0 -22.5 6t-10.5 20l-92 383q-2 7 -9 7h-8q-7 0 -9 -7l-84 -383q-3 -14 -13.5 -20t-24.5 -6h-231q-16 0 -21 5.5t-7 16.5l-109 519v8h171
l75 -415q1 -9 12 -9h9q13 0 14 10l89 387v0zM579 599v148h164v-148h-164zM299 599v148h164v-148h-164z" />
    <glyph glyph-name="Ygrave" unicode="&#x1ef2;" horiz-adv-x="932" 
d="M7 0zM925 728v-8l-357 -438v-282h-206v286l-355 434v8h235l213 -266l3.5 -3.5t6.5 -1.5h7q6 0 10 5l209 266h234zM339 776v183h93l120 -175v-8h-213z" />
    <glyph glyph-name="ygrave" unicode="&#x1ef3;" horiz-adv-x="753" 
d="M39 0zM516 65h7v484h182v-560q0 -48 -11.5 -87.5t-37.5 -67.5t-69 -43.5t-106 -15.5h-417v153h389q39 0 54.5 17.5t15.5 55.5v44h-259q-123 0 -174 49.5t-51 150.5v304h182v-280q0 -45 17 -61.5t60 -16.5h169zM250 597v183h93l120 -175v-8h-213z" />
    <glyph glyph-name="endash" unicode="&#x2013;" horiz-adv-x="690" 
d="M662 363v-140h-635v140h635z" />
    <glyph glyph-name="emdash" unicode="&#x2014;" horiz-adv-x="1038" 
d="M1010 363v-140h-983v140h983z" />
    <glyph glyph-name="quoteleft" unicode="&#x2018;" horiz-adv-x="264" 
d="M217 780v-294h-182v8l106 286h76z" />
    <glyph glyph-name="quoteright" unicode="&#x2019;" horiz-adv-x="264" 
d="M48 486v294h181v-8l-106 -286h-75z" />
    <glyph glyph-name="quotesinglbase" unicode="&#x201a;" horiz-adv-x="242" 
d="M30 -128v294h181v-8l-105 -286h-76z" />
    <glyph glyph-name="quotedblleft" unicode="&#x201c;" horiz-adv-x="506" 
d="M35 486zM217 780v-294h-182v8l106 286h76zM459 780v-294h-182v8l106 286h76z" />
    <glyph glyph-name="quotedblright" unicode="&#x201d;" horiz-adv-x="506" 
d="M48 486zM48 486v294h181v-8l-106 -286h-75zM290 486v294h181v-8l-106 -286h-75z" />
    <glyph glyph-name="quotedblbase" unicode="&#x201e;" horiz-adv-x="484" 
d="M30 0zM30 -128v294h181v-8l-105 -286h-76zM272 -128v294h181v-8l-105 -286h-76z" />
    <glyph glyph-name="dagger" unicode="&#x2020;" horiz-adv-x="544" 
d="M229 0v524h-183v79h183v125h94v-125h175v-79h-175v-524h-94z" />
    <glyph glyph-name="daggerdbl" unicode="&#x2021;" horiz-adv-x="507" 
d="M209 0v123h-183v81h183v319h-183v79h183v126h94v-126h177v-79h-177v-319h177v-81h-177v-123h-94z" />
    <glyph glyph-name="bullet" unicode="&#x2022;" horiz-adv-x="332" 
d="M45 365q0 25 9 47.5t25 39t38 26t47 9.5t47.5 -9.5t38.5 -26t25.5 -39t9.5 -47.5q0 -26 -9.5 -48.5t-25.5 -39t-38.5 -25.5t-47.5 -9t-47 9t-38 25.5t-25 39t-9 48.5z" />
    <glyph glyph-name="ellipsis" unicode="&#x2026;" horiz-adv-x="1186" 
d="M54 0zM54 0v166h181v-166h-181zM502 0v166h181v-166h-181zM950 0v166h181v-166h-181z" />
    <glyph glyph-name="perthousand" unicode="&#x2030;" horiz-adv-x="1649" 
d="M15 0zM15 601q0 61 29.5 94t96.5 33h233q68 0 97 -33t29 -94v-158q0 -57 -29 -86t-97 -29h-233q-67 0 -96.5 29t-29.5 86v158zM180 613q-18 0 -27 -9t-9 -30v-87q0 -21 9 -30t27 -9h155q18 0 27 9t9 30v87q0 21 -9 30t-27 9h-155zM946 728l-641 -728h-128l641 728h128z
M627 273q0 61 29.5 94t96.5 33h233q68 0 97 -33t29 -94v-158q0 -57 -29 -86t-97 -29h-233q-67 0 -96.5 29t-29.5 86v158zM792 285q-18 0 -27 -9t-9 -30v-87q0 -21 9 -30t27 -9h155q18 0 27 9t9 30v87q0 21 -9 30t-27 9h-155zM1142 273q0 61 29.5 94t96.5 33h233q68 0 97 -33
t29 -94v-158q0 -57 -29 -86t-97 -29h-233q-67 0 -96.5 29t-29.5 86v158zM1307 285q-18 0 -27 -9t-9 -30v-87q0 -21 9 -30t27 -9h155q18 0 27 9t9 30v87q0 21 -9 30t-27 9h-155z" />
    <glyph glyph-name="guilsinglleft" unicode="&#x2039;" horiz-adv-x="234" 
d="M207 118h-8l-172 128v93l172 127h8v-348z" />
    <glyph glyph-name="guilsinglright" unicode="&#x203a;" horiz-adv-x="234" 
d="M27 466h8l172 -127v-93l-172 -128h-8v348z" />
    <glyph glyph-name="fraction" unicode="&#x2044;" horiz-adv-x="276" 
d="M523 728l-641 -728h-128l641 728h128z" />
    <glyph glyph-name="zerosuperior" unicode="&#x2070;" horiz-adv-x="554" 
d="M34 328zM34 601q0 61 29.5 94t96.5 33h233q68 0 97 -33t29 -94v-158q0 -57 -29 -86t-97 -29h-233q-67 0 -96.5 29t-29.5 86v158zM199 613q-18 0 -27 -9t-9 -30v-87q0 -21 9 -30t27 -9h155q18 0 27 9t9 30v87q0 21 -9 30t-27 9h-155z" />
    <glyph glyph-name="foursuperior" unicode="&#x2074;" horiz-adv-x="533" 
d="M29 328zM365 328v74h-304q-32 0 -32 29v92q0 23 21 37l253 159q9 5 15.5 7t17.5 2h132q26 0 26 -28v-372h-129zM285 581q-23 -13 -51.5 -29t-63.5 -35v-5q17 1 38.5 1.5t46.5 0.5h50l55 -99h5v208h-8z" />
    <glyph glyph-name="fivesuperior" unicode="&#x2075;" horiz-adv-x="560" 
d="M38 328zM435 566q90 -6 90 -82v-52q0 -104 -121 -104h-361v118h328q16 0 16 13v16q0 14 -13 15l-307 21q-29 2 -29 34v163q0 20 23 20h441q16 0 16 -16v-84l-122 -45h-8v40q0 6 -4 6h-213q-10 0 -10 -9v-26q0 -10 9 -10z" />
    <glyph glyph-name="sixsuperior" unicode="&#x2076;" horiz-adv-x="554" 
d="M34 328zM163 578h261q95 0 95 -90v-57q0 -103 -102 -103h-265q-118 0 -118 122v158q0 120 123 120h339q16 0 16 -16v-83l-114 -34h-8v23q0 8 -8 8h-179q-40 0 -40 -36v-12zM198 486l-30 79h-5v-104q0 -26 23 -26h185q19 0 19 20v12q0 19 -19 19h-173z" />
    <glyph glyph-name="sevensuperior" unicode="&#x2077;" horiz-adv-x="548" 
d="M15 328zM524 668q0 -25 -17 -51l-180 -289h-151v8l137 209l24 36t26 35v7q-21 -2 -44 -3t-48 -1h-217l-39 101v8h491q18 0 18 -18v-42z" />
    <glyph glyph-name="eightsuperior" unicode="&#x2078;" horiz-adv-x="553" 
d="M34 328zM143 328q-109 0 -109 106v33q0 53 37 68q-27 19 -27 65v28q0 100 102 100h260q103 0 103 -100v-28q0 -46 -27 -65q36 -15 36 -68v-33q0 -106 -108 -106h-267zM187 490q-22 0 -22 -21v-12q0 -21 22 -21h179q22 0 22 21v12q0 21 -22 21h-179zM188 624
q-23 0 -23 -21v-10q0 -22 23 -22h175q25 0 25 22v10q0 21 -25 21h-175z" />
    <glyph glyph-name="ninesuperior" unicode="&#x2079;" horiz-adv-x="552" 
d="M33 328zM362 446q27 0 27 24v19h-271q-85 0 -85 98v51q0 90 98 90h261q126 0 126 -116v-166q0 -118 -121 -118h-357v118h322zM385 502h4v100q0 26 -25 26h-180q-13 0 -17.5 -4.5t-4.5 -18.5v-6q0 -13 4.5 -18t17.5 -5h170z" />
    <glyph glyph-name="zeroinferior" unicode="&#x2080;" horiz-adv-x="554" 
d="M34 273q0 61 29.5 94t96.5 33h233q68 0 97 -33t29 -94v-158q0 -57 -29 -86t-97 -29h-233q-67 0 -96.5 29t-29.5 86v158zM199 285q-18 0 -27 -9t-9 -30v-87q0 -21 9 -30t27 -9h155q18 0 27 9t9 30v87q0 21 -9 30t-27 9h-155z" />
    <glyph glyph-name="oneinferior" unicode="&#x2081;" horiz-adv-x="290" 
d="M56 285l-41 107v8h137q30 0 48.5 -5.5t29.5 -18t15 -32.5t4 -48v-296h-128v259q0 14 -4.5 20t-20.5 6h-40z" />
    <glyph glyph-name="twoinferior" unicode="&#x2082;" horiz-adv-x="543" 
d="M358 256q14 5 14 15v7q0 13 -16 13h-286l-38 101v8h378q97 0 97 -91v-38q0 -21 -3 -36t-10 -25t-19.5 -16.5t-31.5 -11.5l-110 -31q-23 -7 -54.5 -14.5t-71.5 -17.5v-7q76 6 135 6h161v-118h-444q-18 0 -18 23v109q0 26 23 34z" />
    <glyph glyph-name="threeinferior" unicode="&#x2083;" horiz-adv-x="529" 
d="M66 294l-39 98v8h355q103 0 103 -94v-34q0 -38 -27 -65q37 -24 37 -68v-33q0 -106 -109 -106h-343v118h297q24 0 24 21v11q0 18 -22 18h-225l-28 75v8h257q18 0 18 16v13q0 14 -17 14h-281z" />
    <glyph glyph-name="fourinferior" unicode="&#x2084;" horiz-adv-x="533" 
d="M365 0v74h-304q-32 0 -32 29v92q0 23 21 37l253 159q9 5 15.5 7t17.5 2h132q26 0 26 -28v-372h-129zM285 253q-23 -13 -51.5 -29t-63.5 -35v-5q17 1 38.5 1.5t46.5 0.5h50l55 -99h5v208h-8z" />
    <glyph glyph-name="fiveinferior" unicode="&#x2085;" horiz-adv-x="560" 
d="M435 238q90 -6 90 -82v-52q0 -104 -121 -104h-361v118h328q16 0 16 13v16q0 14 -13 15l-307 21q-29 2 -29 34v163q0 20 23 20h441q16 0 16 -16v-84l-122 -45h-8v40q0 6 -4 6h-213q-10 0 -10 -9v-26q0 -10 9 -10z" />
    <glyph glyph-name="sixinferior" unicode="&#x2086;" horiz-adv-x="554" 
d="M163 250h261q95 0 95 -90v-57q0 -103 -102 -103h-265q-118 0 -118 122v158q0 120 123 120h339q16 0 16 -16v-83l-114 -34h-8v23q0 8 -8 8h-179q-40 0 -40 -36v-12zM198 158l-30 79h-5v-104q0 -26 23 -26h185q19 0 19 20v12q0 19 -19 19h-173z" />
    <glyph glyph-name="seveninferior" unicode="&#x2087;" horiz-adv-x="548" 
d="M524 340q0 -25 -17 -51l-180 -289h-151v8l137 209l24 36t26 35v7q-21 -2 -44 -3t-48 -1h-217l-39 101v8h491q18 0 18 -18v-42z" />
    <glyph glyph-name="eightinferior" unicode="&#x2088;" horiz-adv-x="553" 
d="M143 0q-109 0 -109 106v33q0 53 37 68q-27 19 -27 65v28q0 100 102 100h260q103 0 103 -100v-28q0 -46 -27 -65q36 -15 36 -68v-33q0 -106 -108 -106h-267zM187 162q-22 0 -22 -21v-12q0 -21 22 -21h179q22 0 22 21v12q0 21 -22 21h-179zM188 296q-23 0 -23 -21v-10
q0 -22 23 -22h175q25 0 25 22v10q0 21 -25 21h-175z" />
    <glyph glyph-name="nineinferior" unicode="&#x2089;" horiz-adv-x="552" 
d="M362 118q27 0 27 24v19h-271q-85 0 -85 98v51q0 90 98 90h261q126 0 126 -116v-166q0 -118 -121 -118h-357v118h322zM385 174h4v100q0 26 -25 26h-180q-13 0 -17.5 -4.5t-4.5 -18.5v-6q0 -13 4.5 -18t17.5 -5h170z" />
    <glyph glyph-name="Euro" unicode="&#x20ac;" horiz-adv-x="819" 
d="M11 429v7h84v58q0 116 53 175t170 59h340l54 -167v-9h-347q-35 0 -53.5 -19t-18.5 -52v-45h450l34 -107v-7h-484v-72q0 -31 18.5 -48.5t53.5 -17.5h420v-184h-467q-117 0 -170 56.5t-53 170.5v95h-50z" />
    <glyph glyph-name="uni20B9" unicode="&#x20b9;" horiz-adv-x="842" 
d="M10 721v7h732l32 -108v-7h-103q10 -15 14 -39t6 -48h108l32 -107v-7h-138v-19q0 -56 -12.5 -96t-39 -65t-68.5 -36.5t-102 -11.5h-58v-9l83 -167v-8h-214l-144 310v10h272q42 0 59.5 13.5t17.5 51.5v27h-378l-34 107v7h412v27q0 36 -15 48t-50 12h-377z" />
    <glyph glyph-name="uni20BA" unicode="&#x20ba;" horiz-adv-x="916" 
d="M88 570v158h208v-89l168 59l32 -97v-8l-200 -70v-104l168 59l32 -98v-7l-200 -70v-113h281q63 0 88.5 27t25.5 90v26h197v-44q0 -66 -16 -119.5t-51.5 -91t-92 -58t-137.5 -20.5h-503v234l-38 -13l-31 97v8l69 24v105l-38 -13l-31 96v8z" />
    <glyph glyph-name="uni20BD" unicode="&#x20bd;" horiz-adv-x="929" 
d="M21 174v7h107v71h-45l-62 134v9h107v303q0 30 30 30h514q115 0 166.5 -50t51.5 -153v-77q0 -47 -11 -83.5t-37 -61.5t-68.5 -38t-105.5 -13h-334v-71h457l34 -108v-7h-491v-66h-206v66h-73zM347 546q-13 0 -13 -14v-137h298q26 0 38.5 15.5t12.5 43.5v39q0 23 -12.5 38
t-38.5 15h-285z" />
    <glyph glyph-name="trademark" unicode="&#x2122;" horiz-adv-x="771" 
d="M106 375v275h-74v78h218v-78h-71v-275h-73zM647 375v285l-76 -285h-115l-82 285v-285h-79v353h149l71 -289l67 289h144v-353h-79z" />
    <glyph glyph-name="onethird" unicode="&#x2153;" horiz-adv-x="1058" 
d="M35 0zM97 613l-41 107v8h137q30 0 48.5 -5.5t29.5 -18t15 -32.5t4 -48v-296h-128v259q0 14 -4.5 20t-20.5 6h-40zM804 728l-641 -728h-128l641 728h128zM593 294l-39 98v8h355q103 0 103 -94v-34q0 -38 -27 -65q37 -24 37 -68v-33q0 -106 -109 -106h-343v118h297
q24 0 24 21v11q0 18 -22 18h-225l-28 75v8h257q18 0 18 16v13q0 14 -17 14h-281z" />
    <glyph glyph-name="twothirds" unicode="&#x2154;" horiz-adv-x="1273" 
d="M35 0zM361 584q14 5 14 15v7q0 13 -16 13h-286l-38 101v8h378q97 0 97 -91v-38q0 -21 -3 -36t-10 -25t-19.5 -16.5t-31.5 -11.5l-110 -31q-23 -7 -54.5 -14.5t-71.5 -17.5v-7q76 6 135 6h161v-118h-444q-18 0 -18 23v109q0 26 23 34zM1019 728l-641 -728h-128l641 728
h128zM808 294l-39 98v8h355q103 0 103 -94v-34q0 -38 -27 -65q37 -24 37 -68v-33q0 -106 -109 -106h-343v118h297q24 0 24 21v11q0 18 -22 18h-225l-28 75v8h257q18 0 18 16v13q0 14 -17 14h-281z" />
    <glyph glyph-name="uni2155" unicode="&#x2155;" horiz-adv-x="1080" 
d="M35 0zM97 613l-41 107v8h137q30 0 48.5 -5.5t29.5 -18t15 -32.5t4 -48v-296h-128v259q0 14 -4.5 20t-20.5 6h-40zM804 728l-641 -728h-128l641 728h128zM954 238q90 -6 90 -82v-52q0 -104 -121 -104h-361v118h328q16 0 16 13v16q0 14 -13 15l-307 21q-29 2 -29 34v163
q0 20 23 20h441q16 0 16 -16v-84l-122 -45h-8v40q0 6 -4 6h-213q-10 0 -10 -9v-26q0 -10 9 -10z" />
    <glyph glyph-name="uni2156" unicode="&#x2156;" horiz-adv-x="1301" 
d="M35 0zM361 584q14 5 14 15v7q0 13 -16 13h-286l-38 101v8h378q97 0 97 -91v-38q0 -21 -3 -36t-10 -25t-19.5 -16.5t-31.5 -11.5l-110 -31q-23 -7 -54.5 -14.5t-71.5 -17.5v-7q76 6 135 6h161v-118h-444q-18 0 -18 23v109q0 26 23 34zM1019 728l-641 -728h-128l641 728
h128zM1175 238q90 -6 90 -82v-52q0 -104 -121 -104h-361v118h328q16 0 16 13v16q0 14 -13 15l-307 21q-29 2 -29 34v163q0 20 23 20h441q16 0 16 -16v-84l-122 -45h-8v40q0 6 -4 6h-213q-10 0 -10 -9v-26q0 -10 9 -10z" />
    <glyph glyph-name="uni2157" unicode="&#x2157;" horiz-adv-x="1261" 
d="M35 0zM74 622l-39 98v8h355q103 0 103 -94v-34q0 -38 -27 -65q37 -24 37 -68v-33q0 -106 -109 -106h-343v118h297q24 0 24 21v11q0 18 -22 18h-225l-28 75v8h257q18 0 18 16v13q0 14 -17 14h-281zM980 728l-641 -728h-128l641 728h128zM1135 238q90 -6 90 -82v-52
q0 -104 -121 -104h-361v118h328q16 0 16 13v16q0 14 -13 15l-307 21q-29 2 -29 34v163q0 20 23 20h441q16 0 16 -16v-84l-122 -45h-8v40q0 6 -4 6h-213q-10 0 -10 -9v-26q0 -10 9 -10z" />
    <glyph glyph-name="uni2158" unicode="&#x2158;" horiz-adv-x="1296" 
d="M35 0zM371 328v74h-304q-32 0 -32 29v92q0 23 21 37l253 159q9 5 15.5 7t17.5 2h132q26 0 26 -28v-372h-129zM291 581q-23 -13 -51.5 -29t-63.5 -35v-5q17 1 38.5 1.5t46.5 0.5h50l55 -99h5v208h-8zM1012 728l-641 -728h-128l641 728h128zM1170 238q90 -6 90 -82v-52
q0 -104 -121 -104h-361v118h328q16 0 16 13v16q0 14 -13 15l-307 21q-29 2 -29 34v163q0 20 23 20h441q16 0 16 -16v-84l-122 -45h-8v40q0 6 -4 6h-213q-10 0 -10 -9v-26q0 -10 9 -10z" />
    <glyph glyph-name="uni2159" unicode="&#x2159;" horiz-adv-x="1041" 
d="M35 0zM97 613l-41 107v8h137q30 0 48.5 -5.5t29.5 -18t15 -32.5t4 -48v-296h-128v259q0 14 -4.5 20t-20.5 6h-40zM804 728l-641 -728h-128l641 728h128zM649 250h261q95 0 95 -90v-57q0 -103 -102 -103h-265q-118 0 -118 122v158q0 120 123 120h339q16 0 16 -16v-83
l-114 -34h-8v23q0 8 -8 8h-179q-40 0 -40 -36v-12zM684 158l-30 79h-5v-104q0 -26 23 -26h185q19 0 19 20v12q0 19 -19 19h-173z" />
    <glyph glyph-name="uni215A" unicode="&#x215a;" horiz-adv-x="1228" 
d="M35 0zM432 566q90 -6 90 -82v-52q0 -104 -121 -104h-361v118h328q16 0 16 13v16q0 14 -13 15l-307 21q-29 2 -29 34v163q0 20 23 20h441q16 0 16 -16v-84l-122 -45h-8v40q0 6 -4 6h-213q-10 0 -10 -9v-26q0 -10 9 -10zM1000 728l-641 -728h-128l641 728h128zM836 250h261
q95 0 95 -90v-57q0 -103 -102 -103h-265q-118 0 -118 122v158q0 120 123 120h339q16 0 16 -16v-83l-114 -34h-8v23q0 8 -8 8h-179q-40 0 -40 -36v-12zM871 158l-30 79h-5v-104q0 -26 23 -26h185q19 0 19 20v12q0 19 -19 19h-173z" />
    <glyph glyph-name="oneeighth" unicode="&#x215b;" horiz-adv-x="1041" 
d="M35 0zM97 613l-41 107v8h137q30 0 48.5 -5.5t29.5 -18t15 -32.5t4 -48v-296h-128v259q0 14 -4.5 20t-20.5 6h-40zM804 728l-641 -728h-128l641 728h128zM630 0q-109 0 -109 106v33q0 53 37 68q-27 19 -27 65v28q0 100 102 100h260q103 0 103 -100v-28q0 -46 -27 -65
q36 -15 36 -68v-33q0 -106 -108 -106h-267zM674 162q-22 0 -22 -21v-12q0 -21 22 -21h179q22 0 22 21v12q0 21 -22 21h-179zM675 296q-23 0 -23 -21v-10q0 -22 23 -22h175q25 0 25 22v10q0 21 -25 21h-175z" />
    <glyph glyph-name="threeeighths" unicode="&#x215c;" horiz-adv-x="1216" 
d="M35 0zM74 622l-39 98v8h355q103 0 103 -94v-34q0 -38 -27 -65q37 -24 37 -68v-33q0 -106 -109 -106h-343v118h297q24 0 24 21v11q0 18 -22 18h-225l-28 75v8h257q18 0 18 16v13q0 14 -17 14h-281zM980 728l-641 -728h-128l641 728h128zM805 0q-109 0 -109 106v33
q0 53 37 68q-27 19 -27 65v28q0 100 102 100h260q103 0 103 -100v-28q0 -46 -27 -65q36 -15 36 -68v-33q0 -106 -108 -106h-267zM849 162q-22 0 -22 -21v-12q0 -21 22 -21h179q22 0 22 21v12q0 21 -22 21h-179zM850 296q-23 0 -23 -21v-10q0 -22 23 -22h175q25 0 25 22v10
q0 21 -25 21h-175z" />
    <glyph glyph-name="fiveeighths" unicode="&#x215d;" horiz-adv-x="1222" 
d="M35 0zM432 566q90 -6 90 -82v-52q0 -104 -121 -104h-361v118h328q16 0 16 13v16q0 14 -13 15l-307 21q-29 2 -29 34v163q0 20 23 20h441q16 0 16 -16v-84l-122 -45h-8v40q0 6 -4 6h-213q-10 0 -10 -9v-26q0 -10 9 -10zM1000 728l-641 -728h-128l641 728h128zM811 0
q-109 0 -109 106v33q0 53 37 68q-27 19 -27 65v28q0 100 102 100h260q103 0 103 -100v-28q0 -46 -27 -65q36 -15 36 -68v-33q0 -106 -108 -106h-267zM855 162q-22 0 -22 -21v-12q0 -21 22 -21h179q22 0 22 21v12q0 21 -22 21h-179zM856 296q-23 0 -23 -21v-10q0 -22 23 -22
h175q25 0 25 22v10q0 21 -25 21h-175z" />
    <glyph glyph-name="seveneighths" unicode="&#x215e;" horiz-adv-x="1175" 
d="M35 0zM544 668q0 -25 -17 -51l-180 -289h-151v8l137 209l24 36t26 35v7q-21 -2 -44 -3t-48 -1h-217l-39 101v8h491q18 0 18 -18v-42zM941 728l-641 -728h-128l641 728h128zM764 0q-109 0 -109 106v33q0 53 37 68q-27 19 -27 65v28q0 100 102 100h260q103 0 103 -100v-28
q0 -46 -27 -65q36 -15 36 -68v-33q0 -106 -108 -106h-267zM808 162q-22 0 -22 -21v-12q0 -21 22 -21h179q22 0 22 21v12q0 21 -22 21h-179zM809 296q-23 0 -23 -21v-10q0 -22 23 -22h175q25 0 25 22v10q0 21 -25 21h-175z" />
    <glyph glyph-name="partialdiff" unicode="&#x2202;" horiz-adv-x="652" 
d="M292 470q63 0 113.5 -24t76.5 -65q2 11 2.5 21t0.5 26q0 94 -48.5 143.5t-128.5 49.5q-12 0 -22.5 -1.5t-20.5 -3.5v114q14 2 31 4t35 2q55 0 106.5 -17.5t91 -56t63 -101t23.5 -152.5q0 -78 -14.5 -154t-50 -136t-94 -97t-145.5 -37q-142 0 -208.5 60.5t-66.5 172.5
q0 68 18.5 116t52.5 78t81 44t104 14zM300 95q140 0 161 179q-8 18 -20 33t-30.5 26t-45 17t-64.5 6q-60 0 -94.5 -32.5t-34.5 -107.5q0 -60 35.5 -90.5t92.5 -30.5z" />
    <glyph glyph-name="product" unicode="&#x220f;" horiz-adv-x="633" 
d="M468 -142v830h-303v-830h-115v922h533v-922h-115z" />
    <glyph glyph-name="summation" unicode="&#x2211;" horiz-adv-x="665" 
d="M42 -142v19l322 441l-322 443v19h582v-112h-368l244 -350l-244 -350h368v-110h-582z" />
    <glyph glyph-name="minus" unicode="&#x2212;" 
d="M46 324v103h558v-103h-558z" />
    <glyph glyph-name="radical" unicode="&#x221a;" horiz-adv-x="629" 
d="M279 0l-105 370h-127v114h209l82 -319h9l129 563h119l-191 -728h-125z" />
    <glyph glyph-name="infinity" unicode="&#x221e;" horiz-adv-x="891" 
d="M660 601q39 0 73 -14.5t59 -43t39 -71.5t14 -99q0 -55 -14 -97.5t-39 -71t-58.5 -43.5t-73.5 -15q-39 0 -71 8.5t-59 24.5t-49 37t-42 47q-34 -51 -85.5 -84t-129.5 -33q-41 0 -75 15t-59.5 43.5t-39.5 71t-14 97.5q0 56 14.5 99t40 71.5t59.5 43t74 14.5q39 0 70 -8.5
t56.5 -24.5t47 -37.5t41.5 -48.5q21 27 43.5 48.5t49 37.5t58 24.5t70.5 8.5zM389 369q-16 21 -31.5 38t-33 30t-37.5 20t-45 7q-48 0 -70 -25.5t-22 -65.5q0 -46 21 -70.5t71 -24.5q26 0 47.5 8t39.5 20.5t33 29t27 33.5zM493 369q13 -17 27.5 -33.5t32.5 -29t39 -20.5
t47 -8q51 0 72.5 24.5t21.5 70.5q0 40 -22 65.5t-72 25.5q-47 0 -81.5 -27t-64.5 -68z" />
    <glyph glyph-name="integral" unicode="&#x222b;" horiz-adv-x="458" 
d="M46 -121q15 -5 27.5 -6t26.5 -1q32 0 47 13t15 44v703q0 77 38 112.5t118 35.5q24 0 47.5 -1.5t46.5 -9.5v-91q-15 3 -28.5 4t-27.5 1q-32 0 -46.5 -12t-14.5 -44v-703q0 -77 -38.5 -112.5t-118.5 -36.5q-25 0 -48 2t-44 10v92z" />
    <glyph glyph-name="approxequal" unicode="&#x2248;" 
d="M45 106zM443 366q-33 0 -64.5 12t-62 27t-62 27t-65.5 12q-42 0 -72.5 -15.5t-61.5 -59.5h-10v114q22 29 55 45t87 16q39 0 73 -12.5t65 -28t60.5 -28t58.5 -12.5q48 0 83.5 18t66.5 61h9v-115q-56 -61 -160 -61zM444 106q-33 0 -64.5 12t-62 27t-62 27t-65.5 12
q-42 0 -72.5 -15.5t-61.5 -59.5h-10v114q22 29 55 45t87 16q39 0 73 -12.5t65 -28t60.5 -28t58.5 -12.5q48 0 83.5 18t66.5 61h9v-115q-56 -61 -160 -61z" />
    <glyph glyph-name="notequal" unicode="&#x2260;" 
d="M448 446l-103 -143h259v-104h-333l-143 -199h-128l142 199h-96v104h171l102 143h-273v104h348l128 178h128l-128 -178h82v-104h-156z" />
    <glyph glyph-name="lessequal" unicode="&#x2264;" 
d="M45 0zM603 185l-558 231v78l558 232v-111l-385 -159l385 -161v-110zM46 0v103h558v-103h-558z" />
    <glyph glyph-name="greaterequal" unicode="&#x2265;" 
d="M45 0zM45 295l384 161l-384 159v111l558 -232v-78l-558 -231v110zM46 0v103h558v-103h-558z" />
    <glyph glyph-name="lozenge" unicode="&#x25ca;" horiz-adv-x="634" 
d="M309 0l-260 363l260 365h17l259 -365l-259 -363h-17zM179 363l142 -207l135 207l-143 206z" />
    <glyph glyph-name="nonmarkingreturn" horiz-adv-x="417" 
 />
    <glyph glyph-name=".null" horiz-adv-x="0" 
 />
    <glyph glyph-name=".ttfautohint" horiz-adv-x="0" 
d="M0 0z" />
    </font>
</defs>
</svg>
