<?xml version="1.0" standalone="no"?>
<!DOCTYPE svg PUBLIC "-//W3C//DTD SVG 1.1//EN" "http://www.w3.org/Graphics/SVG/1.1/DTD/svg11.dtd" >
<svg xmlns="http://www.w3.org/2000/svg" xmlns:xlink="http://www.w3.org/1999/xlink" version="1.1">
<metadata>
Created by FontForge 20170910 at Sat Oct 31 15:43:52 2009
 By Jimmy Wärting
Copyright 2006, 2009 for TeX Gyre extensions by B. Jackowski and J.M. Nowacki (on behalf of TeX users groups). This work is released under the GUST Font License --  see http://tug.org/fonts/licenses/GUST-FONT-LICENSE.txt for details.
</metadata>
<defs>
<font id="TeXGyreBonum-Regular" horiz-adv-x="620" >
  <font-face 
    font-family="TeXGyreBonum"
    font-weight="400"
    font-stretch="normal"
    units-per-em="1000"
    panose-1="0 0 5 0 0 0 0 0 0 0"
    ascent="772"
    descent="-228"
    x-height="485"
    cap-height="681"
    bbox="-470 -268 1659 1069"
    underline-thickness="60"
    underline-position="-95"
    stemh="30"
    stemv="95"
    unicode-range="U+0020-FB04"
  />
<missing-glyph horiz-adv-x="280" 
 />
    <glyph glyph-name="f_f" unicode="ff" horiz-adv-x="700" 
d="M763 677c0 -24 -21 -43 -46 -43c-18 0 -32 9 -46 28c-15 19 -30 29 -47 29c-28 0 -73 -18 -73 -100v-106h99v-33h-99v-337c0 -55 18 -78 62 -83l25 -2v-30h-269v30l25 2c44 5 62 28 62 83v337h-224v-337c0 -55 18 -78 62 -83l25 -2v-30h-269v30l25 2c44 5 62 28 62 83
v337h-84v33h84v47c0 187 179 202 221 202c49 0 86 -24 86 -57c0 -23 -22 -43 -46 -43c-18 0 -32 9 -46 28c-15 19 -30 29 -47 29c-28 0 -73 -18 -73 -100v-106h224v47c0 187 179 202 221 202c49 0 86 -24 86 -57z" />
    <glyph glyph-name="f_f_i" unicode="&#xfb00;i" horiz-adv-x="1000" 
d="M957 0h-269v30l25 2c44 5 62 28 62 83v232c0 84 -18 105 -91 105h-133v-337c0 -55 18 -78 62 -83l25 -2v-30h-269v30l25 2c44 5 62 28 62 83v337h-224v-337c0 -55 18 -78 62 -83l25 -2v-30h-269v30l25 2c44 5 62 28 62 83v337h-84v33h84v47c0 187 179 202 221 202
c49 0 86 -24 86 -57c0 -23 -22 -43 -46 -43c-18 0 -32 9 -46 28c-15 19 -30 29 -47 29c-28 0 -73 -18 -73 -100v-106h224v38c0 98 29 211 221 211c70 0 125 -21 165 -62c21 -22 30 -42 30 -64c0 -29 -21 -50 -50 -50c-19 0 -36 9 -45 25c-8 13 -8 13 -9 55
c-1 34 -47 64 -97 64c-133 0 -120 -126 -120 -155v-62h319v-370c0 -55 18 -78 62 -83l25 -2v-30z" />
    <glyph glyph-name="f_f_l" unicode="ffl" horiz-adv-x="1000" 
d="M955 0h-269v30l25 2c44 5 62 28 62 83v448c0 91 -20 139 -103 139c-132 0 -119 -131 -119 -155v-62h101v-33h-101v-337c0 -55 18 -78 62 -83l25 -2v-30h-269v30l25 2c44 5 62 28 62 83v337h-224v-337c0 -55 18 -78 62 -83l25 -2v-30h-269v30l25 2c44 5 62 28 62 83v337
h-84v33h84v47c0 187 179 202 221 202c49 0 86 -24 86 -57c0 -23 -22 -43 -46 -43c-18 0 -32 9 -46 28c-15 19 -30 29 -47 29c-28 0 -73 -18 -73 -100v-106h224v37c0 96 28 212 216 212c46 0 75 -3 196 -21v-598c0 -55 18 -78 62 -83l25 -2v-30z" />
    <glyph glyph-name="f_i" unicode="fi" 
d="M608 0h-269v30l25 2c44 5 62 28 62 83v232c0 84 -18 105 -91 105h-133v-337c0 -55 18 -78 62 -83l25 -2v-30h-269v30l25 2c44 5 62 28 62 83v337h-85v33h85v38c0 98 29 211 221 211c70 0 125 -21 165 -62c21 -22 30 -42 30 -64c0 -29 -21 -50 -50 -50c-19 0 -36 9 -45 25
c-8 13 -8 13 -9 55c-1 34 -47 64 -97 64c-133 0 -120 -126 -120 -155v-62h319v-370c0 -55 18 -78 62 -83l25 -2v-30z" />
    <glyph glyph-name="f_l" unicode="fl" 
d="M606 0h-269v30l25 2c44 5 62 28 62 83v448c0 35 -6 79 -12 93c-12 26 -51 46 -91 46c-132 0 -119 -131 -119 -155v-62h101v-33h-101v-337c0 -55 18 -78 62 -83l25 -2v-30h-269v30l25 2c44 5 62 28 62 83v337h-85v33h85v37c0 96 28 212 216 212c46 0 75 -3 196 -21v-598
c0 -55 18 -78 62 -83l25 -2v-30z" />
    <glyph glyph-name="I_J" unicode="IJ" horiz-adv-x="957" 
d="M310 0h-270v31l20 3c54 9 65 27 65 110v393c0 83 -11 101 -65 110l-20 3v31h270v-31l-20 -3c-54 -9 -65 -27 -65 -110v-393c0 -83 11 -101 65 -110l20 -3v-31zM917 650l-25 -3c-52 -7 -65 -28 -65 -110v-277c0 -114 -2 -273 -249 -273c-167 0 -251 108 -251 199
c0 52 32 89 78 89c33 0 55 -21 55 -54c0 -18 -7 -32 -25 -48c-15 -14 -20 -24 -20 -40c0 -53 67 -98 144 -98c164 0 168 123 168 276v226c0 82 -13 103 -65 110l-25 3v31h280v-31z" />
    <glyph glyph-name="i_j" unicode="ij" horiz-adv-x="563" 
d="M308 0h-268v30l25 2c44 5 62 28 62 83v235c0 60 -14 78 -66 83l-20 2v30c53 4 86 9 147 20h34v-370c0 -55 17 -78 62 -83l24 -2v-30zM231 630c0 -32 -27 -59 -59 -59s-59 27 -59 59c0 33 27 59 60 59c31 0 58 -27 58 -59zM523 -47c0 -174 -150 -194 -205 -194
c-64 0 -107 25 -107 61c0 22 21 40 46 40c16 0 27 -6 44 -26c21 -24 32 -30 55 -30c79 0 72 91 72 201v345c0 60 -15 79 -66 83l-24 2v30c56 4 89 8 151 20h34v-532zM532 630c0 -32 -27 -59 -59 -59s-59 27 -59 59c0 33 27 59 60 59c31 0 58 -27 58 -59z" />
    <glyph glyph-name="f_k" unicode="fk" horiz-adv-x="1000" 
d="M977 0h-270v30l27 2c51 5 24 55 3 83l-105 152l-81 -69v-83c0 -54 18 -78 61 -83l26 -2v-30h-269v30l25 2c44 5 62 28 62 83l-2 448c0 91 -20 139 -103 139c-132 0 -119 -131 -119 -155v-62h101v-33h-101v-337c0 -55 18 -78 62 -83l25 -2v-30h-269v30l25 2
c44 5 62 28 62 83v337h-85v33h85v37c0 96 28 212 216 212c66 0 133 -6 198 -17v-468l156 136c43 37 37 66 -29 71v29h266v-30c-86 -13 -131 -33 -192 -87l-45 -40l149 -213c37 -49 75 -75 121 -83v-32z" />
    <glyph glyph-name=".notdef" horiz-adv-x="280" 
 />
    <glyph glyph-name="acute.dup" horiz-adv-x="340" 
d="M294 651c0 -26 -19 -41 -62 -50l-139 -29l-5 14l95 68c29 22 56 34 76 34s35 -16 35 -37z" />
    <glyph glyph-name="AE.dup" horiz-adv-x="1260" 
d="M1250 220l-85 -220h-593v31l25 3c52 7 65 28 65 110v197h-249l-163 -187c-33 -41 -44 -60 -44 -80c0 -27 27 -40 92 -43v-31h-334v31c95 15 151 48 225 133l458 517h494l75 -178l-35 -10c-69 101 -164 145 -310 145c-84 0 -109 -20 -109 -86v-168h69c62 0 119 12 119 119
v9h35v-304h-35v12c0 114 -75 121 -119 121h-69v-222c0 -43 14 -76 113 -76h38c74 0 152 30 208 79c33 29 58 58 95 111zM662 384v244l-208 -244h208z" />
    <glyph glyph-name="ae.dup" horiz-adv-x="860" 
d="M832 259h-361c4 -113 34 -228 169 -228c104 0 152 90 158 100l32 -17c-52 -83 -121 -123 -211 -123c-48 0 -144 12 -214 123c-48 -87 -108 -123 -208 -123c-97 0 -162 49 -162 123c0 70 56 174 335 174v71c0 60 -40 95 -108 95c-62 0 -104 -25 -104 -62v-16
c0 -32 -20 -53 -52 -53c-25 0 -45 19 -45 43c0 69 97 128 212 128c79 0 132 -21 169 -67c57 47 108 67 173 67c74 0 217 -43 217 -213v-22zM370 232v27c-92 -7 -243 -26 -243 -131c0 -52 44 -92 102 -92c60 0 115 39 132 94c8 25 8 28 9 102zM733 292v14
c0 91 -48 148 -124 148c-133 0 -135 -148 -137 -162h261z" />
    <glyph glyph-name="cedilla.dup" horiz-adv-x="320" 
d="M267 -125c0 -51 -47 -95 -102 -95c-52 0 -97 26 -97 56c0 14 11 25 25 25c16 0 24 -6 31 -24c10 -23 19 -25 39 -25c26 0 46 28 46 59c0 33 -20 56 -60 56c-13 0 -26 -3 -47 -10l25 85h31l-13 -45c10 2 14 2 24 2c54 0 98 -38 98 -84z" />
    <glyph glyph-name="circumflex.dup" horiz-adv-x="420" 
d="M352 596l-14 -25l-128 45l-129 -45l-13 25l142 93z" />
    <glyph glyph-name="dieresis.dup" horiz-adv-x="420" 
d="M186 630c0 -32 -27 -59 -59 -59s-59 27 -59 59c0 33 27 59 60 59c31 0 58 -27 58 -59zM349 630c0 -32 -27 -59 -59 -59s-59 27 -59 59c0 33 27 59 60 59c31 0 58 -27 58 -59z" />
    <glyph glyph-name="l.script.dup" horiz-adv-x="475" 
d="M435 94c0 -63 -59 -107 -126 -107c-98 0 -161 72 -193 171c-22 -7 -46 -13 -70 -16l-6 39c23 4 44 9 65 16c-10 44 -15 92 -15 140c0 179 65 357 219 357c62 0 106 -59 106 -126c0 -162 -90 -305 -225 -379c10 -90 38 -162 119 -162c44 0 86 26 86 67h40zM375 568
c0 44 -25 86 -66 86c-125 0 -125 -171 -125 -317c0 -34 0 -69 2 -104c114 69 189 194 189 335z" />
    <glyph glyph-name="Gcedilla" horiz-adv-x="800" 
d="M778 293l-18 -3c-45 -8 -65 -18 -65 -110v-180h-47l-32 69c-75 -58 -141 -82 -227 -82c-197 0 -345 153 -345 356c0 221 171 351 335 351c69 0 137 -21 195 -61l20 48h31l61 -212l-38 -11c-46 65 -72 96 -105 124c-52 43 -104 64 -158 64c-134 0 -223 -124 -223 -310
c0 -180 97 -301 241 -301c67 0 200 33 200 165c0 61 -25 85 -98 94v30h273v-31zM451 -132c0 -57 -36 -107 -98 -136l-11 22c42 27 59 53 62 92c-14 -11 -21 -14 -31 -14c-32 0 -54 24 -54 57s28 61 62 61c39 0 70 -37 70 -82z" />
    <glyph glyph-name="gcedilla" horiz-adv-x="540" 
d="M338 654c0 -33 -28 -61 -62 -61c-39 0 -70 37 -70 82c0 57 36 107 98 136l11 -22c-42 -27 -59 -53 -62 -92c14 11 21 14 31 14c32 0 54 -24 54 -57zM542 520c0 -22 -16 -38 -38 -38c-26 0 -34 19 -53 19c-17 0 -33 -13 -53 -43c52 -35 83 -87 83 -142
c0 -65 -45 -168 -210 -168c-34 0 -54 3 -94 16c-29 -15 -46 -35 -46 -53c0 -23 20 -35 65 -41l191 -26c64 -9 151 -24 151 -123c0 -98 -105 -162 -267 -162c-148 0 -254 49 -254 122c0 49 31 81 105 109c-51 18 -73 44 -73 84c0 47 31 78 98 100c-54 37 -81 84 -81 142
c0 99 92 178 206 178c31 0 54 -5 94 -20c17 32 49 89 122 89c32 0 54 -18 54 -43zM379 321c0 95 -33 141 -102 141s-109 -52 -109 -140c0 -96 35 -142 106 -142c84 0 105 64 105 141zM468 -111c0 39 -29 58 -103 67l-205 25c-54 -20 -83 -52 -83 -90c0 -56 79 -95 194 -95
c156 0 197 56 197 93z" />
    <glyph glyph-name="germandbls.dup" horiz-adv-x="660" 
d="M614 216c0 -124 -118 -225 -263 -225c-45 0 -93 12 -134 35l23 38c46 -22 72 -29 103 -29c87 0 169 81 169 167c0 77 -58 98 -131 135l-50 26c-34 18 -43 33 -43 51c0 23 21 39 56 52l27 9c63 23 90 51 90 96c0 51 -37 86 -93 86c-61 0 -152 -35 -152 -224v-267
c0 -244 -160 -276 -224 -276c-37 0 -73 7 -101 20l16 39c41 -15 59 -19 83 -19c52 0 131 30 131 203v319h-84v33h84c45 202 210 209 252 209c98 0 170 -52 170 -123c0 -46 -33 -88 -86 -109l-23 -9c-24 -9 -33 -17 -33 -28c0 -8 9 -16 30 -26l57 -26
c84 -38 126 -91 126 -157z" />
    <glyph glyph-name="hyphen.dup" horiz-adv-x="400" 
d="M350 289l-28 -57h-272l29 57h271z" />
    <glyph glyph-name="Kcedilla" horiz-adv-x="720" 
d="M750 0h-308v31c8 1 15 2 18 2c77 7 71 43 38 96l-161 257l-116 -103v-139c0 -81 15 -106 65 -110l41 -3v-31h-296v31l25 3c52 7 65 28 65 110v393c0 82 -13 103 -65 110l-25 3v31h296v-31l-41 -3c-50 -4 -65 -29 -65 -110v-192l205 184c51 45 59 56 59 79
c0 26 -15 37 -58 41l-10 1v31h286v-31l-7 -2c-43 -8 -98 -40 -159 -92l-120 -105l190 -310c49 -76 75 -96 143 -111v-30zM451 -132c0 -57 -36 -107 -98 -136l-11 22c42 27 59 53 62 92c-14 -11 -21 -14 -31 -14c-32 0 -54 24 -54 57s28 61 62 61c39 0 70 -37 70 -82z" />
    <glyph glyph-name="kcedilla" 
d="M628 0h-270v30l27 2c51 5 24 55 3 83l-105 152l-81 -69v-83c0 -54 18 -78 61 -83l26 -2v-30h-269v30l25 2c44 5 62 28 62 83v423c0 89 -11 107 -65 112l-22 2v31c68 8 91 14 142 34h40v-468l156 136c21 18 27 27 27 39c0 19 -18 29 -56 32v29h266v-30
c-86 -13 -131 -33 -192 -87l-45 -40l149 -213c37 -49 75 -75 121 -83v-32zM390 -132c0 -57 -36 -107 -98 -136l-11 22c42 27 59 53 62 92c-14 -11 -21 -14 -31 -14c-32 0 -54 24 -54 57s28 61 62 61c39 0 70 -37 70 -82z" />
    <glyph glyph-name="Lcedilla" horiz-adv-x="600" 
d="M629 214l-80 -214h-518v31l25 3c52 7 65 28 65 110v393c0 82 -13 103 -65 110l-25 3v31h287v-31l-32 -3c-51 -5 -65 -29 -65 -110v-414c0 -48 8 -85 86 -85c61 0 127 24 184 67c39 29 64 57 110 122zM366 -132c0 -57 -36 -107 -98 -136l-11 22c42 27 59 53 62 92
c-14 -11 -21 -14 -31 -14c-32 0 -54 24 -54 57s28 61 62 61c39 0 70 -37 70 -82z" />
    <glyph glyph-name="lcedilla" horiz-adv-x="300" 
d="M286 0h-266v30l24 2c45 5 62 28 62 83v423c0 89 -11 107 -65 112l-21 2v31c68 8 91 14 141 34h40v-602c0 -55 17 -78 62 -83l23 -2v-30zM220 -132c0 -57 -36 -107 -98 -136l-11 22c42 27 59 53 62 92c-14 -11 -21 -14 -31 -14c-32 0 -54 24 -54 57s28 61 62 61
c39 0 70 -37 70 -82z" />
    <glyph glyph-name="macron.dup" horiz-adv-x="440" 
d="M364 605h-296v50h296v-50z" />
    <glyph glyph-name="Ncedilla" horiz-adv-x="740" 
d="M722 650l-25 -3c-52 -7 -65 -28 -65 -110v-537h-88l-371 606v-462c0 -81 14 -105 65 -110l35 -3v-31h-247v31l25 3c52 7 65 28 65 110v393c0 82 -13 103 -65 110l-25 3v31h223l326 -539v395c0 81 -14 105 -65 110l-35 3v31h247v-31zM440 -132c0 -57 -36 -107 -98 -136
l-11 22c42 27 59 53 62 92c-14 -11 -21 -14 -31 -14c-32 0 -54 24 -54 57s28 61 62 61c39 0 70 -37 70 -82z" />
    <glyph glyph-name="ncedilla" horiz-adv-x="660" 
d="M649 0h-269v30l25 2c44 5 62 28 62 83v231c0 65 -30 100 -85 100c-56 0 -115 -28 -177 -84v-247c0 -55 18 -78 62 -83l25 -2v-30h-269v30l25 2c44 5 62 28 62 83v235c0 60 -15 79 -66 83l-24 2v30c56 4 89 8 151 20h34v-79c71 63 130 88 206 88c94 0 151 -49 151 -132
v-247c0 -55 18 -78 62 -83l25 -2v-30zM402 -132c0 -57 -36 -107 -98 -136l-11 22c42 27 59 53 62 92c-14 -11 -21 -14 -31 -14c-32 0 -54 24 -54 57s28 61 62 61c39 0 70 -37 70 -82z" />
    <glyph glyph-name="OE.dup" horiz-adv-x="1240" 
d="M1214 218l-87 -218h-494v86c-66 -65 -149 -99 -241 -99c-197 0 -348 154 -348 354s152 353 350 353c88 0 171 -32 239 -91v78h465l78 -173l-33 -13c-42 53 -65 75 -99 95c-52 31 -123 48 -199 48c-120 0 -120 -22 -120 -123v-117h48c93 0 143 20 143 111v17h38v-307h-38
v15c0 119 -90 121 -144 121h-47v-212c0 -68 3 -100 128 -100c81 0 156 24 213 66c34 26 64 58 114 124zM629 344c0 179 -96 302 -236 302c-139 0 -231 -118 -231 -297c0 -190 92 -314 232 -314c141 0 235 123 235 309z" />
    <glyph glyph-name="oe.dup" horiz-adv-x="900" 
d="M876 113c-37 -75 -119 -122 -214 -122c-75 0 -137 31 -188 94c-49 -61 -118 -94 -198 -94c-140 0 -239 103 -239 248c0 151 99 255 243 255c76 0 145 -32 194 -90c47 59 113 90 189 90c122 0 213 -86 213 -201h-351c-2 -21 -3 -31 -3 -54c0 -181 106 -208 164 -208
c66 0 117 32 157 98zM423 257c0 134 -48 205 -139 205c-93 0 -145 -79 -145 -220c0 -139 48 -211 142 -211c114 0 142 121 142 226zM776 326c0 80 -46 128 -120 128c-70 0 -113 -42 -129 -128h249z" />
    <glyph glyph-name="Oslash.dup" horiz-adv-x="800" 
d="M758 340c0 -230 -186 -353 -359 -353c-74 0 -132 17 -201 58l-78 -98h-63l103 129c-79 76 -116 159 -116 263c0 200 157 355 361 355c76 0 137 -16 200 -55l75 95h61l-99 -123c82 -83 116 -161 116 -271zM560 582c-50 46 -93 64 -157 64c-149 0 -241 -118 -241 -310
c0 -79 12 -125 51 -193zM640 331c0 89 -13 143 -50 210l-347 -438c47 -48 94 -68 159 -68c144 0 238 117 238 296z" />
    <glyph glyph-name="oslash.dup" horiz-adv-x="560" 
d="M526 241c0 -150 -97 -250 -242 -250c-45 0 -88 9 -117 25l-35 -58h-50l49 79c-62 47 -94 114 -94 199c0 156 96 258 242 258c44 0 89 -9 118 -25l45 74h47l-57 -94c58 -44 94 -123 94 -208zM366 420c-23 24 -48 34 -82 34c-90 0 -145 -81 -145 -215
c0 -55 10 -100 30 -139zM424 236c0 60 -11 115 -31 150l-196 -322c21 -20 55 -33 89 -33c87 0 138 76 138 205z" />
    <glyph glyph-name="quoteleft.dup" horiz-adv-x="220" 
d="M178 536c0 -33 -28 -61 -62 -61c-38 0 -70 37 -70 83c0 57 36 108 98 136l11 -22c-41 -27 -59 -53 -62 -92c14 11 21 14 32 14c31 0 53 -24 53 -58z" />
    <glyph glyph-name="quoteright.dup" horiz-adv-x="220" 
d="M178 612c0 -57 -36 -107 -98 -136l-11 22c42 27 59 53 62 92c-14 -11 -21 -14 -31 -14c-32 0 -54 24 -54 57s28 61 62 61c39 0 70 -37 70 -82z" />
    <glyph glyph-name="Rcedilla" horiz-adv-x="720" 
d="M757 0h-167l-225 321h-144v-177c0 -81 14 -105 65 -110l36 -3v-31h-291v31l25 3c52 7 65 28 65 110v393c0 82 -13 103 -65 110l-25 3v31h407c144 0 231 -65 231 -172c0 -50 -20 -154 -185 -178l166 -235c31 -40 58 -56 107 -65v-31zM561 505c0 90 -64 135 -192 135
c-129 0 -148 -24 -148 -59v-217h168c153 0 172 94 172 141zM431 -132c0 -57 -36 -107 -98 -136l-11 22c42 27 59 53 62 92c-14 -11 -21 -14 -31 -14c-32 0 -54 24 -54 57s28 61 62 61c39 0 70 -37 70 -82z" />
    <glyph glyph-name="rcedilla" horiz-adv-x="440" 
d="M447 438c0 -32 -24 -55 -57 -55c-18 0 -34 5 -51 18c-18 12 -25 15 -42 15c-29 0 -56 -16 -92 -56v-245c0 -55 18 -78 62 -83l25 -2v-30h-269v30l25 2c44 5 62 28 62 83v235c0 60 -15 79 -66 83l-24 2v30c56 4 89 8 151 20h34v-80c38 30 86 89 169 89c43 0 73 -23 73 -56
zM224 -132c0 -57 -36 -107 -98 -136l-11 22c42 27 59 53 62 92c-14 -11 -21 -14 -31 -14c-32 0 -54 24 -54 57s28 61 62 61c39 0 70 -37 70 -82z" />
    <glyph glyph-name="tilde.dup" horiz-adv-x="440" 
d="M375 659c-15 -50 -42 -72 -90 -72c-24 0 -46 4 -95 18c-31 8 -40 10 -54 10c-15 0 -26 -5 -39 -20l-29 10c13 41 47 68 86 68c23 0 44 -4 95 -18c24 -7 36 -9 49 -9c20 0 37 8 48 22z" />
    <glyph glyph-name="A" unicode="A" horiz-adv-x="680" 
d="M714 0h-281v31c83 12 90 31 68 93l-50 129h-258l-32 -86c-22 -56 -30 -96 6 -120c11 -7 28 -11 64 -16v-31h-268v31l11 2c67 13 83 36 150 207l172 441h93l212 -536c36 -93 48 -104 113 -114v-31zM433 296l-114 300l-111 -300h225z" />
    <glyph glyph-name="a" unicode="a" horiz-adv-x="580" 
d="M587 30c-28 -27 -61 -39 -103 -39c-59 0 -93 23 -112 77c-67 -56 -116 -77 -183 -77c-89 0 -154 52 -154 124c0 141 233 158 337 169v80c0 55 -45 90 -116 90c-56 0 -101 -23 -101 -52l1 -28c0 -28 -23 -51 -51 -51c-26 0 -48 20 -48 44c0 77 120 127 218 127
c81 0 192 -28 192 -148v-212c0 -48 1 -98 56 -98c17 0 28 5 45 20zM372 113v136c-151 -13 -235 -57 -235 -124c0 -48 39 -86 87 -86c50 0 92 21 148 74z" />
    <glyph glyph-name="ampersand" unicode="&#x26;" horiz-adv-x="800" 
d="M787 0h-97c-70 0 -116 0 -164 77c-76 -67 -132 -90 -217 -90c-147 0 -264 87 -264 213c0 82 54 167 193 208c-48 44 -70 88 -70 142c0 81 79 144 179 144c87 0 151 -55 151 -129c0 -66 -55 -129 -139 -157c65 -50 141 -130 200 -210c32 57 48 112 48 167
c0 40 -13 50 -81 63v30h240v-30c-84 -16 -92 -25 -117 -132c-17 -65 -33 -104 -62 -148c61 -88 96 -111 168 -111c9 0 20 0 32 1v-38zM428 572c0 48 -36 82 -86 82c-49 0 -86 -38 -86 -87c0 -42 19 -77 69 -128c46 21 103 53 103 133zM505 119c-77 113 -161 204 -238 257
c-81 -24 -120 -75 -120 -158c0 -111 71 -185 177 -185c72 0 127 26 181 86z" />
    <glyph glyph-name="asciicircum" unicode="^" horiz-adv-x="600" 
d="M554 318h-86l-165 311l-165 -311h-86l209 404h84z" />
    <glyph glyph-name="asciitilde" unicode="~" horiz-adv-x="600" 
d="M556 285c-37 -71 -88 -112 -140 -112c-23 0 -48 7 -93 26l-54 22c-43 18 -54 21 -73 21c-26 0 -50 -13 -67 -35c-10 -15 -16 -23 -35 -55l-42 47c51 89 88 120 144 120c21 0 47 -6 76 -19l65 -27c43 -18 61 -23 80 -23c33 0 61 24 96 82z" />
    <glyph glyph-name="asterisk" unicode="*" horiz-adv-x="440" 
d="M391 573c0 -23 -16 -36 -54 -43l-72 -14l-3 -19l74 -12c36 -6 54 -20 54 -42c0 -27 -22 -53 -45 -53c-16 0 -27 7 -46 30l-49 56l-18 -8l27 -70c5 -14 8 -26 8 -34c0 -25 -18 -41 -45 -41s-46 16 -46 39c0 10 2 20 8 36l24 70l-16 12l-47 -58c-17 -21 -30 -30 -46 -30
c-23 0 -45 26 -45 52c0 23 16 36 54 43l72 14l3 19l-74 12c-36 6 -54 20 -54 42c0 28 22 53 46 53c14 0 27 -9 46 -30l48 -56l18 8l-27 70c-5 14 -8 25 -8 33c0 26 18 42 46 42c26 0 45 -16 45 -39c0 -9 -2 -19 -8 -36l-24 -70l16 -12l47 58c16 21 30 30 46 30
c23 0 45 -26 45 -52z" />
    <glyph glyph-name="at" unicode="@" horiz-adv-x="820" 
d="M755 404c0 -146 -127 -244 -209 -244c-39 0 -71 38 -71 84v11c-48 -66 -96 -95 -157 -95c-80 0 -134 58 -134 144c0 134 104 249 224 249c45 0 86 -17 113 -46l7 39h72l-47 -254c-3 -18 -5 -35 -5 -42c0 -22 16 -39 37 -39c51 0 127 83 127 187c0 142 -131 257 -294 257
c-172 0 -315 -140 -315 -309c0 -174 140 -314 314 -314c48 0 199 13 281 156h46c-77 -173 -255 -201 -327 -201c-201 0 -362 158 -362 355c0 198 162 358 365 358c185 0 335 -133 335 -296zM515 474c-13 13 -36 42 -90 42c-107 0 -166 -137 -166 -231c0 -53 29 -88 73 -88
c41 0 90 32 120 77c28 44 42 90 63 200z" />
    <glyph glyph-name="B" unicode="B" horiz-adv-x="740" 
d="M702 201c0 -80 -39 -201 -306 -201h-365v31l25 3c52 7 65 28 65 110v393c0 82 -13 103 -65 110l-25 3v31h352c157 0 281 -32 281 -162c0 -112 -126 -136 -145 -140c28 -7 183 -36 183 -178zM562 516c0 85 -68 126 -206 126c-115 0 -135 -13 -135 -85v-164h116
c160 0 225 35 225 123zM589 206c0 139 -106 144 -250 144h-118v-196c0 -76 2 -113 130 -113c132 0 238 33 238 165z" />
    <glyph glyph-name="b" unicode="b" 
d="M582 248c0 -151 -100 -257 -242 -257c-64 0 -109 17 -175 67l-24 -58h-56v538c0 89 -11 107 -65 112l-22 2v31c68 8 91 14 142 34h40v-295c56 52 105 72 174 72c133 0 228 -103 228 -246zM480 245c0 124 -58 201 -152 201c-58 0 -97 -21 -148 -78v-273
c38 -37 83 -56 137 -56c99 0 163 80 163 206z" />
    <glyph glyph-name="backslash" unicode="\" horiz-adv-x="600" 
d="M532 0h-86l-372 717h86z" />
    <glyph glyph-name="bar" unicode="|" horiz-adv-x="600" 
d="M339 -141h-78v858h78v-858z" />
    <glyph glyph-name="braceleft" unicode="{" horiz-adv-x="280" 
d="M248 -121c-11 -1 -24 -1 -29 -1c-74 0 -109 39 -109 125v220c0 41 -23 61 -75 69v32c52 8 75 28 75 69v220c0 87 34 125 113 125l25 -1v-32c-54 -10 -76 -31 -76 -71v-221c0 -58 -12 -81 -56 -105c44 -24 56 -47 56 -105v-221c0 -40 22 -61 76 -71v-32z" />
    <glyph glyph-name="braceright" unicode="}" horiz-adv-x="280" 
d="M248 292c-52 -8 -75 -28 -75 -69v-220c0 -87 -34 -125 -113 -125l-25 1v32c54 10 76 31 76 71v221c0 58 12 81 56 105c-44 24 -56 47 -56 105v221c0 40 -22 61 -76 71v32c11 1 24 1 29 1c74 0 109 -40 109 -125v-220c0 -41 23 -61 75 -69v-32z" />
    <glyph glyph-name="bracketleft" unicode="[" horiz-adv-x="300" 
d="M258 -141h-166v858h166v-42h-16c-53 0 -60 -7 -60 -60v-641c0 -63 8 -73 59 -73h17v-42z" />
    <glyph glyph-name="bracketright" unicode="]" horiz-adv-x="300" 
d="M207 -141h-166v42h16c53 0 60 7 60 60v641c0 64 -8 73 -59 73h-17v42h166v-858z" />
    <glyph glyph-name="C" unicode="C" horiz-adv-x="740" 
d="M702 159c-74 -115 -176 -172 -305 -172c-202 0 -353 150 -353 350c0 235 196 357 329 357c86 0 147 -19 206 -64l21 42h33l48 -241h-32c-53 109 -103 215 -257 215c-132 0 -230 -131 -230 -308c0 -225 150 -303 250 -303c46 0 160 18 247 148z" />
    <glyph glyph-name="c" unicode="c" horiz-adv-x="520" 
d="M498 108c-52 -81 -119 -117 -215 -117c-147 0 -246 102 -246 251c0 90 49 252 244 252c138 0 204 -82 204 -137c0 -31 -22 -55 -51 -55s-51 22 -51 51l1 35c0 35 -47 66 -99 66c-117 0 -146 -119 -146 -216c0 -124 69 -207 172 -207c61 0 102 25 158 95z" />
    <glyph glyph-name="colon" unicode=":" horiz-adv-x="320" 
d="M220 51c0 -35 -29 -64 -64 -64s-64 29 -64 65c0 35 29 63 65 63c34 0 63 -29 63 -64zM220 430c0 -35 -29 -64 -64 -64s-64 29 -64 64c0 36 29 64 65 64c34 0 63 -29 63 -64z" />
    <glyph glyph-name="comma" unicode="," horiz-adv-x="320" 
d="M223 31c0 -62 -38 -112 -108 -143l-11 20c42 24 65 54 74 101c-16 -12 -24 -15 -37 -15c-29 0 -51 25 -51 57c0 38 27 66 63 66c40 0 70 -37 70 -86z" />
    <glyph glyph-name="D" unicode="D" horiz-adv-x="800" 
d="M752 335c0 -290 -233 -335 -416 -335h-305v31l25 3c52 7 65 28 65 110v393c0 82 -13 103 -65 110l-25 3v31h305c366 0 416 -218 416 -346zM634 342c0 129 -59 298 -294 298c-124 0 -119 -40 -119 -92v-419c0 -59 6 -88 118 -88c236 0 295 170 295 301z" />
    <glyph glyph-name="d" unicode="d" 
d="M591 0h-168v67c-14 -15 -69 -76 -173 -76c-142 0 -213 130 -213 250c0 144 95 253 220 253c61 0 112 -16 166 -53v97c0 89 -11 107 -65 112l-21 2v31c68 8 91 14 141 34h40v-602c0 -53 15 -73 61 -83l12 -2v-30zM423 118v271c-54 45 -88 60 -136 60
c-124 0 -148 -134 -148 -206c0 -79 27 -204 140 -204c56 0 99 24 144 79z" />
    <glyph glyph-name="dollar" unicode="$" 
d="M593 220c0 -111 -98 -188 -262 -203v-127h-37v127c-173 17 -260 71 -260 161c0 44 29 74 71 74c35 0 60 -26 60 -62c0 -25 -7 -37 -7 -62c0 -40 47 -64 136 -70v246c-176 25 -246 75 -246 172c0 111 98 188 246 193v122h37v-122c194 -16 222 -120 222 -150
c0 -37 -25 -62 -62 -62c-32 0 -54 22 -54 56c0 22 3 22 3 36c0 45 -33 69 -109 79v-230c140 -21 262 -43 262 -178zM294 407v221h-10c-39 0 -141 -22 -141 -108c0 -84 85 -103 151 -113zM498 185c0 76 -79 96 -167 112v-239c100 3 167 54 167 127z" />
    <glyph glyph-name="E" unicode="E" horiz-adv-x="720" 
d="M705 213l-91 -213h-583v31l25 3c52 7 65 28 65 110v393c0 82 -13 103 -65 110l-25 3v31h571l69 -180l-32 -13c-92 112 -168 150 -304 150c-88 0 -114 -19 -114 -83v-170h76c85 0 107 23 121 127h34v-299h-34c-10 94 -44 129 -123 129h-74v-211c0 -61 18 -88 113 -88
c149 0 231 44 340 184z" />
    <glyph glyph-name="e" unicode="e" horiz-adv-x="520" 
d="M491 116c-51 -87 -115 -125 -207 -125c-176 0 -247 144 -247 256c0 144 99 247 236 247c74 0 219 -42 218 -205h-347c0 -146 34 -253 170 -253c62 0 108 30 144 96zM387 329v3c2 25 -15 122 -118 122c-84 0 -111 -59 -122 -125h240z" />
    <glyph glyph-name="eight" unicode="8" 
d="M583 203c0 -124 -118 -216 -277 -216c-150 0 -262 80 -262 188c0 113 96 155 168 177c-60 24 -132 60 -132 156c0 109 98 186 237 186s238 -66 238 -159c0 -95 -82 -131 -151 -149c81 -29 179 -70 179 -183zM473 531c0 71 -61 123 -145 123c-90 0 -160 -52 -160 -120
c0 -85 105 -106 185 -131c75 17 120 64 120 128zM495 165c0 112 -112 130 -234 169c-89 -35 -129 -85 -129 -160c0 -89 71 -147 182 -147c104 0 181 58 181 138z" />
    <glyph glyph-name="equal" unicode="=" horiz-adv-x="600" 
d="M560 296h-520v78h520v-78zM560 126h-520v78h520v-78z" />
    <glyph glyph-name="exclam" unicode="!" horiz-adv-x="300" 
d="M208 52c0 -36 -29 -65 -64 -65c-36 0 -65 29 -65 65c0 35 29 64 65 64c35 0 64 -29 64 -64zM219 602c0 -21 -5 -56 -14 -102l-28 -136c-9 -47 -17 -121 -17 -159v-31h-36v32c0 38 -7 123 -15 166l-22 131c-12 68 -12 68 -12 90c0 68 24 101 72 101c45 0 72 -34 72 -92z
" />
    <glyph glyph-name="F" unicode="F" horiz-adv-x="640" 
d="M654 510l-32 -16c-87 104 -168 145 -289 145c-108 0 -112 -35 -112 -98v-156h66c103 0 119 33 129 125h31v-296h-31c-10 74 -25 128 -129 128h-66v-198c0 -81 14 -105 65 -110l33 -3v-31h-288v31l25 3c52 7 65 28 65 110v393c0 82 -13 103 -65 110l-25 3v31h551z" />
    <glyph glyph-name="f" unicode="f" horiz-adv-x="320" 
d="M414 677c0 -23 -22 -43 -46 -43c-18 0 -32 9 -46 28c-15 19 -30 29 -47 29c-28 0 -73 -18 -73 -100v-106h99v-33h-99v-337c0 -55 18 -78 62 -83l25 -2v-30h-269v30l25 2c44 5 62 28 62 83v337h-84v33h84v47c0 187 179 202 221 202c49 0 86 -24 86 -57z" />
    <glyph glyph-name="five" unicode="5" 
d="M584 236c0 -147 -115 -249 -282 -249c-136 0 -242 64 -242 147c0 35 27 64 61 64c31 0 58 -26 58 -56c0 -18 -10 -31 -10 -48c0 -35 54 -62 119 -62c111 0 183 74 183 189c0 112 -66 183 -172 183c-68 0 -107 -23 -157 -92l-43 10v359h302c51 0 63 5 81 36h38l-17 -118
h-342v-200c59 47 104 63 171 63c149 0 252 -92 252 -226z" />
    <glyph glyph-name="four" unicode="4" 
d="M600 243l-22 -57h-130v-42c0 -71 6 -107 64 -112l33 -2v-30h-289v30l33 2c62 5 64 47 64 112v42h-313l-15 41l328 454h95v-438h152zM353 243v353c-257 -353 -251 -344 -257 -353h257z" />
    <glyph glyph-name="G" unicode="G" horiz-adv-x="800" 
d="M778 293l-18 -3c-45 -8 -65 -18 -65 -110v-180h-47l-32 69c-75 -58 -141 -82 -227 -82c-197 0 -345 153 -345 356c0 221 171 351 335 351c69 0 137 -21 195 -61l20 48h31l61 -212l-38 -11c-46 65 -72 96 -105 124c-52 43 -104 64 -158 64c-134 0 -223 -124 -223 -310
c0 -180 97 -301 241 -301c67 0 200 33 200 165c0 61 -25 85 -98 94v30h273v-31z" />
    <glyph glyph-name="g" unicode="g" horiz-adv-x="540" 
d="M542 520c0 -22 -16 -38 -38 -38c-26 0 -34 19 -53 19c-17 0 -33 -13 -53 -43c52 -35 83 -87 83 -142c0 -65 -45 -168 -210 -168c-34 0 -54 3 -94 16c-29 -15 -46 -35 -46 -53c0 -23 20 -35 65 -41l191 -26c64 -9 151 -24 151 -123c0 -98 -105 -162 -267 -162
c-148 0 -254 49 -254 122c0 49 31 81 105 109c-51 18 -73 44 -73 84c0 47 31 78 98 100c-54 37 -81 84 -81 142c0 99 92 178 206 178c31 0 54 -5 94 -20c17 32 49 89 122 89c32 0 54 -18 54 -43zM379 321c0 95 -33 141 -102 141s-109 -52 -109 -140c0 -96 35 -142 106 -142
c84 0 105 64 105 141zM468 -111c0 39 -29 58 -103 67l-205 25c-54 -20 -83 -52 -83 -90c0 -56 79 -95 194 -95c156 0 197 56 197 93z" />
    <glyph glyph-name="grave" unicode="`" horiz-adv-x="340" 
d="M252 586l-5 -14l-139 29c-43 9 -62 24 -62 50c0 21 15 37 35 37s47 -12 76 -34z" />
    <glyph glyph-name="greater" unicode="&#x3e;" horiz-adv-x="600" 
d="M520 216l-458 -245v88l357 191l-357 191v88l458 -245v-68z" />
    <glyph glyph-name="H" unicode="H" horiz-adv-x="800" 
d="M769 0h-280v31l25 3c52 7 65 28 65 110v201h-358v-201c0 -82 13 -103 65 -110l25 -3v-31h-280v31l25 3c52 7 65 28 65 110v393c0 82 -13 103 -65 110l-25 3v31h280v-31l-25 -3c-52 -7 -65 -28 -65 -110v-149h358v149c0 82 -13 103 -65 110l-25 3v31h280v-31l-25 -3
c-52 -7 -65 -28 -65 -110v-393c0 -82 13 -103 65 -110l25 -3v-31z" />
    <glyph glyph-name="h" unicode="h" horiz-adv-x="660" 
d="M643 0h-269v30l25 2c44 5 62 28 62 83v230c0 67 -29 101 -86 101c-58 0 -114 -26 -173 -82v-249c0 -55 18 -78 62 -83l25 -2v-30h-269v30l25 2c44 5 62 28 62 83v423c0 89 -11 107 -65 112l-22 2v31c68 8 91 14 142 34h40v-306c66 57 128 83 197 83
c157 0 157 -98 157 -143v-236c0 -55 18 -78 62 -83l25 -2v-30z" />
    <glyph glyph-name="hyphen" unicode="-" horiz-adv-x="400" 
d="M350 289l-28 -57h-272l29 57h271z" />
    <glyph glyph-name="I" unicode="I" horiz-adv-x="340" 
d="M301 0h-270v31l20 3c54 9 65 27 65 110v393c0 83 -11 101 -65 110l-20 3v31h270v-31l-20 -3c-54 -9 -65 -27 -65 -110v-393c0 -83 11 -101 65 -110l20 -3v-31z" />
    <glyph glyph-name="i" unicode="i" horiz-adv-x="300" 
d="M288 0h-268v30l25 2c44 5 62 28 62 83v235c0 60 -14 78 -66 83l-20 2v30c53 4 86 9 147 20h34v-370c0 -55 17 -78 62 -83l24 -2v-30zM211 630c0 -32 -27 -59 -59 -59s-59 27 -59 59c0 33 27 59 60 59c31 0 58 -27 58 -59z" />
    <glyph glyph-name="J" unicode="J" horiz-adv-x="600" 
d="M567 650l-25 -3c-52 -7 -65 -28 -65 -110v-277c0 -114 -2 -273 -249 -273c-167 0 -251 108 -251 199c0 52 32 89 78 89c33 0 55 -21 55 -54c0 -18 -7 -32 -25 -48c-15 -14 -20 -24 -20 -40c0 -53 67 -98 144 -98c164 0 168 123 168 276v226c0 82 -13 103 -65 110l-25 3
v31h280v-31z" />
    <glyph glyph-name="j" unicode="j" horiz-adv-x="300" 
d="M203 -47c0 -174 -150 -194 -205 -194c-64 0 -107 25 -107 61c0 22 21 40 46 40c16 0 27 -6 44 -26c21 -24 32 -30 55 -30c79 0 72 91 72 201v345c0 60 -15 79 -66 83l-24 2v30c56 4 89 8 151 20h34v-532zM212 630c0 -32 -27 -59 -59 -59s-59 27 -59 59c0 33 27 59 60 59
c31 0 58 -27 58 -59z" />
    <glyph glyph-name="K" unicode="K" horiz-adv-x="720" 
d="M750 0h-308v31c8 1 15 2 18 2c77 7 71 43 38 96l-161 257l-116 -103v-139c0 -81 15 -106 65 -110l41 -3v-31h-296v31l25 3c52 7 65 28 65 110v393c0 82 -13 103 -65 110l-25 3v31h296v-31l-41 -3c-50 -4 -65 -29 -65 -110v-192l205 184c51 45 59 56 59 79
c0 26 -15 37 -58 41l-10 1v31h286v-31l-7 -2c-43 -8 -98 -40 -159 -92l-120 -105l190 -310c49 -76 75 -96 143 -111v-30z" />
    <glyph glyph-name="k" unicode="k" 
d="M628 0h-270v30l27 2c51 5 24 55 3 83l-105 152l-81 -69v-83c0 -54 18 -78 61 -83l26 -2v-30h-269v30l25 2c44 5 62 28 62 83v423c0 89 -11 107 -65 112l-22 2v31c68 8 91 14 142 34h40v-468l156 136c21 18 27 27 27 39c0 19 -18 29 -56 32v29h266v-30
c-86 -13 -131 -33 -192 -87l-45 -40l149 -213c37 -49 75 -75 121 -83v-32z" />
    <glyph glyph-name="L" unicode="L" horiz-adv-x="600" 
d="M629 214l-80 -214h-518v31l25 3c52 7 65 28 65 110v393c0 82 -13 103 -65 110l-25 3v31h287v-31l-32 -3c-51 -5 -65 -29 -65 -110v-414c0 -48 8 -85 86 -85c61 0 127 24 184 67c39 29 64 57 110 122z" />
    <glyph glyph-name="l" unicode="l" horiz-adv-x="300" 
d="M286 0h-266v30l24 2c45 5 62 28 62 83v423c0 89 -11 107 -65 112l-21 2v31c68 8 91 14 141 34h40v-602c0 -55 17 -78 62 -83l23 -2v-30z" />
    <glyph glyph-name="less" unicode="&#x3c;" horiz-adv-x="600" 
d="M520 -29l-458 245v68l458 245v-88l-357 -191l357 -191v-88z" />
    <glyph glyph-name="M" unicode="M" horiz-adv-x="920" 
d="M894 0h-280v31l25 3c52 7 65 28 65 110v466l-251 -610h-45l-229 622v-478c0 -81 14 -105 65 -110l35 -3v-31h-253v31l31 3c51 5 65 29 65 110v393c0 82 -13 103 -65 110l-25 3v31h233l192 -515l209 515h228v-31l-25 -3c-52 -7 -65 -28 -65 -110v-393
c0 -82 13 -103 65 -110l25 -3v-31z" />
    <glyph glyph-name="m" unicode="m" horiz-adv-x="940" 
d="M928 0h-262v30l18 2c36 6 62 17 62 83v218c0 72 -27 109 -79 109c-46 0 -86 -18 -147 -69v-258c0 -55 17 -77 62 -83l21 -2v-30h-261v30l21 2c45 6 62 28 62 83v221c0 73 -25 106 -82 106c-46 0 -86 -19 -144 -69v-258c0 -74 35 -79 62 -83l18 -2v-30h-262v30l25 2
c44 5 62 28 62 83v235c0 60 -14 78 -66 83l-21 2v30c59 5 90 9 148 20h34v-67c64 56 112 76 182 76c72 0 110 -23 137 -83c72 61 123 83 190 83c83 0 133 -50 133 -134v-245c0 -55 18 -78 62 -83l25 -2v-30z" />
    <glyph glyph-name="N" unicode="N" horiz-adv-x="740" 
d="M722 650l-25 -3c-52 -7 -65 -28 -65 -110v-537h-88l-371 606v-462c0 -81 14 -105 65 -110l35 -3v-31h-247v31l25 3c52 7 65 28 65 110v393c0 82 -13 103 -65 110l-25 3v31h223l326 -539v395c0 81 -14 105 -65 110l-35 3v31h247v-31z" />
    <glyph glyph-name="n" unicode="n" horiz-adv-x="660" 
d="M649 0h-269v30l25 2c44 5 62 28 62 83v231c0 65 -30 100 -85 100c-56 0 -115 -28 -177 -84v-247c0 -55 18 -78 62 -83l25 -2v-30h-269v30l25 2c44 5 62 28 62 83v235c0 60 -15 79 -66 83l-24 2v30c56 4 89 8 151 20h34v-79c71 63 130 88 206 88c94 0 151 -49 151 -132
v-247c0 -55 18 -78 62 -83l25 -2v-30z" />
    <glyph glyph-name="nine" unicode="9" 
d="M576 357c0 -310 -180 -370 -300 -370c-110 0 -210 59 -210 123c0 28 22 50 49 50c26 0 50 -19 59 -47c8 -25 -6 -42 23 -60c18 -12 53 -21 85 -21c73 0 130 38 159 107c18 43 31 134 31 220c-30 -51 -77 -113 -198 -113c-138 0 -237 91 -237 217c0 130 117 231 267 231
c109 0 272 -51 272 -337zM460 477c0 106 -59 172 -153 172c-98 0 -162 -70 -162 -177c0 -108 61 -178 156 -178c98 0 159 71 159 183z" />
    <glyph glyph-name="numbersign" unicode="#" 
d="M556 406h-106l-20 -133h101v-57h-109l-33 -216h-60l33 216h-131l-32 -216h-60l32 216h-106v57h115l20 133h-110v57h118l31 203h60l-31 -203h131l30 203h60l-30 -203h97v-57zM390 406h-130l-20 -133h130z" />
    <glyph glyph-name="O" unicode="O" horiz-adv-x="800" 
d="M758 338c0 -229 -186 -351 -358 -351c-202 0 -356 154 -356 356c0 196 159 351 360 351c205 0 354 -150 354 -356zM640 332c0 193 -92 314 -238 314c-145 0 -240 -120 -240 -304c0 -187 93 -307 239 -307c145 0 239 117 239 297z" />
    <glyph glyph-name="o" unicode="o" horiz-adv-x="560" 
d="M526 239c0 -148 -98 -248 -243 -248c-149 0 -246 99 -246 250c0 90 48 253 242 253c198 0 247 -163 247 -255zM424 234c0 137 -54 220 -144 220c-85 0 -141 -83 -141 -211c0 -135 53 -212 145 -212c88 0 140 76 140 203z" />
    <glyph glyph-name="one" unicode="1" 
d="M501 0h-341v30l33 2c95 6 91 53 91 109v383c0 79 -10 91 -83 94l-40 2v30c100 12 121 16 186 31h32v-542c0 -86 14 -102 90 -107l32 -2v-30z" />
    <glyph glyph-name="P" unicode="P" 
d="M613 490c0 -76 -44 -199 -251 -199h-141v-147c0 -81 15 -106 65 -110l37 -3v-31h-292v31l25 3c52 7 65 28 65 110v393c0 82 -13 103 -65 110l-25 3v31h332c154 0 250 -73 250 -191zM511 487c0 122 -84 152 -176 152c-96 0 -114 -10 -114 -64v-241h125
c133 0 165 88 165 153z" />
    <glyph glyph-name="p" unicode="p" 
d="M583 245c0 -144 -96 -254 -223 -254c-63 0 -112 16 -158 51v-155c0 -54 18 -79 62 -83l25 -2v-30h-269v30l25 2c44 4 62 29 62 83v463c0 60 -14 78 -66 83l-21 2v30c59 5 90 9 148 20h34v-66c45 51 97 75 163 75c140 0 218 -122 218 -249zM481 233
c0 131 -58 216 -147 216c-51 0 -90 -24 -132 -80v-278c38 -36 83 -55 133 -55c84 0 146 83 146 197z" />
    <glyph glyph-name="parenleft" unicode="(" horiz-adv-x="300" 
d="M278 -151c-48 8 -70 16 -100 39c-79 62 -102 151 -102 395c0 148 -6 348 137 416c18 9 32 13 65 18v-38c-82 -29 -107 -116 -107 -373v-46c0 -257 25 -344 107 -373v-38z" />
    <glyph glyph-name="parenright" unicode=")" horiz-adv-x="300" 
d="M219 283c0 -141 8 -348 -137 -416c-18 -9 -32 -13 -65 -18v38c82 29 107 116 107 373v46c0 257 -25 344 -107 373v38c48 -8 70 -16 100 -39c79 -62 102 -149 102 -395z" />
    <glyph glyph-name="percent" unicode="%" horiz-adv-x="900" 
d="M369 474c0 -123 -72 -209 -174 -209s-173 87 -173 213c0 104 59 211 173 211c103 0 174 -87 174 -215zM294 478c0 113 -34 174 -97 174c-80 0 -100 -106 -100 -180c0 -108 36 -170 98 -170c64 0 99 62 99 176zM710 681l-464 -681h-59l464 681h59zM873 201
c0 -123 -72 -209 -174 -209s-173 87 -173 213c0 104 59 211 173 211c103 0 174 -87 174 -215zM798 205c0 113 -34 174 -97 174c-80 0 -100 -106 -100 -180c0 -109 36 -170 99 -170s98 62 98 176z" />
    <glyph glyph-name="period" unicode="." horiz-adv-x="320" 
d="M220 51c0 -35 -29 -64 -64 -64s-64 29 -64 65c0 35 29 63 65 63c34 0 63 -29 63 -64z" />
    <glyph glyph-name="plus" unicode="+" horiz-adv-x="600" 
d="M560 211h-221v-221h-78v221h-221v78h221v221h78v-221h221v-78z" />
    <glyph glyph-name="Q" unicode="Q" horiz-adv-x="820" 
d="M769 337c0 -100 -28 -173 -94 -246c31 -39 42 -66 42 -98c0 -106 -133 -183 -317 -183c-159 0 -297 62 -297 133c0 27 23 46 57 46c37 0 61 -23 61 -59c1 -27 7 -36 39 -50c30 -15 88 -25 139 -25c132 0 230 59 230 138c0 17 -4 28 -15 49c-61 -36 -132 -55 -207 -55
c-203 0 -363 154 -363 348c0 202 160 359 367 359c208 0 358 -150 358 -357zM651 341c0 183 -96 305 -240 305c-148 0 -249 -129 -249 -316c0 -252 168 -289 207 -298c-27 19 -36 33 -36 54c0 48 58 82 143 82c46 0 69 -5 136 -29c27 64 39 126 39 202zM571 84
c-38 19 -67 26 -103 26c-50 0 -87 -19 -87 -45c0 -20 26 -33 63 -33c45 0 94 20 127 52z" />
    <glyph glyph-name="q" unicode="q" horiz-adv-x="580" 
d="M589 -228h-269v30l25 2c44 4 62 29 62 83v164c-60 -44 -101 -60 -152 -60c-73 0 -218 55 -218 244c0 173 124 259 226 259c56 0 110 -22 161 -66l26 57h52v-598c0 -54 18 -79 62 -83l25 -2v-30zM407 99v289c-36 44 -69 61 -115 61c-61 0 -153 -44 -153 -212
c0 -118 60 -201 143 -201c39 0 75 18 125 63z" />
    <glyph glyph-name="question" unicode="?" horiz-adv-x="540" 
d="M299 52c0 -36 -29 -65 -64 -65c-36 0 -65 29 -65 65c0 35 29 64 66 64c34 0 63 -29 63 -64zM514 508c0 -59 -26 -134 -135 -172l-33 -12c-68 -26 -89 -60 -88 -150h-45c-1 20 -2 31 -2 44c0 64 15 93 69 129l57 39c45 31 69 76 69 131c0 87 -51 137 -142 137
c-79 0 -142 -38 -142 -86c0 -28 21 -45 21 -69c0 -25 -25 -48 -54 -48c-36 0 -62 31 -62 73c0 73 87 170 247 170c81 0 240 -37 240 -186z" />
    <glyph glyph-name="quotedbl" unicode="&#x22;" horiz-adv-x="380" 
d="M142 645c0 -7 -1 -21 -3 -29l-31 -171h-22l-28 169c-1 4 -2 20 -2 26c0 33 17 54 44 54c25 0 42 -19 42 -49zM323 645c0 -7 -1 -21 -3 -29l-31 -171h-22l-28 169c-1 4 -2 20 -2 26c0 33 17 54 44 54c25 0 42 -19 42 -49z" />
    <glyph glyph-name="quotesingle" unicode="'" horiz-adv-x="220" 
d="M153 645c0 -7 -1 -21 -3 -29l-31 -171h-22l-28 169c-1 4 -2 20 -2 26c0 33 17 54 44 54c25 0 42 -19 42 -49z" />
    <glyph glyph-name="R" unicode="R" horiz-adv-x="720" 
d="M757 0h-167l-225 321h-144v-177c0 -81 14 -105 65 -110l36 -3v-31h-291v31l25 3c52 7 65 28 65 110v393c0 82 -13 103 -65 110l-25 3v31h407c144 0 231 -65 231 -172c0 -50 -20 -154 -185 -178l166 -235c31 -40 58 -56 107 -65v-31zM561 505c0 90 -64 135 -192 135
c-129 0 -148 -24 -148 -59v-217h168c153 0 172 94 172 141z" />
    <glyph glyph-name="r" unicode="r" horiz-adv-x="440" 
d="M447 438c0 -32 -24 -55 -57 -55c-18 0 -34 5 -51 18c-18 12 -25 15 -42 15c-29 0 -56 -16 -92 -56v-245c0 -55 18 -78 62 -83l25 -2v-30h-269v30l25 2c44 5 62 28 62 83v235c0 60 -15 79 -66 83l-24 2v30c56 4 89 8 151 20h34v-80c38 30 86 89 169 89c43 0 73 -23 73 -56
z" />
    <glyph glyph-name="S" unicode="S" horiz-adv-x="660" 
d="M634 202c0 -120 -122 -215 -278 -215c-80 0 -146 20 -207 63l-19 -50h-37l-65 229l37 12c70 -134 171 -206 286 -206c103 0 181 64 181 149c0 60 -34 90 -133 114l-134 34c-50 13 -206 48 -206 183c0 71 62 179 229 179c76 0 133 -15 189 -49l12 36h36l61 -181l-32 -12
c-70 107 -150 158 -246 158c-83 0 -147 -47 -147 -107c0 -54 39 -85 136 -109l125 -30c142 -34 212 -79 212 -198z" />
    <glyph glyph-name="s" unicode="s" horiz-adv-x="520" 
d="M487 153c0 -93 -88 -162 -208 -162c-65 0 -107 14 -161 55l-11 -42h-33l-34 178h34c14 -38 24 -58 42 -79c37 -45 98 -72 160 -72c73 0 129 40 129 92c0 32 -23 53 -73 66l-128 32c-106 27 -149 64 -149 127c0 82 81 146 183 146c56 0 100 -15 143 -49l10 36h28l32 -154
h-32c-33 79 -99 127 -175 127c-59 0 -101 -32 -101 -75c0 -44 44 -55 78 -63l139 -34c87 -21 127 -61 127 -129z" />
    <glyph glyph-name="semicolon" unicode=";" horiz-adv-x="320" 
d="M223 31c0 -63 -38 -112 -109 -143l-11 20c43 25 65 54 75 101c-16 -12 -25 -15 -37 -15c-30 0 -51 24 -51 57c0 38 27 66 63 66c40 0 70 -37 70 -86zM220 430c0 -35 -29 -64 -64 -64s-64 29 -64 64c0 36 29 64 65 64c34 0 63 -29 63 -64z" />
    <glyph glyph-name="seven" unicode="7" 
d="M586 618c-279 -315 -279 -618 -279 -618h-129c36 198 160 420 335 599h-262c-98 0 -130 -12 -159 -96h-32l32 178h486z" />
    <glyph glyph-name="six" unicode="6" 
d="M590 215c0 -129 -117 -228 -268 -228c-111 0 -277 62 -277 331c0 292 179 376 301 376c114 0 215 -61 215 -129c0 -28 -22 -49 -52 -49c-38 0 -63 32 -63 79c-1 14 -3 21 -10 28c-19 19 -54 31 -93 31c-101 0 -162 -72 -181 -216c-4 -30 -4 -35 -8 -105
c52 71 110 102 195 102c139 0 241 -93 241 -220zM477 210c0 105 -60 173 -151 173c-100 0 -163 -70 -163 -180c0 -104 59 -168 157 -168c96 0 157 68 157 175z" />
    <glyph glyph-name="slash" unicode="/" horiz-adv-x="600" 
d="M532 717l-374 -858h-84l372 858h86z" />
    <glyph glyph-name="space" unicode=" " horiz-adv-x="320" 
 />
    <glyph glyph-name="T" unicode="T" 
d="M656 505l-35 -12c-56 98 -132 150 -220 150c-33 0 -41 -9 -41 -44v-455c0 -81 15 -106 65 -110l39 -3v-31h-308v31l39 3c50 4 65 29 65 110v459c0 30 -11 40 -44 40c-92 0 -161 -46 -220 -150l-33 12l57 176h580z" />
    <glyph glyph-name="t" unicode="t" horiz-adv-x="380" 
d="M388 61c-36 -47 -82 -70 -141 -70c-64 0 -143 25 -143 126v335h-84v33c98 4 142 59 141 182h38v-182h143v-33h-143v-289c0 -91 24 -132 75 -132c30 0 53 13 87 52z" />
    <glyph glyph-name="three" unicode="3" 
d="M576 196c0 -122 -120 -209 -288 -209s-248 87 -248 154c0 38 27 69 61 69c33 0 56 -24 56 -56c0 -23 -9 -33 -9 -45c0 -15 24 -77 144 -77c107 0 171 60 171 162c0 129 -97 161 -172 161c-12 0 -29 -1 -70 -5v45l50 -2c64 0 162 26 162 131c0 76 -54 125 -137 125
c-68 0 -123 -33 -123 -74c0 -18 17 -35 17 -59c0 -26 -25 -48 -55 -48c-33 0 -58 27 -58 64c0 62 66 162 225 162c138 0 239 -69 239 -163c0 -34 -11 -118 -166 -153c44 -9 201 -35 201 -182z" />
    <glyph glyph-name="two" unicode="2" 
d="M576 187l-48 -187h-486v70c126 77 187 125 253 198c83 93 120 169 120 245c0 79 -54 133 -136 133c-73 0 -141 -44 -141 -92c0 -17 3 -24 21 -46c7 -9 12 -22 12 -32c0 -28 -27 -54 -57 -54c-38 0 -68 36 -68 84c0 102 110 188 241 188c144 0 246 -81 246 -195
c0 -85 -58 -177 -175 -275c-49 -41 -86 -67 -205 -142h227c91 0 114 14 148 92l10 23z" />
    <glyph glyph-name="U" unicode="U" horiz-adv-x="780" 
d="M754 650l-25 -3c-52 -7 -65 -28 -65 -110v-333c0 -130 -59 -217 -272 -217c-136 0 -277 43 -277 215v335c0 82 -13 103 -65 110l-25 3v31h292v-31l-37 -3c-50 -4 -65 -29 -65 -110v-267c0 -136 12 -235 192 -235c200 0 200 119 200 237v265c0 81 -14 105 -65 110l-33 3
v31h245v-31z" />
    <glyph glyph-name="u" unicode="u" horiz-adv-x="680" 
d="M653 0h-182v84c-85 -69 -140 -93 -212 -93s-149 30 -149 150v209c0 60 -15 79 -66 83l-24 2v30c77 5 99 8 151 20h34v-336c0 -76 28 -110 91 -110c49 0 108 29 175 88v223c0 60 -15 79 -66 83l-24 2v30c79 6 99 8 151 20h34v-370c0 -55 18 -78 62 -83l25 -2v-30z" />
    <glyph glyph-name="underscore" unicode="_" horiz-adv-x="500" 
d="M500 -155h-500v60h500v-60z" />
    <glyph glyph-name="V" unicode="V" horiz-adv-x="700" 
d="M725 650c-76 -8 -91 -21 -133 -119l-219 -531h-60l-225 546c-33 79 -50 95 -108 102l-10 2v31h299v-31c-60 -2 -106 -10 -77 -85l176 -454l172 436c25 63 5 99 -82 103v31h267v-31z" />
    <glyph glyph-name="v" unicode="v" horiz-adv-x="520" 
d="M534 453c-47 -11 -77 -40 -104 -99l-153 -354h-59l-159 385c-23 51 -37 62 -82 69v31h244v-30c-60 -7 -75 -12 -56 -70l113 -297l104 274c21 52 13 83 -54 93v30h206v-32z" />
    <glyph glyph-name="W" unicode="W" horiz-adv-x="960" 
d="M984 650c-64 -4 -82 -22 -114 -110l-194 -540h-59l-147 437l-146 -437h-59l-188 540c-31 86 -38 93 -107 110v31h272v-31c-61 -4 -85 -23 -66 -76l146 -440l119 381c-26 92 -51 120 -117 135v31h274v-31c-59 -7 -88 -25 -69 -69l146 -445l134 416c25 83 -21 92 -77 98v31
h252v-31z" />
    <glyph glyph-name="w" unicode="w" horiz-adv-x="780" 
d="M804 455c-54 -14 -75 -34 -103 -101l-140 -354h-70l-100 287l-118 -287h-65l-149 387c-18 45 -40 64 -78 68v30h236v-30c-49 -4 -69 -21 -51 -68l106 -298l97 256l-17 42c-19 47 -31 57 -79 68v30h238v-30c-54 -7 -69 -25 -55 -68l104 -297l90 264c19 58 0 97 -67 101v30
h221v-30z" />
    <glyph glyph-name="X" unicode="X" horiz-adv-x="720" 
d="M755 0h-328v31c77 11 108 26 57 94l-140 187l-153 -190c-33 -44 -6 -88 61 -91v-31h-282v31c83 27 117 51 186 135l158 187l-172 219c-41 55 -69 72 -126 78v31h310v-31c-79 -3 -96 -35 -59 -78l124 -162l117 150c33 45 30 88 -50 90v31h269v-31
c-78 -13 -102 -29 -177 -118l-131 -161l192 -250c48 -64 76 -82 144 -90v-31z" />
    <glyph glyph-name="x" unicode="x" horiz-adv-x="560" 
d="M576 0h-277v30c64 9 72 30 50 60l-90 126l-100 -112c-36 -40 -16 -65 49 -74v-30h-224v30c48 7 74 23 119 74l127 143l-117 147c-36 42 -54 54 -102 61v30h248v-30c-46 -5 -65 -13 -39 -50l79 -96l85 96c28 38 -5 46 -35 50v30h211v-30c-66 -13 -96 -30 -150 -83l-87 -93
l137 -175c44 -53 62 -65 116 -74v-30z" />
    <glyph glyph-name="Y" unicode="Y" horiz-adv-x="640" 
d="M666 650c-70 -14 -94 -31 -146 -111l-165 -253v-142c0 -81 15 -106 65 -110l41 -3v-31h-312v31l41 3c50 4 65 29 65 110v140l-167 266c-44 72 -62 87 -118 100v31h285v-31c-80 -10 -95 -26 -64 -77l141 -228l142 218c39 59 2 77 -57 87v31h249v-31z" />
    <glyph glyph-name="y" unicode="y" horiz-adv-x="540" 
d="M549 454c-54 -13 -78 -35 -102 -91l-173 -406c-22 -54 -78 -198 -194 -198c-54 0 -94 29 -94 68c0 26 24 49 53 49c20 0 30 -6 55 -33c13 -13 23 -19 33 -19c27 0 62 37 84 91l25 58l-179 418c-19 46 -31 56 -80 63v31h233v-30c-50 -6 -62 -28 -50 -57l125 -304l93 236
c41 102 14 113 -49 125v30h220v-31z" />
    <glyph glyph-name="Z" unicode="Z" horiz-adv-x="640" 
d="M656 205l-72 -205h-555l-19 31l471 596c-45 9 -76 12 -120 12c-131 0 -207 -40 -288 -151l-33 12l73 181h495l11 -37l-468 -593c56 -6 83 -8 128 -8c189 0 286 49 346 175z" />
    <glyph glyph-name="z" unicode="z" horiz-adv-x="480" 
d="M476 158l-54 -158h-399l-16 29l328 418c-30 6 -45 8 -67 8c-54 0 -110 -15 -145 -39c-28 -19 -45 -40 -69 -89l-31 11l56 147h374l11 -25l-335 -416c37 -11 57 -14 95 -14c101 0 160 37 224 138z" />
    <glyph glyph-name="zero" unicode="0" 
d="M586 336c0 -205 -113 -349 -274 -349s-272 145 -272 356c0 168 92 351 272 351c163 0 274 -145 274 -358zM478 343c0 140 -29 303 -162 303c-142 0 -168 -206 -168 -314c0 -253 100 -297 166 -297c131 0 164 160 164 308z" />
    <glyph glyph-name="Aacute" unicode="&#xc1;" horiz-adv-x="680" 
d="M714 0h-281v31c83 12 90 31 68 93l-50 129h-258l-32 -86c-22 -56 -30 -96 6 -120c11 -7 28 -11 64 -16v-31h-268v31l11 2c67 13 83 36 150 207l172 441h93l212 -536c36 -93 48 -104 113 -114v-31zM433 296l-114 300l-111 -300h225zM491 815c0 -24 -21 -37 -69 -45
l-153 -26l-5 12l105 61c32 19 61 31 83 31s39 -14 39 -33z" />
    <glyph glyph-name="aacute" unicode="&#xe1;" horiz-adv-x="580" 
d="M587 30c-28 -27 -61 -39 -103 -39c-59 0 -93 23 -112 77c-67 -56 -116 -77 -183 -77c-89 0 -154 52 -154 124c0 141 233 158 337 169v80c0 55 -45 90 -116 90c-56 0 -101 -23 -101 -52l1 -28c0 -28 -23 -51 -51 -51c-26 0 -48 20 -48 44c0 77 120 127 218 127
c81 0 192 -28 192 -148v-212c0 -48 1 -98 56 -98c17 0 28 5 45 20zM372 113v136c-151 -13 -235 -57 -235 -124c0 -48 39 -86 87 -86c50 0 92 21 148 74zM399 651c0 -26 -19 -41 -62 -50l-139 -29l-5 14l95 68c29 22 56 34 76 34s35 -16 35 -37z" />
    <glyph glyph-name="Abreve" unicode="&#x102;" horiz-adv-x="680" 
d="M714 0h-281v31c83 12 90 31 68 93l-50 129h-258l-32 -86c-22 -56 -30 -96 6 -120c11 -7 28 -11 64 -16v-31h-268v31l11 2c67 13 83 36 150 207l172 441h93l212 -536c36 -93 48 -104 113 -114v-31zM433 296l-114 300l-111 -300h225zM524 834c-34 -55 -106 -91 -182 -91
c-81 0 -146 33 -179 91l25 16c46 -31 99 -47 157 -47c55 0 116 19 153 47z" />
    <glyph glyph-name="abreve" unicode="&#x103;" horiz-adv-x="580" 
d="M587 30c-28 -27 -61 -39 -103 -39c-59 0 -93 23 -112 77c-67 -56 -116 -77 -183 -77c-89 0 -154 52 -154 124c0 141 233 158 337 169v80c0 55 -45 90 -116 90c-56 0 -101 -23 -101 -52l1 -28c0 -28 -23 -51 -51 -51c-26 0 -48 20 -48 44c0 77 120 127 218 127
c81 0 192 -28 192 -148v-212c0 -48 1 -98 56 -98c17 0 28 5 45 20zM372 113v136c-151 -13 -235 -57 -235 -124c0 -48 39 -86 87 -86c50 0 92 21 148 74zM441 672c-31 -61 -96 -101 -165 -101c-74 0 -133 37 -163 101l23 18c42 -34 90 -52 142 -52c50 0 106 21 140 52z" />
    <glyph glyph-name="Abreveacute" unicode="&#x1eae;" horiz-adv-x="680" 
d="M714 0h-281v31c83 12 90 31 68 93l-50 129h-258l-32 -86c-22 -56 -30 -96 6 -120c11 -7 28 -11 64 -16v-31h-268v31l11 2c67 13 83 36 150 207l172 441h93l212 -536c36 -93 48 -104 113 -114v-31zM433 296l-114 300l-111 -300h225zM511 941c0 -24 -21 -37 -69 -45
l-153 -26l-5 12l105 61c32 19 61 31 83 31s39 -14 39 -33zM524 834c-34 -55 -106 -91 -182 -91c-81 0 -146 33 -179 91l25 16c46 -31 99 -47 157 -47c55 0 116 19 153 47z" />
    <glyph glyph-name="abreveacute" unicode="&#x1eaf;" horiz-adv-x="580" 
d="M587 30c-28 -27 -61 -39 -103 -39c-59 0 -93 23 -112 77c-67 -56 -116 -77 -183 -77c-89 0 -154 52 -154 124c0 141 233 158 337 169v80c0 55 -45 90 -116 90c-56 0 -101 -23 -101 -52l1 -28c0 -28 -23 -51 -51 -51c-26 0 -48 20 -48 44c0 77 120 127 218 127
c81 0 192 -28 192 -148v-212c0 -48 1 -98 56 -98c17 0 28 5 45 20zM372 113v136c-151 -13 -235 -57 -235 -124c0 -48 39 -86 87 -86c50 0 92 21 148 74zM443 745c0 -24 -21 -37 -69 -45l-153 -26l-5 12l105 61c32 19 61 31 83 31s39 -14 39 -33zM456 638
c-34 -55 -106 -91 -182 -91c-81 0 -146 33 -179 91l25 16c46 -31 99 -47 157 -47c55 0 116 19 153 47z" />
    <glyph glyph-name="Abrevedotbelow" unicode="&#x1eb6;" horiz-adv-x="680" 
d="M714 0h-281v31c83 12 90 31 68 93l-50 129h-258l-32 -86c-22 -56 -30 -96 6 -120c11 -7 28 -11 64 -16v-31h-268v31l11 2c67 13 83 36 150 207l172 441h93l212 -536c36 -93 48 -104 113 -114v-31zM433 296l-114 300l-111 -300h225zM524 834c-34 -55 -106 -91 -182 -91
c-81 0 -146 33 -179 91l25 16c46 -31 99 -47 157 -47c55 0 116 19 153 47zM396 -150c0 -32 -27 -59 -59 -59s-59 27 -59 59c0 33 27 59 60 59c31 0 58 -27 58 -59z" />
    <glyph glyph-name="abrevedotbelow" unicode="&#x1eb7;" horiz-adv-x="580" 
d="M587 30c-28 -27 -61 -39 -103 -39c-59 0 -93 23 -112 77c-67 -56 -116 -77 -183 -77c-89 0 -154 52 -154 124c0 141 233 158 337 169v80c0 55 -45 90 -116 90c-56 0 -101 -23 -101 -52l1 -28c0 -28 -23 -51 -51 -51c-26 0 -48 20 -48 44c0 77 120 127 218 127
c81 0 192 -28 192 -148v-212c0 -48 1 -98 56 -98c17 0 28 5 45 20zM372 113v136c-151 -13 -235 -57 -235 -124c0 -48 39 -86 87 -86c50 0 92 21 148 74zM441 672c-31 -61 -96 -101 -165 -101c-74 0 -133 37 -163 101l23 18c42 -34 90 -52 142 -52c50 0 106 21 140 52z
M331 -150c0 -32 -27 -59 -59 -59s-59 27 -59 59c0 33 27 59 60 59c31 0 58 -27 58 -59z" />
    <glyph glyph-name="Abrevegrave" unicode="&#x1eb0;" horiz-adv-x="680" 
d="M714 0h-281v31c83 12 90 31 68 93l-50 129h-258l-32 -86c-22 -56 -30 -96 6 -120c11 -7 28 -11 64 -16v-31h-268v31l11 2c67 13 83 36 150 207l172 441h93l212 -536c36 -93 48 -104 113 -114v-31zM433 296l-114 300l-111 -300h225zM402 882l-5 -12l-153 26
c-48 8 -69 21 -69 45c0 19 17 33 39 33s51 -12 83 -31zM524 834c-34 -55 -106 -91 -182 -91c-81 0 -146 33 -179 91l25 16c46 -31 99 -47 157 -47c55 0 116 19 153 47z" />
    <glyph glyph-name="abrevegrave" unicode="&#x1eb1;" horiz-adv-x="580" 
d="M587 30c-28 -27 -61 -39 -103 -39c-59 0 -93 23 -112 77c-67 -56 -116 -77 -183 -77c-89 0 -154 52 -154 124c0 141 233 158 337 169v80c0 55 -45 90 -116 90c-56 0 -101 -23 -101 -52l1 -28c0 -28 -23 -51 -51 -51c-26 0 -48 20 -48 44c0 77 120 127 218 127
c81 0 192 -28 192 -148v-212c0 -48 1 -98 56 -98c17 0 28 5 45 20zM372 113v136c-151 -13 -235 -57 -235 -124c0 -48 39 -86 87 -86c50 0 92 21 148 74zM334 686l-5 -12l-153 26c-48 8 -69 21 -69 45c0 19 17 33 39 33s51 -12 83 -31zM456 638c-34 -55 -106 -91 -182 -91
c-81 0 -146 33 -179 91l25 16c46 -31 99 -47 157 -47c55 0 116 19 153 47z" />
    <glyph glyph-name="Abrevehookabove" unicode="&#x1eb2;" horiz-adv-x="680" 
d="M714 0h-281v31c83 12 90 31 68 93l-50 129h-258l-32 -86c-22 -56 -30 -96 6 -120c11 -7 28 -11 64 -16v-31h-268v31l11 2c67 13 83 36 150 207l172 441h93l212 -536c36 -93 48 -104 113 -114v-31zM433 296l-114 300l-111 -300h225zM460 955c0 -22 -12 -50 -80 -72
c-24 -8 -31 -19 -31 -53h-44l-1 28c1 22 8 35 35 49l24 12c17 9 23 24 24 40c0 25 -17 39 -47 39c-27 0 -48 -9 -48 -22c0 -3 1 -5 2 -8v1c6 -9 7 -11 7 -16c0 -13 -18 -27 -35 -27c-25 0 -40 16 -40 36c0 32 45 68 119 68c57 0 115 -25 115 -75zM524 834
c-34 -55 -106 -91 -182 -91c-81 0 -146 33 -179 91l25 16c46 -31 99 -47 157 -47c55 0 116 19 153 47z" />
    <glyph glyph-name="abrevehookabove" unicode="&#x1eb3;" horiz-adv-x="580" 
d="M587 30c-28 -27 -61 -39 -103 -39c-59 0 -93 23 -112 77c-67 -56 -116 -77 -183 -77c-89 0 -154 52 -154 124c0 141 233 158 337 169v80c0 55 -45 90 -116 90c-56 0 -101 -23 -101 -52l1 -28c0 -28 -23 -51 -51 -51c-26 0 -48 20 -48 44c0 77 120 127 218 127
c81 0 192 -28 192 -148v-212c0 -48 1 -98 56 -98c17 0 28 5 45 20zM372 113v136c-151 -13 -235 -57 -235 -124c0 -48 39 -86 87 -86c50 0 92 21 148 74zM392 759c0 -22 -12 -50 -80 -72c-24 -8 -31 -19 -31 -53h-44l-1 28c1 22 8 35 35 49l24 12c17 9 23 24 24 40
c0 25 -17 39 -47 39c-27 0 -48 -9 -48 -22c0 -3 1 -5 2 -8v1c6 -9 7 -11 7 -16c0 -13 -18 -27 -35 -27c-25 0 -40 16 -40 36c0 32 45 68 119 68c57 0 115 -25 115 -75zM456 638c-34 -55 -106 -91 -182 -91c-81 0 -146 33 -179 91l25 16c46 -31 99 -47 157 -47
c55 0 116 19 153 47z" />
    <glyph glyph-name="Abrevetilde" unicode="&#x1eb4;" horiz-adv-x="680" 
d="M714 0h-281v31c83 12 90 31 68 93l-50 129h-258l-32 -86c-22 -56 -30 -96 6 -120c11 -7 28 -11 64 -16v-31h-268v31l11 2c67 13 83 36 150 207l172 441h93l212 -536c36 -93 48 -104 113 -114v-31zM433 296l-114 300l-111 -300h225zM498 948c-15 -50 -42 -72 -90 -72
c-24 0 -46 4 -95 18c-31 8 -40 10 -54 10c-15 0 -26 -5 -39 -20l-29 10c13 41 47 68 86 68c23 0 44 -4 95 -18c24 -7 36 -9 49 -9c20 0 37 8 48 22zM524 834c-34 -55 -106 -91 -182 -91c-81 0 -146 33 -179 91l25 16c46 -31 99 -47 157 -47c55 0 116 19 153 47z" />
    <glyph glyph-name="abrevetilde" unicode="&#x1eb5;" horiz-adv-x="580" 
d="M587 30c-28 -27 -61 -39 -103 -39c-59 0 -93 23 -112 77c-67 -56 -116 -77 -183 -77c-89 0 -154 52 -154 124c0 141 233 158 337 169v80c0 55 -45 90 -116 90c-56 0 -101 -23 -101 -52l1 -28c0 -28 -23 -51 -51 -51c-26 0 -48 20 -48 44c0 77 120 127 218 127
c81 0 192 -28 192 -148v-212c0 -48 1 -98 56 -98c17 0 28 5 45 20zM372 113v136c-151 -13 -235 -57 -235 -124c0 -48 39 -86 87 -86c50 0 92 21 148 74zM430 752c-15 -50 -42 -72 -90 -72c-24 0 -46 4 -95 18c-31 8 -40 10 -54 10c-15 0 -26 -5 -39 -20l-29 10
c13 41 47 68 86 68c23 0 44 -4 95 -18c24 -7 36 -9 49 -9c20 0 37 8 48 22zM456 638c-34 -55 -106 -91 -182 -91c-81 0 -146 33 -179 91l25 16c46 -31 99 -47 157 -47c55 0 116 19 153 47z" />
    <glyph glyph-name="Acaron" unicode="&#x1cd;" horiz-adv-x="680" 
d="M714 0h-281v31c83 12 90 31 68 93l-50 129h-258l-32 -86c-22 -56 -30 -96 6 -120c11 -7 28 -11 64 -16v-31h-268v31l11 2c67 13 83 36 150 207l172 441h93l212 -536c36 -93 48 -104 113 -114v-31zM433 296l-114 300l-111 -300h225zM499 827l-156 -84l-156 84l15 22
l141 -40l142 40z" />
    <glyph glyph-name="acaron" unicode="&#x1ce;" horiz-adv-x="580" 
d="M587 30c-28 -27 -61 -39 -103 -39c-59 0 -93 23 -112 77c-67 -56 -116 -77 -183 -77c-89 0 -154 52 -154 124c0 141 233 158 337 169v80c0 55 -45 90 -116 90c-56 0 -101 -23 -101 -52l1 -28c0 -28 -23 -51 -51 -51c-26 0 -48 20 -48 44c0 77 120 127 218 127
c81 0 192 -28 192 -148v-212c0 -48 1 -98 56 -98c17 0 28 5 45 20zM372 113v136c-151 -13 -235 -57 -235 -124c0 -48 39 -86 87 -86c50 0 92 21 148 74zM417 664l-142 -93l-142 93l13 25l129 -46l128 46z" />
    <glyph glyph-name="Acircumflex" unicode="&#xc2;" horiz-adv-x="680" 
d="M714 0h-281v31c83 12 90 31 68 93l-50 129h-258l-32 -86c-22 -56 -30 -96 6 -120c11 -7 28 -11 64 -16v-31h-268v31l11 2c67 13 83 36 150 207l172 441h93l212 -536c36 -93 48 -104 113 -114v-31zM433 296l-114 300l-111 -300h225zM499 765l-15 -22l-141 40l-142 -40
l-14 22l156 84z" />
    <glyph glyph-name="acircumflex" unicode="&#xe2;" horiz-adv-x="580" 
d="M587 30c-28 -27 -61 -39 -103 -39c-59 0 -93 23 -112 77c-67 -56 -116 -77 -183 -77c-89 0 -154 52 -154 124c0 141 233 158 337 169v80c0 55 -45 90 -116 90c-56 0 -101 -23 -101 -52l1 -28c0 -28 -23 -51 -51 -51c-26 0 -48 20 -48 44c0 77 120 127 218 127
c81 0 192 -28 192 -148v-212c0 -48 1 -98 56 -98c17 0 28 5 45 20zM372 113v136c-151 -13 -235 -57 -235 -124c0 -48 39 -86 87 -86c50 0 92 21 148 74zM417 596l-14 -25l-128 45l-129 -45l-13 25l142 93z" />
    <glyph glyph-name="Acircumflexacute" unicode="&#x1ea4;" horiz-adv-x="680" 
d="M714 0h-281v31c83 12 90 31 68 93l-50 129h-258l-32 -86c-22 -56 -30 -96 6 -120c11 -7 28 -11 64 -16v-31h-268v31l11 2c67 13 83 36 150 207l172 441h93l212 -536c36 -93 48 -104 113 -114v-31zM433 296l-114 300l-111 -300h225zM491 940c0 -24 -21 -37 -69 -45
l-153 -26l-5 12l105 61c32 19 61 31 83 31s39 -14 39 -33zM499 765l-15 -22l-141 40l-142 -40l-14 22l156 84z" />
    <glyph glyph-name="acircumflexacute" unicode="&#x1ea5;" horiz-adv-x="580" 
d="M587 30c-28 -27 -61 -39 -103 -39c-59 0 -93 23 -112 77c-67 -56 -116 -77 -183 -77c-89 0 -154 52 -154 124c0 141 233 158 337 169v80c0 55 -45 90 -116 90c-56 0 -101 -23 -101 -52l1 -28c0 -28 -23 -51 -51 -51c-26 0 -48 20 -48 44c0 77 120 127 218 127
c81 0 192 -28 192 -148v-212c0 -48 1 -98 56 -98c17 0 28 5 45 20zM372 113v136c-151 -13 -235 -57 -235 -124c0 -48 39 -86 87 -86c50 0 92 21 148 74zM423 744c0 -24 -21 -37 -69 -45l-153 -26l-5 12l105 61c32 19 61 31 83 31s39 -14 39 -33zM431 569l-15 -22l-141 40
l-142 -40l-14 22l156 84z" />
    <glyph glyph-name="Acircumflexdotbelow" unicode="&#x1eac;" horiz-adv-x="680" 
d="M714 0h-281v31c83 12 90 31 68 93l-50 129h-258l-32 -86c-22 -56 -30 -96 6 -120c11 -7 28 -11 64 -16v-31h-268v31l11 2c67 13 83 36 150 207l172 441h93l212 -536c36 -93 48 -104 113 -114v-31zM433 296l-114 300l-111 -300h225zM499 765l-15 -22l-141 40l-142 -40
l-14 22l156 84zM396 -150c0 -32 -27 -59 -59 -59s-59 27 -59 59c0 33 27 59 60 59c31 0 58 -27 58 -59z" />
    <glyph glyph-name="acircumflexdotbelow" unicode="&#x1ead;" horiz-adv-x="580" 
d="M587 30c-28 -27 -61 -39 -103 -39c-59 0 -93 23 -112 77c-67 -56 -116 -77 -183 -77c-89 0 -154 52 -154 124c0 141 233 158 337 169v80c0 55 -45 90 -116 90c-56 0 -101 -23 -101 -52l1 -28c0 -28 -23 -51 -51 -51c-26 0 -48 20 -48 44c0 77 120 127 218 127
c81 0 192 -28 192 -148v-212c0 -48 1 -98 56 -98c17 0 28 5 45 20zM372 113v136c-151 -13 -235 -57 -235 -124c0 -48 39 -86 87 -86c50 0 92 21 148 74zM417 596l-14 -25l-128 45l-129 -45l-13 25l142 93zM331 -150c0 -32 -27 -59 -59 -59s-59 27 -59 59c0 33 27 59 60 59
c31 0 58 -27 58 -59z" />
    <glyph glyph-name="Acircumflexgrave" unicode="&#x1ea6;" horiz-adv-x="680" 
d="M714 0h-281v31c83 12 90 31 68 93l-50 129h-258l-32 -86c-22 -56 -30 -96 6 -120c11 -7 28 -11 64 -16v-31h-268v31l11 2c67 13 83 36 150 207l172 441h93l212 -536c36 -93 48 -104 113 -114v-31zM433 296l-114 300l-111 -300h225zM422 881l-5 -12l-153 26
c-48 8 -69 21 -69 45c0 19 17 33 39 33s51 -12 83 -31zM499 765l-15 -22l-141 40l-142 -40l-14 22l156 84z" />
    <glyph glyph-name="acircumflexgrave" unicode="&#x1ea7;" horiz-adv-x="580" 
d="M587 30c-28 -27 -61 -39 -103 -39c-59 0 -93 23 -112 77c-67 -56 -116 -77 -183 -77c-89 0 -154 52 -154 124c0 141 233 158 337 169v80c0 55 -45 90 -116 90c-56 0 -101 -23 -101 -52l1 -28c0 -28 -23 -51 -51 -51c-26 0 -48 20 -48 44c0 77 120 127 218 127
c81 0 192 -28 192 -148v-212c0 -48 1 -98 56 -98c17 0 28 5 45 20zM372 113v136c-151 -13 -235 -57 -235 -124c0 -48 39 -86 87 -86c50 0 92 21 148 74zM354 685l-5 -12l-153 26c-48 8 -69 21 -69 45c0 19 17 33 39 33s51 -12 83 -31zM431 569l-15 -22l-141 40l-142 -40
l-14 22l156 84z" />
    <glyph glyph-name="Acircumflexhookabove" unicode="&#x1ea8;" horiz-adv-x="680" 
d="M714 0h-281v31c83 12 90 31 68 93l-50 129h-258l-32 -86c-22 -56 -30 -96 6 -120c11 -7 28 -11 64 -16v-31h-268v31l11 2c67 13 83 36 150 207l172 441h93l212 -536c36 -93 48 -104 113 -114v-31zM433 296l-114 300l-111 -300h225zM499 994c0 -22 -12 -50 -80 -72
c-24 -8 -31 -19 -31 -53h-44l-1 28c1 22 8 35 35 49l24 12c17 9 23 24 24 40c0 25 -17 39 -47 39c-27 0 -48 -9 -48 -22c0 -3 1 -5 2 -8v1c6 -9 7 -11 7 -16c0 -13 -18 -27 -35 -27c-25 0 -40 16 -40 36c0 32 45 68 119 68c57 0 115 -25 115 -75zM499 765l-15 -22l-141 40
l-142 -40l-14 22l156 84z" />
    <glyph glyph-name="acircumflexhookabove" unicode="&#x1ea9;" horiz-adv-x="580" 
d="M587 30c-28 -27 -61 -39 -103 -39c-59 0 -93 23 -112 77c-67 -56 -116 -77 -183 -77c-89 0 -154 52 -154 124c0 141 233 158 337 169v80c0 55 -45 90 -116 90c-56 0 -101 -23 -101 -52l1 -28c0 -28 -23 -51 -51 -51c-26 0 -48 20 -48 44c0 77 120 127 218 127
c81 0 192 -28 192 -148v-212c0 -48 1 -98 56 -98c17 0 28 5 45 20zM372 113v136c-151 -13 -235 -57 -235 -124c0 -48 39 -86 87 -86c50 0 92 21 148 74zM431 798c0 -22 -12 -50 -80 -72c-24 -8 -31 -19 -31 -53h-44l-1 28c1 22 8 35 35 49l24 12c17 9 23 24 24 40
c0 25 -17 39 -47 39c-27 0 -48 -9 -48 -22c0 -3 1 -5 2 -8v1c6 -9 7 -11 7 -16c0 -13 -18 -27 -35 -27c-25 0 -40 16 -40 36c0 32 45 68 119 68c57 0 115 -25 115 -75zM431 569l-15 -22l-141 40l-142 -40l-14 22l156 84z" />
    <glyph glyph-name="Acircumflextilde" unicode="&#x1eaa;" horiz-adv-x="680" 
d="M714 0h-281v31c83 12 90 31 68 93l-50 129h-258l-32 -86c-22 -56 -30 -96 6 -120c11 -7 28 -11 64 -16v-31h-268v31l11 2c67 13 83 36 150 207l172 441h93l212 -536c36 -93 48 -104 113 -114v-31zM433 296l-114 300l-111 -300h225zM498 951c-15 -50 -42 -72 -90 -72
c-24 0 -46 4 -95 18c-31 8 -40 10 -54 10c-15 0 -26 -5 -39 -20l-29 10c13 41 47 68 86 68c23 0 44 -4 95 -18c24 -7 36 -9 49 -9c20 0 37 8 48 22zM499 765l-15 -22l-141 40l-142 -40l-14 22l156 84z" />
    <glyph glyph-name="acircumflextilde" unicode="&#x1eab;" horiz-adv-x="580" 
d="M587 30c-28 -27 -61 -39 -103 -39c-59 0 -93 23 -112 77c-67 -56 -116 -77 -183 -77c-89 0 -154 52 -154 124c0 141 233 158 337 169v80c0 55 -45 90 -116 90c-56 0 -101 -23 -101 -52l1 -28c0 -28 -23 -51 -51 -51c-26 0 -48 20 -48 44c0 77 120 127 218 127
c81 0 192 -28 192 -148v-212c0 -48 1 -98 56 -98c17 0 28 5 45 20zM372 113v136c-151 -13 -235 -57 -235 -124c0 -48 39 -86 87 -86c50 0 92 21 148 74zM430 755c-15 -50 -42 -72 -90 -72c-24 0 -46 4 -95 18c-31 8 -40 10 -54 10c-15 0 -26 -5 -39 -20l-29 10
c13 41 47 68 86 68c23 0 44 -4 95 -18c24 -7 36 -9 49 -9c20 0 37 8 48 22zM431 569l-15 -22l-141 40l-142 -40l-14 22l156 84z" />
    <glyph glyph-name="acute" unicode="&#xb4;" horiz-adv-x="340" 
d="M294 651c0 -26 -19 -41 -62 -50l-139 -29l-5 14l95 68c29 22 56 34 76 34s35 -16 35 -37z" />
    <glyph glyph-name="uni0301" unicode="&#x301;" horiz-adv-x="0" 
d="M-166 651c0 -26 -19 -41 -62 -50l-139 -29l-5 14l95 68c29 22 56 34 76 34s35 -16 35 -37z" />
    <glyph glyph-name="Adblgrave" unicode="&#x200;" horiz-adv-x="680" 
d="M714 0h-281v31c83 12 90 31 68 93l-50 129h-258l-32 -86c-22 -56 -30 -96 6 -120c11 -7 28 -11 64 -16v-31h-268v31l11 2c67 13 83 36 150 207l172 441h93l212 -536c36 -93 48 -104 113 -114v-31zM433 296l-114 300l-111 -300h225zM415 757l-16 -11l-77 81
c-12 13 -20 33 -20 51s10 29 25 29c22 0 36 -16 53 -60zM295 757l-16 -11l-76 81c-13 14 -21 33 -21 50c0 19 9 30 25 30c22 0 37 -17 53 -60z" />
    <glyph glyph-name="adblgrave" unicode="&#x201;" horiz-adv-x="580" 
d="M587 30c-28 -27 -61 -39 -103 -39c-59 0 -93 23 -112 77c-67 -56 -116 -77 -183 -77c-89 0 -154 52 -154 124c0 141 233 158 337 169v80c0 55 -45 90 -116 90c-56 0 -101 -23 -101 -52l1 -28c0 -28 -23 -51 -51 -51c-26 0 -48 20 -48 44c0 77 120 127 218 127
c81 0 192 -28 192 -148v-212c0 -48 1 -98 56 -98c17 0 28 5 45 20zM372 113v136c-151 -13 -235 -57 -235 -124c0 -48 39 -86 87 -86c50 0 92 21 148 74zM347 561l-16 -11l-77 81c-12 13 -20 33 -20 51s10 29 25 29c22 0 36 -16 53 -60zM227 561l-16 -11l-76 81
c-13 14 -21 33 -21 50c0 19 9 30 25 30c22 0 37 -17 53 -60z" />
    <glyph glyph-name="Adieresis" unicode="&#xc4;" horiz-adv-x="680" 
d="M714 0h-281v31c83 12 90 31 68 93l-50 129h-258l-32 -86c-22 -56 -30 -96 6 -120c11 -7 28 -11 64 -16v-31h-268v31l11 2c67 13 83 36 150 207l172 441h93l212 -536c36 -93 48 -104 113 -114v-31zM433 296l-114 300l-111 -300h225zM319 796c0 -32 -27 -59 -59 -59
s-59 27 -59 59c0 33 27 59 60 59c31 0 58 -27 58 -59zM482 796c0 -32 -27 -59 -59 -59s-59 27 -59 59c0 33 27 59 60 59c31 0 58 -27 58 -59z" />
    <glyph glyph-name="adieresis" unicode="&#xe4;" horiz-adv-x="580" 
d="M587 30c-28 -27 -61 -39 -103 -39c-59 0 -93 23 -112 77c-67 -56 -116 -77 -183 -77c-89 0 -154 52 -154 124c0 141 233 158 337 169v80c0 55 -45 90 -116 90c-56 0 -101 -23 -101 -52l1 -28c0 -28 -23 -51 -51 -51c-26 0 -48 20 -48 44c0 77 120 127 218 127
c81 0 192 -28 192 -148v-212c0 -48 1 -98 56 -98c17 0 28 5 45 20zM372 113v136c-151 -13 -235 -57 -235 -124c0 -48 39 -86 87 -86c50 0 92 21 148 74zM251 630c0 -32 -27 -59 -59 -59s-59 27 -59 59c0 33 27 59 60 59c31 0 58 -27 58 -59zM414 630c0 -32 -27 -59 -59 -59
s-59 27 -59 59c0 33 27 59 60 59c31 0 58 -27 58 -59z" />
    <glyph glyph-name="Adotbelow" unicode="&#x1ea0;" horiz-adv-x="680" 
d="M714 0h-281v31c83 12 90 31 68 93l-50 129h-258l-32 -86c-22 -56 -30 -96 6 -120c11 -7 28 -11 64 -16v-31h-268v31l11 2c67 13 83 36 150 207l172 441h93l212 -536c36 -93 48 -104 113 -114v-31zM433 296l-114 300l-111 -300h225zM396 -150c0 -32 -27 -59 -59 -59
s-59 27 -59 59c0 33 27 59 60 59c31 0 58 -27 58 -59z" />
    <glyph glyph-name="adotbelow" unicode="&#x1ea1;" horiz-adv-x="580" 
d="M587 30c-28 -27 -61 -39 -103 -39c-59 0 -93 23 -112 77c-67 -56 -116 -77 -183 -77c-89 0 -154 52 -154 124c0 141 233 158 337 169v80c0 55 -45 90 -116 90c-56 0 -101 -23 -101 -52l1 -28c0 -28 -23 -51 -51 -51c-26 0 -48 20 -48 44c0 77 120 127 218 127
c81 0 192 -28 192 -148v-212c0 -48 1 -98 56 -98c17 0 28 5 45 20zM372 113v136c-151 -13 -235 -57 -235 -124c0 -48 39 -86 87 -86c50 0 92 21 148 74zM331 -150c0 -32 -27 -59 -59 -59s-59 27 -59 59c0 33 27 59 60 59c31 0 58 -27 58 -59z" />
    <glyph glyph-name="AE" unicode="&#xc6;" horiz-adv-x="1260" 
d="M1250 220l-85 -220h-593v31l25 3c52 7 65 28 65 110v197h-249l-163 -187c-33 -41 -44 -60 -44 -80c0 -27 27 -40 92 -43v-31h-334v31c95 15 151 48 225 133l458 517h494l75 -178l-35 -10c-69 101 -164 145 -310 145c-84 0 -109 -20 -109 -86v-168h69c62 0 119 12 119 119
v9h35v-304h-35v12c0 114 -75 121 -119 121h-69v-222c0 -43 14 -76 113 -76h38c74 0 152 30 208 79c33 29 58 58 95 111zM662 384v244l-208 -244h208z" />
    <glyph glyph-name="ae" unicode="&#xe6;" horiz-adv-x="860" 
d="M832 259h-361c4 -113 34 -228 169 -228c104 0 152 90 158 100l32 -17c-52 -83 -121 -123 -211 -123c-48 0 -144 12 -214 123c-48 -87 -108 -123 -208 -123c-97 0 -162 49 -162 123c0 70 56 174 335 174v71c0 60 -40 95 -108 95c-62 0 -104 -25 -104 -62v-16
c0 -32 -20 -53 -52 -53c-25 0 -45 19 -45 43c0 69 97 128 212 128c79 0 132 -21 169 -67c57 47 108 67 173 67c74 0 217 -43 217 -213v-22zM370 232v27c-92 -7 -243 -26 -243 -131c0 -52 44 -92 102 -92c60 0 115 39 132 94c8 25 8 28 9 102zM733 292v14
c0 91 -48 148 -124 148c-133 0 -135 -148 -137 -162h261z" />
    <glyph glyph-name="AEacute" unicode="&#x1fc;" horiz-adv-x="1260" 
d="M1250 220l-85 -220h-593v31l25 3c52 7 65 28 65 110v197h-249l-163 -187c-33 -41 -44 -60 -44 -80c0 -27 27 -40 92 -43v-31h-334v31c95 15 151 48 225 133l458 517h494l75 -178l-35 -10c-69 101 -164 145 -310 145c-84 0 -109 -20 -109 -86v-168h69c62 0 119 12 119 119
v9h35v-304h-35v12c0 114 -75 121 -119 121h-69v-222c0 -43 14 -76 113 -76h38c74 0 152 30 208 79c33 29 58 58 95 111zM662 384v244l-208 -244h208zM860 815c0 -24 -21 -37 -69 -45l-153 -26l-5 12l105 61c32 19 61 31 83 31s39 -14 39 -33z" />
    <glyph glyph-name="aeacute" unicode="&#x1fd;" horiz-adv-x="860" 
d="M832 259h-361c4 -113 34 -228 169 -228c104 0 152 90 158 100l32 -17c-52 -83 -121 -123 -211 -123c-48 0 -144 12 -214 123c-48 -87 -108 -123 -208 -123c-97 0 -162 49 -162 123c0 70 56 174 335 174v71c0 60 -40 95 -108 95c-62 0 -104 -25 -104 -62v-16
c0 -32 -20 -53 -52 -53c-25 0 -45 19 -45 43c0 69 97 128 212 128c79 0 132 -21 169 -67c57 47 108 67 173 67c74 0 217 -43 217 -213v-22zM370 232v27c-92 -7 -243 -26 -243 -131c0 -52 44 -92 102 -92c60 0 115 39 132 94c8 25 8 28 9 102zM733 292v14
c0 91 -48 148 -124 148c-133 0 -135 -148 -137 -162h261zM545 651c0 -26 -19 -41 -62 -50l-139 -29l-5 14l95 68c29 22 56 34 76 34s35 -16 35 -37z" />
    <glyph glyph-name="Agrave" unicode="&#xc0;" horiz-adv-x="680" 
d="M714 0h-281v31c83 12 90 31 68 93l-50 129h-258l-32 -86c-22 -56 -30 -96 6 -120c11 -7 28 -11 64 -16v-31h-268v31l11 2c67 13 83 36 150 207l172 441h93l212 -536c36 -93 48 -104 113 -114v-31zM433 296l-114 300l-111 -300h225zM422 756l-5 -12l-153 26
c-48 8 -69 21 -69 45c0 19 17 33 39 33s51 -12 83 -31z" />
    <glyph glyph-name="agrave" unicode="&#xe0;" horiz-adv-x="580" 
d="M587 30c-28 -27 -61 -39 -103 -39c-59 0 -93 23 -112 77c-67 -56 -116 -77 -183 -77c-89 0 -154 52 -154 124c0 141 233 158 337 169v80c0 55 -45 90 -116 90c-56 0 -101 -23 -101 -52l1 -28c0 -28 -23 -51 -51 -51c-26 0 -48 20 -48 44c0 77 120 127 218 127
c81 0 192 -28 192 -148v-212c0 -48 1 -98 56 -98c17 0 28 5 45 20zM372 113v136c-151 -13 -235 -57 -235 -124c0 -48 39 -86 87 -86c50 0 92 21 148 74zM357 586l-5 -14l-139 29c-43 9 -62 24 -62 50c0 21 15 37 35 37s47 -12 76 -34z" />
    <glyph glyph-name="Ahookabove" unicode="&#x1ea2;" horiz-adv-x="680" 
d="M714 0h-281v31c83 12 90 31 68 93l-50 129h-258l-32 -86c-22 -56 -30 -96 6 -120c11 -7 28 -11 64 -16v-31h-268v31l11 2c67 13 83 36 150 207l172 441h93l212 -536c36 -93 48 -104 113 -114v-31zM433 296l-114 300l-111 -300h225zM460 854c0 -26 -11 -57 -73 -82
c-22 -9 -28 -19 -28 -57h-40c0 4 -1 18 -1 26c0 29 6 42 32 59l22 14c15 10 21 26 21 44c0 28 -15 44 -42 44c-25 0 -44 -11 -44 -25c0 -3 1 -5 2 -9v1c5 -10 6 -12 6 -18c0 -14 -16 -29 -32 -29c-22 0 -36 17 -36 39c0 35 39 76 108 76c52 0 105 -29 105 -83z" />
    <glyph glyph-name="ahookabove" unicode="&#x1ea3;" horiz-adv-x="580" 
d="M587 30c-28 -27 -61 -39 -103 -39c-59 0 -93 23 -112 77c-67 -56 -116 -77 -183 -77c-89 0 -154 52 -154 124c0 141 233 158 337 169v80c0 55 -45 90 -116 90c-56 0 -101 -23 -101 -52l1 -28c0 -28 -23 -51 -51 -51c-26 0 -48 20 -48 44c0 77 120 127 218 127
c81 0 192 -28 192 -148v-212c0 -48 1 -98 56 -98c17 0 28 5 45 20zM372 113v136c-151 -13 -235 -57 -235 -124c0 -48 39 -86 87 -86c50 0 92 21 148 74zM392 658c0 -26 -11 -57 -73 -82c-22 -9 -28 -19 -28 -57h-40c0 4 -1 18 -1 26c0 29 6 42 32 59l22 14
c15 10 21 26 21 44c0 28 -15 44 -42 44c-25 0 -44 -11 -44 -25c0 -3 1 -5 2 -9v1c5 -10 6 -12 6 -18c0 -14 -16 -29 -32 -29c-22 0 -36 17 -36 39c0 35 39 76 108 76c52 0 105 -29 105 -83z" />
    <glyph glyph-name="Alpha" unicode="&#x391;" horiz-adv-x="680" 
d="M714 0h-281v31c83 12 90 31 68 93l-50 129h-258l-32 -86c-22 -56 -30 -96 6 -120c11 -7 28 -11 64 -16v-31h-268v31l11 2c67 13 83 36 150 207l172 441h93l212 -536c36 -93 48 -104 113 -114v-31zM433 296l-114 300l-111 -300h225z" />
    <glyph glyph-name="alpha" unicode="&#x3b1;" 
d="M592 0l-170 -8v78c-57 -55 -116 -82 -177 -82c-63 0 -113 25 -152 76c-35 46 -53 101 -53 166c0 144 87 253 224 253c61 0 114 -25 158 -74l32 62h53v-347c0 -43 6 -68 19 -76c7 -5 22 -7 45 -7h21v-41zM422 118v175c0 81 -54 137 -133 137c-103 0 -155 -88 -155 -196
c0 -47 11 -88 32 -124c25 -43 60 -65 103 -65c49 0 100 24 153 73z" />
    <glyph glyph-name="Amacron" unicode="&#x100;" horiz-adv-x="680" 
d="M714 0h-281v31c83 12 90 31 68 93l-50 129h-258l-32 -86c-22 -56 -30 -96 6 -120c11 -7 28 -11 64 -16v-31h-268v31l11 2c67 13 83 36 150 207l172 441h93l212 -536c36 -93 48 -104 113 -114v-31zM433 296l-114 300l-111 -300h225zM487 771h-296v50h296v-50z" />
    <glyph glyph-name="amacron" unicode="&#x101;" horiz-adv-x="580" 
d="M587 30c-28 -27 -61 -39 -103 -39c-59 0 -93 23 -112 77c-67 -56 -116 -77 -183 -77c-89 0 -154 52 -154 124c0 141 233 158 337 169v80c0 55 -45 90 -116 90c-56 0 -101 -23 -101 -52l1 -28c0 -28 -23 -51 -51 -51c-26 0 -48 20 -48 44c0 77 120 127 218 127
c81 0 192 -28 192 -148v-212c0 -48 1 -98 56 -98c17 0 28 5 45 20zM372 113v136c-151 -13 -235 -57 -235 -124c0 -48 39 -86 87 -86c50 0 92 21 148 74zM419 605h-296v50h296v-50z" />
    <glyph glyph-name="anglearc" unicode="&#x2222;" horiz-adv-x="600" 
d="M538 74l-34 -70l-85 41c-24 -40 -55 -75 -92 -105l-49 61c28 22 51 48 70 77l-286 137v70l286 137c-19 29 -42 55 -70 77l49 61c37 -30 68 -65 92 -105l85 41l34 -70l-86 -41c16 -43 24 -88 24 -135s-8 -92 -24 -135zM398 250c0 35 -6 69 -16 101l-212 -101l212 -101
c10 32 16 66 16 101z" />
    <glyph glyph-name="angleleft" unicode="&#x2329;" horiz-adv-x="462" 
d="M422 -141h-94l-288 429l288 429h94l-288 -429z" />
    <glyph glyph-name="angleright" unicode="&#x232a;" horiz-adv-x="462" 
d="M422 288l-288 -429h-94l288 429l-288 429h94z" />
    <glyph glyph-name="Aogonek" unicode="&#x104;" horiz-adv-x="680" 
d="M714 -170c-24 -39 -72 -70 -119 -70c-63 0 -119 45 -119 105c0 54 40 101 82 135h-125v31c83 12 90 31 68 93l-50 129h-258l-32 -86c-22 -56 -30 -96 6 -120c11 -7 28 -11 64 -16v-31h-268v31l11 2c67 13 83 36 150 207l172 441h93l212 -536c36 -93 48 -104 113 -114v-31
h-56c-59 0 -103 -53 -103 -114c0 -34 22 -69 58 -69c24 0 59 12 76 32zM433 296l-114 300l-111 -300h225z" />
    <glyph glyph-name="aogonek" unicode="&#x105;" horiz-adv-x="580" 
d="M587 -170c-24 -39 -72 -70 -119 -70c-63 0 -119 45 -119 105c0 53 40 100 82 135c-28 11 -47 33 -59 68c-67 -56 -116 -77 -183 -77c-89 0 -154 52 -154 124c0 141 233 158 337 169v80c0 55 -45 90 -116 90c-56 0 -101 -23 -101 -52l1 -28c0 -28 -23 -51 -51 -51
c-26 0 -48 20 -48 44c0 77 120 127 218 127c81 0 192 -28 192 -148v-212c0 -48 1 -98 56 -98c17 0 28 5 45 20l19 -26c-21 -20 -45 -32 -73 -37c-51 -8 -86 -55 -86 -107c0 -34 22 -69 58 -69c24 0 59 12 76 32zM372 113v136c-151 -13 -235 -57 -235 -124
c0 -48 39 -86 87 -86c50 0 92 21 148 74z" />
    <glyph glyph-name="approxequal" unicode="&#x2248;" horiz-adv-x="660" 
d="M586 383c-37 -71 -88 -112 -140 -112c-23 0 -48 7 -93 26l-54 22c-43 18 -54 21 -73 21c-51 0 -74 -42 -102 -90l-42 47c51 89 88 120 144 120c21 0 47 -6 76 -19l65 -27c43 -18 61 -23 80 -23c33 0 61 24 96 82zM586 189c-37 -71 -88 -112 -140 -112c-23 0 -48 7 -93 26
l-54 22c-43 18 -54 21 -73 21c-51 0 -74 -42 -102 -90l-42 47c51 89 88 120 144 120c21 0 47 -6 76 -19l65 -27c43 -18 61 -23 80 -23c33 0 61 24 96 82z" />
    <glyph glyph-name="Aring" unicode="&#xc5;" horiz-adv-x="680" 
d="M714 0h-281v31c83 12 90 31 68 93l-50 129h-258l-32 -86c-22 -56 -30 -96 6 -120c11 -7 28 -11 64 -16v-31h-268v31l11 2c67 13 83 36 150 207l172 441h93l212 -536c36 -93 48 -104 113 -114v-31zM433 296l-114 300l-111 -300h225zM435 810c0 -51 -41 -93 -92 -93
s-92 42 -92 93s42 92 93 92c50 0 91 -42 91 -92zM398 810c0 29 -25 55 -54 55c-31 0 -56 -24 -56 -55s24 -56 55 -56c30 0 55 25 55 56z" />
    <glyph glyph-name="aring" unicode="&#xe5;" horiz-adv-x="580" 
d="M587 30c-28 -27 -61 -39 -103 -39c-59 0 -93 23 -112 77c-67 -56 -116 -77 -183 -77c-89 0 -154 52 -154 124c0 141 233 158 337 169v80c0 55 -45 90 -116 90c-56 0 -101 -23 -101 -52l1 -28c0 -28 -23 -51 -51 -51c-26 0 -48 20 -48 44c0 77 120 127 218 127
c81 0 192 -28 192 -148v-212c0 -48 1 -98 56 -98c17 0 28 5 45 20zM372 113v136c-151 -13 -235 -57 -235 -124c0 -48 39 -86 87 -86c50 0 92 21 148 74zM367 631c0 -51 -41 -93 -92 -93s-92 42 -92 93s42 92 93 92c50 0 91 -42 91 -92zM330 631c0 29 -25 55 -54 55
c-31 0 -56 -24 -56 -55s24 -56 55 -56c30 0 55 25 55 56z" />
    <glyph glyph-name="Aringacute" unicode="&#x1fa;" horiz-adv-x="680" 
d="M714 0h-281v31c83 12 90 31 68 93l-50 129h-258l-32 -86c-22 -56 -30 -96 6 -120c11 -7 28 -11 64 -16v-31h-268v31l11 2c67 13 83 36 150 207l172 441h93l212 -536c36 -93 48 -104 113 -114v-31zM433 296l-114 300l-111 -300h225zM491 993c0 -24 -21 -37 -69 -45
l-153 -26l-5 12l105 61c32 19 61 31 83 31s39 -14 39 -33zM435 810c0 -51 -41 -93 -92 -93s-92 42 -92 93s42 92 93 92c50 0 91 -42 91 -92zM398 810c0 29 -25 55 -54 55c-31 0 -56 -24 -56 -55s24 -56 55 -56c30 0 55 25 55 56z" />
    <glyph glyph-name="aringacute" unicode="&#x1fb;" horiz-adv-x="580" 
d="M587 30c-28 -27 -61 -39 -103 -39c-59 0 -93 23 -112 77c-67 -56 -116 -77 -183 -77c-89 0 -154 52 -154 124c0 141 233 158 337 169v80c0 55 -45 90 -116 90c-56 0 -101 -23 -101 -52l1 -28c0 -28 -23 -51 -51 -51c-26 0 -48 20 -48 44c0 77 120 127 218 127
c81 0 192 -28 192 -148v-212c0 -48 1 -98 56 -98c17 0 28 5 45 20zM372 113v136c-151 -13 -235 -57 -235 -124c0 -48 39 -86 87 -86c50 0 92 21 148 74zM423 797c0 -24 -21 -37 -69 -45l-153 -26l-5 12l105 61c32 19 61 31 83 31s39 -14 39 -33zM367 614
c0 -51 -41 -93 -92 -93s-92 42 -92 93s42 92 93 92c50 0 91 -42 91 -92zM330 614c0 29 -25 55 -54 55c-31 0 -56 -24 -56 -55s24 -56 55 -56c30 0 55 25 55 56z" />
    <glyph glyph-name="uni2193" unicode="&#x2193;" horiz-adv-x="659" 
d="M580 20l-250 -202l-250 202l50 60l161 -130v720h78v-720l161 130z" />
    <glyph glyph-name="uni2190" unicode="&#x2190;" horiz-adv-x="1000" 
d="M920 211h-720l130 -161l-60 -50l-202 250l202 250l60 -50l-130 -161h720v-78z" />
    <glyph glyph-name="uni2192" unicode="&#x2192;" horiz-adv-x="1000" 
d="M932 250l-202 -250l-60 50l130 161h-720v78h720l-130 161l60 50z" />
    <glyph glyph-name="uni2191" unicode="&#x2191;" horiz-adv-x="659" 
d="M580 480l-50 -60l-161 130v-720h-78v720l-161 -130l-50 60l250 202z" />
    <glyph glyph-name="asterisk.math" unicode="&#x2217;" horiz-adv-x="484" 
d="M444 327c0 -27 -19 -43 -65 -51l-86 -17l-4 -23l89 -14c43 -7 65 -24 65 -51c0 -32 -26 -63 -54 -63c-19 0 -32 8 -55 36l-59 67l-22 -10l33 -84c6 -16 9 -31 9 -40c0 -30 -21 -50 -54 -50c-32 0 -55 20 -55 47c0 12 3 24 10 43l29 84l-20 15l-56 -70
c-20 -25 -36 -36 -55 -36c-28 0 -54 31 -54 63c0 27 19 43 65 51l86 17l4 23l-89 14c-43 7 -65 24 -65 51c0 33 26 63 55 63c17 0 33 -11 55 -36l58 -67l22 10l-33 84c-6 16 -9 30 -9 39c0 31 21 51 55 51c31 0 54 -20 54 -47c0 -11 -3 -23 -10 -43l-29 -84l20 -15l56 70
c19 25 36 36 55 36c28 0 54 -31 54 -63z" />
    <glyph glyph-name="Atilde" unicode="&#xc3;" horiz-adv-x="680" 
d="M714 0h-281v31c83 12 90 31 68 93l-50 129h-258l-32 -86c-22 -56 -30 -96 6 -120c11 -7 28 -11 64 -16v-31h-268v31l11 2c67 13 83 36 150 207l172 441h93l212 -536c36 -93 48 -104 113 -114v-31zM433 296l-114 300l-111 -300h225zM498 825c-15 -50 -42 -72 -90 -72
c-24 0 -46 4 -95 18c-31 8 -40 10 -54 10c-15 0 -26 -5 -39 -20l-29 10c13 41 47 68 86 68c23 0 44 -4 95 -18c24 -7 36 -9 49 -9c20 0 37 8 48 22z" />
    <glyph glyph-name="atilde" unicode="&#xe3;" horiz-adv-x="580" 
d="M587 30c-28 -27 -61 -39 -103 -39c-59 0 -93 23 -112 77c-67 -56 -116 -77 -183 -77c-89 0 -154 52 -154 124c0 141 233 158 337 169v80c0 55 -45 90 -116 90c-56 0 -101 -23 -101 -52l1 -28c0 -28 -23 -51 -51 -51c-26 0 -48 20 -48 44c0 77 120 127 218 127
c81 0 192 -28 192 -148v-212c0 -48 1 -98 56 -98c17 0 28 5 45 20zM372 113v136c-151 -13 -235 -57 -235 -124c0 -48 39 -86 87 -86c50 0 92 21 148 74zM430 659c-15 -50 -42 -72 -90 -72c-24 0 -46 4 -95 18c-31 8 -40 10 -54 10c-15 0 -26 -5 -39 -20l-29 10
c13 41 47 68 86 68c23 0 44 -4 95 -18c24 -7 36 -9 49 -9c20 0 37 8 48 22z" />
    <glyph glyph-name="baht" unicode="&#xe3f;" horiz-adv-x="740" 
d="M702 201c0 -78 -37 -195 -287 -201v-83h-40v83h-344v31l25 3c52 7 65 28 65 110v393c0 82 -13 103 -65 110l-25 3v31h344v83h40v-83c142 -5 249 -41 249 -162c0 -112 -126 -136 -145 -140c28 -7 183 -36 183 -178zM562 516c0 72 -49 112 -147 123v-242
c103 10 147 47 147 119zM375 394v248h-19c-115 0 -135 -13 -135 -85v-164h116zM589 206c0 113 -70 137 -174 143v-305c101 11 174 52 174 162zM375 350h-36h-118v-196c0 -76 2 -113 130 -113h24v309z" />
    <glyph glyph-name="Beta" unicode="&#x392;" horiz-adv-x="740" 
d="M702 201c0 -80 -39 -201 -306 -201h-365v31l25 3c52 7 65 28 65 110v393c0 82 -13 103 -65 110l-25 3v31h352c157 0 281 -32 281 -162c0 -112 -126 -136 -145 -140c28 -7 183 -36 183 -178zM562 516c0 85 -68 126 -206 126c-115 0 -135 -13 -135 -85v-164h116
c160 0 225 35 225 123zM589 206c0 139 -106 144 -250 144h-118v-196c0 -76 2 -113 130 -113c132 0 238 33 238 165z" />
    <glyph glyph-name="beta" unicode="&#x3b2;" horiz-adv-x="500" 
d="M483 215c0 -134 -96 -227 -228 -227c-154 0 -239 103 -239 323c0 229 96 411 269 411c98 0 166 -45 166 -122c0 -31 -10 -60 -29 -84c-18 -23 -44 -45 -128 -79c37 -9 71 -24 104 -47c57 -39 85 -97 85 -172v-3zM369 597c0 51 -39 75 -94 75c-99 0 -163 -99 -191 -334
c15 31 35 57 61 78c14 11 37 25 182 98c24 12 42 52 42 83zM395 219c0 96 -49 169 -141 169s-139 -77 -139 -173c0 -100 44 -170 138 -170c95 0 142 75 142 174z" />
    <glyph glyph-name="blanksymbol" unicode="&#x2422;" 
d="M582 248c0 -151 -100 -257 -242 -257c-64 0 -109 17 -175 67l-24 -58h-56v491l-87 -27v42l87 27v5c0 89 -11 107 -65 112l-22 2v31c68 8 91 14 142 34h40v-154l130 41v-42l-130 -41v-99c56 52 105 72 174 72c133 0 228 -103 228 -246zM480 245c0 124 -58 201 -152 201
c-58 0 -97 -21 -148 -78v-273c38 -37 83 -56 137 -56c99 0 163 80 163 206z" />
    <glyph glyph-name="breve" unicode="&#x2d8;" horiz-adv-x="460" 
d="M396 672c-31 -61 -96 -101 -165 -101c-74 0 -133 37 -163 101l23 18c42 -34 90 -52 142 -52c50 0 106 21 140 52z" />
    <glyph glyph-name="uni032E" unicode="&#x32e;" horiz-adv-x="0" 
d="M-109 -112c-34 -55 -106 -91 -182 -91c-81 0 -146 33 -179 91l25 16c46 -31 99 -47 157 -47c55 0 116 19 153 47z" />
    <glyph glyph-name="uni032F" unicode="&#x32f;" horiz-adv-x="0" 
d="M-109 -187l-25 -16c-46 31 -99 47 -157 47c-55 0 -116 -19 -153 -47l-26 16c34 55 106 91 182 91c81 0 146 -33 179 -91z" />
    <glyph glyph-name="uni0306" unicode="&#x306;" horiz-adv-x="0" 
d="M-124 672c-31 -61 -96 -101 -165 -101c-74 0 -133 37 -163 101l23 18c42 -34 90 -52 142 -52c50 0 106 21 140 52z" />
    <glyph glyph-name="uni0311" unicode="&#x311;" horiz-adv-x="0" 
d="M-124 589l-23 -18c-42 34 -90 52 -142 52c-50 0 -106 -21 -140 -52l-23 18c31 61 96 101 165 101c74 0 133 -37 163 -101z" />
    <glyph glyph-name="brokenbar" unicode="&#xa6;" horiz-adv-x="600" 
d="M339 374h-78v343h78v-343zM339 -141h-78v343h78v-343z" />
    <glyph glyph-name="bullet" unicode="&#x2022;" horiz-adv-x="460" 
d="M404 386c0 -97 -77 -173 -174 -173c-93 0 -170 78 -170 172c0 95 77 172 172 172s172 -77 172 -171z" />
    <glyph glyph-name="Cacute" unicode="&#x106;" horiz-adv-x="740" 
d="M702 159c-74 -115 -176 -172 -305 -172c-202 0 -353 150 -353 350c0 235 196 357 329 357c86 0 147 -19 206 -64l21 42h33l48 -241h-32c-53 109 -103 215 -257 215c-132 0 -230 -131 -230 -308c0 -225 150 -303 250 -303c46 0 160 18 247 148zM540 815
c0 -24 -21 -37 -69 -45l-153 -26l-5 12l105 61c32 19 61 31 83 31s39 -14 39 -33z" />
    <glyph glyph-name="cacute" unicode="&#x107;" horiz-adv-x="520" 
d="M498 108c-52 -81 -119 -117 -215 -117c-147 0 -246 102 -246 251c0 90 49 252 244 252c138 0 204 -82 204 -137c0 -31 -22 -55 -51 -55s-51 22 -51 51l1 35c0 35 -47 66 -99 66c-117 0 -146 -119 -146 -216c0 -124 69 -207 172 -207c61 0 102 25 158 95zM405 651
c0 -26 -19 -41 -62 -50l-139 -29l-5 14l95 68c29 22 56 34 76 34s35 -16 35 -37z" />
    <glyph glyph-name="caron" unicode="&#x2c7;" horiz-adv-x="420" 
d="M352 664l-142 -93l-142 93l13 25l129 -46l128 46z" />
    <glyph glyph-name="uni030C" unicode="&#x30c;" horiz-adv-x="0" 
d="M-148 664l-142 -93l-142 93l13 25l129 -46l128 46z" />
    <glyph glyph-name="Ccaron" unicode="&#x10c;" horiz-adv-x="740" 
d="M702 159c-74 -115 -176 -172 -305 -172c-202 0 -353 150 -353 350c0 235 196 357 329 357c86 0 147 -19 206 -64l21 42h33l48 -241h-32c-53 109 -103 215 -257 215c-132 0 -230 -131 -230 -308c0 -225 150 -303 250 -303c46 0 160 18 247 148zM548 827l-156 -84l-156 84
l15 22l141 -40l142 40z" />
    <glyph glyph-name="ccaron" unicode="&#x10d;" horiz-adv-x="520" 
d="M498 108c-52 -81 -119 -117 -215 -117c-147 0 -246 102 -246 251c0 90 49 252 244 252c138 0 204 -82 204 -137c0 -31 -22 -55 -51 -55s-51 22 -51 51l1 35c0 35 -47 66 -99 66c-117 0 -146 -119 -146 -216c0 -124 69 -207 172 -207c61 0 102 25 158 95zM423 664
l-142 -93l-142 93l13 25l129 -46l128 46z" />
    <glyph glyph-name="Ccedilla" unicode="&#xc7;" horiz-adv-x="740" 
d="M702 159c-73 -113 -172 -170 -298 -172l-9 -30c10 2 14 2 24 2c54 0 98 -38 98 -84c0 -51 -47 -95 -102 -95c-52 0 -97 26 -97 56c0 14 11 25 25 25c16 0 24 -6 31 -24c10 -23 19 -25 39 -25c26 0 46 28 46 59c0 33 -20 56 -60 56c-13 0 -26 -3 -47 -10l21 71
c-190 11 -329 157 -329 349c0 235 196 357 329 357c86 0 147 -19 206 -64l21 42h33l48 -241h-32c-53 109 -103 215 -257 215c-132 0 -230 -131 -230 -308c0 -225 150 -303 250 -303c46 0 160 18 247 148z" />
    <glyph glyph-name="ccedilla" unicode="&#xe7;" horiz-adv-x="520" 
d="M498 108c-52 -80 -118 -117 -213 -117l-10 -34c10 2 14 2 24 2c54 0 98 -38 98 -84c0 -51 -47 -95 -102 -95c-52 0 -97 26 -97 56c0 14 11 25 25 25c16 0 24 -6 31 -24c10 -23 19 -25 39 -25c26 0 46 28 46 59c0 33 -20 56 -60 56c-13 0 -26 -3 -47 -10l22 75
c-131 13 -217 111 -217 250c0 90 49 252 244 252c138 0 204 -82 204 -137c0 -31 -22 -55 -51 -55s-51 22 -51 51l1 35c0 35 -47 66 -99 66c-117 0 -146 -119 -146 -216c0 -124 69 -207 172 -207c61 0 102 25 158 95z" />
    <glyph glyph-name="Ccircumflex" unicode="&#x108;" horiz-adv-x="740" 
d="M702 159c-74 -115 -176 -172 -305 -172c-202 0 -353 150 -353 350c0 235 196 357 329 357c86 0 147 -19 206 -64l21 42h33l48 -241h-32c-53 109 -103 215 -257 215c-132 0 -230 -131 -230 -308c0 -225 150 -303 250 -303c46 0 160 18 247 148zM548 765l-15 -22l-141 40
l-142 -40l-14 22l156 84z" />
    <glyph glyph-name="ccircumflex" unicode="&#x109;" horiz-adv-x="520" 
d="M498 108c-52 -81 -119 -117 -215 -117c-147 0 -246 102 -246 251c0 90 49 252 244 252c138 0 204 -82 204 -137c0 -31 -22 -55 -51 -55s-51 22 -51 51l1 35c0 35 -47 66 -99 66c-117 0 -146 -119 -146 -216c0 -124 69 -207 172 -207c61 0 102 25 158 95zM423 596l-14 -25
l-128 45l-129 -45l-13 25l142 93z" />
    <glyph glyph-name="Cdotaccent" unicode="&#x10a;" horiz-adv-x="740" 
d="M702 159c-74 -115 -176 -172 -305 -172c-202 0 -353 150 -353 350c0 235 196 357 329 357c86 0 147 -19 206 -64l21 42h33l48 -241h-32c-53 109 -103 215 -257 215c-132 0 -230 -131 -230 -308c0 -225 150 -303 250 -303c46 0 160 18 247 148zM448 796
c0 -32 -27 -59 -59 -59s-59 27 -59 59c0 33 27 59 60 59c31 0 58 -27 58 -59z" />
    <glyph glyph-name="cdotaccent" unicode="&#x10b;" horiz-adv-x="520" 
d="M498 108c-52 -81 -119 -117 -215 -117c-147 0 -246 102 -246 251c0 90 49 252 244 252c138 0 204 -82 204 -137c0 -31 -22 -55 -51 -55s-51 22 -51 51l1 35c0 35 -47 66 -99 66c-117 0 -146 -119 -146 -216c0 -124 69 -207 172 -207c61 0 102 25 158 95zM337 630
c0 -32 -27 -59 -59 -59s-59 27 -59 59c0 33 27 59 60 59c31 0 58 -27 58 -59z" />
    <glyph glyph-name="cedilla" unicode="&#xb8;" horiz-adv-x="320" 
d="M267 -125c0 -51 -47 -95 -102 -95c-52 0 -97 26 -97 56c0 14 11 25 25 25c16 0 24 -6 31 -24c10 -23 19 -25 39 -25c26 0 46 28 46 59c0 33 -20 56 -60 56c-13 0 -26 -3 -47 -10l25 85h31l-13 -45c10 2 14 2 24 2c54 0 98 -38 98 -84z" />
    <glyph glyph-name="cent" unicode="&#xa2;" 
d="M511 247c-35 -62 -97 -101 -169 -106v-120h-37v120c-108 10 -189 98 -189 205c0 111 76 192 189 203v103h37v-103c91 -6 158 -53 158 -112c0 -29 -22 -52 -49 -52c-30 0 -51 23 -56 64c-2 32 -21 52 -53 55v-295c14 -2 21 -3 30 -3c40 0 65 12 115 55zM305 221v284
c-51 -15 -81 -65 -81 -140c0 -79 32 -120 81 -144z" />
    <glyph glyph-name="centigrade" unicode="&#x2103;" horiz-adv-x="1128" 
d="M350 533c0 -86 -66 -153 -150 -153s-150 68 -150 154c0 85 68 152 153 152c83 0 147 -67 147 -153zM1048 159c-74 -115 -176 -172 -305 -172c-202 0 -353 150 -353 350c0 235 196 357 329 357c86 0 147 -19 206 -64l21 42h33l48 -241h-32c-53 109 -103 215 -257 215
c-132 0 -230 -131 -230 -308c0 -225 150 -303 250 -303c46 0 160 18 247 148zM293 533c0 53 -41 96 -91 96c-54 0 -96 -43 -96 -96s43 -96 94 -96c52 0 93 42 93 96z" />
    <glyph glyph-name="Chi" unicode="&#x3a7;" horiz-adv-x="720" 
d="M755 0h-328v31c77 11 108 26 57 94l-140 187l-153 -190c-33 -44 -6 -88 61 -91v-31h-282v31c83 27 117 51 186 135l158 187l-172 219c-41 55 -69 72 -126 78v31h310v-31c-79 -3 -96 -35 -59 -78l124 -162l117 150c33 45 30 88 -50 90v31h269v-31
c-78 -13 -102 -29 -177 -118l-131 -161l192 -250c48 -64 76 -82 144 -90v-31z" />
    <glyph glyph-name="chi" unicode="&#x3c7;" horiz-adv-x="569" 
d="M535 -210h-92l-150 300l-108 -203c-3 -5 -8 -17 -17 -35c-3 -6 -3 -10 -1 -12c3 -6 16 -9 41 -9v-41h-196v41c68 2 90 27 119 81l125 239l-127 224c-16 26 -21 38 -50 45c-31 7 -53 10 -66 10v41l146 8l142 -266l136 268h98l-196 -320z" />
    <glyph glyph-name="circumflex" unicode="&#x2c6;" horiz-adv-x="420" 
d="M352 596l-14 -25l-128 45l-129 -45l-13 25l142 93z" />
    <glyph glyph-name="uni0302" unicode="&#x302;" horiz-adv-x="0" 
d="M-148 596l-14 -25l-128 45l-129 -45l-13 25l142 93z" />
    <glyph glyph-name="colonmonetary" unicode="&#x20a1;" horiz-adv-x="740" 
d="M702 159c-68 -106 -160 -163 -275 -171v-71h-40v70c-197 5 -343 153 -343 350c0 235 196 357 329 357h14v70h40v-73c59 -7 106 -26 152 -61l21 42h33l48 -241h-32c-49 100 -95 198 -222 213v-608c53 3 153 29 232 147zM387 646c-129 -3 -225 -133 -225 -308
c0 -207 127 -289 225 -301v609z" />
    <glyph glyph-name="uni0326" unicode="&#x326;" horiz-adv-x="0" 
d="M-224 -132c0 -57 -36 -107 -98 -136l-11 22c42 27 59 53 62 92c-14 -11 -21 -14 -31 -14c-32 0 -54 24 -54 57s28 61 62 61c39 0 70 -37 70 -82z" />
    <glyph glyph-name="copyright" unicode="&#xa9;" horiz-adv-x="740" 
d="M720 337c0 -193 -157 -350 -350 -350s-350 157 -350 350s157 350 350 350s350 -157 350 -350zM684 337c0 173 -141 314 -314 314s-314 -141 -314 -314s141 -314 314 -314s314 141 314 314zM568 242c-44 -64 -105 -96 -183 -96c-121 0 -214 80 -214 189
c0 129 120 193 200 193c49 0 85 -9 119 -32l12 21h23l30 -135h-25c-30 58 -60 115 -148 115c-75 0 -128 -70 -128 -161c0 -116 83 -158 140 -158c26 0 93 9 143 79z" />
    <glyph glyph-name="currency" unicode="&#xa4;" 
d="M563 156l-50 -51l-53 53c-49 -37 -92 -52 -149 -52s-100 15 -149 52l-53 -53l-50 51l53 53c-36 51 -49 89 -49 145c0 59 14 99 49 146l-54 54l51 52l54 -54c47 35 94 51 149 51c54 0 97 -15 146 -50l53 53l50 -52l-53 -52c37 -48 51 -90 51 -148c0 -57 -14 -98 -49 -145z
M477 355c0 89 -75 165 -163 165c-94 0 -169 -73 -169 -164c0 -93 74 -167 166 -167c91 0 166 75 166 166z" />
    <glyph glyph-name="dagger" unicode="&#x2020;" horiz-adv-x="540" 
d="M455 425c0 -32 -15 -47 -47 -47c-12 0 -29 2 -40 5l-86 25c5 -31 17 -56 59 -114c-36 -86 -49 -132 -53 -193c-2 -18 -5 -109 -5 -128c0 -10 0 -24 1 -46l2 -88h-37l1 88l1 77c0 133 -13 195 -62 290c42 49 58 77 64 114l-87 -25c-10 -2 -29 -5 -40 -5
c-31 0 -47 16 -47 48c0 29 18 46 49 46c9 0 21 -2 32 -5l93 -25c-13 66 -18 81 -41 137c-10 24 -14 39 -14 53c0 39 25 62 69 62s69 -23 69 -63c0 -18 -1 -23 -27 -88c-11 -30 -21 -69 -27 -101l92 25c11 3 23 5 32 5c31 0 49 -17 49 -47z" />
    <glyph glyph-name="daggerdbl" unicode="&#x2021;" horiz-adv-x="540" 
d="M455 111c0 -30 -18 -47 -50 -47c-9 0 -21 2 -31 5l-93 26c4 -22 23 -82 43 -138c8 -23 12 -39 12 -52c0 -42 -25 -66 -69 -66s-69 24 -69 65c0 19 1 24 27 90c16 50 24 79 28 101l-93 -26c-10 -3 -22 -5 -31 -5c-32 0 -50 17 -50 48c0 33 15 48 48 48c11 0 24 -2 39 -6
l87 -25c-14 75 -25 102 -57 138c34 38 46 67 57 138l-87 -25c-13 -4 -27 -6 -39 -6c-33 0 -48 15 -48 48c0 30 18 47 50 47c10 0 21 -1 31 -4l93 -26c-14 59 -24 93 -42 137c-9 23 -13 39 -13 53c0 41 25 65 69 65s69 -24 69 -65c0 -14 -3 -29 -12 -53s-17 -50 -26 -76
c-11 -36 -14 -44 -17 -61l93 26c11 3 21 4 31 4c32 0 50 -17 50 -47c0 -33 -15 -48 -47 -48c-12 0 -27 2 -40 6l-87 25c10 -65 22 -95 53 -138c-22 -31 -27 -42 -46 -107c-1 -2 -5 -15 -10 -31l90 25c13 3 27 5 39 5c33 0 48 -15 48 -48z" />
    <glyph glyph-name="dblbracketleft" unicode="&#x27e6;" horiz-adv-x="392" 
d="M352 -141h-312v858h312v-44h-78v-770h78v-44zM196 -97v770h-78v-770h78z" />
    <glyph glyph-name="dblbracketright" unicode="&#x27e7;" horiz-adv-x="392" 
d="M352 -141h-312v44h78v770h-78v44h312v-858zM274 -97v770h-78v-770h78z" />
    <glyph glyph-name="uni030F" unicode="&#x30f;" horiz-adv-x="0" 
d="M-218 561l-16 -11l-77 81c-12 13 -20 33 -20 51s10 29 25 29c22 0 36 -16 53 -60zM-338 561l-16 -11l-76 81c-13 14 -21 33 -21 50c0 19 9 30 25 30c22 0 37 -17 53 -60z" />
    <glyph glyph-name="dblverticalbar" unicode="&#x2016;" horiz-adv-x="600" 
d="M261 -141h-78v858h78v-858zM417 -141h-78v858h78v-858z" />
    <glyph glyph-name="Dcaron" unicode="&#x10e;" horiz-adv-x="800" 
d="M752 335c0 -290 -233 -335 -416 -335h-305v31l25 3c52 7 65 28 65 110v393c0 82 -13 103 -65 110l-25 3v31h305c366 0 416 -218 416 -346zM634 342c0 129 -59 298 -294 298c-124 0 -119 -40 -119 -92v-419c0 -59 6 -88 118 -88c236 0 295 170 295 301zM542 827l-156 -84
l-156 84l15 22l141 -40l142 40z" />
    <glyph glyph-name="dcaron" unicode="&#x10f;" 
d="M591 0h-168v67c-14 -15 -69 -76 -173 -76c-142 0 -213 130 -213 250c0 144 95 253 220 253c61 0 112 -16 166 -53v97c0 89 -11 107 -65 112l-21 2v31c68 8 91 14 141 34h40v-602c0 -53 15 -73 61 -83l12 -2v-30zM423 118v271c-54 45 -88 60 -136 60
c-124 0 -148 -134 -148 -206c0 -79 27 -204 140 -204c56 0 99 24 144 79zM690 635c0 -57 -36 -107 -98 -136l-11 22c42 27 59 53 62 92c-14 -11 -21 -14 -31 -14c-32 0 -54 24 -54 57s28 61 62 61c39 0 70 -37 70 -82z" />
    <glyph glyph-name="Dcroat" unicode="&#x110;" horiz-adv-x="800" 
d="M752 335c0 -290 -233 -335 -416 -335h-305v31l25 3c53 7 65 28 65 110v196h-90v47h90v149c0 83 -13 104 -65 111l-25 3v31h305c366 0 416 -218 416 -346zM634 342c0 127 -59 298 -294 298c-124 0 -119 -41 -119 -92v-161h200v-47h-200v-210c0 -59 6 -89 118 -89
c236 0 295 171 295 301z" />
    <glyph glyph-name="dcroat" unicode="&#x111;" 
d="M591 0h-168v67c-29 -31 -44 -41 -73 -54c-33 -14 -68 -22 -100 -22c-62 0 -123 29 -158 76c-34 45 -55 112 -55 174c0 144 95 253 220 253c61 0 112 -16 166 -53v94h-128v47h127c-3 46 -19 63 -64 68l-21 2v31c68 8 91 14 141 34h40v-135h73v-47h-73v-420
c0 -53 15 -73 61 -83l12 -2v-30zM423 118v271c-54 45 -88 60 -136 60c-57 0 -99 -27 -122 -78c-16 -36 -26 -83 -26 -128c0 -46 10 -95 27 -131c21 -46 63 -73 113 -73c56 0 99 24 144 79z" />
    <glyph glyph-name="Ddotbelow" unicode="&#x1e0c;" horiz-adv-x="800" 
d="M752 335c0 -290 -233 -335 -416 -335h-305v31l25 3c52 7 65 28 65 110v393c0 82 -13 103 -65 110l-25 3v31h305c366 0 416 -218 416 -346zM634 342c0 129 -59 298 -294 298c-124 0 -119 -40 -119 -92v-419c0 -59 6 -88 118 -88c236 0 295 170 295 301zM442 -150
c0 -32 -27 -59 -59 -59s-59 27 -59 59c0 33 27 59 60 59c31 0 58 -27 58 -59z" />
    <glyph glyph-name="ddotbelow" unicode="&#x1e0d;" 
d="M591 0h-168v67c-14 -15 -69 -76 -173 -76c-142 0 -213 130 -213 250c0 144 95 253 220 253c61 0 112 -16 166 -53v97c0 89 -11 107 -65 112l-21 2v31c68 8 91 14 141 34h40v-602c0 -53 15 -73 61 -83l12 -2v-30zM423 118v271c-54 45 -88 60 -136 60
c-124 0 -148 -134 -148 -206c0 -79 27 -204 140 -204c56 0 99 24 144 79zM366 -150c0 -32 -27 -59 -59 -59s-59 27 -59 59c0 33 27 59 60 59c31 0 58 -27 58 -59z" />
    <glyph glyph-name="degree" unicode="&#xb0;" horiz-adv-x="400" 
d="M350 533c0 -86 -66 -153 -150 -153s-150 68 -150 154c0 85 68 152 153 152c83 0 147 -67 147 -153zM293 533c0 53 -41 96 -91 96c-54 0 -96 -43 -96 -96s43 -96 94 -96c52 0 93 42 93 96z" />
    <glyph glyph-name="Delta" unicode="&#x394;" horiz-adv-x="600" 
d="M591 0h-582v41l252 640h80l250 -640v-41zM490 52l-210 541l-208 -541h418z" />
    <glyph glyph-name="delta" unicode="&#x3b4;" horiz-adv-x="560" 
d="M520 236c0 -153 -91 -248 -242 -248s-238 95 -238 244c0 105 56 182 169 231c-78 23 -117 61 -117 113c0 93 95 140 194 140c91 0 172 -39 172 -92c0 -25 -20 -43 -43 -43c-5 0 -23 14 -55 43c-33 29 -59 43 -78 43c-54 0 -96 -37 -96 -89c0 -59 50 -76 110 -90
c159 -38 224 -94 224 -252zM426 237c0 108 -47 199 -146 199c-100 0 -144 -97 -144 -204c0 -111 42 -200 143 -200c104 0 147 93 147 205z" />
    <glyph glyph-name="diameter" unicode="&#x2300;" horiz-adv-x="600" 
d="M568 463l-68 -68c30 -41 47 -91 47 -145c0 -136 -111 -247 -247 -247c-54 0 -104 17 -145 47l-68 -68l-55 55l68 68c-30 41 -47 91 -47 145c0 136 111 247 247 247c54 0 104 -17 145 -47l68 68zM469 250c0 33 -9 63 -25 89l-233 -233c26 -16 56 -25 89 -25
c93 0 169 76 169 169zM389 394c-26 16 -56 25 -89 25c-93 0 -169 -76 -169 -169c0 -33 9 -63 25 -89z" />
    <glyph glyph-name="dieresis" unicode="&#xa8;" horiz-adv-x="420" 
d="M186 630c0 -32 -27 -59 -59 -59s-59 27 -59 59c0 33 27 59 60 59c31 0 58 -27 58 -59zM349 630c0 -32 -27 -59 -59 -59s-59 27 -59 59c0 33 27 59 60 59c31 0 58 -27 58 -59z" />
    <glyph glyph-name="uni0308" unicode="&#x308;" horiz-adv-x="0" 
d="M-314 630c0 -32 -27 -59 -59 -59s-59 27 -59 59c0 33 27 59 60 59c31 0 58 -27 58 -59zM-151 630c0 -32 -27 -59 -59 -59s-59 27 -59 59c0 33 27 59 60 59c31 0 58 -27 58 -59z" />
    <glyph glyph-name="discount" unicode="&#x2052;" 
d="M200 581c0 -44 -36 -80 -80 -80s-80 36 -80 80s36 80 80 80s80 -36 80 -80zM580 100c0 -44 -36 -80 -80 -80s-80 36 -80 80s36 80 80 80s80 -36 80 -80zM566 681l-464 -681h-48l464 681h48z" />
    <glyph glyph-name="divide" unicode="&#xf7;" horiz-adv-x="600" 
d="M560 211h-520v78h520v-78zM364 420c0 -35 -29 -64 -64 -64s-64 29 -64 64c0 36 29 64 64 64s64 -28 64 -64zM364 80c0 -36 -29 -64 -64 -64s-64 28 -64 64c0 35 29 64 64 64s64 -29 64 -64z" />
    <glyph glyph-name="divorced" unicode="&#x26ae;" 
d="M207 250c0 -124 -69 -242 -182 -242c-114 0 -182 118 -182 242s68 243 182 243c113 0 182 -119 182 -243zM777 250c0 -124 -68 -242 -182 -242c-113 0 -182 118 -182 242s69 243 182 243c114 0 182 -119 182 -243zM349 -235h-78c0 162 19 323 19 485s-19 323 -19 485h78
c0 -162 -19 -323 -19 -485s19 -323 19 -485zM167 250c0 87 -59 165 -142 165c-72 0 -104 -83 -104 -165s32 -164 104 -164c83 0 142 77 142 164zM699 250c0 82 -32 165 -104 165c-83 0 -142 -78 -142 -165s59 -164 142 -164c72 0 104 82 104 164z" />
    <glyph glyph-name="Dlinebelow" unicode="&#x1e0e;" horiz-adv-x="800" 
d="M752 335c0 -290 -233 -335 -416 -335h-305v31l25 3c52 7 65 28 65 110v393c0 82 -13 103 -65 110l-25 3v31h305c366 0 416 -218 416 -346zM634 342c0 129 -59 298 -294 298c-124 0 -119 -40 -119 -92v-419c0 -59 6 -88 118 -88c236 0 295 170 295 301zM530 -175h-296v50
h296v-50z" />
    <glyph glyph-name="dlinebelow" unicode="&#x1e0f;" 
d="M591 0h-168v67c-14 -15 -69 -76 -173 -76c-142 0 -213 130 -213 250c0 144 95 253 220 253c61 0 112 -16 166 -53v97c0 89 -11 107 -65 112l-21 2v31c68 8 91 14 141 34h40v-602c0 -53 15 -73 61 -83l12 -2v-30zM423 118v271c-54 45 -88 60 -136 60
c-124 0 -148 -134 -148 -206c0 -79 27 -204 140 -204c56 0 99 24 144 79zM454 -175h-296v50h296v-50z" />
    <glyph glyph-name="dong" unicode="&#x20ab;" horiz-adv-x="551" 
d="M511 72h-142v56c-25 -26 -38 -34 -62 -45c-29 -12 -58 -19 -85 -19c-53 0 -105 25 -135 64c-29 39 -47 96 -47 148c0 123 81 215 187 215c52 0 96 -13 142 -45v80h-109v40h108c-3 39 -16 54 -55 58l-18 2v26c58 7 78 12 120 29h34v-115h62v-40h-62v-357
c0 -45 13 -62 52 -70l10 -2v-25zM511 -40h-471v40h471v-40zM369 172v230c-46 38 -75 51 -116 51c-48 0 -84 -23 -104 -66c-13 -31 -22 -71 -22 -109c0 -39 9 -81 23 -111c18 -39 54 -62 96 -62c48 0 84 20 123 67z" />
    <glyph glyph-name="dotaccent" unicode="&#x2d9;" horiz-adv-x="260" 
d="M186 630c0 -32 -27 -59 -59 -59s-59 27 -59 59c0 33 27 59 60 59c31 0 58 -27 58 -59z" />
    <glyph glyph-name="uni0307" unicode="&#x307;" horiz-adv-x="0" 
d="M-234 630c0 -32 -27 -59 -59 -59s-59 27 -59 59c0 33 27 59 60 59c31 0 58 -27 58 -59z" />
    <glyph glyph-name="uni0323" unicode="&#x323;" horiz-adv-x="0" 
d="M-234 -150c0 -32 -27 -59 -59 -59s-59 27 -59 59c0 33 27 59 60 59c31 0 58 -27 58 -59z" />
    <glyph glyph-name="dotlessi" unicode="&#x131;" horiz-adv-x="300" 
d="M288 0h-268v30l25 2c44 5 62 28 62 83v235c0 60 -14 78 -66 83l-20 2v30c53 4 86 9 147 20h34v-370c0 -55 17 -78 62 -83l24 -2v-30z" />
    <glyph glyph-name="uni0237" unicode="&#x237;" horiz-adv-x="300" 
d="M203 -47c0 -174 -150 -194 -205 -194c-64 0 -107 25 -107 61c0 22 21 40 46 40c16 0 27 -6 44 -26c21 -24 32 -30 55 -30c79 0 72 91 72 201v345c0 60 -15 79 -66 83l-24 2v30c56 4 89 8 151 20h34v-532z" />
    <glyph glyph-name="Eacute" unicode="&#xc9;" horiz-adv-x="720" 
d="M705 213l-91 -213h-583v31l25 3c52 7 65 28 65 110v393c0 82 -13 103 -65 110l-25 3v31h571l69 -180l-32 -13c-92 112 -168 150 -304 150c-88 0 -114 -19 -114 -83v-170h76c85 0 107 23 121 127h34v-299h-34c-10 94 -44 129 -123 129h-74v-211c0 -61 18 -88 113 -88
c149 0 231 44 340 184zM471 815c0 -24 -21 -37 -69 -45l-153 -26l-5 12l105 61c32 19 61 31 83 31s39 -14 39 -33z" />
    <glyph glyph-name="eacute" unicode="&#xe9;" horiz-adv-x="520" 
d="M491 116c-51 -87 -115 -125 -207 -125c-176 0 -247 144 -247 256c0 144 99 247 236 247c74 0 219 -42 218 -205h-347c0 -146 34 -253 170 -253c62 0 108 30 144 96zM387 329v3c2 25 -15 122 -118 122c-84 0 -111 -59 -122 -125h240zM397 651c0 -26 -19 -41 -62 -50
l-139 -29l-5 14l95 68c29 22 56 34 76 34s35 -16 35 -37z" />
    <glyph glyph-name="Ebreve" unicode="&#x114;" horiz-adv-x="720" 
d="M705 213l-91 -213h-583v31l25 3c52 7 65 28 65 110v393c0 82 -13 103 -65 110l-25 3v31h571l69 -180l-32 -13c-92 112 -168 150 -304 150c-88 0 -114 -19 -114 -83v-170h76c85 0 107 23 121 127h34v-299h-34c-10 94 -44 129 -123 129h-74v-211c0 -61 18 -88 113 -88
c149 0 231 44 340 184zM504 834c-34 -55 -106 -91 -182 -91c-81 0 -146 33 -179 91l25 16c46 -31 99 -47 157 -47c55 0 116 19 153 47z" />
    <glyph glyph-name="ebreve" unicode="&#x115;" horiz-adv-x="520" 
d="M491 116c-51 -87 -115 -125 -207 -125c-176 0 -247 144 -247 256c0 144 99 247 236 247c74 0 219 -42 218 -205h-347c0 -146 34 -253 170 -253c62 0 108 30 144 96zM387 329v3c2 25 -15 122 -118 122c-84 0 -111 -59 -122 -125h240zM439 672c-31 -61 -96 -101 -165 -101
c-74 0 -133 37 -163 101l23 18c42 -34 90 -52 142 -52c50 0 106 21 140 52z" />
    <glyph glyph-name="Ecaron" unicode="&#x11a;" horiz-adv-x="720" 
d="M705 213l-91 -213h-583v31l25 3c52 7 65 28 65 110v393c0 82 -13 103 -65 110l-25 3v31h571l69 -180l-32 -13c-92 112 -168 150 -304 150c-88 0 -114 -19 -114 -83v-170h76c85 0 107 23 121 127h34v-299h-34c-10 94 -44 129 -123 129h-74v-211c0 -61 18 -88 113 -88
c149 0 231 44 340 184zM479 827l-156 -84l-156 84l15 22l141 -40l142 40z" />
    <glyph glyph-name="ecaron" unicode="&#x11b;" horiz-adv-x="520" 
d="M491 116c-51 -87 -115 -125 -207 -125c-176 0 -247 144 -247 256c0 144 99 247 236 247c74 0 219 -42 218 -205h-347c0 -146 34 -253 170 -253c62 0 108 30 144 96zM387 329v3c2 25 -15 122 -118 122c-84 0 -111 -59 -122 -125h240zM415 664l-142 -93l-142 93l13 25
l129 -46l128 46z" />
    <glyph glyph-name="Ecircumflex" unicode="&#xca;" horiz-adv-x="720" 
d="M705 213l-91 -213h-583v31l25 3c52 7 65 28 65 110v393c0 82 -13 103 -65 110l-25 3v31h571l69 -180l-32 -13c-92 112 -168 150 -304 150c-88 0 -114 -19 -114 -83v-170h76c85 0 107 23 121 127h34v-299h-34c-10 94 -44 129 -123 129h-74v-211c0 -61 18 -88 113 -88
c149 0 231 44 340 184zM479 765l-15 -22l-141 40l-142 -40l-14 22l156 84z" />
    <glyph glyph-name="ecircumflex" unicode="&#xea;" horiz-adv-x="520" 
d="M491 116c-51 -87 -115 -125 -207 -125c-176 0 -247 144 -247 256c0 144 99 247 236 247c74 0 219 -42 218 -205h-347c0 -146 34 -253 170 -253c62 0 108 30 144 96zM387 329v3c2 25 -15 122 -118 122c-84 0 -111 -59 -122 -125h240zM415 596l-14 -25l-128 45l-129 -45
l-13 25l142 93z" />
    <glyph glyph-name="Ecircumflexacute" unicode="&#x1ebe;" horiz-adv-x="720" 
d="M705 213l-91 -213h-583v31l25 3c52 7 65 28 65 110v393c0 82 -13 103 -65 110l-25 3v31h571l69 -180l-32 -13c-92 112 -168 150 -304 150c-88 0 -114 -19 -114 -83v-170h76c85 0 107 23 121 127h34v-299h-34c-10 94 -44 129 -123 129h-74v-211c0 -61 18 -88 113 -88
c149 0 231 44 340 184zM471 940c0 -24 -21 -37 -69 -45l-153 -26l-5 12l105 61c32 19 61 31 83 31s39 -14 39 -33zM479 765l-15 -22l-141 40l-142 -40l-14 22l156 84z" />
    <glyph glyph-name="ecircumflexacute" unicode="&#x1ebf;" horiz-adv-x="520" 
d="M491 116c-51 -87 -115 -125 -207 -125c-176 0 -247 144 -247 256c0 144 99 247 236 247c74 0 219 -42 218 -205h-347c0 -146 34 -253 170 -253c62 0 108 30 144 96zM387 329v3c2 25 -15 122 -118 122c-84 0 -111 -59 -122 -125h240zM421 744c0 -24 -21 -37 -69 -45
l-153 -26l-5 12l105 61c32 19 61 31 83 31s39 -14 39 -33zM429 569l-15 -22l-141 40l-142 -40l-14 22l156 84z" />
    <glyph glyph-name="Ecircumflexdotbelow" unicode="&#x1ec6;" horiz-adv-x="720" 
d="M705 213l-91 -213h-583v31l25 3c52 7 65 28 65 110v393c0 82 -13 103 -65 110l-25 3v31h571l69 -180l-32 -13c-92 112 -168 150 -304 150c-88 0 -114 -19 -114 -83v-170h76c85 0 107 23 121 127h34v-299h-34c-10 94 -44 129 -123 129h-74v-211c0 -61 18 -88 113 -88
c149 0 231 44 340 184zM479 765l-15 -22l-141 40l-142 -40l-14 22l156 84zM416 -150c0 -32 -27 -59 -59 -59s-59 27 -59 59c0 33 27 59 60 59c31 0 58 -27 58 -59z" />
    <glyph glyph-name="ecircumflexdotbelow" unicode="&#x1ec7;" horiz-adv-x="520" 
d="M491 116c-51 -87 -115 -125 -207 -125c-176 0 -247 144 -247 256c0 144 99 247 236 247c74 0 219 -42 218 -205h-347c0 -146 34 -253 170 -253c62 0 108 30 144 96zM387 329v3c2 25 -15 122 -118 122c-84 0 -111 -59 -122 -125h240zM415 596l-14 -25l-128 45l-129 -45
l-13 25l142 93zM329 -150c0 -32 -27 -59 -59 -59s-59 27 -59 59c0 33 27 59 60 59c31 0 58 -27 58 -59z" />
    <glyph glyph-name="Ecircumflexgrave" unicode="&#x1ec0;" horiz-adv-x="720" 
d="M705 213l-91 -213h-583v31l25 3c52 7 65 28 65 110v393c0 82 -13 103 -65 110l-25 3v31h571l69 -180l-32 -13c-92 112 -168 150 -304 150c-88 0 -114 -19 -114 -83v-170h76c85 0 107 23 121 127h34v-299h-34c-10 94 -44 129 -123 129h-74v-211c0 -61 18 -88 113 -88
c149 0 231 44 340 184zM402 881l-5 -12l-153 26c-48 8 -69 21 -69 45c0 19 17 33 39 33s51 -12 83 -31zM479 765l-15 -22l-141 40l-142 -40l-14 22l156 84z" />
    <glyph glyph-name="ecircumflexgrave" unicode="&#x1ec1;" horiz-adv-x="520" 
d="M491 116c-51 -87 -115 -125 -207 -125c-176 0 -247 144 -247 256c0 144 99 247 236 247c74 0 219 -42 218 -205h-347c0 -146 34 -253 170 -253c62 0 108 30 144 96zM387 329v3c2 25 -15 122 -118 122c-84 0 -111 -59 -122 -125h240zM352 685l-5 -12l-153 26
c-48 8 -69 21 -69 45c0 19 17 33 39 33s51 -12 83 -31zM429 569l-15 -22l-141 40l-142 -40l-14 22l156 84z" />
    <glyph glyph-name="Ecircumflexhookabove" unicode="&#x1ec2;" horiz-adv-x="720" 
d="M705 213l-91 -213h-583v31l25 3c52 7 65 28 65 110v393c0 82 -13 103 -65 110l-25 3v31h571l69 -180l-32 -13c-92 112 -168 150 -304 150c-88 0 -114 -19 -114 -83v-170h76c85 0 107 23 121 127h34v-299h-34c-10 94 -44 129 -123 129h-74v-211c0 -61 18 -88 113 -88
c149 0 231 44 340 184zM479 994c0 -22 -12 -50 -80 -72c-24 -8 -31 -19 -31 -53h-44l-1 28c1 22 8 35 35 49l24 12c17 9 23 24 24 40c0 25 -17 39 -47 39c-27 0 -48 -9 -48 -22c0 -3 1 -5 2 -8v1c6 -9 7 -11 7 -16c0 -13 -18 -27 -35 -27c-25 0 -40 16 -40 36
c0 32 45 68 119 68c57 0 115 -25 115 -75zM479 765l-15 -22l-141 40l-142 -40l-14 22l156 84z" />
    <glyph glyph-name="ecircumflexhookabove" unicode="&#x1ec3;" horiz-adv-x="520" 
d="M491 116c-51 -87 -115 -125 -207 -125c-176 0 -247 144 -247 256c0 144 99 247 236 247c74 0 219 -42 218 -205h-347c0 -146 34 -253 170 -253c62 0 108 30 144 96zM387 329v3c2 25 -15 122 -118 122c-84 0 -111 -59 -122 -125h240zM429 798c0 -22 -12 -50 -80 -72
c-24 -8 -31 -19 -31 -53h-44l-1 28c1 22 8 35 35 49l24 12c17 9 23 24 24 40c0 25 -17 39 -47 39c-27 0 -48 -9 -48 -22c0 -3 1 -5 2 -8v1c6 -9 7 -11 7 -16c0 -13 -18 -27 -35 -27c-25 0 -40 16 -40 36c0 32 45 68 119 68c57 0 115 -25 115 -75zM429 569l-15 -22l-141 40
l-142 -40l-14 22l156 84z" />
    <glyph glyph-name="Ecircumflextilde" unicode="&#x1ec4;" horiz-adv-x="720" 
d="M705 213l-91 -213h-583v31l25 3c52 7 65 28 65 110v393c0 82 -13 103 -65 110l-25 3v31h571l69 -180l-32 -13c-92 112 -168 150 -304 150c-88 0 -114 -19 -114 -83v-170h76c85 0 107 23 121 127h34v-299h-34c-10 94 -44 129 -123 129h-74v-211c0 -61 18 -88 113 -88
c149 0 231 44 340 184zM478 951c-15 -50 -42 -72 -90 -72c-24 0 -46 4 -95 18c-31 8 -40 10 -54 10c-15 0 -26 -5 -39 -20l-29 10c13 41 47 68 86 68c23 0 44 -4 95 -18c24 -7 36 -9 49 -9c20 0 37 8 48 22zM479 765l-15 -22l-141 40l-142 -40l-14 22l156 84z" />
    <glyph glyph-name="ecircumflextilde" unicode="&#x1ec5;" horiz-adv-x="520" 
d="M491 116c-51 -87 -115 -125 -207 -125c-176 0 -247 144 -247 256c0 144 99 247 236 247c74 0 219 -42 218 -205h-347c0 -146 34 -253 170 -253c62 0 108 30 144 96zM387 329v3c2 25 -15 122 -118 122c-84 0 -111 -59 -122 -125h240zM428 755c-15 -50 -42 -72 -90 -72
c-24 0 -46 4 -95 18c-31 8 -40 10 -54 10c-15 0 -26 -5 -39 -20l-29 10c13 41 47 68 86 68c23 0 44 -4 95 -18c24 -7 36 -9 49 -9c20 0 37 8 48 22zM429 569l-15 -22l-141 40l-142 -40l-14 22l156 84z" />
    <glyph glyph-name="Edblgrave" unicode="&#x204;" horiz-adv-x="720" 
d="M705 213l-91 -213h-583v31l25 3c52 7 65 28 65 110v393c0 82 -13 103 -65 110l-25 3v31h571l69 -180l-32 -13c-92 112 -168 150 -304 150c-88 0 -114 -19 -114 -83v-170h76c85 0 107 23 121 127h34v-299h-34c-10 94 -44 129 -123 129h-74v-211c0 -61 18 -88 113 -88
c149 0 231 44 340 184zM395 757l-16 -11l-77 81c-12 13 -20 33 -20 51s10 29 25 29c22 0 36 -16 53 -60zM275 757l-16 -11l-76 81c-13 14 -21 33 -21 50c0 19 9 30 25 30c22 0 37 -17 53 -60z" />
    <glyph glyph-name="edblgrave" unicode="&#x205;" horiz-adv-x="520" 
d="M491 116c-51 -87 -115 -125 -207 -125c-176 0 -247 144 -247 256c0 144 99 247 236 247c74 0 219 -42 218 -205h-347c0 -146 34 -253 170 -253c62 0 108 30 144 96zM387 329v3c2 25 -15 122 -118 122c-84 0 -111 -59 -122 -125h240zM345 561l-16 -11l-77 81
c-12 13 -20 33 -20 51s10 29 25 29c22 0 36 -16 53 -60zM225 561l-16 -11l-76 81c-13 14 -21 33 -21 50c0 19 9 30 25 30c22 0 37 -17 53 -60z" />
    <glyph glyph-name="Edieresis" unicode="&#xcb;" horiz-adv-x="720" 
d="M705 213l-91 -213h-583v31l25 3c52 7 65 28 65 110v393c0 82 -13 103 -65 110l-25 3v31h571l69 -180l-32 -13c-92 112 -168 150 -304 150c-88 0 -114 -19 -114 -83v-170h76c85 0 107 23 121 127h34v-299h-34c-10 94 -44 129 -123 129h-74v-211c0 -61 18 -88 113 -88
c149 0 231 44 340 184zM299 796c0 -32 -27 -59 -59 -59s-59 27 -59 59c0 33 27 59 60 59c31 0 58 -27 58 -59zM462 796c0 -32 -27 -59 -59 -59s-59 27 -59 59c0 33 27 59 60 59c31 0 58 -27 58 -59z" />
    <glyph glyph-name="edieresis" unicode="&#xeb;" horiz-adv-x="520" 
d="M491 116c-51 -87 -115 -125 -207 -125c-176 0 -247 144 -247 256c0 144 99 247 236 247c74 0 219 -42 218 -205h-347c0 -146 34 -253 170 -253c62 0 108 30 144 96zM387 329v3c2 25 -15 122 -118 122c-84 0 -111 -59 -122 -125h240zM249 630c0 -32 -27 -59 -59 -59
s-59 27 -59 59c0 33 27 59 60 59c31 0 58 -27 58 -59zM412 630c0 -32 -27 -59 -59 -59s-59 27 -59 59c0 33 27 59 60 59c31 0 58 -27 58 -59z" />
    <glyph glyph-name="Edotaccent" unicode="&#x116;" horiz-adv-x="720" 
d="M705 213l-91 -213h-583v31l25 3c52 7 65 28 65 110v393c0 82 -13 103 -65 110l-25 3v31h571l69 -180l-32 -13c-92 112 -168 150 -304 150c-88 0 -114 -19 -114 -83v-170h76c85 0 107 23 121 127h34v-299h-34c-10 94 -44 129 -123 129h-74v-211c0 -61 18 -88 113 -88
c149 0 231 44 340 184zM379 796c0 -32 -27 -59 -59 -59s-59 27 -59 59c0 33 27 59 60 59c31 0 58 -27 58 -59z" />
    <glyph glyph-name="edotaccent" unicode="&#x117;" horiz-adv-x="520" 
d="M491 116c-51 -87 -115 -125 -207 -125c-176 0 -247 144 -247 256c0 144 99 247 236 247c74 0 219 -42 218 -205h-347c0 -146 34 -253 170 -253c62 0 108 30 144 96zM387 329v3c2 25 -15 122 -118 122c-84 0 -111 -59 -122 -125h240zM329 630c0 -32 -27 -59 -59 -59
s-59 27 -59 59c0 33 27 59 60 59c31 0 58 -27 58 -59z" />
    <glyph glyph-name="Edotbelow" unicode="&#x1eb8;" horiz-adv-x="720" 
d="M705 213l-91 -213h-583v31l25 3c52 7 65 28 65 110v393c0 82 -13 103 -65 110l-25 3v31h571l69 -180l-32 -13c-92 112 -168 150 -304 150c-88 0 -114 -19 -114 -83v-170h76c85 0 107 23 121 127h34v-299h-34c-10 94 -44 129 -123 129h-74v-211c0 -61 18 -88 113 -88
c149 0 231 44 340 184zM416 -150c0 -32 -27 -59 -59 -59s-59 27 -59 59c0 33 27 59 60 59c31 0 58 -27 58 -59z" />
    <glyph glyph-name="edotbelow" unicode="&#x1eb9;" horiz-adv-x="520" 
d="M491 116c-51 -87 -115 -125 -207 -125c-176 0 -247 144 -247 256c0 144 99 247 236 247c74 0 219 -42 218 -205h-347c0 -146 34 -253 170 -253c62 0 108 30 144 96zM387 329v3c2 25 -15 122 -118 122c-84 0 -111 -59 -122 -125h240zM329 -150c0 -32 -27 -59 -59 -59
s-59 27 -59 59c0 33 27 59 60 59c31 0 58 -27 58 -59z" />
    <glyph glyph-name="Egrave" unicode="&#xc8;" horiz-adv-x="720" 
d="M705 213l-91 -213h-583v31l25 3c52 7 65 28 65 110v393c0 82 -13 103 -65 110l-25 3v31h571l69 -180l-32 -13c-92 112 -168 150 -304 150c-88 0 -114 -19 -114 -83v-170h76c85 0 107 23 121 127h34v-299h-34c-10 94 -44 129 -123 129h-74v-211c0 -61 18 -88 113 -88
c149 0 231 44 340 184zM402 756l-5 -12l-153 26c-48 8 -69 21 -69 45c0 19 17 33 39 33s51 -12 83 -31z" />
    <glyph glyph-name="egrave" unicode="&#xe8;" horiz-adv-x="520" 
d="M491 116c-51 -87 -115 -125 -207 -125c-176 0 -247 144 -247 256c0 144 99 247 236 247c74 0 219 -42 218 -205h-347c0 -146 34 -253 170 -253c62 0 108 30 144 96zM387 329v3c2 25 -15 122 -118 122c-84 0 -111 -59 -122 -125h240zM355 586l-5 -14l-139 29
c-43 9 -62 24 -62 50c0 21 15 37 35 37s47 -12 76 -34z" />
    <glyph glyph-name="Ehookabove" unicode="&#x1eba;" horiz-adv-x="720" 
d="M705 213l-91 -213h-583v31l25 3c52 7 65 28 65 110v393c0 82 -13 103 -65 110l-25 3v31h571l69 -180l-32 -13c-92 112 -168 150 -304 150c-88 0 -114 -19 -114 -83v-170h76c85 0 107 23 121 127h34v-299h-34c-10 94 -44 129 -123 129h-74v-211c0 -61 18 -88 113 -88
c149 0 231 44 340 184zM440 854c0 -26 -11 -57 -73 -82c-22 -9 -28 -19 -28 -57h-40c0 4 -1 18 -1 26c0 29 6 42 32 59l22 14c15 10 21 26 21 44c0 28 -15 44 -42 44c-25 0 -44 -11 -44 -25c0 -3 1 -5 2 -9v1c5 -10 6 -12 6 -18c0 -14 -16 -29 -32 -29c-22 0 -36 17 -36 39
c0 35 39 76 108 76c52 0 105 -29 105 -83z" />
    <glyph glyph-name="ehookabove" unicode="&#x1ebb;" horiz-adv-x="520" 
d="M491 116c-51 -87 -115 -125 -207 -125c-176 0 -247 144 -247 256c0 144 99 247 236 247c74 0 219 -42 218 -205h-347c0 -146 34 -253 170 -253c62 0 108 30 144 96zM387 329v3c2 25 -15 122 -118 122c-84 0 -111 -59 -122 -125h240zM390 658c0 -26 -11 -57 -73 -82
c-22 -9 -28 -19 -28 -57h-40c0 4 -1 18 -1 26c0 29 6 42 32 59l22 14c15 10 21 26 21 44c0 28 -15 44 -42 44c-25 0 -44 -11 -44 -25c0 -3 1 -5 2 -9v1c5 -10 6 -12 6 -18c0 -14 -16 -29 -32 -29c-22 0 -36 17 -36 39c0 35 39 76 108 76c52 0 105 -29 105 -83z" />
    <glyph glyph-name="ellipsis" unicode="&#x2026;" horiz-adv-x="1000" 
d="M229 51c0 -35 -29 -64 -64 -64s-64 29 -64 65c0 35 29 63 65 63c34 0 63 -29 63 -64zM564 51c0 -35 -29 -64 -64 -64s-64 29 -64 65c0 35 29 63 65 63c34 0 63 -29 63 -64zM898 51c0 -35 -29 -64 -64 -64s-64 29 -64 65c0 35 29 63 65 63c34 0 63 -29 63 -64z" />
    <glyph glyph-name="Emacron" unicode="&#x112;" horiz-adv-x="720" 
d="M705 213l-91 -213h-583v31l25 3c52 7 65 28 65 110v393c0 82 -13 103 -65 110l-25 3v31h571l69 -180l-32 -13c-92 112 -168 150 -304 150c-88 0 -114 -19 -114 -83v-170h76c85 0 107 23 121 127h34v-299h-34c-10 94 -44 129 -123 129h-74v-211c0 -61 18 -88 113 -88
c149 0 231 44 340 184zM467 771h-296v50h296v-50z" />
    <glyph glyph-name="emacron" unicode="&#x113;" horiz-adv-x="520" 
d="M491 116c-51 -87 -115 -125 -207 -125c-176 0 -247 144 -247 256c0 144 99 247 236 247c74 0 219 -42 218 -205h-347c0 -146 34 -253 170 -253c62 0 108 30 144 96zM387 329v3c2 25 -15 122 -118 122c-84 0 -111 -59 -122 -125h240zM417 605h-296v50h296v-50z" />
    <glyph glyph-name="emdash" unicode="&#x2014;" horiz-adv-x="1000" 
d="M1015 289l-24 -57h-1006l28 57h1002z" />
    <glyph glyph-name="endash" unicode="&#x2013;" horiz-adv-x="500" 
d="M515 289l-27 -57h-503l29 57h501z" />
    <glyph glyph-name="Eng" unicode="&#x14a;" horiz-adv-x="740" 
d="M722 650l-25 -3c-52 -7 -65 -28 -65 -110v-537c0 -137 -121 -241 -262 -241c-64 0 -107 25 -107 61c0 22 21 40 46 40c16 0 27 -6 44 -26c21 -24 32 -30 55 -30c89 0 136 97 136 196l-371 606v-462c0 -81 14 -105 65 -110l35 -3v-31h-247v31l25 3c52 7 65 28 65 110v393
c0 82 -13 103 -65 110l-25 3v31h223l326 -539v395c0 81 -14 105 -65 110l-35 3v31h247v-31z" />
    <glyph glyph-name="eng" unicode="&#x14b;" horiz-adv-x="660" 
d="M562 115c0 -178 -75 -356 -232 -356c-64 0 -107 25 -107 61c0 22 21 40 46 40c16 0 27 -6 44 -26c21 -24 32 -30 55 -30c99 0 99 170 99 311v231c0 65 -30 100 -85 100c-56 0 -115 -28 -177 -84v-247c0 -55 18 -78 62 -83l25 -2v-30h-269v30l25 2c44 5 62 28 62 83v235
c0 60 -15 79 -66 83l-24 2v30c56 4 89 8 151 20h34v-79c71 63 130 88 206 88c94 0 151 -49 151 -132v-247z" />
    <glyph glyph-name="Eogonek" unicode="&#x118;" horiz-adv-x="720" 
d="M705 213l-91 -213h-16c-57 0 -96 -54 -96 -114c0 -34 22 -69 58 -69c24 0 59 12 76 32l25 -19c-24 -39 -72 -70 -119 -70c-63 0 -119 45 -119 105c0 54 40 101 82 135h-474v31l25 3c52 7 65 28 65 110v393c0 82 -13 103 -65 110l-25 3v31h571l69 -180l-32 -13
c-92 112 -168 150 -304 150c-88 0 -114 -19 -114 -83v-170h76c85 0 107 23 121 127h34v-299h-34c-10 94 -44 129 -123 129h-74v-211c0 -61 18 -88 113 -88c149 0 231 44 340 184z" />
    <glyph glyph-name="eogonek" unicode="&#x119;" horiz-adv-x="520" 
d="M491 116c-33 -57 -72 -92 -120 -111c-49 -18 -79 -66 -79 -119c0 -34 22 -69 58 -69c24 0 59 12 76 32l25 -19c-24 -39 -72 -70 -119 -70c-63 0 -119 45 -119 105c0 49 34 93 72 126h-1c-176 0 -247 144 -247 256c0 144 99 247 236 247c74 0 219 -42 218 -205h-347
c0 -146 34 -253 170 -253c62 0 108 30 144 96zM387 329v3c2 25 -15 122 -118 122c-84 0 -111 -59 -122 -125h240z" />
    <glyph glyph-name="Epsilon" unicode="&#x395;" horiz-adv-x="720" 
d="M705 213l-91 -213h-583v31l25 3c52 7 65 28 65 110v393c0 82 -13 103 -65 110l-25 3v31h571l69 -180l-32 -13c-92 112 -168 150 -304 150c-88 0 -114 -19 -114 -83v-170h76c85 0 107 23 121 127h34v-299h-34c-10 94 -44 129 -123 129h-74v-211c0 -61 18 -88 113 -88
c149 0 231 44 340 184z" />
    <glyph glyph-name="epsilon" unicode="&#x3b5;" horiz-adv-x="470" 
d="M471 112c-69 -92 -128 -124 -232 -124c-106 0 -200 41 -200 136c0 63 45 105 134 124c-79 23 -119 60 -119 111c0 87 85 124 179 124c91 0 176 -38 176 -91c0 -29 -14 -43 -43 -43c-9 0 -29 14 -58 42c-29 29 -54 43 -73 43c-60 0 -90 -27 -90 -81c0 -61 48 -91 143 -91
h14v-41h-16c-88 0 -153 -15 -153 -92c0 -62 54 -91 121 -91c73 0 135 33 186 99z" />
    <glyph glyph-name="uni03F5" unicode="&#x3f5;" horiz-adv-x="470" 
d="M461 102c-45 -76 -102 -114 -172 -114c-120 0 -178 44 -220 127c-21 41 -31 84 -31 128c0 104 52 180 126 214c31 15 62 22 93 22c66 0 133 -39 163 -80l-47 -68c-33 66 -73 99 -122 99c-75 0 -121 -80 -121 -158h175v-61h-176c1 -60 21 -106 60 -137
c30 -24 62 -36 95 -36c52 0 101 30 146 89z" />
    <glyph glyph-name="Ereversed" unicode="&#x18e;" horiz-adv-x="720" 
d="M705 0h-583l-91 213l31 14c109 -140 191 -184 340 -184c95 0 113 27 113 88v211h-74c-79 0 -113 -35 -123 -129h-34v299h34c14 -104 36 -127 121 -127h76v170c0 64 -26 83 -114 83c-136 0 -212 -38 -304 -150l-32 13l69 180h571v-31l-25 -3c-52 -7 -65 -28 -65 -110v-393
c0 -82 13 -103 65 -110l25 -3v-31z" />
    <glyph glyph-name="ereversed" unicode="&#x258;" horiz-adv-x="520" 
d="M491 247c0 -112 -71 -256 -247 -256c-92 0 -156 38 -207 125l33 16c36 -66 82 -96 144 -96c136 0 170 107 170 253h-347c-1 163 144 205 218 205c137 0 236 -103 236 -247zM381 329c-11 66 -38 125 -122 125c-103 0 -120 -97 -118 -122v-3h240z" />
    <glyph glyph-name="estimated" unicode="&#x212e;" horiz-adv-x="761" 
d="M721 307v-10l-556 -8v-169c0 -3 1 -5 2 -6c55 -61 132 -96 214 -96c85 0 164 38 217 100h52c-63 -73 -162 -118 -269 -118c-183 0 -341 131 -341 307c0 175 158 306 341 306c182 0 340 -131 340 -306zM596 325v168c0 3 -1 5 -2 6c-55 61 -132 96 -213 96
c-82 0 -159 -35 -214 -96c-1 -1 -2 -3 -2 -6v-168c0 -5 4 -9 9 -9h413c5 0 9 4 9 9z" />
    <glyph glyph-name="Eta" unicode="&#x397;" horiz-adv-x="800" 
d="M769 0h-280v31l25 3c52 7 65 28 65 110v201h-358v-201c0 -82 13 -103 65 -110l25 -3v-31h-280v31l25 3c52 7 65 28 65 110v393c0 82 -13 103 -65 110l-25 3v31h280v-31l-25 -3c-52 -7 -65 -28 -65 -110v-149h358v149c0 82 -13 103 -65 110l-25 3v31h280v-31l-25 -3
c-52 -7 -65 -28 -65 -110v-393c0 -82 13 -103 65 -110l25 -3v-31z" />
    <glyph glyph-name="eta" unicode="&#x3b7;" horiz-adv-x="633" 
d="M551 -218h-83v513c0 72 -10 126 -95 126c-57 0 -114 -27 -171 -80v-225c0 -39 7 -62 21 -69c7 -4 24 -6 50 -6h14v-41h-250v41h12c38 0 60 8 66 24c3 9 5 29 5 58v278h-83v41c43 3 85 16 127 41h34v-93c71 62 139 93 202 93c108 0 151 -64 151 -157v-544z" />
    <glyph glyph-name="Eth" unicode="&#xd0;" horiz-adv-x="800" 
d="M752 335c0 -290 -233 -335 -416 -335h-305v31l25 3c53 7 65 28 65 110v196h-90v47h90v149c0 83 -13 104 -65 111l-25 3v31h305c366 0 416 -218 416 -346zM634 342c0 127 -59 298 -294 298c-124 0 -119 -41 -119 -92v-161h200v-47h-200v-210c0 -59 6 -89 118 -89
c236 0 295 171 295 301z" />
    <glyph glyph-name="eth" unicode="&#xf0;" horiz-adv-x="560" 
d="M526 252c0 -162 -93 -261 -244 -261c-148 0 -245 100 -245 250c0 151 99 254 245 254c32 0 56 -5 80 -16c-37 67 -82 111 -154 149l-114 -76l-21 33l91 62c-32 10 -65 17 -113 27l23 42c57 -9 102 -19 139 -30l111 73l22 -32l-87 -58c173 -71 267 -218 267 -417zM424 234
c0 138 -54 221 -143 221c-86 0 -142 -83 -142 -212c0 -135 53 -212 145 -212c88 0 140 76 140 203z" />
    <glyph glyph-name="Etilde" unicode="&#x1ebc;" horiz-adv-x="720" 
d="M705 213l-91 -213h-583v31l25 3c52 7 65 28 65 110v393c0 82 -13 103 -65 110l-25 3v31h571l69 -180l-32 -13c-92 112 -168 150 -304 150c-88 0 -114 -19 -114 -83v-170h76c85 0 107 23 121 127h34v-299h-34c-10 94 -44 129 -123 129h-74v-211c0 -61 18 -88 113 -88
c149 0 231 44 340 184zM478 825c-15 -50 -42 -72 -90 -72c-24 0 -46 4 -95 18c-31 8 -40 10 -54 10c-15 0 -26 -5 -39 -20l-29 10c13 41 47 68 86 68c23 0 44 -4 95 -18c24 -7 36 -9 49 -9c20 0 37 8 48 22z" />
    <glyph glyph-name="etilde" unicode="&#x1ebd;" horiz-adv-x="520" 
d="M491 116c-51 -87 -115 -125 -207 -125c-176 0 -247 144 -247 256c0 144 99 247 236 247c74 0 219 -42 218 -205h-347c0 -146 34 -253 170 -253c62 0 108 30 144 96zM387 329v3c2 25 -15 122 -118 122c-84 0 -111 -59 -122 -125h240zM428 659c-15 -50 -42 -72 -90 -72
c-24 0 -46 4 -95 18c-31 8 -40 10 -54 10c-15 0 -26 -5 -39 -20l-29 10c13 41 47 68 86 68c23 0 44 -4 95 -18c24 -7 36 -9 49 -9c20 0 37 8 48 22z" />
    <glyph glyph-name="eturned" unicode="&#x1dd;" horiz-adv-x="520" 
d="M491 238c0 -144 -99 -247 -236 -247c-74 0 -219 42 -218 205h347c0 146 -34 253 -170 253c-62 0 -108 -30 -144 -96l-33 16c51 87 115 125 207 125c176 0 247 -144 247 -256zM381 156h-240v-3c-2 -25 15 -122 118 -122c84 0 111 59 122 125z" />
    <glyph glyph-name="Euro" unicode="&#x20ac;" 
d="M582 173h-30s-18 -41 -32 -60c-35 -48 -81 -79 -148 -79c-86 0 -162 29 -198 209h219l20 58h-246c-2 16 -2 25 -2 37c0 8 0 17 1 31h271l20 58h-284c25 136 96 219 189 219c54 0 117 -31 152 -79c14 -19 38 -60 38 -60h30l-19 165h-28l-17 -42c-50 45 -102 64 -174 64
c-107 0 -237 -101 -269 -267h-38l-20 -58h50c-1 -13 -1 -20 -1 -30c0 -12 0 -22 1 -38h-30l-20 -58h59c35 -156 135 -257 278 -257c72 0 114 19 164 64l17 -42h28z" />
    <glyph glyph-name="exclamdown" unicode="&#xa1;" horiz-adv-x="300" 
d="M221 433c0 -35 -29 -64 -65 -64c-35 0 -64 29 -64 64c0 36 29 65 64 65c36 0 65 -29 65 -65zM225 -108c0 -68 -24 -101 -72 -101c-45 0 -72 34 -72 92c0 21 5 56 14 102l28 136c9 47 17 121 17 159v31h36v-32c0 -38 7 -123 15 -166l22 -131c12 -68 12 -68 12 -90z" />
    <glyph glyph-name="florin" unicode="&#x192;" 
d="M633 692c0 -23 -20 -41 -45 -41c-21 0 -36 9 -50 30c-18 29 -29 36 -54 36c-47 0 -62 -25 -79 -130l-16 -91h107l-7 -33h-107l-58 -335c-6 -33 -43 -283 -226 -283c-65 0 -127 45 -127 92c0 23 19 41 44 41c23 0 37 -14 46 -45c13 -45 23 -56 48 -56c73 0 99 128 121 250
l59 336h-97l7 33h96l5 27c13 73 34 226 218 226c66 0 115 -24 115 -57z" />
    <glyph glyph-name="fraction" unicode="&#x2044;" horiz-adv-x="140" 
d="M335 681l-465 -681h-58l464 681h59z" />
    <glyph glyph-name="fraction.alt" unicode="&#x2215;" horiz-adv-x="0" 
d="M262 681l-465 -681h-58l464 681h59z" />
    <glyph glyph-name="Gacute" unicode="&#x1f4;" horiz-adv-x="800" 
d="M778 293l-18 -3c-45 -8 -65 -18 -65 -110v-180h-47l-32 69c-75 -58 -141 -82 -227 -82c-197 0 -345 153 -345 356c0 221 171 351 335 351c69 0 137 -21 195 -61l20 48h31l61 -212l-38 -11c-46 65 -72 96 -105 124c-52 43 -104 64 -158 64c-134 0 -223 -124 -223 -310
c0 -180 97 -301 241 -301c67 0 200 33 200 165c0 61 -25 85 -98 94v30h273v-31zM533 815c0 -24 -21 -37 -69 -45l-153 -26l-5 12l105 61c32 19 61 31 83 31s39 -14 39 -33z" />
    <glyph glyph-name="gacute" unicode="&#x1f5;" horiz-adv-x="540" 
d="M542 520c0 -22 -16 -38 -38 -38c-26 0 -34 19 -53 19c-17 0 -33 -13 -53 -43c52 -35 83 -87 83 -142c0 -65 -45 -168 -210 -168c-34 0 -54 3 -94 16c-29 -15 -46 -35 -46 -53c0 -23 20 -35 65 -41l191 -26c64 -9 151 -24 151 -123c0 -98 -105 -162 -267 -162
c-148 0 -254 49 -254 122c0 49 31 81 105 109c-51 18 -73 44 -73 84c0 47 31 78 98 100c-54 37 -81 84 -81 142c0 99 92 178 206 178c31 0 54 -5 94 -20c17 32 49 89 122 89c32 0 54 -18 54 -43zM379 321c0 95 -33 141 -102 141s-109 -52 -109 -140c0 -96 35 -142 106 -142
c84 0 105 64 105 141zM468 -111c0 39 -29 58 -103 67l-205 25c-54 -20 -83 -52 -83 -90c0 -56 79 -95 194 -95c156 0 197 56 197 93zM396 651c0 -26 -19 -41 -62 -50l-139 -29l-5 14l95 68c29 22 56 34 76 34s35 -16 35 -37z" />
    <glyph glyph-name="Gamma" unicode="&#x393;" horiz-adv-x="640" 
d="M654 510l-32 -16c-87 104 -168 145 -289 145c-108 0 -112 -35 -112 -98v-397c0 -81 14 -105 65 -110l33 -3v-31h-288v31l25 3c52 7 65 28 65 110v393c0 82 -13 103 -65 110l-25 3v31h551z" />
    <glyph glyph-name="gamma" unicode="&#x3b3;" horiz-adv-x="554" 
d="M547 470l-3 -33c-16 -2 -31 -3 -46 -7c-23 -13 -43 -41 -60 -84l-129 -322c5 -21 33 -86 35 -112c2 -22 3 -40 3 -54c0 -63 -31 -94 -72 -94c-55 0 -83 31 -83 93c0 35 10 78 34 139l-164 417c-9 13 -23 19 -43 19h-29l9 37h246l-6 -35c-36 -1 -72 3 -72 -30
c-1 -10 2 -20 7 -33l106 -294l100 256l39 90c-1 8 -12 12 -34 12h-21l4 35h179z" />
    <glyph glyph-name="Gbreve" unicode="&#x11e;" horiz-adv-x="800" 
d="M778 293l-18 -3c-45 -8 -65 -18 -65 -110v-180h-47l-32 69c-75 -58 -141 -82 -227 -82c-197 0 -345 153 -345 356c0 221 171 351 335 351c69 0 137 -21 195 -61l20 48h31l61 -212l-38 -11c-46 65 -72 96 -105 124c-52 43 -104 64 -158 64c-134 0 -223 -124 -223 -310
c0 -180 97 -301 241 -301c67 0 200 33 200 165c0 61 -25 85 -98 94v30h273v-31zM566 834c-34 -55 -106 -91 -182 -91c-81 0 -146 33 -179 91l25 16c46 -31 99 -47 157 -47c55 0 116 19 153 47z" />
    <glyph glyph-name="gbreve" unicode="&#x11f;" horiz-adv-x="540" 
d="M542 520c0 -22 -16 -38 -38 -38c-26 0 -34 19 -53 19c-17 0 -33 -13 -53 -43c52 -35 83 -87 83 -142c0 -65 -45 -168 -210 -168c-34 0 -54 3 -94 16c-29 -15 -46 -35 -46 -53c0 -23 20 -35 65 -41l191 -26c64 -9 151 -24 151 -123c0 -98 -105 -162 -267 -162
c-148 0 -254 49 -254 122c0 49 31 81 105 109c-51 18 -73 44 -73 84c0 47 31 78 98 100c-54 37 -81 84 -81 142c0 99 92 178 206 178c31 0 54 -5 94 -20c17 32 49 89 122 89c32 0 54 -18 54 -43zM379 321c0 95 -33 141 -102 141s-109 -52 -109 -140c0 -96 35 -142 106 -142
c84 0 105 64 105 141zM468 -111c0 39 -29 58 -103 67l-205 25c-54 -20 -83 -52 -83 -90c0 -56 79 -95 194 -95c156 0 197 56 197 93zM438 672c-31 -61 -96 -101 -165 -101c-74 0 -133 37 -163 101l23 18c42 -34 90 -52 142 -52c50 0 106 21 140 52z" />
    <glyph glyph-name="Gcaron" unicode="&#x1e6;" horiz-adv-x="800" 
d="M778 293l-18 -3c-45 -8 -65 -18 -65 -110v-180h-47l-32 69c-75 -58 -141 -82 -227 -82c-197 0 -345 153 -345 356c0 221 171 351 335 351c69 0 137 -21 195 -61l20 48h31l61 -212l-38 -11c-46 65 -72 96 -105 124c-52 43 -104 64 -158 64c-134 0 -223 -124 -223 -310
c0 -180 97 -301 241 -301c67 0 200 33 200 165c0 61 -25 85 -98 94v30h273v-31zM541 827l-156 -84l-156 84l15 22l141 -40l142 40z" />
    <glyph glyph-name="gcaron" unicode="&#x1e7;" horiz-adv-x="540" 
d="M542 520c0 -22 -16 -38 -38 -38c-26 0 -34 19 -53 19c-17 0 -33 -13 -53 -43c52 -35 83 -87 83 -142c0 -65 -45 -168 -210 -168c-34 0 -54 3 -94 16c-29 -15 -46 -35 -46 -53c0 -23 20 -35 65 -41l191 -26c64 -9 151 -24 151 -123c0 -98 -105 -162 -267 -162
c-148 0 -254 49 -254 122c0 49 31 81 105 109c-51 18 -73 44 -73 84c0 47 31 78 98 100c-54 37 -81 84 -81 142c0 99 92 178 206 178c31 0 54 -5 94 -20c17 32 49 89 122 89c32 0 54 -18 54 -43zM379 321c0 95 -33 141 -102 141s-109 -52 -109 -140c0 -96 35 -142 106 -142
c84 0 105 64 105 141zM468 -111c0 39 -29 58 -103 67l-205 25c-54 -20 -83 -52 -83 -90c0 -56 79 -95 194 -95c156 0 197 56 197 93zM414 664l-142 -93l-142 93l13 25l129 -46l128 46z" />
    <glyph glyph-name="Gcircumflex" unicode="&#x11c;" horiz-adv-x="800" 
d="M778 293l-18 -3c-45 -8 -65 -18 -65 -110v-180h-47l-32 69c-75 -58 -141 -82 -227 -82c-197 0 -345 153 -345 356c0 221 171 351 335 351c69 0 137 -21 195 -61l20 48h31l61 -212l-38 -11c-46 65 -72 96 -105 124c-52 43 -104 64 -158 64c-134 0 -223 -124 -223 -310
c0 -180 97 -301 241 -301c67 0 200 33 200 165c0 61 -25 85 -98 94v30h273v-31zM541 765l-15 -22l-141 40l-142 -40l-14 22l156 84z" />
    <glyph glyph-name="gcircumflex" unicode="&#x11d;" horiz-adv-x="540" 
d="M542 520c0 -22 -16 -38 -38 -38c-26 0 -34 19 -53 19c-17 0 -33 -13 -53 -43c52 -35 83 -87 83 -142c0 -65 -45 -168 -210 -168c-34 0 -54 3 -94 16c-29 -15 -46 -35 -46 -53c0 -23 20 -35 65 -41l191 -26c64 -9 151 -24 151 -123c0 -98 -105 -162 -267 -162
c-148 0 -254 49 -254 122c0 49 31 81 105 109c-51 18 -73 44 -73 84c0 47 31 78 98 100c-54 37 -81 84 -81 142c0 99 92 178 206 178c31 0 54 -5 94 -20c17 32 49 89 122 89c32 0 54 -18 54 -43zM379 321c0 95 -33 141 -102 141s-109 -52 -109 -140c0 -96 35 -142 106 -142
c84 0 105 64 105 141zM468 -111c0 39 -29 58 -103 67l-205 25c-54 -20 -83 -52 -83 -90c0 -56 79 -95 194 -95c156 0 197 56 197 93zM414 596l-14 -25l-128 45l-129 -45l-13 25l142 93z" />
    <glyph glyph-name="Gcommaaccent" unicode="&#x122;" horiz-adv-x="800" 
d="M778 293l-18 -3c-45 -8 -65 -18 -65 -110v-180h-47l-32 69c-75 -58 -141 -82 -227 -82c-197 0 -345 153 -345 356c0 221 171 351 335 351c69 0 137 -21 195 -61l20 48h31l61 -212l-38 -11c-46 65 -72 96 -105 124c-52 43 -104 64 -158 64c-134 0 -223 -124 -223 -310
c0 -180 97 -301 241 -301c67 0 200 33 200 165c0 61 -25 85 -98 94v30h273v-31zM451 -132c0 -57 -36 -107 -98 -136l-11 22c42 27 59 53 62 92c-14 -11 -21 -14 -31 -14c-32 0 -54 24 -54 57s28 61 62 61c39 0 70 -37 70 -82z" />
    <glyph glyph-name="gcommaaccent" unicode="&#x123;" horiz-adv-x="540" 
d="M338 654c0 -33 -28 -61 -62 -61c-39 0 -70 37 -70 82c0 57 36 107 98 136l11 -22c-42 -27 -59 -53 -62 -92c14 11 21 14 31 14c32 0 54 -24 54 -57zM542 520c0 -22 -16 -38 -38 -38c-26 0 -34 19 -53 19c-17 0 -33 -13 -53 -43c52 -35 83 -87 83 -142
c0 -65 -45 -168 -210 -168c-34 0 -54 3 -94 16c-29 -15 -46 -35 -46 -53c0 -23 20 -35 65 -41l191 -26c64 -9 151 -24 151 -123c0 -98 -105 -162 -267 -162c-148 0 -254 49 -254 122c0 49 31 81 105 109c-51 18 -73 44 -73 84c0 47 31 78 98 100c-54 37 -81 84 -81 142
c0 99 92 178 206 178c31 0 54 -5 94 -20c17 32 49 89 122 89c32 0 54 -18 54 -43zM379 321c0 95 -33 141 -102 141s-109 -52 -109 -140c0 -96 35 -142 106 -142c84 0 105 64 105 141zM468 -111c0 39 -29 58 -103 67l-205 25c-54 -20 -83 -52 -83 -90c0 -56 79 -95 194 -95
c156 0 197 56 197 93z" />
    <glyph glyph-name="Gdotaccent" unicode="&#x120;" horiz-adv-x="800" 
d="M778 293l-18 -3c-45 -8 -65 -18 -65 -110v-180h-47l-32 69c-75 -58 -141 -82 -227 -82c-197 0 -345 153 -345 356c0 221 171 351 335 351c69 0 137 -21 195 -61l20 48h31l61 -212l-38 -11c-46 65 -72 96 -105 124c-52 43 -104 64 -158 64c-134 0 -223 -124 -223 -310
c0 -180 97 -301 241 -301c67 0 200 33 200 165c0 61 -25 85 -98 94v30h273v-31zM441 796c0 -32 -27 -59 -59 -59s-59 27 -59 59c0 33 27 59 60 59c31 0 58 -27 58 -59z" />
    <glyph glyph-name="gdotaccent" unicode="&#x121;" horiz-adv-x="540" 
d="M542 520c0 -22 -16 -38 -38 -38c-26 0 -34 19 -53 19c-17 0 -33 -13 -53 -43c52 -35 83 -87 83 -142c0 -65 -45 -168 -210 -168c-34 0 -54 3 -94 16c-29 -15 -46 -35 -46 -53c0 -23 20 -35 65 -41l191 -26c64 -9 151 -24 151 -123c0 -98 -105 -162 -267 -162
c-148 0 -254 49 -254 122c0 49 31 81 105 109c-51 18 -73 44 -73 84c0 47 31 78 98 100c-54 37 -81 84 -81 142c0 99 92 178 206 178c31 0 54 -5 94 -20c17 32 49 89 122 89c32 0 54 -18 54 -43zM379 321c0 95 -33 141 -102 141s-109 -52 -109 -140c0 -96 35 -142 106 -142
c84 0 105 64 105 141zM468 -111c0 39 -29 58 -103 67l-205 25c-54 -20 -83 -52 -83 -90c0 -56 79 -95 194 -95c156 0 197 56 197 93zM328 630c0 -32 -27 -59 -59 -59s-59 27 -59 59c0 33 27 59 60 59c31 0 58 -27 58 -59z" />
    <glyph glyph-name="germandbls" unicode="&#xdf;" horiz-adv-x="660" 
d="M614 216c0 -124 -118 -225 -263 -225c-45 0 -93 12 -134 35l23 38c46 -22 72 -29 103 -29c87 0 169 81 169 167c0 77 -58 98 -131 135l-50 26c-34 18 -43 33 -43 51c0 23 21 39 56 52l27 9c63 23 90 51 90 96c0 51 -37 86 -93 86c-61 0 -152 -35 -152 -224v-267
c0 -244 -160 -276 -224 -276c-37 0 -73 7 -101 20l16 39c41 -15 59 -19 83 -19c52 0 131 30 131 203v319h-84v33h84c45 202 210 209 252 209c98 0 170 -52 170 -123c0 -46 -33 -88 -86 -109l-23 -9c-24 -9 -33 -17 -33 -28c0 -8 9 -16 30 -26l57 -26
c84 -38 126 -91 126 -157z" />
    <glyph glyph-name="uni0300" unicode="&#x300;" horiz-adv-x="0" 
d="M-208 586l-5 -14l-139 29c-43 9 -62 24 -62 50c0 21 15 37 35 37s47 -12 76 -34z" />
    <glyph glyph-name="greaterequal" unicode="&#x2265;" horiz-adv-x="600" 
d="M538 333l-458 -245v88l357 191l-357 191v88l458 -245v-68zM520 -39h-440v78h440v-78z" />
    <glyph glyph-name="greaterequal.slant" unicode="&#x2a7e;" horiz-adv-x="600" 
d="M520 333l-458 -245v88l357 191l-357 191v88l458 -245v-68zM502 121l-440 -235v88l440 235v-88z" />
    <glyph glyph-name="guillemotleft" unicode="&#xab;" horiz-adv-x="360" 
d="M312 420l-62 -155l51 -158l-30 -18l-97 176l108 172zM189 420l-62 -155l52 -158l-30 -18l-98 176l109 172z" />
    <glyph glyph-name="guillemotright" unicode="&#xbb;" horiz-adv-x="360" 
d="M189 261l-108 -172l-30 17l62 155l-52 158l31 18zM312 261l-109 -172l-29 17l62 155l-52 158l30 18z" />
    <glyph glyph-name="guilsinglleft" unicode="&#x2039;" horiz-adv-x="240" 
d="M189 420l-62 -155l52 -158l-31 -18l-97 176l108 172z" />
    <glyph glyph-name="guilsinglright" unicode="&#x203a;" horiz-adv-x="240" 
d="M189 261l-108 -172l-30 17l62 155l-51 158l30 18z" />
    <glyph glyph-name="Hbar" unicode="&#x126;" horiz-adv-x="800" 
d="M769 0h-280v31l25 3c52 7 65 28 65 110v201h-358v-201c0 -82 13 -103 65 -110l25 -3v-31h-280v31l25 3c52 7 65 28 65 110v347h-90v40h90v6c0 82 -13 103 -65 110l-25 3v31h280v-31l-25 -3c-52 -7 -65 -28 -65 -110v-6h358v6c0 82 -13 103 -65 110l-25 3v31h280v-31
l-25 -3c-52 -7 -65 -28 -65 -110v-6h90v-40h-90v-347c0 -82 13 -103 65 -110l25 -3v-31zM579 388v103h-358v-103h358z" />
    <glyph glyph-name="hbar" unicode="&#x127;" horiz-adv-x="703" 
d="M663 0h-269v30l25 2c44 5 62 28 62 83v230c0 67 -29 101 -86 101c-58 0 -114 -26 -173 -82v-249c0 -55 18 -78 62 -83l25 -2v-30h-269v30l25 2c44 5 62 28 62 83v381l-87 -28v34l87 27v9c0 89 -11 107 -65 112l-22 2v31c68 8 91 14 142 34h40v-158l128 41v-34l-128 -40
v-115c66 57 128 83 197 83c157 0 157 -98 157 -143v-236c0 -55 18 -78 62 -83l25 -2v-30z" />
    <glyph glyph-name="Hbrevebelow" unicode="&#x1e2a;" horiz-adv-x="800" 
d="M769 0h-280v31l25 3c52 7 65 28 65 110v201h-358v-201c0 -82 13 -103 65 -110l25 -3v-31h-280v31l25 3c52 7 65 28 65 110v393c0 82 -13 103 -65 110l-25 3v31h280v-31l-25 -3c-52 -7 -65 -28 -65 -110v-149h358v149c0 82 -13 103 -65 110l-25 3v31h280v-31l-25 -3
c-52 -7 -65 -28 -65 -110v-393c0 -82 13 -103 65 -110l25 -3v-31zM581 -112c-34 -55 -106 -91 -182 -91c-81 0 -146 33 -179 91l25 16c46 -31 99 -47 157 -47c55 0 116 19 153 47z" />
    <glyph glyph-name="hbrevebelow" unicode="&#x1e2b;" horiz-adv-x="660" 
d="M643 0h-269v30l25 2c44 5 62 28 62 83v230c0 67 -29 101 -86 101c-58 0 -114 -26 -173 -82v-249c0 -55 18 -78 62 -83l25 -2v-30h-269v30l25 2c44 5 62 28 62 83v423c0 89 -11 107 -65 112l-22 2v31c68 8 91 14 142 34h40v-306c66 57 128 83 197 83
c157 0 157 -98 157 -143v-236c0 -55 18 -78 62 -83l25 -2v-30zM513 -112c-34 -55 -106 -91 -182 -91c-81 0 -146 33 -179 91l25 16c46 -31 99 -47 157 -47c55 0 116 19 153 47z" />
    <glyph glyph-name="Hcircumflex" unicode="&#x124;" horiz-adv-x="800" 
d="M769 0h-280v31l25 3c52 7 65 28 65 110v201h-358v-201c0 -82 13 -103 65 -110l25 -3v-31h-280v31l25 3c52 7 65 28 65 110v393c0 82 -13 103 -65 110l-25 3v31h280v-31l-25 -3c-52 -7 -65 -28 -65 -110v-149h358v149c0 82 -13 103 -65 110l-25 3v31h280v-31l-25 -3
c-52 -7 -65 -28 -65 -110v-393c0 -82 13 -103 65 -110l25 -3v-31zM556 765l-15 -22l-141 40l-142 -40l-14 22l156 84z" />
    <glyph glyph-name="hcircumflex" unicode="&#x125;" horiz-adv-x="660" 
d="M643 0h-269v30l25 2c44 5 62 28 62 83v230c0 67 -29 101 -86 101c-58 0 -114 -26 -173 -82v-249c0 -55 18 -78 62 -83l25 -2v-30h-269v30l25 2c44 5 62 28 62 83v423c0 89 -11 107 -65 112l-22 2v31c68 8 91 14 142 34h40v-306c66 57 128 83 197 83
c157 0 157 -98 157 -143v-236c0 -55 18 -78 62 -83l25 -2v-30zM486 801l-15 -22l-141 40l-142 -40l-14 22l156 84z" />
    <glyph glyph-name="Hdieresis" unicode="&#x1e26;" horiz-adv-x="800" 
d="M769 0h-280v31l25 3c52 7 65 28 65 110v201h-358v-201c0 -82 13 -103 65 -110l25 -3v-31h-280v31l25 3c52 7 65 28 65 110v393c0 82 -13 103 -65 110l-25 3v31h280v-31l-25 -3c-52 -7 -65 -28 -65 -110v-149h358v149c0 82 -13 103 -65 110l-25 3v31h280v-31l-25 -3
c-52 -7 -65 -28 -65 -110v-393c0 -82 13 -103 65 -110l25 -3v-31zM376 796c0 -32 -27 -59 -59 -59s-59 27 -59 59c0 33 27 59 60 59c31 0 58 -27 58 -59zM539 796c0 -32 -27 -59 -59 -59s-59 27 -59 59c0 33 27 59 60 59c31 0 58 -27 58 -59z" />
    <glyph glyph-name="hdieresis" unicode="&#x1e27;" horiz-adv-x="660" 
d="M643 0h-269v30l25 2c44 5 62 28 62 83v230c0 67 -29 101 -86 101c-58 0 -114 -26 -173 -82v-249c0 -55 18 -78 62 -83l25 -2v-30h-269v30l25 2c44 5 62 28 62 83v423c0 89 -11 107 -65 112l-22 2v31c68 8 91 14 142 34h40v-306c66 57 128 83 197 83
c157 0 157 -98 157 -143v-236c0 -55 18 -78 62 -83l25 -2v-30zM306 832c0 -32 -27 -59 -59 -59s-59 27 -59 59c0 33 27 59 60 59c31 0 58 -27 58 -59zM469 832c0 -32 -27 -59 -59 -59s-59 27 -59 59c0 33 27 59 60 59c31 0 58 -27 58 -59z" />
    <glyph glyph-name="Hdotbelow" unicode="&#x1e24;" horiz-adv-x="800" 
d="M769 0h-280v31l25 3c52 7 65 28 65 110v201h-358v-201c0 -82 13 -103 65 -110l25 -3v-31h-280v31l25 3c52 7 65 28 65 110v393c0 82 -13 103 -65 110l-25 3v31h280v-31l-25 -3c-52 -7 -65 -28 -65 -110v-149h358v149c0 82 -13 103 -65 110l-25 3v31h280v-31l-25 -3
c-52 -7 -65 -28 -65 -110v-393c0 -82 13 -103 65 -110l25 -3v-31zM456 -150c0 -32 -27 -59 -59 -59s-59 27 -59 59c0 33 27 59 60 59c31 0 58 -27 58 -59z" />
    <glyph glyph-name="hdotbelow" unicode="&#x1e25;" horiz-adv-x="660" 
d="M643 0h-269v30l25 2c44 5 62 28 62 83v230c0 67 -29 101 -86 101c-58 0 -114 -26 -173 -82v-249c0 -55 18 -78 62 -83l25 -2v-30h-269v30l25 2c44 5 62 28 62 83v423c0 89 -11 107 -65 112l-22 2v31c68 8 91 14 142 34h40v-306c66 57 128 83 197 83
c157 0 157 -98 157 -143v-236c0 -55 18 -78 62 -83l25 -2v-30zM388 -150c0 -32 -27 -59 -59 -59s-59 27 -59 59c0 33 27 59 60 59c31 0 58 -27 58 -59z" />
    <glyph glyph-name="uni0309" unicode="&#x309;" horiz-adv-x="0" 
d="M-173 658c0 -26 -11 -57 -73 -82c-22 -9 -28 -19 -28 -57h-40c0 4 -1 18 -1 26c0 29 6 42 32 59l22 14c15 10 21 26 21 44c0 28 -15 44 -42 44c-25 0 -44 -11 -44 -25c0 -3 1 -5 2 -9v1c5 -10 6 -12 6 -18c0 -14 -16 -29 -32 -29c-22 0 -36 17 -36 39c0 35 39 76 108 76
c52 0 105 -29 105 -83z" />
    <glyph glyph-name="hungarumlaut" unicode="&#x2dd;" horiz-adv-x="380" 
d="M231 682c0 -18 -8 -38 -20 -51l-77 -81l-16 11l35 90c17 44 31 60 53 60c15 0 25 -11 25 -29zM351 681c0 -17 -8 -36 -21 -50l-76 -81l-16 11l35 90c16 43 31 60 53 60c16 0 25 -11 25 -30z" />
    <glyph glyph-name="uni030B" unicode="&#x30b;" horiz-adv-x="0" 
d="M-249 682c0 -18 -8 -38 -20 -51l-77 -81l-16 11l35 90c17 44 31 60 53 60c15 0 25 -11 25 -29zM-129 681c0 -17 -8 -36 -21 -50l-76 -81l-16 11l35 90c16 43 31 60 53 60c16 0 25 -11 25 -30z" />
    <glyph glyph-name="Iacute" unicode="&#xcd;" horiz-adv-x="340" 
d="M301 0h-270v31l20 3c54 9 65 27 65 110v393c0 83 -11 101 -65 110l-20 3v31h270v-31l-20 -3c-54 -9 -65 -27 -65 -110v-393c0 -83 11 -101 65 -110l20 -3v-31zM314 815c0 -24 -21 -37 -69 -45l-153 -26l-5 12l105 61c32 19 61 31 83 31s39 -14 39 -33z" />
    <glyph glyph-name="iacute" unicode="&#xed;" horiz-adv-x="300" 
d="M288 0h-268v30l25 2c44 5 62 28 62 83v235c0 60 -14 78 -66 83l-20 2v30c53 4 86 9 147 20h34v-370c0 -55 17 -78 62 -83l24 -2v-30zM279 651c0 -26 -19 -41 -62 -50l-139 -29l-5 14l95 68c29 22 56 34 76 34s35 -16 35 -37z" />
    <glyph glyph-name="Ibreve" unicode="&#x12c;" horiz-adv-x="340" 
d="M301 0h-270v31l20 3c54 9 65 27 65 110v393c0 83 -11 101 -65 110l-20 3v31h270v-31l-20 -3c-54 -9 -65 -27 -65 -110v-393c0 -83 11 -101 65 -110l20 -3v-31zM347 834c-34 -55 -106 -91 -182 -91c-81 0 -146 33 -179 91l25 16c46 -31 99 -47 157 -47c55 0 116 19 153 47
z" />
    <glyph glyph-name="ibreve" unicode="&#x12d;" horiz-adv-x="300" 
d="M288 0h-268v30l25 2c44 5 62 28 62 83v235c0 60 -14 78 -66 83l-20 2v30c53 4 86 9 147 20h34v-370c0 -55 17 -78 62 -83l24 -2v-30zM321 672c-31 -61 -96 -101 -165 -101c-74 0 -133 37 -163 101l23 18c42 -34 90 -52 142 -52c50 0 106 21 140 52z" />
    <glyph glyph-name="Icaron" unicode="&#x1cf;" horiz-adv-x="340" 
d="M301 0h-270v31l20 3c54 9 65 27 65 110v393c0 83 -11 101 -65 110l-20 3v31h270v-31l-20 -3c-54 -9 -65 -27 -65 -110v-393c0 -83 11 -101 65 -110l20 -3v-31zM322 827l-156 -84l-156 84l15 22l141 -40l142 40z" />
    <glyph glyph-name="icaron" unicode="&#x1d0;" horiz-adv-x="300" 
d="M288 0h-268v30l25 2c44 5 62 28 62 83v235c0 60 -14 78 -66 83l-20 2v30c53 4 86 9 147 20h34v-370c0 -55 17 -78 62 -83l24 -2v-30zM297 664l-142 -93l-142 93l13 25l129 -46l128 46z" />
    <glyph glyph-name="Icircumflex" unicode="&#xce;" horiz-adv-x="340" 
d="M301 0h-270v31l20 3c54 9 65 27 65 110v393c0 83 -11 101 -65 110l-20 3v31h270v-31l-20 -3c-54 -9 -65 -27 -65 -110v-393c0 -83 11 -101 65 -110l20 -3v-31zM322 765l-15 -22l-141 40l-142 -40l-14 22l156 84z" />
    <glyph glyph-name="icircumflex" unicode="&#xee;" horiz-adv-x="300" 
d="M288 0h-268v30l25 2c44 5 62 28 62 83v235c0 60 -14 78 -66 83l-20 2v30c53 4 86 9 147 20h34v-370c0 -55 17 -78 62 -83l24 -2v-30zM297 596l-14 -25l-128 45l-129 -45l-13 25l142 93z" />
    <glyph glyph-name="Idblgrave" unicode="&#x208;" horiz-adv-x="340" 
d="M301 0h-270v31l20 3c54 9 65 27 65 110v393c0 83 -11 101 -65 110l-20 3v31h270v-31l-20 -3c-54 -9 -65 -27 -65 -110v-393c0 -83 11 -101 65 -110l20 -3v-31zM238 757l-16 -11l-77 81c-12 13 -20 33 -20 51s10 29 25 29c22 0 36 -16 53 -60zM118 757l-16 -11l-76 81
c-13 14 -21 33 -21 50c0 19 9 30 25 30c22 0 37 -17 53 -60z" />
    <glyph glyph-name="idblgrave" unicode="&#x209;" horiz-adv-x="300" 
d="M288 0h-268v30l25 2c44 5 62 28 62 83v235c0 60 -14 78 -66 83l-20 2v30c53 4 86 9 147 20h34v-370c0 -55 17 -78 62 -83l24 -2v-30zM227 561l-16 -11l-77 81c-12 13 -20 33 -20 51s10 29 25 29c22 0 36 -16 53 -60zM107 561l-16 -11l-76 81c-13 14 -21 33 -21 50
c0 19 9 30 25 30c22 0 37 -17 53 -60z" />
    <glyph glyph-name="Idieresis" unicode="&#xcf;" horiz-adv-x="340" 
d="M301 0h-270v31l20 3c54 9 65 27 65 110v393c0 83 -11 101 -65 110l-20 3v31h270v-31l-20 -3c-54 -9 -65 -27 -65 -110v-393c0 -83 11 -101 65 -110l20 -3v-31zM142 796c0 -32 -27 -59 -59 -59s-59 27 -59 59c0 33 27 59 60 59c31 0 58 -27 58 -59zM305 796
c0 -32 -27 -59 -59 -59s-59 27 -59 59c0 33 27 59 60 59c31 0 58 -27 58 -59z" />
    <glyph glyph-name="idieresis" unicode="&#xef;" horiz-adv-x="300" 
d="M288 0h-268v30l25 2c44 5 62 28 62 83v235c0 60 -14 78 -66 83l-20 2v30c53 4 86 9 147 20h34v-370c0 -55 17 -78 62 -83l24 -2v-30zM131 630c0 -32 -27 -59 -59 -59s-59 27 -59 59c0 33 27 59 60 59c31 0 58 -27 58 -59zM294 630c0 -32 -27 -59 -59 -59s-59 27 -59 59
c0 33 27 59 60 59c31 0 58 -27 58 -59z" />
    <glyph glyph-name="Idieresisacute" unicode="&#x1e2e;" horiz-adv-x="340" 
d="M301 0h-270v31l20 3c54 9 65 27 65 110v393c0 83 -11 101 -65 110l-20 3v31h270v-31l-20 -3c-54 -9 -65 -27 -65 -110v-393c0 -83 11 -101 65 -110l20 -3v-31zM142 796c0 -32 -27 -59 -59 -59s-59 27 -59 59c0 33 27 59 60 59c31 0 58 -27 58 -59zM305 796
c0 -32 -27 -59 -59 -59s-59 27 -59 59c0 33 27 59 60 59c31 0 58 -27 58 -59zM314 989c0 -24 -21 -37 -69 -45l-153 -26l-5 12l105 61c32 19 61 31 83 31s39 -14 39 -33z" />
    <glyph glyph-name="idieresisacute" unicode="&#x1e2f;" horiz-adv-x="300" 
d="M288 0h-268v30l25 2c44 5 62 28 62 83v235c0 60 -14 78 -66 83l-20 2v30c53 4 86 9 147 20h34v-370c0 -55 17 -78 62 -83l24 -2v-30zM131 630c0 -32 -27 -59 -59 -59s-59 27 -59 59c0 33 27 59 60 59c31 0 58 -27 58 -59zM294 630c0 -32 -27 -59 -59 -59s-59 27 -59 59
c0 33 27 59 60 59c31 0 58 -27 58 -59zM303 815c0 -24 -21 -37 -69 -45l-153 -26l-5 12l105 61c32 19 61 31 83 31s39 -14 39 -33z" />
    <glyph glyph-name="Idotaccent" unicode="&#x130;" horiz-adv-x="340" 
d="M301 0h-270v31l20 3c54 9 65 27 65 110v393c0 83 -11 101 -65 110l-20 3v31h270v-31l-20 -3c-54 -9 -65 -27 -65 -110v-393c0 -83 11 -101 65 -110l20 -3v-31zM222 796c0 -32 -27 -59 -59 -59s-59 27 -59 59c0 33 27 59 60 59c31 0 58 -27 58 -59z" />
    <glyph glyph-name="Idotbelow" unicode="&#x1eca;" horiz-adv-x="340" 
d="M301 0h-270v31l20 3c54 9 65 27 65 110v393c0 83 -11 101 -65 110l-20 3v31h270v-31l-20 -3c-54 -9 -65 -27 -65 -110v-393c0 -83 11 -101 65 -110l20 -3v-31zM222 -150c0 -32 -27 -59 -59 -59s-59 27 -59 59c0 33 27 59 60 59c31 0 58 -27 58 -59z" />
    <glyph glyph-name="idotbelow" unicode="&#x1ecb;" horiz-adv-x="300" 
d="M288 0h-268v30l25 2c44 5 62 28 62 83v235c0 60 -14 78 -66 83l-20 2v30c53 4 86 9 147 20h34v-370c0 -55 17 -78 62 -83l24 -2v-30zM211 630c0 -32 -27 -59 -59 -59s-59 27 -59 59c0 33 27 59 60 59c31 0 58 -27 58 -59zM206 -150c0 -32 -27 -59 -59 -59s-59 27 -59 59
c0 33 27 59 60 59c31 0 58 -27 58 -59z" />
    <glyph glyph-name="Igrave" unicode="&#xcc;" horiz-adv-x="340" 
d="M301 0h-270v31l20 3c54 9 65 27 65 110v393c0 83 -11 101 -65 110l-20 3v31h270v-31l-20 -3c-54 -9 -65 -27 -65 -110v-393c0 -83 11 -101 65 -110l20 -3v-31zM245 756l-5 -12l-153 26c-48 8 -69 21 -69 45c0 19 17 33 39 33s51 -12 83 -31z" />
    <glyph glyph-name="igrave" unicode="&#xec;" horiz-adv-x="300" 
d="M288 0h-268v30l25 2c44 5 62 28 62 83v235c0 60 -14 78 -66 83l-20 2v30c53 4 86 9 147 20h34v-370c0 -55 17 -78 62 -83l24 -2v-30zM237 586l-5 -14l-139 29c-43 9 -62 24 -62 50c0 21 15 37 35 37s47 -12 76 -34z" />
    <glyph glyph-name="Ihookabove" unicode="&#x1ec8;" horiz-adv-x="340" 
d="M301 0h-270v31l20 3c54 9 65 27 65 110v393c0 83 -11 101 -65 110l-20 3v31h270v-31l-20 -3c-54 -9 -65 -27 -65 -110v-393c0 -83 11 -101 65 -110l20 -3v-31zM283 854c0 -26 -11 -57 -73 -82c-22 -9 -28 -19 -28 -57h-40c0 4 -1 18 -1 26c0 29 6 42 32 59l22 14
c15 10 21 26 21 44c0 28 -15 44 -42 44c-25 0 -44 -11 -44 -25c0 -3 1 -5 2 -9v1c5 -10 6 -12 6 -18c0 -14 -16 -29 -32 -29c-22 0 -36 17 -36 39c0 35 39 76 108 76c52 0 105 -29 105 -83z" />
    <glyph glyph-name="ihookabove" unicode="&#x1ec9;" horiz-adv-x="300" 
d="M288 0h-268v30l25 2c44 5 62 28 62 83v235c0 60 -14 78 -66 83l-20 2v30c53 4 86 9 147 20h34v-370c0 -55 17 -78 62 -83l24 -2v-30zM272 658c0 -26 -11 -57 -73 -82c-22 -9 -28 -19 -28 -57h-40c0 4 -1 18 -1 26c0 29 6 42 32 59l22 14c15 10 21 26 21 44
c0 28 -15 44 -42 44c-25 0 -44 -11 -44 -25c0 -3 1 -5 2 -9v1c5 -10 6 -12 6 -18c0 -14 -16 -29 -32 -29c-22 0 -36 17 -36 39c0 35 39 76 108 76c52 0 105 -29 105 -83z" />
    <glyph glyph-name="Imacron" unicode="&#x12a;" horiz-adv-x="340" 
d="M301 0h-270v31l20 3c54 9 65 27 65 110v393c0 83 -11 101 -65 110l-20 3v31h270v-31l-20 -3c-54 -9 -65 -27 -65 -110v-393c0 -83 11 -101 65 -110l20 -3v-31zM310 771h-296v50h296v-50z" />
    <glyph glyph-name="imacron" unicode="&#x12b;" horiz-adv-x="300" 
d="M288 0h-268v30l25 2c44 5 62 28 62 83v235c0 60 -14 78 -66 83l-20 2v30c53 4 86 9 147 20h34v-370c0 -55 17 -78 62 -83l24 -2v-30zM299 605h-296v50h296v-50z" />
    <glyph glyph-name="infinity" unicode="&#x221e;" horiz-adv-x="812" 
d="M782 243c0 -105 -84 -190 -188 -190c-82 0 -131 61 -178 128c-54 -67 -116 -128 -198 -128c-104 0 -188 85 -188 190c0 104 84 190 188 190c82 0 131 -62 178 -129c54 67 116 129 198 129c104 0 188 -86 188 -190zM359 258c-37 45 -80 80 -141 80
c-70 0 -140 -33 -140 -95c0 -79 52 -95 140 -95c50 0 93 51 141 110zM734 243c0 78 -52 95 -140 95c-50 0 -93 -52 -141 -111c37 -45 80 -79 141 -79c70 0 140 32 140 95z" />
    <glyph glyph-name="interrobang" unicode="&#x203d;" horiz-adv-x="540" 
d="M514 508c0 -39 -14 -79 -38 -111c-21 -25 -51 -45 -97 -61l-33 -12c-68 -26 -89 -60 -88 -150h-45c-1 20 -2 31 -2 44c0 34 4 58 16 78c-1 42 -8 116 -15 156l-22 131l-10 54c-35 -15 -58 -40 -58 -69c0 -11 2 -19 9 -32c10 -21 12 -27 12 -37c0 -25 -25 -48 -54 -48
c-36 0 -62 31 -62 73c0 40 26 84 69 118c20 16 49 29 82 38c1 63 26 94 72 94c42 0 69 -31 72 -84c41 -6 80 -20 113 -39c49 -29 79 -84 79 -143zM406 517c0 67 -31 112 -87 129c-2 -18 -6 -40 -11 -66l-28 -136c-6 -30 -12 -72 -15 -107c5 3 10 6 15 10l57 39
c45 31 69 76 69 131zM299 52c0 -36 -29 -65 -64 -65c-36 0 -65 29 -65 65c0 35 29 64 66 64c34 0 63 -29 63 -64z" />
    <glyph glyph-name="Iogonek" unicode="&#x12e;" horiz-adv-x="340" 
d="M301 -170c-24 -39 -72 -70 -119 -70c-63 0 -119 45 -119 105c0 54 40 101 82 135h-114v31l20 3c54 9 65 27 65 110v393c0 83 -11 101 -65 110l-20 3v31h270v-31l-20 -3c-54 -9 -65 -27 -65 -110v-393c0 -83 11 -101 65 -110l20 -3v-31h-54c-60 0 -105 -53 -105 -114
c0 -34 22 -69 58 -69c24 0 59 12 76 32z" />
    <glyph glyph-name="iogonek" unicode="&#x12f;" horiz-adv-x="300" 
d="M288 -170c-24 -39 -72 -70 -119 -70c-63 0 -119 45 -119 105c0 54 40 101 82 135h-112v30l25 2c44 5 62 28 62 83v235c0 60 -14 78 -66 83l-20 2v30c53 4 86 9 147 20h34v-370c0 -55 17 -78 62 -83l24 -2v-30h-54c-59 0 -105 -53 -105 -114c0 -34 22 -69 58 -69
c24 0 59 12 76 32zM211 630c0 -32 -27 -59 -59 -59s-59 27 -59 59c0 33 27 59 60 59c31 0 58 -27 58 -59z" />
    <glyph glyph-name="Iota" unicode="&#x399;" horiz-adv-x="340" 
d="M301 0h-270v31l20 3c54 9 65 27 65 110v393c0 83 -11 101 -65 110l-20 3v31h270v-31l-20 -3c-54 -9 -65 -27 -65 -110v-393c0 -83 11 -101 65 -110l20 -3v-31z" />
    <glyph glyph-name="iota" unicode="&#x3b9;" horiz-adv-x="320" 
d="M305 8c-25 -13 -51 -20 -76 -20c-53 0 -85 18 -98 55c-5 15 -8 42 -8 79v279h-84v40c47 5 90 19 130 42h36v-355c0 -33 1 -53 4 -60c7 -20 22 -30 45 -30c14 0 31 6 51 18v-48z" />
    <glyph glyph-name="Itilde" unicode="&#x128;" horiz-adv-x="340" 
d="M301 0h-270v31l20 3c54 9 65 27 65 110v393c0 83 -11 101 -65 110l-20 3v31h270v-31l-20 -3c-54 -9 -65 -27 -65 -110v-393c0 -83 11 -101 65 -110l20 -3v-31zM321 825c-15 -50 -42 -72 -90 -72c-24 0 -46 4 -95 18c-31 8 -40 10 -54 10c-15 0 -26 -5 -39 -20l-29 10
c13 41 47 68 86 68c23 0 44 -4 95 -18c24 -7 36 -9 49 -9c20 0 37 8 48 22z" />
    <glyph glyph-name="itilde" unicode="&#x129;" horiz-adv-x="300" 
d="M288 0h-268v30l25 2c44 5 62 28 62 83v235c0 60 -14 78 -66 83l-20 2v30c53 4 86 9 147 20h34v-370c0 -55 17 -78 62 -83l24 -2v-30zM310 659c-15 -50 -42 -72 -90 -72c-24 0 -46 4 -95 18c-31 8 -40 10 -54 10c-15 0 -26 -5 -39 -20l-29 10c13 41 47 68 86 68
c23 0 44 -4 95 -18c24 -7 36 -9 49 -9c20 0 37 8 48 22z" />
    <glyph glyph-name="jcaron" unicode="&#x1f0;" horiz-adv-x="300" 
d="M203 -47c0 -174 -150 -194 -205 -194c-64 0 -107 25 -107 61c0 22 21 40 46 40c16 0 27 -6 44 -26c21 -24 32 -30 55 -30c79 0 72 91 72 201v345c0 60 -15 79 -66 83l-24 2v30c56 4 89 8 151 20h34v-532zM298 664l-142 -93l-142 93l13 25l129 -46l128 46z" />
    <glyph glyph-name="Jcircumflex" unicode="&#x134;" horiz-adv-x="600" 
d="M567 650l-25 -3c-52 -7 -65 -28 -65 -110v-277c0 -114 -2 -273 -249 -273c-167 0 -251 108 -251 199c0 52 32 89 78 89c33 0 55 -21 55 -54c0 -18 -7 -32 -25 -48c-15 -14 -20 -24 -20 -40c0 -53 67 -98 144 -98c164 0 168 123 168 276v226c0 82 -13 103 -65 110l-25 3
v31h280v-31zM583 765l-15 -22l-141 40l-142 -40l-14 22l156 84z" />
    <glyph glyph-name="jcircumflex" unicode="&#x135;" horiz-adv-x="300" 
d="M203 -47c0 -174 -150 -194 -205 -194c-64 0 -107 25 -107 61c0 22 21 40 46 40c16 0 27 -6 44 -26c21 -24 32 -30 55 -30c79 0 72 91 72 201v345c0 60 -15 79 -66 83l-24 2v30c56 4 89 8 151 20h34v-532zM298 596l-14 -25l-128 45l-129 -45l-13 25l142 93z" />
    <glyph glyph-name="Kappa" unicode="&#x39a;" horiz-adv-x="720" 
d="M750 0h-308v31c8 1 15 2 18 2c77 7 71 43 38 96l-161 257l-116 -103v-139c0 -81 15 -106 65 -110l41 -3v-31h-296v31l25 3c52 7 65 28 65 110v393c0 82 -13 103 -65 110l-25 3v31h296v-31l-41 -3c-50 -4 -65 -29 -65 -110v-192l205 184c51 45 59 56 59 79
c0 26 -15 37 -58 41l-10 1v31h286v-31l-7 -2c-43 -8 -98 -40 -159 -92l-120 -105l190 -310c49 -76 75 -96 143 -111v-30z" />
    <glyph glyph-name="kappa" unicode="&#x3ba;" 
d="M620 0h-141l-203 236l-80 -61v-64c0 -52 16 -70 67 -70h18v-41h-252v41c59 0 85 -1 85 75v286h-85v40c36 2 79 16 130 41h37v-254l179 143c29 23 43 38 43 45c0 9 -13 13 -38 13h-26v41h248v-41c-46 0 -87 -14 -124 -42l-142 -108l167 -182c45 -50 60 -57 117 -57v-41z
" />
    <glyph glyph-name="Kcommaaccent" unicode="&#x136;" horiz-adv-x="720" 
d="M750 0h-308v31c8 1 15 2 18 2c77 7 71 43 38 96l-161 257l-116 -103v-139c0 -81 15 -106 65 -110l41 -3v-31h-296v31l25 3c52 7 65 28 65 110v393c0 82 -13 103 -65 110l-25 3v31h296v-31l-41 -3c-50 -4 -65 -29 -65 -110v-192l205 184c51 45 59 56 59 79
c0 26 -15 37 -58 41l-10 1v31h286v-31l-7 -2c-43 -8 -98 -40 -159 -92l-120 -105l190 -310c49 -76 75 -96 143 -111v-30zM451 -132c0 -57 -36 -107 -98 -136l-11 22c42 27 59 53 62 92c-14 -11 -21 -14 -31 -14c-32 0 -54 24 -54 57s28 61 62 61c39 0 70 -37 70 -82z" />
    <glyph glyph-name="kcommaaccent" unicode="&#x137;" 
d="M628 0h-270v30l27 2c51 5 24 55 3 83l-105 152l-81 -69v-83c0 -54 18 -78 61 -83l26 -2v-30h-269v30l25 2c44 5 62 28 62 83v423c0 89 -11 107 -65 112l-22 2v31c68 8 91 14 142 34h40v-468l156 136c21 18 27 27 27 39c0 19 -18 29 -56 32v29h266v-30
c-86 -13 -131 -33 -192 -87l-45 -40l149 -213c37 -49 75 -75 121 -83v-32zM390 -132c0 -57 -36 -107 -98 -136l-11 22c42 27 59 53 62 92c-14 -11 -21 -14 -31 -14c-32 0 -54 24 -54 57s28 61 62 61c39 0 70 -37 70 -82z" />
    <glyph glyph-name="Lacute" unicode="&#x139;" horiz-adv-x="600" 
d="M629 214l-80 -214h-518v31l25 3c52 7 65 28 65 110v393c0 82 -13 103 -65 110l-25 3v31h287v-31l-32 -3c-51 -5 -65 -29 -65 -110v-414c0 -48 8 -85 86 -85c61 0 127 24 184 67c39 29 64 57 110 122zM323 815c0 -24 -21 -37 -69 -45l-153 -26l-5 12l105 61
c32 19 61 31 83 31s39 -14 39 -33z" />
    <glyph glyph-name="lacute" unicode="&#x13a;" horiz-adv-x="300" 
d="M286 0h-266v30l24 2c45 5 62 28 62 83v423c0 89 -11 107 -65 112l-21 2v31c68 8 91 14 141 34h40v-602c0 -55 17 -78 62 -83l23 -2v-30zM289 851c0 -24 -21 -37 -69 -45l-153 -26l-5 12l105 61c32 19 61 31 83 31s39 -14 39 -33z" />
    <glyph glyph-name="Lambda" unicode="&#x39b;" horiz-adv-x="680" 
d="M714 0h-281v31c83 12 90 31 68 93l-182 472l-158 -429c-22 -56 -30 -96 6 -120c11 -7 28 -11 64 -16v-31h-268v31l11 2c67 13 83 36 150 207l172 441h93l212 -536c36 -93 48 -104 113 -114v-31z" />
    <glyph glyph-name="lambda" unicode="&#x3bb;" horiz-adv-x="540" 
d="M519 0h-224v41h14c35 0 53 8 53 24c0 9 -3 23 -10 42l-99 276l-115 -265c-10 -23 -15 -41 -15 -53c0 -16 15 -24 45 -24h23v-41h-192v41c54 2 59 26 84 78l150 316l-67 198h-107v42c53 6 96 20 129 41h37l215 -602c15 -41 31 -73 79 -73v-41z" />
    <glyph glyph-name="Lcaron" unicode="&#x13d;" horiz-adv-x="600" 
d="M629 214l-80 -214h-518v31l25 3c52 7 65 28 65 110v393c0 82 -13 103 -65 110l-25 3v31h287v-31l-32 -3c-51 -5 -65 -29 -65 -110v-414c0 -48 8 -85 86 -85c61 0 127 24 184 67c39 29 64 57 110 122zM490 599c0 -57 -36 -107 -98 -136l-11 22c42 27 59 53 62 92
c-14 -11 -21 -14 -31 -14c-32 0 -54 24 -54 57s28 61 62 61c39 0 70 -37 70 -82z" />
    <glyph glyph-name="lcaron" unicode="&#x13e;" horiz-adv-x="300" 
d="M286 0h-266v30l24 2c45 5 62 28 62 83v423c0 89 -11 107 -65 112l-21 2v31c68 8 91 14 141 34h40v-602c0 -55 17 -78 62 -83l23 -2v-30zM373 635c0 -57 -36 -107 -98 -136l-11 22c42 27 59 53 62 92c-14 -11 -21 -14 -31 -14c-32 0 -54 24 -54 57s28 61 62 61
c39 0 70 -37 70 -82z" />
    <glyph glyph-name="Lcommaaccent" unicode="&#x13b;" horiz-adv-x="600" 
d="M629 214l-80 -214h-518v31l25 3c52 7 65 28 65 110v393c0 82 -13 103 -65 110l-25 3v31h287v-31l-32 -3c-51 -5 -65 -29 -65 -110v-414c0 -48 8 -85 86 -85c61 0 127 24 184 67c39 29 64 57 110 122zM366 -132c0 -57 -36 -107 -98 -136l-11 22c42 27 59 53 62 92
c-14 -11 -21 -14 -31 -14c-32 0 -54 24 -54 57s28 61 62 61c39 0 70 -37 70 -82z" />
    <glyph glyph-name="lcommaaccent" unicode="&#x13c;" horiz-adv-x="300" 
d="M286 0h-266v30l24 2c45 5 62 28 62 83v423c0 89 -11 107 -65 112l-21 2v31c68 8 91 14 141 34h40v-602c0 -55 17 -78 62 -83l23 -2v-30zM220 -132c0 -57 -36 -107 -98 -136l-11 22c42 27 59 53 62 92c-14 -11 -21 -14 -31 -14c-32 0 -54 24 -54 57s28 61 62 61
c39 0 70 -37 70 -82z" />
    <glyph glyph-name="Ldot" unicode="&#x13f;" horiz-adv-x="600" 
d="M629 214l-80 -214h-518v31l25 3c52 7 65 28 65 110v393c0 82 -13 103 -65 110l-25 3v31h287v-31l-32 -3c-51 -5 -65 -29 -65 -110v-414c0 -48 8 -85 86 -85c61 0 127 24 184 67c39 29 64 57 110 122zM530 372c0 -32 -27 -59 -59 -59s-59 27 -59 59c0 33 27 59 60 59
c31 0 58 -27 58 -59z" />
    <glyph glyph-name="ldot" unicode="&#x140;" horiz-adv-x="300" 
d="M286 0h-266v30l24 2c45 5 62 28 62 83v423c0 89 -11 107 -65 112l-21 2v31c68 8 91 14 141 34h40v-602c0 -55 17 -78 62 -83l23 -2v-30zM363 372c0 -32 -27 -59 -59 -59s-59 27 -59 59c0 33 27 59 60 59c31 0 58 -27 58 -59z" />
    <glyph glyph-name="Ldotbelow" unicode="&#x1e36;" horiz-adv-x="600" 
d="M629 214l-80 -214h-518v31l25 3c52 7 65 28 65 110v393c0 82 -13 103 -65 110l-25 3v31h287v-31l-32 -3c-51 -5 -65 -29 -65 -110v-414c0 -48 8 -85 86 -85c61 0 127 24 184 67c39 29 64 57 110 122zM356 -150c0 -32 -27 -59 -59 -59s-59 27 -59 59c0 33 27 59 60 59
c31 0 58 -27 58 -59z" />
    <glyph glyph-name="ldotbelow" unicode="&#x1e37;" horiz-adv-x="300" 
d="M286 0h-266v30l24 2c45 5 62 28 62 83v423c0 89 -11 107 -65 112l-21 2v31c68 8 91 14 141 34h40v-602c0 -55 17 -78 62 -83l23 -2v-30zM210 -150c0 -32 -27 -59 -59 -59s-59 27 -59 59c0 33 27 59 60 59c31 0 58 -27 58 -59z" />
    <glyph glyph-name="Ldotbelowmacron" unicode="&#x1e38;" horiz-adv-x="600" 
d="M629 214l-80 -214h-518v31l25 3c52 7 65 28 65 110v393c0 82 -13 103 -65 110l-25 3v31h287v-31l-32 -3c-51 -5 -65 -29 -65 -110v-414c0 -48 8 -85 86 -85c61 0 127 24 184 67c39 29 64 57 110 122zM356 -150c0 -32 -27 -59 -59 -59s-59 27 -59 59c0 33 27 59 60 59
c31 0 58 -27 58 -59zM319 771h-296v50h296v-50z" />
    <glyph glyph-name="ldotbelowmacron" unicode="&#x1e39;" horiz-adv-x="300" 
d="M286 0h-266v30l24 2c45 5 62 28 62 83v423c0 89 -11 107 -65 112l-21 2v31c68 8 91 14 141 34h40v-602c0 -55 17 -78 62 -83l23 -2v-30zM210 -150c0 -32 -27 -59 -59 -59s-59 27 -59 59c0 33 27 59 60 59c31 0 58 -27 58 -59zM297 807h-296v50h296v-50z" />
    <glyph glyph-name="lessequal" unicode="&#x2264;" horiz-adv-x="600" 
d="M520 88l-458 245v68l458 245v-88l-357 -191l357 -191v-88zM520 -39h-440v78h440v-78z" />
    <glyph glyph-name="lessequal.slant" unicode="&#x2a7d;" horiz-adv-x="600" 
d="M520 88l-458 245v68l458 245v-88l-357 -191l357 -191v-88zM520 -114l-440 235v88l440 -235v-88z" />
    <glyph glyph-name="uni0332" unicode="&#x332;" horiz-adv-x="0" 
d="M-146 -175h-296v50h296v-50z" />
    <glyph glyph-name="lira" unicode="&#x20a4;" 
d="M631 117c0 -71 -57 -126 -132 -126c-34 0 -55 7 -119 39l-91 46c-46 -59 -101 -89 -166 -89s-115 40 -115 93s51 93 118 93c31 0 63 -6 118 -23c-2 32 -5 40 -41 127l-16 37h-145l14 43h113l-15 43l-1 1h-111l14 43h86c-5 21 -7 35 -7 49c0 43 25 99 59 133
c42 43 110 68 182 68c110 0 189 -61 189 -146c0 -38 -22 -64 -54 -64c-26 0 -47 19 -47 42c0 12 2 19 15 47c3 5 4 11 4 16c0 38 -56 73 -115 73c-84 0 -141 -61 -141 -153c0 -22 2 -40 10 -65h221l-16 -43h-188l20 -44h184l-16 -43h-149l20 -42c9 -21 15 -48 15 -71
c0 -22 -3 -39 -15 -76l95 -30c63 -21 63 -21 85 -21c43 0 75 26 75 60c0 29 -22 48 -54 48c-18 0 -31 -3 -58 -15l-16 28c29 19 54 27 87 27c59 0 104 -45 104 -105zM237 100c-40 24 -69 33 -105 33c-43 0 -71 -21 -71 -53c0 -31 28 -53 67 -53c45 0 79 23 109 73z" />
    <glyph glyph-name="logicalnot" unicode="&#xac;" horiz-adv-x="600" 
d="M560 374v-209h-78v131h-442v78h520z" />
    <glyph glyph-name="longs" unicode="&#x17f;" horiz-adv-x="320" 
d="M414 677c0 -23 -22 -43 -46 -43c-18 0 -32 9 -46 28c-15 19 -30 29 -47 29s-36 -9 -50 -23c-16 -17 -23 -39 -23 -77v-476c0 -55 18 -78 62 -83l25 -2v-30h-269v30l25 2c44 5 62 28 62 83v337h-84v33h84v47c0 73 14 110 55 143c43 36 108 59 166 59c49 0 86 -24 86 -57z
" />
    <glyph glyph-name="lozenge" unicode="&#x25ca;" horiz-adv-x="494" 
d="M466 374l-197 -374h-60l-191 377l196 363h63zM385 374l-140 275l-147 -273l142 -283z" />
    <glyph glyph-name="l.script" unicode="&#x2113;" horiz-adv-x="475" 
d="M435 94c0 -63 -59 -107 -126 -107c-98 0 -161 72 -193 171c-22 -7 -46 -13 -70 -16l-6 39c23 4 44 9 65 16c-10 44 -15 92 -15 140c0 179 65 357 219 357c62 0 106 -59 106 -126c0 -162 -90 -305 -225 -379c10 -90 38 -162 119 -162c44 0 86 26 86 67h40zM375 568
c0 44 -25 86 -66 86c-125 0 -125 -171 -125 -317c0 -34 0 -69 2 -104c114 69 189 194 189 335z" />
    <glyph glyph-name="Lslash" unicode="&#x141;" horiz-adv-x="600" 
d="M629 214l-80 -214h-518v31l25 3c52 7 65 28 65 110v104l-90 -69v74l90 68v216c0 82 -13 103 -65 110l-25 3v31h287v-31l-32 -3c-51 -5 -65 -29 -65 -110v-149l179 137v-74l-179 -137v-191c0 -48 8 -85 86 -85c61 0 127 24 184 67c39 29 64 57 110 122z" />
    <glyph glyph-name="lslash" unicode="&#x142;" horiz-adv-x="320" 
d="M300 0h-266v30l24 2c45 5 62 28 62 83v217l-86 -77v78l86 77v128c0 89 -11 107 -65 112l-21 2v31c68 8 91 14 141 34h40v-232l85 76v-79l-85 -75v-292c0 -55 17 -78 62 -83l23 -2v-30z" />
    <glyph glyph-name="macron" unicode="&#xaf;" horiz-adv-x="440" 
d="M364 605h-296v50h296v-50z" />
    <glyph glyph-name="uni0331" unicode="&#x331;" horiz-adv-x="0" 
d="M-146 -175h-296v50h296v-50z" />
    <glyph glyph-name="uni0304" unicode="&#x304;" horiz-adv-x="0" 
d="M-146 605h-296v50h296v-50z" />
    <glyph glyph-name="married" unicode="&#x26ad;" 
d="M692 250c0 -134 -109 -242 -243 -242c-52 0 -100 16 -139 43c-39 -27 -87 -43 -139 -43c-134 0 -243 108 -243 242s109 243 243 243c52 0 100 -17 139 -44c39 27 87 44 139 44c134 0 243 -109 243 -243zM373 250c0 50 -25 92 -63 120c-38 -28 -63 -70 -63 -120
s25 -92 63 -120c38 28 63 70 63 120zM258 101c-32 41 -51 93 -51 149s19 108 51 149c-27 10 -57 16 -87 16c-91 0 -165 -74 -165 -165s74 -164 165 -164c30 0 60 5 87 15zM614 250c0 91 -74 165 -165 165c-30 0 -60 -6 -87 -16c32 -41 51 -93 51 -149s-19 -108 -51 -149
c27 -10 57 -15 87 -15c91 0 165 73 165 164z" />
    <glyph glyph-name="Mdotbelow" unicode="&#x1e42;" horiz-adv-x="920" 
d="M894 0h-280v31l25 3c52 7 65 28 65 110v466l-251 -610h-45l-229 622v-478c0 -81 14 -105 65 -110l35 -3v-31h-253v31l31 3c51 5 65 29 65 110v393c0 82 -13 103 -65 110l-25 3v31h233l192 -515l209 515h228v-31l-25 -3c-52 -7 -65 -28 -65 -110v-393
c0 -82 13 -103 65 -110l25 -3v-31zM516 -150c0 -32 -27 -59 -59 -59s-59 27 -59 59c0 33 27 59 60 59c31 0 58 -27 58 -59z" />
    <glyph glyph-name="mdotbelow" unicode="&#x1e43;" horiz-adv-x="940" 
d="M928 0h-262v30l18 2c36 6 62 17 62 83v218c0 72 -27 109 -79 109c-46 0 -86 -18 -147 -69v-258c0 -55 17 -77 62 -83l21 -2v-30h-261v30l21 2c45 6 62 28 62 83v221c0 73 -25 106 -82 106c-46 0 -86 -19 -144 -69v-258c0 -74 35 -79 62 -83l18 -2v-30h-262v30l25 2
c44 5 62 28 62 83v235c0 60 -14 78 -66 83l-21 2v30c59 5 90 9 148 20h34v-67c64 56 112 76 182 76c72 0 110 -23 137 -83c72 61 123 83 190 83c83 0 133 -50 133 -134v-245c0 -55 18 -78 62 -83l25 -2v-30zM526 -150c0 -32 -27 -59 -59 -59s-59 27 -59 59c0 33 27 59 60 59
c31 0 58 -27 58 -59z" />
    <glyph glyph-name="uni2127" unicode="&#x2127;" horiz-adv-x="770" 
d="M759 506l-45 -15c-25 53 -55 88 -90 105c-26 13 -73 19 -142 19l6 -45c123 -56 228 -128 228 -284c0 -188 -150 -297 -341 -297c-185 0 -320 101 -320 279c0 143 76 244 227 302l6 45c-64 0 -111 -7 -140 -20c-35 -16 -66 -51 -93 -104l-44 15l60 176h274l-15 -154
c-113 -47 -170 -133 -170 -256c0 -141 79 -230 219 -230c147 0 231 101 231 250c0 110 -57 189 -170 236l-15 154h273z" />
    <glyph glyph-name="minus" unicode="&#x2212;" horiz-adv-x="600" 
d="M560 211h-520v78h520v-78z" />
    <glyph glyph-name="minusplus" unicode="&#x2213;" horiz-adv-x="600" 
d="M560 133h-221v-221h-78v221h-221v78h221v141h78v-141h221v-78zM560 422h-520v78h520v-78z" />
    <glyph glyph-name="Mu" unicode="&#x39c;" horiz-adv-x="920" 
d="M894 0h-280v31l25 3c52 7 65 28 65 110v466l-251 -610h-45l-229 622v-478c0 -81 14 -105 65 -110l35 -3v-31h-253v31l31 3c51 5 65 29 65 110v393c0 82 -13 103 -65 110l-25 3v31h233l192 -515l209 515h228v-31l-25 -3c-52 -7 -65 -28 -65 -110v-393
c0 -82 13 -103 65 -110l25 -3v-31z" />
    <glyph glyph-name="uni00B5" unicode="&#xb5;" horiz-adv-x="680" 
d="M653 0h-182v84c-84 -68 -140 -93 -209 -93c-51 0 -86 18 -113 58v-24c0 -32 2 -42 11 -78c16 -57 19 -71 19 -92c0 -44 -20 -74 -48 -74c-29 0 -50 30 -50 72c0 23 1 30 17 91c8 29 12 55 12 76v332c0 58 -16 77 -66 81l-24 2v30c77 5 99 8 151 20h34v-336
c0 -76 28 -110 91 -110c49 0 108 29 175 88v223c0 60 -15 79 -66 83l-24 2v30c79 6 99 8 151 20h34v-370c0 -55 18 -78 62 -83l25 -2v-30z" />
    <glyph glyph-name="mu.greek" unicode="&#x3bc;" horiz-adv-x="731" 
d="M691 121c0 -69 -39 -134 -102 -134c-59 0 -115 24 -146 65c-35 -40 -88 -65 -146 -65c-43 0 -86 6 -123 20v-257h-107c9 124 13 247 13 371v364h94v-364c0 -58 60 -94 123 -94c52 0 100 25 127 64c6 9 -4 20 -4 30v364h94v-364c0 -49 30 -94 75 -94c42 0 62 47 62 94h40z
" />
    <glyph glyph-name="multiply" unicode="&#xd7;" horiz-adv-x="600" 
d="M511 94l-55 -55l-156 156l-156 -156l-55 55l156 156l-156 156l55 55l156 -156l156 156l55 -55l-156 -156z" />
    <glyph glyph-name="uni266A" unicode="&#x266a;" horiz-adv-x="744" 
d="M688 250h-44c0 79 -59 142 -113 201c-29 31 -58 62 -81 98v-448c0 -81 -94 -114 -186 -114s-186 33 -186 114c0 80 94 113 186 113c53 0 106 -11 142 -35v502h44c0 -79 59 -142 113 -201c62 -66 125 -139 125 -230z" />
    <glyph glyph-name="Nacute" unicode="&#x143;" horiz-adv-x="740" 
d="M722 650l-25 -3c-52 -7 -65 -28 -65 -110v-537h-88l-371 606v-462c0 -81 14 -105 65 -110l35 -3v-31h-247v31l25 3c52 7 65 28 65 110v393c0 82 -13 103 -65 110l-25 3v31h223l326 -539v395c0 81 -14 105 -65 110l-35 3v31h247v-31zM522 815c0 -24 -21 -37 -69 -45
l-153 -26l-5 12l105 61c32 19 61 31 83 31s39 -14 39 -33z" />
    <glyph glyph-name="nacute" unicode="&#x144;" horiz-adv-x="660" 
d="M649 0h-269v30l25 2c44 5 62 28 62 83v231c0 65 -30 100 -85 100c-56 0 -115 -28 -177 -84v-247c0 -55 18 -78 62 -83l25 -2v-30h-269v30l25 2c44 5 62 28 62 83v235c0 60 -15 79 -66 83l-24 2v30c56 4 89 8 151 20h34v-79c71 63 130 88 206 88c94 0 151 -49 151 -132
v-247c0 -55 18 -78 62 -83l25 -2v-30zM460 651c0 -26 -19 -41 -62 -50l-139 -29l-5 14l95 68c29 22 56 34 76 34s35 -16 35 -37z" />
    <glyph glyph-name="naira" unicode="&#x20a6;" horiz-adv-x="740" 
d="M722 235h-90v-235h-88l-144 235h-227v-91c0 -81 14 -105 65 -110l35 -3v-31h-247v31l25 3c52 7 65 28 65 110v91h-90v40h90v131h-90v40h90v91c0 82 -13 103 -65 110l-25 3v31h223l142 -235h184v91c0 81 -14 105 -65 110l-35 3v31h247v-31l-25 -3c-52 -7 -65 -28 -65 -110
v-91h90v-40h-90v-131h90v-40zM271 446l-98 160v-160h98zM375 275l-79 131h-123v-131h202zM575 275v131h-159l78 -131h81zM575 142v93h-56z" />
    <glyph glyph-name="uni00A0" unicode="&#xa0;" horiz-adv-x="333" 
 />
    <glyph glyph-name="Ncaron" unicode="&#x147;" horiz-adv-x="740" 
d="M722 650l-25 -3c-52 -7 -65 -28 -65 -110v-537h-88l-371 606v-462c0 -81 14 -105 65 -110l35 -3v-31h-247v31l25 3c52 7 65 28 65 110v393c0 82 -13 103 -65 110l-25 3v31h223l326 -539v395c0 81 -14 105 -65 110l-35 3v31h247v-31zM530 827l-156 -84l-156 84l15 22
l141 -40l142 40z" />
    <glyph glyph-name="ncaron" unicode="&#x148;" horiz-adv-x="660" 
d="M649 0h-269v30l25 2c44 5 62 28 62 83v231c0 65 -30 100 -85 100c-56 0 -115 -28 -177 -84v-247c0 -55 18 -78 62 -83l25 -2v-30h-269v30l25 2c44 5 62 28 62 83v235c0 60 -15 79 -66 83l-24 2v30c56 4 89 8 151 20h34v-79c71 63 130 88 206 88c94 0 151 -49 151 -132
v-247c0 -55 18 -78 62 -83l25 -2v-30zM478 664l-142 -93l-142 93l13 25l129 -46l128 46z" />
    <glyph glyph-name="Ncommaaccent" unicode="&#x145;" horiz-adv-x="740" 
d="M722 650l-25 -3c-52 -7 -65 -28 -65 -110v-537h-88l-371 606v-462c0 -81 14 -105 65 -110l35 -3v-31h-247v31l25 3c52 7 65 28 65 110v393c0 82 -13 103 -65 110l-25 3v31h223l326 -539v395c0 81 -14 105 -65 110l-35 3v31h247v-31zM440 -132c0 -57 -36 -107 -98 -136
l-11 22c42 27 59 53 62 92c-14 -11 -21 -14 -31 -14c-32 0 -54 24 -54 57s28 61 62 61c39 0 70 -37 70 -82z" />
    <glyph glyph-name="ncommaaccent" unicode="&#x146;" horiz-adv-x="660" 
d="M649 0h-269v30l25 2c44 5 62 28 62 83v231c0 65 -30 100 -85 100c-56 0 -115 -28 -177 -84v-247c0 -55 18 -78 62 -83l25 -2v-30h-269v30l25 2c44 5 62 28 62 83v235c0 60 -15 79 -66 83l-24 2v30c56 4 89 8 151 20h34v-79c71 63 130 88 206 88c94 0 151 -49 151 -132
v-247c0 -55 18 -78 62 -83l25 -2v-30zM402 -132c0 -57 -36 -107 -98 -136l-11 22c42 27 59 53 62 92c-14 -11 -21 -14 -31 -14c-32 0 -54 24 -54 57s28 61 62 61c39 0 70 -37 70 -82z" />
    <glyph glyph-name="Ndotaccent" unicode="&#x1e44;" horiz-adv-x="740" 
d="M722 650l-25 -3c-52 -7 -65 -28 -65 -110v-537h-88l-371 606v-462c0 -81 14 -105 65 -110l35 -3v-31h-247v31l25 3c52 7 65 28 65 110v393c0 82 -13 103 -65 110l-25 3v31h223l326 -539v395c0 81 -14 105 -65 110l-35 3v31h247v-31zM430 796c0 -32 -27 -59 -59 -59
s-59 27 -59 59c0 33 27 59 60 59c31 0 58 -27 58 -59z" />
    <glyph glyph-name="ndotaccent" unicode="&#x1e45;" horiz-adv-x="660" 
d="M649 0h-269v30l25 2c44 5 62 28 62 83v231c0 65 -30 100 -85 100c-56 0 -115 -28 -177 -84v-247c0 -55 18 -78 62 -83l25 -2v-30h-269v30l25 2c44 5 62 28 62 83v235c0 60 -15 79 -66 83l-24 2v30c56 4 89 8 151 20h34v-79c71 63 130 88 206 88c94 0 151 -49 151 -132
v-247c0 -55 18 -78 62 -83l25 -2v-30zM392 630c0 -32 -27 -59 -59 -59s-59 27 -59 59c0 33 27 59 60 59c31 0 58 -27 58 -59z" />
    <glyph glyph-name="Ndotbelow" unicode="&#x1e46;" horiz-adv-x="740" 
d="M722 650l-25 -3c-52 -7 -65 -28 -65 -110v-537h-88l-371 606v-462c0 -81 14 -105 65 -110l35 -3v-31h-247v31l25 3c52 7 65 28 65 110v393c0 82 -13 103 -65 110l-25 3v31h223l326 -539v395c0 81 -14 105 -65 110l-35 3v31h247v-31zM430 -150c0 -32 -27 -59 -59 -59
s-59 27 -59 59c0 33 27 59 60 59c31 0 58 -27 58 -59z" />
    <glyph glyph-name="ndotbelow" unicode="&#x1e47;" horiz-adv-x="660" 
d="M649 0h-269v30l25 2c44 5 62 28 62 83v231c0 65 -30 100 -85 100c-56 0 -115 -28 -177 -84v-247c0 -55 18 -78 62 -83l25 -2v-30h-269v30l25 2c44 5 62 28 62 83v235c0 60 -15 79 -66 83l-24 2v30c56 4 89 8 151 20h34v-79c71 63 130 88 206 88c94 0 151 -49 151 -132
v-247c0 -55 18 -78 62 -83l25 -2v-30zM392 -150c0 -32 -27 -59 -59 -59s-59 27 -59 59c0 33 27 59 60 59c31 0 58 -27 58 -59z" />
    <glyph glyph-name="notequal" unicode="&#x2260;" horiz-adv-x="600" 
d="M560 126h-293l-84 -132l-66 42l57 90h-134v78h184l59 92h-243v78h293l84 132l66 -42l-57 -90h134v-78h-184l-59 -92h243v-78z" />
    <glyph glyph-name="Ntilde" unicode="&#xd1;" horiz-adv-x="740" 
d="M722 650l-25 -3c-52 -7 -65 -28 -65 -110v-537h-88l-371 606v-462c0 -81 14 -105 65 -110l35 -3v-31h-247v31l25 3c52 7 65 28 65 110v393c0 82 -13 103 -65 110l-25 3v31h223l326 -539v395c0 81 -14 105 -65 110l-35 3v31h247v-31zM529 825c-15 -50 -42 -72 -90 -72
c-24 0 -46 4 -95 18c-31 8 -40 10 -54 10c-15 0 -26 -5 -39 -20l-29 10c13 41 47 68 86 68c23 0 44 -4 95 -18c24 -7 36 -9 49 -9c20 0 37 8 48 22z" />
    <glyph glyph-name="ntilde" unicode="&#xf1;" horiz-adv-x="660" 
d="M649 0h-269v30l25 2c44 5 62 28 62 83v231c0 65 -30 100 -85 100c-56 0 -115 -28 -177 -84v-247c0 -55 18 -78 62 -83l25 -2v-30h-269v30l25 2c44 5 62 28 62 83v235c0 60 -15 79 -66 83l-24 2v30c56 4 89 8 151 20h34v-79c71 63 130 88 206 88c94 0 151 -49 151 -132
v-247c0 -55 18 -78 62 -83l25 -2v-30zM491 659c-15 -50 -42 -72 -90 -72c-24 0 -46 4 -95 18c-31 8 -40 10 -54 10c-15 0 -26 -5 -39 -20l-29 10c13 41 47 68 86 68c23 0 44 -4 95 -18c24 -7 36 -9 49 -9c20 0 37 8 48 22z" />
    <glyph glyph-name="Nu" unicode="&#x39d;" horiz-adv-x="740" 
d="M722 650l-25 -3c-52 -7 -65 -28 -65 -110v-537h-88l-371 606v-462c0 -81 14 -105 65 -110l35 -3v-31h-247v31l25 3c52 7 65 28 65 110v393c0 82 -13 103 -65 110l-25 3v31h223l326 -539v395c0 81 -14 105 -65 110l-35 3v31h247v-31z" />
    <glyph glyph-name="nu" unicode="&#x3bd;" horiz-adv-x="503" 
d="M485 419c0 -21 -8 -51 -23 -91l-166 -328h-58l-157 373c-16 39 -32 57 -84 57v41l141 8l149 -393l82 175c17 35 25 62 25 81c0 9 -3 19 -9 29c-15 25 -22 45 -22 61c0 34 19 51 57 51c43 0 65 -21 65 -64z" />
    <glyph glyph-name="numero" unicode="&#x2116;" horiz-adv-x="1128" 
d="M823 631c0 -22 -21 -40 -46 -40c-16 0 -23 6 -40 26c-21 24 -17 30 -40 30c-19 0 -28 -8 -38 -19c-21 -26 -19 -43 -19 -176v-452h-88l-312 587v-361c0 -48 5 -156 -17 -191c-28 -44 -66 -49 -120 -49c-64 0 -103 25 -103 61c0 22 21 40 46 40c16 0 23 -6 40 -26
c21 -24 17 -30 40 -30c19 0 28 8 38 19c21 26 19 49 19 182v305c0 82 -13 103 -65 110l-25 3v31h223l267 -519v290c0 48 -5 156 17 191c28 44 66 49 120 49c64 0 103 -25 103 -61zM1082 311c0 -109 -73 -182 -181 -182c-112 0 -184 72 -184 185c0 108 72 181 181 181
c111 0 184 -73 184 -184zM1082 0h-365v46h365v-46zM998 309c0 94 -36 148 -99 148c-61 0 -98 -54 -98 -142c0 -96 36 -148 100 -148c62 0 97 51 97 142z" />
    <glyph glyph-name="Oacute" unicode="&#xd3;" horiz-adv-x="800" 
d="M758 338c0 -229 -186 -351 -358 -351c-202 0 -356 154 -356 356c0 196 159 351 360 351c205 0 354 -150 354 -356zM640 332c0 193 -92 314 -238 314c-145 0 -240 -120 -240 -304c0 -187 93 -307 239 -307c145 0 239 117 239 297zM552 815c0 -24 -21 -37 -69 -45l-153 -26
l-5 12l105 61c32 19 61 31 83 31s39 -14 39 -33z" />
    <glyph glyph-name="oacute" unicode="&#xf3;" horiz-adv-x="560" 
d="M526 239c0 -148 -98 -248 -243 -248c-149 0 -246 99 -246 250c0 90 48 253 242 253c198 0 247 -163 247 -255zM424 234c0 137 -54 220 -144 220c-85 0 -141 -83 -141 -211c0 -135 53 -212 145 -212c88 0 140 76 140 203zM403 651c0 -26 -19 -41 -62 -50l-139 -29l-5 14
l95 68c29 22 56 34 76 34s35 -16 35 -37z" />
    <glyph glyph-name="Obreve" unicode="&#x14e;" horiz-adv-x="800" 
d="M758 338c0 -229 -186 -351 -358 -351c-202 0 -356 154 -356 356c0 196 159 351 360 351c205 0 354 -150 354 -356zM640 332c0 193 -92 314 -238 314c-145 0 -240 -120 -240 -304c0 -187 93 -307 239 -307c145 0 239 117 239 297zM585 834c-34 -55 -106 -91 -182 -91
c-81 0 -146 33 -179 91l25 16c46 -31 99 -47 157 -47c55 0 116 19 153 47z" />
    <glyph glyph-name="obreve" unicode="&#x14f;" horiz-adv-x="560" 
d="M526 239c0 -148 -98 -248 -243 -248c-149 0 -246 99 -246 250c0 90 48 253 242 253c198 0 247 -163 247 -255zM424 234c0 137 -54 220 -144 220c-85 0 -141 -83 -141 -211c0 -135 53 -212 145 -212c88 0 140 76 140 203zM445 672c-31 -61 -96 -101 -165 -101
c-74 0 -133 37 -163 101l23 18c42 -34 90 -52 142 -52c50 0 106 21 140 52z" />
    <glyph glyph-name="Ocaron" unicode="&#x1d1;" horiz-adv-x="800" 
d="M758 338c0 -229 -186 -351 -358 -351c-202 0 -356 154 -356 356c0 196 159 351 360 351c205 0 354 -150 354 -356zM640 332c0 193 -92 314 -238 314c-145 0 -240 -120 -240 -304c0 -187 93 -307 239 -307c145 0 239 117 239 297zM560 827l-156 -84l-156 84l15 22l141 -40
l142 40z" />
    <glyph glyph-name="ocaron" unicode="&#x1d2;" horiz-adv-x="560" 
d="M526 239c0 -148 -98 -248 -243 -248c-149 0 -246 99 -246 250c0 90 48 253 242 253c198 0 247 -163 247 -255zM424 234c0 137 -54 220 -144 220c-85 0 -141 -83 -141 -211c0 -135 53 -212 145 -212c88 0 140 76 140 203zM421 664l-142 -93l-142 93l13 25l129 -46l128 46z
" />
    <glyph glyph-name="Ocircumflex" unicode="&#xd4;" horiz-adv-x="800" 
d="M758 338c0 -229 -186 -351 -358 -351c-202 0 -356 154 -356 356c0 196 159 351 360 351c205 0 354 -150 354 -356zM640 332c0 193 -92 314 -238 314c-145 0 -240 -120 -240 -304c0 -187 93 -307 239 -307c145 0 239 117 239 297zM560 765l-15 -22l-141 40l-142 -40
l-14 22l156 84z" />
    <glyph glyph-name="ocircumflex" unicode="&#xf4;" horiz-adv-x="560" 
d="M526 239c0 -148 -98 -248 -243 -248c-149 0 -246 99 -246 250c0 90 48 253 242 253c198 0 247 -163 247 -255zM424 234c0 137 -54 220 -144 220c-85 0 -141 -83 -141 -211c0 -135 53 -212 145 -212c88 0 140 76 140 203zM421 596l-14 -25l-128 45l-129 -45l-13 25l142 93
z" />
    <glyph glyph-name="Ocircumflexacute" unicode="&#x1ed0;" horiz-adv-x="800" 
d="M758 338c0 -229 -186 -351 -358 -351c-202 0 -356 154 -356 356c0 196 159 351 360 351c205 0 354 -150 354 -356zM640 332c0 193 -92 314 -238 314c-145 0 -240 -120 -240 -304c0 -187 93 -307 239 -307c145 0 239 117 239 297zM552 940c0 -24 -21 -37 -69 -45l-153 -26
l-5 12l105 61c32 19 61 31 83 31s39 -14 39 -33zM560 765l-15 -22l-141 40l-142 -40l-14 22l156 84z" />
    <glyph glyph-name="ocircumflexacute" unicode="&#x1ed1;" horiz-adv-x="560" 
d="M526 239c0 -148 -98 -248 -243 -248c-149 0 -246 99 -246 250c0 90 48 253 242 253c198 0 247 -163 247 -255zM424 234c0 137 -54 220 -144 220c-85 0 -141 -83 -141 -211c0 -135 53 -212 145 -212c88 0 140 76 140 203zM427 744c0 -24 -21 -37 -69 -45l-153 -26l-5 12
l105 61c32 19 61 31 83 31s39 -14 39 -33zM435 569l-15 -22l-141 40l-142 -40l-14 22l156 84z" />
    <glyph glyph-name="Ocircumflexdotbelow" unicode="&#x1ed8;" horiz-adv-x="800" 
d="M758 338c0 -229 -186 -351 -358 -351c-202 0 -356 154 -356 356c0 196 159 351 360 351c205 0 354 -150 354 -356zM640 332c0 193 -92 314 -238 314c-145 0 -240 -120 -240 -304c0 -187 93 -307 239 -307c145 0 239 117 239 297zM560 765l-15 -22l-141 40l-142 -40
l-14 22l156 84zM460 -150c0 -32 -27 -59 -59 -59s-59 27 -59 59c0 33 27 59 60 59c31 0 58 -27 58 -59z" />
    <glyph glyph-name="ocircumflexdotbelow" unicode="&#x1ed9;" horiz-adv-x="560" 
d="M526 239c0 -148 -98 -248 -243 -248c-149 0 -246 99 -246 250c0 90 48 253 242 253c198 0 247 -163 247 -255zM424 234c0 137 -54 220 -144 220c-85 0 -141 -83 -141 -211c0 -135 53 -212 145 -212c88 0 140 76 140 203zM421 596l-14 -25l-128 45l-129 -45l-13 25l142 93
zM335 -150c0 -32 -27 -59 -59 -59s-59 27 -59 59c0 33 27 59 60 59c31 0 58 -27 58 -59z" />
    <glyph glyph-name="Ocircumflexgrave" unicode="&#x1ed2;" horiz-adv-x="800" 
d="M758 338c0 -229 -186 -351 -358 -351c-202 0 -356 154 -356 356c0 196 159 351 360 351c205 0 354 -150 354 -356zM640 332c0 193 -92 314 -238 314c-145 0 -240 -120 -240 -304c0 -187 93 -307 239 -307c145 0 239 117 239 297zM483 881l-5 -12l-153 26
c-48 8 -69 21 -69 45c0 19 17 33 39 33s51 -12 83 -31zM560 765l-15 -22l-141 40l-142 -40l-14 22l156 84z" />
    <glyph glyph-name="ocircumflexgrave" unicode="&#x1ed3;" horiz-adv-x="560" 
d="M526 239c0 -148 -98 -248 -243 -248c-149 0 -246 99 -246 250c0 90 48 253 242 253c198 0 247 -163 247 -255zM424 234c0 137 -54 220 -144 220c-85 0 -141 -83 -141 -211c0 -135 53 -212 145 -212c88 0 140 76 140 203zM358 685l-5 -12l-153 26c-48 8 -69 21 -69 45
c0 19 17 33 39 33s51 -12 83 -31zM435 569l-15 -22l-141 40l-142 -40l-14 22l156 84z" />
    <glyph glyph-name="Ocircumflexhookabove" unicode="&#x1ed4;" horiz-adv-x="800" 
d="M758 338c0 -229 -186 -351 -358 -351c-202 0 -356 154 -356 356c0 196 159 351 360 351c205 0 354 -150 354 -356zM640 332c0 193 -92 314 -238 314c-145 0 -240 -120 -240 -304c0 -187 93 -307 239 -307c145 0 239 117 239 297zM560 994c0 -22 -12 -50 -80 -72
c-24 -8 -31 -19 -31 -53h-44l-1 28c1 22 8 35 35 49l24 12c17 9 23 24 24 40c0 25 -17 39 -47 39c-27 0 -48 -9 -48 -22c0 -3 1 -5 2 -8v1c6 -9 7 -11 7 -16c0 -13 -18 -27 -35 -27c-25 0 -40 16 -40 36c0 32 45 68 119 68c57 0 115 -25 115 -75zM560 765l-15 -22l-141 40
l-142 -40l-14 22l156 84z" />
    <glyph glyph-name="ocircumflexhookabove" unicode="&#x1ed5;" horiz-adv-x="560" 
d="M526 239c0 -148 -98 -248 -243 -248c-149 0 -246 99 -246 250c0 90 48 253 242 253c198 0 247 -163 247 -255zM424 234c0 137 -54 220 -144 220c-85 0 -141 -83 -141 -211c0 -135 53 -212 145 -212c88 0 140 76 140 203zM435 798c0 -22 -12 -50 -80 -72
c-24 -8 -31 -19 -31 -53h-44l-1 28c1 22 8 35 35 49l24 12c17 9 23 24 24 40c0 25 -17 39 -47 39c-27 0 -48 -9 -48 -22c0 -3 1 -5 2 -8v1c6 -9 7 -11 7 -16c0 -13 -18 -27 -35 -27c-25 0 -40 16 -40 36c0 32 45 68 119 68c57 0 115 -25 115 -75zM435 569l-15 -22l-141 40
l-142 -40l-14 22l156 84z" />
    <glyph glyph-name="Ocircumflextilde" unicode="&#x1ed6;" horiz-adv-x="800" 
d="M758 338c0 -229 -186 -351 -358 -351c-202 0 -356 154 -356 356c0 196 159 351 360 351c205 0 354 -150 354 -356zM640 332c0 193 -92 314 -238 314c-145 0 -240 -120 -240 -304c0 -187 93 -307 239 -307c145 0 239 117 239 297zM559 951c-15 -50 -42 -72 -90 -72
c-24 0 -46 4 -95 18c-31 8 -40 10 -54 10c-15 0 -26 -5 -39 -20l-29 10c13 41 47 68 86 68c23 0 44 -4 95 -18c24 -7 36 -9 49 -9c20 0 37 8 48 22zM560 765l-15 -22l-141 40l-142 -40l-14 22l156 84z" />
    <glyph glyph-name="ocircumflextilde" unicode="&#x1ed7;" horiz-adv-x="560" 
d="M526 239c0 -148 -98 -248 -243 -248c-149 0 -246 99 -246 250c0 90 48 253 242 253c198 0 247 -163 247 -255zM424 234c0 137 -54 220 -144 220c-85 0 -141 -83 -141 -211c0 -135 53 -212 145 -212c88 0 140 76 140 203zM434 755c-15 -50 -42 -72 -90 -72
c-24 0 -46 4 -95 18c-31 8 -40 10 -54 10c-15 0 -26 -5 -39 -20l-29 10c13 41 47 68 86 68c23 0 44 -4 95 -18c24 -7 36 -9 49 -9c20 0 37 8 48 22zM435 569l-15 -22l-141 40l-142 -40l-14 22l156 84z" />
    <glyph glyph-name="Odblgrave" unicode="&#x20c;" horiz-adv-x="800" 
d="M758 338c0 -229 -186 -351 -358 -351c-202 0 -356 154 -356 356c0 196 159 351 360 351c205 0 354 -150 354 -356zM640 332c0 193 -92 314 -238 314c-145 0 -240 -120 -240 -304c0 -187 93 -307 239 -307c145 0 239 117 239 297zM476 757l-16 -11l-77 81
c-12 13 -20 33 -20 51s10 29 25 29c22 0 36 -16 53 -60zM356 757l-16 -11l-76 81c-13 14 -21 33 -21 50c0 19 9 30 25 30c22 0 37 -17 53 -60z" />
    <glyph glyph-name="odblgrave" unicode="&#x20d;" horiz-adv-x="560" 
d="M526 239c0 -148 -98 -248 -243 -248c-149 0 -246 99 -246 250c0 90 48 253 242 253c198 0 247 -163 247 -255zM424 234c0 137 -54 220 -144 220c-85 0 -141 -83 -141 -211c0 -135 53 -212 145 -212c88 0 140 76 140 203zM351 561l-16 -11l-77 81c-12 13 -20 33 -20 51
s10 29 25 29c22 0 36 -16 53 -60zM231 561l-16 -11l-76 81c-13 14 -21 33 -21 50c0 19 9 30 25 30c22 0 37 -17 53 -60z" />
    <glyph glyph-name="Odieresis" unicode="&#xd6;" horiz-adv-x="800" 
d="M758 338c0 -229 -186 -351 -358 -351c-202 0 -356 154 -356 356c0 196 159 351 360 351c205 0 354 -150 354 -356zM640 332c0 193 -92 314 -238 314c-145 0 -240 -120 -240 -304c0 -187 93 -307 239 -307c145 0 239 117 239 297zM380 796c0 -32 -27 -59 -59 -59
s-59 27 -59 59c0 33 27 59 60 59c31 0 58 -27 58 -59zM543 796c0 -32 -27 -59 -59 -59s-59 27 -59 59c0 33 27 59 60 59c31 0 58 -27 58 -59z" />
    <glyph glyph-name="odieresis" unicode="&#xf6;" horiz-adv-x="560" 
d="M526 239c0 -148 -98 -248 -243 -248c-149 0 -246 99 -246 250c0 90 48 253 242 253c198 0 247 -163 247 -255zM424 234c0 137 -54 220 -144 220c-85 0 -141 -83 -141 -211c0 -135 53 -212 145 -212c88 0 140 76 140 203zM255 630c0 -32 -27 -59 -59 -59s-59 27 -59 59
c0 33 27 59 60 59c31 0 58 -27 58 -59zM418 630c0 -32 -27 -59 -59 -59s-59 27 -59 59c0 33 27 59 60 59c31 0 58 -27 58 -59z" />
    <glyph glyph-name="Odotbelow" unicode="&#x1ecc;" horiz-adv-x="800" 
d="M758 338c0 -229 -186 -351 -358 -351c-202 0 -356 154 -356 356c0 196 159 351 360 351c205 0 354 -150 354 -356zM640 332c0 193 -92 314 -238 314c-145 0 -240 -120 -240 -304c0 -187 93 -307 239 -307c145 0 239 117 239 297zM460 -150c0 -32 -27 -59 -59 -59
s-59 27 -59 59c0 33 27 59 60 59c31 0 58 -27 58 -59z" />
    <glyph glyph-name="odotbelow" unicode="&#x1ecd;" horiz-adv-x="560" 
d="M526 239c0 -148 -98 -248 -243 -248c-149 0 -246 99 -246 250c0 90 48 253 242 253c198 0 247 -163 247 -255zM424 234c0 137 -54 220 -144 220c-85 0 -141 -83 -141 -211c0 -135 53 -212 145 -212c88 0 140 76 140 203zM335 -150c0 -32 -27 -59 -59 -59s-59 27 -59 59
c0 33 27 59 60 59c31 0 58 -27 58 -59z" />
    <glyph glyph-name="OE" unicode="&#x152;" horiz-adv-x="1240" 
d="M1214 218l-87 -218h-494v86c-66 -65 -149 -99 -241 -99c-197 0 -348 154 -348 354s152 353 350 353c88 0 171 -32 239 -91v78h465l78 -173l-33 -13c-42 53 -65 75 -99 95c-52 31 -123 48 -199 48c-120 0 -120 -22 -120 -123v-117h48c93 0 143 20 143 111v17h38v-307h-38
v15c0 119 -90 121 -144 121h-47v-212c0 -68 3 -100 128 -100c81 0 156 24 213 66c34 26 64 58 114 124zM629 344c0 179 -96 302 -236 302c-139 0 -231 -118 -231 -297c0 -190 92 -314 232 -314c141 0 235 123 235 309z" />
    <glyph glyph-name="oe" unicode="&#x153;" horiz-adv-x="900" 
d="M876 113c-37 -75 -119 -122 -214 -122c-75 0 -137 31 -188 94c-49 -61 -118 -94 -198 -94c-140 0 -239 103 -239 248c0 151 99 255 243 255c76 0 145 -32 194 -90c47 59 113 90 189 90c122 0 213 -86 213 -201h-351c-2 -21 -3 -31 -3 -54c0 -181 106 -208 164 -208
c66 0 117 32 157 98zM423 257c0 134 -48 205 -139 205c-93 0 -145 -79 -145 -220c0 -139 48 -211 142 -211c114 0 142 121 142 226zM776 326c0 80 -46 128 -120 128c-70 0 -113 -42 -129 -128h249z" />
    <glyph glyph-name="ogonek" unicode="&#x2db;" horiz-adv-x="320" 
d="M268 -170c-24 -39 -72 -70 -119 -70c-63 0 -119 45 -119 105c0 59 49 110 95 145h64c-49 -22 -80 -70 -80 -124c0 -34 22 -69 58 -69c24 0 59 12 76 32z" />
    <glyph glyph-name="Ograve" unicode="&#xd2;" horiz-adv-x="800" 
d="M758 338c0 -229 -186 -351 -358 -351c-202 0 -356 154 -356 356c0 196 159 351 360 351c205 0 354 -150 354 -356zM640 332c0 193 -92 314 -238 314c-145 0 -240 -120 -240 -304c0 -187 93 -307 239 -307c145 0 239 117 239 297zM483 756l-5 -12l-153 26
c-48 8 -69 21 -69 45c0 19 17 33 39 33s51 -12 83 -31z" />
    <glyph glyph-name="ograve" unicode="&#xf2;" horiz-adv-x="560" 
d="M526 239c0 -148 -98 -248 -243 -248c-149 0 -246 99 -246 250c0 90 48 253 242 253c198 0 247 -163 247 -255zM424 234c0 137 -54 220 -144 220c-85 0 -141 -83 -141 -211c0 -135 53 -212 145 -212c88 0 140 76 140 203zM361 586l-5 -14l-139 29c-43 9 -62 24 -62 50
c0 21 15 37 35 37s47 -12 76 -34z" />
    <glyph glyph-name="ohm" unicode="&#x2126;" horiz-adv-x="770" 
d="M759 176l-60 -176h-274l15 154c113 47 170 133 170 256c0 141 -79 230 -219 230c-147 0 -231 -101 -231 -250c0 -110 57 -189 170 -236l15 -154h-273l-61 176l45 15c25 -53 55 -88 90 -105c26 -13 73 -19 142 -19l-6 45c-123 56 -228 128 -228 284c0 188 150 297 341 297
c185 0 320 -101 320 -279c0 -143 -76 -244 -227 -302l-6 -45c64 0 111 7 140 20c35 16 66 51 93 104z" />
    <glyph glyph-name="Ohookabove" unicode="&#x1ece;" horiz-adv-x="800" 
d="M758 338c0 -229 -186 -351 -358 -351c-202 0 -356 154 -356 356c0 196 159 351 360 351c205 0 354 -150 354 -356zM640 332c0 193 -92 314 -238 314c-145 0 -240 -120 -240 -304c0 -187 93 -307 239 -307c145 0 239 117 239 297zM521 854c0 -26 -11 -57 -73 -82
c-22 -9 -28 -19 -28 -57h-40c0 4 -1 18 -1 26c0 29 6 42 32 59l22 14c15 10 21 26 21 44c0 28 -15 44 -42 44c-25 0 -44 -11 -44 -25c0 -3 1 -5 2 -9v1c5 -10 6 -12 6 -18c0 -14 -16 -29 -32 -29c-22 0 -36 17 -36 39c0 35 39 76 108 76c52 0 105 -29 105 -83z" />
    <glyph glyph-name="ohookabove" unicode="&#x1ecf;" horiz-adv-x="560" 
d="M526 239c0 -148 -98 -248 -243 -248c-149 0 -246 99 -246 250c0 90 48 253 242 253c198 0 247 -163 247 -255zM424 234c0 137 -54 220 -144 220c-85 0 -141 -83 -141 -211c0 -135 53 -212 145 -212c88 0 140 76 140 203zM396 658c0 -26 -11 -57 -73 -82
c-22 -9 -28 -19 -28 -57h-40c0 4 -1 18 -1 26c0 29 6 42 32 59l22 14c15 10 21 26 21 44c0 28 -15 44 -42 44c-25 0 -44 -11 -44 -25c0 -3 1 -5 2 -9v1c5 -10 6 -12 6 -18c0 -14 -16 -29 -32 -29c-22 0 -36 17 -36 39c0 35 39 76 108 76c52 0 105 -29 105 -83z" />
    <glyph glyph-name="Ohorn" unicode="&#x1a0;" horiz-adv-x="800" 
d="M758 338c0 -84 -25 -160 -74 -220c-66 -81 -174 -131 -284 -131c-202 0 -356 154 -356 356c0 196 159 351 360 351c69 0 131 -17 184 -48c20 10 39 22 41 35c-35 4 -44 26 -44 44c0 26 24 54 56 54c31 0 56 -27 56 -58c0 -46 -35 -78 -75 -97c84 -64 136 -165 136 -286z
M640 332c0 193 -92 314 -238 314c-145 0 -240 -120 -240 -304c0 -187 93 -307 239 -307c145 0 239 117 239 297z" />
    <glyph glyph-name="ohorn" unicode="&#x1a1;" horiz-adv-x="560" 
d="M526 239c0 -148 -98 -248 -243 -248c-149 0 -246 99 -246 250c0 70 28 144 70 188c40 41 102 65 172 65c55 0 105 -14 145 -41c17 9 31 21 33 32c-35 4 -44 26 -44 44c0 26 24 54 56 54c31 0 56 -27 56 -58c0 -45 -33 -77 -72 -96c5 -4 9 -9 13 -13
c37 -46 60 -112 60 -177zM424 234c0 137 -54 220 -144 220c-85 0 -141 -83 -141 -211c0 -135 53 -212 145 -212c88 0 140 76 140 203z" />
    <glyph glyph-name="Ohornacute" unicode="&#x1eda;" horiz-adv-x="800" 
d="M758 338c0 -84 -25 -160 -74 -220c-66 -81 -174 -131 -284 -131c-202 0 -356 154 -356 356c0 196 159 351 360 351c69 0 131 -17 184 -48c20 10 39 22 41 35c-35 4 -44 26 -44 44c0 26 24 54 56 54c31 0 56 -27 56 -58c0 -46 -35 -78 -75 -97c84 -64 136 -165 136 -286z
M640 332c0 193 -92 314 -238 314c-145 0 -240 -120 -240 -304c0 -187 93 -307 239 -307c145 0 239 117 239 297zM552 815c0 -24 -21 -37 -69 -45l-153 -26l-5 12l105 61c32 19 61 31 83 31s39 -14 39 -33z" />
    <glyph glyph-name="ohornacute" unicode="&#x1edb;" horiz-adv-x="560" 
d="M526 239c0 -148 -98 -248 -243 -248c-149 0 -246 99 -246 250c0 70 28 144 70 188c40 41 102 65 172 65c55 0 105 -14 145 -41c17 9 31 21 33 32c-35 4 -44 26 -44 44c0 26 24 54 56 54c31 0 56 -27 56 -58c0 -45 -33 -77 -72 -96c5 -4 9 -9 13 -13
c37 -46 60 -112 60 -177zM424 234c0 137 -54 220 -144 220c-85 0 -141 -83 -141 -211c0 -135 53 -212 145 -212c88 0 140 76 140 203zM363 651c0 -26 -19 -41 -62 -50l-139 -29l-5 14l95 68c29 22 56 34 76 34s35 -16 35 -37z" />
    <glyph glyph-name="Ohorndotbelow" unicode="&#x1ee2;" horiz-adv-x="800" 
d="M758 338c0 -84 -25 -160 -74 -220c-66 -81 -174 -131 -284 -131c-202 0 -356 154 -356 356c0 196 159 351 360 351c69 0 131 -17 184 -48c20 10 39 22 41 35c-35 4 -44 26 -44 44c0 26 24 54 56 54c31 0 56 -27 56 -58c0 -46 -35 -78 -75 -97c84 -64 136 -165 136 -286z
M640 332c0 193 -92 314 -238 314c-145 0 -240 -120 -240 -304c0 -187 93 -307 239 -307c145 0 239 117 239 297zM460 -150c0 -32 -27 -59 -59 -59s-59 27 -59 59c0 33 27 59 60 59c31 0 58 -27 58 -59z" />
    <glyph glyph-name="ohorndotbelow" unicode="&#x1ee3;" horiz-adv-x="560" 
d="M526 239c0 -148 -98 -248 -243 -248c-149 0 -246 99 -246 250c0 70 28 144 70 188c40 41 102 65 172 65c55 0 105 -14 145 -41c17 9 31 21 33 32c-35 4 -44 26 -44 44c0 26 24 54 56 54c31 0 56 -27 56 -58c0 -45 -33 -77 -72 -96c5 -4 9 -9 13 -13
c37 -46 60 -112 60 -177zM424 234c0 137 -54 220 -144 220c-85 0 -141 -83 -141 -211c0 -135 53 -212 145 -212c88 0 140 76 140 203zM295 -150c0 -32 -27 -59 -59 -59s-59 27 -59 59c0 33 27 59 60 59c31 0 58 -27 58 -59z" />
    <glyph glyph-name="Ohorngrave" unicode="&#x1edc;" horiz-adv-x="800" 
d="M758 338c0 -84 -25 -160 -74 -220c-66 -81 -174 -131 -284 -131c-202 0 -356 154 -356 356c0 196 159 351 360 351c69 0 131 -17 184 -48c20 10 39 22 41 35c-35 4 -44 26 -44 44c0 26 24 54 56 54c31 0 56 -27 56 -58c0 -46 -35 -78 -75 -97c84 -64 136 -165 136 -286z
M640 332c0 193 -92 314 -238 314c-145 0 -240 -120 -240 -304c0 -187 93 -307 239 -307c145 0 239 117 239 297zM483 756l-5 -12l-153 26c-48 8 -69 21 -69 45c0 19 17 33 39 33s51 -12 83 -31z" />
    <glyph glyph-name="ohorngrave" unicode="&#x1edd;" horiz-adv-x="560" 
d="M526 239c0 -148 -98 -248 -243 -248c-149 0 -246 99 -246 250c0 70 28 144 70 188c40 41 102 65 172 65c55 0 105 -14 145 -41c17 9 31 21 33 32c-35 4 -44 26 -44 44c0 26 24 54 56 54c31 0 56 -27 56 -58c0 -45 -33 -77 -72 -96c5 -4 9 -9 13 -13
c37 -46 60 -112 60 -177zM424 234c0 137 -54 220 -144 220c-85 0 -141 -83 -141 -211c0 -135 53 -212 145 -212c88 0 140 76 140 203zM321 586l-5 -14l-139 29c-43 9 -62 24 -62 50c0 21 15 37 35 37s47 -12 76 -34z" />
    <glyph glyph-name="Ohornhookabove" unicode="&#x1ede;" horiz-adv-x="800" 
d="M758 338c0 -84 -25 -160 -74 -220c-66 -81 -174 -131 -284 -131c-202 0 -356 154 -356 356c0 196 159 351 360 351c69 0 131 -17 184 -48c20 10 39 22 41 35c-35 4 -44 26 -44 44c0 26 24 54 56 54c31 0 56 -27 56 -58c0 -46 -35 -78 -75 -97c84 -64 136 -165 136 -286z
M640 332c0 193 -92 314 -238 314c-145 0 -240 -120 -240 -304c0 -187 93 -307 239 -307c145 0 239 117 239 297zM521 854c0 -26 -11 -57 -73 -82c-22 -9 -28 -19 -28 -57h-40c0 4 -1 18 -1 26c0 29 6 42 32 59l22 14c15 10 21 26 21 44c0 28 -15 44 -42 44
c-25 0 -44 -11 -44 -25c0 -3 1 -5 2 -9v1c5 -10 6 -12 6 -18c0 -14 -16 -29 -32 -29c-22 0 -36 17 -36 39c0 35 39 76 108 76c52 0 105 -29 105 -83z" />
    <glyph glyph-name="ohornhookabove" unicode="&#x1edf;" horiz-adv-x="560" 
d="M526 239c0 -148 -98 -248 -243 -248c-149 0 -246 99 -246 250c0 70 28 144 70 188c40 41 102 65 172 65c55 0 105 -14 145 -41c17 9 31 21 33 32c-35 4 -44 26 -44 44c0 26 24 54 56 54c31 0 56 -27 56 -58c0 -45 -33 -77 -72 -96c5 -4 9 -9 13 -13
c37 -46 60 -112 60 -177zM424 234c0 137 -54 220 -144 220c-85 0 -141 -83 -141 -211c0 -135 53 -212 145 -212c88 0 140 76 140 203zM356 658c0 -26 -11 -57 -73 -82c-22 -9 -28 -19 -28 -57h-40c0 4 -1 18 -1 26c0 29 6 42 32 59l22 14c15 10 21 26 21 44
c0 28 -15 44 -42 44c-25 0 -44 -11 -44 -25c0 -3 1 -5 2 -9v1c5 -10 6 -12 6 -18c0 -14 -16 -29 -32 -29c-22 0 -36 17 -36 39c0 35 39 76 108 76c52 0 105 -29 105 -83z" />
    <glyph glyph-name="Ohorntilde" unicode="&#x1ee0;" horiz-adv-x="800" 
d="M758 338c0 -84 -25 -160 -74 -220c-66 -81 -174 -131 -284 -131c-202 0 -356 154 -356 356c0 196 159 351 360 351c69 0 131 -17 184 -48c20 10 39 22 41 35c-35 4 -44 26 -44 44c0 26 24 54 56 54c31 0 56 -27 56 -58c0 -46 -35 -78 -75 -97c84 -64 136 -165 136 -286z
M640 332c0 193 -92 314 -238 314c-145 0 -240 -120 -240 -304c0 -187 93 -307 239 -307c145 0 239 117 239 297zM559 825c-15 -50 -42 -72 -90 -72c-24 0 -46 4 -95 18c-31 8 -40 10 -54 10c-15 0 -26 -5 -39 -20l-29 10c13 41 47 68 86 68c23 0 44 -4 95 -18
c24 -7 36 -9 49 -9c20 0 37 8 48 22z" />
    <glyph glyph-name="ohorntilde" unicode="&#x1ee1;" horiz-adv-x="560" 
d="M526 239c0 -148 -98 -248 -243 -248c-149 0 -246 99 -246 250c0 70 28 144 70 188c40 41 102 65 172 65c55 0 105 -14 145 -41c17 9 31 21 33 32c-35 4 -44 26 -44 44c0 26 24 54 56 54c31 0 56 -27 56 -58c0 -45 -33 -77 -72 -96c5 -4 9 -9 13 -13
c37 -46 60 -112 60 -177zM424 234c0 137 -54 220 -144 220c-85 0 -141 -83 -141 -211c0 -135 53 -212 145 -212c88 0 140 76 140 203zM394 659c-15 -50 -42 -72 -90 -72c-24 0 -46 4 -95 18c-31 8 -40 10 -54 10c-15 0 -26 -5 -39 -20l-29 10c13 41 47 68 86 68
c23 0 44 -4 95 -18c24 -7 36 -9 49 -9c20 0 37 8 48 22z" />
    <glyph glyph-name="Ohungarumlaut" unicode="&#x150;" horiz-adv-x="800" 
d="M758 338c0 -229 -186 -351 -358 -351c-202 0 -356 154 -356 356c0 196 159 351 360 351c205 0 354 -150 354 -356zM640 332c0 193 -92 314 -238 314c-145 0 -240 -120 -240 -304c0 -187 93 -307 239 -307c145 0 239 117 239 297zM445 878c0 -18 -8 -38 -20 -51l-77 -81
l-16 11l35 90c17 44 31 60 53 60c15 0 25 -11 25 -29zM565 877c0 -17 -8 -36 -21 -50l-76 -81l-16 11l35 90c16 43 31 60 53 60c16 0 25 -11 25 -30z" />
    <glyph glyph-name="ohungarumlaut" unicode="&#x151;" horiz-adv-x="560" 
d="M526 239c0 -148 -98 -248 -243 -248c-149 0 -246 99 -246 250c0 90 48 253 242 253c198 0 247 -163 247 -255zM424 234c0 137 -54 220 -144 220c-85 0 -141 -83 -141 -211c0 -135 53 -212 145 -212c88 0 140 76 140 203zM320 682c0 -18 -8 -38 -20 -51l-77 -81l-16 11
l35 90c17 44 31 60 53 60c15 0 25 -11 25 -29zM440 681c0 -17 -8 -36 -21 -50l-76 -81l-16 11l35 90c16 43 31 60 53 60c16 0 25 -11 25 -30z" />
    <glyph glyph-name="Omacron" unicode="&#x14c;" horiz-adv-x="800" 
d="M758 338c0 -229 -186 -351 -358 -351c-202 0 -356 154 -356 356c0 196 159 351 360 351c205 0 354 -150 354 -356zM640 332c0 193 -92 314 -238 314c-145 0 -240 -120 -240 -304c0 -187 93 -307 239 -307c145 0 239 117 239 297zM548 771h-296v50h296v-50z" />
    <glyph glyph-name="omacron" unicode="&#x14d;" horiz-adv-x="560" 
d="M526 239c0 -148 -98 -248 -243 -248c-149 0 -246 99 -246 250c0 90 48 253 242 253c198 0 247 -163 247 -255zM424 234c0 137 -54 220 -144 220c-85 0 -141 -83 -141 -211c0 -135 53 -212 145 -212c88 0 140 76 140 203zM423 605h-296v50h296v-50z" />
    <glyph glyph-name="Omega" unicode="&#x3a9;" horiz-adv-x="770" 
d="M759 176l-60 -176h-274l15 154c113 47 170 133 170 256c0 141 -79 230 -219 230c-147 0 -231 -101 -231 -250c0 -110 57 -189 170 -236l15 -154h-273l-61 176l45 15c25 -53 55 -88 90 -105c26 -13 73 -19 142 -19l-6 45c-123 56 -228 128 -228 284c0 188 150 297 341 297
c185 0 320 -101 320 -279c0 -143 -76 -244 -227 -302l-6 -45c64 0 111 7 140 20c35 16 66 51 93 104z" />
    <glyph glyph-name="omega" unicode="&#x3c9;" horiz-adv-x="680" 
d="M642 229c0 -134 -56 -241 -180 -241c-56 0 -97 28 -122 83c-26 -55 -67 -83 -122 -83c-126 0 -180 102 -180 236c0 173 83 259 249 259v-49c-107 0 -153 -60 -153 -215c0 -121 29 -181 88 -181c56 0 77 33 77 168v60h82v-60c0 -135 21 -168 77 -168c59 0 88 62 88 187
c0 129 -34 207 -153 209v49c166 0 249 -85 249 -254z" />
    <glyph glyph-name="Omicron" unicode="&#x39f;" horiz-adv-x="800" 
d="M758 338c0 -229 -186 -351 -358 -351c-202 0 -356 154 -356 356c0 196 159 351 360 351c205 0 354 -150 354 -356zM640 332c0 193 -92 314 -238 314c-145 0 -240 -120 -240 -304c0 -187 93 -307 239 -307c145 0 239 117 239 297z" />
    <glyph glyph-name="omicron" unicode="&#x3bf;" horiz-adv-x="560" 
d="M526 239c0 -148 -98 -248 -243 -248c-149 0 -246 99 -246 250c0 90 48 253 242 253c198 0 247 -163 247 -255zM424 234c0 137 -54 220 -144 220c-85 0 -141 -83 -141 -211c0 -135 53 -212 145 -212c88 0 140 76 140 203z" />
    <glyph glyph-name="onehalf" unicode="&#xbd;" horiz-adv-x="930" 
d="M302 273h-222v27h26c61 0 52 47 52 61v224c0 44 -5 49 -47 51l-29 1v26c64 7 77 9 118 18h25v-322c0 -31 1 -59 52 -59h25v-27zM704 681l-465 -681h-58l464 681h59zM885 117l-32 -117h-315v48c70 40 85 51 119 80c72 61 112 124 112 176c0 45 -32 75 -82 75
c-43 0 -84 -24 -84 -50c0 -8 2 -12 13 -24c6 -6 10 -15 10 -22c0 -18 -19 -35 -40 -35c-26 0 -46 23 -46 54c0 62 71 114 155 114c91 0 156 -50 156 -119c0 -52 -36 -106 -110 -165c-29 -23 -48 -35 -115 -76h133c55 0 67 7 87 51l8 17z" />
    <glyph glyph-name="onequarter" unicode="&#xbc;" horiz-adv-x="930" 
d="M302 273h-222v27h26c61 0 52 47 52 61v224c0 44 -5 49 -47 51l-29 1v26c64 7 77 9 118 18h25v-322c0 -31 1 -59 52 -59h25v-27zM723 681l-465 -681h-58l464 681h59zM869 152l-17 -43h-78v-21c0 -47 8 -60 36 -61l24 -1v-26h-187v26l24 1c29 1 36 14 36 61v21h-192l-12 30
l206 269h65v-256h95zM707 152v190l-147 -190h147z" />
    <glyph glyph-name="one.superior" unicode="&#xb9;" horiz-adv-x="372" 
d="M302 273h-222v27h26c61 0 52 47 52 61v224c0 44 -5 49 -47 51l-29 1v26c64 7 77 9 118 18h25v-322c0 -31 1 -59 52 -59h25v-27z" />
    <glyph glyph-name="Oogonek" unicode="&#x1ea;" horiz-adv-x="800" 
d="M758 338c0 -183 -119 -298 -255 -336c-48 -14 -74 -64 -74 -116c0 -34 22 -69 58 -69c24 0 59 12 76 32l25 -19c-24 -39 -72 -70 -119 -70c-63 0 -119 45 -119 105c0 47 32 90 68 122h-18c-202 0 -356 154 -356 356c0 196 159 351 360 351c205 0 354 -150 354 -356z
M640 332c0 193 -92 314 -238 314c-145 0 -240 -120 -240 -304c0 -187 93 -307 239 -307c145 0 239 117 239 297z" />
    <glyph glyph-name="oogonek" unicode="&#x1eb;" horiz-adv-x="560" 
d="M526 239c0 -111 -55 -195 -144 -230c-50 -20 -83 -69 -83 -123c0 -34 22 -69 58 -69c24 0 59 12 76 32l25 -19c-24 -39 -72 -70 -119 -70c-63 0 -119 45 -119 105c0 49 34 93 72 126h-9c-149 0 -246 99 -246 250c0 90 48 253 242 253c198 0 247 -163 247 -255zM424 234
c0 137 -54 220 -144 220c-85 0 -141 -83 -141 -211c0 -135 53 -212 145 -212c88 0 140 76 140 203z" />
    <glyph glyph-name="openbullet" unicode="&#x25e6;" horiz-adv-x="460" 
d="M404 385c0 -95 -77 -172 -172 -172s-172 77 -172 172s77 172 172 172s172 -77 172 -172zM326 385c0 52 -42 94 -94 94s-94 -42 -94 -94s42 -94 94 -94s94 42 94 94z" />
    <glyph glyph-name="ordfeminine" unicode="&#xaa;" horiz-adv-x="420" 
d="M393 405c-22 -18 -37 -24 -63 -24c-39 0 -64 13 -76 39c-38 -29 -68 -40 -107 -40c-58 0 -98 32 -98 79c0 30 19 56 52 71c34 16 64 22 150 34v45c0 27 -25 44 -65 44c-18 0 -32 -5 -43 -14c-4 -3 -4 -5 -4 -14v-7c0 -23 -15 -38 -36 -38c-18 0 -34 15 -34 32
c0 37 62 73 126 73c53 0 124 -16 124 -86v-131c0 -37 6 -50 25 -50c10 0 21 4 30 11zM251 457v76c-96 -15 -132 -34 -132 -70c0 -27 21 -46 50 -46c26 0 50 12 82 40zM368 288h-305v40h305v-40z" />
    <glyph glyph-name="ordmasculine" unicode="&#xba;" horiz-adv-x="420" 
d="M360 532c0 -91 -61 -152 -151 -152c-93 0 -153 60 -153 154c0 90 60 151 151 151c92 0 153 -61 153 -153zM290 530c0 78 -30 123 -82 123c-51 0 -82 -45 -82 -118c0 -80 30 -123 83 -123c52 0 81 42 81 118zM361 288h-305v40h305v-40z" />
    <glyph glyph-name="Oslash" unicode="&#xd8;" horiz-adv-x="800" 
d="M758 340c0 -230 -186 -353 -359 -353c-74 0 -132 17 -201 58l-78 -98h-63l103 129c-79 76 -116 159 -116 263c0 200 157 355 361 355c76 0 137 -16 200 -55l75 95h61l-99 -123c82 -83 116 -161 116 -271zM560 582c-50 46 -93 64 -157 64c-149 0 -241 -118 -241 -310
c0 -79 12 -125 51 -193zM640 331c0 89 -13 143 -50 210l-347 -438c47 -48 94 -68 159 -68c144 0 238 117 238 296z" />
    <glyph glyph-name="oslash" unicode="&#xf8;" horiz-adv-x="560" 
d="M526 241c0 -150 -97 -250 -242 -250c-45 0 -88 9 -117 25l-35 -58h-50l49 79c-62 47 -94 114 -94 199c0 156 96 258 242 258c44 0 89 -9 118 -25l45 74h47l-57 -94c58 -44 94 -123 94 -208zM366 420c-23 24 -48 34 -82 34c-90 0 -145 -81 -145 -215
c0 -55 10 -100 30 -139zM424 236c0 60 -11 115 -31 150l-196 -322c21 -20 55 -33 89 -33c87 0 138 76 138 205z" />
    <glyph glyph-name="Oslashacute" unicode="&#x1fe;" horiz-adv-x="800" 
d="M758 340c0 -230 -186 -353 -359 -353c-74 0 -132 17 -201 58l-78 -98h-63l103 129c-79 76 -116 159 -116 263c0 200 157 355 361 355c76 0 137 -16 200 -55l75 95h61l-99 -123c82 -83 116 -161 116 -271zM560 582c-50 46 -93 64 -157 64c-149 0 -241 -118 -241 -310
c0 -79 12 -125 51 -193zM640 331c0 89 -13 143 -50 210l-347 -438c47 -48 94 -68 159 -68c144 0 238 117 238 296zM553 815c0 -24 -21 -37 -69 -45l-153 -26l-5 12l105 61c32 19 61 31 83 31s39 -14 39 -33z" />
    <glyph glyph-name="oslashacute" unicode="&#x1ff;" horiz-adv-x="560" 
d="M526 241c0 -150 -97 -250 -242 -250c-45 0 -88 9 -117 25l-35 -58h-50l49 79c-62 47 -94 114 -94 199c0 156 96 258 242 258c44 0 89 -9 118 -25l45 74h47l-57 -94c58 -44 94 -123 94 -208zM366 420c-23 24 -48 34 -82 34c-90 0 -145 -81 -145 -215
c0 -55 10 -100 30 -139zM424 236c0 60 -11 115 -31 150l-196 -322c21 -20 55 -33 89 -33c87 0 138 76 138 205zM403 651c0 -26 -19 -41 -62 -50l-139 -29l-5 14l95 68c29 22 56 34 76 34s35 -16 35 -37z" />
    <glyph glyph-name="Otilde" unicode="&#xd5;" horiz-adv-x="800" 
d="M758 338c0 -229 -186 -351 -358 -351c-202 0 -356 154 -356 356c0 196 159 351 360 351c205 0 354 -150 354 -356zM640 332c0 193 -92 314 -238 314c-145 0 -240 -120 -240 -304c0 -187 93 -307 239 -307c145 0 239 117 239 297zM559 825c-15 -50 -42 -72 -90 -72
c-24 0 -46 4 -95 18c-31 8 -40 10 -54 10c-15 0 -26 -5 -39 -20l-29 10c13 41 47 68 86 68c23 0 44 -4 95 -18c24 -7 36 -9 49 -9c20 0 37 8 48 22z" />
    <glyph glyph-name="otilde" unicode="&#xf5;" horiz-adv-x="560" 
d="M526 239c0 -148 -98 -248 -243 -248c-149 0 -246 99 -246 250c0 90 48 253 242 253c198 0 247 -163 247 -255zM424 234c0 137 -54 220 -144 220c-85 0 -141 -83 -141 -211c0 -135 53 -212 145 -212c88 0 140 76 140 203zM434 659c-15 -50 -42 -72 -90 -72
c-24 0 -46 4 -95 18c-31 8 -40 10 -54 10c-15 0 -26 -5 -39 -20l-29 10c13 41 47 68 86 68c23 0 44 -4 95 -18c24 -7 36 -9 49 -9c20 0 37 8 48 22z" />
    <glyph glyph-name="paragraph" unicode="&#xb6;" horiz-adv-x="600" 
d="M577 0h-409v32l19 2c67 7 81 23 81 95v168h-16c-212 0 -238 136 -238 192c0 77 38 192 260 192h303v-33l-21 -2c-57 -6 -68 -22 -68 -102v-415c0 -67 16 -90 68 -95l21 -2v-32zM417 33v615h-75v-615h75zM268 327v321c-97 -1 -154 -58 -154 -154c0 -95 61 -161 154 -167z
" />
    <glyph glyph-name="partialdiff" unicode="&#x2202;" horiz-adv-x="494" 
d="M462 402c0 -116 -33 -250 -79 -318c-42 -61 -101 -94 -170 -94c-104 0 -187 86 -187 194c0 101 73 228 195 228c51 0 87 -16 151 -66c5 50 7 73 7 102c0 163 -59 258 -160 258c-34 0 -67 -9 -112 -32l-41 51c55 20 90 28 129 28c152 0 267 -151 267 -351zM366 312
c-4 4 -4 4 -9 8c-32 33 -62 47 -96 47c-81 0 -148 -94 -148 -208c0 -85 34 -138 88 -138c44 0 87 33 113 86c26 51 36 94 52 205z" />
    <glyph glyph-name="periodcentered" unicode="&#xb7;" horiz-adv-x="320" 
d="M224 250c0 -35 -29 -64 -64 -64s-64 29 -64 64s29 64 64 64s64 -29 64 -64z" />
    <glyph glyph-name="permyriad" unicode="&#x2031;" horiz-adv-x="1673" 
d="M369 474c0 -123 -72 -209 -174 -209s-173 87 -173 213c0 104 59 211 173 211c103 0 174 -87 174 -215zM294 478c0 113 -34 174 -97 174c-80 0 -100 -106 -100 -180c0 -109 36 -170 99 -170s98 62 98 176zM710 681l-464 -681h-59l464 681h59zM873 201
c0 -123 -72 -209 -174 -209s-173 87 -173 213c0 104 59 211 173 211c103 0 174 -87 174 -215zM798 205c0 113 -34 174 -97 174c-80 0 -100 -106 -100 -180c0 -109 36 -170 98 -170c64 0 99 62 99 176zM1266 201c0 -123 -72 -209 -174 -209s-173 87 -173 213
c0 104 59 211 173 211c103 0 174 -87 174 -215zM1191 205c0 113 -34 174 -97 174c-80 0 -100 -106 -100 -180c0 -108 36 -170 98 -170c64 0 99 62 99 176zM1659 201c0 -123 -72 -209 -174 -209s-173 87 -173 213c0 104 59 211 173 211c103 0 174 -87 174 -215zM1584 205
c0 113 -34 174 -97 174c-80 0 -100 -106 -100 -180c0 -108 36 -170 98 -170c64 0 99 62 99 176z" />
    <glyph glyph-name="perthousand" unicode="&#x2030;" horiz-adv-x="1280" 
d="M369 474c0 -123 -72 -209 -174 -209s-173 87 -173 213c0 104 59 211 173 211c103 0 174 -87 174 -215zM294 478c0 113 -34 174 -97 174c-80 0 -100 -106 -100 -180c0 -109 36 -170 99 -170s98 62 98 176zM710 681l-464 -681h-59l464 681h59zM873 201
c0 -123 -72 -209 -174 -209s-173 87 -173 213c0 104 59 211 173 211c103 0 174 -87 174 -215zM798 205c0 113 -34 174 -97 174c-80 0 -100 -106 -100 -180c0 -109 36 -170 98 -170c64 0 99 62 99 176zM1266 201c0 -123 -72 -209 -174 -209s-173 87 -173 213
c0 104 59 211 173 211c103 0 174 -87 174 -215zM1191 205c0 113 -34 174 -97 174c-80 0 -100 -106 -100 -180c0 -108 36 -170 98 -170c64 0 99 62 99 176z" />
    <glyph glyph-name="peso" unicode="&#x20b1;" 
d="M613 490c0 -76 -44 -199 -251 -199h-141v-79h89v-36h-89v-32c0 -81 15 -106 65 -110l37 -3v-31h-292v31l25 3c52 7 65 28 65 110v32h-90v36h90v325c0 82 -13 103 -65 110l-25 3v31h332c154 0 250 -73 250 -191zM511 487c0 122 -84 152 -176 152c-96 0 -114 -10 -114 -64
v-241h125c133 0 165 88 165 153z" />
    <glyph glyph-name="Phi" unicode="&#x3a6;" horiz-adv-x="806" 
d="M782 337c0 -85 -37 -145 -111 -179c-49 -23 -123 -34 -222 -34v-18c0 -54 16 -65 70 -65h16v-41h-264v41h16c52 0 69 13 69 65v18c-101 2 -175 14 -224 37c-73 34 -109 94 -109 179c0 87 36 147 109 180c50 23 125 35 224 38v17c0 53 -16 65 -69 65h-16v41h264v-41h-16
c-53 0 -70 -12 -70 -65v-17c101 -2 176 -15 225 -38c72 -34 108 -95 108 -183zM679 341c0 66 -23 112 -69 137c-33 18 -86 27 -161 28v-331c145 0 230 32 230 166zM356 175v331c-141 -4 -230 -35 -230 -169c0 -64 24 -108 71 -133c33 -17 86 -27 159 -29z" />
    <glyph glyph-name="phi" unicode="&#x3c6;" horiz-adv-x="680" 
d="M642 259c0 -179 -84 -271 -261 -271v-206h-82v206c-180 0 -260 81 -260 253c0 157 89 242 244 242v-48c-98 0 -150 -69 -150 -198c0 -130 41 -199 166 -199v228c0 155 38 217 160 217c126 0 183 -92 183 -224zM548 264c0 113 -30 169 -89 169c-58 0 -78 -35 -78 -161
v-234c118 0 167 53 167 226z" />
    <glyph glyph-name="uni03D5" unicode="&#x3d5;" horiz-adv-x="691" 
d="M309 38v396c-123 -2 -166 -66 -166 -197c0 -130 41 -199 166 -199zM651 240c0 -173 -75 -250 -260 -251v-207h-82v208c-185 0 -260 78 -260 251c0 161 99 248 260 248v74h82v-75c166 0 260 -86 260 -248zM557 236c0 130 -39 197 -166 197v-396c126 1 166 68 166 199z" />
    </font>
</defs>
</svg>
