<?xml version="1.0" standalone="no"?>
<!DOCTYPE svg PUBLIC "-//W3C//DTD SVG 1.1//EN" "http://www.w3.org/Graphics/SVG/1.1/DTD/svg11.dtd" >
<svg xmlns="http://www.w3.org/2000/svg" xmlns:xlink="http://www.w3.org/1999/xlink" version="1.1">
<metadata>
Created by FontForge 20170910 at Sun Aug 12 11:18:31 2012
 By Jimmy Wärting
Copyright (C) 2011-2012 Severin Meyer
</metadata>
<defs>
<font id="Xolonium-Bold" horiz-adv-x="740" >
  <font-face 
    font-family="Xolonium"
    font-weight="700"
    font-stretch="normal"
    units-per-em="1000"
    panose-1="2 0 8 3 0 0 0 0 0 0"
    ascent="800"
    descent="-200"
    x-height="480"
    cap-height="660"
    bbox="-465 -225 1670 890"
    underline-thickness="70"
    underline-position="-75"
    stemh="110"
    stemv="170"
    unicode-range="U+0020-FB04"
  />
<missing-glyph 
d="M100 0v660h540v-660h-540zM220 70h300v520h-300v-520z" />
    <glyph glyph-name=".notdef" 
d="M100 0v660h540v-660h-540zM220 70h300v520h-300v-520z" />
    <glyph glyph-name="space" unicode=" " horiz-adv-x="400" 
 />
    <glyph glyph-name="exclam" unicode="!" horiz-adv-x="320" 
d="M75 0v140h170v-140h-170zM75 220v440h170v-440h-170z" />
    <glyph glyph-name="quotedbl" unicode="&#x22;" horiz-adv-x="550" 
d="M335 410v250h140v-250h-140zM75 410v250h140v-250h-140z" />
    <glyph glyph-name="numbersign" unicode="#" horiz-adv-x="930" 
d="M300 660h150l-50 -150h250l50 150h150l-50 -150h70v-105h-105l-50 -150h115v-105h-150l-50 -150h-150l50 150h-250l-50 -150h-150l50 150h-70v105h105l50 150h-115v105h150zM365 405l-50 -150h250l50 150h-250z" />
    <glyph glyph-name="dollar" unicode="$" horiz-adv-x="950" 
d="M70 0v105h335v200h-95c-120 0 -240 0 -240 135v85c0 135 120 135 240 135h95v85h140v-85h285v-105h-285v-140h95c120 0 240 0 240 -135v-145c0 -135 -120 -135 -240 -135h-95v-85h-140v85h-335zM240 450c0 -35 30 -35 60 -35h105v140h-105c-30 0 -60 0 -60 -35v-70z
M545 105h105c30 0 60 0 60 35v130c0 35 -30 35 -60 35h-105v-200z" />
    <glyph glyph-name="percent" unicode="%" horiz-adv-x="1230" 
d="M730 90v160c0 90 80 90 160 90h120c80 0 160 0 160 -90v-160c0 -90 -80 -90 -160 -90h-120c-80 0 -160 0 -160 90zM860 95c0 -25 20 -25 40 -25h100c20 0 40 0 40 25v150c0 25 -20 25 -40 25h-100c-20 0 -40 0 -40 -25v-150zM60 410v160c0 90 80 90 160 90h120
c80 0 160 0 160 -90v-160c0 -90 -80 -90 -160 -90h-120c-80 0 -160 0 -160 90zM190 415c0 -25 20 -25 40 -25h100c20 0 40 0 40 25v150c0 25 -20 25 -40 25h-100c-20 0 -40 0 -40 -25v-150zM380 0l330 660h140l-330 -660h-140z" />
    <glyph glyph-name="ampersand" unicode="&#x26;" horiz-adv-x="930" 
d="M320 515c0 -15 10 -25 20 -35l350 -350v170h170v-165c0 -135 -120 -135 -240 -135h-310c-120 0 -240 0 -240 135v155c0 90 85 120 150 120c-55 55 -70 70 -70 115c0 135 120 135 240 135h120c120 0 240 0 240 -135v-40h-170v30c0 35 -30 35 -60 35h-140
c-30 0 -60 0 -60 -35zM240 145c0 -35 30 -35 60 -35h220l-195 195h-25c-30 0 -60 0 -60 -35v-125z" />
    <glyph glyph-name="quotesingle" unicode="'" horiz-adv-x="290" 
d="M75 410v250h140v-250h-140z" />
    <glyph glyph-name="parenleft" unicode="(" horiz-adv-x="420" 
d="M75 220c0 160 60 320 160 440h125c-90 -120 -140 -280 -140 -440s50 -325 140 -445h-125c-100 120 -160 285 -160 445z" />
    <glyph glyph-name="parenright" unicode=")" horiz-adv-x="420" 
d="M60 -225c90 120 140 285 140 445s-50 320 -140 440h125c100 -120 160 -280 160 -440s-60 -325 -160 -445h-125z" />
    <glyph glyph-name="asterisk" unicode="*" horiz-adv-x="654" 
d="M60 439l40 123l162 -53v151h130v-151l163 53l39 -123l-161 -53l88 -122l-105 -76l-89 121l-88 -121l-105 76l88 122z" />
    <glyph glyph-name="plus" unicode="+" horiz-adv-x="720" 
d="M60 180v120h215v180h170v-180h215v-120h-215v-180h-170v180h-215z" />
    <glyph glyph-name="comma" unicode="," horiz-adv-x="350" 
d="M45 -150l60 270h170l-120 -270h-110z" />
    <glyph glyph-name="hyphen" unicode="-" horiz-adv-x="540" 
d="M60 180v120h420v-120h-420z" />
    <glyph glyph-name="period" unicode="." horiz-adv-x="320" 
d="M75 0v140h170v-140h-170z" />
    <glyph glyph-name="slash" unicode="/" horiz-adv-x="650" 
d="M60 -100l380 760h150l-380 -760h-150z" />
    <glyph glyph-name="zero" unicode="0" horiz-adv-x="910" 
d="M60 135v390c0 135 120 135 240 135h310c120 0 240 0 240 -135v-390c0 -135 -120 -135 -240 -135h-310c-120 0 -240 0 -240 135zM230 145c0 -35 30 -35 60 -35h330c30 0 60 0 60 35v370c0 35 -30 35 -60 35h-330c-30 0 -60 0 -60 -35v-370z" />
    <glyph glyph-name="one" unicode="1" horiz-adv-x="910" 
d="M670 660v-660h-170v550h-220v110h390z" />
    <glyph glyph-name="two" unicode="2" horiz-adv-x="910" 
d="M60 0v280c0 135 120 135 240 135h320c30 0 60 0 60 35v65c0 35 -30 35 -60 35h-510v110h500c120 0 240 0 240 -135v-85c0 -135 -120 -135 -240 -135h-320c-30 0 -60 0 -60 -35v-160h620v-110h-790z" />
    <glyph glyph-name="three" unicode="3" horiz-adv-x="910" 
d="M90 0v110h530c30 0 60 0 60 35v125c0 35 -30 35 -60 35h-440v110h440c30 0 60 0 60 35v65c0 35 -30 35 -60 35h-530v110h520c120 0 240 0 240 -135v-60c0 -60 -40 -90 -80 -100c40 -10 80 -40 80 -100v-130c0 -135 -120 -135 -240 -135h-520z" />
    <glyph glyph-name="four" unicode="4" horiz-adv-x="910" 
d="M60 130v110l540 420h250v-660h-170v130h-620zM284 240h396v308z" />
    <glyph glyph-name="five" unicode="5" horiz-adv-x="910" 
d="M60 0v110h560c30 0 60 0 60 35v125c0 35 -30 35 -60 35h-560v355h740v-110h-570v-135h380c120 0 240 0 240 -135v-145c0 -135 -120 -135 -240 -135h-550z" />
    <glyph glyph-name="six" unicode="6" horiz-adv-x="910" 
d="M60 135v345c0 180 155 180 320 180h420v-110h-430c-70 0 -140 0 -140 -80v-55h380c120 0 240 0 240 -135v-145c0 -135 -120 -135 -240 -135h-310c-120 0 -240 0 -240 135zM230 145c0 -35 30 -35 60 -35h330c30 0 60 0 60 35v125c0 35 -30 35 -60 35h-330
c-30 0 -60 0 -60 -35v-125z" />
    <glyph glyph-name="seven" unicode="7" horiz-adv-x="910" 
d="M60 550v110h790v-110l-420 -550h-200l420 550h-590z" />
    <glyph glyph-name="eight" unicode="8" horiz-adv-x="910" 
d="M60 135v130c0 60 40 90 80 100c-40 10 -80 40 -80 100v60c0 135 120 135 240 135h310c120 0 240 0 240 -135v-60c0 -60 -40 -90 -80 -100c40 -10 80 -40 80 -100v-130c0 -135 -120 -135 -240 -135h-310c-120 0 -240 0 -240 135zM230 145c0 -35 30 -35 60 -35h330
c30 0 60 0 60 35v125c0 35 -30 35 -60 35h-330c-30 0 -60 0 -60 -35v-125zM230 450c0 -35 30 -35 60 -35h330c30 0 60 0 60 35v65c0 35 -30 35 -60 35h-330c-30 0 -60 0 -60 -35v-65z" />
    <glyph glyph-name="nine" unicode="9" horiz-adv-x="910" 
d="M60 440v85c0 135 120 135 240 135h310c120 0 240 0 240 -135v-345c0 -180 -160 -180 -320 -180h-430v110h440c70 0 140 0 140 80v115h-380c-120 0 -240 0 -240 135zM230 450c0 -35 30 -35 60 -35h330c30 0 60 0 60 35v65c0 35 -30 35 -60 35h-330c-30 0 -60 0 -60 -35
v-65z" />
    <glyph glyph-name="colon" unicode=":" horiz-adv-x="320" 
d="M75 340v140h170v-140h-170zM75 0v140h170v-140h-170z" />
    <glyph glyph-name="semicolon" unicode=";" horiz-adv-x="350" 
d="M45 -150l60 270h170l-120 -270h-110zM105 340v140h170v-140h-170z" />
    <glyph glyph-name="less" unicode="&#x3c;" horiz-adv-x="750" 
d="M60 190v100l630 210v-120l-420 -140l420 -140v-120z" />
    <glyph glyph-name="equal" unicode="=" horiz-adv-x="720" 
d="M60 60v120h600v-120h-600zM60 300v120h600v-120h-600z" />
    <glyph glyph-name="greater" unicode="&#x3e;" horiz-adv-x="750" 
d="M60 -20v120l420 140l-420 140v120l630 -210v-100z" />
    <glyph glyph-name="question" unicode="?" horiz-adv-x="910" 
d="M75 550v110h520c120 0 240 0 240 -135v-85c0 -135 -120 -135 -240 -135h-80c-30 0 -60 0 -60 -35v-50h-170v60c0 135 120 135 240 135h80c30 0 60 0 60 35v65c0 35 -30 35 -60 35h-530zM285 0v140h170v-140h-170z" />
    <glyph glyph-name="at" unicode="@" horiz-adv-x="1290" 
d="M75 -50v580c0 115 100 115 200 115h740c100 0 200 0 200 -115v-530h-680c-100 0 -200 0 -200 115v250c0 115 100 115 200 115h420v-385h130v425c0 55 -50 55 -100 55h-680c-50 0 -100 0 -100 -55v-560c0 -55 50 -55 100 -55h870v-70h-900c-100 0 -200 0 -200 115z
M495 125c0 -30 25 -30 50 -30h250v290h-250c-25 0 -50 0 -50 -30v-230z" />
    <glyph glyph-name="A" unicode="A" horiz-adv-x="930" 
d="M20 0l330 660h230l330 -660h-180l-95 190h-340l-95 -190h-180zM350 300h230l-115 230z" />
    <glyph glyph-name="B" unicode="B" horiz-adv-x="930" 
d="M70 0v660h540c120 0 240 0 240 -135v-60c0 -60 -40 -90 -80 -100c40 -10 90 -30 90 -100v-130c0 -135 -120 -135 -240 -135h-550zM240 110h390c30 0 60 0 60 35v125c0 35 -30 35 -60 35h-390v-195zM240 415h380c30 0 60 0 60 35v65c0 35 -30 35 -60 35h-380v-135z" />
    <glyph glyph-name="C" unicode="C" horiz-adv-x="880" 
d="M70 135v390c0 135 120 135 240 135h500v-110h-510c-30 0 -60 0 -60 -35v-370c0 -35 30 -35 60 -35h510v-110h-500c-120 0 -240 0 -240 135z" />
    <glyph glyph-name="D" unicode="D" horiz-adv-x="930" 
d="M70 0v660h430c180 0 360 -80 360 -305v-45c0 -225 -180 -310 -360 -310h-430zM240 110h210c120 0 240 40 240 200v45c0 160 -120 200 -240 200h-210v-445z" />
    <glyph glyph-name="E" unicode="E" horiz-adv-x="880" 
d="M70 0v660h740v-110h-570v-135h520v-110h-520v-195h570v-110h-740z" />
    <glyph glyph-name="F" unicode="F" horiz-adv-x="860" 
d="M70 0v660h740v-110h-570v-135h510v-110h-510v-305h-170z" />
    <glyph glyph-name="G" unicode="G" horiz-adv-x="930" 
d="M70 135v390c0 135 120 135 240 135h500v-110h-510c-30 0 -60 0 -60 -35v-370c0 -35 30 -35 60 -35h330c30 0 60 0 60 35v160h-150v110h320v-280c0 -135 -120 -135 -240 -135h-310c-120 0 -240 0 -240 135z" />
    <glyph glyph-name="H" unicode="H" horiz-adv-x="930" 
d="M70 0v660h170v-245h450v245h170v-660h-170v305h-450v-305h-170z" />
    <glyph glyph-name="I" unicode="I" horiz-adv-x="310" 
d="M70 0v660h170v-660h-170z" />
    <glyph glyph-name="J" unicode="J" horiz-adv-x="930" 
d="M70 135v120h170v-110c0 -35 30 -35 60 -35h330c30 0 60 0 60 35v515h170v-525c0 -135 -120 -135 -240 -135h-310c-120 0 -240 0 -240 135z" />
    <glyph glyph-name="K" unicode="K" horiz-adv-x="860" 
d="M70 0v660h170v-350l350 350h210l-310 -310l350 -350h-210l-245 245l-145 -145v-100h-170z" />
    <glyph glyph-name="L" unicode="L" horiz-adv-x="840" 
d="M70 0v660h170v-550h570v-110h-740z" />
    <glyph glyph-name="M" unicode="M" horiz-adv-x="1090" 
d="M70 0v660h225l250 -500l250 500h225v-660h-170v450l-225 -450h-160l-225 450v-450h-170z" />
    <glyph glyph-name="N" unicode="N" horiz-adv-x="930" 
d="M70 0v660h190l430 -470v470h170v-660h-190l-430 470v-470h-170z" />
    <glyph glyph-name="O" unicode="O" horiz-adv-x="930" 
d="M70 135v390c0 135 120 135 240 135h310c120 0 240 0 240 -135v-390c0 -135 -120 -135 -240 -135h-310c-120 0 -240 0 -240 135zM240 145c0 -35 30 -35 60 -35h330c30 0 60 0 60 35v370c0 35 -30 35 -60 35h-330c-30 0 -60 0 -60 -35v-370z" />
    <glyph glyph-name="P" unicode="P" horiz-adv-x="930" 
d="M70 0v660h550c120 0 240 0 240 -135v-140c0 -135 -120 -135 -240 -135h-380v-250h-170zM240 360h390c30 0 60 0 60 35v120c0 35 -30 35 -60 35h-390v-190z" />
    <glyph glyph-name="Q" unicode="Q" horiz-adv-x="930" 
d="M70 135v390c0 135 120 135 240 135h310c120 0 240 0 240 -135v-390c0 -135 -120 -135 -240 -135l150 -150h-200l-150 150h-110c-120 0 -240 0 -240 135zM240 145c0 -35 30 -35 60 -35h330c30 0 60 0 60 35v370c0 35 -30 35 -60 35h-330c-30 0 -60 0 -60 -35v-370z" />
    <glyph glyph-name="R" unicode="R" horiz-adv-x="930" 
d="M900 0h-210l-270 270h-180v-270h-170v660h550c120 0 240 0 240 -135v-120c0 -135 -120 -135 -230 -135zM240 380h390c30 0 60 0 60 35v100c0 35 -30 35 -60 35h-390v-170z" />
    <glyph glyph-name="S" unicode="S" horiz-adv-x="930" 
d="M70 0v110h560c30 0 60 0 60 35v125c0 35 -30 35 -60 35h-320c-120 0 -240 0 -240 135v85c0 135 120 135 240 135h500v-110h-510c-30 0 -60 0 -60 -35v-65c0 -35 30 -35 60 -35h320c120 0 240 0 240 -135v-145c0 -135 -120 -135 -240 -135h-550z" />
    <glyph glyph-name="T" unicode="T" horiz-adv-x="910" 
d="M30 550v110h850v-110h-340v-550h-170v550h-340z" />
    <glyph glyph-name="U" unicode="U" horiz-adv-x="930" 
d="M70 135v525h170v-515c0 -35 30 -35 60 -35h330c30 0 60 0 60 35v515h170v-525c0 -135 -120 -135 -240 -135h-310c-120 0 -240 0 -240 135z" />
    <glyph glyph-name="V" unicode="V" horiz-adv-x="930" 
d="M20 660h180l265 -530l265 530h180l-330 -660h-230z" />
    <glyph glyph-name="W" unicode="W" horiz-adv-x="1260" 
d="M20 660h175l165 -495l155 465h230l155 -465l165 495h175l-220 -660h-220l-170 510l-170 -510h-220z" />
    <glyph glyph-name="X" unicode="X" horiz-adv-x="910" 
d="M20 0l330 330l-330 330h210l225 -225l225 225h210l-330 -330l330 -330h-210l-225 225l-225 -225h-210z" />
    <glyph glyph-name="Y" unicode="Y" horiz-adv-x="910" 
d="M20 660h210l225 -225l225 225h210l-350 -350v-310h-170v310z" />
    <glyph glyph-name="Z" unicode="Z" horiz-adv-x="880" 
d="M50 0v110l525 440h-505v110h740v-110l-525 -440h545v-110h-780z" />
    <glyph glyph-name="bracketleft" unicode="[" horiz-adv-x="475" 
d="M75 -225v885h340v-95h-200v-695h200v-95h-340z" />
    <glyph glyph-name="backslash" unicode="\" horiz-adv-x="650" 
d="M60 660h150l380 -760h-150z" />
    <glyph glyph-name="bracketright" unicode="]" horiz-adv-x="475" 
d="M60 -130h200v695h-200v95h340v-885h-340v95z" />
    <glyph glyph-name="asciicircum" unicode="^" horiz-adv-x="620" 
d="M60 300l180 360h140l180 -360h-140l-110 220l-110 -220h-140z" />
    <glyph glyph-name="underscore" unicode="_" horiz-adv-x="680" 
d="M20 -130h640v-95h-640v95z" />
    <glyph glyph-name="grave" unicode="`" horiz-adv-x="500" 
d="M80 710h170l100 -160h-110z" />
    <glyph glyph-name="a" unicode="a" 
d="M60 115v70c0 115 100 115 200 115h260v55c0 30 -25 30 -50 30h-370v95h380c100 0 200 0 200 -115v-365h-420c-100 0 -200 0 -200 115zM220 125c0 -30 25 -30 50 -30h250v110h-250c-25 0 -50 0 -50 -30v-50z" />
    <glyph glyph-name="b" unicode="b" 
d="M60 0v660h160v-180h260c100 0 200 0 200 -115v-250c0 -115 -100 -115 -200 -115h-420zM220 95h250c25 0 50 0 50 30v230c0 30 -25 30 -50 30h-250v-290z" />
    <glyph glyph-name="c" unicode="c" horiz-adv-x="700" 
d="M60 115v250c0 115 100 115 200 115h380v-95h-370c-25 0 -50 0 -50 -30v-230c0 -30 25 -30 50 -30h370v-95h-380c-100 0 -200 0 -200 115z" />
    <glyph glyph-name="d" unicode="d" 
d="M60 115v250c0 115 100 115 200 115h260v180h160v-660h-420c-100 0 -200 0 -200 115zM220 125c0 -30 25 -30 50 -30h250v290h-250c-25 0 -50 0 -50 -30v-230z" />
    <glyph glyph-name="e" unicode="e" 
d="M60 115v250c0 115 100 115 200 115h220c100 0 200 0 200 -115v-160h-460v-80c0 -30 25 -30 50 -30h390v-95h-400c-100 0 -200 0 -200 115zM220 300h300v55c0 30 -25 30 -50 30h-200c-25 0 -50 0 -50 -30v-55z" />
    <glyph glyph-name="f" unicode="f" horiz-adv-x="480" 
d="M60 0v545c0 115 100 115 200 115h160v-95h-150c-25 0 -50 0 -50 -30v-55h200v-95h-200v-385h-160z" />
    <glyph glyph-name="g" unicode="g" 
d="M60 115v250c0 115 100 115 200 115h420v-605c0 -100 -100 -100 -200 -100h-400v95h390c25 0 50 0 50 25v105h-260c-100 0 -200 0 -200 115zM220 125c0 -30 25 -30 50 -30h250v290h-250c-25 0 -50 0 -50 -30v-230z" />
    <glyph glyph-name="h" unicode="h" 
d="M60 0v660h160v-180h260c100 0 200 0 200 -115v-365h-160v355c0 30 -25 30 -50 30h-250v-385h-160z" />
    <glyph glyph-name="i" unicode="i" horiz-adv-x="280" 
d="M60 0v480h160v-480h-160zM60 565v95h160v-95h-160z" />
    <glyph glyph-name="j" unicode="j" horiz-adv-x="280" 
d="M-50 -130c90 15 110 70 110 130v480h160v-480c0 -205 -180 -220 -270 -225v95zM60 565v95h160v-95h-160z" />
    <glyph glyph-name="k" unicode="k" horiz-adv-x="670" 
d="M60 0v660h160v-400l220 220h190l-230 -230l250 -250h-190l-155 155l-85 -85v-70h-160z" />
    <glyph glyph-name="l" unicode="l" horiz-adv-x="280" 
d="M60 0v660h160v-660h-160z" />
    <glyph glyph-name="m" unicode="m" horiz-adv-x="960" 
d="M60 0v480h640c100 0 200 0 200 -115v-365h-160v355c0 30 -25 30 -50 30h-130v-385h-160v355c0 30 -25 30 -50 30h-130v-385h-160z" />
    <glyph glyph-name="n" unicode="n" 
d="M60 0v480h420c100 0 200 0 200 -115v-365h-160v355c0 30 -25 30 -50 30h-250v-385h-160z" />
    <glyph glyph-name="o" unicode="o" 
d="M60 115v250c0 115 100 115 200 115h220c100 0 200 0 200 -115v-250c0 -115 -100 -115 -200 -115h-220c-100 0 -200 0 -200 115zM220 125c0 -30 25 -30 50 -30h200c25 0 50 0 50 30v230c0 30 -25 30 -50 30h-200c-25 0 -50 0 -50 -30v-230z" />
    <glyph glyph-name="p" unicode="p" 
d="M60 -225v705h420c100 0 200 0 200 -115v-250c0 -115 -100 -115 -200 -115h-260v-225h-160zM220 95h250c25 0 50 0 50 30v230c0 30 -25 30 -50 30h-250v-290z" />
    <glyph glyph-name="q" unicode="q" 
d="M60 115v250c0 115 100 115 200 115h420v-705h-160v225h-260c-100 0 -200 0 -200 115zM220 125c0 -30 25 -30 50 -30h250v290h-250c-25 0 -50 0 -50 -30v-230z" />
    <glyph glyph-name="r" unicode="r" horiz-adv-x="480" 
d="M60 0v365c0 115 100 115 200 115h160v-95h-150c-25 0 -50 0 -50 -30v-355h-160z" />
    <glyph glyph-name="s" unicode="s" 
d="M60 0v95h410c25 0 50 0 50 30v50c0 30 -25 30 -50 30h-210c-100 0 -200 0 -200 115v45c0 115 100 115 200 115h380v-95h-370c-25 0 -50 0 -50 -30v-25c0 -30 25 -30 50 -30h210c100 0 200 0 200 -115v-70c0 -115 -100 -115 -200 -115h-420z" />
    <glyph glyph-name="t" unicode="t" horiz-adv-x="480" 
d="M60 115v545h160v-180h200v-95h-200v-260c0 -30 25 -30 50 -30h150v-95h-160c-100 0 -200 0 -200 115z" />
    <glyph glyph-name="u" unicode="u" 
d="M60 115v365h160v-355c0 -30 25 -30 50 -30h200c25 0 50 0 50 30v355h160v-365c0 -115 -100 -115 -200 -115h-220c-100 0 -200 0 -200 115z" />
    <glyph glyph-name="v" unicode="v" horiz-adv-x="720" 
d="M20 480h170l170 -340l170 340h170l-240 -480h-200z" />
    <glyph glyph-name="w" unicode="w" horiz-adv-x="960" 
d="M20 480h160l110 -330l100 300h180l100 -300l110 330h160l-160 -480h-195l-105 315l-105 -315h-195z" />
    <glyph glyph-name="x" unicode="x" horiz-adv-x="710" 
d="M690 0h-190l-145 145l-145 -145h-190l240 240l-240 240h190l145 -145l145 145h190l-240 -240z" />
    <glyph glyph-name="y" unicode="y" horiz-adv-x="720" 
d="M20 480h170l170 -340l170 340h170l-300 -600c-30 -60 -55 -105 -150 -105h-170v95h100c45 0 50 10 65 40l30 60z" />
    <glyph glyph-name="z" unicode="z" horiz-adv-x="720" 
d="M50 0v105l390 280h-370v95h580v-105l-390 -280h410v-95h-620z" />
    <glyph glyph-name="braceleft" unicode="{" horiz-adv-x="645" 
d="M75 165v120l170 85v175c0 115 100 115 200 115h140v-95h-150c-25 0 -50 0 -50 -30v-220l-180 -90l180 -90v-235c0 -30 25 -30 50 -30h150v-95h-140c-100 0 -200 0 -200 115v190z" />
    <glyph glyph-name="bar" unicode="|" horiz-adv-x="340" 
d="M100 -225v885h140v-885h-140z" />
    <glyph glyph-name="braceright" unicode="}" horiz-adv-x="645" 
d="M60 -130h150c25 0 50 0 50 30v235l180 90l-180 90v220c0 30 -25 30 -50 30h-150v95h140c100 0 200 0 200 -115v-175l170 -85v-120l-170 -85v-190c0 -115 -100 -115 -200 -115h-140v95z" />
    <glyph glyph-name="asciitilde" unicode="~" horiz-adv-x="750" 
d="M210 210h-150c65 150 110 210 185 210c25 0 36 -5 65 -20l145 -75c6 -3 10 -3 15 -3c21 0 45 48 70 98h150c-65 -150 -110 -210 -185 -210c-25 0 -36 5 -65 20l-145 75c-6 3 -10 3 -15 3c-21 0 -45 -48 -70 -98z" />
    <glyph glyph-name="uni00A0" unicode="&#xa0;" horiz-adv-x="400" 
 />
    <glyph glyph-name="exclamdown" unicode="&#xa1;" horiz-adv-x="320" 
d="M75 215h170v-440h-170v440zM75 295v140h170v-140h-170z" />
    <glyph glyph-name="cent" unicode="&#xa2;" horiz-adv-x="700" 
d="M60 115v250c0 115 100 115 200 115h80v75h120v-75h180v-95h-180v-290h180v-95h-180v-75h-120v75h-80c-100 0 -200 0 -200 115zM220 125c0 -30 25 -30 50 -30h70v290h-70c-25 0 -50 0 -50 -30v-230z" />
    <glyph glyph-name="sterling" unicode="&#xa3;" horiz-adv-x="930" 
d="M70 0v110h100v200h-100v95h100v120c0 135 120 135 240 135h210c120 0 240 0 240 -135v-60h-170v50c0 35 -30 35 -60 35h-230c-30 0 -60 0 -60 -35v-110h250v-95h-250v-200h520v-110h-790z" />
    <glyph glyph-name="currency" unicode="&#xa4;" horiz-adv-x="840" 
d="M60 150l110 110v140l-110 110l100 100l110 -110h300l110 110l100 -100l-110 -110v-140l110 -110l-100 -100l-110 110h-300l-110 -110zM310 280c0 -25 20 -25 40 -25h140c20 0 40 0 40 25v100c0 25 -20 25 -40 25h-140c-20 0 -40 0 -40 -25v-100z" />
    <glyph glyph-name="yen" unicode="&#xa5;" horiz-adv-x="910" 
d="M20 660h210l225 -225l225 225h210l-335 -335h185v-95h-200v-60h200v-95h-200v-75h-170v75h-200v95h200v60h-200v95h185z" />
    <glyph glyph-name="brokenbar" unicode="&#xa6;" horiz-adv-x="340" 
d="M100 140h140v-365h-140v365zM100 300v360h140v-360h-140z" />
    <glyph glyph-name="section" unicode="&#xa7;" horiz-adv-x="880" 
d="M70 0h170v-30c0 -35 30 -35 60 -35h280c30 0 60 0 60 35v60c0 35 -30 35 -60 35h-270c-120 0 -240 0 -240 135v70c0 60 40 90 80 100c-40 10 -80 40 -80 100v55c0 135 120 135 240 135h260c120 0 240 0 240 -135v-40h-170v30c0 35 -30 35 -60 35h-280
c-30 0 -60 0 -60 -35v-60c0 -35 30 -35 60 -35h270c120 0 240 0 240 -135v-65c0 -60 -40 -90 -80 -100c40 -10 80 -40 80 -100v-60c0 -135 -120 -135 -240 -135h-260c-120 0 -240 0 -240 135v40zM240 210c0 -35 30 -35 60 -35h280c30 0 60 0 60 35v65c0 35 -30 35 -60 35
h-280c-30 0 -60 0 -60 -35v-65z" />
    <glyph glyph-name="dieresis" unicode="&#xa8;" horiz-adv-x="500" 
d="M60 575v110h135v-110h-135zM305 575v110h135v-110h-135z" />
    <glyph glyph-name="copyright" unicode="&#xa9;" horiz-adv-x="1030" 
d="M60 115v430c0 115 100 115 200 115h510c100 0 200 0 200 -115v-430c0 -115 -100 -115 -200 -115h-510c-100 0 -200 0 -200 115zM190 125c0 -55 50 -55 100 -55h450c50 0 100 0 100 55v410c0 55 -50 55 -100 55h-450c-50 0 -100 0 -100 -55v-410zM310 250v160
c0 90 80 90 160 90h250v-70h-240c-20 0 -40 0 -40 -25v-150c0 -25 20 -25 40 -25h240v-70h-250c-80 0 -160 0 -160 90z" />
    <glyph glyph-name="ordfeminine" unicode="&#xaa;" horiz-adv-x="560" 
d="M60 175v70h440v-70h-440zM60 410v35c0 90 80 90 160 90h150v30c0 25 -20 25 -40 25h-230v70h240c80 0 160 0 160 -90v-250h-280c-80 0 -160 0 -160 90zM190 415c0 -25 20 -25 40 -25h140v75h-140c-20 0 -40 0 -40 -25v-25z" />
    <glyph glyph-name="guillemotleft" unicode="&#xab;" horiz-adv-x="790" 
d="M380 240l200 200h150l-180 -200l180 -200h-150zM60 240l200 200h150l-180 -200l180 -200h-150z" />
    <glyph glyph-name="logicalnot" unicode="&#xac;" horiz-adv-x="680" 
d="M60 280v120h560v-320h-140v200h-420z" />
    <glyph glyph-name="uni00AD" unicode="&#xad;" horiz-adv-x="540" 
d="M60 180v120h420v-120h-420z" />
    <glyph glyph-name="registered" unicode="&#xae;" horiz-adv-x="1060" 
d="M60 115v430c0 115 100 115 200 115h540c100 0 200 0 200 -115v-430c0 -115 -100 -115 -200 -115h-540c-100 0 -200 0 -200 115zM190 125c0 -55 50 -55 100 -55h480c50 0 100 0 100 55v410c0 55 -50 55 -100 55h-480c-50 0 -100 0 -100 -55v-410zM310 160v340h280
c80 0 160 0 160 -90v-25c0 -80 -65 -90 -125 -90l135 -135h-140l-135 135h-45v-135h-130zM440 365h140c20 0 40 0 40 25v15c0 25 -20 25 -40 25h-140v-65z" />
    <glyph glyph-name="macron" unicode="&#xaf;" horiz-adv-x="500" 
d="M70 575v95h360v-95h-360z" />
    <glyph glyph-name="degree" unicode="&#xb0;" horiz-adv-x="560" 
d="M60 480v90c0 90 80 90 160 90h120c80 0 160 0 160 -90v-90c0 -90 -80 -90 -160 -90h-120c-80 0 -160 0 -160 90zM190 485c0 -25 20 -25 40 -25h100c20 0 40 0 40 25v80c0 25 -20 25 -40 25h-100c-20 0 -40 0 -40 -25v-80z" />
    <glyph glyph-name="plusminus" unicode="&#xb1;" horiz-adv-x="720" 
d="M60 0v120h600v-120h-600zM60 300v120h215v130h170v-130h215v-120h-215v-130h-170v130h-215z" />
    <glyph glyph-name="uni00B2" unicode="&#xb2;" horiz-adv-x="560" 
d="M60 320v125c0 90 90 90 170 90h100c20 0 40 0 40 25v5c0 25 -20 25 -40 25h-250v70h260c80 0 160 0 160 -90v-15c0 -90 -80 -90 -160 -90h-110c-20 0 -40 0 -40 -25v-50h310v-70h-440z" />
    <glyph glyph-name="uni00B3" unicode="&#xb3;" horiz-adv-x="560" 
d="M60 320v70h270c20 0 40 0 40 25v25c0 25 -20 25 -40 25h-210v70h210c20 0 40 0 40 25v5c0 25 -20 25 -40 25h-270v70h280c80 0 160 0 160 -90c0 -45 -40 -60 -60 -65c20 -5 60 -20 60 -65v-30c0 -90 -80 -90 -160 -90h-280z" />
    <glyph glyph-name="acute" unicode="&#xb4;" horiz-adv-x="500" 
d="M150 550l100 160h170l-160 -160h-110z" />
    <glyph glyph-name="uni00B5" unicode="&#xb5;" 
d="M60 -225v705h160v-360c0 -25 25 -25 50 -25h200c25 0 50 0 50 30v355h160v-365c0 -115 -100 -115 -200 -115h-260v-225h-160z" />
    <glyph glyph-name="paragraph" unicode="&#xb6;" horiz-adv-x="750" 
d="M60 430v60c0 130 104 170 230 170h400v-885h-140v790h-120v-790h-140v485c-132 0 -230 40 -230 170z" />
    <glyph glyph-name="periodcentered" unicode="&#xb7;" horiz-adv-x="320" 
d="M75 170v140h170v-140h-170z" />
    <glyph glyph-name="cedilla" unicode="&#xb8;" horiz-adv-x="500" 
d="M150 -155h30c40 0 70 10 70 40c0 20 -10 40 -85 115h115c70 -70 90 -95 90 -135c0 -80 -80 -90 -160 -90h-60v70z" />
    <glyph glyph-name="uni00B9" unicode="&#xb9;" horiz-adv-x="350" 
d="M60 580v80h230v-340h-130v260h-100z" />
    <glyph glyph-name="ordmasculine" unicode="&#xba;" horiz-adv-x="560" 
d="M60 175v70h440v-70h-440zM60 410v160c0 90 80 90 160 90h120c80 0 160 0 160 -90v-160c0 -90 -80 -90 -160 -90h-120c-80 0 -160 0 -160 90zM190 415c0 -25 20 -25 40 -25h100c20 0 40 0 40 25v150c0 25 -20 25 -40 25h-100c-20 0 -40 0 -40 -25v-150z" />
    <glyph glyph-name="guillemotright" unicode="&#xbb;" horiz-adv-x="790" 
d="M380 40l180 200l-180 200h150l200 -200l-200 -200h-150zM60 40l180 200l-180 200h150l200 -200l-200 -200h-150z" />
    <glyph glyph-name="onequarter" unicode="&#xbc;" horiz-adv-x="1030" 
d="M530 60v70l270 210h170v-340h-130v60h-310zM669 130h171v133zM220 0l330 660h140l-330 -660h-140zM60 580v80h230v-340h-130v260h-100z" />
    <glyph glyph-name="onehalf" unicode="&#xbd;" horiz-adv-x="1070" 
d="M570 0v125c0 90 90 90 170 90h100c20 0 40 0 40 25v5c0 25 -20 25 -40 25h-250v70h260c80 0 160 0 160 -90v-15c0 -90 -80 -90 -160 -90h-110c-20 0 -40 0 -40 -25v-50h310v-70h-440zM220 0l330 660h140l-330 -660h-140zM60 580v80h230v-340h-130v260h-100z" />
    <glyph glyph-name="threequarters" unicode="&#xbe;" horiz-adv-x="1190" 
d="M690 60v70l270 210h170v-340h-130v60h-310zM829 130h171v133zM60 320v70h270c20 0 40 0 40 25v25c0 25 -20 25 -40 25h-210v70h210c20 0 40 0 40 25v5c0 25 -20 25 -40 25h-270v70h280c80 0 160 0 160 -90c0 -45 -40 -60 -60 -65c20 -5 60 -20 60 -65v-30
c0 -90 -80 -90 -160 -90h-280zM380 0l330 660h140l-330 -660h-140z" />
    <glyph glyph-name="questiondown" unicode="&#xbf;" horiz-adv-x="910" 
d="M835 -115v-110h-520c-120 0 -240 0 -240 135v85c0 135 120 135 240 135h80c30 0 60 0 60 35v50h170v-60c0 -135 -120 -135 -240 -135h-80c-30 0 -60 0 -60 -35v-65c0 -35 30 -35 60 -35h530zM625 435v-140h-170v140h170z" />
    <glyph glyph-name="Agrave" unicode="&#xc0;" horiz-adv-x="930" 
d="M295 890h170l100 -160h-110zM20 0l330 660h230l330 -660h-180l-95 190h-340l-95 -190h-180zM350 300h230l-115 230z" />
    <glyph glyph-name="Aacute" unicode="&#xc1;" horiz-adv-x="930" 
d="M365 730l100 160h170l-160 -160h-110zM20 0l330 660h230l330 -660h-180l-95 190h-340l-95 -190h-180zM350 300h230l-115 230z" />
    <glyph glyph-name="Acircumflex" unicode="&#xc2;" horiz-adv-x="930" 
d="M255 730l150 160h120l150 -160h-120l-90 90l-90 -90h-120zM20 0l330 660h230l330 -660h-180l-95 190h-340l-95 -190h-180zM350 300h230l-115 230z" />
    <glyph glyph-name="Atilde" unicode="&#xc3;" horiz-adv-x="930" 
d="M370 880c25 0 35 0 95 -30c40 -20 60 -30 70 -30c15 0 25 0 40 60h100c-25 -105 -75 -140 -115 -140c-25 0 -35 0 -95 30c-40 20 -60 30 -70 30c-15 0 -25 0 -40 -60h-100c25 105 75 140 115 140zM20 0l330 660h230l330 -660h-180l-95 190h-340l-95 -190h-180zM350 300
h230l-115 230z" />
    <glyph glyph-name="Adieresis" unicode="&#xc4;" horiz-adv-x="930" 
d="M275 755v110h135v-110h-135zM520 755v110h135v-110h-135zM20 0l330 660h230l330 -660h-180l-95 190h-340l-95 -190h-180zM350 300h230l-115 230z" />
    <glyph glyph-name="Aring" unicode="&#xc5;" horiz-adv-x="930" 
d="M280 745v60c0 57 40 85 120 85h130c80 0 120 -28 120 -85v-60c0 -57 -40 -85 -120 -85h-130c-80 0 -120 28 -120 85zM390 745c0 -13 10 -20 30 -20h90c20 0 30 7 30 20v60c0 13 -10 20 -30 20h-90c-20 0 -30 -7 -30 -20v-60zM20 0l330 660h230l330 -660h-180l-95 190
h-340l-95 -190h-180zM350 300h230l-115 230z" />
    <glyph glyph-name="AE" unicode="&#xc6;" horiz-adv-x="1350" 
d="M20 0l330 660h930v-110h-520v-135h470v-110h-470v-195h520v-110h-690v190h-305l-95 -190h-170zM340 300h250v250h-125z" />
    <glyph glyph-name="Ccedilla" unicode="&#xc7;" horiz-adv-x="880" 
d="M380 -155h30c40 0 70 10 70 40c0 20 -10 40 -85 115h115c70 -70 90 -95 90 -135c0 -80 -80 -90 -160 -90h-60v70zM70 135v390c0 135 120 135 240 135h500v-110h-510c-30 0 -60 0 -60 -35v-370c0 -35 30 -35 60 -35h510v-110h-500c-120 0 -240 0 -240 135z" />
    <glyph glyph-name="Egrave" unicode="&#xc8;" horiz-adv-x="880" 
d="M270 890h170l100 -160h-110zM70 0v660h740v-110h-570v-135h520v-110h-520v-195h570v-110h-740z" />
    <glyph glyph-name="Eacute" unicode="&#xc9;" horiz-adv-x="880" 
d="M340 730l100 160h170l-160 -160h-110zM70 0v660h740v-110h-570v-135h520v-110h-520v-195h570v-110h-740z" />
    <glyph glyph-name="Ecircumflex" unicode="&#xca;" horiz-adv-x="880" 
d="M230 730l150 160h120l150 -160h-120l-90 90l-90 -90h-120zM70 0v660h740v-110h-570v-135h520v-110h-520v-195h570v-110h-740z" />
    <glyph glyph-name="Edieresis" unicode="&#xcb;" horiz-adv-x="880" 
d="M250 755v110h135v-110h-135zM495 755v110h135v-110h-135zM70 0v660h740v-110h-570v-135h520v-110h-520v-195h570v-110h-740z" />
    <glyph glyph-name="Igrave" unicode="&#xcc;" horiz-adv-x="310" 
d="M-10 890h170l100 -160h-110zM70 0v660h170v-660h-170z" />
    <glyph glyph-name="Iacute" unicode="&#xcd;" horiz-adv-x="310" 
d="M50 730l100 160h170l-160 -160h-110zM70 0v660h170v-660h-170z" />
    <glyph glyph-name="Icircumflex" unicode="&#xce;" horiz-adv-x="340" 
d="M-40 730l150 160h120l150 -160h-120l-90 90l-90 -90h-120zM85 0v660h170v-660h-170z" />
    <glyph glyph-name="Idieresis" unicode="&#xcf;" horiz-adv-x="340" 
d="M-20 755v110h135v-110h-135zM225 755v110h135v-110h-135zM85 0v660h170v-660h-170z" />
    <glyph glyph-name="Eth" unicode="&#xd0;" horiz-adv-x="960" 
d="M270 110h210c120 0 240 40 240 200v45c0 160 -120 200 -240 200h-210v-145h225v-95h-225v-205zM100 315h-80v95h80v250h430c180 0 360 -80 360 -305v-45c0 -225 -180 -310 -360 -310h-430v315z" />
    <glyph glyph-name="Ntilde" unicode="&#xd1;" horiz-adv-x="930" 
d="M370 880c25 0 35 0 95 -30c40 -20 60 -30 70 -30c15 0 25 0 40 60h100c-25 -105 -75 -140 -115 -140c-25 0 -35 0 -95 30c-40 20 -60 30 -70 30c-15 0 -25 0 -40 -60h-100c25 105 75 140 115 140zM70 0v660h190l430 -470v470h170v-660h-190l-430 470v-470h-170z" />
    <glyph glyph-name="Ograve" unicode="&#xd2;" horiz-adv-x="930" 
d="M295 890h170l100 -160h-110zM70 135v390c0 135 120 135 240 135h310c120 0 240 0 240 -135v-390c0 -135 -120 -135 -240 -135h-310c-120 0 -240 0 -240 135zM240 145c0 -35 30 -35 60 -35h330c30 0 60 0 60 35v370c0 35 -30 35 -60 35h-330c-30 0 -60 0 -60 -35v-370z
" />
    <glyph glyph-name="Oacute" unicode="&#xd3;" horiz-adv-x="930" 
d="M365 730l100 160h170l-160 -160h-110zM70 135v390c0 135 120 135 240 135h310c120 0 240 0 240 -135v-390c0 -135 -120 -135 -240 -135h-310c-120 0 -240 0 -240 135zM240 145c0 -35 30 -35 60 -35h330c30 0 60 0 60 35v370c0 35 -30 35 -60 35h-330c-30 0 -60 0 -60 -35
v-370z" />
    <glyph glyph-name="Ocircumflex" unicode="&#xd4;" horiz-adv-x="930" 
d="M255 730l150 160h120l150 -160h-120l-90 90l-90 -90h-120zM70 135v390c0 135 120 135 240 135h310c120 0 240 0 240 -135v-390c0 -135 -120 -135 -240 -135h-310c-120 0 -240 0 -240 135zM240 145c0 -35 30 -35 60 -35h330c30 0 60 0 60 35v370c0 35 -30 35 -60 35h-330
c-30 0 -60 0 -60 -35v-370z" />
    <glyph glyph-name="Otilde" unicode="&#xd5;" horiz-adv-x="930" 
d="M370 880c25 0 35 0 95 -30c40 -20 60 -30 70 -30c15 0 25 0 40 60h100c-25 -105 -75 -140 -115 -140c-25 0 -35 0 -95 30c-40 20 -60 30 -70 30c-15 0 -25 0 -40 -60h-100c25 105 75 140 115 140zM70 135v390c0 135 120 135 240 135h310c120 0 240 0 240 -135v-390
c0 -135 -120 -135 -240 -135h-310c-120 0 -240 0 -240 135zM240 145c0 -35 30 -35 60 -35h330c30 0 60 0 60 35v370c0 35 -30 35 -60 35h-330c-30 0 -60 0 -60 -35v-370z" />
    <glyph glyph-name="Odieresis" unicode="&#xd6;" horiz-adv-x="930" 
d="M275 755v110h135v-110h-135zM520 755v110h135v-110h-135zM70 135v390c0 135 120 135 240 135h310c120 0 240 0 240 -135v-390c0 -135 -120 -135 -240 -135h-310c-120 0 -240 0 -240 135zM240 145c0 -35 30 -35 60 -35h330c30 0 60 0 60 35v370c0 35 -30 35 -60 35h-330
c-30 0 -60 0 -60 -35v-370z" />
    <glyph glyph-name="multiply" unicode="&#xd7;" horiz-adv-x="600" 
d="M60 100l140 140l-140 140l100 100l140 -140l140 140l100 -100l-140 -140l140 -140l-100 -100l-140 140l-140 -140z" />
    <glyph glyph-name="Oslash" unicode="&#xd8;" horiz-adv-x="1030" 
d="M20 100v105l100 35v285c0 135 120 135 240 135h310c120 0 240 0 240 -135l100 35v-105l-100 -35v-285c0 -135 -120 -135 -240 -135h-310c-120 0 -240 0 -240 135zM290 145c0 -35 30 -35 60 -35h330c30 0 60 0 60 35v212l-450 -160v-52zM290 302l450 160v53
c0 35 -30 35 -60 35h-330c-30 0 -60 0 -60 -35v-213z" />
    <glyph glyph-name="Ugrave" unicode="&#xd9;" horiz-adv-x="930" 
d="M295 890h170l100 -160h-110zM70 135v525h170v-515c0 -35 30 -35 60 -35h330c30 0 60 0 60 35v515h170v-525c0 -135 -120 -135 -240 -135h-310c-120 0 -240 0 -240 135z" />
    <glyph glyph-name="Uacute" unicode="&#xda;" horiz-adv-x="930" 
d="M365 730l100 160h170l-160 -160h-110zM70 135v525h170v-515c0 -35 30 -35 60 -35h330c30 0 60 0 60 35v515h170v-525c0 -135 -120 -135 -240 -135h-310c-120 0 -240 0 -240 135z" />
    <glyph glyph-name="Ucircumflex" unicode="&#xdb;" horiz-adv-x="930" 
d="M255 730l150 160h120l150 -160h-120l-90 90l-90 -90h-120zM70 135v525h170v-515c0 -35 30 -35 60 -35h330c30 0 60 0 60 35v515h170v-525c0 -135 -120 -135 -240 -135h-310c-120 0 -240 0 -240 135z" />
    <glyph glyph-name="Udieresis" unicode="&#xdc;" horiz-adv-x="930" 
d="M275 755v110h135v-110h-135zM520 755v110h135v-110h-135zM70 135v525h170v-515c0 -35 30 -35 60 -35h330c30 0 60 0 60 35v515h170v-525c0 -135 -120 -135 -240 -135h-310c-120 0 -240 0 -240 135z" />
    <glyph glyph-name="Yacute" unicode="&#xdd;" horiz-adv-x="910" 
d="M355 730l100 160h170l-160 -160h-110zM20 660h210l225 -225l225 225h210l-350 -350v-310h-170v310z" />
    <glyph glyph-name="Thorn" unicode="&#xde;" horiz-adv-x="930" 
d="M70 0v660h170v-125h380c120 0 240 0 240 -135v-140c0 -135 -120 -135 -240 -135h-380v-125h-170zM240 235h390c30 0 60 0 60 35v120c0 35 -30 35 -60 35h-390v-190z" />
    <glyph glyph-name="germandbls" unicode="&#xdf;" 
d="M60 0v545c0 115 100 115 200 115h180c100 0 200 0 200 -115v-95c0 -65 -30 -85 -70 -90c40 -5 110 -15 110 -105v-140c0 -115 -100 -115 -200 -115h-140v95h130c25 0 50 0 50 30v150c0 30 -25 30 -50 30h-130v95h90c25 0 50 0 50 30v105c0 30 -25 30 -50 30h-160
c-25 0 -50 0 -50 -30v-535h-160z" />
    <glyph glyph-name="agrave" unicode="&#xe0;" 
d="M200 710h170l100 -160h-110zM60 115v70c0 115 100 115 200 115h260v55c0 30 -25 30 -50 30h-370v95h380c100 0 200 0 200 -115v-365h-420c-100 0 -200 0 -200 115zM220 125c0 -30 25 -30 50 -30h250v110h-250c-25 0 -50 0 -50 -30v-50z" />
    <glyph glyph-name="aacute" unicode="&#xe1;" 
d="M270 550l100 160h170l-160 -160h-110zM60 115v70c0 115 100 115 200 115h260v55c0 30 -25 30 -50 30h-370v95h380c100 0 200 0 200 -115v-365h-420c-100 0 -200 0 -200 115zM220 125c0 -30 25 -30 50 -30h250v110h-250c-25 0 -50 0 -50 -30v-50z" />
    <glyph glyph-name="acircumflex" unicode="&#xe2;" 
d="M160 550l150 160h120l150 -160h-120l-90 90l-90 -90h-120zM60 115v70c0 115 100 115 200 115h260v55c0 30 -25 30 -50 30h-370v95h380c100 0 200 0 200 -115v-365h-420c-100 0 -200 0 -200 115zM220 125c0 -30 25 -30 50 -30h250v110h-250c-25 0 -50 0 -50 -30v-50z" />
    <glyph glyph-name="atilde" unicode="&#xe3;" 
d="M275 700c25 0 35 0 95 -30c40 -20 60 -30 70 -30c15 0 25 0 40 60h100c-25 -105 -75 -140 -115 -140c-25 0 -35 0 -95 30c-40 20 -60 30 -70 30c-15 0 -25 0 -40 -60h-100c25 105 75 140 115 140zM60 115v70c0 115 100 115 200 115h260v55c0 30 -25 30 -50 30h-370v95
h380c100 0 200 0 200 -115v-365h-420c-100 0 -200 0 -200 115zM220 125c0 -30 25 -30 50 -30h250v110h-250c-25 0 -50 0 -50 -30v-50z" />
    <glyph glyph-name="adieresis" unicode="&#xe4;" 
d="M180 575v110h135v-110h-135zM425 575v110h135v-110h-135zM60 115v70c0 115 100 115 200 115h260v55c0 30 -25 30 -50 30h-370v95h380c100 0 200 0 200 -115v-365h-420c-100 0 -200 0 -200 115zM220 125c0 -30 25 -30 50 -30h250v110h-250c-25 0 -50 0 -50 -30v-50z" />
    <glyph glyph-name="aring" unicode="&#xe5;" 
d="M185 635v60c0 57 40 85 120 85h130c80 0 120 -28 120 -85v-60c0 -57 -40 -85 -120 -85h-130c-80 0 -120 28 -120 85zM295 635c0 -13 10 -20 30 -20h90c20 0 30 7 30 20v60c0 13 -10 20 -30 20h-90c-20 0 -30 -7 -30 -20v-60zM60 115v70c0 115 100 115 200 115h260v55
c0 30 -25 30 -50 30h-370v95h380c100 0 200 0 200 -115v-365h-420c-100 0 -200 0 -200 115zM220 125c0 -30 25 -30 50 -30h250v110h-250c-25 0 -50 0 -50 -30v-50z" />
    <glyph glyph-name="ae" unicode="&#xe6;" horiz-adv-x="1200" 
d="M60 115v70c0 115 100 115 200 115h260v55c0 30 -25 30 -50 30h-370v95h840c100 0 200 0 200 -115v-160h-460v-80c0 -30 25 -30 50 -30h390v-95h-860c-100 0 -200 0 -200 115zM220 125c0 -30 25 -30 50 -30h250v110h-250c-25 0 -50 0 -50 -30v-50zM680 300h300v55
c0 30 -25 30 -50 30h-200c-25 0 -50 0 -50 -30v-55z" />
    <glyph glyph-name="ccedilla" unicode="&#xe7;" horiz-adv-x="700" 
d="M290 -155h30c40 0 70 10 70 40c0 20 -10 40 -85 115h115c70 -70 90 -95 90 -135c0 -80 -80 -90 -160 -90h-60v70zM60 115v250c0 115 100 115 200 115h380v-95h-370c-25 0 -50 0 -50 -30v-230c0 -30 25 -30 50 -30h370v-95h-380c-100 0 -200 0 -200 115z" />
    <glyph glyph-name="egrave" unicode="&#xe8;" 
d="M200 710h170l100 -160h-110zM60 115v250c0 115 100 115 200 115h220c100 0 200 0 200 -115v-160h-460v-80c0 -30 25 -30 50 -30h390v-95h-400c-100 0 -200 0 -200 115zM220 300h300v55c0 30 -25 30 -50 30h-200c-25 0 -50 0 -50 -30v-55z" />
    <glyph glyph-name="eacute" unicode="&#xe9;" 
d="M270 550l100 160h170l-160 -160h-110zM60 115v250c0 115 100 115 200 115h220c100 0 200 0 200 -115v-160h-460v-80c0 -30 25 -30 50 -30h390v-95h-400c-100 0 -200 0 -200 115zM220 300h300v55c0 30 -25 30 -50 30h-200c-25 0 -50 0 -50 -30v-55z" />
    <glyph glyph-name="ecircumflex" unicode="&#xea;" 
d="M160 550l150 160h120l150 -160h-120l-90 90l-90 -90h-120zM60 115v250c0 115 100 115 200 115h220c100 0 200 0 200 -115v-160h-460v-80c0 -30 25 -30 50 -30h390v-95h-400c-100 0 -200 0 -200 115zM220 300h300v55c0 30 -25 30 -50 30h-200c-25 0 -50 0 -50 -30v-55z
" />
    <glyph glyph-name="edieresis" unicode="&#xeb;" 
d="M180 575v110h135v-110h-135zM425 575v110h135v-110h-135zM60 115v250c0 115 100 115 200 115h220c100 0 200 0 200 -115v-160h-460v-80c0 -30 25 -30 50 -30h390v-95h-400c-100 0 -200 0 -200 115zM220 300h300v55c0 30 -25 30 -50 30h-200c-25 0 -50 0 -50 -30v-55z" />
    <glyph glyph-name="igrave" unicode="&#xec;" horiz-adv-x="310" 
d="M-10 710h170l100 -160h-110zM75 0v480h160v-480h-160z" />
    <glyph glyph-name="iacute" unicode="&#xed;" horiz-adv-x="310" 
d="M50 550l100 160h170l-160 -160h-110zM75 0v480h160v-480h-160z" />
    <glyph glyph-name="icircumflex" unicode="&#xee;" horiz-adv-x="340" 
d="M-40 550l150 160h120l150 -160h-120l-90 90l-90 -90h-120zM90 0v480h160v-480h-160z" />
    <glyph glyph-name="idieresis" unicode="&#xef;" horiz-adv-x="340" 
d="M-20 575v110h135v-110h-135zM225 575v110h135v-110h-135zM90 0v480h160v-480h-160z" />
    <glyph glyph-name="eth" unicode="&#xf0;" 
d="M60 115v145c0 115 100 115 200 115h200c20 0 37 0 37 15c0 10 -6 23 -12 35l-25 50l-110 -55l-35 70l110 55l-60 115h170l25 -45l80 40l35 -70l-80 -40l45 -90c40 -80 40 -155 40 -235v-105c0 -115 -100 -115 -200 -115h-220c-100 0 -200 0 -200 115zM220 105
c0 -30 25 -30 50 -30h200c25 0 50 0 50 30v165c0 25 -25 30 -50 30h-200c-25 0 -50 0 -50 -30v-165z" />
    <glyph glyph-name="ntilde" unicode="&#xf1;" 
d="M275 700c25 0 35 0 95 -30c40 -20 60 -30 70 -30c15 0 25 0 40 60h100c-25 -105 -75 -140 -115 -140c-25 0 -35 0 -95 30c-40 20 -60 30 -70 30c-15 0 -25 0 -40 -60h-100c25 105 75 140 115 140zM60 0v480h420c100 0 200 0 200 -115v-365h-160v355c0 30 -25 30 -50 30
h-250v-385h-160z" />
    <glyph glyph-name="ograve" unicode="&#xf2;" 
d="M200 710h170l100 -160h-110zM60 115v250c0 115 100 115 200 115h220c100 0 200 0 200 -115v-250c0 -115 -100 -115 -200 -115h-220c-100 0 -200 0 -200 115zM220 125c0 -30 25 -30 50 -30h200c25 0 50 0 50 30v230c0 30 -25 30 -50 30h-200c-25 0 -50 0 -50 -30v-230z
" />
    <glyph glyph-name="oacute" unicode="&#xf3;" 
d="M270 550l100 160h170l-160 -160h-110zM60 115v250c0 115 100 115 200 115h220c100 0 200 0 200 -115v-250c0 -115 -100 -115 -200 -115h-220c-100 0 -200 0 -200 115zM220 125c0 -30 25 -30 50 -30h200c25 0 50 0 50 30v230c0 30 -25 30 -50 30h-200c-25 0 -50 0 -50 -30
v-230z" />
    <glyph glyph-name="ocircumflex" unicode="&#xf4;" 
d="M160 550l150 160h120l150 -160h-120l-90 90l-90 -90h-120zM60 115v250c0 115 100 115 200 115h220c100 0 200 0 200 -115v-250c0 -115 -100 -115 -200 -115h-220c-100 0 -200 0 -200 115zM220 125c0 -30 25 -30 50 -30h200c25 0 50 0 50 30v230c0 30 -25 30 -50 30h-200
c-25 0 -50 0 -50 -30v-230z" />
    <glyph glyph-name="otilde" unicode="&#xf5;" 
d="M275 700c25 0 35 0 95 -30c40 -20 60 -30 70 -30c15 0 25 0 40 60h100c-25 -105 -75 -140 -115 -140c-25 0 -35 0 -95 30c-40 20 -60 30 -70 30c-15 0 -25 0 -40 -60h-100c25 105 75 140 115 140zM60 115v250c0 115 100 115 200 115h220c100 0 200 0 200 -115v-250
c0 -115 -100 -115 -200 -115h-220c-100 0 -200 0 -200 115zM220 125c0 -30 25 -30 50 -30h200c25 0 50 0 50 30v230c0 30 -25 30 -50 30h-200c-25 0 -50 0 -50 -30v-230z" />
    <glyph glyph-name="odieresis" unicode="&#xf6;" 
d="M180 575v110h135v-110h-135zM425 575v110h135v-110h-135zM60 115v250c0 115 100 115 200 115h220c100 0 200 0 200 -115v-250c0 -115 -100 -115 -200 -115h-220c-100 0 -200 0 -200 115zM220 125c0 -30 25 -30 50 -30h200c25 0 50 0 50 30v230c0 30 -25 30 -50 30h-200
c-25 0 -50 0 -50 -30v-230z" />
    <glyph glyph-name="divide" unicode="&#xf7;" horiz-adv-x="720" 
d="M60 180v120h600v-120h-600zM275 0v120h170v-120h-170zM275 360v120h170v-120h-170z" />
    <glyph glyph-name="oslash" unicode="&#xf8;" horiz-adv-x="820" 
d="M20 94v85l80 21v165c0 115 100 115 200 115h220c100 0 200 0 200 -115l80 21v-85l-80 -21v-165c0 -115 -100 -115 -200 -115h-220c-100 0 -200 0 -200 115zM260 125c0 -30 25 -30 50 -30h200c25 0 50 0 50 30v112l-300 -79v-33zM260 243l300 79v33c0 30 -25 30 -50 30
h-200c-25 0 -50 0 -50 -30v-112z" />
    <glyph glyph-name="ugrave" unicode="&#xf9;" 
d="M200 710h170l100 -160h-110zM60 115v365h160v-355c0 -30 25 -30 50 -30h200c25 0 50 0 50 30v355h160v-365c0 -115 -100 -115 -200 -115h-220c-100 0 -200 0 -200 115z" />
    <glyph glyph-name="uacute" unicode="&#xfa;" 
d="M270 550l100 160h170l-160 -160h-110zM60 115v365h160v-355c0 -30 25 -30 50 -30h200c25 0 50 0 50 30v355h160v-365c0 -115 -100 -115 -200 -115h-220c-100 0 -200 0 -200 115z" />
    <glyph glyph-name="ucircumflex" unicode="&#xfb;" 
d="M160 550l150 160h120l150 -160h-120l-90 90l-90 -90h-120zM60 115v365h160v-355c0 -30 25 -30 50 -30h200c25 0 50 0 50 30v355h160v-365c0 -115 -100 -115 -200 -115h-220c-100 0 -200 0 -200 115z" />
    <glyph glyph-name="udieresis" unicode="&#xfc;" 
d="M180 575v110h135v-110h-135zM425 575v110h135v-110h-135zM60 115v365h160v-355c0 -30 25 -30 50 -30h200c25 0 50 0 50 30v355h160v-365c0 -115 -100 -115 -200 -115h-220c-100 0 -200 0 -200 115z" />
    <glyph glyph-name="yacute" unicode="&#xfd;" horiz-adv-x="720" 
d="M260 550l100 160h170l-160 -160h-110zM20 480h170l170 -340l170 340h170l-300 -600c-30 -60 -55 -105 -150 -105h-170v95h100c45 0 50 10 65 40l30 60z" />
    <glyph glyph-name="thorn" unicode="&#xfe;" 
d="M60 -225v885h160v-180h260c100 0 200 0 200 -115v-250c0 -115 -100 -115 -200 -115h-260v-225h-160zM220 95h250c25 0 50 0 50 30v230c0 30 -25 30 -50 30h-250v-290z" />
    <glyph glyph-name="ydieresis" unicode="&#xff;" horiz-adv-x="720" 
d="M170 575v110h135v-110h-135zM415 575v110h135v-110h-135zM20 480h170l170 -340l170 340h170l-300 -600c-30 -60 -55 -105 -150 -105h-170v95h100c45 0 50 10 65 40l30 60z" />
    <glyph glyph-name="Amacron" unicode="&#x100;" horiz-adv-x="930" 
d="M285 755v95h360v-95h-360zM20 0l330 660h230l330 -660h-180l-95 190h-340l-95 -190h-180zM350 300h230l-115 230z" />
    <glyph glyph-name="amacron" unicode="&#x101;" 
d="M190 575v95h360v-95h-360zM60 115v70c0 115 100 115 200 115h260v55c0 30 -25 30 -50 30h-370v95h380c100 0 200 0 200 -115v-365h-420c-100 0 -200 0 -200 115zM220 125c0 -30 25 -30 50 -30h250v110h-250c-25 0 -50 0 -50 -30v-50z" />
    <glyph glyph-name="Abreve" unicode="&#x102;" horiz-adv-x="930" 
d="M295 890h95c0 -41 34 -75 75 -75s75 34 75 75h95c0 -88 -76 -160 -170 -160s-170 72 -170 160zM20 0l330 660h230l330 -660h-180l-95 190h-340l-95 -190h-180zM350 300h230l-115 230z" />
    <glyph glyph-name="abreve" unicode="&#x103;" 
d="M200 710h95c0 -41 34 -75 75 -75s75 34 75 75h95c0 -88 -76 -160 -170 -160s-170 72 -170 160zM60 115v70c0 115 100 115 200 115h260v55c0 30 -25 30 -50 30h-370v95h380c100 0 200 0 200 -115v-365h-420c-100 0 -200 0 -200 115zM220 125c0 -30 25 -30 50 -30h250v110
h-250c-25 0 -50 0 -50 -30v-50z" />
    <glyph glyph-name="Aogonek" unicode="&#x104;" horiz-adv-x="930" 
d="M640 -135c0 40 20 65 90 135h115c-75 -75 -85 -95 -85 -115c0 -30 30 -40 70 -40h15v-70h-45c-80 0 -160 10 -160 90zM20 0l330 660h230l330 -660h-180l-95 190h-340l-95 -190h-180zM350 300h230l-115 230z" />
    <glyph glyph-name="aogonek" unicode="&#x105;" 
d="M430 -135c0 40 20 65 90 135h115c-75 -75 -85 -95 -85 -115c0 -30 30 -40 70 -40h15v-70h-45c-80 0 -160 10 -160 90zM60 115v70c0 115 100 115 200 115h260v55c0 30 -25 30 -50 30h-370v95h380c100 0 200 0 200 -115v-365h-420c-100 0 -200 0 -200 115zM220 125
c0 -30 25 -30 50 -30h250v110h-250c-25 0 -50 0 -50 -30v-50z" />
    <glyph glyph-name="Cacute" unicode="&#x106;" horiz-adv-x="880" 
d="M340 730l100 160h170l-160 -160h-110zM70 135v390c0 135 120 135 240 135h500v-110h-510c-30 0 -60 0 -60 -35v-370c0 -35 30 -35 60 -35h510v-110h-500c-120 0 -240 0 -240 135z" />
    <glyph glyph-name="cacute" unicode="&#x107;" horiz-adv-x="700" 
d="M250 550l100 160h170l-160 -160h-110zM60 115v250c0 115 100 115 200 115h380v-95h-370c-25 0 -50 0 -50 -30v-230c0 -30 25 -30 50 -30h370v-95h-380c-100 0 -200 0 -200 115z" />
    <glyph glyph-name="Ccircumflex" unicode="&#x108;" horiz-adv-x="880" 
d="M230 730l150 160h120l150 -160h-120l-90 90l-90 -90h-120zM70 135v390c0 135 120 135 240 135h500v-110h-510c-30 0 -60 0 -60 -35v-370c0 -35 30 -35 60 -35h510v-110h-500c-120 0 -240 0 -240 135z" />
    <glyph glyph-name="ccircumflex" unicode="&#x109;" horiz-adv-x="700" 
d="M140 550l150 160h120l150 -160h-120l-90 90l-90 -90h-120zM60 115v250c0 115 100 115 200 115h380v-95h-370c-25 0 -50 0 -50 -30v-230c0 -30 25 -30 50 -30h370v-95h-380c-100 0 -200 0 -200 115z" />
    <glyph glyph-name="Cdotaccent" unicode="&#x10a;" horiz-adv-x="880" 
d="M375 755v110h130v-110h-130zM70 135v390c0 135 120 135 240 135h500v-110h-510c-30 0 -60 0 -60 -35v-370c0 -35 30 -35 60 -35h510v-110h-500c-120 0 -240 0 -240 135z" />
    <glyph glyph-name="cdotaccent" unicode="&#x10b;" horiz-adv-x="700" 
d="M285 575v110h130v-110h-130zM60 115v250c0 115 100 115 200 115h380v-95h-370c-25 0 -50 0 -50 -30v-230c0 -30 25 -30 50 -30h370v-95h-380c-100 0 -200 0 -200 115z" />
    <glyph glyph-name="Ccaron" unicode="&#x10c;" horiz-adv-x="880" 
d="M230 890h120l90 -90l90 90h120l-150 -160h-120zM70 135v390c0 135 120 135 240 135h500v-110h-510c-30 0 -60 0 -60 -35v-370c0 -35 30 -35 60 -35h510v-110h-500c-120 0 -240 0 -240 135z" />
    <glyph glyph-name="ccaron" unicode="&#x10d;" horiz-adv-x="700" 
d="M140 710h120l90 -90l90 90h120l-150 -160h-120zM60 115v250c0 115 100 115 200 115h380v-95h-370c-25 0 -50 0 -50 -30v-230c0 -30 25 -30 50 -30h370v-95h-380c-100 0 -200 0 -200 115z" />
    <glyph glyph-name="Dcaron" unicode="&#x10e;" horiz-adv-x="930" 
d="M255 890h120l90 -90l90 90h120l-150 -160h-120zM70 0v660h430c180 0 360 -80 360 -305v-45c0 -225 -180 -310 -360 -310h-430zM240 110h210c120 0 240 40 240 200v45c0 160 -120 200 -240 200h-210v-445z" />
    <glyph glyph-name="dcaron" unicode="&#x10f;" horiz-adv-x="920" 
d="M720 460l50 200h130l-80 -200h-100zM60 115v250c0 115 100 115 200 115h260v180h160v-660h-420c-100 0 -200 0 -200 115zM220 125c0 -30 25 -30 50 -30h250v290h-250c-25 0 -50 0 -50 -30v-230z" />
    <glyph glyph-name="Dcroat" unicode="&#x110;" horiz-adv-x="960" 
d="M270 110h210c120 0 240 40 240 200v45c0 160 -120 200 -240 200h-210v-145h225v-95h-225v-205zM100 315h-80v95h80v250h430c180 0 360 -80 360 -305v-45c0 -225 -180 -310 -360 -310h-430v315z" />
    <glyph glyph-name="dcroat" unicode="&#x111;" horiz-adv-x="760" 
d="M60 115v250c0 115 100 115 200 115h260v55h-150v80h150v45h160v-45h60v-80h-60v-535h-420c-100 0 -200 0 -200 115zM220 125c0 -30 25 -30 50 -30h250v290h-250c-25 0 -50 0 -50 -30v-230z" />
    <glyph glyph-name="Emacron" unicode="&#x112;" horiz-adv-x="880" 
d="M260 755v95h360v-95h-360zM70 0v660h740v-110h-570v-135h520v-110h-520v-195h570v-110h-740z" />
    <glyph glyph-name="emacron" unicode="&#x113;" 
d="M190 575v95h360v-95h-360zM60 115v250c0 115 100 115 200 115h220c100 0 200 0 200 -115v-160h-460v-80c0 -30 25 -30 50 -30h390v-95h-400c-100 0 -200 0 -200 115zM220 300h300v55c0 30 -25 30 -50 30h-200c-25 0 -50 0 -50 -30v-55z" />
    <glyph glyph-name="Ebreve" unicode="&#x114;" horiz-adv-x="880" 
d="M270 890h95c0 -41 34 -75 75 -75s75 34 75 75h95c0 -88 -76 -160 -170 -160s-170 72 -170 160zM70 0v660h740v-110h-570v-135h520v-110h-520v-195h570v-110h-740z" />
    <glyph glyph-name="ebreve" unicode="&#x115;" 
d="M200 710h95c0 -41 34 -75 75 -75s75 34 75 75h95c0 -88 -76 -160 -170 -160s-170 72 -170 160zM60 115v250c0 115 100 115 200 115h220c100 0 200 0 200 -115v-160h-460v-80c0 -30 25 -30 50 -30h390v-95h-400c-100 0 -200 0 -200 115zM220 300h300v55
c0 30 -25 30 -50 30h-200c-25 0 -50 0 -50 -30v-55z" />
    <glyph glyph-name="Edotaccent" unicode="&#x116;" horiz-adv-x="880" 
d="M375 755v110h130v-110h-130zM70 0v660h740v-110h-570v-135h520v-110h-520v-195h570v-110h-740z" />
    <glyph glyph-name="edotaccent" unicode="&#x117;" 
d="M305 575v110h130v-110h-130zM60 115v250c0 115 100 115 200 115h220c100 0 200 0 200 -115v-160h-460v-80c0 -30 25 -30 50 -30h390v-95h-400c-100 0 -200 0 -200 115zM220 300h300v55c0 30 -25 30 -50 30h-200c-25 0 -50 0 -50 -30v-55z" />
    <glyph glyph-name="Eogonek" unicode="&#x118;" horiz-adv-x="880" 
d="M605 -135c0 40 20 65 90 135h115c-75 -75 -85 -95 -85 -115c0 -30 30 -40 70 -40h15v-70h-45c-80 0 -160 10 -160 90zM70 0v660h740v-110h-570v-135h520v-110h-520v-195h570v-110h-740z" />
    <glyph glyph-name="eogonek" unicode="&#x119;" 
d="M455 -135c0 40 20 65 90 135h115c-75 -75 -85 -95 -85 -115c0 -30 30 -40 70 -40h15v-70h-45c-80 0 -160 10 -160 90zM60 115v250c0 115 100 115 200 115h220c100 0 200 0 200 -115v-160h-460v-80c0 -30 25 -30 50 -30h390v-95h-400c-100 0 -200 0 -200 115zM220 300h300
v55c0 30 -25 30 -50 30h-200c-25 0 -50 0 -50 -30v-55z" />
    <glyph glyph-name="Ecaron" unicode="&#x11a;" horiz-adv-x="880" 
d="M230 890h120l90 -90l90 90h120l-150 -160h-120zM70 0v660h740v-110h-570v-135h520v-110h-520v-195h570v-110h-740z" />
    <glyph glyph-name="ecaron" unicode="&#x11b;" 
d="M160 710h120l90 -90l90 90h120l-150 -160h-120zM60 115v250c0 115 100 115 200 115h220c100 0 200 0 200 -115v-160h-460v-80c0 -30 25 -30 50 -30h390v-95h-400c-100 0 -200 0 -200 115zM220 300h300v55c0 30 -25 30 -50 30h-200c-25 0 -50 0 -50 -30v-55z" />
    <glyph glyph-name="Gcircumflex" unicode="&#x11c;" horiz-adv-x="930" 
d="M255 730l150 160h120l150 -160h-120l-90 90l-90 -90h-120zM70 135v390c0 135 120 135 240 135h500v-110h-510c-30 0 -60 0 -60 -35v-370c0 -35 30 -35 60 -35h330c30 0 60 0 60 35v160h-150v110h320v-280c0 -135 -120 -135 -240 -135h-310c-120 0 -240 0 -240 135z" />
    <glyph glyph-name="gcircumflex" unicode="&#x11d;" 
d="M160 550l150 160h120l150 -160h-120l-90 90l-90 -90h-120zM60 115v250c0 115 100 115 200 115h420v-605c0 -100 -100 -100 -200 -100h-400v95h390c25 0 50 0 50 25v105h-260c-100 0 -200 0 -200 115zM220 125c0 -30 25 -30 50 -30h250v290h-250c-25 0 -50 0 -50 -30v-230
z" />
    <glyph glyph-name="Gbreve" unicode="&#x11e;" horiz-adv-x="930" 
d="M295 890h95c0 -41 34 -75 75 -75s75 34 75 75h95c0 -88 -76 -160 -170 -160s-170 72 -170 160zM70 135v390c0 135 120 135 240 135h500v-110h-510c-30 0 -60 0 -60 -35v-370c0 -35 30 -35 60 -35h330c30 0 60 0 60 35v160h-150v110h320v-280c0 -135 -120 -135 -240 -135
h-310c-120 0 -240 0 -240 135z" />
    <glyph glyph-name="gbreve" unicode="&#x11f;" 
d="M200 710h95c0 -41 34 -75 75 -75s75 34 75 75h95c0 -88 -76 -160 -170 -160s-170 72 -170 160zM60 115v250c0 115 100 115 200 115h420v-605c0 -100 -100 -100 -200 -100h-400v95h390c25 0 50 0 50 25v105h-260c-100 0 -200 0 -200 115zM220 125c0 -30 25 -30 50 -30h250
v290h-250c-25 0 -50 0 -50 -30v-230z" />
    <glyph glyph-name="Gdotaccent" unicode="&#x120;" horiz-adv-x="930" 
d="M400 755v110h130v-110h-130zM70 135v390c0 135 120 135 240 135h500v-110h-510c-30 0 -60 0 -60 -35v-370c0 -35 30 -35 60 -35h330c30 0 60 0 60 35v160h-150v110h320v-280c0 -135 -120 -135 -240 -135h-310c-120 0 -240 0 -240 135z" />
    <glyph glyph-name="gdotaccent" unicode="&#x121;" 
d="M305 575v110h130v-110h-130zM60 115v250c0 115 100 115 200 115h420v-605c0 -100 -100 -100 -200 -100h-400v95h390c25 0 50 0 50 25v105h-260c-100 0 -200 0 -200 115zM220 125c0 -30 25 -30 50 -30h250v290h-250c-25 0 -50 0 -50 -30v-230z" />
    <glyph glyph-name="Gcommaaccent" unicode="&#x122;" horiz-adv-x="930" 
d="M370 -225l40 155h140l-70 -155h-110zM70 135v390c0 135 120 135 240 135h500v-110h-510c-30 0 -60 0 -60 -35v-370c0 -35 30 -35 60 -35h330c30 0 60 0 60 35v160h-150v110h320v-280c0 -135 -120 -135 -240 -135h-310c-120 0 -240 0 -240 135z" />
    <glyph glyph-name="gcommaaccent" unicode="&#x123;" 
d="M300 550l100 250h100l-50 -250h-150zM60 115v250c0 115 100 115 200 115h420v-605c0 -100 -100 -100 -200 -100h-400v95h390c25 0 50 0 50 25v105h-260c-100 0 -200 0 -200 115zM220 125c0 -30 25 -30 50 -30h250v290h-250c-25 0 -50 0 -50 -30v-230z" />
    <glyph glyph-name="Hcircumflex" unicode="&#x124;" horiz-adv-x="930" 
d="M255 730l150 160h120l150 -160h-120l-90 90l-90 -90h-120zM70 0v660h170v-245h450v245h170v-660h-170v305h-450v-305h-170z" />
    <glyph glyph-name="hcircumflex" unicode="&#x125;" 
d="M160 730l150 160h120l150 -160h-120l-90 90l-90 -90h-120zM60 0v660h160v-180h260c100 0 200 0 200 -115v-365h-160v355c0 30 -25 30 -50 30h-250v-385h-160z" />
    <glyph glyph-name="Hbar" unicode="&#x126;" horiz-adv-x="990" 
d="M20 500v95h80v65h170v-65h450v65h170v-65h80v-95h-80v-500h-170v305h-450v-305h-170v500h-80zM270 415h450v85h-450v-85z" />
    <glyph glyph-name="hbar" unicode="&#x127;" horiz-adv-x="760" 
d="M20 535v80h60v45h160v-45h150v-80h-150v-55h260c100 0 200 0 200 -115v-365h-160v355c0 30 -25 30 -50 30h-250v-385h-160v535h-60z" />
    <glyph glyph-name="Itilde" unicode="&#x128;" horiz-adv-x="340" 
d="M75 880c25 0 35 0 95 -30c40 -20 60 -30 70 -30c15 0 25 0 40 60h100c-25 -105 -75 -140 -115 -140c-25 0 -35 0 -95 30c-40 20 -60 30 -70 30c-15 0 -25 0 -40 -60h-100c25 105 75 140 115 140zM85 0v660h170v-660h-170z" />
    <glyph glyph-name="itilde" unicode="&#x129;" horiz-adv-x="340" 
d="M75 700c25 0 35 0 95 -30c40 -20 60 -30 70 -30c15 0 25 0 40 60h100c-25 -105 -75 -140 -115 -140c-25 0 -35 0 -95 30c-40 20 -60 30 -70 30c-15 0 -25 0 -40 -60h-100c25 105 75 140 115 140zM90 0v480h160v-480h-160z" />
    <glyph glyph-name="Imacron" unicode="&#x12a;" horiz-adv-x="340" 
d="M-10 755v95h360v-95h-360zM85 0v660h170v-660h-170z" />
    <glyph glyph-name="imacron" unicode="&#x12b;" horiz-adv-x="340" 
d="M-10 575v95h360v-95h-360zM90 0v480h160v-480h-160z" />
    <glyph glyph-name="Ibreve" unicode="&#x12c;" horiz-adv-x="310" 
d="M-15 890h95c0 -41 34 -75 75 -75s75 34 75 75h95c0 -88 -76 -160 -170 -160s-170 72 -170 160zM70 0v660h170v-660h-170z" />
    <glyph glyph-name="ibreve" unicode="&#x12d;" horiz-adv-x="300" 
d="M-20 710h95c0 -41 34 -75 75 -75s75 34 75 75h95c0 -88 -76 -160 -170 -160s-170 72 -170 160zM70 0v480h160v-480h-160z" />
    <glyph glyph-name="Iogonek" unicode="&#x12e;" horiz-adv-x="310" 
d="M35 -135c0 40 20 65 90 135h115c-75 -75 -85 -95 -85 -115c0 -30 30 -40 70 -40h15v-70h-45c-80 0 -160 10 -160 90zM70 0v660h170v-660h-170z" />
    <glyph glyph-name="iogonek" unicode="&#x12f;" horiz-adv-x="280" 
d="M15 -135c0 40 20 65 90 135h115c-75 -75 -85 -95 -85 -115c0 -30 30 -40 70 -40h15v-70h-45c-80 0 -160 10 -160 90zM60 0v480h160v-480h-160zM60 565v95h160v-95h-160z" />
    <glyph glyph-name="Idotaccent" unicode="&#x130;" horiz-adv-x="310" 
d="M90 755v110h130v-110h-130zM70 0v660h170v-660h-170z" />
    <glyph glyph-name="dotlessi" unicode="&#x131;" horiz-adv-x="280" 
d="M60 0v480h160v-480h-160z" />
    <glyph glyph-name="IJ" unicode="&#x132;" horiz-adv-x="1210" 
d="M350 135v120h170v-110c0 -35 30 -35 60 -35h330c30 0 60 0 60 35v515h170v-525c0 -135 -120 -135 -240 -135h-310c-120 0 -240 0 -240 135zM70 0v660h170v-660h-170z" />
    <glyph glyph-name="ij" unicode="&#x133;" horiz-adv-x="540" 
d="M210 -130c90 15 110 70 110 130v480h160v-480c0 -205 -180 -220 -270 -225v95zM320 565v95h160v-95h-160zM60 0v480h160v-480h-160zM60 565v95h160v-95h-160z" />
    <glyph glyph-name="Jcircumflex" unicode="&#x134;" horiz-adv-x="930" 
d="M565 730l150 160h120l150 -160h-120l-90 90l-90 -90h-120zM70 135v120h170v-110c0 -35 30 -35 60 -35h330c30 0 60 0 60 35v515h170v-525c0 -135 -120 -135 -240 -135h-310c-120 0 -240 0 -240 135z" />
    <glyph glyph-name="jcircumflex" unicode="&#x135;" horiz-adv-x="340" 
d="M-40 550l150 160h120l150 -160h-120l-90 90l-90 -90h-120zM-20 -130c90 15 110 70 110 130v480h160v-480c0 -205 -180 -220 -270 -225v95z" />
    <glyph glyph-name="Kcommaaccent" unicode="&#x136;" horiz-adv-x="860" 
d="M335 -225l40 155h140l-70 -155h-110zM70 0v660h170v-350l350 350h210l-310 -310l350 -350h-210l-245 245l-145 -145v-100h-170z" />
    <glyph glyph-name="kcommaaccent" unicode="&#x137;" horiz-adv-x="670" 
d="M240 -225l40 155h140l-70 -155h-110zM60 0v660h160v-400l220 220h190l-230 -230l250 -250h-190l-155 155l-85 -85v-70h-160z" />
    <glyph glyph-name="kgreenlandic" unicode="&#x138;" horiz-adv-x="670" 
d="M60 0v480h160v-220l220 220h190l-230 -230l250 -250h-190l-155 155l-85 -85v-70h-160z" />
    <glyph glyph-name="Lacute" unicode="&#x139;" horiz-adv-x="840" 
d="M320 730l100 160h170l-160 -160h-110zM70 0v660h170v-550h570v-110h-740z" />
    <glyph glyph-name="lacute" unicode="&#x13a;" horiz-adv-x="280" 
d="M10 730l100 160h170l-160 -160h-110zM60 0v660h160v-660h-160z" />
    <glyph glyph-name="Lcommaaccent" unicode="&#x13b;" horiz-adv-x="840" 
d="M325 -225l40 155h140l-70 -155h-110zM70 0v660h170v-550h570v-110h-740z" />
    <glyph glyph-name="lcommaaccent" unicode="&#x13c;" horiz-adv-x="280" 
d="M30 -225l40 155h140l-70 -155h-110zM60 0v660h160v-660h-160z" />
    <glyph glyph-name="Lcaron" unicode="&#x13d;" horiz-adv-x="840" 
d="M460 460l50 200h130l-80 -200h-100zM70 0v660h170v-550h570v-110h-740z" />
    <glyph glyph-name="lcaron" unicode="&#x13e;" horiz-adv-x="480" 
d="M280 460l50 200h130l-80 -200h-100zM60 0v660h160v-660h-160z" />
    <glyph glyph-name="Ldot" unicode="&#x13f;" horiz-adv-x="840" 
d="M400 290v140h170v-140h-170zM70 0v660h170v-550h570v-110h-740z" />
    <glyph glyph-name="ldot" unicode="&#x140;" horiz-adv-x="550" 
d="M320 290v140h170v-140h-170zM60 0v660h160v-660h-160z" />
    <glyph glyph-name="Lslash" unicode="&#x141;" horiz-adv-x="890" 
d="M20 210v110l100 50v290h170v-205l200 100v-110l-200 -100v-235h570v-110h-740v260z" />
    <glyph glyph-name="lslash" unicode="&#x142;" horiz-adv-x="400" 
d="M20 220v90l100 50v300h160v-220l100 50v-90l-100 -50v-350h-160v270z" />
    <glyph glyph-name="Nacute" unicode="&#x143;" horiz-adv-x="930" 
d="M365 730l100 160h170l-160 -160h-110zM70 0v660h190l430 -470v470h170v-660h-190l-430 470v-470h-170z" />
    <glyph glyph-name="nacute" unicode="&#x144;" 
d="M270 550l100 160h170l-160 -160h-110zM60 0v480h420c100 0 200 0 200 -115v-365h-160v355c0 30 -25 30 -50 30h-250v-385h-160z" />
    <glyph glyph-name="Ncommaaccent" unicode="&#x145;" horiz-adv-x="930" 
d="M370 -225l40 155h140l-70 -155h-110zM70 0v660h190l430 -470v470h170v-660h-190l-430 470v-470h-170z" />
    <glyph glyph-name="ncommaaccent" unicode="&#x146;" 
d="M275 -225l40 155h140l-70 -155h-110zM60 0v480h420c100 0 200 0 200 -115v-365h-160v355c0 30 -25 30 -50 30h-250v-385h-160z" />
    <glyph glyph-name="Ncaron" unicode="&#x147;" horiz-adv-x="930" 
d="M255 890h120l90 -90l90 90h120l-150 -160h-120zM70 0v660h190l430 -470v470h170v-660h-190l-430 470v-470h-170z" />
    <glyph glyph-name="ncaron" unicode="&#x148;" 
d="M160 710h120l90 -90l90 90h120l-150 -160h-120zM60 0v480h420c100 0 200 0 200 -115v-365h-160v355c0 30 -25 30 -50 30h-250v-385h-160z" />
    <glyph glyph-name="napostrophe" unicode="&#x149;" horiz-adv-x="880" 
d="M200 0v480h420c100 0 200 0 200 -115v-365h-160v355c0 30 -25 30 -50 30h-250v-385h-160zM20 460l50 200h130l-80 -200h-100z" />
    <glyph glyph-name="Eng" unicode="&#x14a;" horiz-adv-x="930" 
d="M70 0v660h190l430 -470v470h170v-660c0 -160 -144 -225 -320 -225v110c60 5 130 35 130 115l-430 470v-470h-170z" />
    <glyph glyph-name="eng" unicode="&#x14b;" 
d="M60 0v480h420c100 0 200 0 200 -115v-365c0 -205 -180 -220 -270 -225v95c90 15 110 70 110 130v355c0 30 -25 30 -50 30h-250v-385h-160z" />
    <glyph glyph-name="Omacron" unicode="&#x14c;" horiz-adv-x="930" 
d="M285 755v95h360v-95h-360zM70 135v390c0 135 120 135 240 135h310c120 0 240 0 240 -135v-390c0 -135 -120 -135 -240 -135h-310c-120 0 -240 0 -240 135zM240 145c0 -35 30 -35 60 -35h330c30 0 60 0 60 35v370c0 35 -30 35 -60 35h-330c-30 0 -60 0 -60 -35v-370z" />
    <glyph glyph-name="omacron" unicode="&#x14d;" 
d="M190 575v95h360v-95h-360zM60 115v250c0 115 100 115 200 115h220c100 0 200 0 200 -115v-250c0 -115 -100 -115 -200 -115h-220c-100 0 -200 0 -200 115zM220 125c0 -30 25 -30 50 -30h200c25 0 50 0 50 30v230c0 30 -25 30 -50 30h-200c-25 0 -50 0 -50 -30v-230z" />
    <glyph glyph-name="Obreve" unicode="&#x14e;" horiz-adv-x="930" 
d="M295 890h95c0 -41 34 -75 75 -75s75 34 75 75h95c0 -88 -76 -160 -170 -160s-170 72 -170 160zM70 135v390c0 135 120 135 240 135h310c120 0 240 0 240 -135v-390c0 -135 -120 -135 -240 -135h-310c-120 0 -240 0 -240 135zM240 145c0 -35 30 -35 60 -35h330
c30 0 60 0 60 35v370c0 35 -30 35 -60 35h-330c-30 0 -60 0 -60 -35v-370z" />
    <glyph glyph-name="obreve" unicode="&#x14f;" 
d="M200 710h95c0 -41 34 -75 75 -75s75 34 75 75h95c0 -88 -76 -160 -170 -160s-170 72 -170 160zM60 115v250c0 115 100 115 200 115h220c100 0 200 0 200 -115v-250c0 -115 -100 -115 -200 -115h-220c-100 0 -200 0 -200 115zM220 125c0 -30 25 -30 50 -30h200
c25 0 50 0 50 30v230c0 30 -25 30 -50 30h-200c-25 0 -50 0 -50 -30v-230z" />
    <glyph glyph-name="Ohungarumlaut" unicode="&#x150;" horiz-adv-x="930" 
d="M265 730l90 160h130l-120 -160h-100zM485 730l90 160h130l-120 -160h-100zM70 135v390c0 135 120 135 240 135h310c120 0 240 0 240 -135v-390c0 -135 -120 -135 -240 -135h-310c-120 0 -240 0 -240 135zM240 145c0 -35 30 -35 60 -35h330c30 0 60 0 60 35v370
c0 35 -30 35 -60 35h-330c-30 0 -60 0 -60 -35v-370z" />
    <glyph glyph-name="ohungarumlaut" unicode="&#x151;" 
d="M170 550l90 160h130l-120 -160h-100zM390 550l90 160h130l-120 -160h-100zM60 115v250c0 115 100 115 200 115h220c100 0 200 0 200 -115v-250c0 -115 -100 -115 -200 -115h-220c-100 0 -200 0 -200 115zM220 125c0 -30 25 -30 50 -30h200c25 0 50 0 50 30v230
c0 30 -25 30 -50 30h-200c-25 0 -50 0 -50 -30v-230z" />
    <glyph glyph-name="OE" unicode="&#x152;" horiz-adv-x="1400" 
d="M70 135v390c0 135 120 135 240 135h1020v-110h-520v-135h470v-110h-470v-195h520v-110h-1020c-120 0 -240 0 -240 135zM240 145c0 -35 30 -35 60 -35h280c30 0 60 0 60 35v370c0 35 -30 35 -60 35h-280c-30 0 -60 0 -60 -35v-370z" />
    <glyph glyph-name="oe" unicode="&#x153;" horiz-adv-x="1200" 
d="M60 115v250c0 115 100 115 200 115h680c100 0 200 0 200 -115v-160h-460v-80c0 -30 25 -30 50 -30h390v-95h-860c-100 0 -200 0 -200 115zM220 125c0 -30 25 -30 50 -30h200c25 0 50 0 50 30v230c0 30 -25 30 -50 30h-200c-25 0 -50 0 -50 -30v-230zM680 300h300v55
c0 30 -25 30 -50 30h-200c-25 0 -50 0 -50 -30v-55z" />
    <glyph glyph-name="Racute" unicode="&#x154;" horiz-adv-x="930" 
d="M365 730l100 160h170l-160 -160h-110zM900 0h-210l-270 270h-180v-270h-170v660h550c120 0 240 0 240 -135v-120c0 -135 -120 -135 -230 -135zM240 380h390c30 0 60 0 60 35v100c0 35 -30 35 -60 35h-390v-170z" />
    <glyph glyph-name="racute" unicode="&#x155;" horiz-adv-x="480" 
d="M140 550l100 160h170l-160 -160h-110zM60 0v365c0 115 100 115 200 115h160v-95h-150c-25 0 -50 0 -50 -30v-355h-160z" />
    <glyph glyph-name="Rcommaaccent" unicode="&#x156;" horiz-adv-x="930" 
d="M370 -225l40 155h140l-70 -155h-110zM900 0h-210l-270 270h-180v-270h-170v660h550c120 0 240 0 240 -135v-120c0 -135 -120 -135 -230 -135zM240 380h390c30 0 60 0 60 35v100c0 35 -30 35 -60 35h-390v-170z" />
    <glyph glyph-name="rcommaaccent" unicode="&#x157;" horiz-adv-x="480" 
d="M30 -225l40 155h140l-70 -155h-110zM60 0v365c0 115 100 115 200 115h160v-95h-150c-25 0 -50 0 -50 -30v-355h-160z" />
    <glyph glyph-name="Rcaron" unicode="&#x158;" horiz-adv-x="930" 
d="M255 890h120l90 -90l90 90h120l-150 -160h-120zM900 0h-210l-270 270h-180v-270h-170v660h550c120 0 240 0 240 -135v-120c0 -135 -120 -135 -230 -135zM240 380h390c30 0 60 0 60 35v100c0 35 -30 35 -60 35h-390v-170z" />
    <glyph glyph-name="rcaron" unicode="&#x159;" horiz-adv-x="480" 
d="M30 710h120l90 -90l90 90h120l-150 -160h-120zM60 0v365c0 115 100 115 200 115h160v-95h-150c-25 0 -50 0 -50 -30v-355h-160z" />
    <glyph glyph-name="Sacute" unicode="&#x15a;" horiz-adv-x="930" 
d="M365 730l100 160h170l-160 -160h-110zM70 0v110h560c30 0 60 0 60 35v125c0 35 -30 35 -60 35h-320c-120 0 -240 0 -240 135v85c0 135 120 135 240 135h500v-110h-510c-30 0 -60 0 -60 -35v-65c0 -35 30 -35 60 -35h320c120 0 240 0 240 -135v-145
c0 -135 -120 -135 -240 -135h-550z" />
    <glyph glyph-name="sacute" unicode="&#x15b;" 
d="M270 550l100 160h170l-160 -160h-110zM60 0v95h410c25 0 50 0 50 30v50c0 30 -25 30 -50 30h-210c-100 0 -200 0 -200 115v45c0 115 100 115 200 115h380v-95h-370c-25 0 -50 0 -50 -30v-25c0 -30 25 -30 50 -30h210c100 0 200 0 200 -115v-70
c0 -115 -100 -115 -200 -115h-420z" />
    <glyph glyph-name="Scircumflex" unicode="&#x15c;" horiz-adv-x="930" 
d="M255 730l150 160h120l150 -160h-120l-90 90l-90 -90h-120zM70 0v110h560c30 0 60 0 60 35v125c0 35 -30 35 -60 35h-320c-120 0 -240 0 -240 135v85c0 135 120 135 240 135h500v-110h-510c-30 0 -60 0 -60 -35v-65c0 -35 30 -35 60 -35h320c120 0 240 0 240 -135v-145
c0 -135 -120 -135 -240 -135h-550z" />
    <glyph glyph-name="scircumflex" unicode="&#x15d;" 
d="M160 550l150 160h120l150 -160h-120l-90 90l-90 -90h-120zM60 0v95h410c25 0 50 0 50 30v50c0 30 -25 30 -50 30h-210c-100 0 -200 0 -200 115v45c0 115 100 115 200 115h380v-95h-370c-25 0 -50 0 -50 -30v-25c0 -30 25 -30 50 -30h210c100 0 200 0 200 -115v-70
c0 -115 -100 -115 -200 -115h-420z" />
    <glyph glyph-name="Scedilla" unicode="&#x15e;" horiz-adv-x="930" 
d="M390 -155h30c40 0 70 10 70 40c0 20 -10 40 -85 115h115c70 -70 90 -95 90 -135c0 -80 -80 -90 -160 -90h-60v70zM70 0v110h560c30 0 60 0 60 35v125c0 35 -30 35 -60 35h-320c-120 0 -240 0 -240 135v85c0 135 120 135 240 135h500v-110h-510c-30 0 -60 0 -60 -35v-65
c0 -35 30 -35 60 -35h320c120 0 240 0 240 -135v-145c0 -135 -120 -135 -240 -135h-550z" />
    <glyph glyph-name="scedilla" unicode="&#x15f;" 
d="M280 -155h30c40 0 70 10 70 40c0 20 -10 40 -85 115h115c70 -70 90 -95 90 -135c0 -80 -80 -90 -160 -90h-60v70zM60 0v95h410c25 0 50 0 50 30v50c0 30 -25 30 -50 30h-210c-100 0 -200 0 -200 115v45c0 115 100 115 200 115h380v-95h-370c-25 0 -50 0 -50 -30v-25
c0 -30 25 -30 50 -30h210c100 0 200 0 200 -115v-70c0 -115 -100 -115 -200 -115h-420z" />
    <glyph glyph-name="Scaron" unicode="&#x160;" horiz-adv-x="930" 
d="M255 890h120l90 -90l90 90h120l-150 -160h-120zM70 0v110h560c30 0 60 0 60 35v125c0 35 -30 35 -60 35h-320c-120 0 -240 0 -240 135v85c0 135 120 135 240 135h500v-110h-510c-30 0 -60 0 -60 -35v-65c0 -35 30 -35 60 -35h320c120 0 240 0 240 -135v-145
c0 -135 -120 -135 -240 -135h-550z" />
    <glyph glyph-name="scaron" unicode="&#x161;" 
d="M160 710h120l90 -90l90 90h120l-150 -160h-120zM60 0v95h410c25 0 50 0 50 30v50c0 30 -25 30 -50 30h-210c-100 0 -200 0 -200 115v45c0 115 100 115 200 115h380v-95h-370c-25 0 -50 0 -50 -30v-25c0 -30 25 -30 50 -30h210c100 0 200 0 200 -115v-70
c0 -115 -100 -115 -200 -115h-420z" />
    <glyph glyph-name="Tcommaaccent" unicode="&#x162;" horiz-adv-x="910" 
d="M355 -155h30c40 0 70 10 70 40c0 20 -10 40 -85 115h115c70 -70 90 -95 90 -135c0 -80 -80 -90 -160 -90h-60v70zM30 550v110h850v-110h-340v-550h-170v550h-340z" />
    <glyph glyph-name="tcommaaccent" unicode="&#x163;" horiz-adv-x="480" 
d="M200 -155h30c40 0 70 10 70 40c0 20 -10 40 -85 115h115c70 -70 90 -95 90 -135c0 -80 -80 -90 -160 -90h-60v70zM60 115v545h160v-180h200v-95h-200v-260c0 -30 25 -30 50 -30h150v-95h-160c-100 0 -200 0 -200 115z" />
    <glyph glyph-name="Tcaron" unicode="&#x164;" horiz-adv-x="910" 
d="M245 890h120l90 -90l90 90h120l-150 -160h-120zM30 550v110h850v-110h-340v-550h-170v550h-340z" />
    <glyph glyph-name="tcaron" unicode="&#x165;" horiz-adv-x="680" 
d="M480 460l50 200h130l-80 -200h-100zM60 115v545h160v-180h200v-95h-200v-260c0 -30 25 -30 50 -30h150v-95h-160c-100 0 -200 0 -200 115z" />
    <glyph glyph-name="Tbar" unicode="&#x166;" horiz-adv-x="910" 
d="M30 550v110h850v-110h-340v-145h200v-95h-200v-310h-170v310h-200v95h200v145h-340z" />
    <glyph glyph-name="tbar" unicode="&#x167;" horiz-adv-x="500" 
d="M20 220v80h60v360h160v-180h200v-95h-200v-85h150v-80h-150v-95c0 -30 25 -30 50 -30h150v-95h-160c-100 0 -200 0 -200 115v105h-60z" />
    <glyph glyph-name="Utilde" unicode="&#x168;" horiz-adv-x="930" 
d="M370 880c25 0 35 0 95 -30c40 -20 60 -30 70 -30c15 0 25 0 40 60h100c-25 -105 -75 -140 -115 -140c-25 0 -35 0 -95 30c-40 20 -60 30 -70 30c-15 0 -25 0 -40 -60h-100c25 105 75 140 115 140zM70 135v525h170v-515c0 -35 30 -35 60 -35h330c30 0 60 0 60 35v515h170
v-525c0 -135 -120 -135 -240 -135h-310c-120 0 -240 0 -240 135z" />
    <glyph glyph-name="utilde" unicode="&#x169;" 
d="M275 700c25 0 35 0 95 -30c40 -20 60 -30 70 -30c15 0 25 0 40 60h100c-25 -105 -75 -140 -115 -140c-25 0 -35 0 -95 30c-40 20 -60 30 -70 30c-15 0 -25 0 -40 -60h-100c25 105 75 140 115 140zM60 115v365h160v-355c0 -30 25 -30 50 -30h200c25 0 50 0 50 30v355h160
v-365c0 -115 -100 -115 -200 -115h-220c-100 0 -200 0 -200 115z" />
    <glyph glyph-name="Umacron" unicode="&#x16a;" horiz-adv-x="930" 
d="M285 755v95h360v-95h-360zM70 135v525h170v-515c0 -35 30 -35 60 -35h330c30 0 60 0 60 35v515h170v-525c0 -135 -120 -135 -240 -135h-310c-120 0 -240 0 -240 135z" />
    <glyph glyph-name="umacron" unicode="&#x16b;" 
d="M190 575v95h360v-95h-360zM60 115v365h160v-355c0 -30 25 -30 50 -30h200c25 0 50 0 50 30v355h160v-365c0 -115 -100 -115 -200 -115h-220c-100 0 -200 0 -200 115z" />
    <glyph glyph-name="Ubreve" unicode="&#x16c;" horiz-adv-x="930" 
d="M295 890h95c0 -41 34 -75 75 -75s75 34 75 75h95c0 -88 -76 -160 -170 -160s-170 72 -170 160zM70 135v525h170v-515c0 -35 30 -35 60 -35h330c30 0 60 0 60 35v515h170v-525c0 -135 -120 -135 -240 -135h-310c-120 0 -240 0 -240 135z" />
    <glyph glyph-name="ubreve" unicode="&#x16d;" 
d="M200 710h95c0 -41 34 -75 75 -75s75 34 75 75h95c0 -88 -76 -160 -170 -160s-170 72 -170 160zM60 115v365h160v-355c0 -30 25 -30 50 -30h200c25 0 50 0 50 30v355h160v-365c0 -115 -100 -115 -200 -115h-220c-100 0 -200 0 -200 115z" />
    <glyph glyph-name="Uring" unicode="&#x16e;" horiz-adv-x="930" 
d="M280 745v60c0 57 40 85 120 85h130c80 0 120 -28 120 -85v-60c0 -57 -40 -85 -120 -85h-130c-80 0 -120 28 -120 85zM390 745c0 -13 10 -20 30 -20h90c20 0 30 7 30 20v60c0 13 -10 20 -30 20h-90c-20 0 -30 -7 -30 -20v-60zM70 135v525h170v-515c0 -35 30 -35 60 -35
h330c30 0 60 0 60 35v515h170v-525c0 -135 -120 -135 -240 -135h-310c-120 0 -240 0 -240 135z" />
    <glyph glyph-name="uring" unicode="&#x16f;" 
d="M185 635v60c0 57 40 85 120 85h130c80 0 120 -28 120 -85v-60c0 -57 -40 -85 -120 -85h-130c-80 0 -120 28 -120 85zM295 635c0 -13 10 -20 30 -20h90c20 0 30 7 30 20v60c0 13 -10 20 -30 20h-90c-20 0 -30 -7 -30 -20v-60zM60 115v365h160v-355c0 -30 25 -30 50 -30
h200c25 0 50 0 50 30v355h160v-365c0 -115 -100 -115 -200 -115h-220c-100 0 -200 0 -200 115z" />
    <glyph glyph-name="Uhungarumlaut" unicode="&#x170;" horiz-adv-x="930" 
d="M265 730l90 160h130l-120 -160h-100zM485 730l90 160h130l-120 -160h-100zM70 135v525h170v-515c0 -35 30 -35 60 -35h330c30 0 60 0 60 35v515h170v-525c0 -135 -120 -135 -240 -135h-310c-120 0 -240 0 -240 135z" />
    <glyph glyph-name="uhungarumlaut" unicode="&#x171;" 
d="M170 550l90 160h130l-120 -160h-100zM390 550l90 160h130l-120 -160h-100zM60 115v365h160v-355c0 -30 25 -30 50 -30h200c25 0 50 0 50 30v355h160v-365c0 -115 -100 -115 -200 -115h-220c-100 0 -200 0 -200 115z" />
    <glyph glyph-name="Uogonek" unicode="&#x172;" horiz-adv-x="930" 
d="M415 -135c0 40 20 65 90 135h115c-75 -75 -85 -95 -85 -115c0 -30 30 -40 70 -40h15v-70h-45c-80 0 -160 10 -160 90zM70 135v525h170v-515c0 -35 30 -35 60 -35h330c30 0 60 0 60 35v515h170v-525c0 -135 -120 -135 -240 -135h-310c-120 0 -240 0 -240 135z" />
    <glyph glyph-name="uogonek" unicode="&#x173;" 
d="M275 -135c0 40 20 65 90 135h115c-75 -75 -85 -95 -85 -115c0 -30 30 -40 70 -40h15v-70h-45c-80 0 -160 10 -160 90zM60 115v365h160v-355c0 -30 25 -30 50 -30h200c25 0 50 0 50 30v355h160v-365c0 -115 -100 -115 -200 -115h-220c-100 0 -200 0 -200 115z" />
    <glyph glyph-name="Wcircumflex" unicode="&#x174;" horiz-adv-x="1260" 
d="M420 730l150 160h120l150 -160h-120l-90 90l-90 -90h-120zM20 660h175l165 -495l155 465h230l155 -465l165 495h175l-220 -660h-220l-170 510l-170 -510h-220z" />
    <glyph glyph-name="wcircumflex" unicode="&#x175;" horiz-adv-x="960" 
d="M260 550l150 160h120l150 -160h-120l-90 90l-90 -90h-120zM20 480h160l110 -330l100 300h180l100 -300l110 330h160l-160 -480h-195l-105 315l-105 -315h-195z" />
    <glyph glyph-name="Ycircumflex" unicode="&#x176;" horiz-adv-x="910" 
d="M245 730l150 160h120l150 -160h-120l-90 90l-90 -90h-120zM20 660h210l225 -225l225 225h210l-350 -350v-310h-170v310z" />
    <glyph glyph-name="ycircumflex" unicode="&#x177;" horiz-adv-x="720" 
d="M150 550l150 160h120l150 -160h-120l-90 90l-90 -90h-120zM20 480h170l170 -340l170 340h170l-300 -600c-30 -60 -55 -105 -150 -105h-170v95h100c45 0 50 10 65 40l30 60z" />
    <glyph glyph-name="Ydieresis" unicode="&#x178;" horiz-adv-x="910" 
d="M265 755v110h135v-110h-135zM510 755v110h135v-110h-135zM20 660h210l225 -225l225 225h210l-350 -350v-310h-170v310z" />
    <glyph glyph-name="Zacute" unicode="&#x179;" horiz-adv-x="880" 
d="M340 730l100 160h170l-160 -160h-110zM50 0v110l525 440h-505v110h740v-110l-525 -440h545v-110h-780z" />
    <glyph glyph-name="zacute" unicode="&#x17a;" horiz-adv-x="720" 
d="M250 550l100 160h170l-160 -160h-110zM50 0v105l390 280h-370v95h580v-105l-390 -280h410v-95h-620z" />
    <glyph glyph-name="Zdotaccent" unicode="&#x17b;" horiz-adv-x="880" 
d="M375 755v110h130v-110h-130zM50 0v110l525 440h-505v110h740v-110l-525 -440h545v-110h-780z" />
    <glyph glyph-name="zdotaccent" unicode="&#x17c;" horiz-adv-x="720" 
d="M285 575v110h130v-110h-130zM50 0v105l390 280h-370v95h580v-105l-390 -280h410v-95h-620z" />
    <glyph glyph-name="Zcaron" unicode="&#x17d;" horiz-adv-x="880" 
d="M230 890h120l90 -90l90 90h120l-150 -160h-120zM50 0v110l525 440h-505v110h740v-110l-525 -440h545v-110h-780z" />
    <glyph glyph-name="zcaron" unicode="&#x17e;" horiz-adv-x="720" 
d="M140 710h120l90 -90l90 90h120l-150 -160h-120zM50 0v105l390 280h-370v95h580v-105l-390 -280h410v-95h-620z" />
    <glyph glyph-name="longs" unicode="&#x17f;" horiz-adv-x="580" 
d="M60 385v95h100v65c0 115 100 115 200 115h160v-95h-150c-25 0 -50 0 -50 -30v-535h-160v385h-100z" />
    <glyph glyph-name="florin" unicode="&#x192;" horiz-adv-x="580" 
d="M20 -130h90c25 0 50 0 50 30v485h-100v95h100v65c0 115 100 115 200 115h160v-95h-150c-25 0 -50 0 -50 -30v-55h200v-95h-200v-495c0 -115 -100 -115 -200 -115h-100v95z" />
    <glyph glyph-name="Aringacute" unicode="&#x1fa;" horiz-adv-x="930" 
d="M280 745v60c0 57 40 85 120 85h130c80 0 120 -28 120 -85v-60c0 -57 -40 -85 -120 -85h-130c-80 0 -120 28 -120 85zM390 745c0 -13 10 -20 30 -20h90c20 0 30 7 30 20v60c0 13 -10 20 -30 20h-90c-20 0 -30 -7 -30 -20v-60zM20 0l330 660h230l330 -660h-180l-95 190
h-340l-95 -190h-180zM350 300h230l-115 230zM670 730l100 160h170l-160 -160h-110z" />
    <glyph glyph-name="aringacute" unicode="&#x1fb;" horiz-adv-x="805" 
d="M185 635v60c0 57 40 85 120 85h130c80 0 120 -28 120 -85v-60c0 -57 -40 -85 -120 -85h-130c-80 0 -120 28 -120 85zM295 635c0 -13 10 -20 30 -20h90c20 0 30 7 30 20v60c0 13 -10 20 -30 20h-90c-20 0 -30 -7 -30 -20v-60zM60 115v70c0 115 100 115 200 115h260v55
c0 30 -25 30 -50 30h-370v95h380c100 0 200 0 200 -115v-365h-420c-100 0 -200 0 -200 115zM220 125c0 -30 25 -30 50 -30h250v110h-250c-25 0 -50 0 -50 -30v-50zM575 730l100 160h170l-160 -160h-110z" />
    <glyph glyph-name="AEacute" unicode="&#x1fc;" horiz-adv-x="1350" 
d="M575 730l100 160h170l-160 -160h-110zM20 0l330 660h930v-110h-520v-135h470v-110h-470v-195h520v-110h-690v190h-305l-95 -190h-170zM340 300h250v250h-125z" />
    <glyph glyph-name="aeacute" unicode="&#x1fd;" horiz-adv-x="1200" 
d="M500 550l100 160h170l-160 -160h-110zM60 115v70c0 115 100 115 200 115h260v55c0 30 -25 30 -50 30h-370v95h840c100 0 200 0 200 -115v-160h-460v-80c0 -30 25 -30 50 -30h390v-95h-860c-100 0 -200 0 -200 115zM220 125c0 -30 25 -30 50 -30h250v110h-250
c-25 0 -50 0 -50 -30v-50zM680 300h300v55c0 30 -25 30 -50 30h-200c-25 0 -50 0 -50 -30v-55z" />
    <glyph glyph-name="Oslashacute" unicode="&#x1fe;" horiz-adv-x="1030" 
d="M415 730l100 160h170l-160 -160h-110zM20 100v105l100 35v285c0 135 120 135 240 135h310c120 0 240 0 240 -135l100 35v-105l-100 -35v-285c0 -135 -120 -135 -240 -135h-310c-120 0 -240 0 -240 135zM290 145c0 -35 30 -35 60 -35h330c30 0 60 0 60 35v212l-450 -160
v-52zM290 302l450 160v53c0 35 -30 35 -60 35h-330c-30 0 -60 0 -60 -35v-213z" />
    <glyph glyph-name="oslashacute" unicode="&#x1ff;" horiz-adv-x="820" 
d="M310 550l100 160h170l-160 -160h-110zM20 94v85l80 21v165c0 115 100 115 200 115h220c100 0 200 0 200 -115l80 21v-85l-80 -21v-165c0 -115 -100 -115 -200 -115h-220c-100 0 -200 0 -200 115zM260 125c0 -30 25 -30 50 -30h200c25 0 50 0 50 30v112l-300 -79v-33z
M260 243l300 79v33c0 30 -25 30 -50 30h-200c-25 0 -50 0 -50 -30v-112z" />
    <glyph glyph-name="Scommaaccent" unicode="&#x218;" horiz-adv-x="930" 
d="M370 -225l40 155h140l-70 -155h-110zM70 0v110h560c30 0 60 0 60 35v125c0 35 -30 35 -60 35h-320c-120 0 -240 0 -240 135v85c0 135 120 135 240 135h500v-110h-510c-30 0 -60 0 -60 -35v-65c0 -35 30 -35 60 -35h320c120 0 240 0 240 -135v-145
c0 -135 -120 -135 -240 -135h-550z" />
    <glyph glyph-name="scommaaccent" unicode="&#x219;" 
d="M275 -225l40 155h140l-70 -155h-110zM60 0v95h410c25 0 50 0 50 30v50c0 30 -25 30 -50 30h-210c-100 0 -200 0 -200 115v45c0 115 100 115 200 115h380v-95h-370c-25 0 -50 0 -50 -30v-25c0 -30 25 -30 50 -30h210c100 0 200 0 200 -115v-70c0 -115 -100 -115 -200 -115
h-420z" />
    <glyph glyph-name="uni021A" unicode="&#x21a;" horiz-adv-x="910" 
d="M345 -225l40 155h140l-70 -155h-110zM30 550v110h850v-110h-340v-550h-170v550h-340z" />
    <glyph glyph-name="uni021B" unicode="&#x21b;" horiz-adv-x="480" 
d="M145 -225l40 155h140l-70 -155h-110zM60 115v545h160v-180h200v-95h-200v-260c0 -30 25 -30 50 -30h150v-95h-160c-100 0 -200 0 -200 115z" />
    <glyph glyph-name="uni0237" unicode="&#x237;" horiz-adv-x="280" 
d="M-50 -130c90 15 110 70 110 130v480h160v-480c0 -205 -180 -220 -270 -225v95z" />
    <glyph glyph-name="afii57929" unicode="&#x2bc;" horiz-adv-x="330" 
d="M75 460l50 200h130l-80 -200h-100z" />
    <glyph glyph-name="circumflex" unicode="&#x2c6;" horiz-adv-x="500" 
d="M40 550l150 160h120l150 -160h-120l-90 90l-90 -90h-120z" />
    <glyph glyph-name="caron" unicode="&#x2c7;" horiz-adv-x="500" 
d="M40 710h120l90 -90l90 90h120l-150 -160h-120z" />
    <glyph glyph-name="uni02C9" unicode="&#x2c9;" horiz-adv-x="500" 
d="M70 575v95h360v-95h-360z" />
    <glyph glyph-name="breve" unicode="&#x2d8;" horiz-adv-x="500" 
d="M80 710h95c0 -41 34 -75 75 -75s75 34 75 75h95c0 -88 -76 -160 -170 -160s-170 72 -170 160z" />
    <glyph glyph-name="dotaccent" unicode="&#x2d9;" horiz-adv-x="500" 
d="M185 575v110h130v-110h-130z" />
    <glyph glyph-name="ring" unicode="&#x2da;" horiz-adv-x="500" 
d="M65 635v60c0 57 40 85 120 85h130c80 0 120 -28 120 -85v-60c0 -57 -40 -85 -120 -85h-130c-80 0 -120 28 -120 85zM175 635c0 -13 10 -20 30 -20h90c20 0 30 7 30 20v60c0 13 -10 20 -30 20h-90c-20 0 -30 -7 -30 -20v-60z" />
    <glyph glyph-name="ogonek" unicode="&#x2db;" horiz-adv-x="500" 
d="M130 -135c0 40 20 65 90 135h115c-75 -75 -85 -95 -85 -115c0 -30 30 -40 70 -40h15v-70h-45c-80 0 -160 10 -160 90z" />
    <glyph glyph-name="tilde" unicode="&#x2dc;" horiz-adv-x="500" 
d="M155 700c25 0 35 0 95 -30c40 -20 60 -30 70 -30c15 0 25 0 40 60h100c-25 -105 -75 -140 -115 -140c-25 0 -35 0 -95 30c-40 20 -60 30 -70 30c-15 0 -25 0 -40 -60h-100c25 105 75 140 115 140z" />
    <glyph glyph-name="hungarumlaut" unicode="&#x2dd;" horiz-adv-x="500" 
d="M50 550l90 160h130l-120 -160h-100zM270 550l90 160h130l-120 -160h-100z" />
    <glyph glyph-name="uni0312" unicode="&#x312;" horiz-adv-x="0" 
d="M-440 550l100 250h100l-50 -250h-150z" />
    <glyph glyph-name="uni0326" unicode="&#x326;" horiz-adv-x="0" 
d="M-465 -225l40 155h140l-70 -155h-110z" />
    <glyph glyph-name="uni037A" unicode="&#x37a;" horiz-adv-x="500" 
d="M170 -50h110v-85c0 -25 20 -25 40 -25h20v-65c-85 0 -170 0 -170 95v80z" />
    <glyph glyph-name="uni037E" unicode="&#x37e;" horiz-adv-x="350" 
d="M45 -150l60 270h170l-120 -270h-110zM105 340v140h170v-140h-170z" />
    <glyph glyph-name="tonos" unicode="&#x384;" horiz-adv-x="500" 
d="M160 550l70 160h140l-100 -160h-110z" />
    <glyph glyph-name="dieresistonos" unicode="&#x385;" horiz-adv-x="500" 
d="M60 575v110h135v-110h-135zM305 575v110h135v-110h-135zM160 730l70 160h140l-100 -160h-110z" />
    <glyph glyph-name="Alphatonos" unicode="&#x386;" horiz-adv-x="930" 
d="M30 500l70 160h140l-100 -160h-110zM20 0l330 660h230l330 -660h-180l-95 190h-340l-95 -190h-180zM350 300h230l-115 230z" />
    <glyph glyph-name="anoteleia" unicode="&#x387;" horiz-adv-x="320" 
d="M75 180v140h170v-140h-170z" />
    <glyph glyph-name="Epsilontonos" unicode="&#x388;" horiz-adv-x="1090" 
d="M20 500l70 160h140l-100 -160h-110zM280 0v660h740v-110h-570v-135h520v-110h-520v-195h570v-110h-740z" />
    <glyph glyph-name="Etatonos" unicode="&#x389;" horiz-adv-x="1140" 
d="M20 500l70 160h140l-100 -160h-110zM280 0v660h170v-245h450v245h170v-660h-170v305h-450v-305h-170z" />
    <glyph glyph-name="Iotatonos" unicode="&#x38a;" horiz-adv-x="520" 
d="M20 500l70 160h140l-100 -160h-110zM280 0v660h170v-660h-170z" />
    <glyph glyph-name="Omicrontonos" unicode="&#x38c;" horiz-adv-x="1120" 
d="M20 500l70 160h140l-100 -160h-110zM260 135v390c0 135 120 135 240 135h310c120 0 240 0 240 -135v-390c0 -135 -120 -135 -240 -135h-310c-120 0 -240 0 -240 135zM430 145c0 -35 30 -35 60 -35h330c30 0 60 0 60 35v370c0 35 -30 35 -60 35h-330c-30 0 -60 0 -60 -35
v-370z" />
    <glyph glyph-name="Upsilontonos" unicode="&#x38e;" horiz-adv-x="1140" 
d="M20 500l70 160h140l-100 -160h-110zM250 660h210l225 -225l225 225h210l-350 -350v-310h-170v310z" />
    <glyph glyph-name="Omegatonos" unicode="&#x38f;" horiz-adv-x="1060" 
d="M20 500l70 160h140l-100 -160h-110zM180 0v105h95c-45 45 -75 115 -75 215v40c0 235 150 300 350 300h90c200 0 350 -65 350 -300v-40c0 -100 -30 -170 -75 -215h95v-105h-365v105c110 0 175 40 175 200v50c0 160 -65 200 -175 200h-100c-110 0 -175 -40 -175 -200v-50
c0 -160 65 -200 175 -200v-105h-365z" />
    <glyph glyph-name="iotadieresistonos" unicode="&#x390;" horiz-adv-x="365" 
d="M65 115v365h160v-355c0 -30 25 -30 50 -30h30v-95h-40c-100 0 -200 0 -200 115zM-40 575v110h135v-110h-135zM205 575v110h135v-110h-135zM60 730l70 160h140l-100 -160h-110z" />
    <glyph glyph-name="Alpha" unicode="&#x391;" horiz-adv-x="930" 
d="M20 0l330 660h230l330 -660h-180l-95 190h-340l-95 -190h-180zM350 300h230l-115 230z" />
    <glyph glyph-name="Beta" unicode="&#x392;" horiz-adv-x="930" 
d="M70 0v660h540c120 0 240 0 240 -135v-60c0 -60 -40 -90 -80 -100c40 -10 90 -30 90 -100v-130c0 -135 -120 -135 -240 -135h-550zM240 110h390c30 0 60 0 60 35v125c0 35 -30 35 -60 35h-390v-195zM240 415h380c30 0 60 0 60 35v65c0 35 -30 35 -60 35h-380v-135z" />
    <glyph glyph-name="Gamma" unicode="&#x393;" horiz-adv-x="840" 
d="M70 0v660h740v-110h-570v-550h-170z" />
    <glyph glyph-name="Delta" unicode="&#x394;" horiz-adv-x="930" 
d="M20 0l330 660h230l330 -660h-890zM245 111h440l-220 439z" />
    <glyph glyph-name="Epsilon" unicode="&#x395;" horiz-adv-x="880" 
d="M70 0v660h740v-110h-570v-135h520v-110h-520v-195h570v-110h-740z" />
    <glyph glyph-name="Zeta" unicode="&#x396;" horiz-adv-x="880" 
d="M50 0v110l525 440h-505v110h740v-110l-525 -440h545v-110h-780z" />
    <glyph glyph-name="Eta" unicode="&#x397;" horiz-adv-x="930" 
d="M70 0v660h170v-245h450v245h170v-660h-170v305h-450v-305h-170z" />
    <glyph glyph-name="Theta" unicode="&#x398;" horiz-adv-x="930" 
d="M70 135v390c0 135 120 135 240 135h310c120 0 240 0 240 -135v-390c0 -135 -120 -135 -240 -135h-310c-120 0 -240 0 -240 135zM240 145c0 -35 30 -35 60 -35h330c30 0 60 0 60 35v370c0 35 -30 35 -60 35h-330c-30 0 -60 0 -60 -35v-370zM340 300v110h250v-110h-250z
" />
    <glyph glyph-name="Iota" unicode="&#x399;" horiz-adv-x="310" 
d="M70 0v660h170v-660h-170z" />
    <glyph glyph-name="Kappa" unicode="&#x39a;" horiz-adv-x="860" 
d="M70 0v660h170v-350l350 350h210l-310 -310l350 -350h-210l-245 245l-145 -145v-100h-170z" />
    <glyph glyph-name="Lambda" unicode="&#x39b;" horiz-adv-x="930" 
d="M20 0l330 660h230l330 -660h-170l-275 550l-275 -550h-170z" />
    <glyph glyph-name="Mu" unicode="&#x39c;" horiz-adv-x="1090" 
d="M70 0v660h225l250 -500l250 500h225v-660h-170v450l-225 -450h-160l-225 450v-450h-170z" />
    <glyph glyph-name="Nu" unicode="&#x39d;" horiz-adv-x="930" 
d="M70 0v660h190l430 -470v470h170v-660h-190l-430 470v-470h-170z" />
    <glyph glyph-name="Xi" unicode="&#x39e;" horiz-adv-x="930" 
d="M70 0v220h170v-110h450v110h170v-220h-790zM70 480v180h790v-180h-170v70h-450v-70h-170zM240 300v110h450v-110h-450z" />
    <glyph glyph-name="Omicron" unicode="&#x39f;" horiz-adv-x="930" 
d="M70 135v390c0 135 120 135 240 135h310c120 0 240 0 240 -135v-390c0 -135 -120 -135 -240 -135h-310c-120 0 -240 0 -240 135zM240 145c0 -35 30 -35 60 -35h330c30 0 60 0 60 35v370c0 35 -30 35 -60 35h-330c-30 0 -60 0 -60 -35v-370z" />
    <glyph glyph-name="Pi" unicode="&#x3a0;" horiz-adv-x="930" 
d="M70 0v660h790v-660h-170v550h-450v-550h-170z" />
    <glyph glyph-name="Rho" unicode="&#x3a1;" horiz-adv-x="930" 
d="M70 0v660h550c120 0 240 0 240 -135v-140c0 -135 -120 -135 -240 -135h-380v-250h-170zM240 360h390c30 0 60 0 60 35v120c0 35 -30 35 -60 35h-390v-190z" />
    <glyph glyph-name="Sigma" unicode="&#x3a3;" horiz-adv-x="880" 
d="M70 0v110l220 220l-220 220v110h740v-110h-530l220 -220l-220 -220h530v-110h-740z" />
    <glyph glyph-name="Tau" unicode="&#x3a4;" horiz-adv-x="910" 
d="M30 550v110h850v-110h-340v-550h-170v550h-340z" />
    <glyph glyph-name="Upsilon" unicode="&#x3a5;" horiz-adv-x="910" 
d="M20 660h210l225 -225l225 225h210l-350 -350v-310h-170v310z" />
    <glyph glyph-name="Phi" unicode="&#x3a6;" horiz-adv-x="1050" 
d="M70 210v240c0 135 120 135 240 135h130v75h170v-75h130c120 0 240 0 240 -135v-240c0 -135 -120 -135 -240 -135h-130v-75h-170v75h-130c-120 0 -240 0 -240 135zM240 220c0 -35 30 -35 60 -35h140v290h-140c-30 0 -60 0 -60 -35v-220zM610 185h140c30 0 60 0 60 35v220
c0 35 -30 35 -60 35h-140v-290z" />
    <glyph glyph-name="Chi" unicode="&#x3a7;" horiz-adv-x="910" 
d="M20 0l330 330l-330 330h210l225 -225l225 225h210l-330 -330l330 -330h-210l-225 225l-225 -225h-210z" />
    <glyph glyph-name="Psi" unicode="&#x3a8;" horiz-adv-x="1050" 
d="M70 330v330h170v-320c0 -35 30 -35 60 -35h140v355h170v-355h140c30 0 60 0 60 35v320h170v-330c0 -135 -120 -135 -240 -135h-130v-195h-170v195h-130c-120 0 -240 0 -240 135z" />
    <glyph glyph-name="Omega" unicode="&#x3a9;" horiz-adv-x="930" 
d="M50 0v105h95c-45 45 -75 115 -75 215v40c0 235 150 300 350 300h90c200 0 350 -65 350 -300v-40c0 -100 -30 -170 -75 -215h95v-105h-365v105c110 0 175 40 175 200v50c0 160 -65 200 -175 200h-100c-110 0 -175 -40 -175 -200v-50c0 -160 65 -200 175 -200v-105h-365z
" />
    <glyph glyph-name="Iotadieresis" unicode="&#x3aa;" horiz-adv-x="310" 
d="M-35 755v110h135v-110h-135zM210 755v110h135v-110h-135zM70 0v660h170v-660h-170z" />
    <glyph glyph-name="Upsilondieresis" unicode="&#x3ab;" horiz-adv-x="910" 
d="M265 755v110h135v-110h-135zM510 755v110h135v-110h-135zM20 660h210l225 -225l225 225h210l-350 -350v-310h-170v310z" />
    <glyph glyph-name="alphatonos" unicode="&#x3ac;" horiz-adv-x="790" 
d="M305 550l70 160h140l-100 -160h-110zM60 115v250c0 115 100 115 200 115h105c90 0 155 -20 208 -82l27 82h150l-75 -240l75 -240h-150l-27 82c-53 -62 -118 -82 -208 -82h-105c-100 0 -200 0 -200 115zM220 125c0 -30 25 -30 50 -30h95c75 0 125 50 164 145
c-39 95 -89 145 -164 145h-95c-25 0 -50 0 -50 -30v-230z" />
    <glyph glyph-name="epsilontonos" unicode="&#x3ad;" horiz-adv-x="700" 
d="M260 550l70 160h140l-100 -160h-110zM60 115v60c0 80 75 90 75 90s-75 10 -75 90v10c0 115 100 115 200 115h380v-95h-370c-25 0 -50 0 -50 -30v-25c0 -30 25 -30 50 -30h290v-95h-290c-25 0 -50 0 -50 -30v-50c0 -30 25 -30 50 -30h370v-95h-380c-100 0 -200 0 -200 115
z" />
    <glyph glyph-name="etatonos" unicode="&#x3ae;" 
d="M280 550l70 160h140l-100 -160h-110zM60 0v480h420c100 0 200 0 200 -115v-590h-160v580c0 30 -25 30 -50 30h-250v-385h-160z" />
    <glyph glyph-name="iotatonos" unicode="&#x3af;" horiz-adv-x="360" 
d="M80 550l70 160h140l-100 -160h-110zM60 115v365h160v-355c0 -30 25 -30 50 -30h30v-95h-40c-100 0 -200 0 -200 115z" />
    <glyph glyph-name="upsilondieresistonos" unicode="&#x3b0;" 
d="M180 575v110h135v-110h-135zM425 575v110h135v-110h-135zM280 730l70 160h140l-100 -160h-110zM60 115v365h160v-355c0 -30 25 -30 50 -30h120c65 0 130 0 130 75v310h160v-300c0 -180 -160 -180 -320 -180h-100c-100 0 -200 0 -200 115z" />
    <glyph glyph-name="alpha" unicode="&#x3b1;" horiz-adv-x="790" 
d="M60 115v250c0 115 100 115 200 115h105c90 0 155 -20 208 -82l27 82h150l-75 -240l75 -240h-150l-27 82c-53 -62 -118 -82 -208 -82h-105c-100 0 -200 0 -200 115zM220 125c0 -30 25 -30 50 -30h95c75 0 125 50 164 145c-39 95 -89 145 -164 145h-95c-25 0 -50 0 -50 -30
v-230z" />
    <glyph glyph-name="beta" unicode="&#x3b2;" 
d="M60 -225v770c0 115 100 115 200 115h180c100 0 200 0 200 -115v-95c0 -65 -30 -85 -70 -90c40 -5 110 -15 110 -105v-140c0 -115 -100 -115 -200 -115h-260v-225h-160zM220 95h250c25 0 50 0 50 30v150c0 30 -25 30 -50 30h-170v95h130c25 0 50 0 50 30v105
c0 30 -25 30 -50 30h-160c-25 0 -50 0 -50 -30v-440z" />
    <glyph glyph-name="gamma" unicode="&#x3b3;" horiz-adv-x="720" 
d="M20 480h170l170 -340l170 340h170l-260 -520v-185h-160v185z" />
    <glyph glyph-name="delta" unicode="&#x3b4;" 
d="M60 115v190c0 115 100 115 200 115h130l-290 135v105h540v-95h-290l220 -100c102 -46 110 -105 110 -160v-190c0 -115 -100 -115 -200 -115h-220c-100 0 -200 0 -200 115zM220 125c0 -30 25 -30 50 -30h200c25 0 50 0 50 30v170c0 30 -25 30 -50 30h-200
c-25 0 -50 0 -50 -30v-170z" />
    <glyph glyph-name="epsilon" unicode="&#x3b5;" horiz-adv-x="700" 
d="M60 115v60c0 80 75 90 75 90s-75 10 -75 90v10c0 115 100 115 200 115h380v-95h-370c-25 0 -50 0 -50 -30v-25c0 -30 25 -30 50 -30h290v-95h-290c-25 0 -50 0 -50 -30v-50c0 -30 25 -30 50 -30h370v-95h-380c-100 0 -200 0 -200 115z" />
    <glyph glyph-name="zeta" unicode="&#x3b6;" horiz-adv-x="700" 
d="M60 115v120c0 75 0 90 90 150l270 180h-320v95h510v-105l-330 -220c-60 -40 -60 -40 -60 -100v-110c0 -30 25 -30 50 -30h170c100 0 200 0 200 -115c0 -140 -100 -190 -220 -205v85c70 20 100 55 100 105c0 35 -30 35 -60 35h-200c-100 0 -200 0 -200 115z" />
    <glyph glyph-name="eta" unicode="&#x3b7;" 
d="M60 0v480h420c100 0 200 0 200 -115v-590h-160v580c0 30 -25 30 -50 30h-250v-385h-160z" />
    <glyph glyph-name="theta" unicode="&#x3b8;" 
d="M60 115v430c0 115 100 115 200 115h220c100 0 200 0 200 -115v-430c0 -115 -100 -115 -200 -115h-220c-100 0 -200 0 -200 115zM220 125c0 -30 25 -30 50 -30h200c25 0 50 0 50 30v180h-300v-180zM220 400h300v135c0 30 -25 30 -50 30h-200c-25 0 -50 0 -50 -30v-135z
" />
    <glyph glyph-name="iota" unicode="&#x3b9;" horiz-adv-x="360" 
d="M60 115v365h160v-355c0 -30 25 -30 50 -30h30v-95h-40c-100 0 -200 0 -200 115z" />
    <glyph glyph-name="kappa" unicode="&#x3ba;" horiz-adv-x="670" 
d="M60 0v480h160v-220l220 220h190l-230 -230l250 -250h-190l-155 155l-85 -85v-70h-160z" />
    <glyph glyph-name="lambda" unicode="&#x3bb;" horiz-adv-x="670" 
d="M20 0h170l145 290l145 -290h170l-280 560c-30 60 -55 100 -150 100h-150v-95h80c45 0 50 -5 65 -35l35 -70z" />
    <glyph glyph-name="mu" unicode="&#x3bc;" 
d="M60 -225v705h160v-355c0 -30 25 -30 50 -30h200c25 0 50 0 50 30v355h160v-365c0 -115 -100 -115 -200 -115h-260v-225h-160z" />
    <glyph glyph-name="nu" unicode="&#x3bd;" horiz-adv-x="720" 
d="M20 480h170l170 -340l170 340h170l-240 -480h-200z" />
    <glyph glyph-name="xi" unicode="&#x3be;" horiz-adv-x="700" 
d="M60 115v155c0 55 35 80 75 90c-40 10 -75 35 -75 90v95c0 115 100 115 200 115h380v-95h-370c-25 0 -50 0 -50 -30v-110c0 -25 35 -25 60 -25h280v-95h-290c-25 0 -50 0 -50 -25v-155c0 -30 25 -30 50 -30h170c100 0 200 0 200 -115c0 -140 -100 -190 -220 -205v85
c70 20 100 55 100 105c0 35 -30 35 -60 35h-200c-100 0 -200 0 -200 115z" />
    <glyph glyph-name="omicron" unicode="&#x3bf;" 
d="M60 115v250c0 115 100 115 200 115h220c100 0 200 0 200 -115v-250c0 -115 -100 -115 -200 -115h-220c-100 0 -200 0 -200 115zM220 125c0 -30 25 -30 50 -30h200c25 0 50 0 50 30v230c0 30 -25 30 -50 30h-200c-25 0 -50 0 -50 -30v-230z" />
    <glyph glyph-name="pi" unicode="&#x3c0;" horiz-adv-x="860" 
d="M60 385v95h740v-95h-140v-385h-160v385h-140v-385h-160v385h-140z" />
    <glyph glyph-name="rho" unicode="&#x3c1;" 
d="M60 -225v590c0 115 100 115 200 115h220c100 0 200 0 200 -115v-250c0 -115 -100 -115 -200 -115h-260v-225h-160zM220 95h250c25 0 50 0 50 30v230c0 30 -25 30 -50 30h-200c-25 0 -50 0 -50 -30v-260z" />
    <glyph glyph-name="sigma1" unicode="&#x3c2;" horiz-adv-x="700" 
d="M60 115v250c0 115 100 115 200 115h380v-95h-370c-25 0 -50 0 -50 -30v-230c0 -30 25 -30 50 -30h170c100 0 200 0 200 -115c0 -140 -100 -190 -220 -205v85c70 20 100 55 100 105c0 35 -30 35 -60 35h-200c-100 0 -200 0 -200 115z" />
    <glyph glyph-name="sigma" unicode="&#x3c3;" horiz-adv-x="880" 
d="M60 115v250c0 115 100 115 200 115h560v-95h-140v-270c0 -115 -100 -115 -200 -115h-220c-100 0 -200 0 -200 115zM220 125c0 -30 25 -30 50 -30h200c25 0 50 0 50 30v230c0 30 -25 30 -50 30h-200c-25 0 -50 0 -50 -30v-230z" />
    <glyph glyph-name="tau" unicode="&#x3c4;" horiz-adv-x="720" 
d="M520 0h-40c-100 0 -200 0 -200 115v270h-220v95h600v-95h-220v-260c0 -30 25 -30 50 -30h30v-95z" />
    <glyph glyph-name="upsilon" unicode="&#x3c5;" 
d="M60 115v365h160v-355c0 -30 25 -30 50 -30h120c65 0 130 0 130 75v310h160v-300c0 -180 -160 -180 -320 -180h-100c-100 0 -200 0 -200 115z" />
    <glyph glyph-name="phi" unicode="&#x3c6;" horiz-adv-x="960" 
d="M60 115v345h160v-335c0 -30 25 -30 50 -30h130v270c0 115 100 115 200 115h100c100 0 200 0 200 -115v-250c0 -115 -100 -115 -200 -115h-140v-225h-160v225h-140c-100 0 -200 0 -200 115zM560 95h130c25 0 50 0 50 30v230c0 30 -25 30 -50 30h-80c-25 0 -50 0 -50 -30
v-260z" />
    <glyph glyph-name="chi" unicode="&#x3c7;" horiz-adv-x="690" 
d="M20 -225l235 353l-235 352h180l145 -218l145 218h180l-235 -352l235 -353h-180l-145 218l-145 -218h-180z" />
    <glyph glyph-name="psi" unicode="&#x3c8;" horiz-adv-x="960" 
d="M60 115v365h160v-355c0 -30 25 -30 50 -30h130v385h160v-385h130c25 0 50 0 50 30v355h160v-365c0 -115 -100 -115 -200 -115h-140v-225h-160v225h-140c-100 0 -200 0 -200 115z" />
    <glyph glyph-name="omega" unicode="&#x3c9;" horiz-adv-x="1000" 
d="M60 115v140c0 205 180 220 270 225v-95c-90 -15 -110 -70 -110 -130v-130c0 -30 25 -30 50 -30h100c25 0 50 0 50 30v175h160v-175c0 -30 25 -30 50 -30h100c25 0 50 0 50 30v130c0 60 -20 115 -110 130v95c90 -5 270 -20 270 -225v-140c0 -115 -100 -115 -200 -115h-480
c-100 0 -200 0 -200 115z" />
    <glyph glyph-name="iotadieresis" unicode="&#x3ca;" horiz-adv-x="370" 
d="M-35 575v110h135v-110h-135zM210 575v110h135v-110h-135zM70 115v365h160v-355c0 -30 25 -30 50 -30h30v-95h-40c-100 0 -200 0 -200 115z" />
    <glyph glyph-name="upsilondieresis" unicode="&#x3cb;" 
d="M180 575v110h135v-110h-135zM425 575v110h135v-110h-135zM60 115v365h160v-355c0 -30 25 -30 50 -30h120c65 0 130 0 130 75v310h160v-300c0 -180 -160 -180 -320 -180h-100c-100 0 -200 0 -200 115z" />
    <glyph glyph-name="omicrontonos" unicode="&#x3cc;" 
d="M280 550l70 160h140l-100 -160h-110zM60 115v250c0 115 100 115 200 115h220c100 0 200 0 200 -115v-250c0 -115 -100 -115 -200 -115h-220c-100 0 -200 0 -200 115zM220 125c0 -30 25 -30 50 -30h200c25 0 50 0 50 30v230c0 30 -25 30 -50 30h-200c-25 0 -50 0 -50 -30
v-230z" />
    <glyph glyph-name="upsilontonos" unicode="&#x3cd;" 
d="M280 550l70 160h140l-100 -160h-110zM60 115v365h160v-355c0 -30 25 -30 50 -30h120c65 0 130 0 130 75v310h160v-300c0 -180 -160 -180 -320 -180h-100c-100 0 -200 0 -200 115z" />
    <glyph glyph-name="omegatonos" unicode="&#x3ce;" horiz-adv-x="1000" 
d="M410 550l70 160h140l-100 -160h-110zM60 115v140c0 205 180 220 270 225v-95c-90 -15 -110 -70 -110 -130v-130c0 -30 25 -30 50 -30h100c25 0 50 0 50 30v175h160v-175c0 -30 25 -30 50 -30h100c25 0 50 0 50 30v130c0 60 -20 115 -110 130v95c90 -5 270 -20 270 -225
v-140c0 -115 -100 -115 -200 -115h-480c-100 0 -200 0 -200 115z" />
    <glyph glyph-name="uni0400" unicode="&#x400;" horiz-adv-x="880" 
d="M270 890h170l100 -160h-110zM70 0v660h740v-110h-570v-135h520v-110h-520v-195h570v-110h-740z" />
    <glyph glyph-name="afii10023" unicode="&#x401;" horiz-adv-x="880" 
d="M250 755v110h135v-110h-135zM495 755v110h135v-110h-135zM70 0v660h740v-110h-570v-135h520v-110h-520v-195h570v-110h-740z" />
    <glyph glyph-name="afii10051" unicode="&#x402;" horiz-adv-x="1180" 
d="M30 550v110h850v-110h-340v-135h330c120 0 240 0 240 -135v-220c0 -265 -220 -280 -320 -285v110c65 10 150 35 150 175v210c0 35 -30 35 -60 35h-340v-305h-170v550h-340z" />
    <glyph glyph-name="afii10052" unicode="&#x403;" horiz-adv-x="840" 
d="M320 730l100 160h170l-160 -160h-110zM70 0v660h740v-110h-570v-550h-170z" />
    <glyph glyph-name="afii10053" unicode="&#x404;" horiz-adv-x="930" 
d="M70 180v300c0 180 160 180 320 180h150c160 0 320 0 320 -180h-170c-5 70 -65 70 -130 70h-190c-65 0 -130 0 -130 -75v-60h375v-110h-375v-120c0 -75 65 -75 130 -75h190c65 0 125 0 130 70h170c0 -180 -160 -180 -320 -180h-150c-160 0 -320 0 -320 180z" />
    <glyph glyph-name="afii10054" unicode="&#x405;" horiz-adv-x="930" 
d="M70 0v110h560c30 0 60 0 60 35v125c0 35 -30 35 -60 35h-320c-120 0 -240 0 -240 135v85c0 135 120 135 240 135h500v-110h-510c-30 0 -60 0 -60 -35v-65c0 -35 30 -35 60 -35h320c120 0 240 0 240 -135v-145c0 -135 -120 -135 -240 -135h-550z" />
    <glyph glyph-name="afii10055" unicode="&#x406;" horiz-adv-x="310" 
d="M70 0v660h170v-660h-170z" />
    <glyph glyph-name="afii10056" unicode="&#x407;" horiz-adv-x="340" 
d="M-20 755v110h135v-110h-135zM225 755v110h135v-110h-135zM85 0v660h170v-660h-170z" />
    <glyph glyph-name="afii10057" unicode="&#x408;" horiz-adv-x="930" 
d="M70 135v120h170v-110c0 -35 30 -35 60 -35h330c30 0 60 0 60 35v515h170v-525c0 -135 -120 -135 -240 -135h-310c-120 0 -240 0 -240 135z" />
    <glyph glyph-name="afii10058" unicode="&#x409;" horiz-adv-x="1370" 
d="M40 0v110c65 10 150 35 150 175v375h540v-250h330c120 0 240 0 240 -135v-140c0 -135 -120 -135 -240 -135h-500v550h-200v-265c0 -265 -220 -280 -320 -285zM730 110h340c30 0 60 0 60 35v120c0 35 -30 35 -60 35h-340v-190z" />
    <glyph glyph-name="afii10059" unicode="&#x40a;" horiz-adv-x="1450" 
d="M70 0v660h170v-245h400v245h170v-245h330c120 0 240 0 240 -135v-145c0 -135 -120 -135 -240 -135h-500v305h-400v-305h-170zM810 110h340c30 0 60 0 60 35v125c0 35 -30 35 -60 35h-340v-195z" />
    <glyph glyph-name="afii10060" unicode="&#x40b;" horiz-adv-x="1180" 
d="M30 550v110h850v-110h-340v-135h330c120 0 240 0 240 -135v-280h-170v270c0 35 -30 35 -60 35h-340v-305h-170v550h-340z" />
    <glyph glyph-name="afii10061" unicode="&#x40c;" horiz-adv-x="860" 
d="M330 730l100 160h170l-160 -160h-110zM70 0v660h170v-350l350 350h210l-310 -310l350 -350h-210l-245 245l-145 -145v-100h-170z" />
    <glyph glyph-name="uni040D" unicode="&#x40d;" horiz-adv-x="930" 
d="M295 890h170l100 -160h-110zM70 0v660h170v-470l430 470h190v-660h-170v470l-430 -470h-190z" />
    <glyph glyph-name="afii10062" unicode="&#x40e;" horiz-adv-x="840" 
d="M250 890h95c0 -41 34 -75 75 -75s75 34 75 75h95c0 -88 -76 -160 -170 -160s-170 72 -170 160zM20 660h190l210 -315l210 315h190l-380 -570c-40 -60 -60 -90 -150 -90h-170v110h105c35 0 45 10 75 55l26 39z" />
    <glyph glyph-name="afii10145" unicode="&#x40f;" horiz-adv-x="930" 
d="M70 0v660h170v-550h450v550h170v-660h-320v-150h-150v150h-320z" />
    <glyph glyph-name="afii10017" unicode="&#x410;" horiz-adv-x="930" 
d="M20 0l330 660h230l330 -660h-180l-95 190h-340l-95 -190h-180zM350 300h230l-115 230z" />
    <glyph glyph-name="afii10018" unicode="&#x411;" horiz-adv-x="930" 
d="M70 0v660h740v-110h-570v-135h380c120 0 240 0 240 -135v-145c0 -135 -120 -135 -240 -135h-550zM240 110h390c30 0 60 0 60 35v120c0 35 -30 35 -60 35h-390v-190z" />
    <glyph glyph-name="afii10019" unicode="&#x412;" horiz-adv-x="930" 
d="M70 0v660h540c120 0 240 0 240 -135v-60c0 -60 -40 -90 -80 -100c40 -10 90 -30 90 -100v-130c0 -135 -120 -135 -240 -135h-550zM240 110h390c30 0 60 0 60 35v125c0 35 -30 35 -60 35h-390v-195zM240 415h380c30 0 60 0 60 35v65c0 35 -30 35 -60 35h-380v-135z" />
    <glyph glyph-name="afii10020" unicode="&#x413;" horiz-adv-x="840" 
d="M70 0v660h740v-110h-570v-550h-170z" />
    <glyph glyph-name="afii10021" unicode="&#x414;" horiz-adv-x="1060" 
d="M40 110c145 0 220 40 220 175v375h640v-550h120v-260h-150v150h-680v-150h-150v260zM380 110h350v440h-300v-265c0 -85 -20 -130 -50 -175z" />
    <glyph glyph-name="afii10022" unicode="&#x415;" horiz-adv-x="880" 
d="M70 0v660h740v-110h-570v-135h520v-110h-520v-195h570v-110h-740z" />
    <glyph glyph-name="afii10024" unicode="&#x416;" horiz-adv-x="1230" 
d="M20 0l350 350l-310 310h210l260 -260v260h170v-260l260 260h210l-310 -310l350 -350h-210l-245 245l-55 -55v-190h-170v190l-55 55l-245 -245h-210z" />
    <glyph glyph-name="afii10025" unicode="&#x417;" horiz-adv-x="880" 
d="M70 0v110h510c30 0 60 0 60 35v125c0 35 -30 35 -60 35h-420v110h420c30 0 60 0 60 35v65c0 35 -30 35 -60 35h-510v110h500c120 0 240 0 240 -135v-60c0 -60 -40 -90 -80 -100c40 -10 80 -40 80 -100v-130c0 -135 -120 -135 -240 -135h-500z" />
    <glyph glyph-name="afii10026" unicode="&#x418;" horiz-adv-x="930" 
d="M70 0v660h170v-470l430 470h190v-660h-170v470l-430 -470h-190z" />
    <glyph glyph-name="afii10027" unicode="&#x419;" horiz-adv-x="930" 
d="M295 890h95c0 -41 34 -75 75 -75s75 34 75 75h95c0 -88 -76 -160 -170 -160s-170 72 -170 160zM70 0v660h170v-470l430 470h190v-660h-170v470l-430 -470h-190z" />
    <glyph glyph-name="afii10028" unicode="&#x41a;" horiz-adv-x="860" 
d="M70 0v660h170v-350l350 350h210l-310 -310l350 -350h-210l-245 245l-145 -145v-100h-170z" />
    <glyph glyph-name="afii10029" unicode="&#x41b;" horiz-adv-x="950" 
d="M40 0v110c65 10 150 35 150 175v375h690v-660h-170v550h-350v-265c0 -265 -220 -280 -320 -285z" />
    <glyph glyph-name="afii10030" unicode="&#x41c;" horiz-adv-x="1090" 
d="M70 0v660h225l250 -500l250 500h225v-660h-170v450l-225 -450h-160l-225 450v-450h-170z" />
    <glyph glyph-name="afii10031" unicode="&#x41d;" horiz-adv-x="930" 
d="M70 0v660h170v-245h450v245h170v-660h-170v305h-450v-305h-170z" />
    <glyph glyph-name="afii10032" unicode="&#x41e;" horiz-adv-x="930" 
d="M70 135v390c0 135 120 135 240 135h310c120 0 240 0 240 -135v-390c0 -135 -120 -135 -240 -135h-310c-120 0 -240 0 -240 135zM240 145c0 -35 30 -35 60 -35h330c30 0 60 0 60 35v370c0 35 -30 35 -60 35h-330c-30 0 -60 0 -60 -35v-370z" />
    <glyph glyph-name="afii10033" unicode="&#x41f;" horiz-adv-x="930" 
d="M70 0v660h790v-660h-170v550h-450v-550h-170z" />
    <glyph glyph-name="afii10034" unicode="&#x420;" horiz-adv-x="930" 
d="M70 0v660h550c120 0 240 0 240 -135v-140c0 -135 -120 -135 -240 -135h-380v-250h-170zM240 360h390c30 0 60 0 60 35v120c0 35 -30 35 -60 35h-390v-190z" />
    <glyph glyph-name="afii10035" unicode="&#x421;" horiz-adv-x="880" 
d="M70 135v390c0 135 120 135 240 135h500v-110h-510c-30 0 -60 0 -60 -35v-370c0 -35 30 -35 60 -35h510v-110h-500c-120 0 -240 0 -240 135z" />
    <glyph glyph-name="afii10036" unicode="&#x422;" horiz-adv-x="910" 
d="M30 550v110h850v-110h-340v-550h-170v550h-340z" />
    <glyph glyph-name="afii10037" unicode="&#x423;" horiz-adv-x="840" 
d="M20 660h190l210 -315l210 315h190l-380 -570c-40 -60 -60 -90 -150 -90h-170v110h105c35 0 45 10 75 55l26 39z" />
    <glyph glyph-name="afii10038" unicode="&#x424;" horiz-adv-x="1050" 
d="M70 210v240c0 135 120 135 240 135h130v75h170v-75h130c120 0 240 0 240 -135v-240c0 -135 -120 -135 -240 -135h-130v-75h-170v75h-130c-120 0 -240 0 -240 135zM240 220c0 -35 30 -35 60 -35h140v290h-140c-30 0 -60 0 -60 -35v-220zM610 185h140c30 0 60 0 60 35v220
c0 35 -30 35 -60 35h-140v-290z" />
    <glyph glyph-name="afii10039" unicode="&#x425;" horiz-adv-x="910" 
d="M20 0l330 330l-330 330h210l225 -225l225 225h210l-330 -330l330 -330h-210l-225 225l-225 -225h-210z" />
    <glyph glyph-name="afii10040" unicode="&#x426;" horiz-adv-x="1020" 
d="M70 0v660h170v-550h450v550h170v-550h120v-260h-150v150h-760z" />
    <glyph glyph-name="afii10041" unicode="&#x427;" horiz-adv-x="930" 
d="M70 385v275h170v-265c0 -35 30 -35 60 -35h390v300h170v-660h-170v250h-380c-120 0 -240 0 -240 135z" />
    <glyph glyph-name="afii10042" unicode="&#x428;" horiz-adv-x="1150" 
d="M70 0v660h170v-550h250v550h170v-550h250v550h170v-660h-1010z" />
    <glyph glyph-name="afii10043" unicode="&#x429;" horiz-adv-x="1240" 
d="M70 0v660h170v-550h250v550h170v-550h250v550h170v-550h120v-260h-150v150h-980z" />
    <glyph glyph-name="afii10044" unicode="&#x42a;" horiz-adv-x="1080" 
d="M30 550v110h410v-245h330c120 0 240 0 240 -135v-145c0 -135 -120 -135 -240 -135h-500v550h-240zM440 110h340c30 0 60 0 60 35v125c0 35 -30 35 -60 35h-340v-195z" />
    <glyph glyph-name="afii10045" unicode="&#x42b;" horiz-adv-x="1150" 
d="M70 0v660h170v-245h330c120 0 240 0 240 -135v-145c0 -135 -120 -135 -240 -135h-500zM240 110h340c30 0 60 0 60 35v125c0 35 -30 35 -60 35h-340v-195zM910 0v660h170v-660h-170z" />
    <glyph glyph-name="afii10046" unicode="&#x42c;" horiz-adv-x="880" 
d="M70 0v660h170v-245h330c120 0 240 0 240 -135v-145c0 -135 -120 -135 -240 -135h-500zM240 110h340c30 0 60 0 60 35v125c0 35 -30 35 -60 35h-340v-195z" />
    <glyph glyph-name="afii10047" unicode="&#x42d;" horiz-adv-x="930" 
d="M70 180h170c5 -70 65 -70 130 -70h190c65 0 130 0 130 75v120h-375v110h375v60c0 75 -65 75 -130 75h-190c-65 0 -125 0 -130 -70h-170c0 180 160 180 320 180h150c160 0 320 0 320 -180v-300c0 -180 -160 -180 -320 -180h-150c-160 0 -320 0 -320 180z" />
    <glyph glyph-name="afii10048" unicode="&#x42e;" horiz-adv-x="1250" 
d="M70 0v660h170v-275h150v140c0 135 120 135 240 135h310c120 0 240 0 240 -135v-390c0 -135 -120 -135 -240 -135h-310c-120 0 -240 0 -240 135v140h-150v-275h-170zM560 145c0 -35 30 -35 60 -35h330c30 0 60 0 60 35v370c0 35 -30 35 -60 35h-330c-30 0 -60 0 -60 -35
v-370z" />
    <glyph glyph-name="afii10049" unicode="&#x42f;" horiz-adv-x="930" 
d="M30 0l270 270c-110 0 -230 0 -230 135v120c0 135 120 135 240 135h550v-660h-170v270h-180l-270 -270h-210zM240 415c0 -35 30 -35 60 -35h390v170h-390c-30 0 -60 0 -60 -35v-100z" />
    <glyph glyph-name="afii10065" unicode="&#x430;" 
d="M60 115v70c0 115 100 115 200 115h260v55c0 30 -25 30 -50 30h-370v95h380c100 0 200 0 200 -115v-365h-420c-100 0 -200 0 -200 115zM220 125c0 -30 25 -30 50 -30h250v110h-250c-25 0 -50 0 -50 -30v-50z" />
    <glyph glyph-name="afii10066" unicode="&#x431;" 
d="M60 115v310c0 195 90 235 580 235v-80c-240 0 -420 -20 -420 -100h260c100 0 200 0 200 -115v-250c0 -115 -100 -115 -200 -115h-220c-100 0 -200 0 -200 115zM220 125c0 -30 25 -30 50 -30h200c25 0 50 0 50 30v230c0 30 -25 30 -50 30h-200c-25 0 -50 0 -50 -30v-230z
" />
    <glyph glyph-name="afii10067" unicode="&#x432;" 
d="M60 0v480h410c100 0 200 0 200 -100v-35c0 -55 -25 -80 -65 -90c40 -10 75 -35 75 -90v-65c0 -100 -100 -100 -200 -100h-420zM220 95h250c25 0 50 0 50 25v60c0 25 -25 25 -50 25h-250v-110zM220 300h240c25 0 50 0 50 25v35c0 25 -25 25 -50 25h-240v-85z" />
    <glyph glyph-name="afii10068" unicode="&#x433;" horiz-adv-x="700" 
d="M60 0v480h580v-95h-420v-385h-160z" />
    <glyph glyph-name="afii10069" unicode="&#x434;" horiz-adv-x="870" 
d="M30 95c135 0 200 21 200 130v255h520v-385h90v-220h-130v125h-550v-125h-130v220zM353 95h237v290h-200v-160c0 -53 -10 -93 -37 -130z" />
    <glyph glyph-name="afii10070" unicode="&#x435;" 
d="M60 115v250c0 115 100 115 200 115h220c100 0 200 0 200 -115v-160h-460v-80c0 -30 25 -30 50 -30h390v-95h-400c-100 0 -200 0 -200 115zM220 300h300v55c0 30 -25 30 -50 30h-200c-25 0 -50 0 -50 -30v-55z" />
    <glyph glyph-name="afii10072" unicode="&#x436;" horiz-adv-x="980" 
d="M20 0l250 250l-230 230h190l180 -180v180h160v-180l180 180h190l-230 -230l250 -250h-190l-155 155l-45 -45v-110h-160v110l-45 45l-155 -155h-190z" />
    <glyph glyph-name="afii10073" unicode="&#x437;" horiz-adv-x="700" 
d="M60 0v95h370c25 0 50 0 50 30v50c0 30 -25 30 -50 30h-290v95h290c25 0 50 0 50 30v25c0 30 -25 30 -50 30h-370v95h380c100 0 200 0 200 -115v-15c0 -55 -35 -80 -75 -90c40 -10 75 -35 75 -90v-55c0 -115 -100 -115 -200 -115h-380z" />
    <glyph glyph-name="afii10074" unicode="&#x438;" 
d="M60 0v480h160v-305l280 305h180v-480h-160v305l-280 -305h-180z" />
    <glyph glyph-name="afii10075" unicode="&#x439;" 
d="M200 710h95c0 -41 34 -75 75 -75s75 34 75 75h95c0 -88 -76 -160 -170 -160s-170 72 -170 160zM60 0v480h160v-305l280 305h180v-480h-160v305l-280 -305h-180z" />
    <glyph glyph-name="afii10076" unicode="&#x43a;" horiz-adv-x="670" 
d="M60 0v480h160v-220l220 220h190l-230 -230l250 -250h-190l-155 155l-85 -85v-70h-160z" />
    <glyph glyph-name="afii10077" unicode="&#x43b;" horiz-adv-x="720" 
d="M30 0v95c90 15 110 70 110 130v255h520v-480h-160v385h-200v-160c0 -205 -180 -220 -270 -225z" />
    <glyph glyph-name="afii10078" unicode="&#x43c;" horiz-adv-x="910" 
d="M60 0v480h225l170 -340l170 340h225v-480h-160v320l-160 -320h-150l-160 320v-320h-160z" />
    <glyph glyph-name="afii10079" unicode="&#x43d;" 
d="M60 0v480h160v-180h300v180h160v-480h-160v205h-300v-205h-160z" />
    <glyph glyph-name="afii10080" unicode="&#x43e;" 
d="M60 115v250c0 115 100 115 200 115h220c100 0 200 0 200 -115v-250c0 -115 -100 -115 -200 -115h-220c-100 0 -200 0 -200 115zM220 125c0 -30 25 -30 50 -30h200c25 0 50 0 50 30v230c0 30 -25 30 -50 30h-200c-25 0 -50 0 -50 -30v-230z" />
    <glyph glyph-name="afii10081" unicode="&#x43f;" 
d="M60 0v480h620v-480h-160v385h-300v-385h-160z" />
    <glyph glyph-name="afii10082" unicode="&#x440;" 
d="M60 -225v705h420c100 0 200 0 200 -115v-250c0 -115 -100 -115 -200 -115h-260v-225h-160zM220 95h250c25 0 50 0 50 30v230c0 30 -25 30 -50 30h-250v-290z" />
    <glyph glyph-name="afii10083" unicode="&#x441;" horiz-adv-x="700" 
d="M60 115v250c0 115 100 115 200 115h380v-95h-370c-25 0 -50 0 -50 -30v-230c0 -30 25 -30 50 -30h370v-95h-380c-100 0 -200 0 -200 115z" />
    <glyph glyph-name="afii10084" unicode="&#x442;" horiz-adv-x="720" 
d="M60 385v95h600v-95h-220v-385h-160v385h-220z" />
    <glyph glyph-name="afii10085" unicode="&#x443;" horiz-adv-x="720" 
d="M20 480h170l170 -340l170 340h170l-300 -600c-30 -60 -55 -105 -150 -105h-170v95h100c45 0 50 10 65 40l30 60z" />
    <glyph glyph-name="afii10086" unicode="&#x444;" horiz-adv-x="1000" 
d="M60 115v250c0 115 100 115 200 115h160v180h160v-180h160c100 0 200 0 200 -115v-250c0 -115 -100 -115 -200 -115h-160v-225h-160v225h-160c-100 0 -200 0 -200 115zM220 125c0 -30 25 -30 50 -30h150v290h-150c-25 0 -50 0 -50 -30v-230zM580 95h150c25 0 50 0 50 30
v230c0 30 -25 30 -50 30h-150v-290z" />
    <glyph glyph-name="afii10087" unicode="&#x445;" horiz-adv-x="710" 
d="M690 0h-190l-145 145l-145 -145h-190l240 240l-240 240h190l145 -145l145 145h190l-240 -240z" />
    <glyph glyph-name="afii10088" unicode="&#x446;" horiz-adv-x="800" 
d="M60 0v480h160v-385h300v385h160v-385h90v-220h-130v125h-580z" />
    <glyph glyph-name="afii10089" unicode="&#x447;" 
d="M60 290v190h160v-180c0 -30 25 -30 50 -30h250v210h160v-480h-160v175h-260c-100 0 -200 0 -200 115z" />
    <glyph glyph-name="afii10090" unicode="&#x448;" horiz-adv-x="960" 
d="M60 0v480h160v-385h180v385h160v-385h180v385h160v-480h-840z" />
    <glyph glyph-name="afii10091" unicode="&#x449;" horiz-adv-x="1020" 
d="M60 0v480h160v-385h180v385h160v-385h180v385h160v-385h90v-220h-130v125h-800z" />
    <glyph glyph-name="afii10092" unicode="&#x44a;" horiz-adv-x="860" 
d="M60 385v95h320v-180h220c100 0 200 0 200 -115v-70c0 -115 -100 -115 -200 -115h-380v385h-160zM380 95h210c25 0 50 0 50 30v50c0 30 -25 30 -50 30h-210v-110z" />
    <glyph glyph-name="afii10093" unicode="&#x44b;" horiz-adv-x="960" 
d="M60 0v480h160v-180h220c100 0 200 0 200 -115v-70c0 -115 -100 -115 -200 -115h-380zM220 95h210c25 0 50 0 50 30v50c0 30 -25 30 -50 30h-210v-110zM740 0v480h160v-480h-160z" />
    <glyph glyph-name="afii10094" unicode="&#x44c;" horiz-adv-x="700" 
d="M60 0v480h160v-180h220c100 0 200 0 200 -115v-70c0 -115 -100 -115 -200 -115h-380zM220 95h210c25 0 50 0 50 30v50c0 30 -25 30 -50 30h-210v-110z" />
    <glyph glyph-name="afii10095" unicode="&#x44d;" 
d="M60 150h160c0 -55 50 -55 100 -55h100c50 0 100 0 100 55v55h-230v95h230v30c0 55 -50 55 -100 55h-100c-50 0 -100 0 -100 -55h-160c5 150 140 150 280 150h60c145 0 280 0 280 -160v-160c0 -160 -140 -160 -280 -160h-60c-140 0 -275 0 -280 150z" />
    <glyph glyph-name="afii10096" unicode="&#x44e;" horiz-adv-x="1040" 
d="M60 0v480h160v-200h140v85c0 115 100 115 200 115h220c100 0 200 0 200 -115v-250c0 -115 -100 -115 -200 -115h-220c-100 0 -200 0 -200 115v70h-140v-185h-160zM520 105c0 -30 25 -30 50 -30h200c25 0 50 0 50 30v270c0 30 -25 30 -50 30h-200c-25 0 -50 0 -50 -30
v-270z" />
    <glyph glyph-name="afii10097" unicode="&#x44f;" 
d="M40 0l195 195c-90 0 -175 10 -175 115v55c0 115 100 115 200 115h420v-480h-160v195h-95l-195 -195h-190zM220 320c0 -30 25 -30 50 -30h250v95h-250c-25 0 -50 0 -50 -30v-35z" />
    <glyph glyph-name="uni0450" unicode="&#x450;" 
d="M200 710h170l100 -160h-110zM60 115v250c0 115 100 115 200 115h220c100 0 200 0 200 -115v-160h-460v-80c0 -30 25 -30 50 -30h390v-95h-400c-100 0 -200 0 -200 115zM220 300h300v55c0 30 -25 30 -50 30h-200c-25 0 -50 0 -50 -30v-55z" />
    <glyph glyph-name="afii10071" unicode="&#x451;" 
d="M180 575v110h135v-110h-135zM425 575v110h135v-110h-135zM60 115v250c0 115 100 115 200 115h220c100 0 200 0 200 -115v-160h-460v-80c0 -30 25 -30 50 -30h390v-95h-400c-100 0 -200 0 -200 115zM220 300h300v55c0 30 -25 30 -50 30h-200c-25 0 -50 0 -50 -30v-55z" />
    <glyph glyph-name="afii10099" unicode="&#x452;" horiz-adv-x="780" 
d="M20 505v80h80v75h160v-75h220v-80h-220v-100h260c100 0 200 0 200 -100v-305c0 -205 -180 -220 -270 -225v95c90 15 110 70 110 130v285c0 25 -25 25 -50 25h-250v-310h-160v505h-80z" />
    <glyph glyph-name="afii10100" unicode="&#x453;" horiz-adv-x="700" 
d="M250 550l100 160h170l-160 -160h-110zM60 0v480h580v-95h-420v-385h-160z" />
    <glyph glyph-name="afii10101" unicode="&#x454;" 
d="M60 160v160c0 160 135 160 280 160h60c140 0 275 0 280 -150h-160c0 55 -50 55 -100 55h-100c-50 0 -100 0 -100 -55v-30h230v-95h-230v-55c0 -55 50 -55 100 -55h100c50 0 100 0 100 55h160c-5 -150 -140 -150 -280 -150h-60c-140 0 -280 0 -280 160z" />
    <glyph glyph-name="afii10102" unicode="&#x455;" 
d="M60 0v95h410c25 0 50 0 50 30v50c0 30 -25 30 -50 30h-210c-100 0 -200 0 -200 115v45c0 115 100 115 200 115h380v-95h-370c-25 0 -50 0 -50 -30v-25c0 -30 25 -30 50 -30h210c100 0 200 0 200 -115v-70c0 -115 -100 -115 -200 -115h-420z" />
    <glyph glyph-name="afii10103" unicode="&#x456;" horiz-adv-x="280" 
d="M60 0v480h160v-480h-160zM60 565v95h160v-95h-160z" />
    <glyph glyph-name="afii10104" unicode="&#x457;" horiz-adv-x="340" 
d="M-20 575v110h135v-110h-135zM225 575v110h135v-110h-135zM90 0v480h160v-480h-160z" />
    <glyph glyph-name="afii10105" unicode="&#x458;" horiz-adv-x="280" 
d="M-50 -130c90 15 110 70 110 130v480h160v-480c0 -205 -180 -220 -270 -225v95zM60 565v95h160v-95h-160z" />
    <glyph glyph-name="afii10106" unicode="&#x459;" horiz-adv-x="1080" 
d="M30 0v95c90 15 110 70 110 130v255h460v-180h220c100 0 200 0 200 -115v-70c0 -115 -100 -115 -200 -115h-380v385h-140v-160c0 -205 -180 -220 -270 -225zM600 95h210c25 0 50 0 50 30v50c0 30 -25 30 -50 30h-210v-110z" />
    <glyph glyph-name="afii10107" unicode="&#x45a;" horiz-adv-x="1120" 
d="M60 0v480h160v-180h260v180h160v-180h220c100 0 200 0 200 -115v-70c0 -115 -100 -115 -200 -115h-380v205h-260v-205h-160zM640 95h210c25 0 50 0 50 30v50c0 30 -25 30 -50 30h-210v-110z" />
    <glyph glyph-name="afii10108" unicode="&#x45b;" horiz-adv-x="780" 
d="M20 500v80h80v80h160v-80h220v-80h-220v-95h260c100 0 200 0 200 -115v-290h-160v280c0 30 -25 30 -50 30h-250v-310h-160v500h-80z" />
    <glyph glyph-name="afii10109" unicode="&#x45c;" horiz-adv-x="670" 
d="M235 550l100 160h170l-160 -160h-110zM60 0v480h160v-220l220 220h190l-230 -230l250 -250h-190l-155 155l-85 -85v-70h-160z" />
    <glyph glyph-name="uni045D" unicode="&#x45d;" 
d="M200 710h170l100 -160h-110zM60 0v480h160v-305l280 305h180v-480h-160v305l-280 -305h-180z" />
    <glyph glyph-name="afii10110" unicode="&#x45e;" horiz-adv-x="720" 
d="M190 710h95c0 -41 34 -75 75 -75s75 34 75 75h95c0 -88 -76 -160 -170 -160s-170 72 -170 160zM20 480h170l170 -340l170 340h170l-300 -600c-30 -60 -55 -105 -150 -105h-170v95h100c45 0 50 10 65 40l30 60z" />
    <glyph glyph-name="afii10193" unicode="&#x45f;" 
d="M60 0v480h160v-405h300v405h160v-480h-245v-125h-130v125h-245z" />
    <glyph glyph-name="afii10146" unicode="&#x462;" horiz-adv-x="960" 
d="M20 500v95h80v65h170v-65h225v-95h-225v-85h380c120 0 240 0 240 -135v-145c0 -135 -120 -135 -240 -135h-550v500h-80zM270 110h390c30 0 60 0 60 35v125c0 35 -30 35 -60 35h-390v-195z" />
    <glyph glyph-name="afii10194" unicode="&#x463;" horiz-adv-x="760" 
d="M20 355v80h60v45h160v-45h150v-80h-150v-55h260c100 0 200 0 200 -115v-70c0 -115 -100 -115 -200 -115h-420v355h-60zM240 95h250c25 0 50 0 50 30v50c0 30 -25 30 -50 30h-250v-110z" />
    <glyph glyph-name="afii10147" unicode="&#x472;" horiz-adv-x="930" 
d="M70 135v390c0 135 120 135 240 135h310c120 0 240 0 240 -135v-390c0 -135 -120 -135 -240 -135h-310c-120 0 -240 0 -240 135zM240 145c0 -35 30 -35 60 -35h330c30 0 60 0 60 35v160h-450v-160zM240 415h450v100c0 35 -30 35 -60 35h-330c-30 0 -60 0 -60 -35v-100z
" />
    <glyph glyph-name="afii10195" unicode="&#x473;" 
d="M60 115v250c0 115 100 115 200 115h220c100 0 200 0 200 -115v-250c0 -115 -100 -115 -200 -115h-220c-100 0 -200 0 -200 115zM220 125c0 -30 25 -30 50 -30h200c25 0 50 0 50 30v80h-300v-80zM220 300h300v55c0 30 -25 30 -50 30h-200c-25 0 -50 0 -50 -30v-55z" />
    <glyph glyph-name="afii10148" unicode="&#x474;" horiz-adv-x="1010" 
d="M20 660h180l265 -530l205 410c28 56 60 120 170 120h140v-110h-75c-50 0 -58 -16 -78 -56l-247 -494h-230z" />
    <glyph glyph-name="afii10196" unicode="&#x475;" horiz-adv-x="820" 
d="M20 480h170l170 -340l118 236c30 60 55 104 150 104h132v-95h-62c-45 0 -50 -9 -65 -39l-173 -346h-200z" />
    <glyph glyph-name="uni048C" unicode="&#x48c;" horiz-adv-x="960" 
d="M20 500v95h80v65h170v-65h225v-95h-225v-85h380c120 0 240 0 240 -135v-145c0 -135 -120 -135 -240 -135h-550v500h-80zM270 110h390c30 0 60 0 60 35v125c0 35 -30 35 -60 35h-390v-195z" />
    <glyph glyph-name="uni048D" unicode="&#x48d;" horiz-adv-x="760" 
d="M20 355v80h60v45h160v-45h150v-80h-150v-55h260c100 0 200 0 200 -115v-70c0 -115 -100 -115 -200 -115h-420v355h-60zM240 95h250c25 0 50 0 50 30v50c0 30 -25 30 -50 30h-250v-110z" />
    <glyph glyph-name="uni048E" unicode="&#x48e;" horiz-adv-x="930" 
d="M70 0v660h550c120 0 240 0 240 -135v-140c0 -135 -120 -135 -240 -135l50 -50l-70 -70l-120 120h-240v-250h-170zM240 360h130l-50 50l70 70l120 -120h120c30 0 60 0 60 35v120c0 35 -30 35 -60 35h-390v-190z" />
    <glyph glyph-name="uni048F" unicode="&#x48f;" 
d="M60 -225v705h420c100 0 200 0 200 -115v-250c0 -85 -50 -110 -145 -115l50 -50l-60 -60l-110 110h-195v-225h-160zM220 95h100l-50 50l60 60l110 -110h30c25 0 50 0 50 30v230c0 30 -25 30 -50 30h-250v-290z" />
    <glyph glyph-name="afii10050" unicode="&#x490;" horiz-adv-x="840" 
d="M70 0v660h590v150h150v-260h-570v-550h-170z" />
    <glyph glyph-name="afii10098" unicode="&#x491;" horiz-adv-x="700" 
d="M60 0v480h450v125h130v-220h-420v-385h-160z" />
    <glyph glyph-name="uni0492" unicode="&#x492;" horiz-adv-x="870" 
d="M20 310v95h80v255h740v-110h-570v-145h225v-95h-225v-310h-170v310h-80z" />
    <glyph glyph-name="uni0493" unicode="&#x493;" horiz-adv-x="720" 
d="M20 200v85h60v195h580v-95h-420v-100h150v-85h-150v-200h-160v200h-60z" />
    <glyph glyph-name="uni0494" unicode="&#x494;" horiz-adv-x="930" 
d="M70 0v660h720v-110h-550v-135h380c120 0 240 0 240 -135v-220c0 -265 -220 -280 -320 -285v110c65 10 150 35 150 175v210c0 35 -30 35 -60 35h-390v-305h-170z" />
    <glyph glyph-name="uni0495" unicode="&#x495;" 
d="M60 0v480h580v-95h-420v-85h260c100 0 200 0 200 -100v-200c0 -205 -180 -220 -270 -225v95c90 15 110 70 110 130v180c0 25 -25 25 -50 25h-250v-205h-160z" />
    <glyph glyph-name="uni0496" unicode="&#x496;" horiz-adv-x="1270" 
d="M20 0l350 350l-310 310h210l260 -260v260h170v-260l260 260h210l-310 -310l265 -265h105v-235h-150v150h-80l-245 245l-55 -55v-190h-170v190l-55 55l-245 -245h-210z" />
    <glyph glyph-name="uni0497" unicode="&#x497;" horiz-adv-x="1000" 
d="M20 0l250 250l-230 230h190l180 -180v180h160v-180l180 180h190l-230 -230l175 -175h85v-200h-130v125h-70l-155 155l-45 -45v-110h-160v110l-45 45l-155 -155h-190z" />
    <glyph glyph-name="uni0498" unicode="&#x498;" horiz-adv-x="880" 
d="M350 -155h30c40 0 70 10 70 40c0 20 -10 40 -85 115h115c70 -70 90 -95 90 -135c0 -80 -80 -90 -160 -90h-60v70zM70 0v110h510c30 0 60 0 60 35v125c0 35 -30 35 -60 35h-420v110h420c30 0 60 0 60 35v65c0 35 -30 35 -60 35h-510v110h500c120 0 240 0 240 -135v-60
c0 -60 -40 -90 -80 -100c40 -10 80 -40 80 -100v-130c0 -135 -120 -135 -240 -135h-500z" />
    <glyph glyph-name="uni0499" unicode="&#x499;" horiz-adv-x="700" 
d="M240 -155h30c40 0 70 10 70 40c0 20 -10 40 -85 115h115c70 -70 90 -95 90 -135c0 -80 -80 -90 -160 -90h-60v70zM60 0v95h370c25 0 50 0 50 30v50c0 30 -25 30 -50 30h-290v95h290c25 0 50 0 50 30v25c0 30 -25 30 -50 30h-370v95h380c100 0 200 0 200 -115v-15
c0 -55 -35 -80 -75 -90c40 -10 75 -35 75 -90v-55c0 -115 -100 -115 -200 -115h-380z" />
    <glyph glyph-name="uni049A" unicode="&#x49a;" horiz-adv-x="900" 
d="M70 0v660h170v-350l350 350h210l-310 -310l265 -265h105v-235h-150v150h-80l-245 245l-145 -145v-100h-170z" />
    <glyph glyph-name="uni049B" unicode="&#x49b;" horiz-adv-x="690" 
d="M60 0v480h160v-220l220 220h190l-230 -230l175 -175h85v-200h-130v125h-70l-155 155l-85 -85v-70h-160z" />
    <glyph glyph-name="uni049C" unicode="&#x49c;" horiz-adv-x="860" 
d="M70 0v660h170v-350l65 65v205h95v-110l190 190h210l-310 -310l350 -350h-210l-230 230v-175h-95v110l-65 -65v-100h-170z" />
    <glyph glyph-name="uni049D" unicode="&#x49d;" horiz-adv-x="690" 
d="M60 0v480h160v-240l50 50v150h80v-70l110 110h190l-230 -230l250 -250h-190l-130 130v-100h-80v70l-50 -50v-50h-160z" />
    <glyph glyph-name="uni049E" unicode="&#x49e;" horiz-adv-x="890" 
d="M20 485v95h80v80h170v-80h80v-95h-80v-175l350 350h210l-310 -310l350 -350h-210l-245 245l-145 -145v-100h-170v485h-80z" />
    <glyph glyph-name="uni049F" unicode="&#x49f;" horiz-adv-x="710" 
d="M20 340v80h60v60h160v-60h60v-80h-60v-100l240 240h190l-230 -230l250 -250h-190l-155 155l-105 -105v-50h-160v340h-60z" />
    <glyph glyph-name="uni04A0" unicode="&#x4a0;" horiz-adv-x="1060" 
d="M30 550v110h410v-350l350 350h210l-310 -310l350 -350h-210l-245 245l-145 -145v-100h-170v550h-240z" />
    <glyph glyph-name="uni04A1" unicode="&#x4a1;" horiz-adv-x="830" 
d="M60 385v95h320v-220l220 220h190l-230 -230l250 -250h-190l-155 155l-85 -85v-70h-160v385h-160z" />
    <glyph glyph-name="uni04A2" unicode="&#x4a2;" horiz-adv-x="1020" 
d="M70 0v660h170v-245h450v245h170v-575h120v-235h-150v150h-140v305h-450v-305h-170z" />
    <glyph glyph-name="uni04A3" unicode="&#x4a3;" horiz-adv-x="800" 
d="M60 0v480h160v-180h300v180h160v-385h90v-220h-130v125h-120v205h-300v-205h-160z" />
    <glyph glyph-name="uni04A4" unicode="&#x4a4;" horiz-adv-x="1290" 
d="M70 0v660h170v-245h450v245h570v-110h-400v-550h-170v305h-450v-305h-170z" />
    <glyph glyph-name="uni04A5" unicode="&#x4a5;" horiz-adv-x="1000" 
d="M60 0v480h160v-180h300v180h420v-95h-260v-385h-160v205h-300v-205h-160z" />
    <glyph glyph-name="uni04A6" unicode="&#x4a6;" horiz-adv-x="1450" 
d="M70 0v660h740v-245h330c120 0 240 0 240 -135v-220c0 -265 -220 -280 -320 -285v110c65 10 150 35 150 175v210c0 35 -30 35 -60 35h-340v-305h-170v550h-400v-550h-170z" />
    <glyph glyph-name="uni04A7" unicode="&#x4a7;" horiz-adv-x="1120" 
d="M60 0v480h580v-180h220c100 0 200 0 200 -115v-185c0 -205 -180 -220 -270 -225v95c90 15 110 70 110 130v175c0 30 -25 30 -50 30h-210v-205h-160v385h-260v-385h-160z" />
    <glyph glyph-name="uni04A8" unicode="&#x4a8;" horiz-adv-x="1180" 
d="M70 180v300c0 180 160 180 320 180h150v-110h-170c-65 0 -130 0 -130 -75v-290c0 -75 65 -75 130 -75h40c-10 15 -20 45 -20 85v105c0 180 160 180 320 180s320 0 320 -180v-105c0 -40 -10 -70 -20 -85h100v-110h-720c-160 0 -320 0 -320 180zM560 185
c0 -75 65 -75 150 -75s150 0 150 75v110c0 75 -65 75 -150 75s-150 0 -150 -75v-110z" />
    <glyph glyph-name="uni04A9" unicode="&#x4a9;" horiz-adv-x="1020" 
d="M60 160v160c0 160 140 160 280 160h160v-95h-180c-50 0 -100 0 -100 -55v-180c0 -55 50 -55 100 -55h55c-10 20 -15 40 -15 70v10c0 155 145 155 270 155s270 0 270 -155v-10c0 -30 -5 -50 -15 -70h75v-95h-620c-140 0 -280 0 -280 160zM520 150c0 -55 50 -55 110 -55
s110 0 110 55v30c0 55 -50 55 -110 55s-110 0 -110 -55v-30z" />
    <glyph glyph-name="uni04AA" unicode="&#x4aa;" horiz-adv-x="880" 
d="M380 -155h30c40 0 70 10 70 40c0 20 -10 40 -85 115h115c70 -70 90 -95 90 -135c0 -80 -80 -90 -160 -90h-60v70zM70 135v390c0 135 120 135 240 135h500v-110h-510c-30 0 -60 0 -60 -35v-370c0 -35 30 -35 60 -35h510v-110h-500c-120 0 -240 0 -240 135z" />
    <glyph glyph-name="uni04AB" unicode="&#x4ab;" horiz-adv-x="700" 
d="M290 -155h30c40 0 70 10 70 40c0 20 -10 40 -85 115h115c70 -70 90 -95 90 -135c0 -80 -80 -90 -160 -90h-60v70zM60 115v250c0 115 100 115 200 115h380v-95h-370c-25 0 -50 0 -50 -30v-230c0 -30 25 -30 50 -30h370v-95h-380c-100 0 -200 0 -200 115z" />
    <glyph glyph-name="uni04AC" unicode="&#x4ac;" horiz-adv-x="910" 
d="M30 550v110h850v-110h-340v-440h120v-260h-150v150h-140v550h-340z" />
    <glyph glyph-name="uni04AD" unicode="&#x4ad;" horiz-adv-x="720" 
d="M60 385v95h600v-95h-220v-310h90v-200h-130v125h-120v385h-220z" />
    <glyph glyph-name="uni04AE" unicode="&#x4ae;" horiz-adv-x="910" 
d="M20 660h210l225 -225l225 225h210l-350 -350v-310h-170v310z" />
    <glyph glyph-name="uni04AF" unicode="&#x4af;" horiz-adv-x="720" 
d="M20 480h170l170 -340l170 340h170l-260 -520v-185h-160v185z" />
    <glyph glyph-name="uni04B0" unicode="&#x4b0;" horiz-adv-x="910" 
d="M20 660h210l225 -225l225 225h210l-350 -350v-90h175v-95h-175v-125h-170v125h-175v95h175v90z" />
    <glyph glyph-name="uni04B1" unicode="&#x4b1;" horiz-adv-x="720" 
d="M20 480h170l170 -340l170 340h170l-260 -520v-45h125v-80h-125v-60h-160v60h-125v80h125v45z" />
    <glyph glyph-name="uni04B2" unicode="&#x4b2;" horiz-adv-x="950" 
d="M910 110v-260h-150v150h-80l-225 225l-225 -225h-210l330 330l-330 330h210l225 -225l225 225h210l-330 -330l220 -220h130z" />
    <glyph glyph-name="uni04B3" unicode="&#x4b3;" horiz-adv-x="730" 
d="M20 0l240 240l-240 240h190l145 -145l145 145h190l-240 -240l145 -145h105v-220h-130v125h-70l-145 145l-145 -145h-190z" />
    <glyph glyph-name="uni04B4" unicode="&#x4b4;" horiz-adv-x="1320" 
d="M30 550v110h850v-110h-340v-440h450v550h170v-550h120v-260h-150v150h-760v550h-340z" />
    <glyph glyph-name="uni04B5" unicode="&#x4b5;" horiz-adv-x="1020" 
d="M60 385v95h600v-95h-220v-290h300v385h160v-385h90v-220h-130v125h-580v385h-220z" />
    <glyph glyph-name="uni04B6" unicode="&#x4b6;" horiz-adv-x="1020" 
d="M70 385v275h170v-265c0 -35 30 -35 60 -35h390v300h170v-575h120v-235h-150v150h-140v250h-380c-120 0 -240 0 -240 135z" />
    <glyph glyph-name="uni04B7" unicode="&#x4b7;" horiz-adv-x="800" 
d="M60 290v190h160v-180c0 -30 25 -30 50 -30h250v210h160v-385h90v-220h-130v125h-120v175h-260c-100 0 -200 0 -200 115z" />
    <glyph glyph-name="uni04B8" unicode="&#x4b8;" horiz-adv-x="930" 
d="M70 385v275h170v-265c0 -35 30 -35 60 -35h120v135h95v-135h175v300h170v-660h-170v250h-175v-135h-95v135h-110c-120 0 -240 0 -240 135z" />
    <glyph glyph-name="uni04B9" unicode="&#x4b9;" 
d="M60 290v190h160v-180c0 -30 25 -30 50 -30h60v100h80v-100h110v210h160v-480h-160v175h-110v-100h-80v100h-70c-100 0 -200 0 -200 115z" />
    <glyph glyph-name="uni04BA" unicode="&#x4ba;" horiz-adv-x="930" 
d="M70 0v660h170v-245h380c120 0 240 0 240 -135v-280h-170v270c0 35 -30 35 -60 35h-390v-305h-170z" />
    <glyph glyph-name="uni04BB" unicode="&#x4bb;" 
d="M60 0v480h160v-180h260c100 0 200 0 200 -115v-185h-160v175c0 30 -25 30 -50 30h-250v-205h-160z" />
    <glyph glyph-name="uni04BC" unicode="&#x4bc;" horiz-adv-x="1140" 
d="M40 440v70h150v-60c0 -35 30 -35 60 -35h30v65c0 180 160 180 320 180h150c160 0 320 0 320 -180v-175h-620v-120c0 -75 65 -75 130 -75h190c65 0 125 0 130 70h170c0 -180 -160 -180 -320 -180h-150c-160 0 -320 0 -320 180v125c-120 0 -240 0 -240 135zM450 415h450v60
c0 75 -65 75 -130 75h-190c-65 0 -130 0 -130 -75v-60z" />
    <glyph glyph-name="uni04BD" unicode="&#x4bd;" horiz-adv-x="940" 
d="M40 320v70h140v-60c0 -30 25 -30 50 -30h30v20c0 160 140 160 280 160h60c140 0 280 0 280 -160v-115h-460v-55c0 -55 50 -55 100 -55h100c50 0 100 0 100 55h160c-5 -150 -140 -150 -280 -150h-60c-140 0 -280 0 -280 160v45h-20c-100 0 -200 0 -200 115zM420 300h300
v30c0 55 -50 55 -100 55h-100c-50 0 -100 0 -100 -55v-30z" />
    <glyph glyph-name="uni04BE" unicode="&#x4be;" horiz-adv-x="1140" 
d="M450 415h450v60c0 75 -65 75 -130 75h-190c-65 0 -130 0 -130 -75v-60zM40 440v70h150v-60c0 -35 30 -35 60 -35h30v65c0 180 160 180 320 180h150c160 0 320 0 320 -180v-175h-620v-120c0 -75 65 -75 130 -75h190c65 0 125 0 130 70h170c0 -180 -160 -180 -320 -180
v-150h-150v150c-160 0 -320 0 -320 180v125c-120 0 -240 0 -240 135z" />
    <glyph glyph-name="uni04BF" unicode="&#x4bf;" horiz-adv-x="940" 
d="M40 320v70h140v-60c0 -30 25 -30 50 -30h30v20c0 160 140 160 280 160h60c140 0 280 0 280 -160v-115h-460v-55c0 -55 50 -55 100 -55h100c50 0 100 0 100 55h160c-5 -150 -145 -150 -245 -150v-125h-130v125c-95 0 -245 0 -245 160v45h-20c-100 0 -200 0 -200 115z
M420 300h300v30c0 55 -50 55 -100 55h-100c-50 0 -100 0 -100 -55v-30z" />
    <glyph glyph-name="uni04C0" unicode="&#x4c0;" horiz-adv-x="310" 
d="M70 0v660h170v-660h-170z" />
    <glyph glyph-name="uni04C1" unicode="&#x4c1;" horiz-adv-x="1230" 
d="M445 890h95c0 -41 34 -75 75 -75s75 34 75 75h95c0 -88 -76 -160 -170 -160s-170 72 -170 160zM20 0l350 350l-310 310h210l260 -260v260h170v-260l260 260h210l-310 -310l350 -350h-210l-245 245l-55 -55v-190h-170v190l-55 55l-245 -245h-210z" />
    <glyph glyph-name="uni04C2" unicode="&#x4c2;" horiz-adv-x="980" 
d="M320 710h95c0 -41 34 -75 75 -75s75 34 75 75h95c0 -88 -76 -160 -170 -160s-170 72 -170 160zM20 0l250 250l-230 230h190l180 -180v180h160v-180l180 180h190l-230 -230l250 -250h-190l-155 155l-45 -45v-110h-160v110l-45 45l-155 -155h-190z" />
    <glyph glyph-name="uni04C3" unicode="&#x4c3;" horiz-adv-x="820" 
d="M70 0v660h170v-245h95l245 245h210l-245 -245c110 0 205 -20 205 -120v-235c0 -265 -220 -280 -320 -285v110c65 10 150 35 150 175v215c0 30 -30 30 -60 30h-280v-305h-170z" />
    <glyph glyph-name="uni04C4" unicode="&#x4c4;" horiz-adv-x="680" 
d="M60 0v480h160v-180h50l180 180h190l-180 -180c85 0 160 -15 160 -115v-185c0 -205 -180 -220 -270 -225v95c90 15 110 70 110 130v175c0 30 -25 30 -50 30h-190v-205h-160z" />
    <glyph glyph-name="uni04C7" unicode="&#x4c7;" horiz-adv-x="930" 
d="M70 0v660h170v-245h450v245h170v-600c0 -265 -220 -280 -320 -285v110c65 10 150 35 150 175v245h-450v-305h-170z" />
    <glyph glyph-name="uni04C8" unicode="&#x4c8;" 
d="M60 0v480h160v-180h300v180h160v-480c0 -205 -180 -220 -270 -225v95c90 15 110 70 110 130v205h-300v-205h-160z" />
    <glyph glyph-name="uni04CB" unicode="&#x4cb;" horiz-adv-x="930" 
d="M70 385v275h170v-265c0 -35 30 -35 60 -35h390v300h170v-660h-140v-150h-150v260h120v140h-380c-120 0 -240 0 -240 135z" />
    <glyph glyph-name="uni04CC" unicode="&#x4cc;" 
d="M60 290v190h160v-180c0 -30 25 -30 50 -30h250v210h160v-480h-120v-125h-130v210h90v90h-260c-100 0 -200 0 -200 115z" />
    <glyph glyph-name="uni04D0" unicode="&#x4d0;" horiz-adv-x="930" 
d="M295 890h95c0 -41 34 -75 75 -75s75 34 75 75h95c0 -88 -76 -160 -170 -160s-170 72 -170 160zM20 0l330 660h230l330 -660h-180l-95 190h-340l-95 -190h-180zM350 300h230l-115 230z" />
    <glyph glyph-name="uni04D1" unicode="&#x4d1;" 
d="M200 710h95c0 -41 34 -75 75 -75s75 34 75 75h95c0 -88 -76 -160 -170 -160s-170 72 -170 160zM60 115v70c0 115 100 115 200 115h260v55c0 30 -25 30 -50 30h-370v95h380c100 0 200 0 200 -115v-365h-420c-100 0 -200 0 -200 115zM220 125c0 -30 25 -30 50 -30h250v110
h-250c-25 0 -50 0 -50 -30v-50z" />
    <glyph glyph-name="uni04D2" unicode="&#x4d2;" horiz-adv-x="930" 
d="M275 755v110h135v-110h-135zM520 755v110h135v-110h-135zM20 0l330 660h230l330 -660h-180l-95 190h-340l-95 -190h-180zM350 300h230l-115 230z" />
    <glyph glyph-name="uni04D3" unicode="&#x4d3;" 
d="M180 575v110h135v-110h-135zM425 575v110h135v-110h-135zM60 115v70c0 115 100 115 200 115h260v55c0 30 -25 30 -50 30h-370v95h380c100 0 200 0 200 -115v-365h-420c-100 0 -200 0 -200 115zM220 125c0 -30 25 -30 50 -30h250v110h-250c-25 0 -50 0 -50 -30v-50z" />
    <glyph glyph-name="uni04D4" unicode="&#x4d4;" horiz-adv-x="1350" 
d="M20 0l330 660h930v-110h-520v-135h470v-110h-470v-195h520v-110h-690v190h-305l-95 -190h-170zM340 300h250v250h-125z" />
    <glyph glyph-name="uni04D5" unicode="&#x4d5;" horiz-adv-x="1200" 
d="M60 115v70c0 115 100 115 200 115h260v55c0 30 -25 30 -50 30h-370v95h840c100 0 200 0 200 -115v-160h-460v-80c0 -30 25 -30 50 -30h390v-95h-860c-100 0 -200 0 -200 115zM220 125c0 -30 25 -30 50 -30h250v110h-250c-25 0 -50 0 -50 -30v-50zM680 300h300v55
c0 30 -25 30 -50 30h-200c-25 0 -50 0 -50 -30v-55z" />
    <glyph glyph-name="uni04D6" unicode="&#x4d6;" horiz-adv-x="880" 
d="M270 890h95c0 -41 34 -75 75 -75s75 34 75 75h95c0 -88 -76 -160 -170 -160s-170 72 -170 160zM70 0v660h740v-110h-570v-135h520v-110h-520v-195h570v-110h-740z" />
    <glyph glyph-name="uni04D7" unicode="&#x4d7;" 
d="M200 710h95c0 -41 34 -75 75 -75s75 34 75 75h95c0 -88 -76 -160 -170 -160s-170 72 -170 160zM60 115v250c0 115 100 115 200 115h220c100 0 200 0 200 -115v-160h-460v-80c0 -30 25 -30 50 -30h390v-95h-400c-100 0 -200 0 -200 115zM220 300h300v55
c0 30 -25 30 -50 30h-200c-25 0 -50 0 -50 -30v-55z" />
    <glyph glyph-name="uni04D8" unicode="&#x4d8;" horiz-adv-x="930" 
d="M70 180v175h620v120c0 75 -65 75 -130 75h-190c-65 0 -125 0 -130 -70h-170c0 180 160 180 320 180h150c160 0 320 0 320 -180v-300c0 -180 -160 -180 -320 -180h-150c-160 0 -320 0 -320 180zM240 185c0 -75 65 -75 130 -75h190c65 0 130 0 130 75v60h-450v-60z" />
    <glyph glyph-name="afii10846" unicode="&#x4d9;" 
d="M60 160v115h460v55c0 55 -50 55 -100 55h-100c-50 0 -100 0 -100 -55h-160c5 150 140 150 280 150h60c140 0 280 0 280 -160v-160c0 -160 -140 -160 -280 -160h-60c-140 0 -280 0 -280 160zM220 150c0 -55 50 -55 100 -55h100c50 0 100 0 100 55v30h-300v-30z" />
    <glyph glyph-name="uni04DA" unicode="&#x4da;" horiz-adv-x="930" 
d="M275 755v110h135v-110h-135zM520 755v110h135v-110h-135zM70 180v175h620v120c0 75 -65 75 -130 75h-190c-65 0 -125 0 -130 -70h-170c0 180 160 180 320 180h150c160 0 320 0 320 -180v-300c0 -180 -160 -180 -320 -180h-150c-160 0 -320 0 -320 180zM240 185
c0 -75 65 -75 130 -75h190c65 0 130 0 130 75v60h-450v-60z" />
    <glyph glyph-name="uni04DB" unicode="&#x4db;" 
d="M180 575v110h135v-110h-135zM425 575v110h135v-110h-135zM60 160v115h460v55c0 55 -50 55 -100 55h-100c-50 0 -100 0 -100 -55h-160c5 150 140 150 280 150h60c140 0 280 0 280 -160v-160c0 -160 -140 -160 -280 -160h-60c-140 0 -280 0 -280 160zM220 150
c0 -55 50 -55 100 -55h100c50 0 100 0 100 55v30h-300v-30z" />
    <glyph glyph-name="uni04DC" unicode="&#x4dc;" horiz-adv-x="1230" 
d="M425 755v110h135v-110h-135zM670 755v110h135v-110h-135zM20 0l350 350l-310 310h210l260 -260v260h170v-260l260 260h210l-310 -310l350 -350h-210l-245 245l-55 -55v-190h-170v190l-55 55l-245 -245h-210z" />
    <glyph glyph-name="uni04DD" unicode="&#x4dd;" horiz-adv-x="980" 
d="M300 575v110h135v-110h-135zM545 575v110h135v-110h-135zM20 0l250 250l-230 230h190l180 -180v180h160v-180l180 180h190l-230 -230l250 -250h-190l-155 155l-45 -45v-110h-160v110l-45 45l-155 -155h-190z" />
    <glyph glyph-name="uni04DE" unicode="&#x4de;" horiz-adv-x="880" 
d="M250 755v110h135v-110h-135zM495 755v110h135v-110h-135zM70 0v110h510c30 0 60 0 60 35v125c0 35 -30 35 -60 35h-420v110h420c30 0 60 0 60 35v65c0 35 -30 35 -60 35h-510v110h500c120 0 240 0 240 -135v-60c0 -60 -40 -90 -80 -100c40 -10 80 -40 80 -100v-130
c0 -135 -120 -135 -240 -135h-500z" />
    <glyph glyph-name="uni04DF" unicode="&#x4df;" horiz-adv-x="700" 
d="M160 575v110h135v-110h-135zM405 575v110h135v-110h-135zM60 0v95h370c25 0 50 0 50 30v50c0 30 -25 30 -50 30h-290v95h290c25 0 50 0 50 30v25c0 30 -25 30 -50 30h-370v95h380c100 0 200 0 200 -115v-15c0 -55 -35 -80 -75 -90c40 -10 75 -35 75 -90v-55
c0 -115 -100 -115 -200 -115h-380z" />
    <glyph glyph-name="uni04E0" unicode="&#x4e0;" horiz-adv-x="880" 
d="M70 0v105h510c30 0 60 0 60 35v130c0 35 -30 35 -60 35h-205v110l205 140h-510v105h740v-105l-205 -140c110 0 205 -15 205 -135v-145c0 -135 -120 -135 -240 -135h-500z" />
    <glyph glyph-name="uni04E1" unicode="&#x4e1;" horiz-adv-x="700" 
d="M60 0v95h370c25 0 50 0 50 30v50c0 30 -25 30 -50 30h-125v95l135 85h-380v95h580v-95l-135 -85c75 0 135 -30 135 -115v-70c0 -115 -100 -115 -200 -115h-380z" />
    <glyph glyph-name="uni04E2" unicode="&#x4e2;" horiz-adv-x="930" 
d="M285 755v95h360v-95h-360zM70 0v660h170v-470l430 470h190v-660h-170v470l-430 -470h-190z" />
    <glyph glyph-name="uni04E3" unicode="&#x4e3;" 
d="M190 575v95h360v-95h-360zM60 0v480h160v-305l280 305h180v-480h-160v305l-280 -305h-180z" />
    <glyph glyph-name="uni04E4" unicode="&#x4e4;" horiz-adv-x="930" 
d="M275 755v110h135v-110h-135zM520 755v110h135v-110h-135zM70 0v660h170v-470l430 470h190v-660h-170v470l-430 -470h-190z" />
    <glyph glyph-name="uni04E5" unicode="&#x4e5;" 
d="M180 575v110h135v-110h-135zM425 575v110h135v-110h-135zM60 0v480h160v-305l280 305h180v-480h-160v305l-280 -305h-180z" />
    <glyph glyph-name="uni04E6" unicode="&#x4e6;" horiz-adv-x="930" 
d="M275 755v110h135v-110h-135zM520 755v110h135v-110h-135zM70 135v390c0 135 120 135 240 135h310c120 0 240 0 240 -135v-390c0 -135 -120 -135 -240 -135h-310c-120 0 -240 0 -240 135zM240 145c0 -35 30 -35 60 -35h330c30 0 60 0 60 35v370c0 35 -30 35 -60 35h-330
c-30 0 -60 0 -60 -35v-370z" />
    <glyph glyph-name="uni04E7" unicode="&#x4e7;" 
d="M180 575v110h135v-110h-135zM425 575v110h135v-110h-135zM60 115v250c0 115 100 115 200 115h220c100 0 200 0 200 -115v-250c0 -115 -100 -115 -200 -115h-220c-100 0 -200 0 -200 115zM220 125c0 -30 25 -30 50 -30h200c25 0 50 0 50 30v230c0 30 -25 30 -50 30h-200
c-25 0 -50 0 -50 -30v-230z" />
    <glyph glyph-name="uni04E8" unicode="&#x4e8;" horiz-adv-x="930" 
d="M70 135v390c0 135 120 135 240 135h310c120 0 240 0 240 -135v-390c0 -135 -120 -135 -240 -135h-310c-120 0 -240 0 -240 135zM240 145c0 -35 30 -35 60 -35h330c30 0 60 0 60 35v160h-450v-160zM240 415h450v100c0 35 -30 35 -60 35h-330c-30 0 -60 0 -60 -35v-100z
" />
    <glyph glyph-name="uni04E9" unicode="&#x4e9;" 
d="M60 115v250c0 115 100 115 200 115h220c100 0 200 0 200 -115v-250c0 -115 -100 -115 -200 -115h-220c-100 0 -200 0 -200 115zM220 125c0 -30 25 -30 50 -30h200c25 0 50 0 50 30v80h-300v-80zM220 300h300v55c0 30 -25 30 -50 30h-200c-25 0 -50 0 -50 -30v-55z" />
    <glyph glyph-name="uni04EA" unicode="&#x4ea;" horiz-adv-x="930" 
d="M275 755v110h135v-110h-135zM520 755v110h135v-110h-135zM70 135v390c0 135 120 135 240 135h310c120 0 240 0 240 -135v-390c0 -135 -120 -135 -240 -135h-310c-120 0 -240 0 -240 135zM240 145c0 -35 30 -35 60 -35h330c30 0 60 0 60 35v160h-450v-160zM240 415h450
v100c0 35 -30 35 -60 35h-330c-30 0 -60 0 -60 -35v-100z" />
    <glyph glyph-name="uni04EB" unicode="&#x4eb;" 
d="M180 575v110h135v-110h-135zM425 575v110h135v-110h-135zM60 115v250c0 115 100 115 200 115h220c100 0 200 0 200 -115v-250c0 -115 -100 -115 -200 -115h-220c-100 0 -200 0 -200 115zM220 125c0 -30 25 -30 50 -30h200c25 0 50 0 50 30v80h-300v-80zM220 300h300v55
c0 30 -25 30 -50 30h-200c-25 0 -50 0 -50 -30v-55z" />
    <glyph glyph-name="uni04EC" unicode="&#x4ec;" horiz-adv-x="930" 
d="M275 755v110h135v-110h-135zM520 755v110h135v-110h-135zM70 180h170c5 -70 65 -70 130 -70h190c65 0 130 0 130 75v120h-375v110h375v60c0 75 -65 75 -130 75h-190c-65 0 -125 0 -130 -70h-170c0 180 160 180 320 180h150c160 0 320 0 320 -180v-300
c0 -180 -160 -180 -320 -180h-150c-160 0 -320 0 -320 180z" />
    <glyph glyph-name="uni04ED" unicode="&#x4ed;" 
d="M180 575v110h135v-110h-135zM425 575v110h135v-110h-135zM60 150h160c0 -55 50 -55 100 -55h100c50 0 100 0 100 55v55h-230v95h230v30c0 55 -50 55 -100 55h-100c-50 0 -100 0 -100 -55h-160c5 150 140 150 280 150h60c145 0 280 0 280 -160v-160
c0 -160 -140 -160 -280 -160h-60c-140 0 -275 0 -280 150z" />
    <glyph glyph-name="uni04EE" unicode="&#x4ee;" horiz-adv-x="840" 
d="M240 755v95h360v-95h-360zM20 660h190l210 -315l210 315h190l-380 -570c-40 -60 -60 -90 -150 -90h-170v110h105c35 0 45 10 75 55l26 39z" />
    <glyph glyph-name="uni04EF" unicode="&#x4ef;" horiz-adv-x="720" 
d="M180 575v95h360v-95h-360zM20 480h170l170 -340l170 340h170l-300 -600c-30 -60 -55 -105 -150 -105h-170v95h100c45 0 50 10 65 40l30 60z" />
    <glyph glyph-name="uni04F0" unicode="&#x4f0;" horiz-adv-x="840" 
d="M230 755v110h135v-110h-135zM475 755v110h135v-110h-135zM20 660h190l210 -315l210 315h190l-380 -570c-40 -60 -60 -90 -150 -90h-170v110h105c35 0 45 10 75 55l26 39z" />
    <glyph glyph-name="uni04F1" unicode="&#x4f1;" horiz-adv-x="720" 
d="M170 575v110h135v-110h-135zM415 575v110h135v-110h-135zM20 480h170l170 -340l170 340h170l-300 -600c-30 -60 -55 -105 -150 -105h-170v95h100c45 0 50 10 65 40l30 60z" />
    <glyph glyph-name="uni04F2" unicode="&#x4f2;" horiz-adv-x="840" 
d="M220 730l90 160h130l-120 -160h-100zM440 730l90 160h130l-120 -160h-100zM20 660h190l210 -315l210 315h190l-380 -570c-40 -60 -60 -90 -150 -90h-170v110h105c35 0 45 10 75 55l26 39z" />
    <glyph glyph-name="uni04F3" unicode="&#x4f3;" horiz-adv-x="720" 
d="M160 550l90 160h130l-120 -160h-100zM380 550l90 160h130l-120 -160h-100zM20 480h170l170 -340l170 340h170l-300 -600c-30 -60 -55 -105 -150 -105h-170v95h100c45 0 50 10 65 40l30 60z" />
    <glyph glyph-name="uni04F4" unicode="&#x4f4;" horiz-adv-x="930" 
d="M275 755v110h135v-110h-135zM520 755v110h135v-110h-135zM70 385v275h170v-265c0 -35 30 -35 60 -35h390v300h170v-660h-170v250h-380c-120 0 -240 0 -240 135z" />
    <glyph glyph-name="uni04F5" unicode="&#x4f5;" 
d="M180 575v110h135v-110h-135zM425 575v110h135v-110h-135zM60 290v190h160v-180c0 -30 25 -30 50 -30h250v210h160v-480h-160v175h-260c-100 0 -200 0 -200 115z" />
    <glyph glyph-name="uni04F8" unicode="&#x4f8;" horiz-adv-x="1150" 
d="M385 755v110h135v-110h-135zM630 755v110h135v-110h-135zM70 0v660h170v-245h330c120 0 240 0 240 -135v-145c0 -135 -120 -135 -240 -135h-500zM240 110h340c30 0 60 0 60 35v125c0 35 -30 35 -60 35h-340v-195zM910 0v660h170v-660h-170z" />
    <glyph glyph-name="uni04F9" unicode="&#x4f9;" horiz-adv-x="960" 
d="M290 575v110h135v-110h-135zM535 575v110h135v-110h-135zM60 0v480h160v-180h220c100 0 200 0 200 -115v-70c0 -115 -100 -115 -200 -115h-380zM220 95h210c25 0 50 0 50 30v50c0 30 -25 30 -50 30h-210v-110zM740 0v480h160v-480h-160z" />
    <glyph glyph-name="uni1E02" unicode="&#x1e02;" horiz-adv-x="930" 
d="M400 755v110h130v-110h-130zM70 0v660h540c120 0 240 0 240 -135v-60c0 -60 -40 -90 -80 -100c40 -10 90 -30 90 -100v-130c0 -135 -120 -135 -240 -135h-550zM240 110h390c30 0 60 0 60 35v125c0 35 -30 35 -60 35h-390v-195zM240 415h380c30 0 60 0 60 35v65
c0 35 -30 35 -60 35h-380v-135z" />
    <glyph glyph-name="uni1E03" unicode="&#x1e03;" 
d="M75 755v110h130v-110h-130zM60 0v660h160v-180h260c100 0 200 0 200 -115v-250c0 -115 -100 -115 -200 -115h-420zM220 95h250c25 0 50 0 50 30v230c0 30 -25 30 -50 30h-250v-290z" />
    <glyph glyph-name="uni1E0A" unicode="&#x1e0a;" horiz-adv-x="930" 
d="M400 755v110h130v-110h-130zM70 0v660h430c180 0 360 -80 360 -305v-45c0 -225 -180 -310 -360 -310h-430zM240 110h210c120 0 240 40 240 200v45c0 160 -120 200 -240 200h-210v-445z" />
    <glyph glyph-name="uni1E0B" unicode="&#x1e0b;" 
d="M535 755v110h130v-110h-130zM60 115v250c0 115 100 115 200 115h260v180h160v-660h-420c-100 0 -200 0 -200 115zM220 125c0 -30 25 -30 50 -30h250v290h-250c-25 0 -50 0 -50 -30v-230z" />
    <glyph glyph-name="uni1E1E" unicode="&#x1e1e;" horiz-adv-x="860" 
d="M365 755v110h130v-110h-130zM70 0v660h740v-110h-570v-135h510v-110h-510v-305h-170z" />
    <glyph glyph-name="uni1E1F" unicode="&#x1e1f;" horiz-adv-x="480" 
d="M175 755v110h130v-110h-130zM60 0v545c0 115 100 115 200 115h160v-95h-150c-25 0 -50 0 -50 -30v-55h200v-95h-200v-385h-160z" />
    <glyph glyph-name="uni1E40" unicode="&#x1e40;" horiz-adv-x="1090" 
d="M480 755v110h130v-110h-130zM70 0v660h225l250 -500l250 500h225v-660h-170v450l-225 -450h-160l-225 450v-450h-170z" />
    <glyph glyph-name="uni1E41" unicode="&#x1e41;" horiz-adv-x="960" 
d="M415 575v110h130v-110h-130zM60 0v480h640c100 0 200 0 200 -115v-365h-160v355c0 30 -25 30 -50 30h-130v-385h-160v355c0 30 -25 30 -50 30h-130v-385h-160z" />
    <glyph glyph-name="uni1E56" unicode="&#x1e56;" horiz-adv-x="930" 
d="M400 755v110h130v-110h-130zM70 0v660h550c120 0 240 0 240 -135v-140c0 -135 -120 -135 -240 -135h-380v-250h-170zM240 360h390c30 0 60 0 60 35v120c0 35 -30 35 -60 35h-390v-190z" />
    <glyph glyph-name="uni1E57" unicode="&#x1e57;" 
d="M305 575v110h130v-110h-130zM60 -225v705h420c100 0 200 0 200 -115v-250c0 -115 -100 -115 -200 -115h-260v-225h-160zM220 95h250c25 0 50 0 50 30v230c0 30 -25 30 -50 30h-250v-290z" />
    <glyph glyph-name="uni1E60" unicode="&#x1e60;" horiz-adv-x="930" 
d="M400 755v110h130v-110h-130zM70 0v110h560c30 0 60 0 60 35v125c0 35 -30 35 -60 35h-320c-120 0 -240 0 -240 135v85c0 135 120 135 240 135h500v-110h-510c-30 0 -60 0 -60 -35v-65c0 -35 30 -35 60 -35h320c120 0 240 0 240 -135v-145c0 -135 -120 -135 -240 -135
h-550z" />
    <glyph glyph-name="uni1E61" unicode="&#x1e61;" 
d="M305 575v110h130v-110h-130zM60 0v95h410c25 0 50 0 50 30v50c0 30 -25 30 -50 30h-210c-100 0 -200 0 -200 115v45c0 115 100 115 200 115h380v-95h-370c-25 0 -50 0 -50 -30v-25c0 -30 25 -30 50 -30h210c100 0 200 0 200 -115v-70c0 -115 -100 -115 -200 -115h-420z
" />
    <glyph glyph-name="uni1E6A" unicode="&#x1e6a;" horiz-adv-x="910" 
d="M390 755v110h130v-110h-130zM30 550v110h850v-110h-340v-550h-170v550h-340z" />
    <glyph glyph-name="uni1E6B" unicode="&#x1e6b;" horiz-adv-x="480" 
d="M75 755v110h130v-110h-130zM60 115v545h160v-180h200v-95h-200v-260c0 -30 25 -30 50 -30h150v-95h-160c-100 0 -200 0 -200 115z" />
    <glyph glyph-name="Wgrave" unicode="&#x1e80;" horiz-adv-x="1260" 
d="M460 890h170l100 -160h-110zM20 660h175l165 -495l155 465h230l155 -465l165 495h175l-220 -660h-220l-170 510l-170 -510h-220z" />
    <glyph glyph-name="wgrave" unicode="&#x1e81;" horiz-adv-x="960" 
d="M310 710h170l100 -160h-110zM20 480h160l110 -330l100 300h180l100 -300l110 330h160l-160 -480h-195l-105 315l-105 -315h-195z" />
    <glyph glyph-name="Wacute" unicode="&#x1e82;" horiz-adv-x="1260" 
d="M530 730l100 160h170l-160 -160h-110zM20 660h175l165 -495l155 465h230l155 -465l165 495h175l-220 -660h-220l-170 510l-170 -510h-220z" />
    <glyph glyph-name="wacute" unicode="&#x1e83;" horiz-adv-x="960" 
d="M380 550l100 160h170l-160 -160h-110zM20 480h160l110 -330l100 300h180l100 -300l110 330h160l-160 -480h-195l-105 315l-105 -315h-195z" />
    <glyph glyph-name="Wdieresis" unicode="&#x1e84;" horiz-adv-x="1260" 
d="M440 755v110h135v-110h-135zM685 755v110h135v-110h-135zM20 660h175l165 -495l155 465h230l155 -465l165 495h175l-220 -660h-220l-170 510l-170 -510h-220z" />
    <glyph glyph-name="wdieresis" unicode="&#x1e85;" horiz-adv-x="960" 
d="M290 575v110h135v-110h-135zM535 575v110h135v-110h-135zM20 480h160l110 -330l100 300h180l100 -300l110 330h160l-160 -480h-195l-105 315l-105 -315h-195z" />
    <glyph glyph-name="Ygrave" unicode="&#x1ef2;" horiz-adv-x="910" 
d="M285 890h170l100 -160h-110zM20 660h210l225 -225l225 225h210l-350 -350v-310h-170v310z" />
    <glyph glyph-name="ygrave" unicode="&#x1ef3;" horiz-adv-x="720" 
d="M190 710h170l100 -160h-110zM20 480h170l170 -340l170 340h170l-300 -600c-30 -60 -55 -105 -150 -105h-170v95h100c45 0 50 10 65 40l30 60z" />
    <glyph glyph-name="figuredash" unicode="&#x2012;" horiz-adv-x="910" 
d="M210 180v120h490v-120h-490z" />
    <glyph glyph-name="endash" unicode="&#x2013;" horiz-adv-x="500" 
d="M20 180v120h460v-120h-460z" />
    <glyph glyph-name="emdash" unicode="&#x2014;" horiz-adv-x="1000" 
d="M20 180v120h960v-120h-960z" />
    <glyph glyph-name="afii00208" unicode="&#x2015;" horiz-adv-x="1000" 
d="M20 180v120h960v-120h-960z" />
    <glyph glyph-name="quoteleft" unicode="&#x2018;" horiz-adv-x="350" 
d="M75 410l100 250h100l-50 -250h-150z" />
    <glyph glyph-name="quoteright" unicode="&#x2019;" horiz-adv-x="350" 
d="M75 410l50 250h150l-100 -250h-100z" />
    <glyph glyph-name="quotesinglbase" unicode="&#x201a;" horiz-adv-x="350" 
d="M75 -130l50 250h150l-100 -250h-100z" />
    <glyph glyph-name="quotereversed" unicode="&#x201b;" horiz-adv-x="350" 
d="M75 660h150l50 -250h-100z" />
    <glyph glyph-name="quotedblleft" unicode="&#x201c;" horiz-adv-x="600" 
d="M325 410l100 250h100l-50 -250h-150zM75 410l100 250h100l-50 -250h-150z" />
    <glyph glyph-name="quotedblright" unicode="&#x201d;" horiz-adv-x="600" 
d="M325 410l50 250h150l-100 -250h-100zM75 410l50 250h150l-100 -250h-100z" />
    <glyph glyph-name="quotedblbase" unicode="&#x201e;" horiz-adv-x="600" 
d="M325 -130l50 250h150l-100 -250h-100zM75 -130l50 250h150l-100 -250h-100z" />
    <glyph glyph-name="uni201F" unicode="&#x201f;" horiz-adv-x="600" 
d="M325 660h150l50 -250h-100zM75 660h150l50 -250h-100z" />
    <glyph glyph-name="dagger" unicode="&#x2020;" horiz-adv-x="680" 
d="M60 395v95h200v170h160v-170h200v-95h-200v-500h-160v500h-200z" />
    <glyph glyph-name="daggerdbl" unicode="&#x2021;" horiz-adv-x="680" 
d="M60 65v95h200v235h-200v95h200v170h160v-170h200v-95h-200v-235h200v-95h-200v-170h-160v170h-200z" />
    <glyph glyph-name="bullet" unicode="&#x2022;" horiz-adv-x="430" 
d="M75 340c0 77 63 140 140 140s140 -63 140 -140s-63 -140 -140 -140s-140 63 -140 140z" />
    <glyph glyph-name="ellipsis" unicode="&#x2026;" horiz-adv-x="960" 
d="M715 0v140h170v-140h-170zM395 0v140h170v-140h-170zM75 0v140h170v-140h-170z" />
    <glyph glyph-name="perthousand" unicode="&#x2030;" horiz-adv-x="1730" 
d="M730 90v160c0 90 80 90 160 90h120c80 0 160 0 160 -90v-160c0 -90 -80 -90 -160 -90h-120c-80 0 -160 0 -160 90zM860 95c0 -25 20 -25 40 -25h100c20 0 40 0 40 25v150c0 25 -20 25 -40 25h-100c-20 0 -40 0 -40 -25v-150zM1230 90v160c0 90 80 90 160 90h120
c80 0 160 0 160 -90v-160c0 -90 -80 -90 -160 -90h-120c-80 0 -160 0 -160 90zM1360 95c0 -25 20 -25 40 -25h100c20 0 40 0 40 25v150c0 25 -20 25 -40 25h-100c-20 0 -40 0 -40 -25v-150zM60 410v160c0 90 80 90 160 90h120c80 0 160 0 160 -90v-160
c0 -90 -80 -90 -160 -90h-120c-80 0 -160 0 -160 90zM190 415c0 -25 20 -25 40 -25h100c20 0 40 0 40 25v150c0 25 -20 25 -40 25h-100c-20 0 -40 0 -40 -25v-150zM380 0l330 660h140l-330 -660h-140z" />
    <glyph glyph-name="minute" unicode="&#x2032;" horiz-adv-x="350" 
d="M75 410l50 250h150l-100 -250h-100z" />
    <glyph glyph-name="second" unicode="&#x2033;" horiz-adv-x="600" 
d="M325 410l50 250h150l-100 -250h-100zM75 410l50 250h150l-100 -250h-100z" />
    <glyph glyph-name="guilsinglleft" unicode="&#x2039;" horiz-adv-x="470" 
d="M60 240l200 200h150l-180 -200l180 -200h-150z" />
    <glyph glyph-name="guilsinglright" unicode="&#x203a;" horiz-adv-x="470" 
d="M60 40l180 200l-180 200h150l200 -200l-200 -200h-150z" />
    <glyph glyph-name="uni203D" unicode="&#x203d;" horiz-adv-x="910" 
d="M75 555v105h520c120 0 240 0 240 -135v-85c0 -135 -120 -135 -240 -135h-80c-30 0 -60 0 -60 -35v-50h-170v335h-210zM285 0v140h170v-140h-170zM455 415h150c30 0 60 0 60 35v70c0 35 -30 35 -60 35h-150v-140z" />
    <glyph glyph-name="uni203E" unicode="&#x203e;" horiz-adv-x="680" 
d="M20 820h640v-95h-640v95z" />
    <glyph glyph-name="fraction" unicode="&#x2044;" horiz-adv-x="110" 
d="M-180 0l330 660h140l-330 -660h-140z" />
    <glyph glyph-name="uni2070" unicode="&#x2070;" horiz-adv-x="560" 
d="M60 410v160c0 90 80 90 160 90h120c80 0 160 0 160 -90v-160c0 -90 -80 -90 -160 -90h-120c-80 0 -160 0 -160 90zM190 415c0 -25 20 -25 40 -25h100c20 0 40 0 40 25v150c0 25 -20 25 -40 25h-100c-20 0 -40 0 -40 -25v-150z" />
    <glyph glyph-name="uni2074" unicode="&#x2074;" horiz-adv-x="560" 
d="M60 380v70l270 210h170v-340h-130v60h-310zM199 450h171v133z" />
    <glyph glyph-name="uni2075" unicode="&#x2075;" horiz-adv-x="560" 
d="M60 320v70h270c20 0 40 0 40 25v25c0 25 -20 25 -40 25h-270v195h420v-70h-290v-55h150c80 0 160 0 160 -90v-35c0 -90 -80 -90 -160 -90h-280z" />
    <glyph glyph-name="uni2076" unicode="&#x2076;" horiz-adv-x="560" 
d="M60 410v150c0 100 90 100 180 100h240v-70h-240c-25 0 -50 0 -50 -30v-25h150c80 0 160 0 160 -90v-35c0 -90 -80 -90 -160 -90h-120c-80 0 -160 0 -160 90zM190 415c0 -25 20 -25 40 -25h100c20 0 40 0 40 25v25c0 25 -20 25 -40 25h-100c-20 0 -40 0 -40 -25v-25z" />
    <glyph glyph-name="uni2077" unicode="&#x2077;" horiz-adv-x="560" 
d="M60 590v70h440v-70l-190 -270h-145l190 270h-295z" />
    <glyph glyph-name="uni2078" unicode="&#x2078;" horiz-adv-x="560" 
d="M60 410v30c0 45 40 60 60 65c-20 5 -60 20 -60 65c0 90 80 90 160 90h120c80 0 160 0 160 -90c0 -45 -40 -60 -60 -65c20 -5 60 -20 60 -65v-30c0 -90 -80 -90 -160 -90h-120c-80 0 -160 0 -160 90zM190 415c0 -25 20 -25 40 -25h100c20 0 40 0 40 25v25
c0 25 -20 25 -40 25h-100c-20 0 -40 0 -40 -25v-25zM190 560c0 -25 20 -25 40 -25h100c20 0 40 0 40 25v5c0 25 -20 25 -40 25h-100c-20 0 -40 0 -40 -25v-5z" />
    <glyph glyph-name="uni2079" unicode="&#x2079;" horiz-adv-x="560" 
d="M60 555v15c0 90 80 90 160 90h120c80 0 160 0 160 -90v-150c0 -100 -90 -100 -180 -100h-240v70h240c25 0 50 0 50 30v45h-150c-80 0 -160 0 -160 90zM190 560c0 -25 20 -25 40 -25h100c20 0 40 0 40 25v5c0 25 -20 25 -40 25h-100c-20 0 -40 0 -40 -25v-5z" />
    <glyph glyph-name="uni207A" unicode="&#x207a;" horiz-adv-x="480" 
d="M60 410v70h120v90h120v-90h120v-70h-120v-90h-120v90h-120z" />
    <glyph glyph-name="uni207B" unicode="&#x207b;" horiz-adv-x="420" 
d="M60 410v70h300v-70h-300z" />
    <glyph glyph-name="uni207C" unicode="&#x207c;" horiz-adv-x="460" 
d="M60 340v70h340v-70h-340zM60 480v70h340v-70h-340z" />
    <glyph glyph-name="uni207D" unicode="&#x207d;" horiz-adv-x="305" 
d="M60 430c0 85 30 165 85 230h100c-50 -70 -75 -145 -75 -230s25 -160 75 -230h-100c-55 65 -85 145 -85 230z" />
    <glyph glyph-name="uni207E" unicode="&#x207e;" horiz-adv-x="305" 
d="M60 200c50 70 75 145 75 230s-25 160 -75 230h100c55 -65 85 -145 85 -230s-30 -165 -85 -230h-100z" />
    <glyph glyph-name="uni207F" unicode="&#x207f;" horiz-adv-x="560" 
d="M60 320v340h280c80 0 160 0 160 -90v-250h-130v245c0 25 -20 25 -40 25h-140v-270h-130z" />
    <glyph glyph-name="uni2080" unicode="&#x2080;" horiz-adv-x="560" 
d="M60 90v160c0 90 80 90 160 90h120c80 0 160 0 160 -90v-160c0 -90 -80 -90 -160 -90h-120c-80 0 -160 0 -160 90zM190 95c0 -25 20 -25 40 -25h100c20 0 40 0 40 25v150c0 25 -20 25 -40 25h-100c-20 0 -40 0 -40 -25v-150z" />
    <glyph glyph-name="uni2081" unicode="&#x2081;" horiz-adv-x="350" 
d="M60 260v80h230v-340h-130v260h-100z" />
    <glyph glyph-name="uni2082" unicode="&#x2082;" horiz-adv-x="560" 
d="M60 0v125c0 90 90 90 170 90h100c20 0 40 0 40 25v5c0 25 -20 25 -40 25h-250v70h260c80 0 160 0 160 -90v-15c0 -90 -80 -90 -160 -90h-110c-20 0 -40 0 -40 -25v-50h310v-70h-440z" />
    <glyph glyph-name="uni2083" unicode="&#x2083;" horiz-adv-x="560" 
d="M60 0v70h270c20 0 40 0 40 25v25c0 25 -20 25 -40 25h-210v70h210c20 0 40 0 40 25v5c0 25 -20 25 -40 25h-270v70h280c80 0 160 0 160 -90c0 -45 -40 -60 -60 -65c20 -5 60 -20 60 -65v-30c0 -90 -80 -90 -160 -90h-280z" />
    <glyph glyph-name="uni2084" unicode="&#x2084;" horiz-adv-x="560" 
d="M60 60v70l270 210h170v-340h-130v60h-310zM199 130h171v133z" />
    <glyph glyph-name="uni2085" unicode="&#x2085;" horiz-adv-x="560" 
d="M60 0v70h270c20 0 40 0 40 25v25c0 25 -20 25 -40 25h-270v195h420v-70h-290v-55h150c80 0 160 0 160 -90v-35c0 -90 -80 -90 -160 -90h-280z" />
    <glyph glyph-name="uni2086" unicode="&#x2086;" horiz-adv-x="560" 
d="M60 90v150c0 100 90 100 180 100h240v-70h-240c-25 0 -50 0 -50 -30v-25h150c80 0 160 0 160 -90v-35c0 -90 -80 -90 -160 -90h-120c-80 0 -160 0 -160 90zM190 95c0 -25 20 -25 40 -25h100c20 0 40 0 40 25v25c0 25 -20 25 -40 25h-100c-20 0 -40 0 -40 -25v-25z" />
    <glyph glyph-name="uni2087" unicode="&#x2087;" horiz-adv-x="560" 
d="M60 270v70h440v-70l-190 -270h-145l190 270h-295z" />
    <glyph glyph-name="uni2088" unicode="&#x2088;" horiz-adv-x="560" 
d="M60 90v30c0 45 40 60 60 65c-20 5 -60 20 -60 65c0 90 80 90 160 90h120c80 0 160 0 160 -90c0 -45 -40 -60 -60 -65c20 -5 60 -20 60 -65v-30c0 -90 -80 -90 -160 -90h-120c-80 0 -160 0 -160 90zM190 95c0 -25 20 -25 40 -25h100c20 0 40 0 40 25v25
c0 25 -20 25 -40 25h-100c-20 0 -40 0 -40 -25v-25zM190 240c0 -25 20 -25 40 -25h100c20 0 40 0 40 25v5c0 25 -20 25 -40 25h-100c-20 0 -40 0 -40 -25v-5z" />
    <glyph glyph-name="uni2089" unicode="&#x2089;" horiz-adv-x="560" 
d="M60 235v15c0 90 80 90 160 90h120c80 0 160 0 160 -90v-150c0 -100 -90 -100 -180 -100h-240v70h240c25 0 50 0 50 30v45h-150c-80 0 -160 0 -160 90zM190 240c0 -25 20 -25 40 -25h100c20 0 40 0 40 25v5c0 25 -20 25 -40 25h-100c-20 0 -40 0 -40 -25v-5z" />
    <glyph glyph-name="uni208A" unicode="&#x208a;" horiz-adv-x="480" 
d="M60 90v70h120v90h120v-90h120v-70h-120v-90h-120v90h-120z" />
    <glyph glyph-name="uni208B" unicode="&#x208b;" horiz-adv-x="420" 
d="M60 90v70h300v-70h-300z" />
    <glyph glyph-name="uni208C" unicode="&#x208c;" horiz-adv-x="460" 
d="M60 20v70h340v-70h-340zM60 160v70h340v-70h-340z" />
    <glyph glyph-name="uni208D" unicode="&#x208d;" horiz-adv-x="305" 
d="M60 110c0 85 30 165 85 230h100c-50 -70 -75 -145 -75 -230s25 -160 75 -230h-100c-55 65 -85 145 -85 230z" />
    <glyph glyph-name="uni208E" unicode="&#x208e;" horiz-adv-x="305" 
d="M60 -120c50 70 75 145 75 230s-25 160 -75 230h100c55 -65 85 -145 85 -230s-30 -165 -85 -230h-100z" />
    <glyph glyph-name="lira" unicode="&#x20a4;" horiz-adv-x="930" 
d="M70 0v110h100v95h-100v95h100v60h-100v95h100v70c0 135 120 135 240 135h210c120 0 240 0 240 -135v-60h-170v50c0 35 -30 35 -60 35h-230c-30 0 -60 0 -60 -35v-60h250v-95h-250v-60h250v-95h-250v-95h520v-110h-790z" />
    <glyph glyph-name="Euro" unicode="&#x20ac;" horiz-adv-x="1030" 
d="M70 205v95h100v60h-100v95h100v25c0 180 160 180 320 180h150c160 0 320 0 320 -180h-170c-5 70 -65 70 -130 70h-190c-65 0 -130 0 -130 -75v-20h355l-25 -95h-330v-60h310l-25 -95h-285v-20c0 -75 65 -75 130 -75h190c65 0 125 0 130 70h170
c0 -180 -160 -180 -320 -180h-150c-160 0 -320 0 -320 180v25h-100z" />
    <glyph glyph-name="uni20AF" unicode="&#x20af;" horiz-adv-x="1390" 
d="M70 0v660h300c180 0 360 -80 360 -305v-45c0 -225 -180 -310 -360 -310h-300zM240 110h80c120 0 240 40 240 200v45c0 160 -120 200 -240 200h-80v-445zM800 -225v590c0 115 100 115 200 115h120c100 0 200 0 200 -115v-250c0 -115 -100 -115 -200 -115h-160v-225h-160z
M960 95h150c25 0 50 0 50 30v230c0 30 -25 30 -50 30h-100c-25 0 -50 0 -50 -30v-260z" />
    <glyph glyph-name="afii61248" unicode="&#x2105;" horiz-adv-x="1230" 
d="M380 0l330 660h140l-330 -660h-140zM60 410v160c0 90 80 90 160 90h250v-70h-240c-20 0 -40 0 -40 -25v-150c0 -25 20 -25 40 -25h240v-70h-250c-80 0 -160 0 -160 90zM730 90v160c0 90 80 90 160 90h120c80 0 160 0 160 -90v-160c0 -90 -80 -90 -160 -90h-120
c-80 0 -160 0 -160 90zM860 95c0 -25 20 -25 40 -25h100c20 0 40 0 40 25v150c0 25 -20 25 -40 25h-100c-20 0 -40 0 -40 -25v-150z" />
    <glyph glyph-name="afii61289" unicode="&#x2113;" horiz-adv-x="665" 
d="M60 225v95h100v225c0 115 100 115 200 115h50c80 0 160 0 160 -115v-205c0 -115 -80 -115 -160 -115h-90v-100c0 -30 25 -30 50 -30h95c55 0 105 35 105 75h35c0 -70 -25 -170 -140 -170h-105c-100 0 -200 0 -200 115v110h-100zM320 320h90c25 0 50 0 50 30v185
c0 30 -25 30 -50 30h-40c-25 0 -50 0 -50 -30v-215z" />
    <glyph glyph-name="afii61352" unicode="&#x2116;" horiz-adv-x="1350" 
d="M70 0v660h190l330 -460v460h170v-660h-190l-330 460v-460h-170zM840 0v70h440v-70h-440zM840 230v160c0 90 80 90 160 90h120c80 0 160 0 160 -90v-160c0 -90 -80 -90 -160 -90h-120c-80 0 -160 0 -160 90zM970 235c0 -25 20 -25 40 -25h100c20 0 40 0 40 25v150
c0 25 -20 25 -40 25h-100c-20 0 -40 0 -40 -25v-150z" />
    <glyph glyph-name="uni2117" unicode="&#x2117;" horiz-adv-x="1060" 
d="M60 115v430c0 115 100 115 200 115h540c100 0 200 0 200 -115v-430c0 -115 -100 -115 -200 -115h-540c-100 0 -200 0 -200 115zM190 125c0 -55 50 -55 100 -55h480c50 0 100 0 100 55v410c0 55 -50 55 -100 55h-480c-50 0 -100 0 -100 -55v-410zM310 160v340h280
c80 0 160 0 160 -90v-35c0 -80 -65 -90 -135 -90h-175v-125h-130zM440 355h140c20 0 40 0 40 25v25c0 25 -20 25 -40 25h-140v-75z" />
    <glyph glyph-name="trademark" unicode="&#x2122;" horiz-adv-x="1170" 
d="M60 590v70h430v-70h-150v-270h-130v270h-150zM550 320v340h170l110 -220l110 220h170v-340h-130v200l-100 -200h-100l-100 200v-200h-130z" />
    <glyph glyph-name="uni2126" unicode="&#x2126;" horiz-adv-x="930" 
d="M50 0v105h95c-45 45 -75 115 -75 215v40c0 235 150 300 350 300h90c200 0 350 -65 350 -300v-40c0 -100 -30 -170 -75 -215h95v-105h-365v105c110 0 175 40 175 200v50c0 160 -65 200 -175 200h-100c-110 0 -175 -40 -175 -200v-50c0 -160 65 -200 175 -200v-105h-365z
" />
    <glyph glyph-name="estimated" unicode="&#x212e;" horiz-adv-x="700" 
d="M60 240c0 133 130 240 290 240s290 -108 290 -240v-15h-440v-133c41 -26 93 -42 150 -42c66 0 126 21 169 55h71c-52 -63 -140 -105 -240 -105c-160 0 -290 108 -290 240zM200 275h300v113c-41 26 -93 42 -150 42s-109 -16 -150 -42v-113z" />
    <glyph glyph-name="oneeighth" unicode="&#x215b;" horiz-adv-x="1070" 
d="M570 90v30c0 45 40 60 60 65c-20 5 -60 20 -60 65c0 90 80 90 160 90h120c80 0 160 0 160 -90c0 -45 -40 -60 -60 -65c20 -5 60 -20 60 -65v-30c0 -90 -80 -90 -160 -90h-120c-80 0 -160 0 -160 90zM700 95c0 -25 20 -25 40 -25h100c20 0 40 0 40 25v25
c0 25 -20 25 -40 25h-100c-20 0 -40 0 -40 -25v-25zM700 240c0 -25 20 -25 40 -25h100c20 0 40 0 40 25v5c0 25 -20 25 -40 25h-100c-20 0 -40 0 -40 -25v-5zM220 0l330 660h140l-330 -660h-140zM60 580v80h230v-340h-130v260h-100z" />
    <glyph glyph-name="threeeighths" unicode="&#x215c;" horiz-adv-x="1230" 
d="M730 90v30c0 45 40 60 60 65c-20 5 -60 20 -60 65c0 90 80 90 160 90h120c80 0 160 0 160 -90c0 -45 -40 -60 -60 -65c20 -5 60 -20 60 -65v-30c0 -90 -80 -90 -160 -90h-120c-80 0 -160 0 -160 90zM860 95c0 -25 20 -25 40 -25h100c20 0 40 0 40 25v25
c0 25 -20 25 -40 25h-100c-20 0 -40 0 -40 -25v-25zM860 240c0 -25 20 -25 40 -25h100c20 0 40 0 40 25v5c0 25 -20 25 -40 25h-100c-20 0 -40 0 -40 -25v-5zM380 0l330 660h140l-330 -660h-140zM60 320v70h270c20 0 40 0 40 25v25c0 25 -20 25 -40 25h-210v70h210
c20 0 40 0 40 25v5c0 25 -20 25 -40 25h-270v70h280c80 0 160 0 160 -90c0 -45 -40 -60 -60 -65c20 -5 60 -20 60 -65v-30c0 -90 -80 -90 -160 -90h-280z" />
    <glyph glyph-name="fiveeighths" unicode="&#x215d;" horiz-adv-x="1230" 
d="M730 90v30c0 45 40 60 60 65c-20 5 -60 20 -60 65c0 90 80 90 160 90h120c80 0 160 0 160 -90c0 -45 -40 -60 -60 -65c20 -5 60 -20 60 -65v-30c0 -90 -80 -90 -160 -90h-120c-80 0 -160 0 -160 90zM860 95c0 -25 20 -25 40 -25h100c20 0 40 0 40 25v25
c0 25 -20 25 -40 25h-100c-20 0 -40 0 -40 -25v-25zM860 240c0 -25 20 -25 40 -25h100c20 0 40 0 40 25v5c0 25 -20 25 -40 25h-100c-20 0 -40 0 -40 -25v-5zM380 0l330 660h140l-330 -660h-140zM60 320v70h270c20 0 40 0 40 25v25c0 25 -20 25 -40 25h-270v195h420v-70
h-290v-55h150c80 0 160 0 160 -90v-35c0 -90 -80 -90 -160 -90h-280z" />
    <glyph glyph-name="seveneighths" unicode="&#x215e;" horiz-adv-x="1150" 
d="M650 90v30c0 45 40 60 60 65c-20 5 -60 20 -60 65c0 90 80 90 160 90h120c80 0 160 0 160 -90c0 -45 -40 -60 -60 -65c20 -5 60 -20 60 -65v-30c0 -90 -80 -90 -160 -90h-120c-80 0 -160 0 -160 90zM780 95c0 -25 20 -25 40 -25h100c20 0 40 0 40 25v25
c0 25 -20 25 -40 25h-100c-20 0 -40 0 -40 -25v-25zM780 240c0 -25 20 -25 40 -25h100c20 0 40 0 40 25v5c0 25 -20 25 -40 25h-100c-20 0 -40 0 -40 -25v-5zM300 0l330 660h140l-330 -660h-140zM60 590v70h440v-70l-190 -270h-145l190 270h-295z" />
    <glyph glyph-name="partialdiff" unicode="&#x2202;" 
d="M60 115v205c0 115 100 115 200 115h260c0 90 -155 130 -410 130v95c405 0 570 -55 570 -250v-295c0 -115 -100 -115 -200 -115h-220c-100 0 -200 0 -200 115zM220 125c0 -30 25 -30 50 -30h200c25 0 50 0 50 30v185c0 30 -25 30 -50 30h-200c-25 0 -50 0 -50 -30v-185z
" />
    <glyph glyph-name="uni2206" unicode="&#x2206;" horiz-adv-x="930" 
d="M20 0l330 660h230l330 -660h-890zM245 111h440l-220 439z" />
    <glyph glyph-name="product" unicode="&#x220f;" horiz-adv-x="930" 
d="M70 0v660h790v-660h-170v550h-450v-550h-170z" />
    <glyph glyph-name="summation" unicode="&#x2211;" horiz-adv-x="910" 
d="M70 -115l330 335l-330 330v110h770v-110h-570l330 -330l-330 -335h570v-110h-770v110z" />
    <glyph glyph-name="minus" unicode="&#x2212;" horiz-adv-x="720" 
d="M60 180v120h600v-120h-600z" />
    <glyph glyph-name="uni2215" unicode="&#x2215;" horiz-adv-x="110" 
d="M-180 0l330 660h140l-330 -660h-140z" />
    <glyph glyph-name="uni2219" unicode="&#x2219;" horiz-adv-x="320" 
d="M75 200v140h170v-140h-170z" />
    <glyph glyph-name="radical" unicode="&#x221a;" 
d="M60 295v90h230l90 -270l210 630h130l-255 -765h-180l-105 315h-120z" />
    <glyph glyph-name="infinity" unicode="&#x221e;" horiz-adv-x="950" 
d="M60 205v110c0 115 100 115 200 115h75c60 0 110 0 140 -30c30 30 80 30 140 30h75c100 0 200 0 200 -115v-110c0 -115 -100 -115 -200 -115h-75c-60 0 -110 0 -140 30c-30 -30 -80 -30 -140 -30h-75c-100 0 -200 0 -200 115zM190 215c0 -55 50 -55 100 -55h10
c50 0 100 0 100 55v90c0 55 -50 55 -100 55h-10c-50 0 -100 0 -100 -55v-90zM550 215c0 -55 50 -55 100 -55h10c50 0 100 0 100 55v90c0 55 -50 55 -100 55h-10c-50 0 -100 0 -100 -55v-90z" />
    <glyph glyph-name="orthogonal" unicode="&#x221f;" horiz-adv-x="780" 
d="M60 0v660h120v-540h540v-120h-660z" />
    <glyph glyph-name="integral" unicode="&#x222b;" horiz-adv-x="440" 
d="M0 -130h90c25 0 50 0 50 30v645c0 115 100 115 200 115h100v-95h-90c-25 0 -50 0 -50 -30v-645c0 -115 -100 -115 -200 -115h-100v95z" />
    <glyph glyph-name="approxequal" unicode="&#x2248;" horiz-adv-x="700" 
d="M60 65v105c60 30 120 60 180 60c50 0 95 -25 130 -50c41 -29 80 -55 125 -55c50 0 105 20 145 40v-105c-60 -30 -120 -60 -180 -60c-50 0 -95 25 -130 50c-41 29 -80 55 -125 55c-50 0 -105 -20 -145 -40zM60 315v105c60 30 120 60 180 60c50 0 95 -25 130 -50
c41 -29 80 -55 125 -55c50 0 105 20 145 40v-105c-60 -30 -120 -60 -180 -60c-50 0 -95 25 -130 50c-41 29 -80 55 -125 55c-50 0 -105 -20 -145 -40z" />
    <glyph glyph-name="notequal" unicode="&#x2260;" horiz-adv-x="720" 
d="M450 530l88 -44l-33 -66h155v-120h-215l-60 -120h275v-120h-335l-55 -110l-88 44l33 66h-155v120h215l60 120h-275v120h335z" />
    <glyph glyph-name="lessequal" unicode="&#x2264;" horiz-adv-x="750" 
d="M60 0v120h630v-120h-630zM60 310v100l630 170v-120l-400 -100l400 -100v-120z" />
    <glyph glyph-name="greaterequal" unicode="&#x2265;" horiz-adv-x="750" 
d="M60 0v120h630v-120h-630zM60 140v120l400 100l-400 100v120l630 -170v-100z" />
    <glyph glyph-name="lozenge" unicode="&#x25ca;" horiz-adv-x="600" 
d="M60 330l165 330h150l165 -330l-165 -330h-150zM190 330l110 -220l110 220l-110 220z" />
    <glyph glyph-name="uniFB00" unicode="&#xfb00;" horiz-adv-x="940" 
d="M520 0v545c0 115 100 115 200 115h160v-95h-150c-25 0 -50 0 -50 -30v-55h200v-95h-200v-385h-160zM60 0v545c0 115 100 115 200 115h160v-95h-150c-25 0 -50 0 -50 -30v-55h200v-95h-200v-385h-160z" />
    <glyph glyph-name="uniFB01" unicode="&#xfb01;" 
d="M520 0v480h160v-480h-160zM520 565v95h160v-95h-160zM60 0v545c0 115 100 115 200 115h160v-95h-150c-25 0 -50 0 -50 -30v-55h200v-95h-200v-385h-160z" />
    <glyph glyph-name="uniFB02" unicode="&#xfb02;" 
d="M520 0v660h160v-660h-160zM60 0v545c0 115 100 115 200 115h160v-95h-150c-25 0 -50 0 -50 -30v-55h200v-95h-200v-385h-160z" />
    <glyph glyph-name="uniFB03" unicode="&#xfb03;" horiz-adv-x="1200" 
d="M980 0v480h160v-480h-160zM980 565v95h160v-95h-160zM520 0v545c0 115 100 115 200 115h160v-95h-150c-25 0 -50 0 -50 -30v-55h200v-95h-200v-385h-160zM60 0v545c0 115 100 115 200 115h160v-95h-150c-25 0 -50 0 -50 -30v-55h200v-95h-200v-385h-160z" />
    <glyph glyph-name="uniFB04" unicode="&#xfb04;" horiz-adv-x="1200" 
d="M980 0v660h160v-660h-160zM520 0v545c0 115 100 115 200 115h160v-95h-150c-25 0 -50 0 -50 -30v-55h200v-95h-200v-385h-160zM60 0v545c0 115 100 115 200 115h160v-95h-150c-25 0 -50 0 -50 -30v-55h200v-95h-200v-385h-160z" />
    </font>
</defs>
</svg>
